<svg width="519" height="350" viewBox="0 0 519 350" fill="none" xmlns="http://www.w3.org/2000/svg">
<path d="M81.0114 58V46.3636H83.4716V55.9716H88.4602V58H81.0114ZM92.5327 58.1648C91.9759 58.1648 91.4796 58.0682 91.044 57.875C90.6084 57.678 90.2637 57.3883 90.0099 57.0057C89.7599 56.6193 89.6349 56.1383 89.6349 55.5625C89.6349 55.0777 89.724 54.6705 89.902 54.3409C90.08 54.0114 90.3224 53.7462 90.6293 53.5455C90.9361 53.3447 91.2846 53.1932 91.6747 53.0909C92.0687 52.9886 92.4815 52.9167 92.9134 52.875C93.4209 52.822 93.83 52.7727 94.1406 52.7273C94.4512 52.678 94.6766 52.6061 94.8168 52.5114C94.9569 52.4167 95.027 52.2765 95.027 52.0909V52.0568C95.027 51.697 94.9134 51.4186 94.6861 51.2216C94.4626 51.0246 94.1444 50.9261 93.7315 50.9261C93.2959 50.9261 92.9493 51.0227 92.6918 51.2159C92.4342 51.4053 92.2637 51.6439 92.1804 51.9318L89.9418 51.75C90.0554 51.2197 90.2789 50.7614 90.6122 50.375C90.9455 49.9848 91.3755 49.6856 91.902 49.4773C92.4323 49.2652 93.0459 49.1591 93.7429 49.1591C94.2277 49.1591 94.6918 49.2159 95.1349 49.3295C95.5819 49.4432 95.9777 49.6193 96.3224 49.858C96.6709 50.0966 96.9455 50.4034 97.1463 50.7784C97.3471 51.1496 97.4474 51.5947 97.4474 52.1136V58H95.152V56.7898H95.0838C94.9437 57.0625 94.7562 57.303 94.5213 57.5114C94.2865 57.7159 94.0043 57.8769 93.6747 57.9943C93.3452 58.108 92.9645 58.1648 92.5327 58.1648ZM93.2259 56.4943C93.5819 56.4943 93.8963 56.4242 94.169 56.2841C94.4418 56.1402 94.6558 55.947 94.8111 55.7045C94.9664 55.4621 95.044 55.1875 95.044 54.8807V53.9545C94.9683 54.0038 94.8641 54.0492 94.7315 54.0909C94.6027 54.1288 94.4569 54.1648 94.294 54.1989C94.1312 54.2292 93.9683 54.2576 93.8054 54.2841C93.6425 54.3068 93.4948 54.3277 93.3622 54.3466C93.0781 54.3883 92.83 54.4545 92.6179 54.5455C92.4058 54.6364 92.241 54.7595 92.1236 54.9148C92.0062 55.0663 91.9474 55.2557 91.9474 55.483C91.9474 55.8125 92.0668 56.0644 92.3054 56.2386C92.5478 56.4091 92.8546 56.4943 93.2259 56.4943ZM99.3707 58V46.3636H101.791V50.7386H101.865C101.971 50.5038 102.125 50.2652 102.325 50.0227C102.53 49.7765 102.795 49.572 103.121 49.4091C103.45 49.2424 103.859 49.1591 104.348 49.1591C104.984 49.1591 105.571 49.3258 106.109 49.6591C106.647 49.9886 107.077 50.4867 107.399 51.1534C107.721 51.8163 107.882 52.6477 107.882 53.6477C107.882 54.6212 107.725 55.4432 107.411 56.1136C107.1 56.7803 106.676 57.286 106.138 57.6307C105.604 57.9716 105.005 58.142 104.342 58.142C103.873 58.142 103.473 58.0644 103.143 57.9091C102.818 57.7538 102.551 57.5587 102.342 57.3239C102.134 57.0852 101.975 56.8447 101.865 56.6023H101.757V58H99.3707ZM101.74 53.6364C101.74 54.1553 101.812 54.608 101.956 54.9943C102.1 55.3807 102.308 55.6818 102.581 55.8977C102.854 56.1098 103.185 56.2159 103.575 56.2159C103.969 56.2159 104.303 56.108 104.575 55.892C104.848 55.6723 105.054 55.3693 105.195 54.983C105.339 54.5928 105.411 54.1439 105.411 53.6364C105.411 53.1326 105.34 52.6894 105.2 52.3068C105.06 51.9242 104.854 51.625 104.581 51.4091C104.308 51.1932 103.973 51.0852 103.575 51.0852C103.181 51.0852 102.848 51.1894 102.575 51.3977C102.306 51.6061 102.1 51.9015 101.956 52.2841C101.812 52.6667 101.74 53.1174 101.74 53.6364ZM113.474 58.1705C112.577 58.1705 111.804 57.9886 111.156 57.625C110.512 57.2576 110.016 56.7386 109.668 56.0682C109.319 55.3939 109.145 54.5966 109.145 53.6761C109.145 52.7784 109.319 51.9905 109.668 51.3125C110.016 50.6345 110.507 50.1061 111.139 49.7273C111.776 49.3485 112.522 49.1591 113.378 49.1591C113.954 49.1591 114.49 49.2519 114.986 49.4375C115.486 49.6193 115.921 49.8939 116.293 50.2614C116.668 50.6288 116.959 51.0909 117.168 51.6477C117.376 52.2008 117.48 52.8485 117.48 53.5909V54.2557H110.111V52.7557H115.202C115.202 52.4072 115.126 52.0985 114.974 51.8295C114.823 51.5606 114.613 51.3504 114.344 51.1989C114.079 51.0436 113.77 50.9659 113.418 50.9659C113.05 50.9659 112.724 51.0511 112.44 51.2216C112.16 51.3883 111.94 51.6136 111.781 51.8977C111.622 52.178 111.541 52.4905 111.537 52.8352V54.2614C111.537 54.6932 111.616 55.0663 111.776 55.3807C111.938 55.6951 112.168 55.9375 112.463 56.108C112.759 56.2784 113.109 56.3636 113.514 56.3636C113.783 56.3636 114.029 56.3258 114.253 56.25C114.476 56.1742 114.668 56.0606 114.827 55.9091C114.986 55.7576 115.107 55.572 115.19 55.3523L117.429 55.5C117.315 56.0379 117.082 56.5076 116.73 56.9091C116.382 57.3068 115.931 57.6174 115.378 57.8409C114.829 58.0606 114.194 58.1705 113.474 58.1705ZM121.48 46.3636V58H119.06V46.3636H121.48Z" fill="#1D2939"/>
<path d="M80.7727 79.6136V78.3636H89.5V79.6136H85.8409V90H84.4318V79.6136H80.7727ZM92.8338 84.75V90H91.4929V78.3636H92.8338V82.6364H92.9474C93.152 82.1856 93.4588 81.8277 93.8679 81.5625C94.2808 81.2936 94.83 81.1591 95.5156 81.1591C96.1103 81.1591 96.6312 81.2784 97.0781 81.517C97.5251 81.7519 97.8717 82.1136 98.1179 82.6023C98.3679 83.0871 98.4929 83.7045 98.4929 84.4545V90H97.152V84.5455C97.152 83.8523 96.9721 83.3163 96.6122 82.9375C96.2562 82.5549 95.7618 82.3636 95.1293 82.3636C94.6899 82.3636 94.2959 82.4564 93.9474 82.642C93.6027 82.8277 93.33 83.0985 93.1293 83.4545C92.9323 83.8106 92.8338 84.2424 92.8338 84.75ZM100.946 90V81.2727H102.287V90H100.946ZM101.628 79.8182C101.366 79.8182 101.141 79.7292 100.952 79.5511C100.766 79.3731 100.673 79.1591 100.673 78.9091C100.673 78.6591 100.766 78.4451 100.952 78.267C101.141 78.089 101.366 78 101.628 78C101.889 78 102.113 78.089 102.298 78.267C102.488 78.4451 102.582 78.6591 102.582 78.9091C102.582 79.1591 102.488 79.3731 102.298 79.5511C102.113 79.7292 101.889 79.8182 101.628 79.8182ZM110.925 83.2273L109.72 83.5682C109.644 83.3674 109.533 83.1723 109.385 82.983C109.241 82.7898 109.044 82.6307 108.794 82.5057C108.544 82.3807 108.224 82.3182 107.834 82.3182C107.3 82.3182 106.855 82.4413 106.499 82.6875C106.146 82.9299 105.97 83.2386 105.97 83.6136C105.97 83.947 106.091 84.2102 106.334 84.4034C106.576 84.5966 106.955 84.7576 107.47 84.8864L108.766 85.2045C109.546 85.3939 110.127 85.6837 110.51 86.0739C110.893 86.4602 111.084 86.9583 111.084 87.5682C111.084 88.0682 110.94 88.5152 110.652 88.9091C110.368 89.303 109.97 89.6136 109.459 89.8409C108.947 90.0682 108.353 90.1818 107.675 90.1818C106.785 90.1818 106.048 89.9886 105.464 89.6023C104.881 89.2159 104.512 88.6515 104.357 87.9091L105.629 87.5909C105.75 88.0606 105.98 88.4129 106.317 88.6477C106.658 88.8826 107.103 89 107.652 89C108.277 89 108.773 88.8674 109.141 88.6023C109.512 88.3333 109.697 88.0114 109.697 87.6364C109.697 87.3333 109.591 87.0795 109.379 86.875C109.167 86.6667 108.841 86.5114 108.402 86.4091L106.947 86.0682C106.148 85.8788 105.561 85.5852 105.186 85.1875C104.815 84.786 104.629 84.2841 104.629 83.6818C104.629 83.1894 104.768 82.7538 105.044 82.375C105.324 81.9962 105.705 81.6989 106.186 81.483C106.671 81.267 107.22 81.1591 107.834 81.1591C108.697 81.1591 109.375 81.3485 109.868 81.7273C110.364 82.1061 110.716 82.6061 110.925 83.2273ZM117.602 90V81.2727H118.943V90H117.602ZM118.284 79.8182C118.023 79.8182 117.797 79.7292 117.608 79.5511C117.422 79.3731 117.33 79.1591 117.33 78.9091C117.33 78.6591 117.422 78.4451 117.608 78.267C117.797 78.089 118.023 78 118.284 78C118.545 78 118.769 78.089 118.955 78.267C119.144 78.4451 119.239 78.6591 119.239 78.9091C119.239 79.1591 119.144 79.3731 118.955 79.5511C118.769 79.7292 118.545 79.8182 118.284 79.8182ZM127.581 83.2273L126.376 83.5682C126.301 83.3674 126.189 83.1723 126.041 82.983C125.897 82.7898 125.7 82.6307 125.45 82.5057C125.2 82.3807 124.88 82.3182 124.49 82.3182C123.956 82.3182 123.511 82.4413 123.155 82.6875C122.803 82.9299 122.626 83.2386 122.626 83.6136C122.626 83.947 122.748 84.2102 122.99 84.4034C123.232 84.5966 123.611 84.7576 124.126 84.8864L125.422 85.2045C126.202 85.3939 126.784 85.6837 127.166 86.0739C127.549 86.4602 127.74 86.9583 127.74 87.5682C127.74 88.0682 127.596 88.5152 127.308 88.9091C127.024 89.303 126.626 89.6136 126.115 89.8409C125.604 90.0682 125.009 90.1818 124.331 90.1818C123.441 90.1818 122.704 89.9886 122.121 89.6023C121.537 89.2159 121.168 88.6515 121.013 87.9091L122.286 87.5909C122.407 88.0606 122.636 88.4129 122.973 88.6477C123.314 88.8826 123.759 89 124.308 89C124.933 89 125.429 88.8674 125.797 88.6023C126.168 88.3333 126.354 88.0114 126.354 87.6364C126.354 87.3333 126.248 87.0795 126.036 86.875C125.823 86.6667 125.498 86.5114 125.058 86.4091L123.604 86.0682C122.804 85.8788 122.217 85.5852 121.842 85.1875C121.471 84.786 121.286 84.2841 121.286 83.6818C121.286 83.1894 121.424 82.7538 121.7 82.375C121.981 81.9962 122.361 81.6989 122.842 81.483C123.327 81.267 123.876 81.1591 124.49 81.1591C125.354 81.1591 126.032 81.3485 126.524 81.7273C127.02 82.1061 127.373 82.6061 127.581 83.2273ZM138.054 81.2727V82.4091H133.531V81.2727H138.054ZM134.849 79.1818H136.19V87.5C136.19 87.8788 136.245 88.1629 136.355 88.3523C136.469 88.5379 136.613 88.6629 136.787 88.7273C136.965 88.7879 137.152 88.8182 137.349 88.8182C137.497 88.8182 137.618 88.8106 137.713 88.7955C137.808 88.7765 137.884 88.7614 137.94 88.75L138.213 89.9545C138.122 89.9886 137.995 90.0227 137.832 90.0568C137.67 90.0947 137.463 90.1136 137.213 90.1136C136.834 90.1136 136.463 90.0322 136.099 89.8693C135.74 89.7064 135.44 89.4583 135.202 89.125C134.967 88.7917 134.849 88.3712 134.849 87.8636V79.1818ZM141.599 84.75V90H140.259V78.3636H141.599V82.6364H141.713C141.918 82.1856 142.224 81.8277 142.634 81.5625C143.046 81.2936 143.596 81.1591 144.281 81.1591C144.876 81.1591 145.397 81.2784 145.844 81.517C146.291 81.7519 146.637 82.1136 146.884 82.6023C147.134 83.0871 147.259 83.7045 147.259 84.4545V90H145.918V84.5455C145.918 83.8523 145.738 83.3163 145.378 82.9375C145.022 82.5549 144.527 82.3636 143.895 82.3636C143.455 82.3636 143.062 82.4564 142.713 82.642C142.368 82.8277 142.096 83.0985 141.895 83.4545C141.698 83.8106 141.599 84.2424 141.599 84.75ZM153.371 90.1818C152.53 90.1818 151.804 89.9962 151.195 89.625C150.589 89.25 150.121 88.7273 149.791 88.0568C149.465 87.3826 149.303 86.5985 149.303 85.7045C149.303 84.8106 149.465 84.0227 149.791 83.3409C150.121 82.6553 150.579 82.1212 151.166 81.7386C151.757 81.3523 152.446 81.1591 153.234 81.1591C153.689 81.1591 154.138 81.2348 154.581 81.3864C155.024 81.5379 155.428 81.7841 155.791 82.125C156.155 82.4621 156.445 82.9091 156.661 83.4659C156.876 84.0227 156.984 84.7083 156.984 85.5227V86.0909H150.257V84.9318H155.621C155.621 84.4394 155.522 84 155.325 83.6136C155.132 83.2273 154.856 82.9223 154.496 82.6989C154.14 82.4754 153.719 82.3636 153.234 82.3636C152.7 82.3636 152.238 82.4962 151.848 82.7614C151.462 83.0227 151.164 83.3636 150.956 83.7841C150.748 84.2045 150.643 84.6553 150.643 85.1364V85.9091C150.643 86.5682 150.757 87.1269 150.984 87.5852C151.215 88.0398 151.536 88.3864 151.945 88.625C152.354 88.8598 152.829 88.9773 153.371 88.9773C153.723 88.9773 154.041 88.928 154.325 88.8295C154.613 88.7273 154.861 88.5758 155.07 88.375C155.278 88.1705 155.439 87.9167 155.553 87.6136L156.848 87.9773C156.712 88.4167 156.482 88.803 156.161 89.1364C155.839 89.4659 155.441 89.7235 154.967 89.9091C154.494 90.0909 153.962 90.1818 153.371 90.1818ZM164.865 84.75V90H163.524V78.3636H164.865V82.6364H164.979C165.183 82.1856 165.49 81.8277 165.899 81.5625C166.312 81.2936 166.861 81.1591 167.547 81.1591C168.142 81.1591 168.662 81.2784 169.109 81.517C169.556 81.7519 169.903 82.1136 170.149 82.6023C170.399 83.0871 170.524 83.7045 170.524 84.4545V90H169.183V84.5455C169.183 83.8523 169.003 83.3163 168.643 82.9375C168.287 82.5549 167.793 82.3636 167.161 82.3636C166.721 82.3636 166.327 82.4564 165.979 82.642C165.634 82.8277 165.361 83.0985 165.161 83.4545C164.964 83.8106 164.865 84.2424 164.865 84.75ZM172.977 90V81.2727H174.318V90H172.977ZM173.659 79.8182C173.398 79.8182 173.172 79.7292 172.983 79.5511C172.797 79.3731 172.705 79.1591 172.705 78.9091C172.705 78.6591 172.797 78.4451 172.983 78.267C173.172 78.089 173.398 78 173.659 78C173.92 78 174.144 78.089 174.33 78.267C174.519 78.4451 174.614 78.6591 174.614 78.9091C174.614 79.1591 174.519 79.3731 174.33 79.5511C174.144 79.7292 173.92 79.8182 173.659 79.8182ZM178.115 84.75V90H176.774V81.2727H178.07V82.6364H178.183C178.388 82.1932 178.698 81.8371 179.115 81.5682C179.532 81.2955 180.07 81.1591 180.729 81.1591C181.32 81.1591 181.837 81.2803 182.28 81.5227C182.723 81.7614 183.068 82.125 183.314 82.6136C183.56 83.0985 183.683 83.7121 183.683 84.4545V90H182.342V84.5455C182.342 83.8598 182.164 83.3258 181.808 82.9432C181.452 82.5568 180.964 82.3636 180.342 82.3636C179.914 82.3636 179.532 82.4564 179.195 82.642C178.861 82.8277 178.598 83.0985 178.405 83.4545C178.212 83.8106 178.115 84.2424 178.115 84.75ZM189.929 81.2727V82.4091H185.406V81.2727H189.929ZM186.724 79.1818H188.065V87.5C188.065 87.8788 188.12 88.1629 188.23 88.3523C188.344 88.5379 188.488 88.6629 188.662 88.7273C188.84 88.7879 189.027 88.8182 189.224 88.8182C189.372 88.8182 189.493 88.8106 189.588 88.7955C189.683 88.7765 189.759 88.7614 189.815 88.75L190.088 89.9545C189.997 89.9886 189.87 90.0227 189.707 90.0568C189.545 90.0947 189.338 90.1136 189.088 90.1136C188.709 90.1136 188.338 90.0322 187.974 89.8693C187.615 89.7064 187.315 89.4583 187.077 89.125C186.842 88.7917 186.724 88.3712 186.724 87.8636V79.1818ZM200.241 81.2727V82.4091H195.719V81.2727H200.241ZM197.037 79.1818H198.378V87.5C198.378 87.8788 198.433 88.1629 198.543 88.3523C198.656 88.5379 198.8 88.6629 198.974 88.7273C199.152 88.7879 199.34 88.8182 199.537 88.8182C199.685 88.8182 199.806 88.8106 199.901 88.7955C199.995 88.7765 200.071 88.7614 200.128 88.75L200.401 89.9545C200.31 89.9886 200.183 90.0227 200.02 90.0568C199.857 90.0947 199.651 90.1136 199.401 90.1136C199.022 90.1136 198.651 90.0322 198.287 89.8693C197.927 89.7064 197.628 89.4583 197.389 89.125C197.154 88.7917 197.037 88.3712 197.037 87.8636V79.1818ZM205.824 90.1818C204.983 90.1818 204.258 89.9962 203.648 89.625C203.042 89.25 202.574 88.7273 202.244 88.0568C201.919 87.3826 201.756 86.5985 201.756 85.7045C201.756 84.8106 201.919 84.0227 202.244 83.3409C202.574 82.6553 203.032 82.1212 203.619 81.7386C204.21 81.3523 204.9 81.1591 205.688 81.1591C206.142 81.1591 206.591 81.2348 207.034 81.3864C207.477 81.5379 207.881 81.7841 208.244 82.125C208.608 82.4621 208.898 82.9091 209.114 83.4659C209.33 84.0227 209.438 84.7083 209.438 85.5227V86.0909H202.71V84.9318H208.074C208.074 84.4394 207.975 84 207.778 83.6136C207.585 83.2273 207.309 82.9223 206.949 82.6989C206.593 82.4754 206.172 82.3636 205.688 82.3636C205.153 82.3636 204.691 82.4962 204.301 82.7614C203.915 83.0227 203.617 83.3636 203.409 83.7841C203.201 84.2045 203.097 84.6553 203.097 85.1364V85.9091C203.097 86.5682 203.21 87.1269 203.438 87.5852C203.669 88.0398 203.989 88.3864 204.398 88.625C204.807 88.8598 205.282 88.9773 205.824 88.9773C206.176 88.9773 206.494 88.928 206.778 88.8295C207.066 88.7273 207.314 88.5758 207.523 88.375C207.731 88.1705 207.892 87.9167 208.006 87.6136L209.301 87.9773C209.165 88.4167 208.936 88.803 208.614 89.1364C208.292 89.4659 207.894 89.7235 207.42 89.9091C206.947 90.0909 206.415 90.1818 205.824 90.1818ZM212.243 81.2727L214.334 84.8409L216.425 81.2727H217.97L215.152 85.6364L217.97 90H216.425L214.334 86.6136L212.243 90H210.697L213.47 85.6364L210.697 81.2727H212.243ZM223.679 81.2727V82.4091H219.156V81.2727H223.679ZM220.474 79.1818H221.815V87.5C221.815 87.8788 221.87 88.1629 221.98 88.3523C222.094 88.5379 222.238 88.6629 222.412 88.7273C222.59 88.7879 222.777 88.8182 222.974 88.8182C223.122 88.8182 223.243 88.8106 223.338 88.7955C223.433 88.7765 223.509 88.7614 223.565 88.75L223.838 89.9545C223.747 89.9886 223.62 90.0227 223.457 90.0568C223.295 90.0947 223.088 90.1136 222.838 90.1136C222.459 90.1136 222.088 90.0322 221.724 89.8693C221.365 89.7064 221.065 89.4583 220.827 89.125C220.592 88.7917 220.474 88.3712 220.474 87.8636V79.1818Z" fill="#667085"/>
<rect x="80.5" y="100.5" width="360" height="47" rx="3.5" fill="white"/>
<rect x="80.5" y="100.5" width="360" height="47" rx="3.5" stroke="#98A2B3"/>
<path d="M96.7727 119.614V118.364H105.5V119.614H101.841V130H100.432V119.614H96.7727ZM109.886 130.182C109.045 130.182 108.32 129.996 107.71 129.625C107.104 129.25 106.636 128.727 106.307 128.057C105.981 127.383 105.818 126.598 105.818 125.705C105.818 124.811 105.981 124.023 106.307 123.341C106.636 122.655 107.095 122.121 107.682 121.739C108.273 121.352 108.962 121.159 109.75 121.159C110.205 121.159 110.653 121.235 111.097 121.386C111.54 121.538 111.943 121.784 112.307 122.125C112.67 122.462 112.96 122.909 113.176 123.466C113.392 124.023 113.5 124.708 113.5 125.523V126.091H106.773V124.932H112.136C112.136 124.439 112.038 124 111.841 123.614C111.648 123.227 111.371 122.922 111.011 122.699C110.655 122.475 110.235 122.364 109.75 122.364C109.216 122.364 108.754 122.496 108.364 122.761C107.977 123.023 107.68 123.364 107.472 123.784C107.263 124.205 107.159 124.655 107.159 125.136V125.909C107.159 126.568 107.273 127.127 107.5 127.585C107.731 128.04 108.051 128.386 108.46 128.625C108.869 128.86 109.345 128.977 109.886 128.977C110.239 128.977 110.557 128.928 110.841 128.83C111.129 128.727 111.377 128.576 111.585 128.375C111.794 128.17 111.955 127.917 112.068 127.614L113.364 127.977C113.227 128.417 112.998 128.803 112.676 129.136C112.354 129.466 111.956 129.723 111.483 129.909C111.009 130.091 110.477 130.182 109.886 130.182ZM116.305 121.273L118.396 124.841L120.487 121.273H122.033L119.214 125.636L122.033 130H120.487L118.396 126.614L116.305 130H114.76L117.533 125.636L114.76 121.273H116.305ZM127.741 121.273V122.409H123.219V121.273H127.741ZM124.537 119.182H125.878V127.5C125.878 127.879 125.933 128.163 126.043 128.352C126.156 128.538 126.3 128.663 126.474 128.727C126.652 128.788 126.84 128.818 127.037 128.818C127.185 128.818 127.306 128.811 127.401 128.795C127.495 128.777 127.571 128.761 127.628 128.75L127.901 129.955C127.81 129.989 127.683 130.023 127.52 130.057C127.357 130.095 127.151 130.114 126.901 130.114C126.522 130.114 126.151 130.032 125.787 129.869C125.427 129.706 125.128 129.458 124.889 129.125C124.654 128.792 124.537 128.371 124.537 127.864V119.182ZM137.781 133.455C137.134 133.455 136.577 133.371 136.111 133.205C135.645 133.042 135.257 132.826 134.946 132.557C134.639 132.292 134.395 132.008 134.213 131.705L135.281 130.955C135.402 131.114 135.556 131.295 135.741 131.5C135.927 131.708 136.181 131.888 136.503 132.04C136.829 132.195 137.255 132.273 137.781 132.273C138.486 132.273 139.067 132.102 139.526 131.761C139.984 131.42 140.213 130.886 140.213 130.159V128.386H140.099C140.001 128.545 139.861 128.742 139.679 128.977C139.501 129.208 139.243 129.415 138.906 129.597C138.573 129.775 138.122 129.864 137.554 129.864C136.849 129.864 136.217 129.697 135.656 129.364C135.099 129.03 134.658 128.545 134.332 127.909C134.01 127.273 133.849 126.5 133.849 125.591C133.849 124.697 134.007 123.919 134.321 123.256C134.635 122.589 135.073 122.074 135.634 121.71C136.194 121.343 136.842 121.159 137.577 121.159C138.145 121.159 138.596 121.254 138.929 121.443C139.266 121.629 139.524 121.841 139.702 122.08C139.884 122.314 140.024 122.508 140.122 122.659H140.259V121.273H141.554V130.25C141.554 131 141.384 131.61 141.043 132.08C140.705 132.553 140.251 132.9 139.679 133.119C139.111 133.343 138.478 133.455 137.781 133.455ZM137.736 128.659C138.274 128.659 138.728 128.536 139.099 128.29C139.471 128.044 139.753 127.689 139.946 127.227C140.139 126.765 140.236 126.212 140.236 125.568C140.236 124.939 140.141 124.384 139.952 123.903C139.762 123.422 139.482 123.045 139.111 122.773C138.74 122.5 138.281 122.364 137.736 122.364C137.168 122.364 136.694 122.508 136.315 122.795C135.94 123.083 135.658 123.47 135.469 123.955C135.283 124.439 135.19 124.977 135.19 125.568C135.19 126.174 135.285 126.71 135.474 127.176C135.668 127.638 135.952 128.002 136.327 128.267C136.705 128.528 137.175 128.659 137.736 128.659ZM147.554 130.182C146.766 130.182 146.075 129.994 145.48 129.619C144.889 129.244 144.427 128.72 144.094 128.045C143.764 127.371 143.599 126.583 143.599 125.682C143.599 124.773 143.764 123.979 144.094 123.301C144.427 122.623 144.889 122.097 145.48 121.722C146.075 121.347 146.766 121.159 147.554 121.159C148.342 121.159 149.031 121.347 149.622 121.722C150.217 122.097 150.679 122.623 151.009 123.301C151.342 123.979 151.509 124.773 151.509 125.682C151.509 126.583 151.342 127.371 151.009 128.045C150.679 128.72 150.217 129.244 149.622 129.619C149.031 129.994 148.342 130.182 147.554 130.182ZM147.554 128.977C148.152 128.977 148.645 128.824 149.031 128.517C149.418 128.21 149.704 127.807 149.889 127.307C150.075 126.807 150.168 126.265 150.168 125.682C150.168 125.098 150.075 124.555 149.889 124.051C149.704 123.547 149.418 123.14 149.031 122.83C148.645 122.519 148.152 122.364 147.554 122.364C146.955 122.364 146.463 122.519 146.077 122.83C145.69 123.14 145.404 123.547 145.219 124.051C145.033 124.555 144.94 125.098 144.94 125.682C144.94 126.265 145.033 126.807 145.219 127.307C145.404 127.807 145.69 128.21 146.077 128.517C146.463 128.824 146.955 128.977 147.554 128.977ZM157.214 130.182C156.374 130.182 155.648 129.996 155.038 129.625C154.432 129.25 153.964 128.727 153.635 128.057C153.309 127.383 153.146 126.598 153.146 125.705C153.146 124.811 153.309 124.023 153.635 123.341C153.964 122.655 154.423 122.121 155.01 121.739C155.601 121.352 156.29 121.159 157.078 121.159C157.533 121.159 157.982 121.235 158.425 121.386C158.868 121.538 159.271 121.784 159.635 122.125C159.999 122.462 160.288 122.909 160.504 123.466C160.72 124.023 160.828 124.708 160.828 125.523V126.091H154.101V124.932H159.464C159.464 124.439 159.366 124 159.169 123.614C158.976 123.227 158.699 122.922 158.339 122.699C157.983 122.475 157.563 122.364 157.078 122.364C156.544 122.364 156.082 122.496 155.692 122.761C155.305 123.023 155.008 123.364 154.8 123.784C154.591 124.205 154.487 124.655 154.487 125.136V125.909C154.487 126.568 154.601 127.127 154.828 127.585C155.059 128.04 155.379 128.386 155.788 128.625C156.197 128.86 156.673 128.977 157.214 128.977C157.567 128.977 157.885 128.928 158.169 128.83C158.457 128.727 158.705 128.576 158.913 128.375C159.122 128.17 159.283 127.917 159.396 127.614L160.692 127.977C160.555 128.417 160.326 128.803 160.004 129.136C159.682 129.466 159.285 129.723 158.811 129.909C158.338 130.091 157.805 130.182 157.214 130.182ZM169.05 123.227L167.845 123.568C167.769 123.367 167.658 123.172 167.51 122.983C167.366 122.79 167.169 122.631 166.919 122.506C166.669 122.381 166.349 122.318 165.959 122.318C165.425 122.318 164.98 122.441 164.624 122.688C164.271 122.93 164.095 123.239 164.095 123.614C164.095 123.947 164.216 124.21 164.459 124.403C164.701 124.597 165.08 124.758 165.595 124.886L166.891 125.205C167.671 125.394 168.252 125.684 168.635 126.074C169.018 126.46 169.209 126.958 169.209 127.568C169.209 128.068 169.065 128.515 168.777 128.909C168.493 129.303 168.095 129.614 167.584 129.841C167.072 130.068 166.478 130.182 165.8 130.182C164.91 130.182 164.173 129.989 163.589 129.602C163.006 129.216 162.637 128.652 162.482 127.909L163.754 127.591C163.875 128.061 164.105 128.413 164.442 128.648C164.783 128.883 165.228 129 165.777 129C166.402 129 166.898 128.867 167.266 128.602C167.637 128.333 167.822 128.011 167.822 127.636C167.822 127.333 167.716 127.08 167.504 126.875C167.292 126.667 166.966 126.511 166.527 126.409L165.072 126.068C164.273 125.879 163.686 125.585 163.311 125.188C162.94 124.786 162.754 124.284 162.754 123.682C162.754 123.189 162.893 122.754 163.169 122.375C163.449 121.996 163.83 121.699 164.311 121.483C164.796 121.267 165.345 121.159 165.959 121.159C166.822 121.159 167.5 121.348 167.993 121.727C168.489 122.106 168.841 122.606 169.05 123.227ZM177.068 124.75V130H175.727V118.364H177.068V122.636H177.182C177.386 122.186 177.693 121.828 178.102 121.562C178.515 121.294 179.064 121.159 179.75 121.159C180.345 121.159 180.866 121.278 181.312 121.517C181.759 121.752 182.106 122.114 182.352 122.602C182.602 123.087 182.727 123.705 182.727 124.455V130H181.386V124.545C181.386 123.852 181.206 123.316 180.847 122.938C180.491 122.555 179.996 122.364 179.364 122.364C178.924 122.364 178.53 122.456 178.182 122.642C177.837 122.828 177.564 123.098 177.364 123.455C177.167 123.811 177.068 124.242 177.068 124.75ZM188.839 130.182C187.999 130.182 187.273 129.996 186.663 129.625C186.057 129.25 185.589 128.727 185.26 128.057C184.934 127.383 184.771 126.598 184.771 125.705C184.771 124.811 184.934 124.023 185.26 123.341C185.589 122.655 186.048 122.121 186.635 121.739C187.226 121.352 187.915 121.159 188.703 121.159C189.158 121.159 189.607 121.235 190.05 121.386C190.493 121.538 190.896 121.784 191.26 122.125C191.624 122.462 191.913 122.909 192.129 123.466C192.345 124.023 192.453 124.708 192.453 125.523V126.091H185.726V124.932H191.089C191.089 124.439 190.991 124 190.794 123.614C190.601 123.227 190.324 122.922 189.964 122.699C189.608 122.475 189.188 122.364 188.703 122.364C188.169 122.364 187.707 122.496 187.317 122.761C186.93 123.023 186.633 123.364 186.425 123.784C186.216 124.205 186.112 124.655 186.112 125.136V125.909C186.112 126.568 186.226 127.127 186.453 127.585C186.684 128.04 187.004 128.386 187.413 128.625C187.822 128.86 188.298 128.977 188.839 128.977C189.192 128.977 189.51 128.928 189.794 128.83C190.082 128.727 190.33 128.576 190.538 128.375C190.747 128.17 190.908 127.917 191.021 127.614L192.317 127.977C192.18 128.417 191.951 128.803 191.629 129.136C191.307 129.466 190.91 129.723 190.436 129.909C189.963 130.091 189.43 130.182 188.839 130.182ZM194.493 130V121.273H195.788V122.591H195.879C196.038 122.159 196.326 121.809 196.743 121.54C197.16 121.271 197.629 121.136 198.152 121.136C198.25 121.136 198.374 121.138 198.521 121.142C198.669 121.146 198.781 121.152 198.857 121.159V122.523C198.811 122.511 198.707 122.494 198.544 122.472C198.385 122.445 198.216 122.432 198.038 122.432C197.614 122.432 197.235 122.521 196.902 122.699C196.572 122.873 196.311 123.116 196.118 123.426C195.929 123.733 195.834 124.083 195.834 124.477V130H194.493ZM203.839 130.182C202.999 130.182 202.273 129.996 201.663 129.625C201.057 129.25 200.589 128.727 200.26 128.057C199.934 127.383 199.771 126.598 199.771 125.705C199.771 124.811 199.934 124.023 200.26 123.341C200.589 122.655 201.048 122.121 201.635 121.739C202.226 121.352 202.915 121.159 203.703 121.159C204.158 121.159 204.607 121.235 205.05 121.386C205.493 121.538 205.896 121.784 206.26 122.125C206.624 122.462 206.913 122.909 207.129 123.466C207.345 124.023 207.453 124.708 207.453 125.523V126.091H200.726V124.932H206.089C206.089 124.439 205.991 124 205.794 123.614C205.601 123.227 205.324 122.922 204.964 122.699C204.608 122.475 204.188 122.364 203.703 122.364C203.169 122.364 202.707 122.496 202.317 122.761C201.93 123.023 201.633 123.364 201.425 123.784C201.216 124.205 201.112 124.655 201.112 125.136V125.909C201.112 126.568 201.226 127.127 201.453 127.585C201.684 128.04 202.004 128.386 202.413 128.625C202.822 128.86 203.298 128.977 203.839 128.977C204.192 128.977 204.51 128.928 204.794 128.83C205.082 128.727 205.33 128.576 205.538 128.375C205.747 128.17 205.908 127.917 206.021 127.614L207.317 127.977C207.18 128.417 206.951 128.803 206.629 129.136C206.307 129.466 205.91 129.723 205.436 129.909C204.963 130.091 204.43 130.182 203.839 130.182Z" fill="#1D2939"/>
<path fill-rule="evenodd" clip-rule="evenodd" d="M411.136 120.904C411.178 120.861 411.229 120.827 411.285 120.804C411.342 120.781 411.402 120.769 411.462 120.769C411.523 120.769 411.583 120.781 411.639 120.804C411.695 120.827 411.746 120.861 411.789 120.904L417 126.116L422.211 120.904C422.254 120.861 422.305 120.827 422.361 120.804C422.417 120.781 422.477 120.769 422.538 120.769C422.599 120.769 422.659 120.781 422.715 120.804C422.771 120.827 422.822 120.861 422.865 120.904C422.908 120.947 422.942 120.998 422.965 121.054C422.988 121.11 423 121.17 423 121.231C423 121.292 422.988 121.352 422.965 121.408C422.942 121.464 422.908 121.515 422.865 121.558L417.327 127.096C417.284 127.139 417.233 127.173 417.177 127.196C417.121 127.219 417.061 127.231 417 127.231C416.939 127.231 416.879 127.219 416.823 127.196C416.767 127.173 416.716 127.139 416.673 127.096L411.136 121.558C411.093 121.515 411.059 121.464 411.035 121.408C411.012 121.352 411 121.292 411 121.231C411 121.17 411.012 121.11 411.035 121.054C411.059 120.998 411.093 120.947 411.136 120.904Z" fill="#1D2939"/>
<rect x="80.5" y="156.5" width="360" height="193" rx="3.5" stroke="#98A2B3"/>
<rect width="359" height="48" transform="translate(81 157)" fill="white"/>
<path d="M108.227 181.182C108.227 182.409 108.006 183.47 107.562 184.364C107.119 185.258 106.511 185.947 105.739 186.432C104.966 186.917 104.083 187.159 103.091 187.159C102.098 187.159 101.216 186.917 100.443 186.432C99.6705 185.947 99.0625 185.258 98.6193 184.364C98.1761 183.47 97.9545 182.409 97.9545 181.182C97.9545 179.955 98.1761 178.894 98.6193 178C99.0625 177.106 99.6705 176.417 100.443 175.932C101.216 175.447 102.098 175.205 103.091 175.205C104.083 175.205 104.966 175.447 105.739 175.932C106.511 176.417 107.119 177.106 107.562 178C108.006 178.894 108.227 179.955 108.227 181.182ZM106.864 181.182C106.864 180.174 106.695 179.324 106.358 178.631C106.025 177.938 105.572 177.413 105 177.057C104.432 176.701 103.795 176.523 103.091 176.523C102.386 176.523 101.748 176.701 101.176 177.057C100.608 177.413 100.155 177.938 99.8182 178.631C99.4848 179.324 99.3182 180.174 99.3182 181.182C99.3182 182.189 99.4848 183.04 99.8182 183.733C100.155 184.426 100.608 184.951 101.176 185.307C101.748 185.663 102.386 185.841 103.091 185.841C103.795 185.841 104.432 185.663 105 185.307C105.572 184.951 106.025 184.426 106.358 183.733C106.695 183.04 106.864 182.189 106.864 181.182ZM110.415 190.273V178.273H111.71V179.659H111.869C111.968 179.508 112.104 179.314 112.278 179.08C112.456 178.841 112.71 178.629 113.04 178.443C113.373 178.254 113.824 178.159 114.392 178.159C115.127 178.159 115.775 178.343 116.335 178.71C116.896 179.078 117.333 179.598 117.648 180.273C117.962 180.947 118.119 181.742 118.119 182.659C118.119 183.583 117.962 184.384 117.648 185.062C117.333 185.737 116.898 186.259 116.341 186.631C115.784 186.998 115.142 187.182 114.415 187.182C113.854 187.182 113.405 187.089 113.068 186.903C112.731 186.714 112.472 186.5 112.29 186.261C112.108 186.019 111.968 185.818 111.869 185.659H111.756V190.273H110.415ZM111.733 182.636C111.733 183.295 111.83 183.877 112.023 184.381C112.216 184.881 112.498 185.273 112.869 185.557C113.241 185.837 113.695 185.977 114.233 185.977C114.794 185.977 115.261 185.83 115.636 185.534C116.015 185.235 116.299 184.833 116.489 184.33C116.682 183.822 116.778 183.258 116.778 182.636C116.778 182.023 116.684 181.47 116.494 180.977C116.309 180.481 116.027 180.089 115.648 179.801C115.273 179.509 114.801 179.364 114.233 179.364C113.688 179.364 113.229 179.502 112.858 179.778C112.487 180.051 112.206 180.434 112.017 180.926C111.828 181.415 111.733 181.985 111.733 182.636ZM123.96 178.273V179.409H119.438V178.273H123.96ZM120.756 176.182H122.097V184.5C122.097 184.879 122.152 185.163 122.261 185.352C122.375 185.538 122.519 185.663 122.693 185.727C122.871 185.788 123.059 185.818 123.256 185.818C123.403 185.818 123.525 185.811 123.619 185.795C123.714 185.777 123.79 185.761 123.847 185.75L124.119 186.955C124.028 186.989 123.902 187.023 123.739 187.057C123.576 187.095 123.369 187.114 123.119 187.114C122.741 187.114 122.369 187.032 122.006 186.869C121.646 186.706 121.347 186.458 121.108 186.125C120.873 185.792 120.756 185.371 120.756 184.864V176.182ZM125.977 187V178.273H127.318V187H125.977ZM126.659 176.818C126.398 176.818 126.172 176.729 125.983 176.551C125.797 176.373 125.705 176.159 125.705 175.909C125.705 175.659 125.797 175.445 125.983 175.267C126.172 175.089 126.398 175 126.659 175C126.92 175 127.144 175.089 127.33 175.267C127.519 175.445 127.614 175.659 127.614 175.909C127.614 176.159 127.519 176.373 127.33 176.551C127.144 176.729 126.92 176.818 126.659 176.818ZM133.32 187.182C132.532 187.182 131.84 186.994 131.246 186.619C130.655 186.244 130.193 185.72 129.859 185.045C129.53 184.371 129.365 183.583 129.365 182.682C129.365 181.773 129.53 180.979 129.859 180.301C130.193 179.623 130.655 179.097 131.246 178.722C131.84 178.347 132.532 178.159 133.32 178.159C134.107 178.159 134.797 178.347 135.388 178.722C135.982 179.097 136.445 179.623 136.774 180.301C137.107 180.979 137.274 181.773 137.274 182.682C137.274 183.583 137.107 184.371 136.774 185.045C136.445 185.72 135.982 186.244 135.388 186.619C134.797 186.994 134.107 187.182 133.32 187.182ZM133.32 185.977C133.918 185.977 134.411 185.824 134.797 185.517C135.183 185.21 135.469 184.807 135.655 184.307C135.84 183.807 135.933 183.265 135.933 182.682C135.933 182.098 135.84 181.555 135.655 181.051C135.469 180.547 135.183 180.14 134.797 179.83C134.411 179.519 133.918 179.364 133.32 179.364C132.721 179.364 132.229 179.519 131.842 179.83C131.456 180.14 131.17 180.547 130.984 181.051C130.799 181.555 130.706 182.098 130.706 182.682C130.706 183.265 130.799 183.807 130.984 184.307C131.17 184.807 131.456 185.21 131.842 185.517C132.229 185.824 132.721 185.977 133.32 185.977ZM140.662 181.75V187H139.321V178.273H140.616V179.636H140.73C140.935 179.193 141.245 178.837 141.662 178.568C142.079 178.295 142.616 178.159 143.276 178.159C143.866 178.159 144.384 178.28 144.827 178.523C145.27 178.761 145.615 179.125 145.861 179.614C146.107 180.098 146.23 180.712 146.23 181.455V187H144.889V181.545C144.889 180.86 144.711 180.326 144.355 179.943C143.999 179.557 143.51 179.364 142.889 179.364C142.461 179.364 142.079 179.456 141.741 179.642C141.408 179.828 141.145 180.098 140.952 180.455C140.759 180.811 140.662 181.242 140.662 181.75ZM157.249 175.364V187H155.839V176.841H155.771L152.93 178.727V177.295L155.839 175.364H157.249Z" fill="#1D2939"/>
<rect width="359" height="48" transform="translate(81 205)" fill="#E4E7EC"/>
<path d="M108.227 229.182C108.227 230.409 108.006 231.47 107.562 232.364C107.119 233.258 106.511 233.947 105.739 234.432C104.966 234.917 104.083 235.159 103.091 235.159C102.098 235.159 101.216 234.917 100.443 234.432C99.6705 233.947 99.0625 233.258 98.6193 232.364C98.1761 231.47 97.9545 230.409 97.9545 229.182C97.9545 227.955 98.1761 226.894 98.6193 226C99.0625 225.106 99.6705 224.417 100.443 223.932C101.216 223.447 102.098 223.205 103.091 223.205C104.083 223.205 104.966 223.447 105.739 223.932C106.511 224.417 107.119 225.106 107.562 226C108.006 226.894 108.227 227.955 108.227 229.182ZM106.864 229.182C106.864 228.174 106.695 227.324 106.358 226.631C106.025 225.938 105.572 225.413 105 225.057C104.432 224.701 103.795 224.523 103.091 224.523C102.386 224.523 101.748 224.701 101.176 225.057C100.608 225.413 100.155 225.938 99.8182 226.631C99.4848 227.324 99.3182 228.174 99.3182 229.182C99.3182 230.189 99.4848 231.04 99.8182 231.733C100.155 232.426 100.608 232.951 101.176 233.307C101.748 233.663 102.386 233.841 103.091 233.841C103.795 233.841 104.432 233.663 105 233.307C105.572 232.951 106.025 232.426 106.358 231.733C106.695 231.04 106.864 230.189 106.864 229.182ZM110.415 238.273V226.273H111.71V227.659H111.869C111.968 227.508 112.104 227.314 112.278 227.08C112.456 226.841 112.71 226.629 113.04 226.443C113.373 226.254 113.824 226.159 114.392 226.159C115.127 226.159 115.775 226.343 116.335 226.71C116.896 227.078 117.333 227.598 117.648 228.273C117.962 228.947 118.119 229.742 118.119 230.659C118.119 231.583 117.962 232.384 117.648 233.062C117.333 233.737 116.898 234.259 116.341 234.631C115.784 234.998 115.142 235.182 114.415 235.182C113.854 235.182 113.405 235.089 113.068 234.903C112.731 234.714 112.472 234.5 112.29 234.261C112.108 234.019 111.968 233.818 111.869 233.659H111.756V238.273H110.415ZM111.733 230.636C111.733 231.295 111.83 231.877 112.023 232.381C112.216 232.881 112.498 233.273 112.869 233.557C113.241 233.837 113.695 233.977 114.233 233.977C114.794 233.977 115.261 233.83 115.636 233.534C116.015 233.235 116.299 232.833 116.489 232.33C116.682 231.822 116.778 231.258 116.778 230.636C116.778 230.023 116.684 229.47 116.494 228.977C116.309 228.481 116.027 228.089 115.648 227.801C115.273 227.509 114.801 227.364 114.233 227.364C113.688 227.364 113.229 227.502 112.858 227.778C112.487 228.051 112.206 228.434 112.017 228.926C111.828 229.415 111.733 229.985 111.733 230.636ZM123.96 226.273V227.409H119.438V226.273H123.96ZM120.756 224.182H122.097V232.5C122.097 232.879 122.152 233.163 122.261 233.352C122.375 233.538 122.519 233.663 122.693 233.727C122.871 233.788 123.059 233.818 123.256 233.818C123.403 233.818 123.525 233.811 123.619 233.795C123.714 233.777 123.79 233.761 123.847 233.75L124.119 234.955C124.028 234.989 123.902 235.023 123.739 235.057C123.576 235.095 123.369 235.114 123.119 235.114C122.741 235.114 122.369 235.032 122.006 234.869C121.646 234.706 121.347 234.458 121.108 234.125C120.873 233.792 120.756 233.371 120.756 232.864V224.182ZM125.977 235V226.273H127.318V235H125.977ZM126.659 224.818C126.398 224.818 126.172 224.729 125.983 224.551C125.797 224.373 125.705 224.159 125.705 223.909C125.705 223.659 125.797 223.445 125.983 223.267C126.172 223.089 126.398 223 126.659 223C126.92 223 127.144 223.089 127.33 223.267C127.519 223.445 127.614 223.659 127.614 223.909C127.614 224.159 127.519 224.373 127.33 224.551C127.144 224.729 126.92 224.818 126.659 224.818ZM133.32 235.182C132.532 235.182 131.84 234.994 131.246 234.619C130.655 234.244 130.193 233.72 129.859 233.045C129.53 232.371 129.365 231.583 129.365 230.682C129.365 229.773 129.53 228.979 129.859 228.301C130.193 227.623 130.655 227.097 131.246 226.722C131.84 226.347 132.532 226.159 133.32 226.159C134.107 226.159 134.797 226.347 135.388 226.722C135.982 227.097 136.445 227.623 136.774 228.301C137.107 228.979 137.274 229.773 137.274 230.682C137.274 231.583 137.107 232.371 136.774 233.045C136.445 233.72 135.982 234.244 135.388 234.619C134.797 234.994 134.107 235.182 133.32 235.182ZM133.32 233.977C133.918 233.977 134.411 233.824 134.797 233.517C135.183 233.21 135.469 232.807 135.655 232.307C135.84 231.807 135.933 231.265 135.933 230.682C135.933 230.098 135.84 229.555 135.655 229.051C135.469 228.547 135.183 228.14 134.797 227.83C134.411 227.519 133.918 227.364 133.32 227.364C132.721 227.364 132.229 227.519 131.842 227.83C131.456 228.14 131.17 228.547 130.984 229.051C130.799 229.555 130.706 230.098 130.706 230.682C130.706 231.265 130.799 231.807 130.984 232.307C131.17 232.807 131.456 233.21 131.842 233.517C132.229 233.824 132.721 233.977 133.32 233.977ZM140.662 229.75V235H139.321V226.273H140.616V227.636H140.73C140.935 227.193 141.245 226.837 141.662 226.568C142.079 226.295 142.616 226.159 143.276 226.159C143.866 226.159 144.384 226.28 144.827 226.523C145.27 226.761 145.615 227.125 145.861 227.614C146.107 228.098 146.23 228.712 146.23 229.455V235H144.889V229.545C144.889 228.86 144.711 228.326 144.355 227.943C143.999 227.557 143.51 227.364 142.889 227.364C142.461 227.364 142.079 227.456 141.741 227.642C141.408 227.828 141.145 228.098 140.952 228.455C140.759 228.811 140.662 229.242 140.662 229.75ZM157.249 223.364V235H155.839V224.841H155.771L152.93 226.727V225.295L155.839 223.364H157.249Z" fill="#1D2939"/>
<rect width="359" height="48" transform="translate(81 253)" fill="white"/>
<path d="M108.227 277.182C108.227 278.409 108.006 279.47 107.562 280.364C107.119 281.258 106.511 281.947 105.739 282.432C104.966 282.917 104.083 283.159 103.091 283.159C102.098 283.159 101.216 282.917 100.443 282.432C99.6705 281.947 99.0625 281.258 98.6193 280.364C98.1761 279.47 97.9545 278.409 97.9545 277.182C97.9545 275.955 98.1761 274.894 98.6193 274C99.0625 273.106 99.6705 272.417 100.443 271.932C101.216 271.447 102.098 271.205 103.091 271.205C104.083 271.205 104.966 271.447 105.739 271.932C106.511 272.417 107.119 273.106 107.562 274C108.006 274.894 108.227 275.955 108.227 277.182ZM106.864 277.182C106.864 276.174 106.695 275.324 106.358 274.631C106.025 273.938 105.572 273.413 105 273.057C104.432 272.701 103.795 272.523 103.091 272.523C102.386 272.523 101.748 272.701 101.176 273.057C100.608 273.413 100.155 273.938 99.8182 274.631C99.4848 275.324 99.3182 276.174 99.3182 277.182C99.3182 278.189 99.4848 279.04 99.8182 279.733C100.155 280.426 100.608 280.951 101.176 281.307C101.748 281.663 102.386 281.841 103.091 281.841C103.795 281.841 104.432 281.663 105 281.307C105.572 280.951 106.025 280.426 106.358 279.733C106.695 279.04 106.864 278.189 106.864 277.182ZM110.415 286.273V274.273H111.71V275.659H111.869C111.968 275.508 112.104 275.314 112.278 275.08C112.456 274.841 112.71 274.629 113.04 274.443C113.373 274.254 113.824 274.159 114.392 274.159C115.127 274.159 115.775 274.343 116.335 274.71C116.896 275.078 117.333 275.598 117.648 276.273C117.962 276.947 118.119 277.742 118.119 278.659C118.119 279.583 117.962 280.384 117.648 281.062C117.333 281.737 116.898 282.259 116.341 282.631C115.784 282.998 115.142 283.182 114.415 283.182C113.854 283.182 113.405 283.089 113.068 282.903C112.731 282.714 112.472 282.5 112.29 282.261C112.108 282.019 111.968 281.818 111.869 281.659H111.756V286.273H110.415ZM111.733 278.636C111.733 279.295 111.83 279.877 112.023 280.381C112.216 280.881 112.498 281.273 112.869 281.557C113.241 281.837 113.695 281.977 114.233 281.977C114.794 281.977 115.261 281.83 115.636 281.534C116.015 281.235 116.299 280.833 116.489 280.33C116.682 279.822 116.778 279.258 116.778 278.636C116.778 278.023 116.684 277.47 116.494 276.977C116.309 276.481 116.027 276.089 115.648 275.801C115.273 275.509 114.801 275.364 114.233 275.364C113.688 275.364 113.229 275.502 112.858 275.778C112.487 276.051 112.206 276.434 112.017 276.926C111.828 277.415 111.733 277.985 111.733 278.636ZM123.96 274.273V275.409H119.438V274.273H123.96ZM120.756 272.182H122.097V280.5C122.097 280.879 122.152 281.163 122.261 281.352C122.375 281.538 122.519 281.663 122.693 281.727C122.871 281.788 123.059 281.818 123.256 281.818C123.403 281.818 123.525 281.811 123.619 281.795C123.714 281.777 123.79 281.761 123.847 281.75L124.119 282.955C124.028 282.989 123.902 283.023 123.739 283.057C123.576 283.095 123.369 283.114 123.119 283.114C122.741 283.114 122.369 283.032 122.006 282.869C121.646 282.706 121.347 282.458 121.108 282.125C120.873 281.792 120.756 281.371 120.756 280.864V272.182ZM125.977 283V274.273H127.318V283H125.977ZM126.659 272.818C126.398 272.818 126.172 272.729 125.983 272.551C125.797 272.373 125.705 272.159 125.705 271.909C125.705 271.659 125.797 271.445 125.983 271.267C126.172 271.089 126.398 271 126.659 271C126.92 271 127.144 271.089 127.33 271.267C127.519 271.445 127.614 271.659 127.614 271.909C127.614 272.159 127.519 272.373 127.33 272.551C127.144 272.729 126.92 272.818 126.659 272.818ZM133.32 283.182C132.532 283.182 131.84 282.994 131.246 282.619C130.655 282.244 130.193 281.72 129.859 281.045C129.53 280.371 129.365 279.583 129.365 278.682C129.365 277.773 129.53 276.979 129.859 276.301C130.193 275.623 130.655 275.097 131.246 274.722C131.84 274.347 132.532 274.159 133.32 274.159C134.107 274.159 134.797 274.347 135.388 274.722C135.982 275.097 136.445 275.623 136.774 276.301C137.107 276.979 137.274 277.773 137.274 278.682C137.274 279.583 137.107 280.371 136.774 281.045C136.445 281.72 135.982 282.244 135.388 282.619C134.797 282.994 134.107 283.182 133.32 283.182ZM133.32 281.977C133.918 281.977 134.411 281.824 134.797 281.517C135.183 281.21 135.469 280.807 135.655 280.307C135.84 279.807 135.933 279.265 135.933 278.682C135.933 278.098 135.84 277.555 135.655 277.051C135.469 276.547 135.183 276.14 134.797 275.83C134.411 275.519 133.918 275.364 133.32 275.364C132.721 275.364 132.229 275.519 131.842 275.83C131.456 276.14 131.17 276.547 130.984 277.051C130.799 277.555 130.706 278.098 130.706 278.682C130.706 279.265 130.799 279.807 130.984 280.307C131.17 280.807 131.456 281.21 131.842 281.517C132.229 281.824 132.721 281.977 133.32 281.977ZM140.662 277.75V283H139.321V274.273H140.616V275.636H140.73C140.935 275.193 141.245 274.837 141.662 274.568C142.079 274.295 142.616 274.159 143.276 274.159C143.866 274.159 144.384 274.28 144.827 274.523C145.27 274.761 145.615 275.125 145.861 275.614C146.107 276.098 146.23 276.712 146.23 277.455V283H144.889V277.545C144.889 276.86 144.711 276.326 144.355 275.943C143.999 275.557 143.51 275.364 142.889 275.364C142.461 275.364 142.079 275.456 141.741 275.642C141.408 275.828 141.145 276.098 140.952 276.455C140.759 276.811 140.662 277.242 140.662 277.75ZM157.249 271.364V283H155.839V272.841H155.771L152.93 274.727V273.295L155.839 271.364H157.249Z" fill="#1D2939"/>
<rect width="359" height="48" transform="translate(81 301)" fill="white"/>
<path d="M108.227 325.182C108.227 326.409 108.006 327.47 107.562 328.364C107.119 329.258 106.511 329.947 105.739 330.432C104.966 330.917 104.083 331.159 103.091 331.159C102.098 331.159 101.216 330.917 100.443 330.432C99.6705 329.947 99.0625 329.258 98.6193 328.364C98.1761 327.47 97.9545 326.409 97.9545 325.182C97.9545 323.955 98.1761 322.894 98.6193 322C99.0625 321.106 99.6705 320.417 100.443 319.932C101.216 319.447 102.098 319.205 103.091 319.205C104.083 319.205 104.966 319.447 105.739 319.932C106.511 320.417 107.119 321.106 107.562 322C108.006 322.894 108.227 323.955 108.227 325.182ZM106.864 325.182C106.864 324.174 106.695 323.324 106.358 322.631C106.025 321.938 105.572 321.413 105 321.057C104.432 320.701 103.795 320.523 103.091 320.523C102.386 320.523 101.748 320.701 101.176 321.057C100.608 321.413 100.155 321.938 99.8182 322.631C99.4848 323.324 99.3182 324.174 99.3182 325.182C99.3182 326.189 99.4848 327.04 99.8182 327.733C100.155 328.426 100.608 328.951 101.176 329.307C101.748 329.663 102.386 329.841 103.091 329.841C103.795 329.841 104.432 329.663 105 329.307C105.572 328.951 106.025 328.426 106.358 327.733C106.695 327.04 106.864 326.189 106.864 325.182ZM110.415 334.273V322.273H111.71V323.659H111.869C111.968 323.508 112.104 323.314 112.278 323.08C112.456 322.841 112.71 322.629 113.04 322.443C113.373 322.254 113.824 322.159 114.392 322.159C115.127 322.159 115.775 322.343 116.335 322.71C116.896 323.078 117.333 323.598 117.648 324.273C117.962 324.947 118.119 325.742 118.119 326.659C118.119 327.583 117.962 328.384 117.648 329.062C117.333 329.737 116.898 330.259 116.341 330.631C115.784 330.998 115.142 331.182 114.415 331.182C113.854 331.182 113.405 331.089 113.068 330.903C112.731 330.714 112.472 330.5 112.29 330.261C112.108 330.019 111.968 329.818 111.869 329.659H111.756V334.273H110.415ZM111.733 326.636C111.733 327.295 111.83 327.877 112.023 328.381C112.216 328.881 112.498 329.273 112.869 329.557C113.241 329.837 113.695 329.977 114.233 329.977C114.794 329.977 115.261 329.83 115.636 329.534C116.015 329.235 116.299 328.833 116.489 328.33C116.682 327.822 116.778 327.258 116.778 326.636C116.778 326.023 116.684 325.47 116.494 324.977C116.309 324.481 116.027 324.089 115.648 323.801C115.273 323.509 114.801 323.364 114.233 323.364C113.688 323.364 113.229 323.502 112.858 323.778C112.487 324.051 112.206 324.434 112.017 324.926C111.828 325.415 111.733 325.985 111.733 326.636ZM123.96 322.273V323.409H119.438V322.273H123.96ZM120.756 320.182H122.097V328.5C122.097 328.879 122.152 329.163 122.261 329.352C122.375 329.538 122.519 329.663 122.693 329.727C122.871 329.788 123.059 329.818 123.256 329.818C123.403 329.818 123.525 329.811 123.619 329.795C123.714 329.777 123.79 329.761 123.847 329.75L124.119 330.955C124.028 330.989 123.902 331.023 123.739 331.057C123.576 331.095 123.369 331.114 123.119 331.114C122.741 331.114 122.369 331.032 122.006 330.869C121.646 330.706 121.347 330.458 121.108 330.125C120.873 329.792 120.756 329.371 120.756 328.864V320.182ZM125.977 331V322.273H127.318V331H125.977ZM126.659 320.818C126.398 320.818 126.172 320.729 125.983 320.551C125.797 320.373 125.705 320.159 125.705 319.909C125.705 319.659 125.797 319.445 125.983 319.267C126.172 319.089 126.398 319 126.659 319C126.92 319 127.144 319.089 127.33 319.267C127.519 319.445 127.614 319.659 127.614 319.909C127.614 320.159 127.519 320.373 127.33 320.551C127.144 320.729 126.92 320.818 126.659 320.818ZM133.32 331.182C132.532 331.182 131.84 330.994 131.246 330.619C130.655 330.244 130.193 329.72 129.859 329.045C129.53 328.371 129.365 327.583 129.365 326.682C129.365 325.773 129.53 324.979 129.859 324.301C130.193 323.623 130.655 323.097 131.246 322.722C131.84 322.347 132.532 322.159 133.32 322.159C134.107 322.159 134.797 322.347 135.388 322.722C135.982 323.097 136.445 323.623 136.774 324.301C137.107 324.979 137.274 325.773 137.274 326.682C137.274 327.583 137.107 328.371 136.774 329.045C136.445 329.72 135.982 330.244 135.388 330.619C134.797 330.994 134.107 331.182 133.32 331.182ZM133.32 329.977C133.918 329.977 134.411 329.824 134.797 329.517C135.183 329.21 135.469 328.807 135.655 328.307C135.84 327.807 135.933 327.265 135.933 326.682C135.933 326.098 135.84 325.555 135.655 325.051C135.469 324.547 135.183 324.14 134.797 323.83C134.411 323.519 133.918 323.364 133.32 323.364C132.721 323.364 132.229 323.519 131.842 323.83C131.456 324.14 131.17 324.547 130.984 325.051C130.799 325.555 130.706 326.098 130.706 326.682C130.706 327.265 130.799 327.807 130.984 328.307C131.17 328.807 131.456 329.21 131.842 329.517C132.229 329.824 132.721 329.977 133.32 329.977ZM140.662 325.75V331H139.321V322.273H140.616V323.636H140.73C140.935 323.193 141.245 322.837 141.662 322.568C142.079 322.295 142.616 322.159 143.276 322.159C143.866 322.159 144.384 322.28 144.827 322.523C145.27 322.761 145.615 323.125 145.861 323.614C146.107 324.098 146.23 324.712 146.23 325.455V331H144.889V325.545C144.889 324.86 144.711 324.326 144.355 323.943C143.999 323.557 143.51 323.364 142.889 323.364C142.461 323.364 142.079 323.456 141.741 323.642C141.408 323.828 141.145 324.098 140.952 324.455C140.759 324.811 140.662 325.242 140.662 325.75ZM157.249 319.364V331H155.839V320.841H155.771L152.93 322.727V321.295L155.839 319.364H157.249Z" fill="#1D2939"/>
<circle cx="12" cy="16" r="12" fill="#1D2939"/>
<path d="M14.0057 10.3636V22H11.5455V12.6989H11.4773L8.8125 14.3693V12.1875L11.6932 10.3636H14.0057Z" fill="white"/>
<circle cx="12" cy="84" r="12" fill="#1D2939"/>
<path d="M7.94318 90V88.2273L12.0852 84.392C12.4375 84.0511 12.733 83.7443 12.9716 83.4716C13.214 83.1989 13.3977 82.9318 13.5227 82.6705C13.6477 82.4053 13.7102 82.1193 13.7102 81.8125C13.7102 81.4716 13.6326 81.178 13.4773 80.9318C13.322 80.6818 13.1098 80.4905 12.8409 80.358C12.572 80.2216 12.267 80.1534 11.9261 80.1534C11.5701 80.1534 11.2595 80.2254 10.9943 80.3693C10.7292 80.5133 10.5246 80.7197 10.3807 80.9886C10.2367 81.2576 10.1648 81.5777 10.1648 81.9489H7.82955C7.82955 81.1875 8.00189 80.5265 8.34659 79.9659C8.69129 79.4053 9.17424 78.9716 9.79545 78.6648C10.4167 78.358 11.1326 78.2045 11.9432 78.2045C12.7765 78.2045 13.5019 78.3523 14.1193 78.6477C14.7405 78.9394 15.2235 79.3447 15.5682 79.8636C15.9129 80.3826 16.0852 80.9773 16.0852 81.6477C16.0852 82.0871 15.9981 82.5208 15.8239 82.9489C15.6534 83.3769 15.3485 83.8523 14.9091 84.375C14.4697 84.8939 13.8504 85.517 13.0511 86.2443L11.3523 87.9091V87.9886H16.2386V90H7.94318Z" fill="white"/>
<path d="M24 84H77" stroke="#1D2939" stroke-dasharray="2 2"/>
<circle cx="12" cy="181" r="12" fill="#1D2939"/>
<path d="M12.2443 187.159C11.3958 187.159 10.6402 187.013 9.97727 186.722C9.31818 186.426 8.79735 186.021 8.41477 185.506C8.03598 184.987 7.84091 184.388 7.82955 183.71H10.3068C10.322 183.994 10.4148 184.244 10.5852 184.46C10.7595 184.672 10.9905 184.837 11.2784 184.955C11.5663 185.072 11.8902 185.131 12.25 185.131C12.625 185.131 12.9564 185.064 13.2443 184.932C13.5322 184.799 13.7576 184.616 13.9205 184.381C14.0833 184.146 14.1648 183.875 14.1648 183.568C14.1648 183.258 14.0777 182.983 13.9034 182.744C13.733 182.502 13.4867 182.312 13.1648 182.176C12.8466 182.04 12.4678 181.972 12.0284 181.972H10.9432V180.165H12.0284C12.3996 180.165 12.7273 180.1 13.0114 179.972C13.2992 179.843 13.5227 179.665 13.6818 179.438C13.8409 179.206 13.9205 178.938 13.9205 178.631C13.9205 178.339 13.8504 178.083 13.7102 177.864C13.5739 177.64 13.3807 177.466 13.1307 177.341C12.8845 177.216 12.5966 177.153 12.267 177.153C11.9337 177.153 11.6288 177.214 11.3523 177.335C11.0758 177.453 10.8542 177.621 10.6875 177.841C10.5208 178.061 10.4318 178.318 10.4205 178.614H8.0625C8.07386 177.943 8.26515 177.352 8.63636 176.841C9.00758 176.33 9.50758 175.93 10.1364 175.642C10.7689 175.35 11.483 175.205 12.2784 175.205C13.0814 175.205 13.7841 175.35 14.3864 175.642C14.9886 175.934 15.4564 176.328 15.7898 176.824C16.1269 177.316 16.2936 177.869 16.2898 178.483C16.2936 179.134 16.0909 179.678 15.6818 180.114C15.2765 180.549 14.7481 180.826 14.0966 180.943V181.034C14.9527 181.144 15.6042 181.441 16.0511 181.926C16.5019 182.407 16.7254 183.009 16.7216 183.733C16.7254 184.396 16.5341 184.985 16.1477 185.5C15.7652 186.015 15.2367 186.42 14.5625 186.716C13.8883 187.011 13.1155 187.159 12.2443 187.159Z" fill="white"/>
<circle cx="507" cy="124" r="12" fill="#1D2939"/>
<path d="M501.767 127.955V126.017L506.625 118.364H508.295V121.045H507.307L504.244 125.892V125.983H511.148V127.955H501.767ZM507.352 130V127.364L507.398 126.506V118.364H509.705V130H507.352Z" fill="white"/>
<path d="M24 181H94" stroke="#1D2939" stroke-dasharray="2 2"/>
<path d="M425 124H495" stroke="#1D2939" stroke-dasharray="2 2"/>
<path d="M24.5 16H97.5V39" stroke="#1D2939" stroke-dasharray="2 2"/>
</svg>
