<svg width="421" height="344" viewBox="0 0 421 344" fill="none" xmlns="http://www.w3.org/2000/svg">
<path d="M11.0114 22V10.3636H13.4716V19.9716H18.4602V22H11.0114ZM22.5327 22.1648C21.9759 22.1648 21.4796 22.0682 21.044 21.875C20.6084 21.678 20.2637 21.3883 20.0099 21.0057C19.7599 20.6193 19.6349 20.1383 19.6349 19.5625C19.6349 19.0777 19.724 18.6705 19.902 18.3409C20.08 18.0114 20.3224 17.7462 20.6293 17.5455C20.9361 17.3447 21.2846 17.1932 21.6747 17.0909C22.0687 16.9886 22.4815 16.9167 22.9134 16.875C23.4209 16.822 23.83 16.7727 24.1406 16.7273C24.4512 16.678 24.6766 16.6061 24.8168 16.5114C24.9569 16.4167 25.027 16.2765 25.027 16.0909V16.0568C25.027 15.697 24.9134 15.4186 24.6861 15.2216C24.4626 15.0246 24.1444 14.9261 23.7315 14.9261C23.2959 14.9261 22.9493 15.0227 22.6918 15.2159C22.4342 15.4053 22.2637 15.6439 22.1804 15.9318L19.9418 15.75C20.0554 15.2197 20.2789 14.7614 20.6122 14.375C20.9455 13.9848 21.3755 13.6856 21.902 13.4773C22.4323 13.2652 23.0459 13.1591 23.7429 13.1591C24.2277 13.1591 24.6918 13.2159 25.1349 13.3295C25.5819 13.4432 25.9777 13.6193 26.3224 13.858C26.6709 14.0966 26.9455 14.4034 27.1463 14.7784C27.3471 15.1496 27.4474 15.5947 27.4474 16.1136V22H25.152V20.7898H25.0838C24.9437 21.0625 24.7562 21.303 24.5213 21.5114C24.2865 21.7159 24.0043 21.8769 23.6747 21.9943C23.3452 22.108 22.9645 22.1648 22.5327 22.1648ZM23.2259 20.4943C23.5819 20.4943 23.8963 20.4242 24.169 20.2841C24.4418 20.1402 24.6558 19.947 24.8111 19.7045C24.9664 19.4621 25.044 19.1875 25.044 18.8807V17.9545C24.9683 18.0038 24.8641 18.0492 24.7315 18.0909C24.6027 18.1288 24.4569 18.1648 24.294 18.1989C24.1312 18.2292 23.9683 18.2576 23.8054 18.2841C23.6425 18.3068 23.4948 18.3277 23.3622 18.3466C23.0781 18.3883 22.83 18.4545 22.6179 18.5455C22.4058 18.6364 22.241 18.7595 22.1236 18.9148C22.0062 19.0663 21.9474 19.2557 21.9474 19.483C21.9474 19.8125 22.0668 20.0644 22.3054 20.2386C22.5478 20.4091 22.8546 20.4943 23.2259 20.4943ZM29.3707 22V10.3636H31.7912V14.7386H31.8651C31.9711 14.5038 32.1245 14.2652 32.3253 14.0227C32.5298 13.7765 32.795 13.572 33.1207 13.4091C33.4503 13.2424 33.8594 13.1591 34.348 13.1591C34.9844 13.1591 35.5715 13.3258 36.1094 13.6591C36.6473 13.9886 37.0772 14.4867 37.3991 15.1534C37.7211 15.8163 37.8821 16.6477 37.8821 17.6477C37.8821 18.6212 37.7249 19.4432 37.4105 20.1136C37.0999 20.7803 36.6757 21.286 36.1378 21.6307C35.6037 21.9716 35.0052 22.142 34.3423 22.142C33.8726 22.142 33.473 22.0644 33.1435 21.9091C32.8177 21.7538 32.5507 21.5587 32.3423 21.3239C32.134 21.0852 31.9749 20.8447 31.8651 20.6023H31.7571V22H29.3707ZM31.7401 17.6364C31.7401 18.1553 31.812 18.608 31.956 18.9943C32.0999 19.3807 32.3082 19.6818 32.581 19.8977C32.8537 20.1098 33.1851 20.2159 33.5753 20.2159C33.9692 20.2159 34.3026 20.108 34.5753 19.892C34.848 19.6723 35.0545 19.3693 35.1946 18.983C35.3385 18.5928 35.4105 18.1439 35.4105 17.6364C35.4105 17.1326 35.3404 16.6894 35.2003 16.3068C35.0601 15.9242 34.8537 15.625 34.581 15.4091C34.3082 15.1932 33.973 15.0852 33.5753 15.0852C33.1813 15.0852 32.848 15.1894 32.5753 15.3977C32.3063 15.6061 32.0999 15.9015 31.956 16.2841C31.812 16.6667 31.7401 17.1174 31.7401 17.6364ZM43.4744 22.1705C42.5767 22.1705 41.804 21.9886 41.1562 21.625C40.5123 21.2576 40.0161 20.7386 39.6676 20.0682C39.3191 19.3939 39.1449 18.5966 39.1449 17.6761C39.1449 16.7784 39.3191 15.9905 39.6676 15.3125C40.0161 14.6345 40.5066 14.1061 41.1392 13.7273C41.7756 13.3485 42.5218 13.1591 43.3778 13.1591C43.9536 13.1591 44.4896 13.2519 44.9858 13.4375C45.4858 13.6193 45.9214 13.8939 46.2926 14.2614C46.6676 14.6288 46.9593 15.0909 47.1676 15.6477C47.3759 16.2008 47.4801 16.8485 47.4801 17.5909V18.2557H40.1108V16.7557H45.2017C45.2017 16.4072 45.1259 16.0985 44.9744 15.8295C44.8229 15.5606 44.6127 15.3504 44.3438 15.1989C44.0786 15.0436 43.7699 14.9659 43.4176 14.9659C43.0502 14.9659 42.7244 15.0511 42.4403 15.2216C42.16 15.3883 41.9403 15.6136 41.7812 15.8977C41.6222 16.178 41.5407 16.4905 41.5369 16.8352V18.2614C41.5369 18.6932 41.6165 19.0663 41.7756 19.3807C41.9384 19.6951 42.1676 19.9375 42.4631 20.108C42.7585 20.2784 43.1089 20.3636 43.5142 20.3636C43.7831 20.3636 44.0294 20.3258 44.2528 20.25C44.4763 20.1742 44.6676 20.0606 44.8267 19.9091C44.9858 19.7576 45.107 19.572 45.1903 19.3523L47.429 19.5C47.3153 20.0379 47.0824 20.5076 46.7301 20.9091C46.3816 21.3068 45.9309 21.6174 45.3778 21.8409C44.8286 22.0606 44.1941 22.1705 43.4744 22.1705ZM51.4801 10.3636V22H49.0597V10.3636H51.4801Z" fill="#1D2939"/>
<path d="M10.7727 43.6136V42.3636H19.5V43.6136H15.8409V54H14.4318V43.6136H10.7727ZM22.8338 48.75V54H21.4929V42.3636H22.8338V46.6364H22.9474C23.152 46.1856 23.4588 45.8277 23.8679 45.5625C24.2808 45.2936 24.83 45.1591 25.5156 45.1591C26.1103 45.1591 26.6312 45.2784 27.0781 45.517C27.5251 45.7519 27.8717 46.1136 28.1179 46.6023C28.3679 47.0871 28.4929 47.7045 28.4929 48.4545V54H27.152V48.5455C27.152 47.8523 26.9721 47.3163 26.6122 46.9375C26.2562 46.5549 25.7618 46.3636 25.1293 46.3636C24.6899 46.3636 24.2959 46.4564 23.9474 46.642C23.6027 46.8277 23.33 47.0985 23.1293 47.4545C22.9323 47.8106 22.8338 48.2424 22.8338 48.75ZM30.946 54V45.2727H32.2869V54H30.946ZM31.6278 43.8182C31.3665 43.8182 31.1411 43.7292 30.9517 43.5511C30.7661 43.3731 30.6733 43.1591 30.6733 42.9091C30.6733 42.6591 30.7661 42.4451 30.9517 42.267C31.1411 42.089 31.3665 42 31.6278 42C31.8892 42 32.1127 42.089 32.2983 42.267C32.4877 42.4451 32.5824 42.6591 32.5824 42.9091C32.5824 43.1591 32.4877 43.3731 32.2983 43.5511C32.1127 43.7292 31.8892 43.8182 31.6278 43.8182ZM40.9247 47.2273L39.7202 47.5682C39.6444 47.3674 39.5327 47.1723 39.3849 46.983C39.241 46.7898 39.044 46.6307 38.794 46.5057C38.544 46.3807 38.224 46.3182 37.8338 46.3182C37.2997 46.3182 36.8546 46.4413 36.4986 46.6875C36.1463 46.9299 35.9702 47.2386 35.9702 47.6136C35.9702 47.947 36.0914 48.2102 36.3338 48.4034C36.5762 48.5966 36.955 48.7576 37.4702 48.8864L38.7656 49.2045C39.5459 49.3939 40.1274 49.6837 40.5099 50.0739C40.8925 50.4602 41.0838 50.9583 41.0838 51.5682C41.0838 52.0682 40.9399 52.5152 40.652 52.9091C40.3679 53.303 39.9702 53.6136 39.4588 53.8409C38.9474 54.0682 38.3527 54.1818 37.6747 54.1818C36.7846 54.1818 36.0478 53.9886 35.4645 53.6023C34.8812 53.2159 34.5118 52.6515 34.3565 51.9091L35.6293 51.5909C35.7505 52.0606 35.9796 52.4129 36.3168 52.6477C36.6577 52.8826 37.1027 53 37.652 53C38.277 53 38.7732 52.8674 39.1406 52.6023C39.5118 52.3333 39.6974 52.0114 39.6974 51.6364C39.6974 51.3333 39.5914 51.0795 39.3793 50.875C39.1671 50.6667 38.8414 50.5114 38.402 50.4091L36.9474 50.0682C36.1482 49.8788 35.5611 49.5852 35.1861 49.1875C34.8149 48.786 34.6293 48.2841 34.6293 47.6818C34.6293 47.1894 34.7675 46.7538 35.044 46.375C35.3243 45.9962 35.705 45.6989 36.1861 45.483C36.6709 45.267 37.2202 45.1591 37.8338 45.1591C38.6974 45.1591 39.3755 45.3485 39.8679 45.7273C40.3641 46.1061 40.7164 46.6061 40.9247 47.2273ZM47.6023 54V45.2727H48.9432V54H47.6023ZM48.2841 43.8182C48.0227 43.8182 47.7973 43.7292 47.608 43.5511C47.4223 43.3731 47.3295 43.1591 47.3295 42.9091C47.3295 42.6591 47.4223 42.4451 47.608 42.267C47.7973 42.089 48.0227 42 48.2841 42C48.5455 42 48.7689 42.089 48.9545 42.267C49.1439 42.4451 49.2386 42.6591 49.2386 42.9091C49.2386 43.1591 49.1439 43.3731 48.9545 43.5511C48.7689 43.7292 48.5455 43.8182 48.2841 43.8182ZM57.581 47.2273L56.3764 47.5682C56.3007 47.3674 56.1889 47.1723 56.0412 46.983C55.8973 46.7898 55.7003 46.6307 55.4503 46.5057C55.2003 46.3807 54.8802 46.3182 54.4901 46.3182C53.956 46.3182 53.5109 46.4413 53.1548 46.6875C52.8026 46.9299 52.6264 47.2386 52.6264 47.6136C52.6264 47.947 52.7476 48.2102 52.9901 48.4034C53.2325 48.5966 53.6113 48.7576 54.1264 48.8864L55.4219 49.2045C56.2022 49.3939 56.7836 49.6837 57.1662 50.0739C57.5488 50.4602 57.7401 50.9583 57.7401 51.5682C57.7401 52.0682 57.5961 52.5152 57.3082 52.9091C57.0241 53.303 56.6264 53.6136 56.1151 53.8409C55.6037 54.0682 55.009 54.1818 54.331 54.1818C53.4408 54.1818 52.7041 53.9886 52.1207 53.6023C51.5374 53.2159 51.1681 52.6515 51.0128 51.9091L52.2855 51.5909C52.4067 52.0606 52.6359 52.4129 52.973 52.6477C53.3139 52.8826 53.759 53 54.3082 53C54.9332 53 55.4295 52.8674 55.7969 52.6023C56.1681 52.3333 56.3537 52.0114 56.3537 51.6364C56.3537 51.3333 56.2476 51.0795 56.0355 50.875C55.8234 50.6667 55.4976 50.5114 55.0582 50.4091L53.6037 50.0682C52.8045 49.8788 52.2173 49.5852 51.8423 49.1875C51.4711 48.786 51.2855 48.2841 51.2855 47.6818C51.2855 47.1894 51.4238 46.7538 51.7003 46.375C51.9806 45.9962 52.3613 45.6989 52.8423 45.483C53.3272 45.267 53.8764 45.1591 54.4901 45.1591C55.3537 45.1591 56.0317 45.3485 56.5241 45.7273C57.0204 46.1061 57.3726 46.6061 57.581 47.2273ZM68.054 45.2727V46.4091H63.5312V45.2727H68.054ZM64.8494 43.1818H66.1903V51.5C66.1903 51.8788 66.2453 52.1629 66.3551 52.3523C66.4688 52.5379 66.6127 52.6629 66.7869 52.7273C66.965 52.7879 67.1525 52.8182 67.3494 52.8182C67.4972 52.8182 67.6184 52.8106 67.7131 52.7955C67.8078 52.7765 67.8835 52.7614 67.9403 52.75L68.2131 53.9545C68.1222 53.9886 67.9953 54.0227 67.8324 54.0568C67.6695 54.0947 67.4631 54.1136 67.2131 54.1136C66.8343 54.1136 66.4631 54.0322 66.0994 53.8693C65.7396 53.7064 65.4403 53.4583 65.2017 53.125C64.9669 52.7917 64.8494 52.3712 64.8494 51.8636V43.1818ZM71.5994 48.75V54H70.2585V42.3636H71.5994V46.6364H71.7131C71.9176 46.1856 72.2244 45.8277 72.6335 45.5625C73.0464 45.2936 73.5956 45.1591 74.2812 45.1591C74.8759 45.1591 75.3968 45.2784 75.8438 45.517C76.2907 45.7519 76.6373 46.1136 76.8835 46.6023C77.1335 47.0871 77.2585 47.7045 77.2585 48.4545V54H75.9176V48.5455C75.9176 47.8523 75.7377 47.3163 75.3778 46.9375C75.0218 46.5549 74.5275 46.3636 73.8949 46.3636C73.4555 46.3636 73.0616 46.4564 72.7131 46.642C72.3684 46.8277 72.0956 47.0985 71.8949 47.4545C71.6979 47.8106 71.5994 48.2424 71.5994 48.75ZM83.3707 54.1818C82.5298 54.1818 81.8045 53.9962 81.1946 53.625C80.5885 53.25 80.1207 52.7273 79.7912 52.0568C79.4654 51.3826 79.3026 50.5985 79.3026 49.7045C79.3026 48.8106 79.4654 48.0227 79.7912 47.3409C80.1207 46.6553 80.5791 46.1212 81.1662 45.7386C81.7571 45.3523 82.4465 45.1591 83.2344 45.1591C83.6889 45.1591 84.1378 45.2348 84.581 45.3864C85.0241 45.5379 85.4276 45.7841 85.7912 46.125C86.1548 46.4621 86.4446 46.9091 86.6605 47.4659C86.8764 48.0227 86.9844 48.7083 86.9844 49.5227V50.0909H80.2571V48.9318H85.6207C85.6207 48.4394 85.5223 48 85.3253 47.6136C85.1321 47.2273 84.8556 46.9223 84.4957 46.6989C84.1397 46.4754 83.7192 46.3636 83.2344 46.3636C82.7003 46.3636 82.2382 46.4962 81.848 46.7614C81.4616 47.0227 81.1643 47.3636 80.956 47.7841C80.7476 48.2045 80.6435 48.6553 80.6435 49.1364V49.9091C80.6435 50.5682 80.7571 51.1269 80.9844 51.5852C81.2154 52.0398 81.5355 52.3864 81.9446 52.625C82.3537 52.8598 82.8291 52.9773 83.3707 52.9773C83.723 52.9773 84.0412 52.928 84.3253 52.8295C84.6132 52.7273 84.8613 52.5758 85.0696 52.375C85.2779 52.1705 85.4389 51.9167 85.5526 51.6136L86.848 51.9773C86.7116 52.4167 86.4825 52.803 86.1605 53.1364C85.8385 53.4659 85.4408 53.7235 84.9673 53.9091C84.4938 54.0909 83.9616 54.1818 83.3707 54.1818ZM94.8651 48.75V54H93.5241V42.3636H94.8651V46.6364H94.9787C95.1832 46.1856 95.4901 45.8277 95.8991 45.5625C96.312 45.2936 96.8613 45.1591 97.5469 45.1591C98.1416 45.1591 98.6624 45.2784 99.1094 45.517C99.5563 45.7519 99.9029 46.1136 100.149 46.6023C100.399 47.0871 100.524 47.7045 100.524 48.4545V54H99.1832V48.5455C99.1832 47.8523 99.0033 47.3163 98.6435 46.9375C98.2874 46.5549 97.7931 46.3636 97.1605 46.3636C96.7211 46.3636 96.3272 46.4564 95.9787 46.642C95.634 46.8277 95.3613 47.0985 95.1605 47.4545C94.9635 47.8106 94.8651 48.2424 94.8651 48.75ZM102.977 54V45.2727H104.318V54H102.977ZM103.659 43.8182C103.398 43.8182 103.172 43.7292 102.983 43.5511C102.797 43.3731 102.705 43.1591 102.705 42.9091C102.705 42.6591 102.797 42.4451 102.983 42.267C103.172 42.089 103.398 42 103.659 42C103.92 42 104.144 42.089 104.33 42.267C104.519 42.4451 104.614 42.6591 104.614 42.9091C104.614 43.1591 104.519 43.3731 104.33 43.5511C104.144 43.7292 103.92 43.8182 103.659 43.8182ZM108.115 48.75V54H106.774V45.2727H108.07V46.6364H108.183C108.388 46.1932 108.698 45.8371 109.115 45.5682C109.532 45.2955 110.07 45.1591 110.729 45.1591C111.32 45.1591 111.837 45.2803 112.28 45.5227C112.723 45.7614 113.068 46.125 113.314 46.6136C113.56 47.0985 113.683 47.7121 113.683 48.4545V54H112.342V48.5455C112.342 47.8598 112.164 47.3258 111.808 46.9432C111.452 46.5568 110.964 46.3636 110.342 46.3636C109.914 46.3636 109.532 46.4564 109.195 46.642C108.861 46.8277 108.598 47.0985 108.405 47.4545C108.212 47.8106 108.115 48.2424 108.115 48.75ZM119.929 45.2727V46.4091H115.406V45.2727H119.929ZM116.724 43.1818H118.065V51.5C118.065 51.8788 118.12 52.1629 118.23 52.3523C118.344 52.5379 118.488 52.6629 118.662 52.7273C118.84 52.7879 119.027 52.8182 119.224 52.8182C119.372 52.8182 119.493 52.8106 119.588 52.7955C119.683 52.7765 119.759 52.7614 119.815 52.75L120.088 53.9545C119.997 53.9886 119.87 54.0227 119.707 54.0568C119.545 54.0947 119.338 54.1136 119.088 54.1136C118.709 54.1136 118.338 54.0322 117.974 53.8693C117.615 53.7064 117.315 53.4583 117.077 53.125C116.842 52.7917 116.724 52.3712 116.724 51.8636V43.1818ZM130.241 45.2727V46.4091H125.719V45.2727H130.241ZM127.037 43.1818H128.378V51.5C128.378 51.8788 128.433 52.1629 128.543 52.3523C128.656 52.5379 128.8 52.6629 128.974 52.7273C129.152 52.7879 129.34 52.8182 129.537 52.8182C129.685 52.8182 129.806 52.8106 129.901 52.7955C129.995 52.7765 130.071 52.7614 130.128 52.75L130.401 53.9545C130.31 53.9886 130.183 54.0227 130.02 54.0568C129.857 54.0947 129.651 54.1136 129.401 54.1136C129.022 54.1136 128.651 54.0322 128.287 53.8693C127.927 53.7064 127.628 53.4583 127.389 53.125C127.154 52.7917 127.037 52.3712 127.037 51.8636V43.1818ZM135.824 54.1818C134.983 54.1818 134.258 53.9962 133.648 53.625C133.042 53.25 132.574 52.7273 132.244 52.0568C131.919 51.3826 131.756 50.5985 131.756 49.7045C131.756 48.8106 131.919 48.0227 132.244 47.3409C132.574 46.6553 133.032 46.1212 133.619 45.7386C134.21 45.3523 134.9 45.1591 135.688 45.1591C136.142 45.1591 136.591 45.2348 137.034 45.3864C137.477 45.5379 137.881 45.7841 138.244 46.125C138.608 46.4621 138.898 46.9091 139.114 47.4659C139.33 48.0227 139.438 48.7083 139.438 49.5227V50.0909H132.71V48.9318H138.074C138.074 48.4394 137.975 48 137.778 47.6136C137.585 47.2273 137.309 46.9223 136.949 46.6989C136.593 46.4754 136.172 46.3636 135.688 46.3636C135.153 46.3636 134.691 46.4962 134.301 46.7614C133.915 47.0227 133.617 47.3636 133.409 47.7841C133.201 48.2045 133.097 48.6553 133.097 49.1364V49.9091C133.097 50.5682 133.21 51.1269 133.438 51.5852C133.669 52.0398 133.989 52.3864 134.398 52.625C134.807 52.8598 135.282 52.9773 135.824 52.9773C136.176 52.9773 136.494 52.928 136.778 52.8295C137.066 52.7273 137.314 52.5758 137.523 52.375C137.731 52.1705 137.892 51.9167 138.006 51.6136L139.301 51.9773C139.165 52.4167 138.936 52.803 138.614 53.1364C138.292 53.4659 137.894 53.7235 137.42 53.9091C136.947 54.0909 136.415 54.1818 135.824 54.1818ZM142.243 45.2727L144.334 48.8409L146.425 45.2727H147.97L145.152 49.6364L147.97 54H146.425L144.334 50.6136L142.243 54H140.697L143.47 49.6364L140.697 45.2727H142.243ZM153.679 45.2727V46.4091H149.156V45.2727H153.679ZM150.474 43.1818H151.815V51.5C151.815 51.8788 151.87 52.1629 151.98 52.3523C152.094 52.5379 152.238 52.6629 152.412 52.7273C152.59 52.7879 152.777 52.8182 152.974 52.8182C153.122 52.8182 153.243 52.8106 153.338 52.7955C153.433 52.7765 153.509 52.7614 153.565 52.75L153.838 53.9545C153.747 53.9886 153.62 54.0227 153.457 54.0568C153.295 54.0947 153.088 54.1136 152.838 54.1136C152.459 54.1136 152.088 54.0322 151.724 53.8693C151.365 53.7064 151.065 53.4583 150.827 53.125C150.592 52.7917 150.474 52.3712 150.474 51.8636V43.1818Z" fill="#667085"/>
<rect x="10.5" y="64.5" width="358" height="47" rx="3.5" fill="white"/>
<rect x="10.5" y="64.5" width="358" height="47" rx="3.5" stroke="#98A2B3"/>
<path d="M26.7727 83.6136V82.3636H35.5V83.6136H31.8409V94H30.4318V83.6136H26.7727ZM39.8864 94.1818C39.0455 94.1818 38.3201 93.9962 37.7102 93.625C37.1042 93.25 36.6364 92.7273 36.3068 92.0568C35.9811 91.3826 35.8182 90.5985 35.8182 89.7045C35.8182 88.8106 35.9811 88.0227 36.3068 87.3409C36.6364 86.6553 37.0947 86.1212 37.6818 85.7386C38.2727 85.3523 38.9621 85.1591 39.75 85.1591C40.2045 85.1591 40.6534 85.2348 41.0966 85.3864C41.5398 85.5379 41.9432 85.7841 42.3068 86.125C42.6705 86.4621 42.9602 86.9091 43.1761 87.4659C43.392 88.0227 43.5 88.7083 43.5 89.5227V90.0909H36.7727V88.9318H42.1364C42.1364 88.4394 42.0379 88 41.8409 87.6136C41.6477 87.2273 41.3712 86.9223 41.0114 86.6989C40.6553 86.4754 40.2348 86.3636 39.75 86.3636C39.2159 86.3636 38.7538 86.4962 38.3636 86.7614C37.9773 87.0227 37.6799 87.3636 37.4716 87.7841C37.2633 88.2045 37.1591 88.6553 37.1591 89.1364V89.9091C37.1591 90.5682 37.2727 91.1269 37.5 91.5852C37.7311 92.0398 38.0511 92.3864 38.4602 92.625C38.8693 92.8598 39.3447 92.9773 39.8864 92.9773C40.2386 92.9773 40.5568 92.928 40.8409 92.8295C41.1288 92.7273 41.3769 92.5758 41.5852 92.375C41.7936 92.1705 41.9545 91.9167 42.0682 91.6136L43.3636 91.9773C43.2273 92.4167 42.9981 92.803 42.6761 93.1364C42.3542 93.4659 41.9564 93.7235 41.483 93.9091C41.0095 94.0909 40.4773 94.1818 39.8864 94.1818ZM46.3054 85.2727L48.3963 88.8409L50.4872 85.2727H52.0327L49.2145 89.6364L52.0327 94H50.4872L48.3963 90.6136L46.3054 94H44.7599L47.5327 89.6364L44.7599 85.2727H46.3054ZM57.7415 85.2727V86.4091H53.2188V85.2727H57.7415ZM54.5369 83.1818H55.8778V91.5C55.8778 91.8788 55.9328 92.1629 56.0426 92.3523C56.1563 92.5379 56.3002 92.6629 56.4744 92.7273C56.6525 92.7879 56.84 92.8182 57.0369 92.8182C57.1847 92.8182 57.3059 92.8106 57.4006 92.7955C57.4953 92.7765 57.571 92.7614 57.6278 92.75L57.9006 93.9545C57.8097 93.9886 57.6828 94.0227 57.5199 94.0568C57.357 94.0947 57.1506 94.1136 56.9006 94.1136C56.5218 94.1136 56.1506 94.0322 55.7869 93.8693C55.4271 93.7064 55.1278 93.4583 54.8892 93.125C54.6544 92.7917 54.5369 92.3712 54.5369 91.8636V83.1818ZM67.7812 97.4545C67.1335 97.4545 66.5767 97.3712 66.1108 97.2045C65.6449 97.0417 65.2566 96.8258 64.946 96.5568C64.6392 96.2917 64.3949 96.0076 64.2131 95.7045L65.2812 94.9545C65.4025 95.1136 65.5559 95.2955 65.7415 95.5C65.9271 95.7083 66.1809 95.8883 66.5028 96.0398C66.8286 96.1951 67.2547 96.2727 67.7812 96.2727C68.4858 96.2727 69.0672 96.1023 69.5256 95.7614C69.9839 95.4205 70.2131 94.8864 70.2131 94.1591V92.3864H70.0994C70.0009 92.5455 69.8608 92.7424 69.679 92.9773C69.5009 93.2083 69.2434 93.4148 68.9062 93.5966C68.5729 93.7746 68.1222 93.8636 67.554 93.8636C66.8494 93.8636 66.2169 93.697 65.6562 93.3636C65.0994 93.0303 64.6581 92.5455 64.3324 91.9091C64.0104 91.2727 63.8494 90.5 63.8494 89.5909C63.8494 88.697 64.0066 87.9186 64.321 87.2557C64.6354 86.589 65.0729 86.0739 65.6335 85.7102C66.1941 85.3428 66.8419 85.1591 67.5767 85.1591C68.1449 85.1591 68.5956 85.2538 68.929 85.4432C69.2661 85.6288 69.5237 85.8409 69.7017 86.0795C69.8835 86.3144 70.0237 86.5076 70.1222 86.6591H70.2585V85.2727H71.554V94.25C71.554 95 71.3835 95.6098 71.0426 96.0795C70.7055 96.553 70.2509 96.8996 69.679 97.1193C69.1108 97.3428 68.4782 97.4545 67.7812 97.4545ZM67.7358 92.6591C68.2737 92.6591 68.7282 92.536 69.0994 92.2898C69.4706 92.0436 69.7528 91.6894 69.946 91.2273C70.1392 90.7652 70.2358 90.2121 70.2358 89.5682C70.2358 88.9394 70.1411 88.3845 69.9517 87.9034C69.7623 87.4223 69.482 87.0455 69.1108 86.7727C68.7396 86.5 68.2813 86.3636 67.7358 86.3636C67.1676 86.3636 66.6941 86.5076 66.3153 86.7955C65.9403 87.0833 65.6581 87.4697 65.4688 87.9545C65.2831 88.4394 65.1903 88.9773 65.1903 89.5682C65.1903 90.1742 65.285 90.7102 65.4744 91.1761C65.6676 91.6383 65.9517 92.0019 66.3267 92.267C66.7055 92.5284 67.1752 92.6591 67.7358 92.6591ZM77.554 94.1818C76.7661 94.1818 76.0748 93.9943 75.4801 93.6193C74.8892 93.2443 74.4271 92.7197 74.0938 92.0455C73.7642 91.3712 73.5994 90.5833 73.5994 89.6818C73.5994 88.7727 73.7642 87.9792 74.0938 87.3011C74.4271 86.6231 74.8892 86.0966 75.4801 85.7216C76.0748 85.3466 76.7661 85.1591 77.554 85.1591C78.3419 85.1591 79.0313 85.3466 79.6222 85.7216C80.2169 86.0966 80.679 86.6231 81.0085 87.3011C81.3419 87.9792 81.5085 88.7727 81.5085 89.6818C81.5085 90.5833 81.3419 91.3712 81.0085 92.0455C80.679 92.7197 80.2169 93.2443 79.6222 93.6193C79.0313 93.9943 78.3419 94.1818 77.554 94.1818ZM77.554 92.9773C78.1525 92.9773 78.6449 92.8239 79.0312 92.517C79.4176 92.2102 79.7036 91.8068 79.8892 91.3068C80.0748 90.8068 80.1676 90.2652 80.1676 89.6818C80.1676 89.0985 80.0748 88.5549 79.8892 88.0511C79.7036 87.5473 79.4176 87.1402 79.0312 86.8295C78.6449 86.5189 78.1525 86.3636 77.554 86.3636C76.9555 86.3636 76.4631 86.5189 76.0767 86.8295C75.6903 87.1402 75.4044 87.5473 75.2188 88.0511C75.0331 88.5549 74.9403 89.0985 74.9403 89.6818C74.9403 90.2652 75.0331 90.8068 75.2188 91.3068C75.4044 91.8068 75.6903 92.2102 76.0767 92.517C76.4631 92.8239 76.9555 92.9773 77.554 92.9773ZM87.2145 94.1818C86.3736 94.1818 85.6482 93.9962 85.0384 93.625C84.4323 93.25 83.9645 92.7273 83.6349 92.0568C83.3092 91.3826 83.1463 90.5985 83.1463 89.7045C83.1463 88.8106 83.3092 88.0227 83.6349 87.3409C83.9645 86.6553 84.4228 86.1212 85.0099 85.7386C85.6009 85.3523 86.2902 85.1591 87.0781 85.1591C87.5327 85.1591 87.9815 85.2348 88.4247 85.3864C88.8679 85.5379 89.2713 85.7841 89.6349 86.125C89.9986 86.4621 90.2884 86.9091 90.5043 87.4659C90.7202 88.0227 90.8281 88.7083 90.8281 89.5227V90.0909H84.1009V88.9318H89.4645C89.4645 88.4394 89.366 88 89.169 87.6136C88.9759 87.2273 88.6993 86.9223 88.3395 86.6989C87.9834 86.4754 87.563 86.3636 87.0781 86.3636C86.544 86.3636 86.0819 86.4962 85.6918 86.7614C85.3054 87.0227 85.008 87.3636 84.7997 87.7841C84.5914 88.2045 84.4872 88.6553 84.4872 89.1364V89.9091C84.4872 90.5682 84.6009 91.1269 84.8281 91.5852C85.0592 92.0398 85.3793 92.3864 85.7884 92.625C86.1974 92.8598 86.6728 92.9773 87.2145 92.9773C87.5668 92.9773 87.8849 92.928 88.169 92.8295C88.4569 92.7273 88.705 92.5758 88.9134 92.375C89.1217 92.1705 89.2827 91.9167 89.3963 91.6136L90.6918 91.9773C90.5554 92.4167 90.3262 92.803 90.0043 93.1364C89.6823 93.4659 89.2846 93.7235 88.8111 93.9091C88.3376 94.0909 87.8054 94.1818 87.2145 94.1818ZM99.0497 87.2273L97.8452 87.5682C97.7694 87.3674 97.6577 87.1723 97.5099 86.983C97.366 86.7898 97.169 86.6307 96.919 86.5057C96.669 86.3807 96.349 86.3182 95.9588 86.3182C95.4247 86.3182 94.9796 86.4413 94.6236 86.6875C94.2713 86.9299 94.0952 87.2386 94.0952 87.6136C94.0952 87.947 94.2164 88.2102 94.4588 88.4034C94.7012 88.5966 95.08 88.7576 95.5952 88.8864L96.8906 89.2045C97.6709 89.3939 98.2524 89.6837 98.6349 90.0739C99.0175 90.4602 99.2088 90.9583 99.2088 91.5682C99.2088 92.0682 99.0649 92.5152 98.777 92.9091C98.4929 93.303 98.0952 93.6136 97.5838 93.8409C97.0724 94.0682 96.4777 94.1818 95.7997 94.1818C94.9096 94.1818 94.1728 93.9886 93.5895 93.6023C93.0062 93.2159 92.6368 92.6515 92.4815 91.9091L93.7543 91.5909C93.8755 92.0606 94.1046 92.4129 94.4418 92.6477C94.7827 92.8826 95.2277 93 95.777 93C96.402 93 96.8982 92.8674 97.2656 92.6023C97.6368 92.3333 97.8224 92.0114 97.8224 91.6364C97.8224 91.3333 97.7164 91.0795 97.5043 90.875C97.2921 90.6667 96.9664 90.5114 96.527 90.4091L95.0724 90.0682C94.2732 89.8788 93.6861 89.5852 93.3111 89.1875C92.9399 88.786 92.7543 88.2841 92.7543 87.6818C92.7543 87.1894 92.8925 86.7538 93.169 86.375C93.4493 85.9962 93.83 85.6989 94.3111 85.483C94.7959 85.267 95.3452 85.1591 95.9588 85.1591C96.8224 85.1591 97.5005 85.3485 97.9929 85.7273C98.4891 86.1061 98.8414 86.6061 99.0497 87.2273ZM107.068 88.75V94H105.727V82.3636H107.068V86.6364H107.182C107.386 86.1856 107.693 85.8277 108.102 85.5625C108.515 85.2936 109.064 85.1591 109.75 85.1591C110.345 85.1591 110.866 85.2784 111.312 85.517C111.759 85.7519 112.106 86.1136 112.352 86.6023C112.602 87.0871 112.727 87.7045 112.727 88.4545V94H111.386V88.5455C111.386 87.8523 111.206 87.3163 110.847 86.9375C110.491 86.5549 109.996 86.3636 109.364 86.3636C108.924 86.3636 108.53 86.4564 108.182 86.642C107.837 86.8277 107.564 87.0985 107.364 87.4545C107.167 87.8106 107.068 88.2424 107.068 88.75ZM118.839 94.1818C117.999 94.1818 117.273 93.9962 116.663 93.625C116.057 93.25 115.589 92.7273 115.26 92.0568C114.934 91.3826 114.771 90.5985 114.771 89.7045C114.771 88.8106 114.934 88.0227 115.26 87.3409C115.589 86.6553 116.048 86.1212 116.635 85.7386C117.226 85.3523 117.915 85.1591 118.703 85.1591C119.158 85.1591 119.607 85.2348 120.05 85.3864C120.493 85.5379 120.896 85.7841 121.26 86.125C121.624 86.4621 121.913 86.9091 122.129 87.4659C122.345 88.0227 122.453 88.7083 122.453 89.5227V90.0909H115.726V88.9318H121.089C121.089 88.4394 120.991 88 120.794 87.6136C120.601 87.2273 120.324 86.9223 119.964 86.6989C119.608 86.4754 119.188 86.3636 118.703 86.3636C118.169 86.3636 117.707 86.4962 117.317 86.7614C116.93 87.0227 116.633 87.3636 116.425 87.7841C116.216 88.2045 116.112 88.6553 116.112 89.1364V89.9091C116.112 90.5682 116.226 91.1269 116.453 91.5852C116.684 92.0398 117.004 92.3864 117.413 92.625C117.822 92.8598 118.298 92.9773 118.839 92.9773C119.192 92.9773 119.51 92.928 119.794 92.8295C120.082 92.7273 120.33 92.5758 120.538 92.375C120.747 92.1705 120.908 91.9167 121.021 91.6136L122.317 91.9773C122.18 92.4167 121.951 92.803 121.629 93.1364C121.307 93.4659 120.91 93.7235 120.436 93.9091C119.963 94.0909 119.43 94.1818 118.839 94.1818ZM124.493 94V85.2727H125.788V86.5909H125.879C126.038 86.1591 126.326 85.8087 126.743 85.5398C127.16 85.2708 127.629 85.1364 128.152 85.1364C128.25 85.1364 128.374 85.1383 128.521 85.142C128.669 85.1458 128.781 85.1515 128.857 85.1591V86.5227C128.811 86.5114 128.707 86.4943 128.544 86.4716C128.385 86.4451 128.216 86.4318 128.038 86.4318C127.614 86.4318 127.235 86.5208 126.902 86.6989C126.572 86.8731 126.311 87.1155 126.118 87.4261C125.929 87.733 125.834 88.0833 125.834 88.4773V94H124.493ZM133.839 94.1818C132.999 94.1818 132.273 93.9962 131.663 93.625C131.057 93.25 130.589 92.7273 130.26 92.0568C129.934 91.3826 129.771 90.5985 129.771 89.7045C129.771 88.8106 129.934 88.0227 130.26 87.3409C130.589 86.6553 131.048 86.1212 131.635 85.7386C132.226 85.3523 132.915 85.1591 133.703 85.1591C134.158 85.1591 134.607 85.2348 135.05 85.3864C135.493 85.5379 135.896 85.7841 136.26 86.125C136.624 86.4621 136.913 86.9091 137.129 87.4659C137.345 88.0227 137.453 88.7083 137.453 89.5227V90.0909H130.726V88.9318H136.089C136.089 88.4394 135.991 88 135.794 87.6136C135.601 87.2273 135.324 86.9223 134.964 86.6989C134.608 86.4754 134.188 86.3636 133.703 86.3636C133.169 86.3636 132.707 86.4962 132.317 86.7614C131.93 87.0227 131.633 87.3636 131.425 87.7841C131.216 88.2045 131.112 88.6553 131.112 89.1364V89.9091C131.112 90.5682 131.226 91.1269 131.453 91.5852C131.684 92.0398 132.004 92.3864 132.413 92.625C132.822 92.8598 133.298 92.9773 133.839 92.9773C134.192 92.9773 134.51 92.928 134.794 92.8295C135.082 92.7273 135.33 92.5758 135.538 92.375C135.747 92.1705 135.908 91.9167 136.021 91.6136L137.317 91.9773C137.18 92.4167 136.951 92.803 136.629 93.1364C136.307 93.4659 135.91 93.7235 135.436 93.9091C134.963 94.0909 134.43 94.1818 133.839 94.1818Z" fill="#1D2939"/>
<path fill-rule="evenodd" clip-rule="evenodd" d="M339.136 84.9044C339.178 84.8614 339.229 84.8273 339.285 84.804C339.342 84.7808 339.402 84.7688 339.462 84.7688C339.523 84.7688 339.583 84.7808 339.639 84.804C339.695 84.8273 339.746 84.8614 339.789 84.9044L345 90.1164L350.211 84.9044C350.254 84.8615 350.305 84.8274 350.361 84.8042C350.417 84.781 350.477 84.769 350.538 84.769C350.599 84.769 350.659 84.781 350.715 84.8042C350.771 84.8274 350.822 84.8615 350.865 84.9044C350.908 84.9473 350.942 84.9982 350.965 85.0543C350.988 85.1103 351 85.1704 351 85.2311C351 85.2918 350.988 85.3519 350.965 85.4079C350.942 85.464 350.908 85.5149 350.865 85.5578L345.327 91.0957C345.284 91.1386 345.233 91.1727 345.177 91.196C345.121 91.2193 345.061 91.2312 345 91.2312C344.939 91.2312 344.879 91.2193 344.823 91.196C344.767 91.1727 344.716 91.1386 344.673 91.0957L339.136 85.5578C339.093 85.515 339.059 85.464 339.035 85.408C339.012 85.3519 339 85.2918 339 85.2311C339 85.1704 339.012 85.1103 339.035 85.0542C339.059 84.9982 339.093 84.9472 339.136 84.9044Z" fill="#1D2939"/>
<rect x="10.5" y="120.5" width="358" height="193" rx="3.5" stroke="#98A2B3"/>
<rect width="357" height="48" transform="translate(11 121)" fill="white"/>
<path d="M38.2273 145.182C38.2273 146.409 38.0057 147.47 37.5625 148.364C37.1193 149.258 36.5114 149.947 35.7386 150.432C34.9659 150.917 34.0833 151.159 33.0909 151.159C32.0985 151.159 31.2159 150.917 30.4432 150.432C29.6705 149.947 29.0625 149.258 28.6193 148.364C28.1761 147.47 27.9545 146.409 27.9545 145.182C27.9545 143.955 28.1761 142.894 28.6193 142C29.0625 141.106 29.6705 140.417 30.4432 139.932C31.2159 139.447 32.0985 139.205 33.0909 139.205C34.0833 139.205 34.9659 139.447 35.7386 139.932C36.5114 140.417 37.1193 141.106 37.5625 142C38.0057 142.894 38.2273 143.955 38.2273 145.182ZM36.8636 145.182C36.8636 144.174 36.6951 143.324 36.358 142.631C36.0246 141.938 35.572 141.413 35 141.057C34.4318 140.701 33.7955 140.523 33.0909 140.523C32.3864 140.523 31.7481 140.701 31.1761 141.057C30.608 141.413 30.1553 141.938 29.8182 142.631C29.4848 143.324 29.3182 144.174 29.3182 145.182C29.3182 146.189 29.4848 147.04 29.8182 147.733C30.1553 148.426 30.608 148.951 31.1761 149.307C31.7481 149.663 32.3864 149.841 33.0909 149.841C33.7955 149.841 34.4318 149.663 35 149.307C35.572 148.951 36.0246 148.426 36.358 147.733C36.6951 147.04 36.8636 146.189 36.8636 145.182ZM40.4148 154.273V142.273H41.7102V143.659H41.8693C41.9678 143.508 42.1042 143.314 42.2784 143.08C42.4564 142.841 42.7102 142.629 43.0398 142.443C43.3731 142.254 43.8239 142.159 44.392 142.159C45.1269 142.159 45.7746 142.343 46.3352 142.71C46.8958 143.078 47.3333 143.598 47.6477 144.273C47.9621 144.947 48.1193 145.742 48.1193 146.659C48.1193 147.583 47.9621 148.384 47.6477 149.062C47.3333 149.737 46.8977 150.259 46.3409 150.631C45.7841 150.998 45.142 151.182 44.4148 151.182C43.8542 151.182 43.4053 151.089 43.0682 150.903C42.7311 150.714 42.4716 150.5 42.2898 150.261C42.108 150.019 41.9678 149.818 41.8693 149.659H41.7557V154.273H40.4148ZM41.733 146.636C41.733 147.295 41.8295 147.877 42.0227 148.381C42.2159 148.881 42.4981 149.273 42.8693 149.557C43.2405 149.837 43.6951 149.977 44.233 149.977C44.7936 149.977 45.2614 149.83 45.6364 149.534C46.0152 149.235 46.2992 148.833 46.4886 148.33C46.6818 147.822 46.7784 147.258 46.7784 146.636C46.7784 146.023 46.6837 145.47 46.4943 144.977C46.3087 144.481 46.0265 144.089 45.6477 143.801C45.2727 143.509 44.8011 143.364 44.233 143.364C43.6875 143.364 43.2292 143.502 42.858 143.778C42.4867 144.051 42.2064 144.434 42.017 144.926C41.8277 145.415 41.733 145.985 41.733 146.636ZM53.9602 142.273V143.409H49.4375V142.273H53.9602ZM50.7557 140.182H52.0966V148.5C52.0966 148.879 52.1515 149.163 52.2614 149.352C52.375 149.538 52.5189 149.663 52.6932 149.727C52.8712 149.788 53.0587 149.818 53.2557 149.818C53.4034 149.818 53.5246 149.811 53.6193 149.795C53.714 149.777 53.7898 149.761 53.8466 149.75L54.1193 150.955C54.0284 150.989 53.9015 151.023 53.7386 151.057C53.5758 151.095 53.3693 151.114 53.1193 151.114C52.7405 151.114 52.3693 151.032 52.0057 150.869C51.6458 150.706 51.3466 150.458 51.108 150.125C50.8731 149.792 50.7557 149.371 50.7557 148.864V140.182ZM55.9773 151V142.273H57.3182V151H55.9773ZM56.6591 140.818C56.3977 140.818 56.1723 140.729 55.983 140.551C55.7973 140.373 55.7045 140.159 55.7045 139.909C55.7045 139.659 55.7973 139.445 55.983 139.267C56.1723 139.089 56.3977 139 56.6591 139C56.9205 139 57.1439 139.089 57.3295 139.267C57.5189 139.445 57.6136 139.659 57.6136 139.909C57.6136 140.159 57.5189 140.373 57.3295 140.551C57.1439 140.729 56.9205 140.818 56.6591 140.818ZM63.3196 151.182C62.5317 151.182 61.8404 150.994 61.2457 150.619C60.6548 150.244 60.1927 149.72 59.8594 149.045C59.5298 148.371 59.3651 147.583 59.3651 146.682C59.3651 145.773 59.5298 144.979 59.8594 144.301C60.1927 143.623 60.6548 143.097 61.2457 142.722C61.8404 142.347 62.5317 142.159 63.3196 142.159C64.1075 142.159 64.7969 142.347 65.3878 142.722C65.9825 143.097 66.4446 143.623 66.7741 144.301C67.1075 144.979 67.2741 145.773 67.2741 146.682C67.2741 147.583 67.1075 148.371 66.7741 149.045C66.4446 149.72 65.9825 150.244 65.3878 150.619C64.7969 150.994 64.1075 151.182 63.3196 151.182ZM63.3196 149.977C63.9181 149.977 64.4105 149.824 64.7969 149.517C65.1832 149.21 65.4692 148.807 65.6548 148.307C65.8404 147.807 65.9332 147.265 65.9332 146.682C65.9332 146.098 65.8404 145.555 65.6548 145.051C65.4692 144.547 65.1832 144.14 64.7969 143.83C64.4105 143.519 63.9181 143.364 63.3196 143.364C62.7211 143.364 62.2287 143.519 61.8423 143.83C61.456 144.14 61.17 144.547 60.9844 145.051C60.7988 145.555 60.706 146.098 60.706 146.682C60.706 147.265 60.7988 147.807 60.9844 148.307C61.17 148.807 61.456 149.21 61.8423 149.517C62.2287 149.824 62.7211 149.977 63.3196 149.977ZM70.6619 145.75V151H69.321V142.273H70.6165V143.636H70.7301C70.9347 143.193 71.2453 142.837 71.6619 142.568C72.0786 142.295 72.6165 142.159 73.2756 142.159C73.8665 142.159 74.3835 142.28 74.8267 142.523C75.2699 142.761 75.6146 143.125 75.8608 143.614C76.107 144.098 76.2301 144.712 76.2301 145.455V151H74.8892V145.545C74.8892 144.86 74.7112 144.326 74.3551 143.943C73.9991 143.557 73.5104 143.364 72.8892 143.364C72.4612 143.364 72.0786 143.456 71.7415 143.642C71.4081 143.828 71.1449 144.098 70.9517 144.455C70.7585 144.811 70.6619 145.242 70.6619 145.75ZM87.2486 139.364V151H85.8395V140.841H85.7713L82.9304 142.727V141.295L85.8395 139.364H87.2486Z" fill="#1D2939"/>
<rect width="357" height="48" transform="translate(11 169)" fill="#E4E7EC"/>
<path d="M38.2273 193.182C38.2273 194.409 38.0057 195.47 37.5625 196.364C37.1193 197.258 36.5114 197.947 35.7386 198.432C34.9659 198.917 34.0833 199.159 33.0909 199.159C32.0985 199.159 31.2159 198.917 30.4432 198.432C29.6705 197.947 29.0625 197.258 28.6193 196.364C28.1761 195.47 27.9545 194.409 27.9545 193.182C27.9545 191.955 28.1761 190.894 28.6193 190C29.0625 189.106 29.6705 188.417 30.4432 187.932C31.2159 187.447 32.0985 187.205 33.0909 187.205C34.0833 187.205 34.9659 187.447 35.7386 187.932C36.5114 188.417 37.1193 189.106 37.5625 190C38.0057 190.894 38.2273 191.955 38.2273 193.182ZM36.8636 193.182C36.8636 192.174 36.6951 191.324 36.358 190.631C36.0246 189.938 35.572 189.413 35 189.057C34.4318 188.701 33.7955 188.523 33.0909 188.523C32.3864 188.523 31.7481 188.701 31.1761 189.057C30.608 189.413 30.1553 189.938 29.8182 190.631C29.4848 191.324 29.3182 192.174 29.3182 193.182C29.3182 194.189 29.4848 195.04 29.8182 195.733C30.1553 196.426 30.608 196.951 31.1761 197.307C31.7481 197.663 32.3864 197.841 33.0909 197.841C33.7955 197.841 34.4318 197.663 35 197.307C35.572 196.951 36.0246 196.426 36.358 195.733C36.6951 195.04 36.8636 194.189 36.8636 193.182ZM40.4148 202.273V190.273H41.7102V191.659H41.8693C41.9678 191.508 42.1042 191.314 42.2784 191.08C42.4564 190.841 42.7102 190.629 43.0398 190.443C43.3731 190.254 43.8239 190.159 44.392 190.159C45.1269 190.159 45.7746 190.343 46.3352 190.71C46.8958 191.078 47.3333 191.598 47.6477 192.273C47.9621 192.947 48.1193 193.742 48.1193 194.659C48.1193 195.583 47.9621 196.384 47.6477 197.062C47.3333 197.737 46.8977 198.259 46.3409 198.631C45.7841 198.998 45.142 199.182 44.4148 199.182C43.8542 199.182 43.4053 199.089 43.0682 198.903C42.7311 198.714 42.4716 198.5 42.2898 198.261C42.108 198.019 41.9678 197.818 41.8693 197.659H41.7557V202.273H40.4148ZM41.733 194.636C41.733 195.295 41.8295 195.877 42.0227 196.381C42.2159 196.881 42.4981 197.273 42.8693 197.557C43.2405 197.837 43.6951 197.977 44.233 197.977C44.7936 197.977 45.2614 197.83 45.6364 197.534C46.0152 197.235 46.2992 196.833 46.4886 196.33C46.6818 195.822 46.7784 195.258 46.7784 194.636C46.7784 194.023 46.6837 193.47 46.4943 192.977C46.3087 192.481 46.0265 192.089 45.6477 191.801C45.2727 191.509 44.8011 191.364 44.233 191.364C43.6875 191.364 43.2292 191.502 42.858 191.778C42.4867 192.051 42.2064 192.434 42.017 192.926C41.8277 193.415 41.733 193.985 41.733 194.636ZM53.9602 190.273V191.409H49.4375V190.273H53.9602ZM50.7557 188.182H52.0966V196.5C52.0966 196.879 52.1515 197.163 52.2614 197.352C52.375 197.538 52.5189 197.663 52.6932 197.727C52.8712 197.788 53.0587 197.818 53.2557 197.818C53.4034 197.818 53.5246 197.811 53.6193 197.795C53.714 197.777 53.7898 197.761 53.8466 197.75L54.1193 198.955C54.0284 198.989 53.9015 199.023 53.7386 199.057C53.5758 199.095 53.3693 199.114 53.1193 199.114C52.7405 199.114 52.3693 199.032 52.0057 198.869C51.6458 198.706 51.3466 198.458 51.108 198.125C50.8731 197.792 50.7557 197.371 50.7557 196.864V188.182ZM55.9773 199V190.273H57.3182V199H55.9773ZM56.6591 188.818C56.3977 188.818 56.1723 188.729 55.983 188.551C55.7973 188.373 55.7045 188.159 55.7045 187.909C55.7045 187.659 55.7973 187.445 55.983 187.267C56.1723 187.089 56.3977 187 56.6591 187C56.9205 187 57.1439 187.089 57.3295 187.267C57.5189 187.445 57.6136 187.659 57.6136 187.909C57.6136 188.159 57.5189 188.373 57.3295 188.551C57.1439 188.729 56.9205 188.818 56.6591 188.818ZM63.3196 199.182C62.5317 199.182 61.8404 198.994 61.2457 198.619C60.6548 198.244 60.1927 197.72 59.8594 197.045C59.5298 196.371 59.3651 195.583 59.3651 194.682C59.3651 193.773 59.5298 192.979 59.8594 192.301C60.1927 191.623 60.6548 191.097 61.2457 190.722C61.8404 190.347 62.5317 190.159 63.3196 190.159C64.1075 190.159 64.7969 190.347 65.3878 190.722C65.9825 191.097 66.4446 191.623 66.7741 192.301C67.1075 192.979 67.2741 193.773 67.2741 194.682C67.2741 195.583 67.1075 196.371 66.7741 197.045C66.4446 197.72 65.9825 198.244 65.3878 198.619C64.7969 198.994 64.1075 199.182 63.3196 199.182ZM63.3196 197.977C63.9181 197.977 64.4105 197.824 64.7969 197.517C65.1832 197.21 65.4692 196.807 65.6548 196.307C65.8404 195.807 65.9332 195.265 65.9332 194.682C65.9332 194.098 65.8404 193.555 65.6548 193.051C65.4692 192.547 65.1832 192.14 64.7969 191.83C64.4105 191.519 63.9181 191.364 63.3196 191.364C62.7211 191.364 62.2287 191.519 61.8423 191.83C61.456 192.14 61.17 192.547 60.9844 193.051C60.7988 193.555 60.706 194.098 60.706 194.682C60.706 195.265 60.7988 195.807 60.9844 196.307C61.17 196.807 61.456 197.21 61.8423 197.517C62.2287 197.824 62.7211 197.977 63.3196 197.977ZM70.6619 193.75V199H69.321V190.273H70.6165V191.636H70.7301C70.9347 191.193 71.2453 190.837 71.6619 190.568C72.0786 190.295 72.6165 190.159 73.2756 190.159C73.8665 190.159 74.3835 190.28 74.8267 190.523C75.2699 190.761 75.6146 191.125 75.8608 191.614C76.107 192.098 76.2301 192.712 76.2301 193.455V199H74.8892V193.545C74.8892 192.86 74.7112 192.326 74.3551 191.943C73.9991 191.557 73.5104 191.364 72.8892 191.364C72.4612 191.364 72.0786 191.456 71.7415 191.642C71.4081 191.828 71.1449 192.098 70.9517 192.455C70.7585 192.811 70.6619 193.242 70.6619 193.75ZM87.2486 187.364V199H85.8395V188.841H85.7713L82.9304 190.727V189.295L85.8395 187.364H87.2486Z" fill="#1D2939"/>
<rect width="357" height="48" transform="translate(11 217)" fill="white"/>
<path d="M38.2273 241.182C38.2273 242.409 38.0057 243.47 37.5625 244.364C37.1193 245.258 36.5114 245.947 35.7386 246.432C34.9659 246.917 34.0833 247.159 33.0909 247.159C32.0985 247.159 31.2159 246.917 30.4432 246.432C29.6705 245.947 29.0625 245.258 28.6193 244.364C28.1761 243.47 27.9545 242.409 27.9545 241.182C27.9545 239.955 28.1761 238.894 28.6193 238C29.0625 237.106 29.6705 236.417 30.4432 235.932C31.2159 235.447 32.0985 235.205 33.0909 235.205C34.0833 235.205 34.9659 235.447 35.7386 235.932C36.5114 236.417 37.1193 237.106 37.5625 238C38.0057 238.894 38.2273 239.955 38.2273 241.182ZM36.8636 241.182C36.8636 240.174 36.6951 239.324 36.358 238.631C36.0246 237.938 35.572 237.413 35 237.057C34.4318 236.701 33.7955 236.523 33.0909 236.523C32.3864 236.523 31.7481 236.701 31.1761 237.057C30.608 237.413 30.1553 237.938 29.8182 238.631C29.4848 239.324 29.3182 240.174 29.3182 241.182C29.3182 242.189 29.4848 243.04 29.8182 243.733C30.1553 244.426 30.608 244.951 31.1761 245.307C31.7481 245.663 32.3864 245.841 33.0909 245.841C33.7955 245.841 34.4318 245.663 35 245.307C35.572 244.951 36.0246 244.426 36.358 243.733C36.6951 243.04 36.8636 242.189 36.8636 241.182ZM40.4148 250.273V238.273H41.7102V239.659H41.8693C41.9678 239.508 42.1042 239.314 42.2784 239.08C42.4564 238.841 42.7102 238.629 43.0398 238.443C43.3731 238.254 43.8239 238.159 44.392 238.159C45.1269 238.159 45.7746 238.343 46.3352 238.71C46.8958 239.078 47.3333 239.598 47.6477 240.273C47.9621 240.947 48.1193 241.742 48.1193 242.659C48.1193 243.583 47.9621 244.384 47.6477 245.062C47.3333 245.737 46.8977 246.259 46.3409 246.631C45.7841 246.998 45.142 247.182 44.4148 247.182C43.8542 247.182 43.4053 247.089 43.0682 246.903C42.7311 246.714 42.4716 246.5 42.2898 246.261C42.108 246.019 41.9678 245.818 41.8693 245.659H41.7557V250.273H40.4148ZM41.733 242.636C41.733 243.295 41.8295 243.877 42.0227 244.381C42.2159 244.881 42.4981 245.273 42.8693 245.557C43.2405 245.837 43.6951 245.977 44.233 245.977C44.7936 245.977 45.2614 245.83 45.6364 245.534C46.0152 245.235 46.2992 244.833 46.4886 244.33C46.6818 243.822 46.7784 243.258 46.7784 242.636C46.7784 242.023 46.6837 241.47 46.4943 240.977C46.3087 240.481 46.0265 240.089 45.6477 239.801C45.2727 239.509 44.8011 239.364 44.233 239.364C43.6875 239.364 43.2292 239.502 42.858 239.778C42.4867 240.051 42.2064 240.434 42.017 240.926C41.8277 241.415 41.733 241.985 41.733 242.636ZM53.9602 238.273V239.409H49.4375V238.273H53.9602ZM50.7557 236.182H52.0966V244.5C52.0966 244.879 52.1515 245.163 52.2614 245.352C52.375 245.538 52.5189 245.663 52.6932 245.727C52.8712 245.788 53.0587 245.818 53.2557 245.818C53.4034 245.818 53.5246 245.811 53.6193 245.795C53.714 245.777 53.7898 245.761 53.8466 245.75L54.1193 246.955C54.0284 246.989 53.9015 247.023 53.7386 247.057C53.5758 247.095 53.3693 247.114 53.1193 247.114C52.7405 247.114 52.3693 247.032 52.0057 246.869C51.6458 246.706 51.3466 246.458 51.108 246.125C50.8731 245.792 50.7557 245.371 50.7557 244.864V236.182ZM55.9773 247V238.273H57.3182V247H55.9773ZM56.6591 236.818C56.3977 236.818 56.1723 236.729 55.983 236.551C55.7973 236.373 55.7045 236.159 55.7045 235.909C55.7045 235.659 55.7973 235.445 55.983 235.267C56.1723 235.089 56.3977 235 56.6591 235C56.9205 235 57.1439 235.089 57.3295 235.267C57.5189 235.445 57.6136 235.659 57.6136 235.909C57.6136 236.159 57.5189 236.373 57.3295 236.551C57.1439 236.729 56.9205 236.818 56.6591 236.818ZM63.3196 247.182C62.5317 247.182 61.8404 246.994 61.2457 246.619C60.6548 246.244 60.1927 245.72 59.8594 245.045C59.5298 244.371 59.3651 243.583 59.3651 242.682C59.3651 241.773 59.5298 240.979 59.8594 240.301C60.1927 239.623 60.6548 239.097 61.2457 238.722C61.8404 238.347 62.5317 238.159 63.3196 238.159C64.1075 238.159 64.7969 238.347 65.3878 238.722C65.9825 239.097 66.4446 239.623 66.7741 240.301C67.1075 240.979 67.2741 241.773 67.2741 242.682C67.2741 243.583 67.1075 244.371 66.7741 245.045C66.4446 245.72 65.9825 246.244 65.3878 246.619C64.7969 246.994 64.1075 247.182 63.3196 247.182ZM63.3196 245.977C63.9181 245.977 64.4105 245.824 64.7969 245.517C65.1832 245.21 65.4692 244.807 65.6548 244.307C65.8404 243.807 65.9332 243.265 65.9332 242.682C65.9332 242.098 65.8404 241.555 65.6548 241.051C65.4692 240.547 65.1832 240.14 64.7969 239.83C64.4105 239.519 63.9181 239.364 63.3196 239.364C62.7211 239.364 62.2287 239.519 61.8423 239.83C61.456 240.14 61.17 240.547 60.9844 241.051C60.7988 241.555 60.706 242.098 60.706 242.682C60.706 243.265 60.7988 243.807 60.9844 244.307C61.17 244.807 61.456 245.21 61.8423 245.517C62.2287 245.824 62.7211 245.977 63.3196 245.977ZM70.6619 241.75V247H69.321V238.273H70.6165V239.636H70.7301C70.9347 239.193 71.2453 238.837 71.6619 238.568C72.0786 238.295 72.6165 238.159 73.2756 238.159C73.8665 238.159 74.3835 238.28 74.8267 238.523C75.2699 238.761 75.6146 239.125 75.8608 239.614C76.107 240.098 76.2301 240.712 76.2301 241.455V247H74.8892V241.545C74.8892 240.86 74.7112 240.326 74.3551 239.943C73.9991 239.557 73.5104 239.364 72.8892 239.364C72.4612 239.364 72.0786 239.456 71.7415 239.642C71.4081 239.828 71.1449 240.098 70.9517 240.455C70.7585 240.811 70.6619 241.242 70.6619 241.75ZM87.2486 235.364V247H85.8395V236.841H85.7713L82.9304 238.727V237.295L85.8395 235.364H87.2486Z" fill="#1D2939"/>
<rect width="357" height="48" transform="translate(11 265)" fill="white"/>
<path d="M38.2273 289.182C38.2273 290.409 38.0057 291.47 37.5625 292.364C37.1193 293.258 36.5114 293.947 35.7386 294.432C34.9659 294.917 34.0833 295.159 33.0909 295.159C32.0985 295.159 31.2159 294.917 30.4432 294.432C29.6705 293.947 29.0625 293.258 28.6193 292.364C28.1761 291.47 27.9545 290.409 27.9545 289.182C27.9545 287.955 28.1761 286.894 28.6193 286C29.0625 285.106 29.6705 284.417 30.4432 283.932C31.2159 283.447 32.0985 283.205 33.0909 283.205C34.0833 283.205 34.9659 283.447 35.7386 283.932C36.5114 284.417 37.1193 285.106 37.5625 286C38.0057 286.894 38.2273 287.955 38.2273 289.182ZM36.8636 289.182C36.8636 288.174 36.6951 287.324 36.358 286.631C36.0246 285.938 35.572 285.413 35 285.057C34.4318 284.701 33.7955 284.523 33.0909 284.523C32.3864 284.523 31.7481 284.701 31.1761 285.057C30.608 285.413 30.1553 285.938 29.8182 286.631C29.4848 287.324 29.3182 288.174 29.3182 289.182C29.3182 290.189 29.4848 291.04 29.8182 291.733C30.1553 292.426 30.608 292.951 31.1761 293.307C31.7481 293.663 32.3864 293.841 33.0909 293.841C33.7955 293.841 34.4318 293.663 35 293.307C35.572 292.951 36.0246 292.426 36.358 291.733C36.6951 291.04 36.8636 290.189 36.8636 289.182ZM40.4148 298.273V286.273H41.7102V287.659H41.8693C41.9678 287.508 42.1042 287.314 42.2784 287.08C42.4564 286.841 42.7102 286.629 43.0398 286.443C43.3731 286.254 43.8239 286.159 44.392 286.159C45.1269 286.159 45.7746 286.343 46.3352 286.71C46.8958 287.078 47.3333 287.598 47.6477 288.273C47.9621 288.947 48.1193 289.742 48.1193 290.659C48.1193 291.583 47.9621 292.384 47.6477 293.062C47.3333 293.737 46.8977 294.259 46.3409 294.631C45.7841 294.998 45.142 295.182 44.4148 295.182C43.8542 295.182 43.4053 295.089 43.0682 294.903C42.7311 294.714 42.4716 294.5 42.2898 294.261C42.108 294.019 41.9678 293.818 41.8693 293.659H41.7557V298.273H40.4148ZM41.733 290.636C41.733 291.295 41.8295 291.877 42.0227 292.381C42.2159 292.881 42.4981 293.273 42.8693 293.557C43.2405 293.837 43.6951 293.977 44.233 293.977C44.7936 293.977 45.2614 293.83 45.6364 293.534C46.0152 293.235 46.2992 292.833 46.4886 292.33C46.6818 291.822 46.7784 291.258 46.7784 290.636C46.7784 290.023 46.6837 289.47 46.4943 288.977C46.3087 288.481 46.0265 288.089 45.6477 287.801C45.2727 287.509 44.8011 287.364 44.233 287.364C43.6875 287.364 43.2292 287.502 42.858 287.778C42.4867 288.051 42.2064 288.434 42.017 288.926C41.8277 289.415 41.733 289.985 41.733 290.636ZM53.9602 286.273V287.409H49.4375V286.273H53.9602ZM50.7557 284.182H52.0966V292.5C52.0966 292.879 52.1515 293.163 52.2614 293.352C52.375 293.538 52.5189 293.663 52.6932 293.727C52.8712 293.788 53.0587 293.818 53.2557 293.818C53.4034 293.818 53.5246 293.811 53.6193 293.795C53.714 293.777 53.7898 293.761 53.8466 293.75L54.1193 294.955C54.0284 294.989 53.9015 295.023 53.7386 295.057C53.5758 295.095 53.3693 295.114 53.1193 295.114C52.7405 295.114 52.3693 295.032 52.0057 294.869C51.6458 294.706 51.3466 294.458 51.108 294.125C50.8731 293.792 50.7557 293.371 50.7557 292.864V284.182ZM55.9773 295V286.273H57.3182V295H55.9773ZM56.6591 284.818C56.3977 284.818 56.1723 284.729 55.983 284.551C55.7973 284.373 55.7045 284.159 55.7045 283.909C55.7045 283.659 55.7973 283.445 55.983 283.267C56.1723 283.089 56.3977 283 56.6591 283C56.9205 283 57.1439 283.089 57.3295 283.267C57.5189 283.445 57.6136 283.659 57.6136 283.909C57.6136 284.159 57.5189 284.373 57.3295 284.551C57.1439 284.729 56.9205 284.818 56.6591 284.818ZM63.3196 295.182C62.5317 295.182 61.8404 294.994 61.2457 294.619C60.6548 294.244 60.1927 293.72 59.8594 293.045C59.5298 292.371 59.3651 291.583 59.3651 290.682C59.3651 289.773 59.5298 288.979 59.8594 288.301C60.1927 287.623 60.6548 287.097 61.2457 286.722C61.8404 286.347 62.5317 286.159 63.3196 286.159C64.1075 286.159 64.7969 286.347 65.3878 286.722C65.9825 287.097 66.4446 287.623 66.7741 288.301C67.1075 288.979 67.2741 289.773 67.2741 290.682C67.2741 291.583 67.1075 292.371 66.7741 293.045C66.4446 293.72 65.9825 294.244 65.3878 294.619C64.7969 294.994 64.1075 295.182 63.3196 295.182ZM63.3196 293.977C63.9181 293.977 64.4105 293.824 64.7969 293.517C65.1832 293.21 65.4692 292.807 65.6548 292.307C65.8404 291.807 65.9332 291.265 65.9332 290.682C65.9332 290.098 65.8404 289.555 65.6548 289.051C65.4692 288.547 65.1832 288.14 64.7969 287.83C64.4105 287.519 63.9181 287.364 63.3196 287.364C62.7211 287.364 62.2287 287.519 61.8423 287.83C61.456 288.14 61.17 288.547 60.9844 289.051C60.7988 289.555 60.706 290.098 60.706 290.682C60.706 291.265 60.7988 291.807 60.9844 292.307C61.17 292.807 61.456 293.21 61.8423 293.517C62.2287 293.824 62.7211 293.977 63.3196 293.977ZM70.6619 289.75V295H69.321V286.273H70.6165V287.636H70.7301C70.9347 287.193 71.2453 286.837 71.6619 286.568C72.0786 286.295 72.6165 286.159 73.2756 286.159C73.8665 286.159 74.3835 286.28 74.8267 286.523C75.2699 286.761 75.6146 287.125 75.8608 287.614C76.107 288.098 76.2301 288.712 76.2301 289.455V295H74.8892V289.545C74.8892 288.86 74.7112 288.326 74.3551 287.943C73.9991 287.557 73.5104 287.364 72.8892 287.364C72.4612 287.364 72.0786 287.456 71.7415 287.642C71.4081 287.828 71.1449 288.098 70.9517 288.455C70.7585 288.811 70.6619 289.242 70.6619 289.75ZM87.2486 283.364V295H85.8395V284.841H85.7713L82.9304 286.727V285.295L85.8395 283.364H87.2486Z" fill="#1D2939"/>
<rect x="10" y="64" width="16" height="48" fill="#E8178A" fill-opacity="0.24"/>
<rect x="10" y="120" width="16" height="194" fill="#E8178A" fill-opacity="0.24"/>
<rect x="10" y="64" width="359" height="8" fill="#E8178A" fill-opacity="0.24"/>
<rect x="10" y="121" width="359" height="8" fill="#E8178A" fill-opacity="0.24"/>
<rect x="10" y="169" width="359" height="8" fill="#E8178A" fill-opacity="0.24"/>
<rect x="10" y="104" width="359" height="8" fill="#E8178A" fill-opacity="0.24"/>
<rect x="10" y="161" width="359" height="8" fill="#E8178A" fill-opacity="0.24"/>
<rect x="10" y="209" width="359" height="8" fill="#E8178A" fill-opacity="0.24"/>
<rect x="10" y="305" width="359" height="8" fill="#E8178A" fill-opacity="0.24"/>
<rect x="353" y="64" width="16" height="48" fill="#E8178A" fill-opacity="0.24"/>
<rect x="353" y="120" width="16" height="194" fill="#E8178A" fill-opacity="0.24"/>
<path d="M10 321.5H26" stroke="#E8178A"/>
<rect y="326" width="36" height="18" rx="3" fill="#E8178A"/>
<path d="M9.75355 331.727V339H8.21591V333.187H8.1733L6.50781 334.231V332.867L8.30824 331.727H9.75355ZM14.2733 339.099C13.8992 339.097 13.5382 339.034 13.1902 338.911C12.8445 338.788 12.5344 338.588 12.2598 338.311C11.9851 338.034 11.7673 337.667 11.6064 337.21C11.4477 336.753 11.3684 336.192 11.3684 335.527C11.3708 334.916 11.4406 334.371 11.5779 333.89C11.7176 333.407 11.9165 332.997 12.1745 332.661C12.435 332.325 12.7463 332.069 13.1085 331.894C13.4707 331.717 13.8767 331.628 14.3265 331.628C14.8118 331.628 15.2404 331.723 15.612 331.912C15.9837 332.099 16.282 332.353 16.5069 332.675C16.7342 332.997 16.8715 333.358 16.9189 333.759H15.4025C15.3433 333.505 15.219 333.306 15.0297 333.162C14.8403 333.018 14.6059 332.945 14.3265 332.945C13.853 332.945 13.4932 333.151 13.247 333.563C13.0031 333.975 12.8788 334.535 12.8741 335.243H12.9238C13.0327 335.027 13.1795 334.844 13.3642 334.692C13.5512 334.539 13.7631 334.421 13.9998 334.341C14.2389 334.258 14.4911 334.217 14.7562 334.217C15.1871 334.217 15.5706 334.318 15.9068 334.522C16.243 334.723 16.5081 335 16.7022 335.353C16.8964 335.706 16.9934 336.109 16.9934 336.564C16.9934 337.056 16.8786 337.494 16.649 337.878C16.4217 338.261 16.1033 338.562 15.6937 338.78C15.2865 338.995 14.813 339.102 14.2733 339.099ZM14.2662 337.892C14.5029 337.892 14.7148 337.835 14.9018 337.722C15.0888 337.608 15.2356 337.454 15.3422 337.26C15.4487 337.066 15.502 336.848 15.502 336.607C15.502 336.365 15.4487 336.148 15.3422 335.957C15.238 335.765 15.0936 335.612 14.9089 335.499C14.7243 335.385 14.5136 335.328 14.2768 335.328C14.0993 335.328 13.9347 335.361 13.7832 335.428C13.6341 335.494 13.5027 335.586 13.389 335.705C13.2778 335.823 13.1902 335.96 13.1262 336.116C13.0623 336.27 13.0304 336.435 13.0304 336.61C13.0304 336.844 13.0836 337.059 13.1902 337.253C13.2991 337.447 13.4458 337.602 13.6305 337.718C13.8175 337.834 14.0294 337.892 14.2662 337.892ZM18.0978 341.045V333.545H19.5893V334.462H19.6568C19.7231 334.315 19.819 334.166 19.9444 334.014C20.0723 333.86 20.238 333.732 20.4416 333.631C20.6475 333.527 20.9032 333.474 21.2086 333.474C21.6064 333.474 21.9733 333.579 22.3095 333.787C22.6457 333.993 22.9144 334.304 23.1156 334.721C23.3168 335.135 23.4174 335.655 23.4174 336.28C23.4174 336.888 23.3192 337.402 23.1227 337.821C22.9286 338.238 22.6634 338.554 22.3272 338.769C21.9934 338.982 21.6194 339.089 21.2051 339.089C20.9115 339.089 20.6618 339.04 20.4558 338.943C20.2522 338.846 20.0853 338.724 19.9551 338.577C19.8249 338.428 19.7254 338.278 19.6568 338.126H19.6106V341.045H18.0978ZM19.5787 336.273C19.5787 336.597 19.6236 336.88 19.7136 337.121C19.8036 337.363 19.9338 337.551 20.1042 337.686C20.2747 337.819 20.4818 337.885 20.7257 337.885C20.9719 337.885 21.1802 337.817 21.3507 337.683C21.5211 337.545 21.6502 337.356 21.7377 337.114C21.8277 336.871 21.8727 336.59 21.8727 336.273C21.8727 335.958 21.8289 335.681 21.7413 335.442C21.6537 335.203 21.5247 335.016 21.3542 334.881C21.1838 334.746 20.9743 334.678 20.7257 334.678C20.4795 334.678 20.2711 334.743 20.1007 334.874C19.9326 335.004 19.8036 335.188 19.7136 335.428C19.6236 335.667 19.5787 335.948 19.5787 336.273ZM25.4949 333.545L26.4963 335.452L27.5225 333.545H29.0744L27.4941 336.273L29.117 339H27.5723L26.4963 337.114L25.438 339H23.8755L25.4949 336.273L23.9324 333.545H25.4949Z" fill="white"/>
<line x1="10.5" y1="325" x2="10.5" y2="318" stroke="#E8178A"/>
<line x1="25.5" y1="325" x2="25.5" y2="318" stroke="#E8178A"/>
<path d="M353 321.5H369" stroke="#E8178A"/>
<rect x="343" y="326" width="36" height="18" rx="3" fill="#E8178A"/>
<path d="M352.754 331.727V339H351.216V333.187H351.173L349.508 334.231V332.867L351.308 331.727H352.754ZM357.273 339.099C356.899 339.097 356.538 339.034 356.19 338.911C355.845 338.788 355.534 338.588 355.26 338.311C354.985 338.034 354.767 337.667 354.606 337.21C354.448 336.753 354.368 336.192 354.368 335.527C354.371 334.916 354.441 334.371 354.578 333.89C354.718 333.407 354.916 332.997 355.175 332.661C355.435 332.325 355.746 332.069 356.108 331.894C356.471 331.717 356.877 331.628 357.327 331.628C357.812 331.628 358.24 331.723 358.612 331.912C358.984 332.099 359.282 332.353 359.507 332.675C359.734 332.997 359.872 333.358 359.919 333.759H358.403C358.343 333.505 358.219 333.306 358.03 333.162C357.84 333.018 357.606 332.945 357.327 332.945C356.853 332.945 356.493 333.151 356.247 333.563C356.003 333.975 355.879 334.535 355.874 335.243H355.924C356.033 335.027 356.18 334.844 356.364 334.692C356.551 334.539 356.763 334.421 357 334.341C357.239 334.258 357.491 334.217 357.756 334.217C358.187 334.217 358.571 334.318 358.907 334.522C359.243 334.723 359.508 335 359.702 335.353C359.896 335.706 359.993 336.109 359.993 336.564C359.993 337.056 359.879 337.494 359.649 337.878C359.422 338.261 359.103 338.562 358.694 338.78C358.287 338.995 357.813 339.102 357.273 339.099ZM357.266 337.892C357.503 337.892 357.715 337.835 357.902 337.722C358.089 337.608 358.236 337.454 358.342 337.26C358.449 337.066 358.502 336.848 358.502 336.607C358.502 336.365 358.449 336.148 358.342 335.957C358.238 335.765 358.094 335.612 357.909 335.499C357.724 335.385 357.514 335.328 357.277 335.328C357.099 335.328 356.935 335.361 356.783 335.428C356.634 335.494 356.503 335.586 356.389 335.705C356.278 335.823 356.19 335.96 356.126 336.116C356.062 336.27 356.03 336.435 356.03 336.61C356.03 336.844 356.084 337.059 356.19 337.253C356.299 337.447 356.446 337.602 356.631 337.718C356.818 337.834 357.029 337.892 357.266 337.892ZM361.098 341.045V333.545H362.589V334.462H362.657C362.723 334.315 362.819 334.166 362.944 334.014C363.072 333.86 363.238 333.732 363.442 333.631C363.648 333.527 363.903 333.474 364.209 333.474C364.606 333.474 364.973 333.579 365.309 333.787C365.646 333.993 365.914 334.304 366.116 334.721C366.317 335.135 366.417 335.655 366.417 336.28C366.417 336.888 366.319 337.402 366.123 337.821C365.929 338.238 365.663 338.554 365.327 338.769C364.993 338.982 364.619 339.089 364.205 339.089C363.912 339.089 363.662 339.04 363.456 338.943C363.252 338.846 363.085 338.724 362.955 338.577C362.825 338.428 362.725 338.278 362.657 338.126H362.611V341.045H361.098ZM362.579 336.273C362.579 336.597 362.624 336.88 362.714 337.121C362.804 337.363 362.934 337.551 363.104 337.686C363.275 337.819 363.482 337.885 363.726 337.885C363.972 337.885 364.18 337.817 364.351 337.683C364.521 337.545 364.65 337.356 364.738 337.114C364.828 336.871 364.873 336.59 364.873 336.273C364.873 335.958 364.829 335.681 364.741 335.442C364.654 335.203 364.525 335.016 364.354 334.881C364.184 334.746 363.974 334.678 363.726 334.678C363.479 334.678 363.271 334.743 363.101 334.874C362.933 335.004 362.804 335.188 362.714 335.428C362.624 335.667 362.579 335.948 362.579 336.273ZM368.495 333.545L369.496 335.452L370.523 333.545H372.074L370.494 336.273L372.117 339H370.572L369.496 337.114L368.438 339H366.876L368.495 336.273L366.932 333.545H368.495Z" fill="white"/>
<line x1="353.5" y1="325" x2="353.5" y2="318" stroke="#E8178A"/>
<line x1="368.5" y1="325" x2="368.5" y2="318" stroke="#E8178A"/>
<path d="M385.5 64V72" stroke="#E8178A"/>
<rect x="390" y="60.5" width="31" height="18" rx="3" fill="#E8178A"/>
<path d="M399.303 73.5994C398.756 73.5994 398.269 73.5107 397.843 73.3331C397.419 73.1532 397.087 72.9081 396.845 72.598C396.604 72.2879 396.483 71.9363 396.483 71.5433C396.483 71.2403 396.552 70.9621 396.689 70.7088C396.829 70.4531 397.018 70.2412 397.257 70.0732C397.496 69.9027 397.764 69.7938 398.06 69.7464V69.6967C397.671 69.6186 397.357 69.4304 397.115 69.1321C396.874 68.8314 396.753 68.4822 396.753 68.0845C396.753 67.7081 396.863 67.3731 397.083 67.0795C397.303 66.7836 397.605 66.5516 397.989 66.3835C398.375 66.2131 398.812 66.1278 399.303 66.1278C399.793 66.1278 400.229 66.2131 400.613 66.3835C400.999 66.554 401.302 66.7872 401.522 67.0831C401.742 67.3767 401.853 67.7105 401.856 68.0845C401.853 68.4846 401.73 68.8338 401.487 69.1321C401.243 69.4304 400.93 69.6186 400.549 69.6967V69.7464C400.84 69.7938 401.104 69.9027 401.341 70.0732C401.58 70.2412 401.769 70.4531 401.909 70.7088C402.051 70.9621 402.123 71.2403 402.126 71.5433C402.123 71.9363 402.001 72.2879 401.76 72.598C401.518 72.9081 401.185 73.1532 400.759 73.3331C400.335 73.5107 399.849 73.5994 399.303 73.5994ZM399.303 72.4702C399.546 72.4702 399.759 72.4264 399.942 72.3388C400.124 72.2488 400.266 72.1257 400.368 71.9695C400.472 71.8108 400.524 71.6286 400.524 71.4226C400.524 71.2119 400.471 71.026 400.364 70.8651C400.258 70.7017 400.113 70.5739 399.931 70.4815C399.749 70.3868 399.539 70.3395 399.303 70.3395C399.068 70.3395 398.859 70.3868 398.674 70.4815C398.489 70.5739 398.344 70.7017 398.237 70.8651C398.133 71.026 398.081 71.2119 398.081 71.4226C398.081 71.6286 398.132 71.8108 398.234 71.9695C398.335 72.1257 398.479 72.2488 398.663 72.3388C398.848 72.4264 399.061 72.4702 399.303 72.4702ZM399.303 69.2209C399.506 69.2209 399.687 69.1795 399.846 69.0966C400.004 69.0137 400.129 68.8989 400.219 68.7521C400.309 68.6054 400.354 68.4361 400.354 68.2443C400.354 68.0549 400.309 67.8892 400.219 67.7472C400.129 67.6027 400.006 67.4903 399.849 67.4098C399.693 67.3269 399.511 67.2855 399.303 67.2855C399.097 67.2855 398.914 67.3269 398.756 67.4098C398.597 67.4903 398.473 67.6027 398.383 67.7472C398.295 67.8892 398.251 68.0549 398.251 68.2443C398.251 68.4361 398.296 68.6054 398.386 68.7521C398.476 68.8989 398.601 69.0137 398.759 69.0966C398.918 69.1795 399.099 69.2209 399.303 69.2209ZM403.215 75.5455V68.0455H404.706V68.9616H404.774C404.84 68.8149 404.936 68.6657 405.062 68.5142C405.189 68.3603 405.355 68.2325 405.559 68.1307C405.765 68.0265 406.02 67.9744 406.326 67.9744C406.724 67.9744 407.09 68.0786 407.427 68.2869C407.763 68.4929 408.032 68.8042 408.233 69.2209C408.434 69.6352 408.535 70.1548 408.535 70.7798C408.535 71.3883 408.436 71.902 408.24 72.321C408.046 72.7377 407.781 73.0537 407.444 73.2692C407.111 73.4822 406.737 73.5888 406.322 73.5888C406.029 73.5888 405.779 73.5402 405.573 73.4432C405.369 73.3461 405.202 73.2242 405.072 73.0774C404.942 72.9283 404.843 72.7779 404.774 72.6264H404.728V75.5455H403.215ZM404.696 70.7727C404.696 71.0971 404.741 71.38 404.831 71.6214C404.921 71.8629 405.051 72.0511 405.221 72.1861C405.392 72.3187 405.599 72.3849 405.843 72.3849C406.089 72.3849 406.297 72.3175 406.468 72.1825C406.638 72.0452 406.767 71.8558 406.855 71.6143C406.945 71.3705 406.99 71.09 406.99 70.7727C406.99 70.4579 406.946 70.1809 406.858 69.9418C406.771 69.7027 406.642 69.5156 406.471 69.3807C406.301 69.2457 406.091 69.1783 405.843 69.1783C405.597 69.1783 405.388 69.2434 405.218 69.3736C405.05 69.5038 404.921 69.6884 404.831 69.9276C404.741 70.1667 404.696 70.4484 404.696 70.7727ZM410.612 68.0455L411.613 69.9524L412.64 68.0455H414.192L412.611 70.7727L414.234 73.5H412.689L411.613 71.6143L410.555 73.5H408.993L410.612 70.7727L409.05 68.0455H410.612Z" fill="white"/>
<line x1="382" y1="64.5" x2="389" y2="64.5" stroke="#E8178A"/>
<line x1="382" y1="71.5" x2="389" y2="71.5" stroke="#E8178A"/>
<path d="M385.5 104V112" stroke="#E8178A"/>
<rect x="390" y="100.5" width="31" height="18" rx="3" fill="#E8178A"/>
<path d="M399.303 113.599C398.756 113.599 398.269 113.511 397.843 113.333C397.419 113.153 397.087 112.908 396.845 112.598C396.604 112.288 396.483 111.936 396.483 111.543C396.483 111.24 396.552 110.962 396.689 110.709C396.829 110.453 397.018 110.241 397.257 110.073C397.496 109.903 397.764 109.794 398.06 109.746V109.697C397.671 109.619 397.357 109.43 397.115 109.132C396.874 108.831 396.753 108.482 396.753 108.085C396.753 107.708 396.863 107.373 397.083 107.08C397.303 106.784 397.605 106.552 397.989 106.384C398.375 106.213 398.812 106.128 399.303 106.128C399.793 106.128 400.229 106.213 400.613 106.384C400.999 106.554 401.302 106.787 401.522 107.083C401.742 107.377 401.853 107.71 401.856 108.085C401.853 108.485 401.73 108.834 401.487 109.132C401.243 109.43 400.93 109.619 400.549 109.697V109.746C400.84 109.794 401.104 109.903 401.341 110.073C401.58 110.241 401.769 110.453 401.909 110.709C402.051 110.962 402.123 111.24 402.126 111.543C402.123 111.936 402.001 112.288 401.76 112.598C401.518 112.908 401.185 113.153 400.759 113.333C400.335 113.511 399.849 113.599 399.303 113.599ZM399.303 112.47C399.546 112.47 399.759 112.426 399.942 112.339C400.124 112.249 400.266 112.126 400.368 111.969C400.472 111.811 400.524 111.629 400.524 111.423C400.524 111.212 400.471 111.026 400.364 110.865C400.258 110.702 400.113 110.574 399.931 110.482C399.749 110.387 399.539 110.339 399.303 110.339C399.068 110.339 398.859 110.387 398.674 110.482C398.489 110.574 398.344 110.702 398.237 110.865C398.133 111.026 398.081 111.212 398.081 111.423C398.081 111.629 398.132 111.811 398.234 111.969C398.335 112.126 398.479 112.249 398.663 112.339C398.848 112.426 399.061 112.47 399.303 112.47ZM399.303 109.221C399.506 109.221 399.687 109.179 399.846 109.097C400.004 109.014 400.129 108.899 400.219 108.752C400.309 108.605 400.354 108.436 400.354 108.244C400.354 108.055 400.309 107.889 400.219 107.747C400.129 107.603 400.006 107.49 399.849 107.41C399.693 107.327 399.511 107.286 399.303 107.286C399.097 107.286 398.914 107.327 398.756 107.41C398.597 107.49 398.473 107.603 398.383 107.747C398.295 107.889 398.251 108.055 398.251 108.244C398.251 108.436 398.296 108.605 398.386 108.752C398.476 108.899 398.601 109.014 398.759 109.097C398.918 109.179 399.099 109.221 399.303 109.221ZM403.215 115.545V108.045H404.706V108.962H404.774C404.84 108.815 404.936 108.666 405.062 108.514C405.189 108.36 405.355 108.232 405.559 108.131C405.765 108.027 406.02 107.974 406.326 107.974C406.724 107.974 407.09 108.079 407.427 108.287C407.763 108.493 408.032 108.804 408.233 109.221C408.434 109.635 408.535 110.155 408.535 110.78C408.535 111.388 408.436 111.902 408.24 112.321C408.046 112.738 407.781 113.054 407.444 113.269C407.111 113.482 406.737 113.589 406.322 113.589C406.029 113.589 405.779 113.54 405.573 113.443C405.369 113.346 405.202 113.224 405.072 113.077C404.942 112.928 404.843 112.778 404.774 112.626H404.728V115.545H403.215ZM404.696 110.773C404.696 111.097 404.741 111.38 404.831 111.621C404.921 111.863 405.051 112.051 405.221 112.186C405.392 112.319 405.599 112.385 405.843 112.385C406.089 112.385 406.297 112.317 406.468 112.183C406.638 112.045 406.767 111.856 406.855 111.614C406.945 111.371 406.99 111.09 406.99 110.773C406.99 110.458 406.946 110.181 406.858 109.942C406.771 109.703 406.642 109.516 406.471 109.381C406.301 109.246 406.091 109.178 405.843 109.178C405.597 109.178 405.388 109.243 405.218 109.374C405.05 109.504 404.921 109.688 404.831 109.928C404.741 110.167 404.696 110.448 404.696 110.773ZM410.612 108.045L411.613 109.952L412.64 108.045H414.192L412.611 110.773L414.234 113.5H412.689L411.613 111.614L410.555 113.5H408.993L410.612 110.773L409.05 108.045H410.612Z" fill="white"/>
<line x1="382" y1="104.5" x2="389" y2="104.5" stroke="#E8178A"/>
<line x1="382" y1="111.5" x2="389" y2="111.5" stroke="#E8178A"/>
<path d="M385.5 169.5V177.5" stroke="#E8178A"/>
<rect x="390" y="166" width="31" height="18" rx="3" fill="#E8178A"/>
<path d="M399.303 179.099C398.756 179.099 398.269 179.011 397.843 178.833C397.419 178.653 397.087 178.408 396.845 178.098C396.604 177.788 396.483 177.436 396.483 177.043C396.483 176.74 396.552 176.462 396.689 176.209C396.829 175.953 397.018 175.741 397.257 175.573C397.496 175.403 397.764 175.294 398.06 175.246V175.197C397.671 175.119 397.357 174.93 397.115 174.632C396.874 174.331 396.753 173.982 396.753 173.585C396.753 173.208 396.863 172.873 397.083 172.58C397.303 172.284 397.605 172.052 397.989 171.884C398.375 171.713 398.812 171.628 399.303 171.628C399.793 171.628 400.229 171.713 400.613 171.884C400.999 172.054 401.302 172.287 401.522 172.583C401.742 172.877 401.853 173.21 401.856 173.585C401.853 173.985 401.73 174.334 401.487 174.632C401.243 174.93 400.93 175.119 400.549 175.197V175.246C400.84 175.294 401.104 175.403 401.341 175.573C401.58 175.741 401.769 175.953 401.909 176.209C402.051 176.462 402.123 176.74 402.126 177.043C402.123 177.436 402.001 177.788 401.76 178.098C401.518 178.408 401.185 178.653 400.759 178.833C400.335 179.011 399.849 179.099 399.303 179.099ZM399.303 177.97C399.546 177.97 399.759 177.926 399.942 177.839C400.124 177.749 400.266 177.626 400.368 177.469C400.472 177.311 400.524 177.129 400.524 176.923C400.524 176.712 400.471 176.526 400.364 176.365C400.258 176.202 400.113 176.074 399.931 175.982C399.749 175.887 399.539 175.839 399.303 175.839C399.068 175.839 398.859 175.887 398.674 175.982C398.489 176.074 398.344 176.202 398.237 176.365C398.133 176.526 398.081 176.712 398.081 176.923C398.081 177.129 398.132 177.311 398.234 177.469C398.335 177.626 398.479 177.749 398.663 177.839C398.848 177.926 399.061 177.97 399.303 177.97ZM399.303 174.721C399.506 174.721 399.687 174.679 399.846 174.597C400.004 174.514 400.129 174.399 400.219 174.252C400.309 174.105 400.354 173.936 400.354 173.744C400.354 173.555 400.309 173.389 400.219 173.247C400.129 173.103 400.006 172.99 399.849 172.91C399.693 172.827 399.511 172.786 399.303 172.786C399.097 172.786 398.914 172.827 398.756 172.91C398.597 172.99 398.473 173.103 398.383 173.247C398.295 173.389 398.251 173.555 398.251 173.744C398.251 173.936 398.296 174.105 398.386 174.252C398.476 174.399 398.601 174.514 398.759 174.597C398.918 174.679 399.099 174.721 399.303 174.721ZM403.215 181.045V173.545H404.706V174.462H404.774C404.84 174.315 404.936 174.166 405.062 174.014C405.189 173.86 405.355 173.732 405.559 173.631C405.765 173.527 406.02 173.474 406.326 173.474C406.724 173.474 407.09 173.579 407.427 173.787C407.763 173.993 408.032 174.304 408.233 174.721C408.434 175.135 408.535 175.655 408.535 176.28C408.535 176.888 408.436 177.402 408.24 177.821C408.046 178.238 407.781 178.554 407.444 178.769C407.111 178.982 406.737 179.089 406.322 179.089C406.029 179.089 405.779 179.04 405.573 178.943C405.369 178.846 405.202 178.724 405.072 178.577C404.942 178.428 404.843 178.278 404.774 178.126H404.728V181.045H403.215ZM404.696 176.273C404.696 176.597 404.741 176.88 404.831 177.121C404.921 177.363 405.051 177.551 405.221 177.686C405.392 177.819 405.599 177.885 405.843 177.885C406.089 177.885 406.297 177.817 406.468 177.683C406.638 177.545 406.767 177.356 406.855 177.114C406.945 176.871 406.99 176.59 406.99 176.273C406.99 175.958 406.946 175.681 406.858 175.442C406.771 175.203 406.642 175.016 406.471 174.881C406.301 174.746 406.091 174.678 405.843 174.678C405.597 174.678 405.388 174.743 405.218 174.874C405.05 175.004 404.921 175.188 404.831 175.428C404.741 175.667 404.696 175.948 404.696 176.273ZM410.612 173.545L411.613 175.452L412.64 173.545H414.192L412.611 176.273L414.234 179H412.689L411.613 177.114L410.555 179H408.993L410.612 176.273L409.05 173.545H410.612Z" fill="white"/>
<line x1="382" y1="170" x2="389" y2="170" stroke="#E8178A"/>
<line x1="382" y1="177" x2="389" y2="177" stroke="#E8178A"/>
<path d="M385.5 209.5V217.5" stroke="#E8178A"/>
<rect x="390" y="206" width="31" height="18" rx="3" fill="#E8178A"/>
<path d="M399.303 219.099C398.756 219.099 398.269 219.011 397.843 218.833C397.419 218.653 397.087 218.408 396.845 218.098C396.604 217.788 396.483 217.436 396.483 217.043C396.483 216.74 396.552 216.462 396.689 216.209C396.829 215.953 397.018 215.741 397.257 215.573C397.496 215.403 397.764 215.294 398.06 215.246V215.197C397.671 215.119 397.357 214.93 397.115 214.632C396.874 214.331 396.753 213.982 396.753 213.585C396.753 213.208 396.863 212.873 397.083 212.58C397.303 212.284 397.605 212.052 397.989 211.884C398.375 211.713 398.812 211.628 399.303 211.628C399.793 211.628 400.229 211.713 400.613 211.884C400.999 212.054 401.302 212.287 401.522 212.583C401.742 212.877 401.853 213.21 401.856 213.585C401.853 213.985 401.73 214.334 401.487 214.632C401.243 214.93 400.93 215.119 400.549 215.197V215.246C400.84 215.294 401.104 215.403 401.341 215.573C401.58 215.741 401.769 215.953 401.909 216.209C402.051 216.462 402.123 216.74 402.126 217.043C402.123 217.436 402.001 217.788 401.76 218.098C401.518 218.408 401.185 218.653 400.759 218.833C400.335 219.011 399.849 219.099 399.303 219.099ZM399.303 217.97C399.546 217.97 399.759 217.926 399.942 217.839C400.124 217.749 400.266 217.626 400.368 217.469C400.472 217.311 400.524 217.129 400.524 216.923C400.524 216.712 400.471 216.526 400.364 216.365C400.258 216.202 400.113 216.074 399.931 215.982C399.749 215.887 399.539 215.839 399.303 215.839C399.068 215.839 398.859 215.887 398.674 215.982C398.489 216.074 398.344 216.202 398.237 216.365C398.133 216.526 398.081 216.712 398.081 216.923C398.081 217.129 398.132 217.311 398.234 217.469C398.335 217.626 398.479 217.749 398.663 217.839C398.848 217.926 399.061 217.97 399.303 217.97ZM399.303 214.721C399.506 214.721 399.687 214.679 399.846 214.597C400.004 214.514 400.129 214.399 400.219 214.252C400.309 214.105 400.354 213.936 400.354 213.744C400.354 213.555 400.309 213.389 400.219 213.247C400.129 213.103 400.006 212.99 399.849 212.91C399.693 212.827 399.511 212.786 399.303 212.786C399.097 212.786 398.914 212.827 398.756 212.91C398.597 212.99 398.473 213.103 398.383 213.247C398.295 213.389 398.251 213.555 398.251 213.744C398.251 213.936 398.296 214.105 398.386 214.252C398.476 214.399 398.601 214.514 398.759 214.597C398.918 214.679 399.099 214.721 399.303 214.721ZM403.215 221.045V213.545H404.706V214.462H404.774C404.84 214.315 404.936 214.166 405.062 214.014C405.189 213.86 405.355 213.732 405.559 213.631C405.765 213.527 406.02 213.474 406.326 213.474C406.724 213.474 407.09 213.579 407.427 213.787C407.763 213.993 408.032 214.304 408.233 214.721C408.434 215.135 408.535 215.655 408.535 216.28C408.535 216.888 408.436 217.402 408.24 217.821C408.046 218.238 407.781 218.554 407.444 218.769C407.111 218.982 406.737 219.089 406.322 219.089C406.029 219.089 405.779 219.04 405.573 218.943C405.369 218.846 405.202 218.724 405.072 218.577C404.942 218.428 404.843 218.278 404.774 218.126H404.728V221.045H403.215ZM404.696 216.273C404.696 216.597 404.741 216.88 404.831 217.121C404.921 217.363 405.051 217.551 405.221 217.686C405.392 217.819 405.599 217.885 405.843 217.885C406.089 217.885 406.297 217.817 406.468 217.683C406.638 217.545 406.767 217.356 406.855 217.114C406.945 216.871 406.99 216.59 406.99 216.273C406.99 215.958 406.946 215.681 406.858 215.442C406.771 215.203 406.642 215.016 406.471 214.881C406.301 214.746 406.091 214.678 405.843 214.678C405.597 214.678 405.388 214.743 405.218 214.874C405.05 215.004 404.921 215.188 404.831 215.428C404.741 215.667 404.696 215.948 404.696 216.273ZM410.612 213.545L411.613 215.452L412.64 213.545H414.192L412.611 216.273L414.234 219H412.689L411.613 217.114L410.555 219H408.993L410.612 216.273L409.05 213.545H410.612Z" fill="white"/>
<line x1="382" y1="210" x2="389" y2="210" stroke="#E8178A"/>
<line x1="382" y1="217" x2="389" y2="217" stroke="#E8178A"/>
</svg>
