<svg width="425" height="258" viewBox="0 0 425 258" fill="none" xmlns="http://www.w3.org/2000/svg">
<g filter="url(#filter0_d_5019_1627)">
<path d="M32 41H383C385.209 41 387 42.7909 387 45V189C387 191.209 385.209 193 383 193H32V41Z" fill="white"/>
<path d="M32.5 41.5H383C384.933 41.5 386.5 43.067 386.5 45V189C386.5 190.933 384.933 192.5 383 192.5H32.5V41.5Z" stroke="#58BE62"/>
<rect x="32" y="41" width="6" height="152" fill="#0A8217"/>
<path d="M66 76.875C63.9114 76.875 61.9084 76.0453 60.4315 74.5685C58.9547 73.0916 58.125 71.0886 58.125 69C58.125 66.9114 58.9547 64.9084 60.4315 63.4315C61.9084 61.9547 63.9114 61.125 66 61.125C68.0886 61.125 70.0916 61.9547 71.5685 63.4315C73.0453 64.9084 73.875 66.9114 73.875 69C73.875 71.0886 73.0453 73.0916 71.5685 74.5685C70.0916 76.0453 68.0886 76.875 66 76.875ZM66 78C68.3869 78 70.6761 77.0518 72.364 75.364C74.0518 73.6761 75 71.3869 75 69C75 66.6131 74.0518 64.3239 72.364 62.636C70.6761 60.9482 68.3869 60 66 60C63.6131 60 61.3239 60.9482 59.636 62.636C57.9482 64.3239 57 66.6131 57 69C57 71.3869 57.9482 73.6761 59.636 75.364C61.3239 77.0518 63.6131 78 66 78Z" fill="#0A8217"/>
<path d="M69.3412 65.5913C69.3332 65.599 69.3257 65.6073 69.3187 65.616L65.4116 70.5941L63.057 68.2384C62.897 68.0893 62.6855 68.0082 62.4669 68.0121C62.2483 68.0159 62.0398 68.1045 61.8852 68.2591C61.7306 68.4137 61.642 68.6222 61.6382 68.8408C61.6343 69.0594 61.7154 69.2709 61.8645 69.4309L64.8412 72.4088C64.9214 72.4888 65.0169 72.5519 65.122 72.5942C65.2271 72.6366 65.3397 72.6573 65.453 72.6552C65.5662 72.6531 65.6779 72.6282 65.7814 72.582C65.8849 72.5358 65.9779 72.4692 66.0551 72.3863L70.5461 66.7725C70.699 66.612 70.7826 66.3978 70.7789 66.1761C70.7751 65.9545 70.6842 65.7432 70.5259 65.588C70.3676 65.4328 70.1546 65.3461 69.9329 65.3467C69.7112 65.3474 69.4987 65.4352 69.3412 65.5913Z" fill="#0A8217"/>
<path d="M93.3239 66.7102C93.2784 66.2519 93.0833 65.8958 92.7386 65.642C92.3939 65.3883 91.9261 65.2614 91.3352 65.2614C90.9337 65.2614 90.5947 65.3182 90.3182 65.4318C90.0417 65.5417 89.8295 65.6951 89.6818 65.892C89.5379 66.089 89.4659 66.3125 89.4659 66.5625C89.4583 66.7708 89.5019 66.9527 89.5966 67.108C89.6951 67.2633 89.8295 67.3977 90 67.5114C90.1705 67.6212 90.3674 67.7178 90.5909 67.8011C90.8144 67.8807 91.053 67.9489 91.3068 68.0057L92.3523 68.2557C92.8598 68.3693 93.3258 68.5208 93.75 68.7102C94.1742 68.8996 94.5417 69.1326 94.8523 69.4091C95.1629 69.6856 95.4034 70.0114 95.5739 70.3864C95.7481 70.7614 95.8371 71.1913 95.8409 71.6761C95.8371 72.3883 95.6553 73.0057 95.2955 73.5284C94.9394 74.0473 94.4242 74.4508 93.75 74.7386C93.0795 75.0227 92.2708 75.1648 91.3239 75.1648C90.3845 75.1648 89.5663 75.0208 88.8693 74.733C88.1761 74.4451 87.6345 74.0189 87.2443 73.4545C86.858 72.8864 86.6553 72.1837 86.6364 71.3466H89.017C89.0436 71.7367 89.1553 72.0625 89.3523 72.3239C89.553 72.5814 89.8201 72.7765 90.1534 72.9091C90.4905 73.0379 90.8712 73.1023 91.2955 73.1023C91.7121 73.1023 92.0739 73.0417 92.3807 72.9205C92.6913 72.7992 92.9318 72.6307 93.1023 72.4148C93.2727 72.1989 93.358 71.9508 93.358 71.6705C93.358 71.4091 93.2803 71.1894 93.125 71.0114C92.9735 70.8333 92.75 70.6818 92.4545 70.5568C92.1629 70.4318 91.8049 70.3182 91.3807 70.2159L90.1136 69.8977C89.1326 69.6591 88.358 69.286 87.7898 68.7784C87.2216 68.2708 86.9394 67.5871 86.9432 66.7273C86.9394 66.0227 87.1269 65.4072 87.5057 64.8807C87.8883 64.3542 88.4129 63.9432 89.0795 63.6477C89.7462 63.3523 90.5038 63.2045 91.3523 63.2045C92.2159 63.2045 92.9697 63.3523 93.6136 63.6477C94.2614 63.9432 94.7652 64.3542 95.125 64.8807C95.4848 65.4072 95.6705 66.017 95.6818 66.7102H93.3239ZM103.047 71.2841V66.2727H105.467V75H103.143V73.4148H103.053C102.856 73.9261 102.528 74.3371 102.07 74.6477C101.615 74.9583 101.06 75.1136 100.405 75.1136C99.8215 75.1136 99.3082 74.9811 98.8651 74.7159C98.4219 74.4508 98.0753 74.0739 97.8253 73.5852C97.5791 73.0966 97.4541 72.5114 97.4503 71.8295V66.2727H99.8707V71.3977C99.8745 71.9129 100.013 72.3201 100.286 72.6193C100.558 72.9186 100.924 73.0682 101.382 73.0682C101.674 73.0682 101.946 73.0019 102.2 72.8693C102.454 72.733 102.659 72.5322 102.814 72.267C102.973 72.0019 103.051 71.6742 103.047 71.2841ZM111.347 75.1705C110.453 75.1705 109.684 74.9811 109.04 74.6023C108.4 74.2197 107.907 73.6894 107.562 73.0114C107.222 72.3333 107.051 71.553 107.051 70.6705C107.051 69.7765 107.223 68.9924 107.568 68.3182C107.917 67.6402 108.411 67.1117 109.051 66.733C109.691 66.3504 110.453 66.1591 111.335 66.1591C112.097 66.1591 112.763 66.2973 113.335 66.5739C113.907 66.8504 114.36 67.2386 114.693 67.7386C115.027 68.2386 115.21 68.8258 115.244 69.5H112.96C112.896 69.0644 112.725 68.714 112.449 68.4489C112.176 68.1799 111.818 68.0455 111.375 68.0455C111 68.0455 110.672 68.1477 110.392 68.3523C110.116 68.553 109.9 68.8466 109.744 69.233C109.589 69.6193 109.511 70.0871 109.511 70.6364C109.511 71.1932 109.587 71.6667 109.739 72.0568C109.894 72.447 110.112 72.7443 110.392 72.9489C110.672 73.1534 111 73.2557 111.375 73.2557C111.652 73.2557 111.9 73.1989 112.119 73.0852C112.343 72.9716 112.527 72.8068 112.67 72.5909C112.818 72.3712 112.915 72.108 112.96 71.8011H115.244C115.206 72.4678 115.025 73.0549 114.699 73.5625C114.377 74.0663 113.932 74.4602 113.364 74.7443C112.795 75.0284 112.123 75.1705 111.347 75.1705ZM120.737 75.1705C119.843 75.1705 119.074 74.9811 118.43 74.6023C117.79 74.2197 117.298 73.6894 116.953 73.0114C116.612 72.3333 116.442 71.553 116.442 70.6705C116.442 69.7765 116.614 68.9924 116.959 68.3182C117.307 67.6402 117.802 67.1117 118.442 66.733C119.082 66.3504 119.843 66.1591 120.726 66.1591C121.487 66.1591 122.154 66.2973 122.726 66.5739C123.298 66.8504 123.75 67.2386 124.084 67.7386C124.417 68.2386 124.601 68.8258 124.635 69.5H122.351C122.286 69.0644 122.116 68.714 121.839 68.4489C121.567 68.1799 121.209 68.0455 120.766 68.0455C120.391 68.0455 120.063 68.1477 119.783 68.3523C119.506 68.553 119.29 68.8466 119.135 69.233C118.98 69.6193 118.902 70.0871 118.902 70.6364C118.902 71.1932 118.978 71.6667 119.129 72.0568C119.285 72.447 119.502 72.7443 119.783 72.9489C120.063 73.1534 120.391 73.2557 120.766 73.2557C121.042 73.2557 121.29 73.1989 121.51 73.0852C121.733 72.9716 121.917 72.8068 122.061 72.5909C122.209 72.3712 122.305 72.108 122.351 71.8011H124.635C124.597 72.4678 124.415 73.0549 124.089 73.5625C123.768 74.0663 123.322 74.4602 122.754 74.7443C122.186 75.0284 121.514 75.1705 120.737 75.1705ZM130.162 75.1705C129.264 75.1705 128.491 74.9886 127.844 74.625C127.2 74.2576 126.704 73.7386 126.355 73.0682C126.007 72.3939 125.832 71.5966 125.832 70.6761C125.832 69.7784 126.007 68.9905 126.355 68.3125C126.704 67.6345 127.194 67.1061 127.827 66.7273C128.463 66.3485 129.209 66.1591 130.065 66.1591C130.641 66.1591 131.177 66.2519 131.673 66.4375C132.173 66.6193 132.609 66.8939 132.98 67.2614C133.355 67.6288 133.647 68.0909 133.855 68.6477C134.063 69.2008 134.168 69.8485 134.168 70.5909V71.2557H126.798V69.7557H131.889C131.889 69.4072 131.813 69.0985 131.662 68.8295C131.51 68.5606 131.3 68.3504 131.031 68.1989C130.766 68.0436 130.457 67.9659 130.105 67.9659C129.738 67.9659 129.412 68.0511 129.128 68.2216C128.848 68.3883 128.628 68.6136 128.469 68.8977C128.31 69.178 128.228 69.4905 128.224 69.8352V71.2614C128.224 71.6932 128.304 72.0663 128.463 72.3807C128.626 72.6951 128.855 72.9375 129.151 73.108C129.446 73.2784 129.796 73.3636 130.202 73.3636C130.471 73.3636 130.717 73.3258 130.94 73.25C131.164 73.1742 131.355 73.0606 131.514 72.9091C131.673 72.7576 131.795 72.572 131.878 72.3523L134.116 72.5C134.003 73.0379 133.77 73.5076 133.418 73.9091C133.069 74.3068 132.618 74.6174 132.065 74.8409C131.516 75.0606 130.882 75.1705 130.162 75.1705ZM143.009 68.7614L140.793 68.8977C140.755 68.7083 140.673 68.5379 140.548 68.3864C140.423 68.2311 140.259 68.108 140.054 68.017C139.853 67.9223 139.613 67.875 139.332 67.875C138.957 67.875 138.641 67.9545 138.384 68.1136C138.126 68.2689 137.997 68.4773 137.997 68.7386C137.997 68.947 138.08 69.1231 138.247 69.267C138.414 69.411 138.7 69.5265 139.105 69.6136L140.685 69.9318C141.533 70.1061 142.166 70.3864 142.582 70.7727C142.999 71.1591 143.207 71.6667 143.207 72.2955C143.207 72.8674 143.039 73.3693 142.702 73.8011C142.368 74.233 141.91 74.5701 141.327 74.8125C140.747 75.0511 140.079 75.1705 139.321 75.1705C138.166 75.1705 137.245 74.9299 136.56 74.4489C135.878 73.964 135.478 73.3049 135.361 72.4716L137.741 72.3466C137.813 72.6989 137.988 72.9678 138.264 73.1534C138.541 73.3352 138.895 73.4261 139.327 73.4261C139.751 73.4261 140.092 73.3447 140.349 73.1818C140.611 73.0152 140.743 72.8011 140.747 72.5398C140.743 72.3201 140.651 72.1402 140.469 72C140.287 71.8561 140.007 71.7462 139.628 71.6705L138.116 71.3693C137.264 71.1989 136.63 70.9034 136.213 70.483C135.8 70.0625 135.594 69.5265 135.594 68.875C135.594 68.3144 135.745 67.8314 136.048 67.4261C136.355 67.0208 136.785 66.7083 137.338 66.4886C137.895 66.2689 138.546 66.1591 139.293 66.1591C140.395 66.1591 141.262 66.392 141.895 66.858C142.531 67.3239 142.902 67.9583 143.009 68.7614ZM151.993 68.7614L149.777 68.8977C149.739 68.7083 149.658 68.5379 149.533 68.3864C149.408 68.2311 149.243 68.108 149.038 68.017C148.838 67.9223 148.597 67.875 148.317 67.875C147.942 67.875 147.625 67.9545 147.368 68.1136C147.11 68.2689 146.982 68.4773 146.982 68.7386C146.982 68.947 147.065 69.1231 147.232 69.267C147.398 69.411 147.684 69.5265 148.089 69.6136L149.669 69.9318C150.518 70.1061 151.15 70.3864 151.567 70.7727C151.983 71.1591 152.192 71.6667 152.192 72.2955C152.192 72.8674 152.023 73.3693 151.686 73.8011C151.353 74.233 150.894 74.5701 150.311 74.8125C149.732 75.0511 149.063 75.1705 148.305 75.1705C147.15 75.1705 146.23 74.9299 145.544 74.4489C144.862 73.964 144.463 73.3049 144.345 72.4716L146.726 72.3466C146.798 72.6989 146.972 72.9678 147.249 73.1534C147.525 73.3352 147.879 73.4261 148.311 73.4261C148.735 73.4261 149.076 73.3447 149.334 73.1818C149.595 73.0152 149.728 72.8011 149.732 72.5398C149.728 72.3201 149.635 72.1402 149.453 72C149.271 71.8561 148.991 71.7462 148.612 71.6705L147.101 71.3693C146.249 71.1989 145.614 70.9034 145.197 70.483C144.785 70.0625 144.578 69.5265 144.578 68.875C144.578 68.3144 144.73 67.8314 145.033 67.4261C145.339 67.0208 145.769 66.7083 146.322 66.4886C146.879 66.2689 147.531 66.1591 148.277 66.1591C149.379 66.1591 150.247 66.392 150.879 66.858C151.516 67.3239 151.887 67.9583 151.993 68.7614Z" fill="#0A8217"/>
<path fill-rule="evenodd" clip-rule="evenodd" d="M352.614 62.6139C352.755 62.4732 352.945 62.3942 353.144 62.3942C353.343 62.3942 353.534 62.4732 353.675 62.6139L358.978 67.9172L364.281 62.6139C364.422 62.4732 364.613 62.3942 364.812 62.3942C365.01 62.3942 365.201 62.4732 365.342 62.6139C365.483 62.7545 365.562 62.9453 365.562 63.1442C365.562 63.3431 365.483 63.5339 365.342 63.6745L360.039 68.9778L365.342 74.2811C365.483 74.4218 365.562 74.6126 365.562 74.8115C365.562 75.0104 365.483 75.2012 365.342 75.3418C365.201 75.4825 365.01 75.5615 364.812 75.5615C364.613 75.5615 364.422 75.4825 364.281 75.3418L358.978 70.0385L353.675 75.3418C353.534 75.4825 353.343 75.5615 353.144 75.5615C352.945 75.5615 352.755 75.4825 352.614 75.3418C352.473 75.2012 352.394 75.0104 352.394 74.8115C352.394 74.6126 352.473 74.4218 352.614 74.2811L357.917 68.9778L352.614 63.6745C352.473 63.5339 352.394 63.3431 352.394 63.1442C352.394 62.9453 352.473 62.7545 352.614 62.6139Z" fill="#667085"/>
<path d="M54.7727 100.614V99.3636H63.5V100.614H59.8409V111H58.4318V100.614H54.7727ZM66.8338 105.75V111H65.4929V99.3636H66.8338V103.636H66.9474C67.152 103.186 67.4588 102.828 67.8679 102.562C68.2808 102.294 68.83 102.159 69.5156 102.159C70.1103 102.159 70.6312 102.278 71.0781 102.517C71.5251 102.752 71.8717 103.114 72.1179 103.602C72.3679 104.087 72.4929 104.705 72.4929 105.455V111H71.152V105.545C71.152 104.852 70.9721 104.316 70.6122 103.938C70.2562 103.555 69.7618 103.364 69.1293 103.364C68.6899 103.364 68.2959 103.456 67.9474 103.642C67.6027 103.828 67.33 104.098 67.1293 104.455C66.9323 104.811 66.8338 105.242 66.8338 105.75ZM74.946 111V102.273H76.2869V111H74.946ZM75.6278 100.818C75.3665 100.818 75.1411 100.729 74.9517 100.551C74.7661 100.373 74.6733 100.159 74.6733 99.9091C74.6733 99.6591 74.7661 99.4451 74.9517 99.267C75.1411 99.089 75.3665 99 75.6278 99C75.8892 99 76.1127 99.089 76.2983 99.267C76.4877 99.4451 76.5824 99.6591 76.5824 99.9091C76.5824 100.159 76.4877 100.373 76.2983 100.551C76.1127 100.729 75.8892 100.818 75.6278 100.818ZM84.9247 104.227L83.7202 104.568C83.6444 104.367 83.5327 104.172 83.3849 103.983C83.241 103.79 83.044 103.631 82.794 103.506C82.544 103.381 82.224 103.318 81.8338 103.318C81.2997 103.318 80.8546 103.441 80.4986 103.688C80.1463 103.93 79.9702 104.239 79.9702 104.614C79.9702 104.947 80.0914 105.21 80.3338 105.403C80.5762 105.597 80.955 105.758 81.4702 105.886L82.7656 106.205C83.5459 106.394 84.1274 106.684 84.5099 107.074C84.8925 107.46 85.0838 107.958 85.0838 108.568C85.0838 109.068 84.9399 109.515 84.652 109.909C84.3679 110.303 83.9702 110.614 83.4588 110.841C82.9474 111.068 82.3527 111.182 81.6747 111.182C80.7846 111.182 80.0478 110.989 79.4645 110.602C78.8812 110.216 78.5118 109.652 78.3565 108.909L79.6293 108.591C79.7505 109.061 79.9796 109.413 80.3168 109.648C80.6577 109.883 81.1027 110 81.652 110C82.277 110 82.7732 109.867 83.1406 109.602C83.5118 109.333 83.6974 109.011 83.6974 108.636C83.6974 108.333 83.5914 108.08 83.3793 107.875C83.1671 107.667 82.8414 107.511 82.402 107.409L80.9474 107.068C80.1482 106.879 79.5611 106.585 79.1861 106.188C78.8149 105.786 78.6293 105.284 78.6293 104.682C78.6293 104.189 78.7675 103.754 79.044 103.375C79.3243 102.996 79.705 102.699 80.1861 102.483C80.6709 102.267 81.2202 102.159 81.8338 102.159C82.6974 102.159 83.3755 102.348 83.8679 102.727C84.3641 103.106 84.7164 103.606 84.9247 104.227ZM91.6023 111V102.273H92.9432V111H91.6023ZM92.2841 100.818C92.0227 100.818 91.7973 100.729 91.608 100.551C91.4223 100.373 91.3295 100.159 91.3295 99.9091C91.3295 99.6591 91.4223 99.4451 91.608 99.267C91.7973 99.089 92.0227 99 92.2841 99C92.5455 99 92.7689 99.089 92.9545 99.267C93.1439 99.4451 93.2386 99.6591 93.2386 99.9091C93.2386 100.159 93.1439 100.373 92.9545 100.551C92.7689 100.729 92.5455 100.818 92.2841 100.818ZM101.581 104.227L100.376 104.568C100.301 104.367 100.189 104.172 100.041 103.983C99.8973 103.79 99.7003 103.631 99.4503 103.506C99.2003 103.381 98.8802 103.318 98.4901 103.318C97.956 103.318 97.5109 103.441 97.1548 103.688C96.8026 103.93 96.6264 104.239 96.6264 104.614C96.6264 104.947 96.7476 105.21 96.9901 105.403C97.2325 105.597 97.6113 105.758 98.1264 105.886L99.4219 106.205C100.202 106.394 100.784 106.684 101.166 107.074C101.549 107.46 101.74 107.958 101.74 108.568C101.74 109.068 101.596 109.515 101.308 109.909C101.024 110.303 100.626 110.614 100.115 110.841C99.6037 111.068 99.009 111.182 98.331 111.182C97.4408 111.182 96.7041 110.989 96.1207 110.602C95.5374 110.216 95.1681 109.652 95.0128 108.909L96.2855 108.591C96.4067 109.061 96.6359 109.413 96.973 109.648C97.3139 109.883 97.759 110 98.3082 110C98.9332 110 99.4295 109.867 99.7969 109.602C100.168 109.333 100.354 109.011 100.354 108.636C100.354 108.333 100.248 108.08 100.036 107.875C99.8234 107.667 99.4976 107.511 99.0582 107.409L97.6037 107.068C96.8045 106.879 96.2173 106.585 95.8423 106.188C95.4711 105.786 95.2855 105.284 95.2855 104.682C95.2855 104.189 95.4238 103.754 95.7003 103.375C95.9806 102.996 96.3613 102.699 96.8423 102.483C97.3272 102.267 97.8764 102.159 98.4901 102.159C99.3537 102.159 100.032 102.348 100.524 102.727C101.02 103.106 101.373 103.606 101.581 104.227ZM110.827 111.205C110.274 111.205 109.772 111.1 109.321 110.892C108.87 110.68 108.512 110.375 108.247 109.977C107.982 109.576 107.849 109.091 107.849 108.523C107.849 108.023 107.948 107.617 108.145 107.307C108.342 106.992 108.605 106.746 108.935 106.568C109.264 106.39 109.628 106.258 110.026 106.17C110.427 106.08 110.83 106.008 111.236 105.955C111.766 105.886 112.196 105.835 112.526 105.801C112.859 105.763 113.101 105.701 113.253 105.614C113.408 105.527 113.486 105.375 113.486 105.159V105.114C113.486 104.553 113.332 104.117 113.026 103.807C112.723 103.496 112.262 103.341 111.645 103.341C111.005 103.341 110.503 103.481 110.139 103.761C109.776 104.042 109.52 104.341 109.372 104.659L108.099 104.205C108.327 103.674 108.63 103.261 109.009 102.966C109.391 102.667 109.808 102.458 110.259 102.341C110.713 102.22 111.16 102.159 111.599 102.159C111.88 102.159 112.202 102.193 112.565 102.261C112.933 102.326 113.287 102.46 113.628 102.665C113.973 102.869 114.259 103.178 114.486 103.591C114.713 104.004 114.827 104.557 114.827 105.25V111H113.486V109.818H113.418C113.327 110.008 113.175 110.21 112.963 110.426C112.751 110.642 112.469 110.826 112.116 110.977C111.764 111.129 111.334 111.205 110.827 111.205ZM111.031 110C111.562 110 112.009 109.896 112.372 109.688C112.74 109.479 113.016 109.21 113.202 108.881C113.391 108.551 113.486 108.205 113.486 107.841V106.614C113.429 106.682 113.304 106.744 113.111 106.801C112.921 106.854 112.702 106.902 112.452 106.943C112.205 106.981 111.965 107.015 111.73 107.045C111.499 107.072 111.312 107.095 111.168 107.114C110.819 107.159 110.493 107.233 110.19 107.335C109.891 107.434 109.649 107.583 109.463 107.784C109.281 107.981 109.19 108.25 109.19 108.591C109.19 109.057 109.363 109.409 109.707 109.648C110.056 109.883 110.497 110 111.031 110ZM127.956 104.227L126.751 104.568C126.676 104.367 126.564 104.172 126.416 103.983C126.272 103.79 126.075 103.631 125.825 103.506C125.575 103.381 125.255 103.318 124.865 103.318C124.331 103.318 123.886 103.441 123.53 103.688C123.178 103.93 123.001 104.239 123.001 104.614C123.001 104.947 123.123 105.21 123.365 105.403C123.607 105.597 123.986 105.758 124.501 105.886L125.797 106.205C126.577 106.394 127.159 106.684 127.541 107.074C127.924 107.46 128.115 107.958 128.115 108.568C128.115 109.068 127.971 109.515 127.683 109.909C127.399 110.303 127.001 110.614 126.49 110.841C125.979 111.068 125.384 111.182 124.706 111.182C123.816 111.182 123.079 110.989 122.496 110.602C121.912 110.216 121.543 109.652 121.388 108.909L122.661 108.591C122.782 109.061 123.011 109.413 123.348 109.648C123.689 109.883 124.134 110 124.683 110C125.308 110 125.804 109.867 126.172 109.602C126.543 109.333 126.729 109.011 126.729 108.636C126.729 108.333 126.623 108.08 126.411 107.875C126.198 107.667 125.873 107.511 125.433 107.409L123.979 107.068C123.179 106.879 122.592 106.585 122.217 106.188C121.846 105.786 121.661 105.284 121.661 104.682C121.661 104.189 121.799 103.754 122.075 103.375C122.356 102.996 122.736 102.699 123.217 102.483C123.702 102.267 124.251 102.159 124.865 102.159C125.729 102.159 126.407 102.348 126.899 102.727C127.395 103.106 127.748 103.606 127.956 104.227ZM135.634 107.432V102.273H136.974V111H135.634V109.523H135.543C135.338 109.966 135.02 110.343 134.588 110.653C134.156 110.96 133.611 111.114 132.952 111.114C132.406 111.114 131.921 110.994 131.497 110.756C131.073 110.513 130.74 110.15 130.497 109.665C130.255 109.176 130.134 108.561 130.134 107.818V102.273H131.474V107.727C131.474 108.364 131.652 108.871 132.009 109.25C132.368 109.629 132.827 109.818 133.384 109.818C133.717 109.818 134.056 109.733 134.401 109.562C134.749 109.392 135.041 109.131 135.276 108.778C135.514 108.426 135.634 107.977 135.634 107.432ZM142.976 111.182C142.158 111.182 141.453 110.989 140.862 110.602C140.271 110.216 139.817 109.684 139.499 109.006C139.18 108.328 139.021 107.553 139.021 106.682C139.021 105.795 139.184 105.013 139.51 104.335C139.839 103.653 140.298 103.121 140.885 102.739C141.476 102.352 142.165 102.159 142.953 102.159C143.567 102.159 144.12 102.273 144.612 102.5C145.105 102.727 145.508 103.045 145.822 103.455C146.137 103.864 146.332 104.341 146.408 104.886H145.067C144.964 104.489 144.737 104.136 144.385 103.83C144.036 103.519 143.567 103.364 142.976 103.364C142.453 103.364 141.995 103.5 141.601 103.773C141.211 104.042 140.906 104.422 140.686 104.915C140.47 105.403 140.362 105.977 140.362 106.636C140.362 107.311 140.468 107.898 140.68 108.398C140.896 108.898 141.199 109.286 141.589 109.562C141.983 109.839 142.446 109.977 142.976 109.977C143.324 109.977 143.641 109.917 143.925 109.795C144.209 109.674 144.449 109.5 144.646 109.273C144.843 109.045 144.983 108.773 145.067 108.455H146.408C146.332 108.97 146.144 109.434 145.845 109.847C145.55 110.256 145.158 110.581 144.669 110.824C144.184 111.062 143.62 111.182 142.976 111.182ZM151.913 111.182C151.095 111.182 150.391 110.989 149.8 110.602C149.209 110.216 148.754 109.684 148.436 109.006C148.118 108.328 147.959 107.553 147.959 106.682C147.959 105.795 148.122 105.013 148.447 104.335C148.777 103.653 149.235 103.121 149.822 102.739C150.413 102.352 151.103 102.159 151.891 102.159C152.504 102.159 153.057 102.273 153.55 102.5C154.042 102.727 154.446 103.045 154.76 103.455C155.074 103.864 155.269 104.341 155.345 104.886H154.004C153.902 104.489 153.675 104.136 153.322 103.83C152.974 103.519 152.504 103.364 151.913 103.364C151.391 103.364 150.932 103.5 150.538 103.773C150.148 104.042 149.843 104.422 149.624 104.915C149.408 105.403 149.3 105.977 149.3 106.636C149.3 107.311 149.406 107.898 149.618 108.398C149.834 108.898 150.137 109.286 150.527 109.562C150.921 109.839 151.383 109.977 151.913 109.977C152.262 109.977 152.578 109.917 152.862 109.795C153.146 109.674 153.387 109.5 153.584 109.273C153.781 109.045 153.921 108.773 154.004 108.455H155.345C155.269 108.97 155.082 109.434 154.783 109.847C154.487 110.256 154.095 110.581 153.607 110.824C153.122 111.062 152.557 111.182 151.913 111.182ZM160.964 111.182C160.124 111.182 159.398 110.996 158.788 110.625C158.182 110.25 157.714 109.727 157.385 109.057C157.059 108.383 156.896 107.598 156.896 106.705C156.896 105.811 157.059 105.023 157.385 104.341C157.714 103.655 158.173 103.121 158.76 102.739C159.351 102.352 160.04 102.159 160.828 102.159C161.283 102.159 161.732 102.235 162.175 102.386C162.618 102.538 163.021 102.784 163.385 103.125C163.749 103.462 164.038 103.909 164.254 104.466C164.47 105.023 164.578 105.708 164.578 106.523V107.091H157.851V105.932H163.214C163.214 105.439 163.116 105 162.919 104.614C162.726 104.227 162.449 103.922 162.089 103.699C161.733 103.475 161.313 103.364 160.828 103.364C160.294 103.364 159.832 103.496 159.442 103.761C159.055 104.023 158.758 104.364 158.55 104.784C158.341 105.205 158.237 105.655 158.237 106.136V106.909C158.237 107.568 158.351 108.127 158.578 108.585C158.809 109.04 159.129 109.386 159.538 109.625C159.947 109.86 160.423 109.977 160.964 109.977C161.317 109.977 161.635 109.928 161.919 109.83C162.207 109.727 162.455 109.576 162.663 109.375C162.872 109.17 163.033 108.917 163.146 108.614L164.442 108.977C164.305 109.417 164.076 109.803 163.754 110.136C163.432 110.466 163.035 110.723 162.561 110.909C162.088 111.091 161.555 111.182 160.964 111.182ZM172.8 104.227L171.595 104.568C171.519 104.367 171.408 104.172 171.26 103.983C171.116 103.79 170.919 103.631 170.669 103.506C170.419 103.381 170.099 103.318 169.709 103.318C169.175 103.318 168.73 103.441 168.374 103.688C168.021 103.93 167.845 104.239 167.845 104.614C167.845 104.947 167.966 105.21 168.209 105.403C168.451 105.597 168.83 105.758 169.345 105.886L170.641 106.205C171.421 106.394 172.002 106.684 172.385 107.074C172.768 107.46 172.959 107.958 172.959 108.568C172.959 109.068 172.815 109.515 172.527 109.909C172.243 110.303 171.845 110.614 171.334 110.841C170.822 111.068 170.228 111.182 169.55 111.182C168.66 111.182 167.923 110.989 167.339 110.602C166.756 110.216 166.387 109.652 166.232 108.909L167.504 108.591C167.625 109.061 167.855 109.413 168.192 109.648C168.533 109.883 168.978 110 169.527 110C170.152 110 170.648 109.867 171.016 109.602C171.387 109.333 171.572 109.011 171.572 108.636C171.572 108.333 171.466 108.08 171.254 107.875C171.042 107.667 170.716 107.511 170.277 107.409L168.822 107.068C168.023 106.879 167.436 106.585 167.061 106.188C166.69 105.786 166.504 105.284 166.504 104.682C166.504 104.189 166.643 103.754 166.919 103.375C167.199 102.996 167.58 102.699 168.061 102.483C168.546 102.267 169.095 102.159 169.709 102.159C170.572 102.159 171.25 102.348 171.743 102.727C172.239 103.106 172.591 103.606 172.8 104.227ZM181.159 104.227L179.955 104.568C179.879 104.367 179.767 104.172 179.619 103.983C179.475 103.79 179.278 103.631 179.028 103.506C178.778 103.381 178.458 103.318 178.068 103.318C177.534 103.318 177.089 103.441 176.733 103.688C176.381 103.93 176.205 104.239 176.205 104.614C176.205 104.947 176.326 105.21 176.568 105.403C176.811 105.597 177.189 105.758 177.705 105.886L179 106.205C179.78 106.394 180.362 106.684 180.744 107.074C181.127 107.46 181.318 107.958 181.318 108.568C181.318 109.068 181.174 109.515 180.886 109.909C180.602 110.303 180.205 110.614 179.693 110.841C179.182 111.068 178.587 111.182 177.909 111.182C177.019 111.182 176.282 110.989 175.699 110.602C175.116 110.216 174.746 109.652 174.591 108.909L175.864 108.591C175.985 109.061 176.214 109.413 176.551 109.648C176.892 109.883 177.337 110 177.886 110C178.511 110 179.008 109.867 179.375 109.602C179.746 109.333 179.932 109.011 179.932 108.636C179.932 108.333 179.826 108.08 179.614 107.875C179.402 107.667 179.076 107.511 178.636 107.409L177.182 107.068C176.383 106.879 175.795 106.585 175.42 106.188C175.049 105.786 174.864 105.284 174.864 104.682C174.864 104.189 175.002 103.754 175.278 103.375C175.559 102.996 175.939 102.699 176.42 102.483C176.905 102.267 177.455 102.159 178.068 102.159C178.932 102.159 179.61 102.348 180.102 102.727C180.598 103.106 180.951 103.606 181.159 104.227ZM187.837 111V102.273H189.132V103.636H189.246C189.428 103.17 189.721 102.809 190.126 102.551C190.532 102.29 191.018 102.159 191.587 102.159C192.162 102.159 192.642 102.29 193.024 102.551C193.411 102.809 193.712 103.17 193.928 103.636H194.018C194.242 103.186 194.577 102.828 195.024 102.562C195.471 102.294 196.007 102.159 196.632 102.159C197.412 102.159 198.051 102.403 198.547 102.892C199.043 103.377 199.291 104.133 199.291 105.159V111H197.95V105.159C197.95 104.515 197.774 104.055 197.422 103.778C197.07 103.502 196.655 103.364 196.178 103.364C195.564 103.364 195.089 103.549 194.751 103.92C194.414 104.288 194.246 104.754 194.246 105.318V111H192.882V105.023C192.882 104.527 192.721 104.127 192.399 103.824C192.077 103.517 191.662 103.364 191.155 103.364C190.806 103.364 190.481 103.456 190.178 103.642C189.878 103.828 189.636 104.085 189.45 104.415C189.268 104.741 189.178 105.117 189.178 105.545V111H187.837ZM205.402 111.182C204.561 111.182 203.836 110.996 203.226 110.625C202.62 110.25 202.152 109.727 201.822 109.057C201.497 108.383 201.334 107.598 201.334 106.705C201.334 105.811 201.497 105.023 201.822 104.341C202.152 103.655 202.61 103.121 203.197 102.739C203.788 102.352 204.478 102.159 205.266 102.159C205.72 102.159 206.169 102.235 206.612 102.386C207.055 102.538 207.459 102.784 207.822 103.125C208.186 103.462 208.476 103.909 208.692 104.466C208.908 105.023 209.016 105.708 209.016 106.523V107.091H202.288V105.932H207.652C207.652 105.439 207.554 105 207.357 104.614C207.163 104.227 206.887 103.922 206.527 103.699C206.171 103.475 205.75 103.364 205.266 103.364C204.732 103.364 204.269 103.496 203.879 103.761C203.493 104.023 203.196 104.364 202.987 104.784C202.779 105.205 202.675 105.655 202.675 106.136V106.909C202.675 107.568 202.788 108.127 203.016 108.585C203.247 109.04 203.567 109.386 203.976 109.625C204.385 109.86 204.86 109.977 205.402 109.977C205.754 109.977 206.072 109.928 206.357 109.83C206.644 109.727 206.893 109.576 207.101 109.375C207.309 109.17 207.47 108.917 207.584 108.614L208.879 108.977C208.743 109.417 208.514 109.803 208.192 110.136C207.87 110.466 207.472 110.723 206.999 110.909C206.525 111.091 205.993 111.182 205.402 111.182ZM217.237 104.227L216.033 104.568C215.957 104.367 215.845 104.172 215.697 103.983C215.554 103.79 215.357 103.631 215.107 103.506C214.857 103.381 214.536 103.318 214.146 103.318C213.612 103.318 213.167 103.441 212.811 103.688C212.459 103.93 212.283 104.239 212.283 104.614C212.283 104.947 212.404 105.21 212.646 105.403C212.889 105.597 213.268 105.758 213.783 105.886L215.078 106.205C215.858 106.394 216.44 106.684 216.822 107.074C217.205 107.46 217.396 107.958 217.396 108.568C217.396 109.068 217.252 109.515 216.964 109.909C216.68 110.303 216.283 110.614 215.771 110.841C215.26 111.068 214.665 111.182 213.987 111.182C213.097 111.182 212.36 110.989 211.777 110.602C211.194 110.216 210.824 109.652 210.669 108.909L211.942 108.591C212.063 109.061 212.292 109.413 212.629 109.648C212.97 109.883 213.415 110 213.964 110C214.589 110 215.086 109.867 215.453 109.602C215.824 109.333 216.01 109.011 216.01 108.636C216.01 108.333 215.904 108.08 215.692 107.875C215.48 107.667 215.154 107.511 214.714 107.409L213.26 107.068C212.461 106.879 211.874 106.585 211.499 106.188C211.127 105.786 210.942 105.284 210.942 104.682C210.942 104.189 211.08 103.754 211.357 103.375C211.637 102.996 212.018 102.699 212.499 102.483C212.983 102.267 213.533 102.159 214.146 102.159C215.01 102.159 215.688 102.348 216.18 102.727C216.677 103.106 217.029 103.606 217.237 104.227ZM225.597 104.227L224.392 104.568C224.316 104.367 224.205 104.172 224.057 103.983C223.913 103.79 223.716 103.631 223.466 103.506C223.216 103.381 222.896 103.318 222.506 103.318C221.972 103.318 221.527 103.441 221.17 103.688C220.818 103.93 220.642 104.239 220.642 104.614C220.642 104.947 220.763 105.21 221.006 105.403C221.248 105.597 221.627 105.758 222.142 105.886L223.438 106.205C224.218 106.394 224.799 106.684 225.182 107.074C225.564 107.46 225.756 107.958 225.756 108.568C225.756 109.068 225.612 109.515 225.324 109.909C225.04 110.303 224.642 110.614 224.131 110.841C223.619 111.068 223.025 111.182 222.347 111.182C221.456 111.182 220.72 110.989 220.136 110.602C219.553 110.216 219.184 109.652 219.028 108.909L220.301 108.591C220.422 109.061 220.652 109.413 220.989 109.648C221.33 109.883 221.775 110 222.324 110C222.949 110 223.445 109.867 223.812 109.602C224.184 109.333 224.369 109.011 224.369 108.636C224.369 108.333 224.263 108.08 224.051 107.875C223.839 107.667 223.513 107.511 223.074 107.409L221.619 107.068C220.82 106.879 220.233 106.585 219.858 106.188C219.487 105.786 219.301 105.284 219.301 104.682C219.301 104.189 219.439 103.754 219.716 103.375C219.996 102.996 220.377 102.699 220.858 102.483C221.343 102.267 221.892 102.159 222.506 102.159C223.369 102.159 224.047 102.348 224.54 102.727C225.036 103.106 225.388 103.606 225.597 104.227ZM230.342 111.205C229.789 111.205 229.287 111.1 228.837 110.892C228.386 110.68 228.028 110.375 227.763 109.977C227.498 109.576 227.365 109.091 227.365 108.523C227.365 108.023 227.464 107.617 227.661 107.307C227.857 106.992 228.121 106.746 228.45 106.568C228.78 106.39 229.143 106.258 229.541 106.17C229.943 106.08 230.346 106.008 230.751 105.955C231.282 105.886 231.712 105.835 232.041 105.801C232.375 105.763 232.617 105.701 232.768 105.614C232.924 105.527 233.001 105.375 233.001 105.159V105.114C233.001 104.553 232.848 104.117 232.541 103.807C232.238 103.496 231.778 103.341 231.161 103.341C230.52 103.341 230.018 103.481 229.655 103.761C229.291 104.042 229.036 104.341 228.888 104.659L227.615 104.205C227.842 103.674 228.145 103.261 228.524 102.966C228.907 102.667 229.323 102.458 229.774 102.341C230.229 102.22 230.676 102.159 231.115 102.159C231.395 102.159 231.717 102.193 232.081 102.261C232.448 102.326 232.803 102.46 233.143 102.665C233.488 102.869 233.774 103.178 234.001 103.591C234.229 104.004 234.342 104.557 234.342 105.25V111H233.001V109.818H232.933C232.842 110.008 232.691 110.21 232.479 110.426C232.267 110.642 231.984 110.826 231.632 110.977C231.28 111.129 230.85 111.205 230.342 111.205ZM230.547 110C231.077 110 231.524 109.896 231.888 109.688C232.255 109.479 232.532 109.21 232.717 108.881C232.907 108.551 233.001 108.205 233.001 107.841V106.614C232.945 106.682 232.82 106.744 232.626 106.801C232.437 106.854 232.217 106.902 231.967 106.943C231.721 106.981 231.481 107.015 231.246 107.045C231.015 107.072 230.827 107.095 230.683 107.114C230.335 107.159 230.009 107.233 229.706 107.335C229.407 107.434 229.164 107.583 228.979 107.784C228.797 107.981 228.706 108.25 228.706 108.591C228.706 109.057 228.878 109.409 229.223 109.648C229.571 109.883 230.013 110 230.547 110ZM240.312 114.455C239.665 114.455 239.108 114.371 238.642 114.205C238.176 114.042 237.788 113.826 237.477 113.557C237.17 113.292 236.926 113.008 236.744 112.705L237.812 111.955C237.934 112.114 238.087 112.295 238.273 112.5C238.458 112.708 238.712 112.888 239.034 113.04C239.36 113.195 239.786 113.273 240.312 113.273C241.017 113.273 241.598 113.102 242.057 112.761C242.515 112.42 242.744 111.886 242.744 111.159V109.386H242.631C242.532 109.545 242.392 109.742 242.21 109.977C242.032 110.208 241.775 110.415 241.438 110.597C241.104 110.775 240.653 110.864 240.085 110.864C239.381 110.864 238.748 110.697 238.188 110.364C237.631 110.03 237.189 109.545 236.864 108.909C236.542 108.273 236.381 107.5 236.381 106.591C236.381 105.697 236.538 104.919 236.852 104.256C237.167 103.589 237.604 103.074 238.165 102.71C238.725 102.343 239.373 102.159 240.108 102.159C240.676 102.159 241.127 102.254 241.46 102.443C241.797 102.629 242.055 102.841 242.233 103.08C242.415 103.314 242.555 103.508 242.653 103.659H242.79V102.273H244.085V111.25C244.085 112 243.915 112.61 243.574 113.08C243.237 113.553 242.782 113.9 242.21 114.119C241.642 114.343 241.009 114.455 240.312 114.455ZM240.267 109.659C240.805 109.659 241.259 109.536 241.631 109.29C242.002 109.044 242.284 108.689 242.477 108.227C242.67 107.765 242.767 107.212 242.767 106.568C242.767 105.939 242.672 105.384 242.483 104.903C242.294 104.422 242.013 104.045 241.642 103.773C241.271 103.5 240.813 103.364 240.267 103.364C239.699 103.364 239.225 103.508 238.847 103.795C238.472 104.083 238.189 104.47 238 104.955C237.814 105.439 237.722 105.977 237.722 106.568C237.722 107.174 237.816 107.71 238.006 108.176C238.199 108.638 238.483 109.002 238.858 109.267C239.237 109.528 239.706 109.659 240.267 109.659ZM250.199 111.182C249.358 111.182 248.633 110.996 248.023 110.625C247.417 110.25 246.949 109.727 246.619 109.057C246.294 108.383 246.131 107.598 246.131 106.705C246.131 105.811 246.294 105.023 246.619 104.341C246.949 103.655 247.407 103.121 247.994 102.739C248.585 102.352 249.275 102.159 250.062 102.159C250.517 102.159 250.966 102.235 251.409 102.386C251.852 102.538 252.256 102.784 252.619 103.125C252.983 103.462 253.273 103.909 253.489 104.466C253.705 105.023 253.812 105.708 253.812 106.523V107.091H247.085V105.932H252.449C252.449 105.439 252.35 105 252.153 104.614C251.96 104.227 251.684 103.922 251.324 103.699C250.968 103.475 250.547 103.364 250.062 103.364C249.528 103.364 249.066 103.496 248.676 103.761C248.29 104.023 247.992 104.364 247.784 104.784C247.576 105.205 247.472 105.655 247.472 106.136V106.909C247.472 107.568 247.585 108.127 247.812 108.585C248.044 109.04 248.364 109.386 248.773 109.625C249.182 109.86 249.657 109.977 250.199 109.977C250.551 109.977 250.869 109.928 251.153 109.83C251.441 109.727 251.689 109.576 251.898 109.375C252.106 109.17 252.267 108.917 252.381 108.614L253.676 108.977C253.54 109.417 253.311 109.803 252.989 110.136C252.667 110.466 252.269 110.723 251.795 110.909C251.322 111.091 250.79 111.182 250.199 111.182ZM256.83 111.091C256.549 111.091 256.309 110.991 256.108 110.79C255.907 110.589 255.807 110.348 255.807 110.068C255.807 109.788 255.907 109.547 256.108 109.347C256.309 109.146 256.549 109.045 256.83 109.045C257.11 109.045 257.35 109.146 257.551 109.347C257.752 109.547 257.852 109.788 257.852 110.068C257.852 110.254 257.805 110.424 257.71 110.58C257.619 110.735 257.496 110.86 257.341 110.955C257.189 111.045 257.019 111.091 256.83 111.091Z" fill="#344054"/>
<rect x="54.5" y="137.5" width="107" height="39" rx="4.5" stroke="#344054"/>
<path d="M79.4426 151.818V162H78.2494L72.7011 154.006H72.6017V162H71.3687V151.818H72.5619L78.1301 159.832H78.2295V151.818H79.4426ZM84.9523 162.159C84.2165 162.159 83.5818 161.997 83.0482 161.672C82.5179 161.344 82.1086 160.886 81.8202 160.3C81.5352 159.71 81.3927 159.024 81.3927 158.241C81.3927 157.459 81.5352 156.77 81.8202 156.173C82.1086 155.573 82.5096 155.106 83.0233 154.771C83.5404 154.433 84.1436 154.264 84.833 154.264C85.2307 154.264 85.6235 154.33 86.0113 154.463C86.3991 154.596 86.752 154.811 87.0702 155.109C87.3884 155.404 87.642 155.795 87.8309 156.283C88.0198 156.77 88.1143 157.37 88.1143 158.082V158.58H82.2279V157.565H86.9211C86.9211 157.134 86.8349 156.75 86.6626 156.412C86.4935 156.074 86.2516 155.807 85.9367 155.612C85.6251 155.416 85.2573 155.318 84.833 155.318C84.3657 155.318 83.9613 155.434 83.6199 155.666C83.2819 155.895 83.0217 156.193 82.8394 156.561C82.6571 156.929 82.566 157.323 82.566 157.744V158.42C82.566 158.997 82.6654 159.486 82.8643 159.887C83.0664 160.285 83.3465 160.588 83.7045 160.797C84.0624 161.002 84.4784 161.105 84.9523 161.105C85.2606 161.105 85.539 161.062 85.7876 160.976C86.0394 160.886 86.2565 160.754 86.4388 160.578C86.6211 160.399 86.762 160.177 86.8614 159.912L87.9949 160.23C87.8756 160.615 87.6751 160.953 87.3934 161.244C87.1117 161.533 86.7636 161.758 86.3493 161.92C85.935 162.08 85.4694 162.159 84.9523 162.159ZM90.569 154.364L92.3985 157.486L94.2281 154.364H95.5803L93.1144 158.182L95.5803 162H94.2281L92.3985 159.037L90.569 162H89.2167L91.6428 158.182L89.2167 154.364H90.569ZM100.576 154.364V155.358H96.6182V154.364H100.576ZM97.7716 152.534H98.9449V159.812C98.9449 160.144 98.9929 160.393 99.089 160.558C99.1885 160.721 99.3144 160.83 99.4669 160.886C99.6227 160.939 99.7867 160.966 99.9591 160.966C100.088 160.966 100.194 160.959 100.277 160.946C100.36 160.929 100.426 160.916 100.476 160.906L100.715 161.96C100.635 161.99 100.524 162.02 100.382 162.05C100.239 162.083 100.059 162.099 99.8398 162.099C99.5083 162.099 99.1835 162.028 98.8653 161.886C98.5505 161.743 98.2886 161.526 98.0798 161.234C97.8743 160.943 97.7716 160.575 97.7716 160.131V152.534ZM108.525 162.179C108.041 162.179 107.602 162.088 107.208 161.906C106.813 161.72 106.5 161.453 106.268 161.105C106.036 160.754 105.92 160.33 105.92 159.832C105.92 159.395 106.006 159.04 106.179 158.768C106.351 158.493 106.581 158.278 106.87 158.122C107.158 157.966 107.476 157.85 107.824 157.774C108.175 157.695 108.528 157.632 108.883 157.585C109.347 157.526 109.723 157.481 110.012 157.451C110.303 157.418 110.515 157.363 110.648 157.287C110.784 157.211 110.852 157.078 110.852 156.889V156.849C110.852 156.359 110.718 155.978 110.449 155.706C110.184 155.434 109.781 155.298 109.241 155.298C108.681 155.298 108.242 155.421 107.924 155.666C107.605 155.911 107.382 156.173 107.252 156.452L106.139 156.054C106.338 155.59 106.603 155.229 106.934 154.97C107.269 154.708 107.634 154.526 108.028 154.423C108.426 154.317 108.817 154.264 109.201 154.264C109.447 154.264 109.728 154.294 110.046 154.354C110.368 154.41 110.678 154.528 110.976 154.707C111.278 154.886 111.528 155.156 111.727 155.517C111.926 155.878 112.025 156.362 112.025 156.969V162H110.852V160.966H110.792C110.713 161.132 110.58 161.309 110.394 161.498C110.209 161.687 109.962 161.848 109.654 161.98C109.345 162.113 108.969 162.179 108.525 162.179ZM108.704 161.125C109.168 161.125 109.559 161.034 109.877 160.852C110.199 160.669 110.441 160.434 110.603 160.146C110.769 159.857 110.852 159.554 110.852 159.236V158.162C110.802 158.222 110.693 158.276 110.524 158.326C110.358 158.372 110.166 158.414 109.947 158.45C109.732 158.483 109.521 158.513 109.316 158.54C109.113 158.563 108.949 158.583 108.823 158.599C108.518 158.639 108.233 158.704 107.968 158.793C107.706 158.879 107.494 159.01 107.332 159.186C107.173 159.358 107.093 159.594 107.093 159.892C107.093 160.3 107.244 160.608 107.546 160.817C107.851 161.022 108.237 161.125 108.704 161.125ZM117.269 162.159C116.553 162.159 115.937 161.99 115.419 161.652C114.902 161.314 114.505 160.848 114.226 160.255C113.948 159.662 113.809 158.984 113.809 158.222C113.809 157.446 113.951 156.762 114.236 156.168C114.525 155.572 114.926 155.106 115.439 154.771C115.956 154.433 116.56 154.264 117.249 154.264C117.786 154.264 118.27 154.364 118.701 154.562C119.132 154.761 119.485 155.04 119.76 155.398C120.035 155.756 120.205 156.173 120.272 156.651H119.098C119.009 156.303 118.81 155.994 118.502 155.726C118.197 155.454 117.786 155.318 117.269 155.318C116.812 155.318 116.41 155.437 116.066 155.676C115.724 155.911 115.458 156.245 115.265 156.675C115.076 157.103 114.982 157.605 114.982 158.182C114.982 158.772 115.075 159.286 115.26 159.723C115.449 160.161 115.714 160.5 116.056 160.742C116.401 160.984 116.805 161.105 117.269 161.105C117.574 161.105 117.851 161.052 118.099 160.946C118.348 160.84 118.558 160.688 118.731 160.489C118.903 160.29 119.026 160.051 119.098 159.773H120.272C120.205 160.223 120.041 160.629 119.78 160.991C119.521 161.349 119.178 161.634 118.75 161.846C118.326 162.055 117.832 162.159 117.269 162.159ZM125.308 154.364V155.358H121.351V154.364H125.308ZM122.504 152.534H123.677V159.812C123.677 160.144 123.725 160.393 123.821 160.558C123.921 160.721 124.047 160.83 124.199 160.886C124.355 160.939 124.519 160.966 124.691 160.966C124.821 160.966 124.927 160.959 125.01 160.946C125.093 160.929 125.159 160.916 125.209 160.906L125.447 161.96C125.368 161.99 125.257 162.02 125.114 162.05C124.972 162.083 124.791 162.099 124.572 162.099C124.241 162.099 123.916 162.028 123.598 161.886C123.283 161.743 123.021 161.526 122.812 161.234C122.607 160.943 122.504 160.575 122.504 160.131V152.534ZM127.073 162V154.364H128.246V162H127.073ZM127.669 153.091C127.441 153.091 127.244 153.013 127.078 152.857C126.915 152.701 126.834 152.514 126.834 152.295C126.834 152.077 126.915 151.889 127.078 151.734C127.244 151.578 127.441 151.5 127.669 151.5C127.898 151.5 128.094 151.578 128.256 151.734C128.422 151.889 128.505 152.077 128.505 152.295C128.505 152.514 128.422 152.701 128.256 152.857C128.094 153.013 127.898 153.091 127.669 153.091ZM133.497 162.159C132.808 162.159 132.203 161.995 131.683 161.667C131.166 161.339 130.761 160.88 130.47 160.29C130.181 159.7 130.037 159.01 130.037 158.222C130.037 157.426 130.181 156.732 130.47 156.138C130.761 155.545 131.166 155.085 131.683 154.756C132.203 154.428 132.808 154.264 133.497 154.264C134.187 154.264 134.79 154.428 135.307 154.756C135.827 155.085 136.232 155.545 136.52 156.138C136.812 156.732 136.958 157.426 136.958 158.222C136.958 159.01 136.812 159.7 136.52 160.29C136.232 160.88 135.827 161.339 135.307 161.667C134.79 161.995 134.187 162.159 133.497 162.159ZM133.497 161.105C134.021 161.105 134.452 160.971 134.79 160.702C135.128 160.434 135.378 160.081 135.541 159.643C135.703 159.206 135.784 158.732 135.784 158.222C135.784 157.711 135.703 157.236 135.541 156.795C135.378 156.354 135.128 155.998 134.79 155.726C134.452 155.454 134.021 155.318 133.497 155.318C132.974 155.318 132.543 155.454 132.205 155.726C131.867 155.998 131.617 156.354 131.454 156.795C131.292 157.236 131.21 157.711 131.21 158.222C131.21 158.732 131.292 159.206 131.454 159.643C131.617 160.081 131.867 160.434 132.205 160.702C132.543 160.971 132.974 161.105 133.497 161.105ZM139.922 157.406V162H138.749V154.364H139.882V155.557H139.982C140.161 155.169 140.432 154.857 140.797 154.622C141.162 154.384 141.632 154.264 142.209 154.264C142.726 154.264 143.178 154.37 143.566 154.582C143.954 154.791 144.256 155.109 144.471 155.537C144.686 155.961 144.794 156.498 144.794 157.148V162H143.621V157.227C143.621 156.627 143.465 156.16 143.153 155.825C142.842 155.487 142.414 155.318 141.871 155.318C141.496 155.318 141.162 155.399 140.867 155.562C140.575 155.724 140.345 155.961 140.176 156.273C140.006 156.584 139.922 156.962 139.922 157.406Z" fill="#344054"/>
</g>
<circle cx="103" cy="16" r="12" fill="#344054"/>
<path d="M98.9432 22V20.2273L103.085 16.392C103.438 16.0511 103.733 15.7443 103.972 15.4716C104.214 15.1989 104.398 14.9318 104.523 14.6705C104.648 14.4053 104.71 14.1193 104.71 13.8125C104.71 13.4716 104.633 13.178 104.477 12.9318C104.322 12.6818 104.11 12.4905 103.841 12.358C103.572 12.2216 103.267 12.1534 102.926 12.1534C102.57 12.1534 102.259 12.2254 101.994 12.3693C101.729 12.5133 101.525 12.7197 101.381 12.9886C101.237 13.2576 101.165 13.5777 101.165 13.9489H98.8295C98.8295 13.1875 99.0019 12.5265 99.3466 11.9659C99.6913 11.4053 100.174 10.9716 100.795 10.6648C101.417 10.358 102.133 10.2045 102.943 10.2045C103.777 10.2045 104.502 10.3523 105.119 10.6477C105.741 10.9394 106.223 11.3447 106.568 11.8636C106.913 12.3826 107.085 12.9773 107.085 13.6477C107.085 14.0871 106.998 14.5208 106.824 14.9489C106.653 15.3769 106.348 15.8523 105.909 16.375C105.47 16.8939 104.85 17.517 104.051 18.2443L102.352 19.9091V19.9886H107.239V22H98.9432Z" fill="white"/>
<path d="M103 58L103 28" stroke="#344054" stroke-dasharray="2 2"/>
<circle cx="12" cy="16" r="12" fill="#344054"/>
<path d="M14.0057 10.3636V22H11.5455V12.6989H11.4773L8.8125 14.3693V12.1875L11.6932 10.3636H14.0057Z" fill="white"/>
<path d="M21 16H65V58" stroke="#344054" stroke-dasharray="2 2"/>
<circle cx="12" cy="242" r="12" fill="#344054"/>
<path d="M6.76705 245.955V244.017L11.625 236.364H13.2955V239.045H12.3068L9.24432 243.892V243.983H16.1477V245.955H6.76705ZM12.3523 248V245.364L12.3977 244.506V236.364H14.7045V248H12.3523Z" fill="white"/>
<path d="M21 242H65V200" stroke="#344054" stroke-dasharray="2 2"/>
<circle cx="413" cy="16" r="12" fill="#344054"/>
<path d="M413.244 22.1591C412.396 22.1591 411.64 22.0133 410.977 21.7216C410.318 21.4261 409.797 21.0208 409.415 20.5057C409.036 19.9867 408.841 19.3883 408.83 18.7102H411.307C411.322 18.9943 411.415 19.2443 411.585 19.4602C411.759 19.6723 411.991 19.8371 412.278 19.9545C412.566 20.072 412.89 20.1307 413.25 20.1307C413.625 20.1307 413.956 20.0644 414.244 19.9318C414.532 19.7992 414.758 19.6155 414.92 19.3807C415.083 19.1458 415.165 18.875 415.165 18.5682C415.165 18.2576 415.078 17.983 414.903 17.7443C414.733 17.5019 414.487 17.3125 414.165 17.1761C413.847 17.0398 413.468 16.9716 413.028 16.9716H411.943V15.1648H413.028C413.4 15.1648 413.727 15.1004 414.011 14.9716C414.299 14.8428 414.523 14.6648 414.682 14.4375C414.841 14.2064 414.92 13.9375 414.92 13.6307C414.92 13.339 414.85 13.0833 414.71 12.8636C414.574 12.6402 414.381 12.4659 414.131 12.3409C413.884 12.2159 413.597 12.1534 413.267 12.1534C412.934 12.1534 412.629 12.214 412.352 12.3352C412.076 12.4527 411.854 12.6212 411.688 12.8409C411.521 13.0606 411.432 13.3182 411.42 13.6136H409.062C409.074 12.9432 409.265 12.3523 409.636 11.8409C410.008 11.3295 410.508 10.9299 411.136 10.642C411.769 10.3504 412.483 10.2045 413.278 10.2045C414.081 10.2045 414.784 10.3504 415.386 10.642C415.989 10.9337 416.456 11.3277 416.79 11.8239C417.127 12.3163 417.294 12.8693 417.29 13.483C417.294 14.1345 417.091 14.678 416.682 15.1136C416.277 15.5492 415.748 15.8258 415.097 15.9432V16.0341C415.953 16.1439 416.604 16.4413 417.051 16.9261C417.502 17.4072 417.725 18.0095 417.722 18.733C417.725 19.3958 417.534 19.9848 417.148 20.5C416.765 21.0152 416.237 21.4205 415.562 21.7159C414.888 22.0114 414.116 22.1591 413.244 22.1591Z" fill="white"/>
<path d="M403 16H359V58" stroke="#344054" stroke-dasharray="2 2"/>
<defs>
<filter id="filter0_d_5019_1627" x="24" y="33" width="371" height="168" filterUnits="userSpaceOnUse" color-interpolation-filters="sRGB">
<feFlood flood-opacity="0" result="BackgroundImageFix"/>
<feColorMatrix in="SourceAlpha" type="matrix" values="0 0 0 0 0 0 0 0 0 0 0 0 0 0 0 0 0 0 127 0" result="hardAlpha"/>
<feOffset/>
<feGaussianBlur stdDeviation="4"/>
<feColorMatrix type="matrix" values="0 0 0 0 0 0 0 0 0 0 0 0 0 0 0 0 0 0 0.15 0"/>
<feBlend mode="normal" in2="BackgroundImageFix" result="effect1_dropShadow_5019_1627"/>
<feBlend mode="normal" in="SourceGraphic" in2="effect1_dropShadow_5019_1627" result="shape"/>
</filter>
</defs>
</svg>
