<svg width="414" height="201" viewBox="0 0 414 201" fill="none" xmlns="http://www.w3.org/2000/svg">
<path d="M12.0845 31L8.33878 17.9091H11.3622L13.5291 27.005H13.6378L16.0284 17.9091H18.6172L21.0014 27.0241H21.1165L23.2834 17.9091H26.3068L22.5611 31H19.8636L17.3707 22.4411H17.2685L14.782 31H12.0845ZM27.737 31V21.1818H30.46V31H27.737ZM29.1049 19.9162C28.7001 19.9162 28.3528 19.782 28.063 19.5135C27.7775 19.2408 27.6348 18.9148 27.6348 18.5355C27.6348 18.1605 27.7775 17.8388 28.063 17.5703C28.3528 17.2976 28.7001 17.1612 29.1049 17.1612C29.5098 17.1612 29.8549 17.2976 30.1404 17.5703C30.4302 17.8388 30.5751 18.1605 30.5751 18.5355C30.5751 18.9148 30.4302 19.2408 30.1404 19.5135C29.8549 19.782 29.5098 19.9162 29.1049 19.9162ZM37.8636 21.1818V23.2273H31.951V21.1818H37.8636ZM33.2933 18.8295H36.0163V27.983C36.0163 28.2344 36.0547 28.4304 36.1314 28.571C36.2081 28.7074 36.3146 28.8033 36.451 28.8587C36.5916 28.9141 36.7536 28.9418 36.9368 28.9418C37.0646 28.9418 37.1925 28.9311 37.3203 28.9098C37.4482 28.8842 37.5462 28.8651 37.6143 28.8523L38.0426 30.8786C37.9063 30.9212 37.7145 30.9702 37.4673 31.0256C37.2202 31.0852 36.9197 31.1214 36.5661 31.1342C35.9098 31.1598 35.3345 31.0724 34.8402 30.8722C34.3501 30.6719 33.9688 30.3608 33.696 29.9389C33.4233 29.517 33.2891 28.9844 33.2933 28.3409V18.8295ZM42.5714 25.3239V31H39.8484V17.9091H42.4947V22.9141H42.6097C42.8313 22.3345 43.1893 21.8807 43.6836 21.5526C44.1779 21.2202 44.7979 21.054 45.5437 21.054C46.2255 21.054 46.82 21.2031 47.3271 21.5014C47.8384 21.7955 48.2347 22.2195 48.516 22.7734C48.8015 23.3232 48.9421 23.9815 48.9379 24.7486V31H46.2148V25.2344C46.2191 24.6293 46.0657 24.1584 45.7546 23.8217C45.4478 23.4851 45.0174 23.3168 44.4634 23.3168C44.0927 23.3168 43.7646 23.3956 43.479 23.5533C43.1978 23.7109 42.9762 23.9411 42.8143 24.2436C42.6566 24.5419 42.5756 24.902 42.5714 25.3239ZM51.0808 31V21.1818H53.8038V31H51.0808ZM52.4487 19.9162C52.0439 19.9162 51.6966 19.782 51.4068 19.5135C51.1213 19.2408 50.9785 18.9148 50.9785 18.5355C50.9785 18.1605 51.1213 17.8388 51.4068 17.5703C51.6966 17.2976 52.0439 17.1612 52.4487 17.1612C52.8535 17.1612 53.1987 17.2976 53.4842 17.5703C53.774 17.8388 53.9189 18.1605 53.9189 18.5355C53.9189 18.9148 53.774 19.2408 53.4842 19.5135C53.1987 19.782 52.8535 19.9162 52.4487 19.9162ZM58.7081 25.3239V31H55.9851V21.1818H58.5803V22.9141H58.6953C58.9126 22.343 59.277 21.8913 59.7884 21.5589C60.2997 21.2223 60.9197 21.054 61.6484 21.054C62.3303 21.054 62.9247 21.2031 63.4318 21.5014C63.9389 21.7997 64.3331 22.2259 64.6143 22.7798C64.8956 23.3295 65.0362 23.9858 65.0362 24.7486V31H62.3132V25.2344C62.3175 24.6335 62.1641 24.1648 61.853 23.8281C61.5419 23.4872 61.1136 23.3168 60.5682 23.3168C60.2017 23.3168 59.8778 23.3956 59.5966 23.5533C59.3196 23.7109 59.1023 23.9411 58.9446 24.2436C58.7912 24.5419 58.7124 24.902 58.7081 25.3239ZM76.5707 21.1818V23.2273H70.658V21.1818H76.5707ZM72.0004 18.8295H74.7234V27.983C74.7234 28.2344 74.7617 28.4304 74.8384 28.571C74.9151 28.7074 75.0217 28.8033 75.158 28.8587C75.2987 28.9141 75.4606 28.9418 75.6438 28.9418C75.7717 28.9418 75.8995 28.9311 76.0273 28.9098C76.1552 28.8842 76.2532 28.8651 76.3214 28.8523L76.7496 30.8786C76.6133 30.9212 76.4215 30.9702 76.1744 31.0256C75.9272 31.0852 75.6268 31.1214 75.2731 31.1342C74.6168 31.1598 74.0415 31.0724 73.5472 30.8722C73.0572 30.6719 72.6758 30.3608 72.4031 29.9389C72.1303 29.517 71.9961 28.9844 72.0004 28.3409V18.8295ZM81.2784 25.3239V31H78.5554V17.9091H81.2017V22.9141H81.3168C81.5384 22.3345 81.8963 21.8807 82.3906 21.5526C82.8849 21.2202 83.505 21.054 84.2507 21.054C84.9325 21.054 85.527 21.2031 86.0341 21.5014C86.5455 21.7955 86.9418 22.2195 87.223 22.7734C87.5085 23.3232 87.6491 23.9815 87.6449 24.7486V31H84.9219V25.2344C84.9261 24.6293 84.7727 24.1584 84.4616 23.8217C84.1548 23.4851 83.7244 23.3168 83.1705 23.3168C82.7997 23.3168 82.4716 23.3956 82.1861 23.5533C81.9048 23.7109 81.6832 23.9411 81.5213 24.2436C81.3636 24.5419 81.2827 24.902 81.2784 25.3239ZM94.2623 31.1918C93.2523 31.1918 92.383 30.9872 91.6543 30.5781C90.9299 30.1648 90.3716 29.581 89.9796 28.8267C89.5875 28.0682 89.3915 27.1712 89.3915 26.1357C89.3915 25.1257 89.5875 24.2393 89.9796 23.4766C90.3716 22.7138 90.9235 22.1193 91.6351 21.6932C92.351 21.267 93.1905 21.054 94.1536 21.054C94.8013 21.054 95.4043 21.1584 95.9625 21.3672C96.525 21.5717 97.0151 21.8807 97.4327 22.294C97.8546 22.7074 98.1827 23.2273 98.4171 23.8537C98.6515 24.4759 98.7686 25.2045 98.7686 26.0398V26.7876H90.4782V25.1001H96.2054C96.2054 24.7081 96.1202 24.3608 95.9498 24.0582C95.7793 23.7557 95.5428 23.5192 95.2402 23.3487C94.9419 23.174 94.5946 23.0866 94.1983 23.0866C93.785 23.0866 93.4185 23.1825 93.0989 23.3743C92.7836 23.5618 92.5364 23.8153 92.3574 24.1349C92.1784 24.4503 92.0868 24.8018 92.0826 25.1896V26.794C92.0826 27.2798 92.1721 27.6996 92.351 28.0533C92.5343 28.407 92.7921 28.6797 93.1245 28.8714C93.4569 29.0632 93.851 29.1591 94.307 29.1591C94.6096 29.1591 94.8865 29.1165 95.138 29.0312C95.3894 28.946 95.6046 28.8182 95.7836 28.6477C95.9625 28.4773 96.0989 28.2685 96.1926 28.0213L98.7111 28.1875C98.5833 28.7926 98.3212 29.321 97.9249 29.7727C97.5328 30.2202 97.0257 30.5696 96.4036 30.821C95.7857 31.0682 95.0719 31.1918 94.2623 31.1918ZM109.934 21.1818V23.2273H104.021V21.1818H109.934ZM105.364 18.8295H108.087V27.983C108.087 28.2344 108.125 28.4304 108.202 28.571C108.278 28.7074 108.385 28.8033 108.521 28.8587C108.662 28.9141 108.824 28.9418 109.007 28.9418C109.135 28.9418 109.263 28.9311 109.391 28.9098C109.518 28.8842 109.616 28.8651 109.685 28.8523L110.113 30.8786C109.977 30.9212 109.785 30.9702 109.538 31.0256C109.29 31.0852 108.99 31.1214 108.636 31.1342C107.98 31.1598 107.405 31.0724 106.911 30.8722C106.42 30.6719 106.039 30.3608 105.766 29.9389C105.494 29.517 105.359 28.9844 105.364 28.3409V18.8295ZM116.038 31.1918C115.045 31.1918 114.187 30.9808 113.462 30.5589C112.742 30.1328 112.186 29.5405 111.794 28.782C111.402 28.0192 111.206 27.1349 111.206 26.1293C111.206 25.1151 111.402 24.2287 111.794 23.4702C112.186 22.7074 112.742 22.1151 113.462 21.6932C114.187 21.267 115.045 21.054 116.038 21.054C117.031 21.054 117.888 21.267 118.608 21.6932C119.332 22.1151 119.891 22.7074 120.283 23.4702C120.675 24.2287 120.871 25.1151 120.871 26.1293C120.871 27.1349 120.675 28.0192 120.283 28.782C119.891 29.5405 119.332 30.1328 118.608 30.5589C117.888 30.9808 117.031 31.1918 116.038 31.1918ZM116.051 29.0824C116.503 29.0824 116.88 28.9545 117.183 28.6989C117.485 28.4389 117.713 28.0852 117.866 27.6378C118.024 27.1903 118.103 26.6811 118.103 26.1101C118.103 25.5391 118.024 25.0298 117.866 24.5824C117.713 24.1349 117.485 23.7812 117.183 23.5213C116.88 23.2614 116.503 23.1314 116.051 23.1314C115.595 23.1314 115.212 23.2614 114.901 23.5213C114.594 23.7812 114.362 24.1349 114.204 24.5824C114.05 25.0298 113.974 25.5391 113.974 26.1101C113.974 26.6811 114.05 27.1903 114.204 27.6378C114.362 28.0852 114.594 28.4389 114.901 28.6989C115.212 28.9545 115.595 29.0824 116.051 29.0824ZM125.441 31.1854C124.815 31.1854 124.256 31.0767 123.766 30.8594C123.276 30.6378 122.888 30.3118 122.603 29.8814C122.322 29.4467 122.181 28.9055 122.181 28.2578C122.181 27.7124 122.281 27.2543 122.482 26.8835C122.682 26.5128 122.955 26.2145 123.3 25.9886C123.645 25.7628 124.037 25.5923 124.476 25.4773C124.919 25.3622 125.384 25.2812 125.869 25.2344C126.44 25.1747 126.901 25.1193 127.25 25.0682C127.599 25.0128 127.853 24.9318 128.011 24.8253C128.168 24.7187 128.247 24.5611 128.247 24.3523V24.3139C128.247 23.9091 128.119 23.5959 127.864 23.3743C127.612 23.1527 127.254 23.0419 126.79 23.0419C126.3 23.0419 125.91 23.1506 125.62 23.3679C125.33 23.581 125.138 23.8494 125.045 24.1733L122.526 23.9688C122.654 23.3722 122.906 22.8565 123.281 22.4219C123.656 21.983 124.139 21.6463 124.732 21.4119C125.328 21.1733 126.018 21.054 126.803 21.054C127.348 21.054 127.87 21.1179 128.369 21.2457C128.871 21.3736 129.317 21.5717 129.705 21.8402C130.097 22.1087 130.406 22.4538 130.631 22.8757C130.857 23.2933 130.97 23.794 130.97 24.3778V31H128.388V29.6385H128.311C128.153 29.9453 127.942 30.2159 127.678 30.4503C127.414 30.6804 127.097 30.8615 126.726 30.9936C126.355 31.1214 125.927 31.1854 125.441 31.1854ZM126.221 29.3061C126.621 29.3061 126.975 29.2273 127.282 29.0696C127.589 28.9077 127.83 28.6903 128.004 28.4176C128.179 28.1449 128.266 27.8359 128.266 27.4908V26.4489C128.181 26.5043 128.064 26.5554 127.915 26.6023C127.77 26.6449 127.606 26.6854 127.423 26.7237C127.239 26.7578 127.056 26.7898 126.873 26.8196C126.69 26.8452 126.523 26.8686 126.374 26.8899C126.055 26.9368 125.776 27.0114 125.537 27.1136C125.298 27.2159 125.113 27.3544 124.981 27.5291C124.849 27.6996 124.783 27.9126 124.783 28.1683C124.783 28.5391 124.917 28.8224 125.185 29.0185C125.458 29.2102 125.803 29.3061 126.221 29.3061ZM141.252 23.9815L138.759 24.1349C138.716 23.9219 138.625 23.7301 138.484 23.5597C138.343 23.3849 138.158 23.2464 137.928 23.1442C137.702 23.0376 137.431 22.9844 137.116 22.9844C136.694 22.9844 136.338 23.0739 136.049 23.2528C135.759 23.4276 135.614 23.6619 135.614 23.956C135.614 24.1903 135.708 24.3885 135.895 24.5504C136.083 24.7124 136.404 24.8423 136.86 24.9403L138.637 25.2983C139.592 25.4943 140.304 25.8097 140.772 26.2443C141.241 26.679 141.475 27.25 141.475 27.9574C141.475 28.6009 141.286 29.1655 140.907 29.6513C140.532 30.1371 140.016 30.5163 139.36 30.7891C138.708 31.0575 137.956 31.1918 137.103 31.1918C135.804 31.1918 134.768 30.9212 133.997 30.38C133.23 29.8345 132.78 29.093 132.648 28.1555L135.326 28.0149C135.407 28.4112 135.603 28.7138 135.914 28.9226C136.225 29.1271 136.624 29.2294 137.11 29.2294C137.587 29.2294 137.971 29.1378 138.26 28.9545C138.554 28.767 138.703 28.5263 138.708 28.2322C138.703 27.9851 138.599 27.7827 138.395 27.625C138.19 27.4631 137.875 27.3395 137.449 27.2543L135.748 26.9155C134.789 26.7237 134.076 26.3913 133.607 25.9183C133.142 25.4453 132.91 24.8423 132.91 24.1094C132.91 23.4787 133.081 22.9354 133.422 22.4794C133.767 22.0234 134.25 21.6719 134.873 21.4247C135.499 21.1776 136.232 21.054 137.071 21.054C138.311 21.054 139.287 21.3161 139.999 21.8402C140.715 22.3643 141.132 23.0781 141.252 23.9815ZM148.412 21.1818V23.2273H142.5V21.1818H148.412ZM143.842 18.8295H146.565V27.983C146.565 28.2344 146.604 28.4304 146.68 28.571C146.757 28.7074 146.863 28.8033 147 28.8587C147.14 28.9141 147.302 28.9418 147.486 28.9418C147.613 28.9418 147.741 28.9311 147.869 28.9098C147.997 28.8842 148.095 28.8651 148.163 28.8523L148.591 30.8786C148.455 30.9212 148.263 30.9702 148.016 31.0256C147.769 31.0852 147.469 31.1214 147.115 31.1342C146.459 31.1598 145.883 31.0724 145.389 30.8722C144.899 30.6719 144.518 30.3608 144.245 29.9389C143.972 29.517 143.838 28.9844 143.842 28.3409V18.8295Z" fill="#344054"/>
<g filter="url(#filter0_d_5033_1501)">
<path d="M8 8H359C361.209 8 363 9.79086 363 12V156C363 158.209 361.209 160 359 160H8V8Z" fill="white"/>
<path d="M8.5 8.5H359C360.933 8.5 362.5 10.067 362.5 12V156C362.5 157.933 360.933 159.5 359 159.5H8.5V8.5Z" stroke="#FB7463"/>
<rect x="8" y="8" width="6" height="152" fill="#D7260F"/>
<path d="M42 43.875C39.9114 43.875 37.9084 43.0453 36.4315 41.5685C34.9547 40.0916 34.125 38.0886 34.125 36C34.125 33.9114 34.9547 31.9084 36.4315 30.4315C37.9084 28.9547 39.9114 28.125 42 28.125C44.0886 28.125 46.0916 28.9547 47.5685 30.4315C49.0453 31.9084 49.875 33.9114 49.875 36C49.875 38.0886 49.0453 40.0916 47.5685 41.5685C46.0916 43.0453 44.0886 43.875 42 43.875ZM42 45C44.3869 45 46.6761 44.0518 48.364 42.364C50.0518 40.6761 51 38.3869 51 36C51 33.6131 50.0518 31.3239 48.364 29.636C46.6761 27.9482 44.3869 27 42 27C39.6131 27 37.3239 27.9482 35.636 29.636C33.9482 31.3239 33 33.6131 33 36C33 38.3869 33.9482 40.6761 35.636 42.364C37.3239 44.0518 39.6131 45 42 45Z" fill="#D7260F"/>
<path d="M40.8772 39.3751C40.8772 39.2274 40.9063 39.0811 40.9628 38.9446C41.0194 38.8081 41.1022 38.6841 41.2067 38.5796C41.3112 38.4752 41.4352 38.3923 41.5717 38.3357C41.7082 38.2792 41.8545 38.2501 42.0022 38.2501C42.1499 38.2501 42.2962 38.2792 42.4327 38.3357C42.5692 38.3923 42.6932 38.4752 42.7977 38.5796C42.9022 38.6841 42.985 38.8081 43.0416 38.9446C43.0981 39.0811 43.1272 39.2274 43.1272 39.3751C43.1272 39.6735 43.0087 39.9596 42.7977 40.1706C42.5867 40.3816 42.3006 40.5001 42.0022 40.5001C41.7038 40.5001 41.4177 40.3816 41.2067 40.1706C40.9957 39.9596 40.8772 39.6735 40.8772 39.3751ZM40.9874 32.6195C40.9725 32.4776 40.9875 32.3341 41.0315 32.1983C41.0756 32.0626 41.1477 31.9376 41.2432 31.8315C41.3387 31.7254 41.4554 31.6406 41.5857 31.5826C41.7161 31.5245 41.8572 31.4945 41.9999 31.4945C42.1427 31.4945 42.2838 31.5245 42.4142 31.5826C42.5445 31.6406 42.6612 31.7254 42.7567 31.8315C42.8522 31.9376 42.9243 32.0626 42.9683 32.1983C43.0124 32.3341 43.0274 32.4776 43.0124 32.6195L42.6187 36.5649C42.6055 36.7199 42.5346 36.8642 42.42 36.9695C42.3054 37.0747 42.1555 37.133 41.9999 37.133C41.8444 37.133 41.6945 37.0747 41.5799 36.9695C41.4653 36.8642 41.3944 36.7199 41.3812 36.5649L40.9874 32.6195Z" fill="#D7260F"/>
<path d="M63.0114 42V30.3636H65.4716V39.9716H70.4602V42H63.0114ZM74.5327 42.1648C73.9759 42.1648 73.4796 42.0682 73.044 41.875C72.6084 41.678 72.2637 41.3883 72.0099 41.0057C71.7599 40.6193 71.6349 40.1383 71.6349 39.5625C71.6349 39.0777 71.724 38.6705 71.902 38.3409C72.08 38.0114 72.3224 37.7462 72.6293 37.5455C72.9361 37.3447 73.2846 37.1932 73.6747 37.0909C74.0687 36.9886 74.4815 36.9167 74.9134 36.875C75.4209 36.822 75.83 36.7727 76.1406 36.7273C76.4512 36.678 76.6766 36.6061 76.8168 36.5114C76.9569 36.4167 77.027 36.2765 77.027 36.0909V36.0568C77.027 35.697 76.9134 35.4186 76.6861 35.2216C76.4626 35.0246 76.1444 34.9261 75.7315 34.9261C75.2959 34.9261 74.9493 35.0227 74.6918 35.2159C74.4342 35.4053 74.2637 35.6439 74.1804 35.9318L71.9418 35.75C72.0554 35.2197 72.2789 34.7614 72.6122 34.375C72.9455 33.9848 73.3755 33.6856 73.902 33.4773C74.4323 33.2652 75.0459 33.1591 75.7429 33.1591C76.2277 33.1591 76.6918 33.2159 77.1349 33.3295C77.5819 33.4432 77.9777 33.6193 78.3224 33.858C78.6709 34.0966 78.9455 34.4034 79.1463 34.7784C79.3471 35.1496 79.4474 35.5947 79.4474 36.1136V42H77.152V40.7898H77.0838C76.9437 41.0625 76.7562 41.303 76.5213 41.5114C76.2865 41.7159 76.0043 41.8769 75.6747 41.9943C75.3452 42.108 74.9645 42.1648 74.5327 42.1648ZM75.2259 40.4943C75.5819 40.4943 75.8963 40.4242 76.169 40.2841C76.4418 40.1402 76.6558 39.947 76.8111 39.7045C76.9664 39.4621 77.044 39.1875 77.044 38.8807V37.9545C76.9683 38.0038 76.8641 38.0492 76.7315 38.0909C76.6027 38.1288 76.4569 38.1648 76.294 38.1989C76.1312 38.2292 75.9683 38.2576 75.8054 38.2841C75.6425 38.3068 75.4948 38.3277 75.3622 38.3466C75.0781 38.3883 74.83 38.4545 74.6179 38.5455C74.4058 38.6364 74.241 38.7595 74.1236 38.9148C74.0062 39.0663 73.9474 39.2557 73.9474 39.483C73.9474 39.8125 74.0668 40.0644 74.3054 40.2386C74.5478 40.4091 74.8546 40.4943 75.2259 40.4943ZM86.9219 38.2841V33.2727H89.3423V42H87.0185V40.4148H86.9276C86.7306 40.9261 86.4029 41.3371 85.9446 41.6477C85.4901 41.9583 84.9351 42.1136 84.2798 42.1136C83.6965 42.1136 83.1832 41.9811 82.7401 41.7159C82.2969 41.4508 81.9503 41.0739 81.7003 40.5852C81.4541 40.0966 81.3291 39.5114 81.3253 38.8295V33.2727H83.7457V38.3977C83.7495 38.9129 83.8878 39.3201 84.1605 39.6193C84.4332 39.9186 84.7988 40.0682 85.2571 40.0682C85.5488 40.0682 85.8215 40.0019 86.0753 39.8693C86.3291 39.733 86.5336 39.5322 86.6889 39.267C86.848 39.0019 86.9257 38.6742 86.9219 38.2841ZM93.6989 36.9545V42H91.2784V33.2727H93.5852V34.8125H93.6875C93.8807 34.3049 94.2045 33.9034 94.6591 33.608C95.1136 33.3087 95.6648 33.1591 96.3125 33.1591C96.9186 33.1591 97.447 33.2917 97.8977 33.5568C98.3485 33.822 98.6989 34.2008 98.9489 34.6932C99.1989 35.1818 99.3239 35.7652 99.3239 36.4432V42H96.9034V36.875C96.9072 36.3409 96.7708 35.9242 96.4943 35.625C96.2178 35.322 95.8371 35.1705 95.3523 35.1705C95.0265 35.1705 94.7386 35.2405 94.4886 35.3807C94.2424 35.5208 94.0492 35.7254 93.9091 35.9943C93.7727 36.2595 93.7027 36.5795 93.6989 36.9545ZM105.175 42.1705C104.281 42.1705 103.512 41.9811 102.868 41.6023C102.228 41.2197 101.735 40.6894 101.391 40.0114C101.05 39.3333 100.879 38.553 100.879 37.6705C100.879 36.7765 101.052 35.9924 101.396 35.3182C101.745 34.6402 102.239 34.1117 102.879 33.733C103.519 33.3504 104.281 33.1591 105.163 33.1591C105.925 33.1591 106.591 33.2973 107.163 33.5739C107.735 33.8504 108.188 34.2386 108.521 34.7386C108.855 35.2386 109.038 35.8258 109.072 36.5H106.788C106.724 36.0644 106.554 35.714 106.277 35.4489C106.004 35.1799 105.646 35.0455 105.203 35.0455C104.828 35.0455 104.5 35.1477 104.22 35.3523C103.944 35.553 103.728 35.8466 103.572 36.233C103.417 36.6193 103.339 37.0871 103.339 37.6364C103.339 38.1932 103.415 38.6667 103.567 39.0568C103.722 39.447 103.94 39.7443 104.22 39.9489C104.5 40.1534 104.828 40.2557 105.203 40.2557C105.48 40.2557 105.728 40.1989 105.947 40.0852C106.171 39.9716 106.355 39.8068 106.499 39.5909C106.646 39.3712 106.743 39.108 106.788 38.8011H109.072C109.035 39.4678 108.853 40.0549 108.527 40.5625C108.205 41.0663 107.76 41.4602 107.192 41.7443C106.624 42.0284 105.951 42.1705 105.175 42.1705ZM113.043 36.9545V42H110.622V30.3636H112.974V34.8125H113.077C113.274 34.2973 113.592 33.8939 114.031 33.6023C114.471 33.3068 115.022 33.1591 115.685 33.1591C116.291 33.1591 116.819 33.2917 117.27 33.5568C117.724 33.8182 118.077 34.1951 118.327 34.6875C118.58 35.1761 118.705 35.7614 118.702 36.4432V42H116.281V36.875C116.285 36.3371 116.149 35.9186 115.872 35.6193C115.599 35.3201 115.217 35.1705 114.724 35.1705C114.395 35.1705 114.103 35.2405 113.849 35.3807C113.599 35.5208 113.402 35.7254 113.259 35.9943C113.118 36.2595 113.046 36.5795 113.043 36.9545ZM124.355 42V30.3636H132.06V32.392H126.815V35.1648H131.548V37.1932H126.815V42H124.355ZM136.048 42.1648C135.491 42.1648 134.995 42.0682 134.56 41.875C134.124 41.678 133.779 41.3883 133.526 41.0057C133.276 40.6193 133.151 40.1383 133.151 39.5625C133.151 39.0777 133.24 38.6705 133.418 38.3409C133.596 38.0114 133.838 37.7462 134.145 37.5455C134.452 37.3447 134.8 37.1932 135.19 37.0909C135.584 36.9886 135.997 36.9167 136.429 36.875C136.937 36.822 137.346 36.7727 137.656 36.7273C137.967 36.678 138.192 36.6061 138.332 36.5114C138.473 36.4167 138.543 36.2765 138.543 36.0909V36.0568C138.543 35.697 138.429 35.4186 138.202 35.2216C137.978 35.0246 137.66 34.9261 137.247 34.9261C136.812 34.9261 136.465 35.0227 136.207 35.2159C135.95 35.4053 135.779 35.6439 135.696 35.9318L133.457 35.75C133.571 35.2197 133.795 34.7614 134.128 34.375C134.461 33.9848 134.891 33.6856 135.418 33.4773C135.948 33.2652 136.562 33.1591 137.259 33.1591C137.743 33.1591 138.207 33.2159 138.651 33.3295C139.098 33.4432 139.493 33.6193 139.838 33.858C140.187 34.0966 140.461 34.4034 140.662 34.7784C140.863 35.1496 140.963 35.5947 140.963 36.1136V42H138.668V40.7898H138.599C138.459 41.0625 138.272 41.303 138.037 41.5114C137.802 41.7159 137.52 41.8769 137.19 41.9943C136.861 42.108 136.48 42.1648 136.048 42.1648ZM136.741 40.4943C137.098 40.4943 137.412 40.4242 137.685 40.2841C137.957 40.1402 138.171 39.947 138.327 39.7045C138.482 39.4621 138.56 39.1875 138.56 38.8807V37.9545C138.484 38.0038 138.38 38.0492 138.247 38.0909C138.118 38.1288 137.973 38.1648 137.81 38.1989C137.647 38.2292 137.484 38.2576 137.321 38.2841C137.158 38.3068 137.01 38.3277 136.878 38.3466C136.594 38.3883 136.346 38.4545 136.134 38.5455C135.921 38.6364 135.757 38.7595 135.639 38.9148C135.522 39.0663 135.463 39.2557 135.463 39.483C135.463 39.8125 135.582 40.0644 135.821 40.2386C136.063 40.4091 136.37 40.4943 136.741 40.4943ZM142.841 42V33.2727H145.261V42H142.841ZM144.057 32.1477C143.697 32.1477 143.388 32.0284 143.131 31.7898C142.877 31.5473 142.75 31.2576 142.75 30.9205C142.75 30.5871 142.877 30.3011 143.131 30.0625C143.388 29.8201 143.697 29.6989 144.057 29.6989C144.417 29.6989 144.723 29.8201 144.977 30.0625C145.235 30.3011 145.364 30.5871 145.364 30.9205C145.364 31.2576 145.235 31.5473 144.977 31.7898C144.723 32.0284 144.417 32.1477 144.057 32.1477ZM149.621 30.3636V42H147.2V30.3636H149.621ZM155.537 42.1705C154.639 42.1705 153.866 41.9886 153.219 41.625C152.575 41.2576 152.079 40.7386 151.73 40.0682C151.382 39.3939 151.207 38.5966 151.207 37.6761C151.207 36.7784 151.382 35.9905 151.73 35.3125C152.079 34.6345 152.569 34.1061 153.202 33.7273C153.838 33.3485 154.584 33.1591 155.44 33.1591C156.016 33.1591 156.552 33.2519 157.048 33.4375C157.548 33.6193 157.984 33.8939 158.355 34.2614C158.73 34.6288 159.022 35.0909 159.23 35.6477C159.438 36.2008 159.543 36.8485 159.543 37.5909V38.2557H152.173V36.7557H157.264C157.264 36.4072 157.188 36.0985 157.037 35.8295C156.885 35.5606 156.675 35.3504 156.406 35.1989C156.141 35.0436 155.832 34.9659 155.48 34.9659C155.113 34.9659 154.787 35.0511 154.503 35.2216C154.223 35.3883 154.003 35.6136 153.844 35.8977C153.685 36.178 153.603 36.4905 153.599 36.8352V38.2614C153.599 38.6932 153.679 39.0663 153.838 39.3807C154.001 39.6951 154.23 39.9375 154.526 40.108C154.821 40.2784 155.171 40.3636 155.577 40.3636C155.846 40.3636 156.092 40.3258 156.315 40.25C156.539 40.1742 156.73 40.0606 156.889 39.9091C157.048 39.7576 157.17 39.572 157.253 39.3523L159.491 39.5C159.378 40.0379 159.145 40.5076 158.793 40.9091C158.444 41.3068 157.993 41.6174 157.44 41.8409C156.891 42.0606 156.257 42.1705 155.537 42.1705ZM164.338 42.142C163.675 42.142 163.075 41.9716 162.537 41.6307C162.003 41.286 161.579 40.7803 161.264 40.1136C160.954 39.4432 160.798 38.6212 160.798 37.6477C160.798 36.6477 160.959 35.8163 161.281 35.1534C161.603 34.4867 162.031 33.9886 162.565 33.6591C163.103 33.3258 163.692 33.1591 164.332 33.1591C164.821 33.1591 165.228 33.2424 165.554 33.4091C165.884 33.572 166.149 33.7765 166.349 34.0227C166.554 34.2652 166.709 34.5038 166.815 34.7386H166.889V30.3636H169.304V42H166.918V40.6023H166.815C166.702 40.8447 166.541 41.0852 166.332 41.3239C166.128 41.5587 165.861 41.7538 165.531 41.9091C165.205 42.0644 164.808 42.142 164.338 42.142ZM165.105 40.2159C165.495 40.2159 165.825 40.1098 166.094 39.8977C166.366 39.6818 166.575 39.3807 166.719 38.9943C166.866 38.608 166.94 38.1553 166.94 37.6364C166.94 37.1174 166.868 36.6667 166.724 36.2841C166.58 35.9015 166.372 35.6061 166.099 35.3977C165.827 35.1894 165.495 35.0852 165.105 35.0852C164.707 35.0852 164.372 35.1932 164.099 35.4091C163.827 35.625 163.62 35.9242 163.48 36.3068C163.34 36.6894 163.27 37.1326 163.27 37.6364C163.27 38.1439 163.34 38.5928 163.48 38.983C163.624 39.3693 163.83 39.6723 164.099 39.892C164.372 40.108 164.707 40.2159 165.105 40.2159Z" fill="#D7260F"/>
<path fill-rule="evenodd" clip-rule="evenodd" d="M328.614 29.6139C328.755 29.4733 328.945 29.3943 329.144 29.3943C329.343 29.3943 329.534 29.4733 329.675 29.6139L334.978 34.9172L340.281 29.6139C340.422 29.4733 340.613 29.3943 340.812 29.3943C341.01 29.3943 341.201 29.4733 341.342 29.6139C341.483 29.7546 341.562 29.9454 341.562 30.1443C341.562 30.3432 341.483 30.534 341.342 30.6746L336.039 35.9779L341.342 41.2812C341.483 41.4219 341.562 41.6126 341.562 41.8115C341.562 42.0104 341.483 42.2012 341.342 42.3419C341.201 42.4825 341.01 42.5615 340.812 42.5615C340.613 42.5615 340.422 42.4825 340.281 42.3419L334.978 37.0386L329.675 42.3419C329.534 42.4825 329.343 42.5615 329.144 42.5615C328.945 42.5615 328.755 42.4825 328.614 42.3419C328.473 42.2012 328.394 42.0104 328.394 41.8115C328.394 41.6126 328.473 41.4219 328.614 41.2812L333.917 35.9779L328.614 30.6746C328.473 30.534 328.394 30.3432 328.394 30.1443C328.394 29.9454 328.473 29.7546 328.614 29.6139Z" fill="#667085"/>
<path d="M31.4091 78V66.3636H35.3409C36.25 66.3636 36.9962 66.5189 37.5795 66.8295C38.1629 67.1364 38.5947 67.5587 38.875 68.0966C39.1553 68.6345 39.2955 69.2462 39.2955 69.9318C39.2955 70.6174 39.1553 71.2254 38.875 71.7557C38.5947 72.286 38.1648 72.7027 37.5852 73.0057C37.0057 73.3049 36.2652 73.4545 35.3636 73.4545H32.1818V72.1818H35.3182C35.9394 72.1818 36.4394 72.0909 36.8182 71.9091C37.2008 71.7273 37.4773 71.4697 37.6477 71.1364C37.822 70.7992 37.9091 70.3977 37.9091 69.9318C37.9091 69.4659 37.822 69.0587 37.6477 68.7102C37.4735 68.3617 37.1951 68.0928 36.8125 67.9034C36.4299 67.7102 35.9242 67.6136 35.2955 67.6136H32.8182V78H31.4091ZM36.8864 72.7727L39.75 78H38.1136L35.2955 72.7727H36.8864ZM45.027 78.1818C44.1861 78.1818 43.4607 77.9962 42.8509 77.625C42.2448 77.25 41.777 76.7273 41.4474 76.0568C41.1217 75.3826 40.9588 74.5985 40.9588 73.7045C40.9588 72.8106 41.1217 72.0227 41.4474 71.3409C41.777 70.6553 42.2353 70.1212 42.8224 69.7386C43.4134 69.3523 44.1027 69.1591 44.8906 69.1591C45.3452 69.1591 45.794 69.2348 46.2372 69.3864C46.6804 69.5379 47.0838 69.7841 47.4474 70.125C47.8111 70.4621 48.1009 70.9091 48.3168 71.4659C48.5327 72.0227 48.6406 72.7083 48.6406 73.5227V74.0909H41.9134V72.9318H47.277C47.277 72.4394 47.1785 72 46.9815 71.6136C46.7884 71.2273 46.5118 70.9223 46.152 70.6989C45.7959 70.4754 45.3755 70.3636 44.8906 70.3636C44.3565 70.3636 43.8944 70.4962 43.5043 70.7614C43.1179 71.0227 42.8205 71.3636 42.6122 71.7841C42.4039 72.2045 42.2997 72.6553 42.2997 73.1364V73.9091C42.2997 74.5682 42.4134 75.1269 42.6406 75.5852C42.8717 76.0398 43.1918 76.3864 43.6009 76.625C44.0099 76.8598 44.4853 76.9773 45.027 76.9773C45.3793 76.9773 45.6974 76.928 45.9815 76.8295C46.2694 76.7273 46.5175 76.5758 46.7259 76.375C46.9342 76.1705 47.0952 75.9167 47.2088 75.6136L48.5043 75.9773C48.3679 76.4167 48.1387 76.803 47.8168 77.1364C47.4948 77.4659 47.0971 77.7235 46.6236 77.9091C46.1501 78.0909 45.6179 78.1818 45.027 78.1818ZM56.6349 81.2727V76.6591H56.5213C56.4228 76.8182 56.2827 77.0189 56.1009 77.2614C55.919 77.5 55.6596 77.714 55.3224 77.9034C54.9853 78.089 54.5365 78.1818 53.9759 78.1818C53.2486 78.1818 52.6065 77.9981 52.0497 77.6307C51.4929 77.2595 51.0573 76.7367 50.7429 76.0625C50.4285 75.3845 50.2713 74.5833 50.2713 73.6591C50.2713 72.7424 50.4285 71.947 50.7429 71.2727C51.0573 70.5985 51.4948 70.0777 52.0554 69.7102C52.616 69.3428 53.2637 69.1591 53.9986 69.1591C54.5668 69.1591 55.0156 69.2538 55.3452 69.4432C55.6785 69.6288 55.9323 69.8409 56.1065 70.0795C56.2846 70.3144 56.4228 70.5076 56.5213 70.6591H56.6804V69.2727H57.9759V81.2727H56.6349ZM54.1577 76.9773C54.6955 76.9773 55.1501 76.8371 55.5213 76.5568C55.8925 76.2727 56.1747 75.8807 56.3679 75.3807C56.5611 74.8769 56.6577 74.2955 56.6577 73.6364C56.6577 72.9848 56.563 72.4148 56.3736 71.9261C56.1842 71.4337 55.9039 71.0511 55.5327 70.7784C55.1615 70.5019 54.7031 70.3636 54.1577 70.3636C53.5895 70.3636 53.116 70.5095 52.7372 70.8011C52.3622 71.089 52.08 71.4811 51.8906 71.9773C51.705 72.4697 51.6122 73.0227 51.6122 73.6364C51.6122 74.2576 51.7069 74.822 51.8963 75.3295C52.0895 75.8333 52.3736 76.2348 52.7486 76.5341C53.1274 76.8295 53.5971 76.9773 54.1577 76.9773ZM65.9304 74.4318V69.2727H67.2713V78H65.9304V76.5227H65.8395C65.6349 76.9659 65.3168 77.3428 64.8849 77.6534C64.4531 77.9602 63.9077 78.1136 63.2486 78.1136C62.7031 78.1136 62.2183 77.9943 61.794 77.7557C61.3698 77.5133 61.0365 77.1496 60.794 76.6648C60.5516 76.1761 60.4304 75.5606 60.4304 74.8182V69.2727H61.7713V74.7273C61.7713 75.3636 61.9493 75.8712 62.3054 76.25C62.6652 76.6288 63.1236 76.8182 63.6804 76.8182C64.0137 76.8182 64.3527 76.733 64.6974 76.5625C65.0459 76.392 65.3376 76.1307 65.5724 75.7784C65.8111 75.4261 65.9304 74.9773 65.9304 74.4318ZM73.3864 78.1818C72.5455 78.1818 71.8201 77.9962 71.2102 77.625C70.6042 77.25 70.1364 76.7273 69.8068 76.0568C69.4811 75.3826 69.3182 74.5985 69.3182 73.7045C69.3182 72.8106 69.4811 72.0227 69.8068 71.3409C70.1364 70.6553 70.5947 70.1212 71.1818 69.7386C71.7727 69.3523 72.4621 69.1591 73.25 69.1591C73.7045 69.1591 74.1534 69.2348 74.5966 69.3864C75.0398 69.5379 75.4432 69.7841 75.8068 70.125C76.1705 70.4621 76.4602 70.9091 76.6761 71.4659C76.892 72.0227 77 72.7083 77 73.5227V74.0909H70.2727V72.9318H75.6364C75.6364 72.4394 75.5379 72 75.3409 71.6136C75.1477 71.2273 74.8712 70.9223 74.5114 70.6989C74.1553 70.4754 73.7348 70.3636 73.25 70.3636C72.7159 70.3636 72.2538 70.4962 71.8636 70.7614C71.4773 71.0227 71.1799 71.3636 70.9716 71.7841C70.7633 72.2045 70.6591 72.6553 70.6591 73.1364V73.9091C70.6591 74.5682 70.7727 75.1269 71 75.5852C71.2311 76.0398 71.5511 76.3864 71.9602 76.625C72.3693 76.8598 72.8447 76.9773 73.3864 76.9773C73.7386 76.9773 74.0568 76.928 74.3409 76.8295C74.6288 76.7273 74.8769 76.5758 75.0852 76.375C75.2936 76.1705 75.4545 75.9167 75.5682 75.6136L76.8636 75.9773C76.7273 76.4167 76.4981 76.803 76.1761 77.1364C75.8542 77.4659 75.4564 77.7235 74.983 77.9091C74.5095 78.0909 73.9773 78.1818 73.3864 78.1818ZM85.2216 71.2273L84.017 71.5682C83.9413 71.3674 83.8295 71.1723 83.6818 70.983C83.5379 70.7898 83.3409 70.6307 83.0909 70.5057C82.8409 70.3807 82.5208 70.3182 82.1307 70.3182C81.5966 70.3182 81.1515 70.4413 80.7955 70.6875C80.4432 70.9299 80.267 71.2386 80.267 71.6136C80.267 71.947 80.3883 72.2102 80.6307 72.4034C80.8731 72.5966 81.2519 72.7576 81.767 72.8864L83.0625 73.2045C83.8428 73.3939 84.4242 73.6837 84.8068 74.0739C85.1894 74.4602 85.3807 74.9583 85.3807 75.5682C85.3807 76.0682 85.2367 76.5152 84.9489 76.9091C84.6648 77.303 84.267 77.6136 83.7557 77.8409C83.2443 78.0682 82.6496 78.1818 81.9716 78.1818C81.0814 78.1818 80.3447 77.9886 79.7614 77.6023C79.178 77.2159 78.8087 76.6515 78.6534 75.9091L79.9261 75.5909C80.0473 76.0606 80.2765 76.4129 80.6136 76.6477C80.9545 76.8826 81.3996 77 81.9489 77C82.5739 77 83.0701 76.8674 83.4375 76.6023C83.8087 76.3333 83.9943 76.0114 83.9943 75.6364C83.9943 75.3333 83.8883 75.0795 83.6761 74.875C83.464 74.6667 83.1383 74.5114 82.6989 74.4091L81.2443 74.0682C80.4451 73.8788 79.858 73.5852 79.483 73.1875C79.1117 72.786 78.9261 72.2841 78.9261 71.6818C78.9261 71.1894 79.0644 70.7538 79.3409 70.375C79.6212 69.9962 80.0019 69.6989 80.483 69.483C80.9678 69.267 81.517 69.1591 82.1307 69.1591C82.9943 69.1591 83.6723 69.3485 84.1648 69.7273C84.661 70.1061 85.0133 70.6061 85.2216 71.2273ZM91.1946 69.2727V70.4091H86.6719V69.2727H91.1946ZM87.9901 67.1818H89.331V75.5C89.331 75.8788 89.3859 76.1629 89.4957 76.3523C89.6094 76.5379 89.7533 76.6629 89.9276 76.7273C90.1056 76.7879 90.2931 76.8182 90.4901 76.8182C90.6378 76.8182 90.759 76.8106 90.8537 76.7955C90.9484 76.7765 91.0241 76.7614 91.081 76.75L91.3537 77.9545C91.2628 77.9886 91.1359 78.0227 90.973 78.0568C90.8101 78.0947 90.6037 78.1136 90.3537 78.1136C89.9749 78.1136 89.6037 78.0322 89.2401 77.8693C88.8802 77.7064 88.581 77.4583 88.3423 77.125C88.1075 76.7917 87.9901 76.3712 87.9901 75.8636V67.1818ZM99.0526 66.3636V78H97.7116V66.3636H99.0526ZM101.509 78V69.2727H102.849V78H101.509ZM102.19 67.8182C101.929 67.8182 101.704 67.7292 101.514 67.5511C101.329 67.3731 101.236 67.1591 101.236 66.9091C101.236 66.6591 101.329 66.4451 101.514 66.267C101.704 66.089 101.929 66 102.19 66C102.452 66 102.675 66.089 102.861 66.267C103.05 66.4451 103.145 66.6591 103.145 66.9091C103.145 67.1591 103.05 67.3731 102.861 67.5511C102.675 67.7292 102.452 67.8182 102.19 67.8182ZM105.305 78V69.2727H106.601V70.6364H106.714C106.896 70.1705 107.19 69.8087 107.595 69.5511C108 69.2898 108.487 69.1591 109.055 69.1591C109.631 69.1591 110.11 69.2898 110.493 69.5511C110.879 69.8087 111.18 70.1705 111.396 70.6364H111.487C111.711 70.1856 112.046 69.8277 112.493 69.5625C112.94 69.2936 113.476 69.1591 114.101 69.1591C114.881 69.1591 115.519 69.4034 116.016 69.892C116.512 70.3769 116.76 71.1326 116.76 72.1591V78H115.419V72.1591C115.419 71.5152 115.243 71.0549 114.891 70.7784C114.538 70.5019 114.124 70.3636 113.646 70.3636C113.033 70.3636 112.557 70.5492 112.22 70.9205C111.883 71.2879 111.714 71.7538 111.714 72.3182V78H110.351V72.0227C110.351 71.5265 110.19 71.1269 109.868 70.8239C109.546 70.517 109.131 70.3636 108.624 70.3636C108.275 70.3636 107.949 70.4564 107.646 70.642C107.347 70.8277 107.105 71.0852 106.919 71.4148C106.737 71.7405 106.646 72.1174 106.646 72.5455V78H105.305ZM119.212 78V69.2727H120.553V78H119.212ZM119.893 67.8182C119.632 67.8182 119.407 67.7292 119.217 67.5511C119.032 67.3731 118.939 67.1591 118.939 66.9091C118.939 66.6591 119.032 66.4451 119.217 66.267C119.407 66.089 119.632 66 119.893 66C120.155 66 120.378 66.089 120.564 66.267C120.753 66.4451 120.848 66.6591 120.848 66.9091C120.848 67.1591 120.753 67.3731 120.564 67.5511C120.378 67.7292 120.155 67.8182 119.893 67.8182ZM126.804 69.2727V70.4091H122.281V69.2727H126.804ZM123.599 67.1818H124.94V75.5C124.94 75.8788 124.995 76.1629 125.105 76.3523C125.219 76.5379 125.363 76.6629 125.537 76.7273C125.715 76.7879 125.902 76.8182 126.099 76.8182C126.247 76.8182 126.368 76.8106 126.463 76.7955C126.558 76.7765 126.634 76.7614 126.69 76.75L126.963 77.9545C126.872 77.9886 126.745 78.0227 126.582 78.0568C126.42 78.0947 126.213 78.1136 125.963 78.1136C125.584 78.1136 125.213 78.0322 124.849 77.8693C124.49 77.7064 124.19 77.4583 123.952 77.125C123.717 76.7917 123.599 76.3712 123.599 75.8636V67.1818ZM136.98 78.1818C136.139 78.1818 135.414 77.9962 134.804 77.625C134.198 77.25 133.73 76.7273 133.401 76.0568C133.075 75.3826 132.912 74.5985 132.912 73.7045C132.912 72.8106 133.075 72.0227 133.401 71.3409C133.73 70.6553 134.188 70.1212 134.776 69.7386C135.366 69.3523 136.056 69.1591 136.844 69.1591C137.298 69.1591 137.747 69.2348 138.19 69.3864C138.634 69.5379 139.037 69.7841 139.401 70.125C139.764 70.4621 140.054 70.9091 140.27 71.4659C140.486 72.0227 140.594 72.7083 140.594 73.5227V74.0909H133.866V72.9318H139.23C139.23 72.4394 139.132 72 138.935 71.6136C138.741 71.2273 138.465 70.9223 138.105 70.6989C137.749 70.4754 137.329 70.3636 136.844 70.3636C136.31 70.3636 135.848 70.4962 135.457 70.7614C135.071 71.0227 134.774 71.3636 134.565 71.7841C134.357 72.2045 134.253 72.6553 134.253 73.1364V73.9091C134.253 74.5682 134.366 75.1269 134.594 75.5852C134.825 76.0398 135.145 76.3864 135.554 76.625C135.963 76.8598 136.438 76.9773 136.98 76.9773C137.332 76.9773 137.651 76.928 137.935 76.8295C138.223 76.7273 138.471 76.5758 138.679 76.375C138.887 76.1705 139.048 75.9167 139.162 75.6136L140.457 75.9773C140.321 76.4167 140.092 76.803 139.77 77.1364C139.448 77.4659 139.05 77.7235 138.577 77.9091C138.103 78.0909 137.571 78.1818 136.98 78.1818ZM143.399 69.2727L145.49 72.8409L147.581 69.2727H149.126L146.308 73.6364L149.126 78H147.581L145.49 74.6136L143.399 78H141.854L144.626 73.6364L141.854 69.2727H143.399ZM154.226 78.1818C153.408 78.1818 152.703 77.9886 152.112 77.6023C151.521 77.2159 151.067 76.6837 150.749 76.0057C150.43 75.3277 150.271 74.553 150.271 73.6818C150.271 72.7955 150.434 72.0133 150.76 71.3352C151.089 70.6534 151.548 70.1212 152.135 69.7386C152.726 69.3523 153.415 69.1591 154.203 69.1591C154.817 69.1591 155.37 69.2727 155.862 69.5C156.355 69.7273 156.758 70.0455 157.072 70.4545C157.387 70.8636 157.582 71.3409 157.658 71.8864H156.317C156.214 71.4886 155.987 71.1364 155.635 70.8295C155.286 70.5189 154.817 70.3636 154.226 70.3636C153.703 70.3636 153.245 70.5 152.851 70.7727C152.461 71.0417 152.156 71.4223 151.936 71.9148C151.72 72.4034 151.612 72.9773 151.612 73.6364C151.612 74.3106 151.718 74.8977 151.93 75.3977C152.146 75.8977 152.449 76.286 152.839 76.5625C153.233 76.839 153.696 76.9773 154.226 76.9773C154.574 76.9773 154.891 76.9167 155.175 76.7955C155.459 76.6742 155.699 76.5 155.896 76.2727C156.093 76.0455 156.233 75.7727 156.317 75.4545H157.658C157.582 75.9697 157.394 76.4337 157.095 76.8466C156.8 77.2557 156.408 77.5814 155.919 77.8239C155.434 78.0625 154.87 78.1818 154.226 78.1818ZM163.277 78.1818C162.436 78.1818 161.711 77.9962 161.101 77.625C160.495 77.25 160.027 76.7273 159.697 76.0568C159.372 75.3826 159.209 74.5985 159.209 73.7045C159.209 72.8106 159.372 72.0227 159.697 71.3409C160.027 70.6553 160.485 70.1212 161.072 69.7386C161.663 69.3523 162.353 69.1591 163.141 69.1591C163.595 69.1591 164.044 69.2348 164.487 69.3864C164.93 69.5379 165.334 69.7841 165.697 70.125C166.061 70.4621 166.351 70.9091 166.567 71.4659C166.783 72.0227 166.891 72.7083 166.891 73.5227V74.0909H160.163V72.9318H165.527C165.527 72.4394 165.429 72 165.232 71.6136C165.038 71.2273 164.762 70.9223 164.402 70.6989C164.046 70.4754 163.625 70.3636 163.141 70.3636C162.607 70.3636 162.144 70.4962 161.754 70.7614C161.368 71.0227 161.071 71.3636 160.862 71.7841C160.654 72.2045 160.55 72.6553 160.55 73.1364V73.9091C160.55 74.5682 160.663 75.1269 160.891 75.5852C161.122 76.0398 161.442 76.3864 161.851 76.625C162.26 76.8598 162.735 76.9773 163.277 76.9773C163.629 76.9773 163.947 76.928 164.232 76.8295C164.519 76.7273 164.768 76.5758 164.976 76.375C165.184 76.1705 165.345 75.9167 165.459 75.6136L166.754 75.9773C166.618 76.4167 166.389 76.803 166.067 77.1364C165.745 77.4659 165.347 77.7235 164.874 77.9091C164.4 78.0909 163.868 78.1818 163.277 78.1818ZM172.589 78.1818C171.749 78.1818 171.023 77.9962 170.413 77.625C169.807 77.25 169.339 76.7273 169.01 76.0568C168.684 75.3826 168.521 74.5985 168.521 73.7045C168.521 72.8106 168.684 72.0227 169.01 71.3409C169.339 70.6553 169.798 70.1212 170.385 69.7386C170.976 69.3523 171.665 69.1591 172.453 69.1591C172.908 69.1591 173.357 69.2348 173.8 69.3864C174.243 69.5379 174.646 69.7841 175.01 70.125C175.374 70.4621 175.663 70.9091 175.879 71.4659C176.095 72.0227 176.203 72.7083 176.203 73.5227V74.0909H169.476V72.9318H174.839C174.839 72.4394 174.741 72 174.544 71.6136C174.351 71.2273 174.074 70.9223 173.714 70.6989C173.358 70.4754 172.938 70.3636 172.453 70.3636C171.919 70.3636 171.457 70.4962 171.067 70.7614C170.68 71.0227 170.383 71.3636 170.175 71.7841C169.966 72.2045 169.862 72.6553 169.862 73.1364V73.9091C169.862 74.5682 169.976 75.1269 170.203 75.5852C170.434 76.0398 170.754 76.3864 171.163 76.625C171.572 76.8598 172.048 76.9773 172.589 76.9773C172.942 76.9773 173.26 76.928 173.544 76.8295C173.832 76.7273 174.08 76.5758 174.288 76.375C174.497 76.1705 174.658 75.9167 174.771 75.6136L176.067 75.9773C175.93 76.4167 175.701 76.803 175.379 77.1364C175.057 77.4659 174.66 77.7235 174.186 77.9091C173.713 78.0909 173.18 78.1818 172.589 78.1818ZM181.538 78.1818C180.811 78.1818 180.169 77.9981 179.612 77.6307C179.055 77.2595 178.62 76.7367 178.305 76.0625C177.991 75.3845 177.834 74.5833 177.834 73.6591C177.834 72.7424 177.991 71.947 178.305 71.2727C178.62 70.5985 179.057 70.0777 179.618 69.7102C180.179 69.3428 180.826 69.1591 181.561 69.1591C182.129 69.1591 182.578 69.2538 182.908 69.4432C183.241 69.6288 183.495 69.8409 183.669 70.0795C183.847 70.3144 183.985 70.5076 184.084 70.6591H184.197V66.3636H185.538V78H184.243V76.6591H184.084C183.985 76.8182 183.845 77.0189 183.663 77.2614C183.482 77.5 183.222 77.714 182.885 77.9034C182.548 78.089 182.099 78.1818 181.538 78.1818ZM181.72 76.9773C182.258 76.9773 182.713 76.8371 183.084 76.5568C183.455 76.2727 183.737 75.8807 183.93 75.3807C184.124 74.8769 184.22 74.2955 184.22 73.6364C184.22 72.9848 184.125 72.4148 183.936 71.9261C183.747 71.4337 183.466 71.0511 183.095 70.7784C182.724 70.5019 182.266 70.3636 181.72 70.3636C181.152 70.3636 180.679 70.5095 180.3 70.8011C179.925 71.089 179.643 71.4811 179.453 71.9773C179.268 72.4697 179.175 73.0227 179.175 73.6364C179.175 74.2576 179.269 74.822 179.459 75.3295C179.652 75.8333 179.936 76.2348 180.311 76.5341C180.69 76.8295 181.16 76.9773 181.72 76.9773ZM191.839 78.1818C190.999 78.1818 190.273 77.9962 189.663 77.625C189.057 77.25 188.589 76.7273 188.26 76.0568C187.934 75.3826 187.771 74.5985 187.771 73.7045C187.771 72.8106 187.934 72.0227 188.26 71.3409C188.589 70.6553 189.048 70.1212 189.635 69.7386C190.226 69.3523 190.915 69.1591 191.703 69.1591C192.158 69.1591 192.607 69.2348 193.05 69.3864C193.493 69.5379 193.896 69.7841 194.26 70.125C194.624 70.4621 194.913 70.9091 195.129 71.4659C195.345 72.0227 195.453 72.7083 195.453 73.5227V74.0909H188.726V72.9318H194.089C194.089 72.4394 193.991 72 193.794 71.6136C193.601 71.2273 193.324 70.9223 192.964 70.6989C192.608 70.4754 192.188 70.3636 191.703 70.3636C191.169 70.3636 190.707 70.4962 190.317 70.7614C189.93 71.0227 189.633 71.3636 189.425 71.7841C189.216 72.2045 189.112 72.6553 189.112 73.1364V73.9091C189.112 74.5682 189.226 75.1269 189.453 75.5852C189.684 76.0398 190.004 76.3864 190.413 76.625C190.822 76.8598 191.298 76.9773 191.839 76.9773C192.192 76.9773 192.51 76.928 192.794 76.8295C193.082 76.7273 193.33 76.5758 193.538 76.375C193.747 76.1705 193.908 75.9167 194.021 75.6136L195.317 75.9773C195.18 76.4167 194.951 76.803 194.629 77.1364C194.307 77.4659 193.91 77.7235 193.436 77.9091C192.963 78.0909 192.43 78.1818 191.839 78.1818ZM200.788 78.1818C200.061 78.1818 199.419 77.9981 198.862 77.6307C198.305 77.2595 197.87 76.7367 197.555 76.0625C197.241 75.3845 197.084 74.5833 197.084 73.6591C197.084 72.7424 197.241 71.947 197.555 71.2727C197.87 70.5985 198.307 70.0777 198.868 69.7102C199.429 69.3428 200.076 69.1591 200.811 69.1591C201.379 69.1591 201.828 69.2538 202.158 69.4432C202.491 69.6288 202.745 69.8409 202.919 70.0795C203.097 70.3144 203.235 70.5076 203.334 70.6591H203.447V66.3636H204.788V78H203.493V76.6591H203.334C203.235 76.8182 203.095 77.0189 202.913 77.2614C202.732 77.5 202.472 77.714 202.135 77.9034C201.798 78.089 201.349 78.1818 200.788 78.1818ZM200.97 76.9773C201.508 76.9773 201.963 76.8371 202.334 76.5568C202.705 76.2727 202.987 75.8807 203.18 75.3807C203.374 74.8769 203.47 74.2955 203.47 73.6364C203.47 72.9848 203.375 72.4148 203.186 71.9261C202.997 71.4337 202.716 71.0511 202.345 70.7784C201.974 70.5019 201.516 70.3636 200.97 70.3636C200.402 70.3636 199.929 70.5095 199.55 70.8011C199.175 71.089 198.893 71.4811 198.703 71.9773C198.518 72.4697 198.425 73.0227 198.425 73.6364C198.425 74.2576 198.519 74.822 198.709 75.3295C198.902 75.8333 199.186 76.2348 199.561 76.5341C199.94 76.8295 200.41 76.9773 200.97 76.9773ZM208.408 78.0909C208.127 78.0909 207.887 77.9905 207.686 77.7898C207.485 77.589 207.385 77.3485 207.385 77.0682C207.385 76.7879 207.485 76.5473 207.686 76.3466C207.887 76.1458 208.127 76.0455 208.408 76.0455C208.688 76.0455 208.929 76.1458 209.129 76.3466C209.33 76.5473 209.43 76.7879 209.43 77.0682C209.43 77.2538 209.383 77.4242 209.288 77.5795C209.197 77.7348 209.074 77.8598 208.919 77.9545C208.768 78.0455 208.597 78.0909 208.408 78.0909Z" fill="#344054"/>
<rect x="30.5" y="104.5" width="107" height="39" rx="4.5" stroke="#344054"/>
<path d="M55.4426 118.818V129H54.2494L48.7011 121.006H48.6017V129H47.3687V118.818H48.5619L54.1301 126.832H54.2295V118.818H55.4426ZM60.9523 129.159C60.2165 129.159 59.5818 128.997 59.0482 128.672C58.5179 128.344 58.1086 127.886 57.8202 127.3C57.5352 126.71 57.3927 126.024 57.3927 125.241C57.3927 124.459 57.5352 123.77 57.8202 123.173C58.1086 122.573 58.5096 122.106 59.0233 121.771C59.5404 121.433 60.1436 121.264 60.833 121.264C61.2307 121.264 61.6235 121.33 62.0113 121.463C62.3991 121.596 62.752 121.811 63.0702 122.109C63.3884 122.404 63.642 122.795 63.8309 123.283C64.0198 123.77 64.1143 124.37 64.1143 125.082V125.58H58.2279V124.565H62.9211C62.9211 124.134 62.8349 123.75 62.6626 123.412C62.4935 123.074 62.2516 122.807 61.9367 122.612C61.6251 122.416 61.2573 122.318 60.833 122.318C60.3657 122.318 59.9613 122.434 59.6199 122.666C59.2819 122.895 59.0217 123.193 58.8394 123.561C58.6571 123.929 58.566 124.323 58.566 124.744V125.42C58.566 125.997 58.6654 126.486 58.8643 126.887C59.0664 127.285 59.3465 127.588 59.7045 127.797C60.0624 128.002 60.4784 128.105 60.9523 128.105C61.2606 128.105 61.539 128.062 61.7876 127.976C62.0394 127.886 62.2565 127.754 62.4388 127.578C62.6211 127.399 62.762 127.177 62.8614 126.912L63.9949 127.23C63.8756 127.615 63.6751 127.953 63.3934 128.244C63.1117 128.533 62.7636 128.758 62.3493 128.92C61.935 129.08 61.4694 129.159 60.9523 129.159ZM66.569 121.364L68.3985 124.486L70.2281 121.364H71.5803L69.1144 125.182L71.5803 129H70.2281L68.3985 126.037L66.569 129H65.2167L67.6428 125.182L65.2167 121.364H66.569ZM76.5756 121.364V122.358H72.6182V121.364H76.5756ZM73.7716 119.534H74.9449V126.812C74.9449 127.144 74.9929 127.393 75.089 127.558C75.1885 127.721 75.3144 127.83 75.4669 127.886C75.6227 127.939 75.7867 127.966 75.9591 127.966C76.0883 127.966 76.1944 127.959 76.2773 127.946C76.3601 127.929 76.4264 127.916 76.4761 127.906L76.7148 128.96C76.6352 128.99 76.5242 129.02 76.3817 129.05C76.2391 129.083 76.0585 129.099 75.8398 129.099C75.5083 129.099 75.1835 129.028 74.8653 128.886C74.5505 128.743 74.2886 128.526 74.0798 128.234C73.8743 127.943 73.7716 127.575 73.7716 127.131V119.534ZM84.5251 129.179C84.0412 129.179 83.6021 129.088 83.2077 128.906C82.8132 128.72 82.5 128.453 82.268 128.105C82.036 127.754 81.92 127.33 81.92 126.832C81.92 126.395 82.0062 126.04 82.1785 125.768C82.3509 125.493 82.5812 125.278 82.8696 125.122C83.1579 124.966 83.4761 124.85 83.8241 124.774C84.1755 124.695 84.5284 124.632 84.8831 124.585C85.3471 124.526 85.7233 124.481 86.0116 124.451C86.3033 124.418 86.5154 124.363 86.648 124.287C86.7839 124.211 86.8518 124.078 86.8518 123.889V123.849C86.8518 123.359 86.7176 122.978 86.4491 122.706C86.184 122.434 85.7813 122.298 85.241 122.298C84.6809 122.298 84.2417 122.421 83.9236 122.666C83.6054 122.911 83.3817 123.173 83.2524 123.452L82.1388 123.054C82.3376 122.59 82.6028 122.229 82.9342 121.97C83.269 121.708 83.6336 121.526 84.028 121.423C84.4257 121.317 84.8168 121.264 85.2013 121.264C85.4465 121.264 85.7282 121.294 86.0464 121.354C86.3679 121.41 86.6778 121.528 86.9761 121.707C87.2777 121.886 87.528 122.156 87.7268 122.517C87.9257 122.878 88.0251 123.362 88.0251 123.969V129H86.8518V127.966H86.7922C86.7126 128.132 86.58 128.309 86.3944 128.498C86.2088 128.687 85.9619 128.848 85.6537 128.98C85.3454 129.113 84.9693 129.179 84.5251 129.179ZM84.7041 128.125C85.1681 128.125 85.5592 128.034 85.8774 127.852C86.1989 127.669 86.4408 127.434 86.6032 127.146C86.769 126.857 86.8518 126.554 86.8518 126.236V125.162C86.8021 125.222 86.6927 125.276 86.5237 125.326C86.358 125.372 86.1657 125.414 85.947 125.45C85.7316 125.483 85.5211 125.513 85.3156 125.54C85.1134 125.563 84.9494 125.583 84.8234 125.599C84.5185 125.639 84.2335 125.704 83.9683 125.793C83.7065 125.879 83.4943 126.01 83.3319 126.186C83.1729 126.358 83.0933 126.594 83.0933 126.892C83.0933 127.3 83.2441 127.608 83.5457 127.817C83.8506 128.022 84.2368 128.125 84.7041 128.125ZM93.2689 129.159C92.553 129.159 91.9365 128.99 91.4195 128.652C90.9024 128.314 90.5047 127.848 90.2263 127.255C89.9479 126.662 89.8087 125.984 89.8087 125.222C89.8087 124.446 89.9512 123.762 90.2362 123.168C90.5246 122.572 90.9256 122.106 91.4394 121.771C91.9564 121.433 92.5596 121.264 93.249 121.264C93.786 121.264 94.2699 121.364 94.7007 121.562C95.1316 121.761 95.4846 122.04 95.7597 122.398C96.0348 122.756 96.2055 123.173 96.2718 123.651H95.0985C95.009 123.303 94.8101 122.994 94.5019 122.726C94.1969 122.454 93.786 122.318 93.2689 122.318C92.8115 122.318 92.4105 122.437 92.0658 122.676C91.7244 122.911 91.4576 123.245 91.2654 123.675C91.0764 124.103 90.982 124.605 90.982 125.182C90.982 125.772 91.0748 126.286 91.2604 126.723C91.4493 127.161 91.7145 127.5 92.0558 127.742C92.4005 127.984 92.8049 128.105 93.2689 128.105C93.5738 128.105 93.8506 128.052 94.0992 127.946C94.3477 127.84 94.5582 127.688 94.7306 127.489C94.9029 127.29 95.0255 127.051 95.0985 126.773H96.2718C96.2055 127.223 96.0414 127.629 95.7796 127.991C95.521 128.349 95.178 128.634 94.7504 128.846C94.3262 129.055 93.8324 129.159 93.2689 129.159ZM101.308 121.364V122.358H97.3506V121.364H101.308ZM98.504 119.534H99.6773V126.812C99.6773 127.144 99.7253 127.393 99.8215 127.558C99.9209 127.721 100.047 127.83 100.199 127.886C100.355 127.939 100.519 127.966 100.691 127.966C100.821 127.966 100.927 127.959 101.01 127.946C101.093 127.929 101.159 127.916 101.209 127.906L101.447 128.96C101.368 128.99 101.257 129.02 101.114 129.05C100.972 129.083 100.791 129.099 100.572 129.099C100.241 129.099 99.9159 129.028 99.5977 128.886C99.2829 128.743 99.021 128.526 98.8122 128.234C98.6067 127.943 98.504 127.575 98.504 127.131V119.534ZM103.073 129V121.364H104.246V129H103.073ZM103.669 120.091C103.441 120.091 103.244 120.013 103.078 119.857C102.915 119.701 102.834 119.514 102.834 119.295C102.834 119.077 102.915 118.889 103.078 118.734C103.244 118.578 103.441 118.5 103.669 118.5C103.898 118.5 104.094 118.578 104.256 118.734C104.422 118.889 104.505 119.077 104.505 119.295C104.505 119.514 104.422 119.701 104.256 119.857C104.094 120.013 103.898 120.091 103.669 120.091ZM109.497 129.159C108.808 129.159 108.203 128.995 107.683 128.667C107.166 128.339 106.761 127.88 106.47 127.29C106.181 126.7 106.037 126.01 106.037 125.222C106.037 124.426 106.181 123.732 106.47 123.138C106.761 122.545 107.166 122.085 107.683 121.756C108.203 121.428 108.808 121.264 109.497 121.264C110.187 121.264 110.79 121.428 111.307 121.756C111.827 122.085 112.232 122.545 112.52 123.138C112.812 123.732 112.958 124.426 112.958 125.222C112.958 126.01 112.812 126.7 112.52 127.29C112.232 127.88 111.827 128.339 111.307 128.667C110.79 128.995 110.187 129.159 109.497 129.159ZM109.497 128.105C110.021 128.105 110.452 127.971 110.79 127.702C111.128 127.434 111.378 127.081 111.541 126.643C111.703 126.206 111.784 125.732 111.784 125.222C111.784 124.711 111.703 124.236 111.541 123.795C111.378 123.354 111.128 122.998 110.79 122.726C110.452 122.454 110.021 122.318 109.497 122.318C108.974 122.318 108.543 122.454 108.205 122.726C107.867 122.998 107.617 123.354 107.454 123.795C107.292 124.236 107.21 124.711 107.21 125.222C107.21 125.732 107.292 126.206 107.454 126.643C107.617 127.081 107.867 127.434 108.205 127.702C108.543 127.971 108.974 128.105 109.497 128.105ZM115.922 124.406V129H114.749V121.364H115.882V122.557H115.982C116.161 122.169 116.432 121.857 116.797 121.622C117.162 121.384 117.632 121.264 118.209 121.264C118.726 121.264 119.178 121.37 119.566 121.582C119.954 121.791 120.256 122.109 120.471 122.537C120.686 122.961 120.794 123.498 120.794 124.148V129H119.621V124.227C119.621 123.627 119.465 123.16 119.153 122.825C118.842 122.487 118.414 122.318 117.871 122.318C117.496 122.318 117.162 122.399 116.867 122.562C116.575 122.724 116.345 122.961 116.176 123.273C116.006 123.584 115.922 123.962 115.922 124.406Z" fill="#344054"/>
</g>
<rect x="8" y="8" width="355" height="16" fill="#E8178A" fill-opacity="0.24"/>
<rect x="8" y="88" width="355" height="16" fill="#E8178A" fill-opacity="0.24"/>
<rect x="8" y="144" width="355" height="16" fill="#E8178A" fill-opacity="0.24"/>
<rect x="14" y="8" width="16" height="152" fill="#E8178A" fill-opacity="0.24"/>
<rect x="347" y="8" width="16" height="152" fill="#E8178A" fill-opacity="0.24"/>
<path d="M373.5 8V24" stroke="#E8178A"/>
<rect x="378" y="8.5" width="36" height="18" rx="3" fill="#E8178A"/>
<path d="M387.754 14.2273V21.5H386.216V15.6868H386.173L384.508 16.7308V15.3672L386.308 14.2273H387.754ZM392.273 21.5994C391.899 21.5971 391.538 21.5343 391.19 21.4112C390.845 21.2881 390.534 21.0881 390.26 20.8111C389.985 20.5341 389.767 20.1671 389.606 19.7102C389.448 19.2533 389.368 18.6922 389.368 18.027C389.371 17.4162 389.441 16.8705 389.578 16.3899C389.718 15.907 389.916 15.4974 390.175 15.1612C390.435 14.825 390.746 14.5694 391.108 14.3942C391.471 14.2166 391.877 14.1278 392.327 14.1278C392.812 14.1278 393.24 14.2225 393.612 14.4119C393.984 14.599 394.282 14.8535 394.507 15.1754C394.734 15.4974 394.872 15.8584 394.919 16.2585H393.403C393.343 16.0052 393.219 15.8063 393.03 15.6619C392.84 15.5175 392.606 15.4453 392.327 15.4453C391.853 15.4453 391.493 15.6513 391.247 16.0632C391.003 16.4751 390.879 17.035 390.874 17.7429H390.924C391.033 17.5275 391.18 17.344 391.364 17.1925C391.551 17.0386 391.763 16.9214 392 16.8409C392.239 16.758 392.491 16.7166 392.756 16.7166C393.187 16.7166 393.571 16.8184 393.907 17.022C394.243 17.2232 394.508 17.5002 394.702 17.853C394.896 18.2057 394.993 18.6094 394.993 19.0639C394.993 19.5563 394.879 19.9943 394.649 20.3778C394.422 20.7614 394.103 21.062 393.694 21.2798C393.287 21.4953 392.813 21.6018 392.273 21.5994ZM392.266 20.392C392.503 20.392 392.715 20.3352 392.902 20.2216C393.089 20.108 393.236 19.9541 393.342 19.7599C393.449 19.5658 393.502 19.348 393.502 19.1065C393.502 18.8651 393.449 18.6484 393.342 18.4567C393.238 18.2649 393.094 18.1122 392.909 17.9986C392.724 17.8849 392.514 17.8281 392.277 17.8281C392.099 17.8281 391.935 17.8613 391.783 17.9276C391.634 17.9938 391.503 18.0862 391.389 18.2045C391.278 18.3229 391.19 18.4602 391.126 18.6165C391.062 18.7704 391.03 18.9349 391.03 19.1101C391.03 19.3445 391.084 19.5587 391.19 19.7528C391.299 19.947 391.446 20.102 391.631 20.218C391.818 20.334 392.029 20.392 392.266 20.392ZM396.098 23.5455V16.0455H397.589V16.9616H397.657C397.723 16.8149 397.819 16.6657 397.944 16.5142C398.072 16.3603 398.238 16.2325 398.442 16.1307C398.648 16.0265 398.903 15.9744 399.209 15.9744C399.606 15.9744 399.973 16.0786 400.309 16.2869C400.646 16.4929 400.914 16.8042 401.116 17.2209C401.317 17.6352 401.417 18.1548 401.417 18.7798C401.417 19.3883 401.319 19.902 401.123 20.321C400.929 20.7377 400.663 21.0537 400.327 21.2692C399.993 21.4822 399.619 21.5888 399.205 21.5888C398.912 21.5888 398.662 21.5402 398.456 21.4432C398.252 21.3461 398.085 21.2242 397.955 21.0774C397.825 20.9283 397.725 20.7779 397.657 20.6264H397.611V23.5455H396.098ZM397.579 18.7727C397.579 19.0971 397.624 19.38 397.714 19.6214C397.804 19.8629 397.934 20.0511 398.104 20.1861C398.275 20.3187 398.482 20.3849 398.726 20.3849C398.972 20.3849 399.18 20.3175 399.351 20.1825C399.521 20.0452 399.65 19.8558 399.738 19.6143C399.828 19.3705 399.873 19.09 399.873 18.7727C399.873 18.4579 399.829 18.1809 399.741 17.9418C399.654 17.7027 399.525 17.5156 399.354 17.3807C399.184 17.2457 398.974 17.1783 398.726 17.1783C398.479 17.1783 398.271 17.2434 398.101 17.3736C397.933 17.5038 397.804 17.6884 397.714 17.9276C397.624 18.1667 397.579 18.4484 397.579 18.7727ZM403.495 16.0455L404.496 17.9524L405.523 16.0455H407.074L405.494 18.7727L407.117 21.5H405.572L404.496 19.6143L403.438 21.5H401.876L403.495 18.7727L401.932 16.0455H403.495Z" fill="white"/>
<line x1="370" y1="8.5" x2="377" y2="8.5" stroke="#E8178A"/>
<line x1="370" y1="23.5" x2="377" y2="23.5" stroke="#E8178A"/>
<path d="M14 178.5H30" stroke="#E8178A"/>
<rect x="4" y="183" width="36" height="18" rx="3" fill="#E8178A"/>
<path d="M13.7536 188.727V196H12.2159V190.187H12.1733L10.5078 191.231V189.867L12.3082 188.727H13.7536ZM18.2733 196.099C17.8992 196.097 17.5382 196.034 17.1902 195.911C16.8445 195.788 16.5344 195.588 16.2598 195.311C15.9851 195.034 15.7673 194.667 15.6064 194.21C15.4477 193.753 15.3684 193.192 15.3684 192.527C15.3708 191.916 15.4406 191.371 15.5779 190.89C15.7176 190.407 15.9165 189.997 16.1745 189.661C16.435 189.325 16.7463 189.069 17.1085 188.894C17.4707 188.717 17.8767 188.628 18.3265 188.628C18.8118 188.628 19.2404 188.723 19.612 188.912C19.9837 189.099 20.282 189.353 20.5069 189.675C20.7342 189.997 20.8715 190.358 20.9189 190.759H19.4025C19.3433 190.505 19.219 190.306 19.0297 190.162C18.8403 190.018 18.6059 189.945 18.3265 189.945C17.853 189.945 17.4932 190.151 17.247 190.563C17.0031 190.975 16.8788 191.535 16.8741 192.243H16.9238C17.0327 192.027 17.1795 191.844 17.3642 191.692C17.5512 191.539 17.7631 191.421 17.9998 191.341C18.2389 191.258 18.4911 191.217 18.7562 191.217C19.1871 191.217 19.5706 191.318 19.9068 191.522C20.243 191.723 20.5081 192 20.7022 192.353C20.8964 192.706 20.9934 193.109 20.9934 193.564C20.9934 194.056 20.8786 194.494 20.649 194.878C20.4217 195.261 20.1033 195.562 19.6937 195.78C19.2865 195.995 18.813 196.102 18.2733 196.099ZM18.2662 194.892C18.5029 194.892 18.7148 194.835 18.9018 194.722C19.0888 194.608 19.2356 194.454 19.3422 194.26C19.4487 194.066 19.502 193.848 19.502 193.607C19.502 193.365 19.4487 193.148 19.3422 192.957C19.238 192.765 19.0936 192.612 18.9089 192.499C18.7243 192.385 18.5136 192.328 18.2768 192.328C18.0993 192.328 17.9347 192.361 17.7832 192.428C17.6341 192.494 17.5027 192.586 17.389 192.705C17.2778 192.823 17.1902 192.96 17.1262 193.116C17.0623 193.27 17.0304 193.435 17.0304 193.61C17.0304 193.844 17.0836 194.059 17.1902 194.253C17.2991 194.447 17.4458 194.602 17.6305 194.718C17.8175 194.834 18.0294 194.892 18.2662 194.892ZM22.0978 198.045V190.545H23.5893V191.462H23.6568C23.7231 191.315 23.819 191.166 23.9444 191.014C24.0723 190.86 24.238 190.732 24.4416 190.631C24.6475 190.527 24.9032 190.474 25.2086 190.474C25.6064 190.474 25.9733 190.579 26.3095 190.787C26.6457 190.993 26.9144 191.304 27.1156 191.721C27.3168 192.135 27.4174 192.655 27.4174 193.28C27.4174 193.888 27.3192 194.402 27.1227 194.821C26.9286 195.238 26.6634 195.554 26.3272 195.769C25.9934 195.982 25.6194 196.089 25.2051 196.089C24.9115 196.089 24.6618 196.04 24.4558 195.943C24.2522 195.846 24.0853 195.724 23.9551 195.577C23.8249 195.428 23.7254 195.278 23.6568 195.126H23.6106V198.045H22.0978ZM23.5787 193.273C23.5787 193.597 23.6236 193.88 23.7136 194.121C23.8036 194.363 23.9338 194.551 24.1042 194.686C24.2747 194.819 24.4818 194.885 24.7257 194.885C24.9719 194.885 25.1802 194.817 25.3507 194.683C25.5211 194.545 25.6502 194.356 25.7377 194.114C25.8277 193.871 25.8727 193.59 25.8727 193.273C25.8727 192.958 25.8289 192.681 25.7413 192.442C25.6537 192.203 25.5247 192.016 25.3542 191.881C25.1838 191.746 24.9743 191.678 24.7257 191.678C24.4795 191.678 24.2711 191.743 24.1007 191.874C23.9326 192.004 23.8036 192.188 23.7136 192.428C23.6236 192.667 23.5787 192.948 23.5787 193.273ZM29.4949 190.545L30.4963 192.452L31.5225 190.545H33.0744L31.4941 193.273L33.117 196H31.5723L30.4963 194.114L29.438 196H27.8755L29.4949 193.273L27.9324 190.545H29.4949Z" fill="white"/>
<line x1="14.5" y1="182" x2="14.5" y2="175" stroke="#E8178A"/>
<line x1="29.5" y1="182" x2="29.5" y2="175" stroke="#E8178A"/>
<path d="M347 178.5H363" stroke="#E8178A"/>
<rect x="337" y="183" width="36" height="18" rx="3" fill="#E8178A"/>
<path d="M346.754 188.727V196H345.216V190.187H345.173L343.508 191.231V189.867L345.308 188.727H346.754ZM351.273 196.099C350.899 196.097 350.538 196.034 350.19 195.911C349.845 195.788 349.534 195.588 349.26 195.311C348.985 195.034 348.767 194.667 348.606 194.21C348.448 193.753 348.368 193.192 348.368 192.527C348.371 191.916 348.441 191.371 348.578 190.89C348.718 190.407 348.916 189.997 349.175 189.661C349.435 189.325 349.746 189.069 350.108 188.894C350.471 188.717 350.877 188.628 351.327 188.628C351.812 188.628 352.24 188.723 352.612 188.912C352.984 189.099 353.282 189.353 353.507 189.675C353.734 189.997 353.872 190.358 353.919 190.759H352.403C352.343 190.505 352.219 190.306 352.03 190.162C351.84 190.018 351.606 189.945 351.327 189.945C350.853 189.945 350.493 190.151 350.247 190.563C350.003 190.975 349.879 191.535 349.874 192.243H349.924C350.033 192.027 350.18 191.844 350.364 191.692C350.551 191.539 350.763 191.421 351 191.341C351.239 191.258 351.491 191.217 351.756 191.217C352.187 191.217 352.571 191.318 352.907 191.522C353.243 191.723 353.508 192 353.702 192.353C353.896 192.706 353.993 193.109 353.993 193.564C353.993 194.056 353.879 194.494 353.649 194.878C353.422 195.261 353.103 195.562 352.694 195.78C352.287 195.995 351.813 196.102 351.273 196.099ZM351.266 194.892C351.503 194.892 351.715 194.835 351.902 194.722C352.089 194.608 352.236 194.454 352.342 194.26C352.449 194.066 352.502 193.848 352.502 193.607C352.502 193.365 352.449 193.148 352.342 192.957C352.238 192.765 352.094 192.612 351.909 192.499C351.724 192.385 351.514 192.328 351.277 192.328C351.099 192.328 350.935 192.361 350.783 192.428C350.634 192.494 350.503 192.586 350.389 192.705C350.278 192.823 350.19 192.96 350.126 193.116C350.062 193.27 350.03 193.435 350.03 193.61C350.03 193.844 350.084 194.059 350.19 194.253C350.299 194.447 350.446 194.602 350.631 194.718C350.818 194.834 351.029 194.892 351.266 194.892ZM355.098 198.045V190.545H356.589V191.462H356.657C356.723 191.315 356.819 191.166 356.944 191.014C357.072 190.86 357.238 190.732 357.442 190.631C357.648 190.527 357.903 190.474 358.209 190.474C358.606 190.474 358.973 190.579 359.309 190.787C359.646 190.993 359.914 191.304 360.116 191.721C360.317 192.135 360.417 192.655 360.417 193.28C360.417 193.888 360.319 194.402 360.123 194.821C359.929 195.238 359.663 195.554 359.327 195.769C358.993 195.982 358.619 196.089 358.205 196.089C357.912 196.089 357.662 196.04 357.456 195.943C357.252 195.846 357.085 195.724 356.955 195.577C356.825 195.428 356.725 195.278 356.657 195.126H356.611V198.045H355.098ZM356.579 193.273C356.579 193.597 356.624 193.88 356.714 194.121C356.804 194.363 356.934 194.551 357.104 194.686C357.275 194.819 357.482 194.885 357.726 194.885C357.972 194.885 358.18 194.817 358.351 194.683C358.521 194.545 358.65 194.356 358.738 194.114C358.828 193.871 358.873 193.59 358.873 193.273C358.873 192.958 358.829 192.681 358.741 192.442C358.654 192.203 358.525 192.016 358.354 191.881C358.184 191.746 357.974 191.678 357.726 191.678C357.479 191.678 357.271 191.743 357.101 191.874C356.933 192.004 356.804 192.188 356.714 192.428C356.624 192.667 356.579 192.948 356.579 193.273ZM362.495 190.545L363.496 192.452L364.523 190.545H366.074L364.494 193.273L366.117 196H364.572L363.496 194.114L362.438 196H360.876L362.495 193.273L360.932 190.545H362.495Z" fill="white"/>
<line x1="347.5" y1="182" x2="347.5" y2="175" stroke="#E8178A"/>
<line x1="362.5" y1="182" x2="362.5" y2="175" stroke="#E8178A"/>
<path d="M373.5 152V168" stroke="#E8178A"/>
<rect x="378" y="151" width="36" height="18" rx="3" fill="#E8178A"/>
<path d="M387.754 156.727V164H386.216V158.187H386.173L384.508 159.231V157.867L386.308 156.727H387.754ZM392.273 164.099C391.899 164.097 391.538 164.034 391.19 163.911C390.845 163.788 390.534 163.588 390.26 163.311C389.985 163.034 389.767 162.667 389.606 162.21C389.448 161.753 389.368 161.192 389.368 160.527C389.371 159.916 389.441 159.371 389.578 158.89C389.718 158.407 389.916 157.997 390.175 157.661C390.435 157.325 390.746 157.069 391.108 156.894C391.471 156.717 391.877 156.628 392.327 156.628C392.812 156.628 393.24 156.723 393.612 156.912C393.984 157.099 394.282 157.353 394.507 157.675C394.734 157.997 394.872 158.358 394.919 158.759H393.403C393.343 158.505 393.219 158.306 393.03 158.162C392.84 158.018 392.606 157.945 392.327 157.945C391.853 157.945 391.493 158.151 391.247 158.563C391.003 158.975 390.879 159.535 390.874 160.243H390.924C391.033 160.027 391.18 159.844 391.364 159.692C391.551 159.539 391.763 159.421 392 159.341C392.239 159.258 392.491 159.217 392.756 159.217C393.187 159.217 393.571 159.318 393.907 159.522C394.243 159.723 394.508 160 394.702 160.353C394.896 160.706 394.993 161.109 394.993 161.564C394.993 162.056 394.879 162.494 394.649 162.878C394.422 163.261 394.103 163.562 393.694 163.78C393.287 163.995 392.813 164.102 392.273 164.099ZM392.266 162.892C392.503 162.892 392.715 162.835 392.902 162.722C393.089 162.608 393.236 162.454 393.342 162.26C393.449 162.066 393.502 161.848 393.502 161.607C393.502 161.365 393.449 161.148 393.342 160.957C393.238 160.765 393.094 160.612 392.909 160.499C392.724 160.385 392.514 160.328 392.277 160.328C392.099 160.328 391.935 160.361 391.783 160.428C391.634 160.494 391.503 160.586 391.389 160.705C391.278 160.823 391.19 160.96 391.126 161.116C391.062 161.27 391.03 161.435 391.03 161.61C391.03 161.844 391.084 162.059 391.19 162.253C391.299 162.447 391.446 162.602 391.631 162.718C391.818 162.834 392.029 162.892 392.266 162.892ZM396.098 166.045V158.545H397.589V159.462H397.657C397.723 159.315 397.819 159.166 397.944 159.014C398.072 158.86 398.238 158.732 398.442 158.631C398.648 158.527 398.903 158.474 399.209 158.474C399.606 158.474 399.973 158.579 400.309 158.787C400.646 158.993 400.914 159.304 401.116 159.721C401.317 160.135 401.417 160.655 401.417 161.28C401.417 161.888 401.319 162.402 401.123 162.821C400.929 163.238 400.663 163.554 400.327 163.769C399.993 163.982 399.619 164.089 399.205 164.089C398.912 164.089 398.662 164.04 398.456 163.943C398.252 163.846 398.085 163.724 397.955 163.577C397.825 163.428 397.725 163.278 397.657 163.126H397.611V166.045H396.098ZM397.579 161.273C397.579 161.597 397.624 161.88 397.714 162.121C397.804 162.363 397.934 162.551 398.104 162.686C398.275 162.819 398.482 162.885 398.726 162.885C398.972 162.885 399.18 162.817 399.351 162.683C399.521 162.545 399.65 162.356 399.738 162.114C399.828 161.871 399.873 161.59 399.873 161.273C399.873 160.958 399.829 160.681 399.741 160.442C399.654 160.203 399.525 160.016 399.354 159.881C399.184 159.746 398.974 159.678 398.726 159.678C398.479 159.678 398.271 159.743 398.101 159.874C397.933 160.004 397.804 160.188 397.714 160.428C397.624 160.667 397.579 160.948 397.579 161.273ZM403.495 158.545L404.496 160.452L405.523 158.545H407.074L405.494 161.273L407.117 164H405.572L404.496 162.114L403.438 164H401.876L403.495 161.273L401.932 158.545H403.495Z" fill="white"/>
<line x1="370" y1="152.5" x2="377" y2="152.5" stroke="#E8178A"/>
<line x1="370" y1="167.5" x2="377" y2="167.5" stroke="#E8178A"/>
<path d="M373.5 96V112" stroke="#E8178A"/>
<rect x="378" y="95" width="36" height="18" rx="3" fill="#E8178A"/>
<path d="M387.754 100.727V108H386.216V102.187H386.173L384.508 103.231V101.867L386.308 100.727H387.754ZM392.273 108.099C391.899 108.097 391.538 108.034 391.19 107.911C390.845 107.788 390.534 107.588 390.26 107.311C389.985 107.034 389.767 106.667 389.606 106.21C389.448 105.753 389.368 105.192 389.368 104.527C389.371 103.916 389.441 103.371 389.578 102.89C389.718 102.407 389.916 101.997 390.175 101.661C390.435 101.325 390.746 101.069 391.108 100.894C391.471 100.717 391.877 100.628 392.327 100.628C392.812 100.628 393.24 100.723 393.612 100.912C393.984 101.099 394.282 101.353 394.507 101.675C394.734 101.997 394.872 102.358 394.919 102.759H393.403C393.343 102.505 393.219 102.306 393.03 102.162C392.84 102.018 392.606 101.945 392.327 101.945C391.853 101.945 391.493 102.151 391.247 102.563C391.003 102.975 390.879 103.535 390.874 104.243H390.924C391.033 104.027 391.18 103.844 391.364 103.692C391.551 103.539 391.763 103.421 392 103.341C392.239 103.258 392.491 103.217 392.756 103.217C393.187 103.217 393.571 103.318 393.907 103.522C394.243 103.723 394.508 104 394.702 104.353C394.896 104.706 394.993 105.109 394.993 105.564C394.993 106.056 394.879 106.494 394.649 106.878C394.422 107.261 394.103 107.562 393.694 107.78C393.287 107.995 392.813 108.102 392.273 108.099ZM392.266 106.892C392.503 106.892 392.715 106.835 392.902 106.722C393.089 106.608 393.236 106.454 393.342 106.26C393.449 106.066 393.502 105.848 393.502 105.607C393.502 105.365 393.449 105.148 393.342 104.957C393.238 104.765 393.094 104.612 392.909 104.499C392.724 104.385 392.514 104.328 392.277 104.328C392.099 104.328 391.935 104.361 391.783 104.428C391.634 104.494 391.503 104.586 391.389 104.705C391.278 104.823 391.19 104.96 391.126 105.116C391.062 105.27 391.03 105.435 391.03 105.61C391.03 105.844 391.084 106.059 391.19 106.253C391.299 106.447 391.446 106.602 391.631 106.718C391.818 106.834 392.029 106.892 392.266 106.892ZM396.098 110.045V102.545H397.589V103.462H397.657C397.723 103.315 397.819 103.166 397.944 103.014C398.072 102.86 398.238 102.732 398.442 102.631C398.648 102.527 398.903 102.474 399.209 102.474C399.606 102.474 399.973 102.579 400.309 102.787C400.646 102.993 400.914 103.304 401.116 103.721C401.317 104.135 401.417 104.655 401.417 105.28C401.417 105.888 401.319 106.402 401.123 106.821C400.929 107.238 400.663 107.554 400.327 107.769C399.993 107.982 399.619 108.089 399.205 108.089C398.912 108.089 398.662 108.04 398.456 107.943C398.252 107.846 398.085 107.724 397.955 107.577C397.825 107.428 397.725 107.278 397.657 107.126H397.611V110.045H396.098ZM397.579 105.273C397.579 105.597 397.624 105.88 397.714 106.121C397.804 106.363 397.934 106.551 398.104 106.686C398.275 106.819 398.482 106.885 398.726 106.885C398.972 106.885 399.18 106.817 399.351 106.683C399.521 106.545 399.65 106.356 399.738 106.114C399.828 105.871 399.873 105.59 399.873 105.273C399.873 104.958 399.829 104.681 399.741 104.442C399.654 104.203 399.525 104.016 399.354 103.881C399.184 103.746 398.974 103.678 398.726 103.678C398.479 103.678 398.271 103.743 398.101 103.874C397.933 104.004 397.804 104.188 397.714 104.428C397.624 104.667 397.579 104.948 397.579 105.273ZM403.495 102.545L404.496 104.452L405.523 102.545H407.074L405.494 105.273L407.117 108H405.572L404.496 106.114L403.438 108H401.876L403.495 105.273L401.932 102.545H403.495Z" fill="white"/>
<line x1="370" y1="96.5" x2="377" y2="96.5" stroke="#E8178A"/>
<line x1="370" y1="111.5" x2="377" y2="111.5" stroke="#E8178A"/>
<defs>
<filter id="filter0_d_5033_1501" x="0" y="0" width="371" height="168" filterUnits="userSpaceOnUse" color-interpolation-filters="sRGB">
<feFlood flood-opacity="0" result="BackgroundImageFix"/>
<feColorMatrix in="SourceAlpha" type="matrix" values="0 0 0 0 0 0 0 0 0 0 0 0 0 0 0 0 0 0 127 0" result="hardAlpha"/>
<feOffset/>
<feGaussianBlur stdDeviation="4"/>
<feColorMatrix type="matrix" values="0 0 0 0 0 0 0 0 0 0 0 0 0 0 0 0 0 0 0.15 0"/>
<feBlend mode="normal" in2="BackgroundImageFix" result="effect1_dropShadow_5033_1501"/>
<feBlend mode="normal" in="SourceGraphic" in2="effect1_dropShadow_5033_1501" result="shape"/>
</filter>
</defs>
</svg>
