<svg width="259" height="207" viewBox="0 0 259 207" fill="none" xmlns="http://www.w3.org/2000/svg"><path fill="#98A2B3" d="M57 78h197v4H57z"/><path d="M1.011 106.364h3.034l3.205 7.818h.136l3.205-7.818h3.034V118h-2.386v-7.574h-.097l-3.011 7.517H6.506l-3.012-7.545h-.096V118H1.01v-11.636Zm17.084 11.801c-.557 0-1.053-.097-1.488-.29a2.4 2.4 0 0 1-1.035-.869c-.25-.387-.375-.868-.375-1.444 0-.484.09-.892.268-1.221.178-.33.42-.595.727-.796a3.54 3.54 0 0 1 1.045-.454 8.042 8.042 0 0 1 1.239-.216c.507-.053.916-.102 1.227-.148.31-.049.536-.121.676-.216a.473.473 0 0 0 .21-.42v-.034c0-.36-.113-.638-.34-.835-.224-.197-.542-.296-.955-.296-.436 0-.782.097-1.04.29a1.331 1.331 0 0 0-.511.716l-2.239-.182c.114-.53.337-.989.67-1.375.334-.39.764-.689 1.29-.898.53-.212 1.144-.318 1.841-.318.485 0 .95.057 1.392.171a3.62 3.62 0 0 1 1.188.528c.348.239.623.545.824.92.2.372.3.817.3 1.336V118h-2.294v-1.21h-.069c-.14.272-.327.513-.562.721a2.587 2.587 0 0 1-.847.483 3.49 3.49 0 0 1-1.142.171Zm.693-1.671c.356 0 .67-.07.944-.21.272-.144.486-.337.642-.579a1.5 1.5 0 0 0 .233-.824v-.926a1.32 1.32 0 0 1-.313.136 5.6 5.6 0 0 1-.438.108c-.162.03-.325.059-.488.085l-.443.063a3.005 3.005 0 0 0-.745.198 1.186 1.186 0 0 0-.494.37.899.899 0 0 0-.176.568c0 .329.12.581.358.756.242.17.55.255.92.255Zm6.1 1.506v-8.727h2.346v1.522h.091c.16-.541.426-.95.801-1.227.375-.28.807-.42 1.296-.42.121 0 .252.007.392.022.14.016.263.036.37.063v2.148a3.105 3.105 0 0 0-.472-.091 4.167 4.167 0 0 0-.552-.04 1.94 1.94 0 0 0-.954.233 1.716 1.716 0 0 0-.66.636 1.848 1.848 0 0 0-.238.943V118h-2.42Zm8.74-2.511.005-2.904h.353l2.795-3.312h2.779l-3.756 4.386h-.574l-1.602 1.83ZM31.435 118v-11.636h2.42V118h-2.42Zm5.454 0-2.568-3.801 1.614-1.71 3.79 5.511h-2.836Zm7.476.17c-.898 0-1.67-.181-2.318-.545a3.73 3.73 0 0 1-1.489-1.557c-.348-.674-.523-1.471-.523-2.392 0-.898.175-1.685.523-2.364a3.866 3.866 0 0 1 1.472-1.585c.636-.379 1.382-.568 2.239-.568.575 0 1.111.093 1.607.279.5.181.936.456 1.307.823.375.368.667.83.875 1.387.209.553.313 1.2.313 1.943v.665H41v-1.5h5.091a1.85 1.85 0 0 0-.227-.926 1.626 1.626 0 0 0-.63-.631 1.802 1.802 0 0 0-.927-.233c-.367 0-.693.085-.977.256a1.8 1.8 0 0 0-.66.676c-.158.28-.24.593-.243.937v1.426c0 .432.08.805.238 1.12.163.314.392.557.688.727.295.17.645.256 1.05.256.27 0 .516-.038.74-.114a1.477 1.477 0 0 0 .938-.898l2.238.148a3.053 3.053 0 0 1-.7 1.409c-.348.398-.798.708-1.351.932-.55.22-1.184.329-1.904.329Zm5.585-.17v-8.727h2.347v1.522h.09c.16-.541.427-.95.802-1.227.375-.28.807-.42 1.295-.42.122 0 .252.007.392.022.14.016.264.036.37.063v2.148a3.105 3.105 0 0 0-.472-.091c-.2-.027-.384-.04-.551-.04a1.94 1.94 0 0 0-.954.233 1.716 1.716 0 0 0-.66.636 1.838 1.838 0 0 0-.238.943V118h-2.42Zm14.892-8.727v1.818h-5.255v-1.818h5.255Zm-4.062-2.091h2.42v8.136c0 .224.034.398.103.523a.568.568 0 0 0 .284.256c.125.049.269.073.431.073.114 0 .228-.009.341-.028l.262-.051.38 1.801a7.103 7.103 0 0 1-.51.131 4.08 4.08 0 0 1-.802.096c-.583.023-1.095-.055-1.534-.233a2.14 2.14 0 0 1-1.017-.829c-.243-.375-.362-.849-.358-1.421v-8.454ZM66.419 118v-8.727h2.42V118h-2.42Zm1.216-9.852c-.36 0-.669-.12-.926-.358a1.162 1.162 0 0 1-.38-.87c0-.333.126-.619.38-.858.257-.242.566-.363.926-.363.36 0 .667.121.92.363.258.239.387.525.387.858 0 .338-.129.627-.387.87-.253.238-.56.358-.92.358Zm7.785 1.125v1.818h-5.255v-1.818h5.255Zm-4.062-2.091h2.42v8.136c0 .224.034.398.103.523a.569.569 0 0 0 .284.256c.125.049.269.073.432.073.113 0 .227-.009.34-.028l.262-.051.38 1.801a7.103 7.103 0 0 1-.51.131 4.08 4.08 0 0 1-.802.096c-.583.023-1.095-.055-1.534-.233a2.14 2.14 0 0 1-1.017-.829c-.242-.375-.362-.849-.358-1.421v-8.454Zm8.247-.818V118h-2.42v-11.636h2.42Zm5.916 11.806c-.897 0-1.67-.181-2.318-.545a3.73 3.73 0 0 1-1.489-1.557c-.348-.674-.522-1.471-.522-2.392 0-.898.174-1.685.523-2.364a3.865 3.865 0 0 1 1.471-1.585c.636-.379 1.383-.568 2.239-.568.576 0 1.112.093 1.608.279.5.181.935.456 1.306.823.376.368.667.83.876 1.387.208.553.312 1.2.312 1.943v.665h-7.37v-1.5h5.092a1.85 1.85 0 0 0-.228-.926 1.624 1.624 0 0 0-.63-.631 1.801 1.801 0 0 0-.927-.233c-.367 0-.693.085-.977.256-.28.166-.5.392-.659.676-.159.28-.24.593-.244.937v1.426c0 .432.08.805.238 1.12.163.314.392.557.688.727.295.17.646.256 1.051.256.269 0 .515-.038.739-.114a1.476 1.476 0 0 0 .938-.898l2.238.148a3.054 3.054 0 0 1-.699 1.409c-.349.398-.8.708-1.352.932-.55.22-1.184.329-1.904.329Z" fill="#344054"/><rect x="31.5" y="66" width="28" height="28" rx="14" fill="#98A2B3"/><rect x="31.5" y="66" width="28" height="28" rx="14" stroke="#fff" stroke-width="4"/><path d="M47.33 74.818V85h-2.152v-8.138h-.06l-2.332 1.461v-1.909l2.52-1.596h2.024Z" fill="#fff"/><circle cx="45" cy="191" r="12" fill="#344054"/><path d="M40.943 197v-1.773l4.142-3.835c.352-.341.648-.648.887-.92.242-.273.426-.54.55-.802.126-.265.188-.551.188-.858 0-.34-.077-.634-.233-.88a1.533 1.533 0 0 0-.636-.574 2 2 0 0 0-.915-.205c-.356 0-.666.072-.932.216a1.49 1.49 0 0 0-.613.62c-.144.269-.216.589-.216.96H40.83c0-.762.172-1.422.517-1.983a3.45 3.45 0 0 1 1.448-1.301c.622-.307 1.338-.46 2.148-.46.834 0 1.559.147 2.176.443.621.291 1.105.697 1.45 1.216.344.519.516 1.113.516 1.784 0 .439-.087.873-.261 1.301-.17.428-.475.903-.915 1.426-.44.519-1.059 1.142-1.858 1.869l-1.699 1.665v.08h4.887V197h-8.296Z" fill="#fff"/><path d="M45 180v-39" stroke="#344054" stroke-dasharray="2 2"/><circle cx="247" cy="140" r="12" fill="#344054"/><path d="M247.244 146.159c-.848 0-1.604-.146-2.267-.437-.659-.296-1.18-.701-1.562-1.216a3.054 3.054 0 0 1-.585-1.796h2.477c.015.284.108.534.278.75.174.212.406.377.693.495.288.117.612.176.972.176.375 0 .706-.067.994-.199.288-.133.514-.316.676-.551.163-.235.245-.506.245-.813 0-.31-.087-.585-.262-.824a1.666 1.666 0 0 0-.738-.568c-.318-.136-.697-.204-1.137-.204h-1.085v-1.807h1.085c.372 0 .699-.065.983-.193.288-.129.512-.307.671-.534.159-.232.238-.5.238-.807 0-.292-.07-.548-.21-.767a1.382 1.382 0 0 0-.579-.523 1.887 1.887 0 0 0-.864-.188c-.333 0-.638.061-.915.182a1.599 1.599 0 0 0-.664.506c-.167.22-.256.477-.268.773h-2.358c.012-.671.203-1.262.574-1.773.372-.511.872-.911 1.5-1.199.633-.292 1.347-.437 2.142-.437.803 0 1.506.145 2.108.437.603.292 1.07.686 1.404 1.182.337.492.504 1.045.5 1.659.004.651-.199 1.195-.608 1.631-.405.435-.934.712-1.585.829v.091c.856.11 1.507.407 1.954.892.451.481.674 1.083.671 1.807a2.846 2.846 0 0 1-.574 1.767c-.383.515-.911.92-1.586 1.216-.674.295-1.446.443-2.318.443Z" fill="#fff"/><path d="M247 129V90" stroke="#344054" stroke-dasharray="2 2"/><circle cx="92" cy="16" r="12" fill="#344054"/><path d="M94.006 10.364V22h-2.46v-9.301h-.069l-2.665 1.67v-2.181l2.881-1.824h2.313Z" fill="#fff"/><path d="M89 16H45v50" stroke="#344054" stroke-dasharray="2 2"/></svg>