<svg width="135" height="64" viewBox="0 0 135 64" fill="none" xmlns="http://www.w3.org/2000/svg"><path d="M1.011 42.364h3.034l3.205 7.818h.136l3.205-7.818h3.034V54h-2.386v-7.574h-.097l-3.011 7.517H6.506l-3.012-7.545h-.096V54H1.01V42.364Zm17.084 11.8c-.557 0-1.053-.096-1.488-.289a2.397 2.397 0 0 1-1.035-.87c-.25-.386-.375-.867-.375-1.443 0-.484.09-.892.268-1.221.178-.33.42-.595.727-.796a3.54 3.54 0 0 1 1.045-.454 7.97 7.97 0 0 1 1.239-.216c.507-.053.916-.102 1.227-.148.31-.049.536-.12.676-.216a.475.475 0 0 0 .21-.42v-.034c0-.36-.113-.638-.34-.835-.224-.197-.542-.296-.955-.296-.436 0-.782.097-1.04.29-.257.19-.428.428-.511.716l-2.239-.182c.114-.53.337-.989.67-1.375.334-.39.764-.69 1.29-.898.53-.212 1.144-.318 1.841-.318.485 0 .95.057 1.392.17.447.114.843.29 1.188.529.348.239.623.545.824.92.2.372.3.817.3 1.336V54h-2.294v-1.21h-.069c-.14.273-.327.513-.562.721a2.603 2.603 0 0 1-.847.483c-.33.114-.71.17-1.142.17Zm.693-1.67c.356 0 .67-.07.944-.21a1.67 1.67 0 0 0 .642-.58c.155-.242.233-.517.233-.823v-.926c-.076.049-.18.094-.313.136a5.692 5.692 0 0 1-.438.108c-.162.03-.325.059-.488.085l-.443.063a2.991 2.991 0 0 0-.745.198 1.19 1.19 0 0 0-.494.37.9.9 0 0 0-.176.568c0 .33.12.581.358.756.242.17.55.255.92.255Zm6.1 1.506v-8.727h2.346v1.522h.091c.16-.541.426-.95.801-1.227.375-.28.807-.42 1.296-.42a3.648 3.648 0 0 1 .761.085v2.148a3.157 3.157 0 0 0-.471-.091 4.167 4.167 0 0 0-.552-.04 1.94 1.94 0 0 0-.954.233 1.715 1.715 0 0 0-.66.636 1.849 1.849 0 0 0-.238.944V54h-2.42Zm8.74-2.511.005-2.904h.353l2.795-3.312h2.779l-3.756 4.386h-.574l-1.602 1.83ZM31.435 54V42.364h2.42V54h-2.42Zm5.454 0-2.568-3.801 1.614-1.71L39.725 54h-2.836Zm7.476.17c-.898 0-1.67-.181-2.318-.545a3.736 3.736 0 0 1-1.489-1.557c-.348-.674-.523-1.471-.523-2.392 0-.898.175-1.686.523-2.364a3.865 3.865 0 0 1 1.472-1.585c.636-.378 1.382-.568 2.239-.568.575 0 1.111.093 1.607.279.5.181.936.456 1.307.823.375.368.667.83.875 1.387.209.553.313 1.2.313 1.943v.665H41v-1.5h5.091c0-.349-.075-.657-.227-.926a1.629 1.629 0 0 0-.63-.631 1.8 1.8 0 0 0-.927-.233c-.367 0-.693.085-.977.256a1.8 1.8 0 0 0-.66.676c-.158.28-.24.592-.243.937v1.426c0 .432.08.805.238 1.12.163.314.392.556.688.727.295.17.645.256 1.05.256.27 0 .516-.038.74-.114.223-.076.414-.19.573-.34.16-.152.28-.338.364-.558l2.239.148a3.056 3.056 0 0 1-.7 1.41c-.348.397-.798.707-1.351.93-.55.22-1.184.33-1.904.33ZM49.95 54v-8.727h2.347v1.522h.09c.16-.541.427-.95.802-1.227.375-.28.807-.42 1.295-.42a3.648 3.648 0 0 1 .762.085v2.148a3.157 3.157 0 0 0-.472-.091c-.2-.027-.384-.04-.551-.04-.356 0-.674.078-.954.233a1.715 1.715 0 0 0-.66.636 1.84 1.84 0 0 0-.238.944V54h-2.42Zm14.892-8.727v1.818h-5.255v-1.818h5.255Zm-4.062-2.091h2.42v8.136c0 .224.034.398.103.523a.564.564 0 0 0 .284.256c.125.049.269.073.431.073.114 0 .228-.009.341-.028l.262-.051.38 1.801a6.772 6.772 0 0 1-.51.13 4.09 4.09 0 0 1-.802.097c-.583.023-1.095-.055-1.534-.233a2.141 2.141 0 0 1-1.017-.83c-.243-.374-.362-.848-.358-1.42v-8.454ZM66.419 54v-8.727h2.42V54h-2.42Zm1.216-9.852c-.36 0-.669-.12-.926-.358a1.16 1.16 0 0 1-.38-.87c0-.333.126-.619.38-.858.257-.242.566-.363.926-.363.36 0 .667.121.92.364.258.238.387.524.387.857 0 .338-.129.627-.387.87-.253.238-.56.358-.92.358Zm7.785 1.125v1.818h-5.255v-1.818h5.255Zm-4.062-2.091h2.42v8.136c0 .224.034.398.103.523a.564.564 0 0 0 .284.256c.125.049.269.073.432.073.113 0 .227-.009.34-.028l.262-.051.38 1.801a6.772 6.772 0 0 1-.51.13 4.09 4.09 0 0 1-.802.097c-.583.023-1.095-.055-1.534-.233a2.141 2.141 0 0 1-1.017-.83c-.242-.374-.362-.848-.358-1.42v-8.454Zm8.247-.818V54h-2.42V42.364h2.42Zm5.916 11.806c-.897 0-1.67-.181-2.318-.545a3.736 3.736 0 0 1-1.489-1.557c-.348-.674-.522-1.471-.522-2.392 0-.898.174-1.686.523-2.364a3.864 3.864 0 0 1 1.471-1.585c.636-.378 1.383-.568 2.239-.568.576 0 1.112.093 1.608.279.5.181.935.456 1.306.823.376.368.667.83.876 1.387.208.553.312 1.2.312 1.943v.665h-7.37v-1.5h5.092c0-.349-.076-.657-.228-.926a1.627 1.627 0 0 0-.63-.631 1.798 1.798 0 0 0-.927-.233c-.367 0-.693.085-.977.256-.28.166-.5.392-.659.676-.159.28-.24.592-.244.937v1.426c0 .432.08.805.238 1.12.163.314.392.556.688.727.295.17.646.256 1.051.256.269 0 .515-.038.739-.114.223-.076.415-.19.574-.34.159-.152.28-.338.363-.558l2.239.148a3.057 3.057 0 0 1-.699 1.41c-.349.397-.8.707-1.352.93-.55.22-1.184.33-1.904.33Z" fill="#344054"/><rect x="31.5" y="2" width="28" height="28" rx="14" fill="#98A2B3"/><rect x="31.5" y="2" width="28" height="28" rx="14" stroke="#fff" stroke-width="4"/><path d="M47.33 10.818V21h-2.152v-8.139h-.06l-2.332 1.462v-1.909l2.52-1.596h2.024Z" fill="#fff"/><path fill="#E8178A" fill-opacity=".24" d="M2 33.5h88v4H2z"/><path d="M97.5 33.5v4" stroke="#E8178A"/><rect x="104" y="28" width="31" height="18" rx="3" fill="#E8178A"/><path d="M110.479 39.722V38.51l3.037-4.784h1.044v1.676h-.618l-1.914 3.03v.056h4.314v1.233h-5.863ZM113.97 41v-1.648l.029-.536v-5.089h1.441V41h-1.47Zm3.411 2.045v-7.5h1.492v.917h.067c.066-.147.162-.296.288-.448a1.49 1.49 0 0 1 .497-.383c.206-.105.461-.157.767-.157.398 0 .765.105 1.101.313.336.206.605.517.806.934.201.414.302.934.302 1.559 0 .608-.099 1.122-.295 1.541-.194.417-.459.733-.796.948-.333.213-.707.32-1.122.32a1.75 1.75 0 0 1-.749-.146 1.545 1.545 0 0 1-.501-.366c-.13-.149-.229-.3-.298-.45h-.046v2.918h-1.513Zm1.481-4.772c0 .324.045.607.135.848.09.242.22.43.39.565a.984.984 0 0 0 .622.199.977.977 0 0 0 .625-.203c.17-.137.299-.326.387-.568.09-.243.135-.524.135-.841 0-.315-.044-.592-.131-.831a1.238 1.238 0 0 0-.388-.561.98.98 0 0 0-.628-.203.999.999 0 0 0-.625.196 1.22 1.22 0 0 0-.387.554c-.09.239-.135.52-.135.845Zm5.916-2.728 1.001 1.907 1.027-1.907h1.552l-1.581 2.728L128.4 41h-1.545l-1.076-1.886L124.721 41h-1.562l1.619-2.727-1.562-2.728h1.562Z" fill="#fff"/><path stroke="#E8178A" d="M94 34h7m-7 3h7"/></svg>