<svg width="492" height="153" viewBox="0 0 492 153" fill="none" xmlns="http://www.w3.org/2000/svg">
<rect width="454" height="28" transform="translate(38 46)" fill="#F0F0F0"/>
<path d="M55.1742 56.4131C55.1742 56.4131 54.5424 57.3376 55.3699 58.533C55.3699 58.533 55.5004 57.9242 56.8073 57.9242H58.3759C59.8573 57.9242 60.9678 56.4586 60.2707 54.9467C60.2707 54.9467 61.316 55.0598 61.6655 54.3828C62.0137 53.7065 61.6436 53.4356 61.1209 53.4356H58.4851C58.4851 53.9209 57.5923 53.9885 57.5923 53.4356H56.1109C56.1109 53.4356 54.9998 53.4356 54.9785 54.4056C54.9785 54.4056 55.2295 54.2477 55.4791 54.2256V54.4842C55.4791 54.4842 55.1742 54.5407 55.0324 54.62C54.8912 54.6986 54.6842 54.913 54.8806 55.4659C55.0763 56.0181 55.1529 56.2097 55.1529 56.2097C55.1529 56.2097 55.4691 55.9271 55.9811 55.9271H56.5803C57.6469 55.9271 57.4512 56.9984 56.3839 56.9984C55.3167 56.9984 55.1755 56.4124 55.1755 56.4124L55.1742 56.4131Z" fill="#DB0000"/>
<path d="M60.7394 55.297C60.7394 55.297 61.0989 55.3197 61.3599 55.0832C61.3599 55.0832 63.7234 56.9894 60.2168 60.8231C56.7095 64.6575 59.4212 67.1393 59.4212 67.1393C59.4212 67.1393 58.79 67.7701 59.1489 69C59.1489 69 57.6902 68.1472 56.5743 66.6988C54.9618 64.6058 53.9765 61.4036 58.4045 58.8494C58.4045 58.8494 61.3273 57.3272 60.7394 55.297Z" fill="#DB0000"/>
<path d="M57.127 53.0751C57.127 53.0751 57.5991 52.203 58.6949 52.203C59.5591 52.203 59.7562 51.7439 59.7562 51.7439C59.7562 51.7439 60.133 51 62.0358 51C63.7795 51 64.9546 51.6018 65.9053 52.4057C65.9053 52.4057 63.3421 50.7594 60.8154 53.0751H57.127Z" fill="#DB0000"/>
<path d="M67.7861 58.5936C67.7135 55.8719 65.6803 52.9551 61.3094 53.1205C65.5791 49.3764 72.9852 57.736 66.8853 62.1281C66.8853 62.1281 67.906 60.6204 67.7861 58.5936Z" fill="#DB0000"/>
<path d="M61.9632 53.4211C67.2927 53.2557 69.1955 59.8718 65.7534 62.8493L62.2974 64.5789C62.2974 64.5789 61.8473 63.0754 63.5178 61.3154C65.1882 59.5567 66.7994 56.2635 62.1822 54.0981C62.1822 54.0981 62.2694 53.6473 61.9645 53.4218L61.9632 53.4211Z" fill="#DB0000"/>
<path d="M61.6869 54.9095C61.6869 54.9095 61.9485 54.6538 62.0358 54.4435C65.9998 56.1573 65.376 59.0604 63.0085 61.496C61.5564 63.0444 62.0065 64.7141 62.0065 64.7141C62.0065 64.7141 60.2355 65.8564 59.625 66.8491C59.625 66.8491 57.0604 64.5879 60.6123 60.8349C64.0977 57.1508 61.6869 54.9095 61.6869 54.9095Z" fill="#DB0000"/>
<path d="M79.6506 65H78.358L82.0966 54.8182H83.3693L87.108 65H85.8153L82.7727 56.429H82.6932L79.6506 65ZM80.1278 61.0227H85.3381V62.1165H80.1278V61.0227ZM98.1996 57.3636C98.1399 56.8598 97.898 56.4688 97.4737 56.1903C97.0495 55.9119 96.5291 55.7727 95.9126 55.7727C95.4619 55.7727 95.0675 55.8456 94.7294 55.9915C94.3946 56.1373 94.1328 56.3378 93.9439 56.593C93.7583 56.8482 93.6655 57.1383 93.6655 57.4631C93.6655 57.7348 93.7301 57.9685 93.8594 58.1641C93.992 58.3563 94.161 58.517 94.3665 58.6463C94.572 58.7723 94.7874 58.8767 95.0128 58.9595C95.2382 59.0391 95.4453 59.1037 95.6342 59.1534L96.6683 59.4318C96.9335 59.5014 97.2285 59.5975 97.5533 59.7202C97.8814 59.8428 98.1946 60.0102 98.4929 60.2223C98.7945 60.4311 99.0431 60.6996 99.2386 61.0277C99.4342 61.3558 99.532 61.7585 99.532 62.2358C99.532 62.786 99.3878 63.2831 99.0994 63.7273C98.8144 64.1714 98.3968 64.5244 97.8466 64.7862C97.2997 65.0481 96.6352 65.179 95.853 65.179C95.1238 65.179 94.4924 65.0613 93.9588 64.826C93.4285 64.5907 93.0109 64.2625 92.706 63.8416C92.4044 63.4207 92.2337 62.9318 92.1939 62.375H93.4666C93.4998 62.7595 93.629 63.0777 93.8544 63.3295C94.0831 63.5781 94.3714 63.7637 94.7195 63.8864C95.0708 64.0057 95.4486 64.0653 95.853 64.0653C96.3236 64.0653 96.7462 63.9891 97.1207 63.8366C97.4953 63.6809 97.7919 63.4654 98.0107 63.1903C98.2294 62.9119 98.3388 62.5871 98.3388 62.2159C98.3388 61.8778 98.2443 61.6027 98.0554 61.3906C97.8665 61.1785 97.6179 61.0062 97.3097 60.8736C97.0014 60.741 96.6683 60.625 96.3104 60.5256L95.0575 60.1676C94.2621 59.9389 93.6323 59.6125 93.1683 59.1882C92.7043 58.764 92.4723 58.2088 92.4723 57.5227C92.4723 56.9527 92.6264 56.4555 92.9347 56.0312C93.2462 55.6037 93.6638 55.2723 94.1875 55.0369C94.7145 54.7983 95.3028 54.679 95.9524 54.679C96.6087 54.679 97.192 54.7966 97.7024 55.032C98.2128 55.264 98.6172 55.5821 98.9155 55.9865C99.2171 56.3909 99.3762 56.8499 99.3928 57.3636H98.1996ZM101.4 65V57.3636H102.573V65H101.4ZM101.997 56.0909C101.768 56.0909 101.571 56.013 101.405 55.8572C101.243 55.7015 101.161 55.5142 101.161 55.2955C101.161 55.0767 101.243 54.8894 101.405 54.7337C101.571 54.5779 101.768 54.5 101.997 54.5C102.225 54.5 102.421 54.5779 102.583 54.7337C102.749 54.8894 102.832 55.0767 102.832 55.2955C102.832 55.5142 102.749 55.7015 102.583 55.8572C102.421 56.013 102.225 56.0909 101.997 56.0909ZM105.896 60.4062V65H104.722V57.3636H105.856V58.5568H105.955C106.134 58.169 106.406 57.8575 106.771 57.6222C107.135 57.3835 107.606 57.2642 108.183 57.2642C108.7 57.2642 109.152 57.3703 109.54 57.5824C109.928 57.7912 110.229 58.1094 110.445 58.5369C110.66 58.9612 110.768 59.4981 110.768 60.1477V65H109.594V60.2273C109.594 59.6274 109.439 59.16 109.127 58.8253C108.816 58.4872 108.388 58.3182 107.844 58.3182C107.47 58.3182 107.135 58.3994 106.84 58.5618C106.549 58.7242 106.318 58.9612 106.149 59.2727C105.98 59.5843 105.896 59.9621 105.896 60.4062ZM115.994 68.0227C115.427 68.0227 114.94 67.9498 114.532 67.804C114.125 67.6615 113.785 67.4725 113.513 67.2372C113.245 67.0052 113.031 66.7566 112.872 66.4915L113.807 65.8352C113.913 65.9744 114.047 66.1335 114.209 66.3125C114.372 66.4948 114.594 66.6522 114.876 66.7848C115.161 66.9207 115.533 66.9886 115.994 66.9886C116.611 66.9886 117.119 66.8395 117.52 66.5412C117.921 66.2429 118.122 65.7756 118.122 65.1392V63.5881H118.023C117.936 63.7273 117.814 63.8996 117.655 64.1051C117.499 64.3073 117.273 64.4879 116.979 64.647C116.687 64.8028 116.292 64.8807 115.795 64.8807C115.179 64.8807 114.625 64.7348 114.135 64.4432C113.648 64.1515 113.261 63.7273 112.976 63.1705C112.695 62.6136 112.554 61.9375 112.554 61.142C112.554 60.3598 112.691 59.6787 112.966 59.0987C113.242 58.5154 113.624 58.0646 114.115 57.7464C114.605 57.425 115.172 57.2642 115.815 57.2642C116.312 57.2642 116.707 57.3471 116.998 57.5128C117.293 57.6752 117.519 57.8608 117.675 58.0696C117.834 58.2751 117.956 58.4441 118.042 58.5767H118.162V57.3636H119.295V65.2188C119.295 65.875 119.146 66.4086 118.848 66.8196C118.553 67.2339 118.155 67.5372 117.655 67.7294C117.157 67.925 116.604 68.0227 115.994 68.0227ZM115.954 63.8267C116.425 63.8267 116.823 63.719 117.148 63.5036C117.472 63.2881 117.719 62.9782 117.888 62.5739C118.057 62.1695 118.142 61.6856 118.142 61.1222C118.142 60.572 118.059 60.0864 117.893 59.6655C117.728 59.2446 117.482 58.9148 117.157 58.6761C116.833 58.4375 116.432 58.3182 115.954 58.3182C115.457 58.3182 115.043 58.4441 114.711 58.696C114.383 58.9479 114.136 59.286 113.971 59.7102C113.808 60.1345 113.727 60.6051 113.727 61.1222C113.727 61.6525 113.81 62.1214 113.976 62.5291C114.145 62.9335 114.393 63.2517 114.721 63.4837C115.053 63.7124 115.464 63.8267 115.954 63.8267ZM123.69 65.179C123.206 65.179 122.767 65.0878 122.373 64.9055C121.978 64.7199 121.665 64.4531 121.433 64.1051C121.201 63.7538 121.085 63.3295 121.085 62.8324C121.085 62.3949 121.171 62.0402 121.344 61.7685C121.516 61.4934 121.746 61.2779 122.035 61.1222C122.323 60.9664 122.641 60.8504 122.989 60.7741C123.34 60.6946 123.693 60.6316 124.048 60.5852C124.512 60.5256 124.888 60.4808 125.177 60.451C125.468 60.4179 125.68 60.3632 125.813 60.2869C125.949 60.2107 126.017 60.0781 126.017 59.8892V59.8494C126.017 59.3589 125.883 58.9777 125.614 58.706C125.349 58.4342 124.946 58.2983 124.406 58.2983C123.846 58.2983 123.407 58.4209 123.089 58.6662C122.77 58.9115 122.547 59.1733 122.417 59.4517L121.304 59.054C121.503 58.59 121.768 58.2287 122.099 57.9702C122.434 57.7083 122.799 57.526 123.193 57.4233C123.591 57.3172 123.982 57.2642 124.366 57.2642C124.612 57.2642 124.893 57.294 125.211 57.3537C125.533 57.41 125.843 57.5277 126.141 57.7067C126.443 57.8857 126.693 58.1558 126.892 58.517C127.091 58.8783 127.19 59.3622 127.19 59.9688V65H126.017V63.9659H125.957C125.878 64.1316 125.745 64.3089 125.559 64.4979C125.374 64.6868 125.127 64.8475 124.819 64.9801C124.51 65.1127 124.134 65.179 123.69 65.179ZM123.869 64.125C124.333 64.125 124.724 64.0339 125.042 63.8516C125.364 63.6693 125.606 63.4339 125.768 63.1456C125.934 62.8572 126.017 62.554 126.017 62.2358V61.1619C125.967 61.2216 125.858 61.2763 125.689 61.326C125.523 61.3724 125.331 61.4138 125.112 61.4503C124.897 61.4834 124.686 61.5133 124.481 61.5398C124.278 61.563 124.114 61.5829 123.988 61.5994C123.684 61.6392 123.398 61.7038 123.133 61.7933C122.872 61.8795 122.659 62.0104 122.497 62.1861C122.338 62.3584 122.258 62.5937 122.258 62.892C122.258 63.2997 122.409 63.608 122.711 63.8168C123.016 64.0223 123.402 64.125 123.869 64.125ZM129.332 67.8636V57.3636H130.465V58.5767H130.604C130.691 58.4441 130.81 58.2751 130.962 58.0696C131.118 57.8608 131.34 57.6752 131.629 57.5128C131.92 57.3471 132.315 57.2642 132.812 57.2642C133.455 57.2642 134.022 57.425 134.512 57.7464C135.003 58.0679 135.385 58.5237 135.661 59.1136C135.936 59.7036 136.073 60.3996 136.073 61.2017C136.073 62.0104 135.936 62.7114 135.661 63.3047C135.385 63.8946 135.004 64.352 134.517 64.6768C134.03 64.9983 133.468 65.1591 132.832 65.1591C132.341 65.1591 131.948 65.0779 131.653 64.9155C131.358 64.7498 131.131 64.5625 130.972 64.3537C130.813 64.1416 130.691 63.9659 130.604 63.8267H130.505V67.8636H129.332ZM130.485 61.1818C130.485 61.7585 130.57 62.2673 130.739 62.7081C130.908 63.1456 131.155 63.4886 131.479 63.7372C131.804 63.9825 132.202 64.1051 132.673 64.1051C133.163 64.1051 133.572 63.9759 133.901 63.7173C134.232 63.4555 134.481 63.1042 134.646 62.6634C134.815 62.2192 134.9 61.7254 134.9 61.1818C134.9 60.6449 134.817 60.161 134.651 59.7301C134.489 59.2959 134.242 58.9529 133.911 58.701C133.582 58.4458 133.17 58.3182 132.673 58.3182C132.195 58.3182 131.794 58.4392 131.469 58.6811C131.145 58.9197 130.899 59.2545 130.734 59.6854C130.568 60.1129 130.485 60.6117 130.485 61.1818ZM140.965 65.1591C140.276 65.1591 139.671 64.995 139.151 64.6669C138.634 64.3388 138.229 63.8797 137.938 63.2898C137.649 62.6998 137.505 62.0104 137.505 61.2216C137.505 60.4261 137.649 59.7318 137.938 59.1385C138.229 58.5452 138.634 58.0845 139.151 57.7564C139.671 57.4283 140.276 57.2642 140.965 57.2642C141.655 57.2642 142.258 57.4283 142.775 57.7564C143.295 58.0845 143.7 58.5452 143.988 59.1385C144.28 59.7318 144.425 60.4261 144.425 61.2216C144.425 62.0104 144.28 62.6998 143.988 63.2898C143.7 63.8797 143.295 64.3388 142.775 64.6669C142.258 64.995 141.655 65.1591 140.965 65.1591ZM140.965 64.1051C141.489 64.1051 141.92 63.9709 142.258 63.7024C142.596 63.4339 142.846 63.081 143.009 62.6435C143.171 62.206 143.252 61.732 143.252 61.2216C143.252 60.7112 143.171 60.2356 143.009 59.7947C142.846 59.3539 142.596 58.9976 142.258 58.7259C141.92 58.4541 141.489 58.3182 140.965 58.3182C140.442 58.3182 140.011 58.4541 139.673 58.7259C139.335 58.9976 139.084 59.3539 138.922 59.7947C138.759 60.2356 138.678 60.7112 138.678 61.2216C138.678 61.732 138.759 62.206 138.922 62.6435C139.084 63.081 139.335 63.4339 139.673 63.7024C140.011 63.9709 140.442 64.1051 140.965 64.1051ZM146.216 65V57.3636H147.35V58.517H147.43C147.569 58.1392 147.821 57.8326 148.185 57.5973C148.55 57.362 148.961 57.2443 149.418 57.2443C149.504 57.2443 149.612 57.246 149.741 57.2493C149.871 57.2526 149.968 57.2576 150.035 57.2642V58.4574C149.995 58.4474 149.904 58.4325 149.761 58.4126C149.622 58.3894 149.474 58.3778 149.319 58.3778C148.948 58.3778 148.616 58.4557 148.324 58.6115C148.036 58.764 147.807 58.9761 147.638 59.2479C147.473 59.5163 147.39 59.8229 147.39 60.1676V65H146.216ZM154.395 65.1591C153.659 65.1591 153.024 64.9967 152.491 64.6719C151.96 64.3438 151.551 63.8864 151.263 63.2997C150.978 62.7098 150.835 62.0237 150.835 61.2415C150.835 60.4593 150.978 59.7699 151.263 59.1733C151.551 58.5734 151.952 58.1061 152.466 57.7713C152.983 57.4332 153.586 57.2642 154.275 57.2642C154.673 57.2642 155.066 57.3305 155.454 57.4631C155.841 57.5956 156.194 57.8111 156.513 58.1094C156.831 58.4044 157.084 58.7955 157.273 59.2827C157.462 59.7699 157.557 60.3698 157.557 61.0824V61.5795H151.67V60.5653H156.363C156.363 60.1345 156.277 59.75 156.105 59.4119C155.936 59.0739 155.694 58.8071 155.379 58.6115C155.068 58.416 154.7 58.3182 154.275 58.3182C153.808 58.3182 153.404 58.4342 153.062 58.6662C152.724 58.8949 152.464 59.1932 152.282 59.5611C152.099 59.929 152.008 60.3234 152.008 60.7443V61.4205C152.008 61.9972 152.108 62.486 152.307 62.8871C152.509 63.2848 152.789 63.5881 153.147 63.7969C153.505 64.0024 153.921 64.1051 154.395 64.1051C154.703 64.1051 154.981 64.062 155.23 63.9759C155.482 63.8864 155.699 63.7538 155.881 63.5781C156.064 63.3991 156.204 63.1771 156.304 62.9119L157.437 63.2301C157.318 63.6146 157.117 63.9527 156.836 64.2443C156.554 64.5327 156.206 64.758 155.792 64.9205C155.377 65.0795 154.912 65.1591 154.395 65.1591ZM170.398 58C170.289 57.6652 170.145 57.3653 169.966 57.1001C169.79 56.8317 169.58 56.603 169.334 56.4141C169.092 56.2251 168.817 56.081 168.509 55.9815C168.201 55.8821 167.863 55.8324 167.495 55.8324C166.892 55.8324 166.343 55.9882 165.849 56.2997C165.355 56.6113 164.963 57.0703 164.671 57.6768C164.379 58.2834 164.233 59.0275 164.233 59.9091C164.233 60.7907 164.381 61.5348 164.676 62.1413C164.971 62.7479 165.37 63.2069 165.874 63.5185C166.378 63.83 166.945 63.9858 167.574 63.9858C168.158 63.9858 168.671 63.8615 169.116 63.6129C169.563 63.361 169.911 63.0064 170.16 62.549C170.412 62.0883 170.537 61.5464 170.537 60.9233L170.915 61.0028H167.853V59.9091H171.731V61.0028C171.731 61.8414 171.552 62.5705 171.194 63.1903C170.839 63.8101 170.349 64.2907 169.722 64.6321C169.099 64.9702 168.383 65.1392 167.574 65.1392C166.673 65.1392 165.881 64.9271 165.198 64.5028C164.519 64.0786 163.988 63.4754 163.607 62.6932C163.229 61.911 163.04 60.983 163.04 59.9091C163.04 59.1037 163.148 58.3795 163.363 57.7365C163.582 57.0902 163.89 56.54 164.288 56.0859C164.686 55.6319 165.157 55.2839 165.7 55.0419C166.244 54.8 166.842 54.679 167.495 54.679C168.032 54.679 168.532 54.7602 168.996 54.9226C169.464 55.0817 169.88 55.3087 170.244 55.6037C170.612 55.8954 170.919 56.245 171.164 56.6527C171.409 57.0571 171.578 57.5062 171.671 58H170.398ZM176.786 65.1591C176.096 65.1591 175.491 64.995 174.971 64.6669C174.454 64.3388 174.049 63.8797 173.758 63.2898C173.469 62.6998 173.325 62.0104 173.325 61.2216C173.325 60.4261 173.469 59.7318 173.758 59.1385C174.049 58.5452 174.454 58.0845 174.971 57.7564C175.491 57.4283 176.096 57.2642 176.786 57.2642C177.475 57.2642 178.078 57.4283 178.595 57.7564C179.116 58.0845 179.52 58.5452 179.808 59.1385C180.1 59.7318 180.246 60.4261 180.246 61.2216C180.246 62.0104 180.1 62.6998 179.808 63.2898C179.52 63.8797 179.116 64.3388 178.595 64.6669C178.078 64.995 177.475 65.1591 176.786 65.1591ZM176.786 64.1051C177.309 64.1051 177.74 63.9709 178.078 63.7024C178.416 63.4339 178.666 63.081 178.829 62.6435C178.991 62.206 179.072 61.732 179.072 61.2216C179.072 60.7112 178.991 60.2356 178.829 59.7947C178.666 59.3539 178.416 58.9976 178.078 58.7259C177.74 58.4541 177.309 58.3182 176.786 58.3182C176.262 58.3182 175.831 58.4541 175.493 58.7259C175.155 58.9976 174.905 59.3539 174.742 59.7947C174.58 60.2356 174.499 60.7112 174.499 61.2216C174.499 61.732 174.58 62.206 174.742 62.6435C174.905 63.081 175.155 63.4339 175.493 63.7024C175.831 63.9709 176.262 64.1051 176.786 64.1051ZM188.008 57.3636L185.184 65H183.991L181.167 57.3636H182.439L184.547 63.4489H184.627L186.735 57.3636H188.008ZM192.485 65.1591C191.749 65.1591 191.114 64.9967 190.58 64.6719C190.05 64.3438 189.641 63.8864 189.352 63.2997C189.067 62.7098 188.925 62.0237 188.925 61.2415C188.925 60.4593 189.067 59.7699 189.352 59.1733C189.641 58.5734 190.042 58.1061 190.556 57.7713C191.073 57.4332 191.676 57.2642 192.365 57.2642C192.763 57.2642 193.156 57.3305 193.544 57.4631C193.931 57.5956 194.284 57.8111 194.602 58.1094C194.921 58.4044 195.174 58.7955 195.363 59.2827C195.552 59.7699 195.646 60.3698 195.646 61.0824V61.5795H189.76V60.5653H194.453C194.453 60.1345 194.367 59.75 194.195 59.4119C194.026 59.0739 193.784 58.8071 193.469 58.6115C193.157 58.416 192.789 58.3182 192.365 58.3182C191.898 58.3182 191.494 58.4342 191.152 58.6662C190.814 58.8949 190.554 59.1932 190.372 59.5611C190.189 59.929 190.098 60.3234 190.098 60.7443V61.4205C190.098 61.9972 190.198 62.486 190.396 62.8871C190.599 63.2848 190.879 63.5881 191.237 63.7969C191.595 64.0024 192.011 64.1051 192.485 64.1051C192.793 64.1051 193.071 64.062 193.32 63.9759C193.572 63.8864 193.789 63.7538 193.971 63.5781C194.153 63.3991 194.294 63.1771 194.394 62.9119L195.527 63.2301C195.408 63.6146 195.207 63.9527 194.926 64.2443C194.644 64.5327 194.296 64.758 193.882 64.9205C193.467 65.0795 193.002 65.1591 192.485 65.1591ZM197.431 65V57.3636H198.565V58.517H198.644C198.784 58.1392 199.035 57.8326 199.4 57.5973C199.765 57.362 200.176 57.2443 200.633 57.2443C200.719 57.2443 200.827 57.246 200.956 57.2493C201.085 57.2526 201.183 57.2576 201.249 57.2642V58.4574C201.21 58.4474 201.119 58.4325 200.976 58.4126C200.837 58.3894 200.689 58.3778 200.534 58.3778C200.162 58.3778 199.831 58.4557 199.539 58.6115C199.251 58.764 199.022 58.9761 198.853 59.2479C198.687 59.5163 198.605 59.8229 198.605 60.1676V65H197.431ZM203.814 60.4062V65H202.64V57.3636H203.774V58.5568H203.873C204.052 58.169 204.324 57.8575 204.689 57.6222C205.053 57.3835 205.524 57.2642 206.1 57.2642C206.618 57.2642 207.07 57.3703 207.458 57.5824C207.846 57.7912 208.147 58.1094 208.363 58.5369C208.578 58.9612 208.686 59.4981 208.686 60.1477V65H207.512V60.2273C207.512 59.6274 207.357 59.16 207.045 58.8253C206.734 58.4872 206.306 58.3182 205.762 58.3182C205.388 58.3182 205.053 58.3994 204.758 58.5618C204.467 58.7242 204.236 58.9612 204.067 59.2727C203.898 59.5843 203.814 59.9621 203.814 60.4062ZM210.83 65V57.3636H211.963V58.5568H212.063C212.222 58.1491 212.479 57.8326 212.833 57.6072C213.188 57.3786 213.614 57.2642 214.111 57.2642C214.615 57.2642 215.034 57.3786 215.369 57.6072C215.707 57.8326 215.97 58.1491 216.159 58.5568H216.239C216.434 58.1624 216.728 57.8492 217.119 57.6172C217.51 57.3819 217.979 57.2642 218.526 57.2642C219.209 57.2642 219.767 57.478 220.201 57.9055C220.635 58.3298 220.852 58.991 220.852 59.8892V65H219.679V59.8892C219.679 59.3258 219.525 58.9231 219.217 58.6811C218.909 58.4392 218.546 58.3182 218.128 58.3182C217.591 58.3182 217.175 58.4806 216.88 58.8054C216.585 59.1269 216.438 59.5346 216.438 60.0284V65H215.244V59.7699C215.244 59.3357 215.104 58.986 214.822 58.7209C214.54 58.4524 214.177 58.3182 213.733 58.3182C213.428 58.3182 213.143 58.3994 212.878 58.5618C212.616 58.7242 212.404 58.9496 212.242 59.2379C212.083 59.523 212.003 59.8527 212.003 60.2273V65H210.83ZM226.199 65.1591C225.464 65.1591 224.829 64.9967 224.295 64.6719C223.765 64.3438 223.356 63.8864 223.067 63.2997C222.782 62.7098 222.64 62.0237 222.64 61.2415C222.64 60.4593 222.782 59.7699 223.067 59.1733C223.356 58.5734 223.757 58.1061 224.27 57.7713C224.787 57.4332 225.391 57.2642 226.08 57.2642C226.478 57.2642 226.871 57.3305 227.258 57.4631C227.646 57.5956 227.999 57.8111 228.317 58.1094C228.635 58.4044 228.889 58.7955 229.078 59.2827C229.267 59.7699 229.361 60.3698 229.361 61.0824V61.5795H223.475V60.5653H228.168C228.168 60.1345 228.082 59.75 227.91 59.4119C227.741 59.0739 227.499 58.8071 227.184 58.6115C226.872 58.416 226.504 58.3182 226.08 58.3182C225.613 58.3182 225.208 58.4342 224.867 58.6662C224.529 58.8949 224.269 59.1932 224.086 59.5611C223.904 59.929 223.813 60.3234 223.813 60.7443V61.4205C223.813 61.9972 223.912 62.486 224.111 62.8871C224.314 63.2848 224.594 63.5881 224.952 63.7969C225.309 64.0024 225.725 64.1051 226.199 64.1051C226.508 64.1051 226.786 64.062 227.035 63.9759C227.287 63.8864 227.504 63.7538 227.686 63.5781C227.868 63.3991 228.009 63.1771 228.108 62.9119L229.242 63.2301C229.123 63.6146 228.922 63.9527 228.64 64.2443C228.359 64.5327 228.011 64.758 227.596 64.9205C227.182 65.0795 226.716 65.1591 226.199 65.1591ZM232.319 60.4062V65H231.146V57.3636H232.28V58.5568H232.379C232.558 58.169 232.83 57.8575 233.194 57.6222C233.559 57.3835 234.03 57.2642 234.606 57.2642C235.123 57.2642 235.576 57.3703 235.964 57.5824C236.351 57.7912 236.653 58.1094 236.868 58.5369C237.084 58.9612 237.192 59.4981 237.192 60.1477V65H236.018V60.2273C236.018 59.6274 235.863 59.16 235.551 58.8253C235.239 58.4872 234.812 58.3182 234.268 58.3182C233.894 58.3182 233.559 58.3994 233.264 58.5618C232.972 58.7242 232.742 58.9612 232.573 59.2727C232.404 59.5843 232.319 59.9621 232.319 60.4062ZM242.657 57.3636V58.358H238.699V57.3636H242.657ZM239.853 55.5341H241.026V62.8125C241.026 63.1439 241.074 63.3925 241.17 63.5582C241.27 63.7206 241.395 63.83 241.548 63.8864C241.704 63.9394 241.868 63.9659 242.04 63.9659C242.169 63.9659 242.275 63.9593 242.358 63.946C242.441 63.9295 242.507 63.9162 242.557 63.9062L242.796 64.9602C242.716 64.9901 242.605 65.0199 242.463 65.0497C242.32 65.0829 242.14 65.0994 241.921 65.0994C241.589 65.0994 241.265 65.0282 240.946 64.8857C240.632 64.7431 240.37 64.526 240.161 64.2344C239.955 63.9427 239.853 63.5748 239.853 63.1307V55.5341ZM248.936 65H247.643L251.382 54.8182H252.654L256.393 65H255.1L252.058 56.429H251.978L248.936 65ZM249.413 61.0227H254.623V62.1165H249.413V61.0227ZM260.902 68.0227C260.336 68.0227 259.848 67.9498 259.441 67.804C259.033 67.6615 258.693 67.4725 258.422 67.2372C258.153 67.0052 257.939 66.7566 257.78 66.4915L258.715 65.8352C258.821 65.9744 258.955 66.1335 259.118 66.3125C259.28 66.4948 259.502 66.6522 259.784 66.7848C260.069 66.9207 260.442 66.9886 260.902 66.9886C261.519 66.9886 262.028 66.8395 262.429 66.5412C262.83 66.2429 263.03 65.7756 263.03 65.1392V63.5881H262.931C262.845 63.7273 262.722 63.8996 262.563 64.1051C262.407 64.3073 262.182 64.4879 261.887 64.647C261.595 64.8028 261.201 64.8807 260.703 64.8807C260.087 64.8807 259.533 64.7348 259.043 64.4432C258.556 64.1515 258.17 63.7273 257.885 63.1705C257.603 62.6136 257.462 61.9375 257.462 61.142C257.462 60.3598 257.6 59.6787 257.875 59.0987C258.15 58.5154 258.533 58.0646 259.023 57.7464C259.514 57.425 260.08 57.2642 260.723 57.2642C261.221 57.2642 261.615 57.3471 261.907 57.5128C262.202 57.6752 262.427 57.8608 262.583 58.0696C262.742 58.2751 262.864 58.4441 262.951 58.5767H263.07V57.3636H264.203V65.2188C264.203 65.875 264.054 66.4086 263.756 66.8196C263.461 67.2339 263.063 67.5372 262.563 67.7294C262.066 67.925 261.512 68.0227 260.902 68.0227ZM260.863 63.8267C261.333 63.8267 261.731 63.719 262.056 63.5036C262.381 63.2881 262.627 62.9782 262.797 62.5739C262.966 62.1695 263.05 61.6856 263.05 61.1222C263.05 60.572 262.967 60.0864 262.801 59.6655C262.636 59.2446 262.391 58.9148 262.066 58.6761C261.741 58.4375 261.34 58.3182 260.863 58.3182C260.365 58.3182 259.951 58.4441 259.62 58.696C259.292 58.9479 259.045 59.286 258.879 59.7102C258.717 60.1345 258.635 60.6051 258.635 61.1222C258.635 61.6525 258.718 62.1214 258.884 62.5291C259.053 62.9335 259.301 63.2517 259.63 63.4837C259.961 63.7124 260.372 63.8267 260.863 63.8267ZM269.553 65.1591C268.817 65.1591 268.182 64.9967 267.649 64.6719C267.118 64.3438 266.709 63.8864 266.421 63.2997C266.136 62.7098 265.993 62.0237 265.993 61.2415C265.993 60.4593 266.136 59.7699 266.421 59.1733C266.709 58.5734 267.11 58.1061 267.624 57.7713C268.141 57.4332 268.744 57.2642 269.434 57.2642C269.831 57.2642 270.224 57.3305 270.612 57.4631C271 57.5956 271.353 57.8111 271.671 58.1094C271.989 58.4044 272.243 58.7955 272.431 59.2827C272.62 59.7699 272.715 60.3698 272.715 61.0824V61.5795H266.828V60.5653H271.522C271.522 60.1345 271.435 59.75 271.263 59.4119C271.094 59.0739 270.852 58.8071 270.537 58.6115C270.226 58.416 269.858 58.3182 269.434 58.3182C268.966 58.3182 268.562 58.4342 268.221 58.6662C267.882 58.8949 267.622 59.1932 267.44 59.5611C267.258 59.929 267.167 60.3234 267.167 60.7443V61.4205C267.167 61.9972 267.266 62.486 267.465 62.8871C267.667 63.2848 267.947 63.5881 268.305 63.7969C268.663 64.0024 269.079 64.1051 269.553 64.1051C269.861 64.1051 270.14 64.062 270.388 63.9759C270.64 63.8864 270.857 63.7538 271.039 63.5781C271.222 63.3991 271.363 63.1771 271.462 62.9119L272.596 63.2301C272.476 63.6146 272.276 63.9527 271.994 64.2443C271.712 64.5327 271.364 64.758 270.95 64.9205C270.536 65.0795 270.07 65.1591 269.553 65.1591ZM275.673 60.4062V65H274.5V57.3636H275.633V58.5568H275.733C275.912 58.169 276.183 57.8575 276.548 57.6222C276.913 57.3835 277.383 57.2642 277.96 57.2642C278.477 57.2642 278.929 57.3703 279.317 57.5824C279.705 57.7912 280.007 58.1094 280.222 58.5369C280.437 58.9612 280.545 59.4981 280.545 60.1477V65H279.372V60.2273C279.372 59.6274 279.216 59.16 278.904 58.8253C278.593 58.4872 278.165 58.3182 277.622 58.3182C277.247 58.3182 276.913 58.3994 276.618 58.5618C276.326 58.7242 276.096 58.9612 275.926 59.2727C275.757 59.5843 275.673 59.9621 275.673 60.4062ZM285.791 65.1591C285.075 65.1591 284.459 64.9901 283.942 64.652C283.425 64.3139 283.027 63.8482 282.749 63.255C282.47 62.6617 282.331 61.9839 282.331 61.2216C282.331 60.446 282.474 59.7616 282.759 59.1683C283.047 58.5717 283.448 58.1061 283.962 57.7713C284.479 57.4332 285.082 57.2642 285.771 57.2642C286.308 57.2642 286.792 57.3636 287.223 57.5625C287.654 57.7614 288.007 58.0398 288.282 58.3977C288.557 58.7557 288.728 59.1733 288.794 59.6506H287.621C287.531 59.3026 287.333 58.9943 287.024 58.7259C286.719 58.4541 286.308 58.3182 285.791 58.3182C285.334 58.3182 284.933 58.4375 284.588 58.6761C284.247 58.9115 283.98 59.2446 283.788 59.6754C283.599 60.103 283.504 60.6051 283.504 61.1818C283.504 61.7718 283.597 62.2855 283.783 62.723C283.972 63.1605 284.237 63.5002 284.578 63.7422C284.923 63.9841 285.327 64.1051 285.791 64.1051C286.096 64.1051 286.373 64.0521 286.622 63.946C286.87 63.84 287.081 63.6875 287.253 63.4886C287.425 63.2898 287.548 63.0511 287.621 62.7727H288.794C288.728 63.2235 288.564 63.6295 288.302 63.9908C288.044 64.3487 287.7 64.6338 287.273 64.8459C286.849 65.0547 286.355 65.1591 285.791 65.1591ZM291.265 67.8636C291.066 67.8636 290.889 67.8471 290.733 67.8139C290.577 67.7841 290.47 67.7543 290.41 67.7244L290.708 66.6903C290.993 66.7633 291.245 66.7898 291.464 66.7699C291.683 66.75 291.877 66.6522 292.046 66.4766C292.218 66.3042 292.375 66.0241 292.518 65.6364L292.737 65.0398L289.913 57.3636H291.186L293.294 63.4489H293.373L295.481 57.3636H296.754L293.512 66.1136C293.366 66.508 293.186 66.8345 292.97 67.093C292.755 67.3549 292.505 67.5488 292.22 67.6747C291.938 67.8007 291.62 67.8636 291.265 67.8636ZM304.248 65L301.464 54.8182H302.717L304.845 63.1108H304.944L307.112 54.8182H308.504L310.672 63.1108H310.771L312.899 54.8182H314.152L311.368 65H310.095L307.848 56.8864H307.768L305.521 65H304.248ZM318.02 65.1591C317.284 65.1591 316.649 64.9967 316.116 64.6719C315.585 64.3438 315.176 63.8864 314.888 63.2997C314.603 62.7098 314.46 62.0237 314.46 61.2415C314.46 60.4593 314.603 59.7699 314.888 59.1733C315.176 58.5734 315.577 58.1061 316.091 57.7713C316.608 57.4332 317.211 57.2642 317.9 57.2642C318.298 57.2642 318.691 57.3305 319.079 57.4631C319.466 57.5956 319.819 57.8111 320.138 58.1094C320.456 58.4044 320.709 58.7955 320.898 59.2827C321.087 59.7699 321.182 60.3698 321.182 61.0824V61.5795H315.295V60.5653H319.988C319.988 60.1345 319.902 59.75 319.73 59.4119C319.561 59.0739 319.319 58.8071 319.004 58.6115C318.693 58.416 318.325 58.3182 317.9 58.3182C317.433 58.3182 317.029 58.4342 316.687 58.6662C316.349 58.8949 316.089 59.1932 315.907 59.5611C315.724 59.929 315.633 60.3234 315.633 60.7443V61.4205C315.633 61.9972 315.733 62.486 315.932 62.8871C316.134 63.2848 316.414 63.5881 316.772 63.7969C317.13 64.0024 317.546 64.1051 318.02 64.1051C318.328 64.1051 318.606 64.062 318.855 63.9759C319.107 63.8864 319.324 63.7538 319.506 63.5781C319.689 63.3991 319.829 63.1771 319.929 62.9119L321.062 63.2301C320.943 63.6146 320.742 63.9527 320.461 64.2443C320.179 64.5327 319.831 64.758 319.417 64.9205C319.002 65.0795 318.537 65.1591 318.02 65.1591ZM323.126 65V54.8182H324.299V58.5767H324.398C324.484 58.4441 324.604 58.2751 324.756 58.0696C324.912 57.8608 325.134 57.6752 325.422 57.5128C325.714 57.3471 326.108 57.2642 326.606 57.2642C327.249 57.2642 327.815 57.425 328.306 57.7464C328.796 58.0679 329.179 58.5237 329.454 59.1136C329.729 59.7036 329.867 60.3996 329.867 61.2017C329.867 62.0104 329.729 62.7114 329.454 63.3047C329.179 63.8946 328.798 64.352 328.311 64.6768C327.824 64.9983 327.262 65.1591 326.626 65.1591C326.135 65.1591 325.742 65.0779 325.447 64.9155C325.152 64.7498 324.925 64.5625 324.766 64.3537C324.607 64.1416 324.484 63.9659 324.398 63.8267H324.259V65H323.126ZM324.279 61.1818C324.279 61.7585 324.363 62.2673 324.532 62.7081C324.702 63.1456 324.948 63.4886 325.273 63.7372C325.598 63.9825 325.996 64.1051 326.466 64.1051C326.957 64.1051 327.366 63.9759 327.694 63.7173C328.026 63.4555 328.274 63.1042 328.44 62.6634C328.609 62.2192 328.694 61.7254 328.694 61.1818C328.694 60.6449 328.611 60.161 328.445 59.7301C328.283 59.2959 328.036 58.9529 327.704 58.701C327.376 58.4458 326.964 58.3182 326.466 58.3182C325.989 58.3182 325.588 58.4392 325.263 58.6811C324.939 58.9197 324.693 59.2545 324.528 59.6854C324.362 60.1129 324.279 60.6117 324.279 61.1818ZM337.071 59.0739L336.017 59.3722C335.951 59.1965 335.853 59.0258 335.724 58.8601C335.598 58.6911 335.425 58.5518 335.206 58.4425C334.988 58.3331 334.708 58.2784 334.366 58.2784C333.899 58.2784 333.51 58.3861 333.198 58.6016C332.89 58.8137 332.736 59.0838 332.736 59.4119C332.736 59.7036 332.842 59.9339 333.054 60.103C333.266 60.272 333.597 60.4129 334.048 60.5256L335.182 60.804C335.864 60.9697 336.373 61.2232 336.708 61.5646C337.043 61.9027 337.21 62.3385 337.21 62.8722C337.21 63.3097 337.084 63.7008 336.832 64.0455C336.584 64.3902 336.236 64.6619 335.788 64.8608C335.341 65.0597 334.82 65.1591 334.227 65.1591C333.448 65.1591 332.804 64.9901 332.293 64.652C331.783 64.3139 331.46 63.8201 331.324 63.1705L332.437 62.892C332.543 63.303 332.744 63.6113 333.039 63.8168C333.337 64.0223 333.727 64.125 334.207 64.125C334.754 64.125 335.188 64.009 335.51 63.777C335.835 63.5417 335.997 63.2599 335.997 62.9318C335.997 62.6667 335.904 62.4446 335.719 62.2656C335.533 62.0833 335.248 61.9474 334.863 61.858L333.591 61.5597C332.891 61.3939 332.378 61.1371 332.05 60.7891C331.725 60.4377 331.562 59.9986 331.562 59.4716C331.562 59.0407 331.683 58.6596 331.925 58.3281C332.171 57.9967 332.504 57.7365 332.925 57.5476C333.349 57.3587 333.829 57.2642 334.366 57.2642C335.122 57.2642 335.715 57.4299 336.146 57.7614C336.58 58.0928 336.889 58.5303 337.071 59.0739ZM338.976 65V57.3636H340.15V65H338.976ZM339.573 56.0909C339.344 56.0909 339.147 56.013 338.981 55.8572C338.819 55.7015 338.738 55.5142 338.738 55.2955C338.738 55.0767 338.819 54.8894 338.981 54.7337C339.147 54.5779 339.344 54.5 339.573 54.5C339.801 54.5 339.997 54.5779 340.159 54.7337C340.325 54.8894 340.408 55.0767 340.408 55.2955C340.408 55.5142 340.325 55.7015 340.159 55.8572C339.997 56.013 339.801 56.0909 339.573 56.0909ZM345.619 57.3636V58.358H341.662V57.3636H345.619ZM342.816 55.5341H343.989V62.8125C343.989 63.1439 344.037 63.3925 344.133 63.5582C344.232 63.7206 344.358 63.83 344.511 63.8864C344.667 63.9394 344.831 63.9659 345.003 63.9659C345.132 63.9659 345.238 63.9593 345.321 63.946C345.404 63.9295 345.47 63.9162 345.52 63.9062L345.759 64.9602C345.679 64.9901 345.568 65.0199 345.426 65.0497C345.283 65.0829 345.102 65.0994 344.884 65.0994C344.552 65.0994 344.227 65.0282 343.909 64.8857C343.594 64.7431 343.333 64.526 343.124 64.2344C342.918 63.9427 342.816 63.5748 342.816 63.1307V55.5341ZM350.504 65.1591C349.768 65.1591 349.134 64.9967 348.6 64.6719C348.07 64.3438 347.66 63.8864 347.372 63.2997C347.087 62.7098 346.944 62.0237 346.944 61.2415C346.944 60.4593 347.087 59.7699 347.372 59.1733C347.66 58.5734 348.061 58.1061 348.575 57.7713C349.092 57.4332 349.695 57.2642 350.385 57.2642C350.782 57.2642 351.175 57.3305 351.563 57.4631C351.951 57.5956 352.304 57.8111 352.622 58.1094C352.94 58.4044 353.194 58.7955 353.383 59.2827C353.572 59.7699 353.666 60.3698 353.666 61.0824V61.5795H347.78V60.5653H352.473C352.473 60.1345 352.387 59.75 352.214 59.4119C352.045 59.0739 351.803 58.8071 351.488 58.6115C351.177 58.416 350.809 58.3182 350.385 58.3182C349.917 58.3182 349.513 58.4342 349.172 58.6662C348.834 58.8949 348.573 59.1932 348.391 59.5611C348.209 59.929 348.118 60.3234 348.118 60.7443V61.4205C348.118 61.9972 348.217 62.486 348.416 62.8871C348.618 63.2848 348.898 63.5881 349.256 63.7969C349.614 64.0024 350.03 64.1051 350.504 64.1051C350.812 64.1051 351.091 64.062 351.339 63.9759C351.591 63.8864 351.808 63.7538 351.991 63.5781C352.173 63.3991 352.314 63.1771 352.413 62.9119L353.547 63.2301C353.427 63.6146 353.227 63.9527 352.945 64.2443C352.663 64.5327 352.315 64.758 351.901 64.9205C351.487 65.0795 351.021 65.1591 350.504 65.1591Z" fill="#344054"/>
<path d="M360.233 65V54.8182H361.466V59.3523H366.895V54.8182H368.128V65H366.895V60.446H361.466V65H360.233ZM373.539 65.1591C372.85 65.1591 372.245 64.995 371.725 64.6669C371.208 64.3388 370.803 63.8797 370.512 63.2898C370.223 62.6998 370.079 62.0104 370.079 61.2216C370.079 60.4261 370.223 59.7318 370.512 59.1385C370.803 58.5452 371.208 58.0845 371.725 57.7564C372.245 57.4283 372.85 57.2642 373.539 57.2642C374.229 57.2642 374.832 57.4283 375.349 57.7564C375.869 58.0845 376.274 58.5452 376.562 59.1385C376.854 59.7318 377 60.4261 377 61.2216C377 62.0104 376.854 62.6998 376.562 63.2898C376.274 63.8797 375.869 64.3388 375.349 64.6669C374.832 64.995 374.229 65.1591 373.539 65.1591ZM373.539 64.1051C374.063 64.1051 374.494 63.9709 374.832 63.7024C375.17 63.4339 375.42 63.081 375.583 62.6435C375.745 62.206 375.826 61.732 375.826 61.2216C375.826 60.7112 375.745 60.2356 375.583 59.7947C375.42 59.3539 375.17 58.9976 374.832 58.7259C374.494 58.4541 374.063 58.3182 373.539 58.3182C373.016 58.3182 372.585 58.4541 372.247 58.7259C371.909 58.9976 371.658 59.3539 371.496 59.7947C371.334 60.2356 371.252 60.7112 371.252 61.2216C371.252 61.732 371.334 62.206 371.496 62.6435C371.658 63.081 371.909 63.4339 372.247 63.7024C372.585 63.9709 373.016 64.1051 373.539 64.1051ZM380.261 65L377.934 57.3636H379.167L380.818 63.2102H380.897L382.528 57.3636H383.781L385.392 63.1903H385.471L387.122 57.3636H388.355L386.028 65H384.875L383.204 59.1335H383.085L381.414 65H380.261ZM397.164 57.3636V58.358H393.207V57.3636H397.164ZM394.36 55.5341H395.534V62.8125C395.534 63.1439 395.582 63.3925 395.678 63.5582C395.777 63.7206 395.903 63.83 396.056 63.8864C396.212 63.9394 396.376 63.9659 396.548 63.9659C396.677 63.9659 396.783 63.9593 396.866 63.946C396.949 63.9295 397.015 63.9162 397.065 63.9062L397.304 64.9602C397.224 64.9901 397.113 65.0199 396.971 65.0497C396.828 65.0829 396.647 65.0994 396.429 65.0994C396.097 65.0994 395.772 65.0282 395.454 64.8857C395.139 64.7431 394.877 64.526 394.669 64.2344C394.463 63.9427 394.36 63.5748 394.36 63.1307V55.5341ZM401.95 65.1591C401.26 65.1591 400.655 64.995 400.135 64.6669C399.618 64.3388 399.214 63.8797 398.922 63.2898C398.634 62.6998 398.489 62.0104 398.489 61.2216C398.489 60.4261 398.634 59.7318 398.922 59.1385C399.214 58.5452 399.618 58.0845 400.135 57.7564C400.655 57.4283 401.26 57.2642 401.95 57.2642C402.639 57.2642 403.242 57.4283 403.759 57.7564C404.28 58.0845 404.684 58.5452 404.972 59.1385C405.264 59.7318 405.41 60.4261 405.41 61.2216C405.41 62.0104 405.264 62.6998 404.972 63.2898C404.684 63.8797 404.28 64.3388 403.759 64.6669C403.242 64.995 402.639 65.1591 401.95 65.1591ZM401.95 64.1051C402.473 64.1051 402.904 63.9709 403.242 63.7024C403.58 63.4339 403.83 63.081 403.993 62.6435C404.155 62.206 404.237 61.732 404.237 61.2216C404.237 60.7112 404.155 60.2356 403.993 59.7947C403.83 59.3539 403.58 58.9976 403.242 58.7259C402.904 58.4541 402.473 58.3182 401.95 58.3182C401.426 58.3182 400.995 58.4541 400.657 58.7259C400.319 58.9976 400.069 59.3539 399.906 59.7947C399.744 60.2356 399.663 60.7112 399.663 61.2216C399.663 61.732 399.744 62.206 399.906 62.6435C400.069 63.081 400.319 63.4339 400.657 63.7024C400.995 63.9709 401.426 64.1051 401.95 64.1051ZM411.138 65V57.3636H412.312V65H411.138ZM411.735 56.0909C411.506 56.0909 411.309 56.013 411.143 55.8572C410.981 55.7015 410.9 55.5142 410.9 55.2955C410.9 55.0767 410.981 54.8894 411.143 54.7337C411.309 54.5779 411.506 54.5 411.735 54.5C411.964 54.5 412.159 54.5779 412.322 54.7337C412.487 54.8894 412.57 55.0767 412.57 55.2955C412.57 55.5142 412.487 55.7015 412.322 55.8572C412.159 56.013 411.964 56.0909 411.735 56.0909ZM417.344 65.1591C416.708 65.1591 416.146 64.9983 415.659 64.6768C415.172 64.352 414.79 63.8946 414.515 63.3047C414.24 62.7114 414.103 62.0104 414.103 61.2017C414.103 60.3996 414.24 59.7036 414.515 59.1136C414.79 58.5237 415.173 58.0679 415.664 57.7464C416.154 57.425 416.721 57.2642 417.364 57.2642C417.861 57.2642 418.254 57.3471 418.542 57.5128C418.834 57.6752 419.056 57.8608 419.208 58.0696C419.364 58.2751 419.485 58.4441 419.571 58.5767H419.671V54.8182H420.844V65H419.711V63.8267H419.571C419.485 63.9659 419.363 64.1416 419.203 64.3537C419.044 64.5625 418.817 64.7498 418.522 64.9155C418.227 65.0779 417.835 65.1591 417.344 65.1591ZM417.503 64.1051C417.974 64.1051 418.372 63.9825 418.696 63.7372C419.021 63.4886 419.268 63.1456 419.437 62.7081C419.606 62.2673 419.691 61.7585 419.691 61.1818C419.691 60.6117 419.608 60.1129 419.442 59.6854C419.276 59.2545 419.031 58.9197 418.706 58.6811C418.382 58.4392 417.98 58.3182 417.503 58.3182C417.006 58.3182 416.592 58.4458 416.26 58.701C415.932 58.9529 415.685 59.2959 415.52 59.7301C415.357 60.161 415.276 60.6449 415.276 61.1818C415.276 61.7254 415.359 62.2192 415.525 62.6634C415.694 63.1042 415.942 63.4555 416.27 63.7173C416.602 63.9759 417.013 64.1051 417.503 64.1051ZM426.358 65.1591C425.622 65.1591 424.987 64.9967 424.453 64.6719C423.923 64.3438 423.514 63.8864 423.225 63.2997C422.94 62.7098 422.798 62.0237 422.798 61.2415C422.798 60.4593 422.94 59.7699 423.225 59.1733C423.514 58.5734 423.915 58.1061 424.429 57.7713C424.946 57.4332 425.549 57.2642 426.238 57.2642C426.636 57.2642 427.029 57.3305 427.417 57.4631C427.804 57.5956 428.157 57.8111 428.475 58.1094C428.794 58.4044 429.047 58.7955 429.236 59.2827C429.425 59.7699 429.52 60.3698 429.52 61.0824V61.5795H423.633V60.5653H428.326C428.326 60.1345 428.24 59.75 428.068 59.4119C427.899 59.0739 427.657 58.8071 427.342 58.6115C427.03 58.416 426.663 58.3182 426.238 58.3182C425.771 58.3182 425.367 58.4342 425.025 58.6662C424.687 58.8949 424.427 59.1932 424.245 59.5611C424.062 59.929 423.971 60.3234 423.971 60.7443V61.4205C423.971 61.9972 424.071 62.486 424.27 62.8871C424.472 63.2848 424.752 63.5881 425.11 63.7969C425.468 64.0024 425.884 64.1051 426.358 64.1051C426.666 64.1051 426.944 64.062 427.193 63.9759C427.445 63.8864 427.662 63.7538 427.844 63.5781C428.026 63.3991 428.167 63.1771 428.267 62.9119L429.4 63.2301C429.281 63.6146 429.08 63.9527 428.799 64.2443C428.517 64.5327 428.169 64.758 427.755 64.9205C427.34 65.0795 426.875 65.1591 426.358 65.1591ZM432.478 60.4062V65H431.304V57.3636H432.438V58.5568H432.537C432.716 58.169 432.988 57.8575 433.353 57.6222C433.717 57.3835 434.188 57.2642 434.765 57.2642C435.282 57.2642 435.734 57.3703 436.122 57.5824C436.51 57.7912 436.811 58.1094 437.027 58.5369C437.242 58.9612 437.35 59.4981 437.35 60.1477V65H436.176V60.2273C436.176 59.6274 436.021 59.16 435.709 58.8253C435.398 58.4872 434.97 58.3182 434.426 58.3182C434.052 58.3182 433.717 58.3994 433.422 58.5618C433.131 58.7242 432.9 58.9612 432.731 59.2727C432.562 59.5843 432.478 59.9621 432.478 60.4062ZM442.815 57.3636V58.358H438.857V57.3636H442.815ZM440.011 55.5341H441.184V62.8125C441.184 63.1439 441.232 63.3925 441.328 63.5582C441.428 63.7206 441.554 63.83 441.706 63.8864C441.862 63.9394 442.026 63.9659 442.198 63.9659C442.328 63.9659 442.434 63.9593 442.517 63.946C442.599 63.9295 442.666 63.9162 442.715 63.9062L442.954 64.9602C442.874 64.9901 442.763 65.0199 442.621 65.0497C442.478 65.0829 442.298 65.0994 442.079 65.0994C441.748 65.0994 441.423 65.0282 441.105 64.8857C440.79 64.7431 440.528 64.526 440.319 64.2344C440.114 63.9427 440.011 63.5748 440.011 63.1307V55.5341ZM444.58 65V57.3636H445.753V65H444.58ZM445.176 56.0909C444.948 56.0909 444.75 56.013 444.585 55.8572C444.422 55.7015 444.341 55.5142 444.341 55.2955C444.341 55.0767 444.422 54.8894 444.585 54.7337C444.75 54.5779 444.948 54.5 445.176 54.5C445.405 54.5 445.601 54.5779 445.763 54.7337C445.929 54.8894 446.012 55.0767 446.012 55.2955C446.012 55.5142 445.929 55.7015 445.763 55.8572C445.601 56.013 445.405 56.0909 445.176 56.0909ZM451.303 57.3636V58.358H447.186V57.3636H451.303ZM448.419 65V56.3097C448.419 55.8722 448.522 55.5076 448.727 55.2159C448.933 54.9242 449.2 54.7055 449.528 54.5597C449.856 54.4138 450.202 54.3409 450.567 54.3409C450.855 54.3409 451.09 54.3641 451.273 54.4105C451.455 54.4569 451.591 54.5 451.68 54.5398L451.342 55.554C451.283 55.5341 451.2 55.5092 451.094 55.4794C450.991 55.4496 450.855 55.4347 450.686 55.4347C450.298 55.4347 450.018 55.5324 449.846 55.728C449.677 55.9235 449.592 56.2102 449.592 56.5881V65H448.419ZM453.703 67.8636C453.504 67.8636 453.326 67.8471 453.171 67.8139C453.015 67.7841 452.907 67.7543 452.847 67.7244L453.146 66.6903C453.431 66.7633 453.683 66.7898 453.901 66.7699C454.12 66.75 454.314 66.6522 454.483 66.4766C454.655 66.3042 454.813 66.0241 454.955 65.6364L455.174 65.0398L452.35 57.3636H453.623L455.731 63.4489H455.811L457.919 57.3636H459.191L455.95 66.1136C455.804 66.508 455.623 66.8345 455.408 67.093C455.192 67.3549 454.942 67.5488 454.657 67.6747C454.375 67.8007 454.057 67.8636 453.703 67.8636Z" fill="#2F5FD0"/>
<path d="M359 67.7841H377.716V68.7386H359V67.7841ZM377.457 67.7841H397.86V68.7386H377.457V67.7841ZM397.773 67.7841H430.235V68.7386H397.773V67.7841ZM430.23 67.7841H438.424V68.7386H430.23V67.7841ZM438.42 67.7841H443.511V68.7386H438.42V67.7841ZM443.506 67.7841H451.879V68.7386H443.506V67.7841ZM451.873 67.7841H459.669V68.7386H451.873V67.7841Z" fill="#2F5FD0"/>
<path fill-rule="evenodd" clip-rule="evenodd" d="M466.136 56.9044C466.178 56.8614 466.229 56.8273 466.285 56.804C466.342 56.7808 466.402 56.7688 466.462 56.7688C466.523 56.7688 466.583 56.7808 466.639 56.804C466.695 56.8273 466.746 56.8614 466.789 56.9044L472 62.1164L477.211 56.9044C477.254 56.8615 477.305 56.8274 477.361 56.8042C477.417 56.781 477.477 56.769 477.538 56.769C477.599 56.769 477.659 56.781 477.715 56.8042C477.771 56.8274 477.822 56.8615 477.865 56.9044C477.908 56.9473 477.942 56.9982 477.965 57.0543C477.988 57.1103 478 57.1704 478 57.2311C478 57.2918 477.988 57.3519 477.965 57.4079C477.942 57.464 477.908 57.5149 477.865 57.5578L472.327 63.0957C472.284 63.1386 472.233 63.1727 472.177 63.196C472.121 63.2193 472.061 63.2312 472 63.2312C471.939 63.2312 471.879 63.2193 471.823 63.196C471.767 63.1727 471.716 63.1386 471.673 63.0957L466.136 57.5578C466.093 57.515 466.059 57.464 466.035 57.408C466.012 57.3519 466 57.2918 466 57.2311C466 57.1704 466.012 57.1103 466.035 57.0542C466.059 56.9982 466.093 56.9472 466.136 56.9044Z" fill="#2F5FD0"/>
<circle cx="12" cy="16" r="12" fill="#344054"/>
<path d="M14.0057 10.3636V22H11.5455V12.6989H11.4773L8.8125 14.3693V12.1875L11.6932 10.3636H14.0057Z" fill="white"/>
<circle cx="463" cy="137" r="12" fill="#344054"/>
<path d="M463.244 143.159C462.396 143.159 461.64 143.013 460.977 142.722C460.318 142.426 459.797 142.021 459.415 141.506C459.036 140.987 458.841 140.388 458.83 139.71H461.307C461.322 139.994 461.415 140.244 461.585 140.46C461.759 140.672 461.991 140.837 462.278 140.955C462.566 141.072 462.89 141.131 463.25 141.131C463.625 141.131 463.956 141.064 464.244 140.932C464.532 140.799 464.758 140.616 464.92 140.381C465.083 140.146 465.165 139.875 465.165 139.568C465.165 139.258 465.078 138.983 464.903 138.744C464.733 138.502 464.487 138.312 464.165 138.176C463.847 138.04 463.468 137.972 463.028 137.972H461.943V136.165H463.028C463.4 136.165 463.727 136.1 464.011 135.972C464.299 135.843 464.523 135.665 464.682 135.438C464.841 135.206 464.92 134.938 464.92 134.631C464.92 134.339 464.85 134.083 464.71 133.864C464.574 133.64 464.381 133.466 464.131 133.341C463.884 133.216 463.597 133.153 463.267 133.153C462.934 133.153 462.629 133.214 462.352 133.335C462.076 133.453 461.854 133.621 461.688 133.841C461.521 134.061 461.432 134.318 461.42 134.614H459.062C459.074 133.943 459.265 133.352 459.636 132.841C460.008 132.33 460.508 131.93 461.136 131.642C461.769 131.35 462.483 131.205 463.278 131.205C464.081 131.205 464.784 131.35 465.386 131.642C465.989 131.934 466.456 132.328 466.79 132.824C467.127 133.316 467.294 133.869 467.29 134.483C467.294 135.134 467.091 135.678 466.682 136.114C466.277 136.549 465.748 136.826 465.097 136.943V137.034C465.953 137.144 466.604 137.441 467.051 137.926C467.502 138.407 467.725 139.009 467.722 139.733C467.725 140.396 467.534 140.985 467.148 141.5C466.765 142.015 466.237 142.42 465.562 142.716C464.888 143.011 464.116 143.159 463.244 143.159Z" fill="white"/>
<path d="M463 125.5V78" stroke="#344054" stroke-dasharray="2 2"/>
<circle cx="232" cy="137" r="12" fill="#344054"/>
<path d="M227.943 143V141.227L232.085 137.392C232.438 137.051 232.733 136.744 232.972 136.472C233.214 136.199 233.398 135.932 233.523 135.67C233.648 135.405 233.71 135.119 233.71 134.812C233.71 134.472 233.633 134.178 233.477 133.932C233.322 133.682 233.11 133.491 232.841 133.358C232.572 133.222 232.267 133.153 231.926 133.153C231.57 133.153 231.259 133.225 230.994 133.369C230.729 133.513 230.525 133.72 230.381 133.989C230.237 134.258 230.165 134.578 230.165 134.949H227.83C227.83 134.187 228.002 133.527 228.347 132.966C228.691 132.405 229.174 131.972 229.795 131.665C230.417 131.358 231.133 131.205 231.943 131.205C232.777 131.205 233.502 131.352 234.119 131.648C234.741 131.939 235.223 132.345 235.568 132.864C235.913 133.383 236.085 133.977 236.085 134.648C236.085 135.087 235.998 135.521 235.824 135.949C235.653 136.377 235.348 136.852 234.909 137.375C234.47 137.894 233.85 138.517 233.051 139.244L231.352 140.909V140.989H236.239V143H227.943Z" fill="white"/>
<path d="M232 125.5V78" stroke="#344054" stroke-dasharray="2 2"/>
<path d="M24 13H97V49" stroke="#344054" stroke-dasharray="2 2"/>
</svg>
