<svg width="492" height="59" viewBox="0 0 492 59" fill="none" xmlns="http://www.w3.org/2000/svg">
<rect width="454" height="28" fill="#F0F0F0"/>
<path d="M17.1742 10.4131C17.1742 10.4131 16.5424 11.3376 17.3699 12.533C17.3699 12.533 17.5004 11.9242 18.8073 11.9242H20.3759C21.8573 11.9242 22.9678 10.4586 22.2707 8.94674C22.2707 8.94674 23.316 9.0598 23.6655 8.38282C24.0137 7.70652 23.6436 7.43559 23.1209 7.43559H20.4851C20.4851 7.92092 19.5923 7.98848 19.5923 7.43559H18.1109C18.1109 7.43559 16.9998 7.43559 16.9785 8.40557C16.9785 8.40557 17.2295 8.2477 17.4791 8.22564V8.48416C17.4791 8.48416 17.1742 8.54069 17.0324 8.61997C16.8912 8.69856 16.6842 8.91296 16.8806 9.46585C17.0763 10.0181 17.1529 10.2097 17.1529 10.2097C17.1529 10.2097 17.4691 9.92705 17.9811 9.92705H18.5803C19.6469 9.92705 19.4512 10.9984 18.3839 10.9984C17.3167 10.9984 17.1755 10.4124 17.1755 10.4124L17.1742 10.4131Z" fill="#DB0000"/>
<path d="M22.7394 9.29696C22.7394 9.29696 23.0989 9.31971 23.3599 9.08325C23.3599 9.08325 25.7234 10.9894 22.2168 14.8231C18.7095 18.6575 21.4212 21.1393 21.4212 21.1393C21.4212 21.1393 20.79 21.7701 21.1489 23C21.1489 23 19.6902 22.1472 18.5743 20.6988C16.9618 18.6058 15.9765 15.4036 20.4045 12.8494C20.4045 12.8494 23.3273 11.3272 22.7394 9.29696Z" fill="#DB0000"/>
<path d="M19.127 7.07507C19.127 7.07507 19.5991 6.20299 20.6949 6.20299C21.5591 6.20299 21.7562 5.74385 21.7562 5.74385C21.7562 5.74385 22.133 5 24.0358 5C25.7795 5 26.9546 5.60184 27.9053 6.40567C27.9053 6.40567 25.3421 4.7594 22.8154 7.07507H19.127Z" fill="#DB0000"/>
<path d="M29.7861 12.5936C29.7135 9.87188 27.6803 6.95507 23.3094 7.12052C27.5791 3.37644 34.9852 11.736 28.8853 16.1281C28.8853 16.1281 29.906 14.6204 29.7861 12.5936Z" fill="#DB0000"/>
<path d="M23.9632 7.42114C29.2927 7.25568 31.1955 13.8718 27.7534 16.8493L24.2974 18.5789C24.2974 18.5789 23.8473 17.0754 25.5178 15.3154C27.1882 13.5567 28.7994 10.2635 24.1822 8.09812C24.1822 8.09812 24.2694 7.64726 23.9645 7.42182L23.9632 7.42114Z" fill="#DB0000"/>
<path d="M23.6869 8.90954C23.6869 8.90954 23.9485 8.65377 24.0358 8.44351C27.9998 10.1573 27.376 13.0604 25.0085 15.496C23.5564 17.0444 24.0065 18.7141 24.0065 18.7141C24.0065 18.7141 22.2355 19.8564 21.625 20.8491C21.625 20.8491 19.0604 18.5879 22.6123 14.8349C26.0977 11.1508 23.6869 8.90954 23.6869 8.90954Z" fill="#DB0000"/>
<path d="M41.6506 19H40.358L44.0966 8.81818H45.3693L49.108 19H47.8153L44.7727 10.429H44.6932L41.6506 19ZM42.1278 15.0227H47.3381V16.1165H42.1278V15.0227ZM60.1996 11.3636C60.1399 10.8598 59.898 10.4688 59.4737 10.1903C59.0495 9.91193 58.5291 9.77273 57.9126 9.77273C57.4619 9.77273 57.0675 9.84564 56.7294 9.99148C56.3946 10.1373 56.1328 10.3378 55.9439 10.593C55.7583 10.8482 55.6655 11.1383 55.6655 11.4631C55.6655 11.7348 55.7301 11.9685 55.8594 12.1641C55.992 12.3563 56.161 12.517 56.3665 12.6463C56.572 12.7723 56.7874 12.8767 57.0128 12.9595C57.2382 13.0391 57.4453 13.1037 57.6342 13.1534L58.6683 13.4318C58.9335 13.5014 59.2285 13.5975 59.5533 13.7202C59.8814 13.8428 60.1946 14.0102 60.4929 14.2223C60.7945 14.4311 61.0431 14.6996 61.2386 15.0277C61.4342 15.3558 61.532 15.7585 61.532 16.2358C61.532 16.786 61.3878 17.2831 61.0994 17.7273C60.8144 18.1714 60.3968 18.5244 59.8466 18.7862C59.2997 19.0481 58.6352 19.179 57.853 19.179C57.1238 19.179 56.4924 19.0613 55.9588 18.826C55.4285 18.5907 55.0109 18.2625 54.706 17.8416C54.4044 17.4207 54.2337 16.9318 54.1939 16.375H55.4666C55.4998 16.7595 55.629 17.0777 55.8544 17.3295C56.0831 17.5781 56.3714 17.7637 56.7195 17.8864C57.0708 18.0057 57.4486 18.0653 57.853 18.0653C58.3236 18.0653 58.7462 17.9891 59.1207 17.8366C59.4953 17.6809 59.7919 17.4654 60.0107 17.1903C60.2294 16.9119 60.3388 16.5871 60.3388 16.2159C60.3388 15.8778 60.2443 15.6027 60.0554 15.3906C59.8665 15.1785 59.6179 15.0062 59.3097 14.8736C59.0014 14.741 58.6683 14.625 58.3104 14.5256L57.0575 14.1676C56.2621 13.9389 55.6323 13.6125 55.1683 13.1882C54.7043 12.764 54.4723 12.2088 54.4723 11.5227C54.4723 10.9527 54.6264 10.4555 54.9347 10.0312C55.2462 9.60369 55.6638 9.27225 56.1875 9.03693C56.7145 8.7983 57.3028 8.67898 57.9524 8.67898C58.6087 8.67898 59.192 8.79664 59.7024 9.03196C60.2128 9.26397 60.6172 9.58215 60.9155 9.98651C61.2171 10.3909 61.3762 10.8499 61.3928 11.3636H60.1996ZM63.4 19V11.3636H64.5733V19H63.4ZM63.9966 10.0909C63.7679 10.0909 63.5707 10.013 63.405 9.85724C63.2426 9.70147 63.1614 9.5142 63.1614 9.29545C63.1614 9.0767 63.2426 8.88944 63.405 8.73366C63.5707 8.57789 63.7679 8.5 63.9966 8.5C64.2253 8.5 64.4209 8.57789 64.5833 8.73366C64.749 8.88944 64.8319 9.0767 64.8319 9.29545C64.8319 9.5142 64.749 9.70147 64.5833 9.85724C64.4209 10.013 64.2253 10.0909 63.9966 10.0909ZM67.8956 14.4062V19H66.7223V11.3636H67.8558V12.5568H67.9553C68.1342 12.169 68.406 11.8575 68.7706 11.6222C69.1352 11.3835 69.6058 11.2642 70.1825 11.2642C70.6996 11.2642 71.152 11.3703 71.5398 11.5824C71.9276 11.7912 72.2292 12.1094 72.4446 12.5369C72.66 12.9612 72.7678 13.4981 72.7678 14.1477V19H71.5945V14.2273C71.5945 13.6274 71.4387 13.16 71.1271 12.8253C70.8156 12.4872 70.388 12.3182 69.8445 12.3182C69.4699 12.3182 69.1352 12.3994 68.8402 12.5618C68.5485 12.7242 68.3182 12.9612 68.1491 13.2727C67.9801 13.5843 67.8956 13.9621 67.8956 14.4062ZM77.9941 22.0227C77.4274 22.0227 76.9402 21.9498 76.5325 21.804C76.1248 21.6615 75.7851 21.4725 75.5133 21.2372C75.2449 21.0052 75.0311 20.7566 74.872 20.4915L75.8066 19.8352C75.9127 19.9744 76.0469 20.1335 76.2093 20.3125C76.3717 20.4948 76.5938 20.6522 76.8755 20.7848C77.1606 20.9207 77.5334 20.9886 77.9941 20.9886C78.6106 20.9886 79.1194 20.8395 79.5204 20.5412C79.9215 20.2429 80.122 19.7756 80.122 19.1392V17.5881H80.0225C79.9364 17.7273 79.8137 17.8996 79.6547 18.1051C79.4989 18.3073 79.2735 18.4879 78.9785 18.647C78.6868 18.8028 78.2924 18.8807 77.7953 18.8807C77.1788 18.8807 76.6253 18.7348 76.1348 18.4432C75.6475 18.1515 75.2614 17.7273 74.9764 17.1705C74.6947 16.6136 74.5538 15.9375 74.5538 15.142C74.5538 14.3598 74.6913 13.6787 74.9664 13.0987C75.2415 12.5154 75.6243 12.0646 76.1149 11.7464C76.6054 11.425 77.1722 11.2642 77.8152 11.2642C78.3123 11.2642 78.7067 11.3471 78.9984 11.5128C79.2934 11.6752 79.5188 11.8608 79.6745 12.0696C79.8336 12.2751 79.9563 12.4441 80.0424 12.5767H80.1618V11.3636H81.2953V19.2188C81.2953 19.875 81.1461 20.4086 80.8478 20.8196C80.5529 21.2339 80.1551 21.5372 79.6547 21.7294C79.1575 21.925 78.604 22.0227 77.9941 22.0227ZM77.9544 17.8267C78.425 17.8267 78.8227 17.719 79.1475 17.5036C79.4724 17.2881 79.7193 16.9782 79.8883 16.5739C80.0574 16.1695 80.1419 15.6856 80.1419 15.1222C80.1419 14.572 80.059 14.0864 79.8933 13.6655C79.7276 13.2446 79.4823 12.9148 79.1575 12.6761C78.8327 12.4375 78.4316 12.3182 77.9544 12.3182C77.4572 12.3182 77.0429 12.4441 76.7115 12.696C76.3833 12.9479 76.1364 13.286 75.9707 13.7102C75.8083 14.1345 75.7271 14.6051 75.7271 15.1222C75.7271 15.6525 75.81 16.1214 75.9757 16.5291C76.1447 16.9335 76.3933 17.2517 76.7214 17.4837C77.0529 17.7124 77.4638 17.8267 77.9544 17.8267ZM85.6902 19.179C85.2063 19.179 84.7671 19.0878 84.3727 18.9055C83.9783 18.7199 83.6651 18.4531 83.4331 18.1051C83.2011 17.7538 83.085 17.3295 83.085 16.8324C83.085 16.3949 83.1712 16.0402 83.3436 15.7685C83.5159 15.4934 83.7463 15.2779 84.0346 15.1222C84.323 14.9664 84.6412 14.8504 84.9892 14.7741C85.3405 14.6946 85.6935 14.6316 86.0481 14.5852C86.5121 14.5256 86.8883 14.4808 87.1767 14.451C87.4683 14.4179 87.6805 14.3632 87.813 14.2869C87.9489 14.2107 88.0169 14.0781 88.0169 13.8892V13.8494C88.0169 13.3589 87.8826 12.9777 87.6142 12.706C87.349 12.4342 86.9463 12.2983 86.4061 12.2983C85.8459 12.2983 85.4068 12.4209 85.0886 12.6662C84.7704 12.9115 84.5467 13.1733 84.4174 13.4517L83.3038 13.054C83.5027 12.59 83.7678 12.2287 84.0993 11.9702C84.434 11.7083 84.7986 11.526 85.193 11.4233C85.5907 11.3172 85.9818 11.2642 86.3663 11.2642C86.6116 11.2642 86.8933 11.294 87.2115 11.3537C87.533 11.41 87.8429 11.5277 88.1412 11.7067C88.4428 11.8857 88.693 12.1558 88.8919 12.517C89.0907 12.8783 89.1902 13.3622 89.1902 13.9688V19H88.0169V17.9659H87.9572C87.8777 18.1316 87.7451 18.3089 87.5595 18.4979C87.3739 18.6868 87.127 18.8475 86.8187 18.9801C86.5105 19.1127 86.1343 19.179 85.6902 19.179ZM85.8691 18.125C86.3332 18.125 86.7243 18.0339 87.0424 17.8516C87.3639 17.6693 87.6059 17.4339 87.7683 17.1456C87.934 16.8572 88.0169 16.554 88.0169 16.2358V15.1619C87.9672 15.2216 87.8578 15.2763 87.6887 15.326C87.523 15.3724 87.3308 15.4138 87.112 15.4503C86.8966 15.4834 86.6861 15.5133 86.4806 15.5398C86.2785 15.563 86.1144 15.5829 85.9885 15.5994C85.6835 15.6392 85.3985 15.7038 85.1333 15.7933C84.8715 15.8795 84.6594 16.0104 84.497 16.1861C84.3379 16.3584 84.2583 16.5937 84.2583 16.892C84.2583 17.2997 84.4092 17.608 84.7108 17.8168C85.0157 18.0223 85.4018 18.125 85.8691 18.125ZM91.3317 21.8636V11.3636H92.4652V12.5767H92.6044C92.6906 12.4441 92.8099 12.2751 92.9624 12.0696C93.1181 11.8608 93.3402 11.6752 93.6286 11.5128C93.9202 11.3471 94.3146 11.2642 94.8118 11.2642C95.4548 11.2642 96.0215 11.425 96.5121 11.7464C97.0026 12.0679 97.3854 12.5237 97.6605 13.1136C97.9356 13.7036 98.0732 14.3996 98.0732 15.2017C98.0732 16.0104 97.9356 16.7114 97.6605 17.3047C97.3854 17.8946 97.0043 18.352 96.517 18.6768C96.0298 18.9983 95.468 19.1591 94.8317 19.1591C94.3411 19.1591 93.9484 19.0779 93.6534 18.9155C93.3584 18.7498 93.1314 18.5625 92.9723 18.3537C92.8132 18.1416 92.6906 17.9659 92.6044 17.8267H92.505V21.8636H91.3317ZM92.4851 15.1818C92.4851 15.7585 92.5696 16.2673 92.7386 16.7081C92.9077 17.1456 93.1546 17.4886 93.4794 17.7372C93.8042 17.9825 94.2019 18.1051 94.6726 18.1051C95.1631 18.1051 95.5724 17.9759 95.9006 17.7173C96.232 17.4555 96.4806 17.1042 96.6463 16.6634C96.8153 16.2192 96.8999 15.7254 96.8999 15.1818C96.8999 14.6449 96.817 14.161 96.6513 13.7301C96.4889 13.2959 96.242 12.9529 95.9105 12.701C95.5824 12.4458 95.1697 12.3182 94.6726 12.3182C94.1953 12.3182 93.7943 12.4392 93.4695 12.6811C93.1446 12.9197 92.8994 13.2545 92.7337 13.6854C92.5679 14.1129 92.4851 14.6117 92.4851 15.1818ZM102.965 19.1591C102.276 19.1591 101.671 18.995 101.151 18.6669C100.634 18.3388 100.229 17.8797 99.9375 17.2898C99.6491 16.6998 99.505 16.0104 99.505 15.2216C99.505 14.4261 99.6491 13.7318 99.9375 13.1385C100.229 12.5452 100.634 12.0845 101.151 11.7564C101.671 11.4283 102.276 11.2642 102.965 11.2642C103.655 11.2642 104.258 11.4283 104.775 11.7564C105.295 12.0845 105.7 12.5452 105.988 13.1385C106.28 13.7318 106.425 14.4261 106.425 15.2216C106.425 16.0104 106.28 16.6998 105.988 17.2898C105.7 17.8797 105.295 18.3388 104.775 18.6669C104.258 18.995 103.655 19.1591 102.965 19.1591ZM102.965 18.1051C103.489 18.1051 103.92 17.9709 104.258 17.7024C104.596 17.4339 104.846 17.081 105.009 16.6435C105.171 16.206 105.252 15.732 105.252 15.2216C105.252 14.7112 105.171 14.2356 105.009 13.7947C104.846 13.3539 104.596 12.9976 104.258 12.7259C103.92 12.4541 103.489 12.3182 102.965 12.3182C102.442 12.3182 102.011 12.4541 101.673 12.7259C101.335 12.9976 101.084 13.3539 100.922 13.7947C100.759 14.2356 100.678 14.7112 100.678 15.2216C100.678 15.732 100.759 16.206 100.922 16.6435C101.084 17.081 101.335 17.4339 101.673 17.7024C102.011 17.9709 102.442 18.1051 102.965 18.1051ZM108.216 19V11.3636H109.35V12.517H109.43C109.569 12.1392 109.821 11.8326 110.185 11.5973C110.55 11.362 110.961 11.2443 111.418 11.2443C111.504 11.2443 111.612 11.246 111.741 11.2493C111.871 11.2526 111.968 11.2576 112.035 11.2642V12.4574C111.995 12.4474 111.904 12.4325 111.761 12.4126C111.622 12.3894 111.474 12.3778 111.319 12.3778C110.948 12.3778 110.616 12.4557 110.324 12.6115C110.036 12.764 109.807 12.9761 109.638 13.2479C109.473 13.5163 109.39 13.8229 109.39 14.1676V19H108.216ZM116.395 19.1591C115.659 19.1591 115.024 18.9967 114.491 18.6719C113.96 18.3438 113.551 17.8864 113.263 17.2997C112.978 16.7098 112.835 16.0237 112.835 15.2415C112.835 14.4593 112.978 13.7699 113.263 13.1733C113.551 12.5734 113.952 12.1061 114.466 11.7713C114.983 11.4332 115.586 11.2642 116.275 11.2642C116.673 11.2642 117.066 11.3305 117.454 11.4631C117.841 11.5956 118.194 11.8111 118.513 12.1094C118.831 12.4044 119.084 12.7955 119.273 13.2827C119.462 13.7699 119.557 14.3698 119.557 15.0824V15.5795H113.67V14.5653H118.363C118.363 14.1345 118.277 13.75 118.105 13.4119C117.936 13.0739 117.694 12.8071 117.379 12.6115C117.068 12.416 116.7 12.3182 116.275 12.3182C115.808 12.3182 115.404 12.4342 115.062 12.6662C114.724 12.8949 114.464 13.1932 114.282 13.5611C114.099 13.929 114.008 14.3234 114.008 14.7443V15.4205C114.008 15.9972 114.108 16.486 114.307 16.8871C114.509 17.2848 114.789 17.5881 115.147 17.7969C115.505 18.0024 115.921 18.1051 116.395 18.1051C116.703 18.1051 116.981 18.062 117.23 17.9759C117.482 17.8864 117.699 17.7538 117.881 17.5781C118.064 17.3991 118.204 17.1771 118.304 16.9119L119.437 17.2301C119.318 17.6146 119.117 17.9527 118.836 18.2443C118.554 18.5327 118.206 18.758 117.792 18.9205C117.377 19.0795 116.912 19.1591 116.395 19.1591ZM132.398 12C132.289 11.6652 132.145 11.3653 131.966 11.1001C131.79 10.8317 131.58 10.603 131.334 10.4141C131.092 10.2251 130.817 10.081 130.509 9.98153C130.201 9.8821 129.863 9.83239 129.495 9.83239C128.892 9.83239 128.343 9.98816 127.849 10.2997C127.355 10.6113 126.963 11.0703 126.671 11.6768C126.379 12.2834 126.233 13.0275 126.233 13.9091C126.233 14.7907 126.381 15.5348 126.676 16.1413C126.971 16.7479 127.37 17.2069 127.874 17.5185C128.378 17.83 128.945 17.9858 129.574 17.9858C130.158 17.9858 130.671 17.8615 131.116 17.6129C131.563 17.361 131.911 17.0064 132.16 16.549C132.412 16.0883 132.537 15.5464 132.537 14.9233L132.915 15.0028H129.853V13.9091H133.731V15.0028C133.731 15.8414 133.552 16.5705 133.194 17.1903C132.839 17.8101 132.349 18.2907 131.722 18.6321C131.099 18.9702 130.383 19.1392 129.574 19.1392C128.673 19.1392 127.881 18.9271 127.198 18.5028C126.519 18.0786 125.988 17.4754 125.607 16.6932C125.229 15.911 125.04 14.983 125.04 13.9091C125.04 13.1037 125.148 12.3795 125.363 11.7365C125.582 11.0902 125.89 10.54 126.288 10.0859C126.686 9.63187 127.157 9.28385 127.7 9.0419C128.244 8.79995 128.842 8.67898 129.495 8.67898C130.032 8.67898 130.532 8.76018 130.996 8.92258C131.464 9.08168 131.88 9.30871 132.244 9.60369C132.612 9.89536 132.919 10.245 133.164 10.6527C133.409 11.0571 133.578 11.5062 133.671 12H132.398ZM138.786 19.1591C138.096 19.1591 137.491 18.995 136.971 18.6669C136.454 18.3388 136.049 17.8797 135.758 17.2898C135.469 16.6998 135.325 16.0104 135.325 15.2216C135.325 14.4261 135.469 13.7318 135.758 13.1385C136.049 12.5452 136.454 12.0845 136.971 11.7564C137.491 11.4283 138.096 11.2642 138.786 11.2642C139.475 11.2642 140.078 11.4283 140.595 11.7564C141.116 12.0845 141.52 12.5452 141.808 13.1385C142.1 13.7318 142.246 14.4261 142.246 15.2216C142.246 16.0104 142.1 16.6998 141.808 17.2898C141.52 17.8797 141.116 18.3388 140.595 18.6669C140.078 18.995 139.475 19.1591 138.786 19.1591ZM138.786 18.1051C139.309 18.1051 139.74 17.9709 140.078 17.7024C140.416 17.4339 140.666 17.081 140.829 16.6435C140.991 16.206 141.072 15.732 141.072 15.2216C141.072 14.7112 140.991 14.2356 140.829 13.7947C140.666 13.3539 140.416 12.9976 140.078 12.7259C139.74 12.4541 139.309 12.3182 138.786 12.3182C138.262 12.3182 137.831 12.4541 137.493 12.7259C137.155 12.9976 136.905 13.3539 136.742 13.7947C136.58 14.2356 136.499 14.7112 136.499 15.2216C136.499 15.732 136.58 16.206 136.742 16.6435C136.905 17.081 137.155 17.4339 137.493 17.7024C137.831 17.9709 138.262 18.1051 138.786 18.1051ZM150.008 11.3636L147.184 19H145.991L143.167 11.3636H144.439L146.547 17.4489H146.627L148.735 11.3636H150.008ZM154.485 19.1591C153.749 19.1591 153.114 18.9967 152.58 18.6719C152.05 18.3438 151.641 17.8864 151.352 17.2997C151.067 16.7098 150.925 16.0237 150.925 15.2415C150.925 14.4593 151.067 13.7699 151.352 13.1733C151.641 12.5734 152.042 12.1061 152.556 11.7713C153.073 11.4332 153.676 11.2642 154.365 11.2642C154.763 11.2642 155.156 11.3305 155.544 11.4631C155.931 11.5956 156.284 11.8111 156.602 12.1094C156.921 12.4044 157.174 12.7955 157.363 13.2827C157.552 13.7699 157.646 14.3698 157.646 15.0824V15.5795H151.76V14.5653H156.453C156.453 14.1345 156.367 13.75 156.195 13.4119C156.026 13.0739 155.784 12.8071 155.469 12.6115C155.157 12.416 154.789 12.3182 154.365 12.3182C153.898 12.3182 153.494 12.4342 153.152 12.6662C152.814 12.8949 152.554 13.1932 152.372 13.5611C152.189 13.929 152.098 14.3234 152.098 14.7443V15.4205C152.098 15.9972 152.198 16.486 152.396 16.8871C152.599 17.2848 152.879 17.5881 153.237 17.7969C153.595 18.0024 154.011 18.1051 154.485 18.1051C154.793 18.1051 155.071 18.062 155.32 17.9759C155.572 17.8864 155.789 17.7538 155.971 17.5781C156.153 17.3991 156.294 17.1771 156.394 16.9119L157.527 17.2301C157.408 17.6146 157.207 17.9527 156.926 18.2443C156.644 18.5327 156.296 18.758 155.882 18.9205C155.467 19.0795 155.002 19.1591 154.485 19.1591ZM159.431 19V11.3636H160.565V12.517H160.644C160.784 12.1392 161.035 11.8326 161.4 11.5973C161.765 11.362 162.176 11.2443 162.633 11.2443C162.719 11.2443 162.827 11.246 162.956 11.2493C163.085 11.2526 163.183 11.2576 163.249 11.2642V12.4574C163.21 12.4474 163.119 12.4325 162.976 12.4126C162.837 12.3894 162.689 12.3778 162.534 12.3778C162.162 12.3778 161.831 12.4557 161.539 12.6115C161.251 12.764 161.022 12.9761 160.853 13.2479C160.687 13.5163 160.605 13.8229 160.605 14.1676V19H159.431ZM165.814 14.4062V19H164.64V11.3636H165.774V12.5568H165.873C166.052 12.169 166.324 11.8575 166.689 11.6222C167.053 11.3835 167.524 11.2642 168.1 11.2642C168.618 11.2642 169.07 11.3703 169.458 11.5824C169.846 11.7912 170.147 12.1094 170.363 12.5369C170.578 12.9612 170.686 13.4981 170.686 14.1477V19H169.512V14.2273C169.512 13.6274 169.357 13.16 169.045 12.8253C168.734 12.4872 168.306 12.3182 167.762 12.3182C167.388 12.3182 167.053 12.3994 166.758 12.5618C166.467 12.7242 166.236 12.9612 166.067 13.2727C165.898 13.5843 165.814 13.9621 165.814 14.4062ZM172.83 19V11.3636H173.963V12.5568H174.063C174.222 12.1491 174.479 11.8326 174.833 11.6072C175.188 11.3786 175.614 11.2642 176.111 11.2642C176.615 11.2642 177.034 11.3786 177.369 11.6072C177.707 11.8326 177.97 12.1491 178.159 12.5568H178.239C178.434 12.1624 178.728 11.8492 179.119 11.6172C179.51 11.3819 179.979 11.2642 180.526 11.2642C181.209 11.2642 181.767 11.478 182.201 11.9055C182.635 12.3298 182.852 12.991 182.852 13.8892V19H181.679V13.8892C181.679 13.3258 181.525 12.9231 181.217 12.6811C180.909 12.4392 180.546 12.3182 180.128 12.3182C179.591 12.3182 179.175 12.4806 178.88 12.8054C178.585 13.1269 178.438 13.5346 178.438 14.0284V19H177.244V13.7699C177.244 13.3357 177.104 12.986 176.822 12.7209C176.54 12.4524 176.177 12.3182 175.733 12.3182C175.428 12.3182 175.143 12.3994 174.878 12.5618C174.616 12.7242 174.404 12.9496 174.242 13.2379C174.083 13.523 174.003 13.8527 174.003 14.2273V19H172.83ZM188.199 19.1591C187.464 19.1591 186.829 18.9967 186.295 18.6719C185.765 18.3438 185.356 17.8864 185.067 17.2997C184.782 16.7098 184.64 16.0237 184.64 15.2415C184.64 14.4593 184.782 13.7699 185.067 13.1733C185.356 12.5734 185.757 12.1061 186.27 11.7713C186.787 11.4332 187.391 11.2642 188.08 11.2642C188.478 11.2642 188.871 11.3305 189.258 11.4631C189.646 11.5956 189.999 11.8111 190.317 12.1094C190.635 12.4044 190.889 12.7955 191.078 13.2827C191.267 13.7699 191.361 14.3698 191.361 15.0824V15.5795H185.475V14.5653H190.168C190.168 14.1345 190.082 13.75 189.91 13.4119C189.741 13.0739 189.499 12.8071 189.184 12.6115C188.872 12.416 188.504 12.3182 188.08 12.3182C187.613 12.3182 187.208 12.4342 186.867 12.6662C186.529 12.8949 186.269 13.1932 186.086 13.5611C185.904 13.929 185.813 14.3234 185.813 14.7443V15.4205C185.813 15.9972 185.912 16.486 186.111 16.8871C186.314 17.2848 186.594 17.5881 186.952 17.7969C187.309 18.0024 187.725 18.1051 188.199 18.1051C188.508 18.1051 188.786 18.062 189.035 17.9759C189.287 17.8864 189.504 17.7538 189.686 17.5781C189.868 17.3991 190.009 17.1771 190.108 16.9119L191.242 17.2301C191.123 17.6146 190.922 17.9527 190.64 18.2443C190.359 18.5327 190.011 18.758 189.596 18.9205C189.182 19.0795 188.716 19.1591 188.199 19.1591ZM194.319 14.4062V19H193.146V11.3636H194.28V12.5568H194.379C194.558 12.169 194.83 11.8575 195.194 11.6222C195.559 11.3835 196.03 11.2642 196.606 11.2642C197.123 11.2642 197.576 11.3703 197.964 11.5824C198.351 11.7912 198.653 12.1094 198.868 12.5369C199.084 12.9612 199.192 13.4981 199.192 14.1477V19H198.018V14.2273C198.018 13.6274 197.863 13.16 197.551 12.8253C197.239 12.4872 196.812 12.3182 196.268 12.3182C195.894 12.3182 195.559 12.3994 195.264 12.5618C194.972 12.7242 194.742 12.9612 194.573 13.2727C194.404 13.5843 194.319 13.9621 194.319 14.4062ZM204.657 11.3636V12.358H200.699V11.3636H204.657ZM201.853 9.53409H203.026V16.8125C203.026 17.1439 203.074 17.3925 203.17 17.5582C203.27 17.7206 203.395 17.83 203.548 17.8864C203.704 17.9394 203.868 17.9659 204.04 17.9659C204.169 17.9659 204.275 17.9593 204.358 17.946C204.441 17.9295 204.507 17.9162 204.557 17.9062L204.796 18.9602C204.716 18.9901 204.605 19.0199 204.463 19.0497C204.32 19.0829 204.14 19.0994 203.921 19.0994C203.589 19.0994 203.265 19.0282 202.946 18.8857C202.632 18.7431 202.37 18.526 202.161 18.2344C201.955 17.9427 201.853 17.5748 201.853 17.1307V9.53409ZM210.936 19H209.643L213.382 8.81818H214.654L218.393 19H217.1L214.058 10.429H213.978L210.936 19ZM211.413 15.0227H216.623V16.1165H211.413V15.0227ZM222.902 22.0227C222.336 22.0227 221.848 21.9498 221.441 21.804C221.033 21.6615 220.693 21.4725 220.422 21.2372C220.153 21.0052 219.939 20.7566 219.78 20.4915L220.715 19.8352C220.821 19.9744 220.955 20.1335 221.118 20.3125C221.28 20.4948 221.502 20.6522 221.784 20.7848C222.069 20.9207 222.442 20.9886 222.902 20.9886C223.519 20.9886 224.028 20.8395 224.429 20.5412C224.83 20.2429 225.03 19.7756 225.03 19.1392V17.5881H224.931C224.845 17.7273 224.722 17.8996 224.563 18.1051C224.407 18.3073 224.182 18.4879 223.887 18.647C223.595 18.8028 223.201 18.8807 222.703 18.8807C222.087 18.8807 221.533 18.7348 221.043 18.4432C220.556 18.1515 220.17 17.7273 219.885 17.1705C219.603 16.6136 219.462 15.9375 219.462 15.142C219.462 14.3598 219.6 13.6787 219.875 13.0987C220.15 12.5154 220.533 12.0646 221.023 11.7464C221.514 11.425 222.08 11.2642 222.723 11.2642C223.221 11.2642 223.615 11.3471 223.907 11.5128C224.202 11.6752 224.427 11.8608 224.583 12.0696C224.742 12.2751 224.864 12.4441 224.951 12.5767H225.07V11.3636H226.203V19.2188C226.203 19.875 226.054 20.4086 225.756 20.8196C225.461 21.2339 225.063 21.5372 224.563 21.7294C224.066 21.925 223.512 22.0227 222.902 22.0227ZM222.863 17.8267C223.333 17.8267 223.731 17.719 224.056 17.5036C224.381 17.2881 224.627 16.9782 224.797 16.5739C224.966 16.1695 225.05 15.6856 225.05 15.1222C225.05 14.572 224.967 14.0864 224.801 13.6655C224.636 13.2446 224.391 12.9148 224.066 12.6761C223.741 12.4375 223.34 12.3182 222.863 12.3182C222.365 12.3182 221.951 12.4441 221.62 12.696C221.292 12.9479 221.045 13.286 220.879 13.7102C220.717 14.1345 220.635 14.6051 220.635 15.1222C220.635 15.6525 220.718 16.1214 220.884 16.5291C221.053 16.9335 221.301 17.2517 221.63 17.4837C221.961 17.7124 222.372 17.8267 222.863 17.8267ZM231.553 19.1591C230.817 19.1591 230.182 18.9967 229.649 18.6719C229.118 18.3438 228.709 17.8864 228.421 17.2997C228.136 16.7098 227.993 16.0237 227.993 15.2415C227.993 14.4593 228.136 13.7699 228.421 13.1733C228.709 12.5734 229.11 12.1061 229.624 11.7713C230.141 11.4332 230.744 11.2642 231.434 11.2642C231.831 11.2642 232.224 11.3305 232.612 11.4631C233 11.5956 233.353 11.8111 233.671 12.1094C233.989 12.4044 234.243 12.7955 234.431 13.2827C234.62 13.7699 234.715 14.3698 234.715 15.0824V15.5795H228.828V14.5653H233.522C233.522 14.1345 233.435 13.75 233.263 13.4119C233.094 13.0739 232.852 12.8071 232.537 12.6115C232.226 12.416 231.858 12.3182 231.434 12.3182C230.966 12.3182 230.562 12.4342 230.221 12.6662C229.882 12.8949 229.622 13.1932 229.44 13.5611C229.258 13.929 229.167 14.3234 229.167 14.7443V15.4205C229.167 15.9972 229.266 16.486 229.465 16.8871C229.667 17.2848 229.947 17.5881 230.305 17.7969C230.663 18.0024 231.079 18.1051 231.553 18.1051C231.861 18.1051 232.14 18.062 232.388 17.9759C232.64 17.8864 232.857 17.7538 233.039 17.5781C233.222 17.3991 233.363 17.1771 233.462 16.9119L234.596 17.2301C234.476 17.6146 234.276 17.9527 233.994 18.2443C233.712 18.5327 233.364 18.758 232.95 18.9205C232.536 19.0795 232.07 19.1591 231.553 19.1591ZM237.673 14.4062V19H236.5V11.3636H237.633V12.5568H237.733C237.912 12.169 238.183 11.8575 238.548 11.6222C238.913 11.3835 239.383 11.2642 239.96 11.2642C240.477 11.2642 240.929 11.3703 241.317 11.5824C241.705 11.7912 242.007 12.1094 242.222 12.5369C242.437 12.9612 242.545 13.4981 242.545 14.1477V19H241.372V14.2273C241.372 13.6274 241.216 13.16 240.904 12.8253C240.593 12.4872 240.165 12.3182 239.622 12.3182C239.247 12.3182 238.913 12.3994 238.618 12.5618C238.326 12.7242 238.096 12.9612 237.926 13.2727C237.757 13.5843 237.673 13.9621 237.673 14.4062ZM247.791 19.1591C247.075 19.1591 246.459 18.9901 245.942 18.652C245.425 18.3139 245.027 17.8482 244.749 17.255C244.47 16.6617 244.331 15.9839 244.331 15.2216C244.331 14.446 244.474 13.7616 244.759 13.1683C245.047 12.5717 245.448 12.1061 245.962 11.7713C246.479 11.4332 247.082 11.2642 247.771 11.2642C248.308 11.2642 248.792 11.3636 249.223 11.5625C249.654 11.7614 250.007 12.0398 250.282 12.3977C250.557 12.7557 250.728 13.1733 250.794 13.6506H249.621C249.531 13.3026 249.333 12.9943 249.024 12.7259C248.719 12.4541 248.308 12.3182 247.791 12.3182C247.334 12.3182 246.933 12.4375 246.588 12.6761C246.247 12.9115 245.98 13.2446 245.788 13.6754C245.599 14.103 245.504 14.6051 245.504 15.1818C245.504 15.7718 245.597 16.2855 245.783 16.723C245.972 17.1605 246.237 17.5002 246.578 17.7422C246.923 17.9841 247.327 18.1051 247.791 18.1051C248.096 18.1051 248.373 18.0521 248.622 17.946C248.87 17.84 249.081 17.6875 249.253 17.4886C249.425 17.2898 249.548 17.0511 249.621 16.7727H250.794C250.728 17.2235 250.564 17.6295 250.302 17.9908C250.044 18.3487 249.7 18.6338 249.273 18.8459C248.849 19.0547 248.355 19.1591 247.791 19.1591ZM253.265 21.8636C253.066 21.8636 252.889 21.8471 252.733 21.8139C252.577 21.7841 252.47 21.7543 252.41 21.7244L252.708 20.6903C252.993 20.7633 253.245 20.7898 253.464 20.7699C253.683 20.75 253.877 20.6522 254.046 20.4766C254.218 20.3042 254.375 20.0241 254.518 19.6364L254.737 19.0398L251.913 11.3636H253.186L255.294 17.4489H255.373L257.481 11.3636H258.754L255.512 20.1136C255.366 20.508 255.186 20.8345 254.97 21.093C254.755 21.3549 254.505 21.5488 254.22 21.6747C253.938 21.8007 253.62 21.8636 253.265 21.8636ZM266.248 19L263.464 8.81818H264.717L266.845 17.1108H266.944L269.112 8.81818H270.504L272.672 17.1108H272.771L274.899 8.81818H276.152L273.368 19H272.095L269.848 10.8864H269.768L267.521 19H266.248ZM280.02 19.1591C279.284 19.1591 278.649 18.9967 278.116 18.6719C277.585 18.3438 277.176 17.8864 276.888 17.2997C276.603 16.7098 276.46 16.0237 276.46 15.2415C276.46 14.4593 276.603 13.7699 276.888 13.1733C277.176 12.5734 277.577 12.1061 278.091 11.7713C278.608 11.4332 279.211 11.2642 279.9 11.2642C280.298 11.2642 280.691 11.3305 281.079 11.4631C281.466 11.5956 281.819 11.8111 282.138 12.1094C282.456 12.4044 282.709 12.7955 282.898 13.2827C283.087 13.7699 283.182 14.3698 283.182 15.0824V15.5795H277.295V14.5653H281.988C281.988 14.1345 281.902 13.75 281.73 13.4119C281.561 13.0739 281.319 12.8071 281.004 12.6115C280.693 12.416 280.325 12.3182 279.9 12.3182C279.433 12.3182 279.029 12.4342 278.687 12.6662C278.349 12.8949 278.089 13.1932 277.907 13.5611C277.724 13.929 277.633 14.3234 277.633 14.7443V15.4205C277.633 15.9972 277.733 16.486 277.932 16.8871C278.134 17.2848 278.414 17.5881 278.772 17.7969C279.13 18.0024 279.546 18.1051 280.02 18.1051C280.328 18.1051 280.606 18.062 280.855 17.9759C281.107 17.8864 281.324 17.7538 281.506 17.5781C281.689 17.3991 281.829 17.1771 281.929 16.9119L283.062 17.2301C282.943 17.6146 282.742 17.9527 282.461 18.2443C282.179 18.5327 281.831 18.758 281.417 18.9205C281.002 19.0795 280.537 19.1591 280.02 19.1591ZM285.126 19V8.81818H286.299V12.5767H286.398C286.484 12.4441 286.604 12.2751 286.756 12.0696C286.912 11.8608 287.134 11.6752 287.422 11.5128C287.714 11.3471 288.108 11.2642 288.606 11.2642C289.249 11.2642 289.815 11.425 290.306 11.7464C290.796 12.0679 291.179 12.5237 291.454 13.1136C291.729 13.7036 291.867 14.3996 291.867 15.2017C291.867 16.0104 291.729 16.7114 291.454 17.3047C291.179 17.8946 290.798 18.352 290.311 18.6768C289.824 18.9983 289.262 19.1591 288.626 19.1591C288.135 19.1591 287.742 19.0779 287.447 18.9155C287.152 18.7498 286.925 18.5625 286.766 18.3537C286.607 18.1416 286.484 17.9659 286.398 17.8267H286.259V19H285.126ZM286.279 15.1818C286.279 15.7585 286.363 16.2673 286.532 16.7081C286.702 17.1456 286.948 17.4886 287.273 17.7372C287.598 17.9825 287.996 18.1051 288.466 18.1051C288.957 18.1051 289.366 17.9759 289.694 17.7173C290.026 17.4555 290.274 17.1042 290.44 16.6634C290.609 16.2192 290.694 15.7254 290.694 15.1818C290.694 14.6449 290.611 14.161 290.445 13.7301C290.283 13.2959 290.036 12.9529 289.704 12.701C289.376 12.4458 288.964 12.3182 288.466 12.3182C287.989 12.3182 287.588 12.4392 287.263 12.6811C286.939 12.9197 286.693 13.2545 286.528 13.6854C286.362 14.1129 286.279 14.6117 286.279 15.1818ZM299.071 13.0739L298.017 13.3722C297.951 13.1965 297.853 13.0258 297.724 12.8601C297.598 12.6911 297.425 12.5518 297.206 12.4425C296.988 12.3331 296.708 12.2784 296.366 12.2784C295.899 12.2784 295.51 12.3861 295.198 12.6016C294.89 12.8137 294.736 13.0838 294.736 13.4119C294.736 13.7036 294.842 13.9339 295.054 14.103C295.266 14.272 295.597 14.4129 296.048 14.5256L297.182 14.804C297.864 14.9697 298.373 15.2232 298.708 15.5646C299.043 15.9027 299.21 16.3385 299.21 16.8722C299.21 17.3097 299.084 17.7008 298.832 18.0455C298.584 18.3902 298.236 18.6619 297.788 18.8608C297.341 19.0597 296.82 19.1591 296.227 19.1591C295.448 19.1591 294.804 18.9901 294.293 18.652C293.783 18.3139 293.46 17.8201 293.324 17.1705L294.437 16.892C294.543 17.303 294.744 17.6113 295.039 17.8168C295.337 18.0223 295.727 18.125 296.207 18.125C296.754 18.125 297.188 18.009 297.51 17.777C297.835 17.5417 297.997 17.2599 297.997 16.9318C297.997 16.6667 297.904 16.4446 297.719 16.2656C297.533 16.0833 297.248 15.9474 296.863 15.858L295.591 15.5597C294.891 15.3939 294.378 15.1371 294.05 14.7891C293.725 14.4377 293.562 13.9986 293.562 13.4716C293.562 13.0407 293.683 12.6596 293.925 12.3281C294.171 11.9967 294.504 11.7365 294.925 11.5476C295.349 11.3587 295.829 11.2642 296.366 11.2642C297.122 11.2642 297.715 11.4299 298.146 11.7614C298.58 12.0928 298.889 12.5303 299.071 13.0739ZM300.976 19V11.3636H302.15V19H300.976ZM301.573 10.0909C301.344 10.0909 301.147 10.013 300.981 9.85724C300.819 9.70147 300.738 9.5142 300.738 9.29545C300.738 9.0767 300.819 8.88944 300.981 8.73366C301.147 8.57789 301.344 8.5 301.573 8.5C301.801 8.5 301.997 8.57789 302.159 8.73366C302.325 8.88944 302.408 9.0767 302.408 9.29545C302.408 9.5142 302.325 9.70147 302.159 9.85724C301.997 10.013 301.801 10.0909 301.573 10.0909ZM307.619 11.3636V12.358H303.662V11.3636H307.619ZM304.816 9.53409H305.989V16.8125C305.989 17.1439 306.037 17.3925 306.133 17.5582C306.232 17.7206 306.358 17.83 306.511 17.8864C306.667 17.9394 306.831 17.9659 307.003 17.9659C307.132 17.9659 307.238 17.9593 307.321 17.946C307.404 17.9295 307.47 17.9162 307.52 17.9062L307.759 18.9602C307.679 18.9901 307.568 19.0199 307.426 19.0497C307.283 19.0829 307.102 19.0994 306.884 19.0994C306.552 19.0994 306.227 19.0282 305.909 18.8857C305.594 18.7431 305.333 18.526 305.124 18.2344C304.918 17.9427 304.816 17.5748 304.816 17.1307V9.53409ZM312.504 19.1591C311.768 19.1591 311.134 18.9967 310.6 18.6719C310.07 18.3438 309.66 17.8864 309.372 17.2997C309.087 16.7098 308.944 16.0237 308.944 15.2415C308.944 14.4593 309.087 13.7699 309.372 13.1733C309.66 12.5734 310.061 12.1061 310.575 11.7713C311.092 11.4332 311.695 11.2642 312.385 11.2642C312.782 11.2642 313.175 11.3305 313.563 11.4631C313.951 11.5956 314.304 11.8111 314.622 12.1094C314.94 12.4044 315.194 12.7955 315.383 13.2827C315.572 13.7699 315.666 14.3698 315.666 15.0824V15.5795H309.78V14.5653H314.473C314.473 14.1345 314.387 13.75 314.214 13.4119C314.045 13.0739 313.803 12.8071 313.488 12.6115C313.177 12.416 312.809 12.3182 312.385 12.3182C311.917 12.3182 311.513 12.4342 311.172 12.6662C310.834 12.8949 310.573 13.1932 310.391 13.5611C310.209 13.929 310.118 14.3234 310.118 14.7443V15.4205C310.118 15.9972 310.217 16.486 310.416 16.8871C310.618 17.2848 310.898 17.5881 311.256 17.7969C311.614 18.0024 312.03 18.1051 312.504 18.1051C312.812 18.1051 313.091 18.062 313.339 17.9759C313.591 17.8864 313.808 17.7538 313.991 17.5781C314.173 17.3991 314.314 17.1771 314.413 16.9119L315.547 17.2301C315.427 17.6146 315.227 17.9527 314.945 18.2443C314.663 18.5327 314.315 18.758 313.901 18.9205C313.487 19.0795 313.021 19.1591 312.504 19.1591Z" fill="#344054"/>
<path d="M322.233 19V8.81818H323.466V13.3523H328.895V8.81818H330.128V19H328.895V14.446H323.466V19H322.233ZM335.539 19.1591C334.85 19.1591 334.245 18.995 333.725 18.6669C333.208 18.3388 332.803 17.8797 332.512 17.2898C332.223 16.6998 332.079 16.0104 332.079 15.2216C332.079 14.4261 332.223 13.7318 332.512 13.1385C332.803 12.5452 333.208 12.0845 333.725 11.7564C334.245 11.4283 334.85 11.2642 335.539 11.2642C336.229 11.2642 336.832 11.4283 337.349 11.7564C337.869 12.0845 338.274 12.5452 338.562 13.1385C338.854 13.7318 339 14.4261 339 15.2216C339 16.0104 338.854 16.6998 338.562 17.2898C338.274 17.8797 337.869 18.3388 337.349 18.6669C336.832 18.995 336.229 19.1591 335.539 19.1591ZM335.539 18.1051C336.063 18.1051 336.494 17.9709 336.832 17.7024C337.17 17.4339 337.42 17.081 337.583 16.6435C337.745 16.206 337.826 15.732 337.826 15.2216C337.826 14.7112 337.745 14.2356 337.583 13.7947C337.42 13.3539 337.17 12.9976 336.832 12.7259C336.494 12.4541 336.063 12.3182 335.539 12.3182C335.016 12.3182 334.585 12.4541 334.247 12.7259C333.909 12.9976 333.658 13.3539 333.496 13.7947C333.334 14.2356 333.252 14.7112 333.252 15.2216C333.252 15.732 333.334 16.206 333.496 16.6435C333.658 17.081 333.909 17.4339 334.247 17.7024C334.585 17.9709 335.016 18.1051 335.539 18.1051ZM342.261 19L339.934 11.3636H341.167L342.818 17.2102H342.897L344.528 11.3636H345.781L347.392 17.1903H347.471L349.122 11.3636H350.355L348.028 19H346.875L345.204 13.1335H345.085L343.414 19H342.261ZM359.164 11.3636V12.358H355.207V11.3636H359.164ZM356.36 9.53409H357.534V16.8125C357.534 17.1439 357.582 17.3925 357.678 17.5582C357.777 17.7206 357.903 17.83 358.056 17.8864C358.212 17.9394 358.376 17.9659 358.548 17.9659C358.677 17.9659 358.783 17.9593 358.866 17.946C358.949 17.9295 359.015 17.9162 359.065 17.9062L359.304 18.9602C359.224 18.9901 359.113 19.0199 358.971 19.0497C358.828 19.0829 358.647 19.0994 358.429 19.0994C358.097 19.0994 357.772 19.0282 357.454 18.8857C357.139 18.7431 356.877 18.526 356.669 18.2344C356.463 17.9427 356.36 17.5748 356.36 17.1307V9.53409ZM363.95 19.1591C363.26 19.1591 362.655 18.995 362.135 18.6669C361.618 18.3388 361.214 17.8797 360.922 17.2898C360.634 16.6998 360.489 16.0104 360.489 15.2216C360.489 14.4261 360.634 13.7318 360.922 13.1385C361.214 12.5452 361.618 12.0845 362.135 11.7564C362.655 11.4283 363.26 11.2642 363.95 11.2642C364.639 11.2642 365.242 11.4283 365.759 11.7564C366.28 12.0845 366.684 12.5452 366.972 13.1385C367.264 13.7318 367.41 14.4261 367.41 15.2216C367.41 16.0104 367.264 16.6998 366.972 17.2898C366.684 17.8797 366.28 18.3388 365.759 18.6669C365.242 18.995 364.639 19.1591 363.95 19.1591ZM363.95 18.1051C364.473 18.1051 364.904 17.9709 365.242 17.7024C365.58 17.4339 365.83 17.081 365.993 16.6435C366.155 16.206 366.237 15.732 366.237 15.2216C366.237 14.7112 366.155 14.2356 365.993 13.7947C365.83 13.3539 365.58 12.9976 365.242 12.7259C364.904 12.4541 364.473 12.3182 363.95 12.3182C363.426 12.3182 362.995 12.4541 362.657 12.7259C362.319 12.9976 362.069 13.3539 361.906 13.7947C361.744 14.2356 361.663 14.7112 361.663 15.2216C361.663 15.732 361.744 16.206 361.906 16.6435C362.069 17.081 362.319 17.4339 362.657 17.7024C362.995 17.9709 363.426 18.1051 363.95 18.1051ZM373.138 19V11.3636H374.312V19H373.138ZM373.735 10.0909C373.506 10.0909 373.309 10.013 373.143 9.85724C372.981 9.70147 372.9 9.5142 372.9 9.29545C372.9 9.0767 372.981 8.88944 373.143 8.73366C373.309 8.57789 373.506 8.5 373.735 8.5C373.964 8.5 374.159 8.57789 374.322 8.73366C374.487 8.88944 374.57 9.0767 374.57 9.29545C374.57 9.5142 374.487 9.70147 374.322 9.85724C374.159 10.013 373.964 10.0909 373.735 10.0909ZM379.344 19.1591C378.708 19.1591 378.146 18.9983 377.659 18.6768C377.172 18.352 376.79 17.8946 376.515 17.3047C376.24 16.7114 376.103 16.0104 376.103 15.2017C376.103 14.3996 376.24 13.7036 376.515 13.1136C376.79 12.5237 377.173 12.0679 377.664 11.7464C378.154 11.425 378.721 11.2642 379.364 11.2642C379.861 11.2642 380.254 11.3471 380.542 11.5128C380.834 11.6752 381.056 11.8608 381.208 12.0696C381.364 12.2751 381.485 12.4441 381.571 12.5767H381.671V8.81818H382.844V19H381.711V17.8267H381.571C381.485 17.9659 381.363 18.1416 381.203 18.3537C381.044 18.5625 380.817 18.7498 380.522 18.9155C380.227 19.0779 379.835 19.1591 379.344 19.1591ZM379.503 18.1051C379.974 18.1051 380.372 17.9825 380.696 17.7372C381.021 17.4886 381.268 17.1456 381.437 16.7081C381.606 16.2673 381.691 15.7585 381.691 15.1818C381.691 14.6117 381.608 14.1129 381.442 13.6854C381.276 13.2545 381.031 12.9197 380.706 12.6811C380.382 12.4392 379.98 12.3182 379.503 12.3182C379.006 12.3182 378.592 12.4458 378.26 12.701C377.932 12.9529 377.685 13.2959 377.52 13.7301C377.357 14.161 377.276 14.6449 377.276 15.1818C377.276 15.7254 377.359 16.2192 377.525 16.6634C377.694 17.1042 377.942 17.4555 378.27 17.7173C378.602 17.9759 379.013 18.1051 379.503 18.1051ZM388.358 19.1591C387.622 19.1591 386.987 18.9967 386.453 18.6719C385.923 18.3438 385.514 17.8864 385.225 17.2997C384.94 16.7098 384.798 16.0237 384.798 15.2415C384.798 14.4593 384.94 13.7699 385.225 13.1733C385.514 12.5734 385.915 12.1061 386.429 11.7713C386.946 11.4332 387.549 11.2642 388.238 11.2642C388.636 11.2642 389.029 11.3305 389.417 11.4631C389.804 11.5956 390.157 11.8111 390.475 12.1094C390.794 12.4044 391.047 12.7955 391.236 13.2827C391.425 13.7699 391.52 14.3698 391.52 15.0824V15.5795H385.633V14.5653H390.326C390.326 14.1345 390.24 13.75 390.068 13.4119C389.899 13.0739 389.657 12.8071 389.342 12.6115C389.03 12.416 388.663 12.3182 388.238 12.3182C387.771 12.3182 387.367 12.4342 387.025 12.6662C386.687 12.8949 386.427 13.1932 386.245 13.5611C386.062 13.929 385.971 14.3234 385.971 14.7443V15.4205C385.971 15.9972 386.071 16.486 386.27 16.8871C386.472 17.2848 386.752 17.5881 387.11 17.7969C387.468 18.0024 387.884 18.1051 388.358 18.1051C388.666 18.1051 388.944 18.062 389.193 17.9759C389.445 17.8864 389.662 17.7538 389.844 17.5781C390.026 17.3991 390.167 17.1771 390.267 16.9119L391.4 17.2301C391.281 17.6146 391.08 17.9527 390.799 18.2443C390.517 18.5327 390.169 18.758 389.755 18.9205C389.34 19.0795 388.875 19.1591 388.358 19.1591ZM394.478 14.4062V19H393.304V11.3636H394.438V12.5568H394.537C394.716 12.169 394.988 11.8575 395.353 11.6222C395.717 11.3835 396.188 11.2642 396.765 11.2642C397.282 11.2642 397.734 11.3703 398.122 11.5824C398.51 11.7912 398.811 12.1094 399.027 12.5369C399.242 12.9612 399.35 13.4981 399.35 14.1477V19H398.176V14.2273C398.176 13.6274 398.021 13.16 397.709 12.8253C397.398 12.4872 396.97 12.3182 396.426 12.3182C396.052 12.3182 395.717 12.3994 395.422 12.5618C395.131 12.7242 394.9 12.9612 394.731 13.2727C394.562 13.5843 394.478 13.9621 394.478 14.4062ZM404.815 11.3636V12.358H400.857V11.3636H404.815ZM402.011 9.53409H403.184V16.8125C403.184 17.1439 403.232 17.3925 403.328 17.5582C403.428 17.7206 403.554 17.83 403.706 17.8864C403.862 17.9394 404.026 17.9659 404.198 17.9659C404.328 17.9659 404.434 17.9593 404.517 17.946C404.599 17.9295 404.666 17.9162 404.715 17.9062L404.954 18.9602C404.874 18.9901 404.763 19.0199 404.621 19.0497C404.478 19.0829 404.298 19.0994 404.079 19.0994C403.748 19.0994 403.423 19.0282 403.105 18.8857C402.79 18.7431 402.528 18.526 402.319 18.2344C402.114 17.9427 402.011 17.5748 402.011 17.1307V9.53409ZM406.58 19V11.3636H407.753V19H406.58ZM407.176 10.0909C406.948 10.0909 406.75 10.013 406.585 9.85724C406.422 9.70147 406.341 9.5142 406.341 9.29545C406.341 9.0767 406.422 8.88944 406.585 8.73366C406.75 8.57789 406.948 8.5 407.176 8.5C407.405 8.5 407.601 8.57789 407.763 8.73366C407.929 8.88944 408.012 9.0767 408.012 9.29545C408.012 9.5142 407.929 9.70147 407.763 9.85724C407.601 10.013 407.405 10.0909 407.176 10.0909ZM413.303 11.3636V12.358H409.186V11.3636H413.303ZM410.419 19V10.3097C410.419 9.87216 410.522 9.50758 410.727 9.21591C410.933 8.92424 411.2 8.70549 411.528 8.55966C411.856 8.41383 412.202 8.34091 412.567 8.34091C412.855 8.34091 413.09 8.36411 413.273 8.41051C413.455 8.45691 413.591 8.5 413.68 8.53977L413.342 9.55398C413.283 9.53409 413.2 9.50923 413.094 9.4794C412.991 9.44957 412.855 9.43466 412.686 9.43466C412.298 9.43466 412.018 9.53243 411.846 9.72798C411.677 9.92353 411.592 10.2102 411.592 10.5881V19H410.419ZM415.703 21.8636C415.504 21.8636 415.326 21.8471 415.171 21.8139C415.015 21.7841 414.907 21.7543 414.847 21.7244L415.146 20.6903C415.431 20.7633 415.683 20.7898 415.901 20.7699C416.12 20.75 416.314 20.6522 416.483 20.4766C416.655 20.3042 416.813 20.0241 416.955 19.6364L417.174 19.0398L414.35 11.3636H415.623L417.731 17.4489H417.811L419.919 11.3636H421.191L417.95 20.1136C417.804 20.508 417.623 20.8345 417.408 21.093C417.192 21.3549 416.942 21.5488 416.657 21.6747C416.375 21.8007 416.057 21.8636 415.703 21.8636Z" fill="#2F5FD0"/>
<path d="M321 21.7841H339.716V22.7386H321V21.7841ZM339.457 21.7841H359.86V22.7386H339.457V21.7841ZM359.773 21.7841H392.235V22.7386H359.773V21.7841ZM392.23 21.7841H400.424V22.7386H392.23V21.7841ZM400.42 21.7841H405.511V22.7386H400.42V21.7841ZM405.506 21.7841H413.879V22.7386H405.506V21.7841ZM413.873 21.7841H421.669V22.7386H413.873V21.7841Z" fill="#2F5FD0"/>
<path fill-rule="evenodd" clip-rule="evenodd" d="M428.136 10.9044C428.178 10.8614 428.229 10.8273 428.285 10.804C428.342 10.7808 428.402 10.7688 428.462 10.7688C428.523 10.7688 428.583 10.7808 428.639 10.804C428.695 10.8273 428.746 10.8614 428.789 10.9044L434 16.1164L439.211 10.9044C439.254 10.8615 439.305 10.8274 439.361 10.8042C439.417 10.781 439.477 10.769 439.538 10.769C439.599 10.769 439.659 10.781 439.715 10.8042C439.771 10.8274 439.822 10.8615 439.865 10.9044C439.908 10.9473 439.942 10.9982 439.965 11.0543C439.988 11.1103 440 11.1704 440 11.2311C440 11.2918 439.988 11.3519 439.965 11.4079C439.942 11.464 439.908 11.5149 439.865 11.5578L434.327 17.0957C434.284 17.1386 434.233 17.1727 434.177 17.196C434.121 17.2193 434.061 17.2312 434 17.2312C433.939 17.2312 433.879 17.2193 433.823 17.196C433.767 17.1727 433.716 17.1386 433.673 17.0957L428.136 11.5578C428.093 11.515 428.059 11.464 428.035 11.408C428.012 11.3519 428 11.2918 428 11.2311C428 11.1704 428.012 11.1103 428.035 11.0542C428.059 10.9982 428.093 10.9472 428.136 10.9044Z" fill="#2F5FD0"/>
<g clip-path="url(#clip0_5083_1965)">
<rect x="34" width="4" height="28" fill="#E8178A" fill-opacity="0.24"/>
</g>
<g clip-path="url(#clip1_5083_1965)">
<rect x="317" width="4" height="28" fill="#E8178A" fill-opacity="0.24"/>
</g>
<g clip-path="url(#clip2_5083_1965)">
<rect x="423" width="4" height="28" fill="#E8178A" fill-opacity="0.24"/>
</g>
<path d="M34 36.5H38" stroke="#E8178A"/>
<rect x="20" y="41" width="31" height="18" rx="3" fill="#E8178A"/>
<path d="M26.4794 52.7216V51.5107L29.5156 46.7273H30.5597V48.4034H29.9418L28.0277 51.4325V51.4893H32.3423V52.7216H26.4794ZM29.9702 54V52.3523L29.9986 51.8161V46.7273H31.4403V54H29.9702ZM33.381 56.0455V48.5455H34.8725V49.4616H34.94C35.0063 49.3149 35.1022 49.1657 35.2276 49.0142C35.3555 48.8603 35.5212 48.7325 35.7248 48.6307C35.9308 48.5265 36.1864 48.4744 36.4918 48.4744C36.8896 48.4744 37.2565 48.5786 37.5927 48.7869C37.9289 48.9929 38.1976 49.3042 38.3988 49.7209C38.6 50.1352 38.7006 50.6548 38.7006 51.2798C38.7006 51.8883 38.6024 52.402 38.4059 52.821C38.2118 53.2377 37.9466 53.5537 37.6104 53.7692C37.2766 53.9822 36.9026 54.0888 36.4883 54.0888C36.1947 54.0888 35.945 54.0402 35.739 53.9432C35.5354 53.8461 35.3685 53.7242 35.2383 53.5774C35.1081 53.4283 35.0086 53.2779 34.94 53.1264H34.8938V56.0455H33.381ZM34.8619 51.2727C34.8619 51.5971 34.9068 51.88 34.9968 52.1214C35.0868 52.3629 35.217 52.5511 35.3874 52.6861C35.5579 52.8187 35.765 52.8849 36.0089 52.8849C36.2551 52.8849 36.4634 52.8175 36.6339 52.6825C36.8043 52.5452 36.9334 52.3558 37.021 52.1143C37.1109 51.8705 37.1559 51.59 37.1559 51.2727C37.1559 50.9579 37.1121 50.6809 37.0245 50.4418C36.9369 50.2027 36.8079 50.0156 36.6374 49.8807C36.467 49.7457 36.2575 49.6783 36.0089 49.6783C35.7627 49.6783 35.5543 49.7434 35.3839 49.8736C35.2158 50.0038 35.0868 50.1884 34.9968 50.4276C34.9068 50.6667 34.8619 50.9484 34.8619 51.2727ZM40.7781 48.5455L41.7795 50.4524L42.8058 48.5455H44.3576L42.7773 51.2727L44.4002 54H42.8555L41.7795 52.1143L40.7212 54H39.1587L40.7781 51.2727L39.2156 48.5455H40.7781Z" fill="white"/>
<line x1="34.5" y1="40" x2="34.5" y2="33" stroke="#E8178A"/>
<line x1="37.5" y1="40" x2="37.5" y2="33" stroke="#E8178A"/>
<rect x="409" y="41" width="31" height="18" rx="3" fill="#E8178A"/>
<path d="M415.479 52.7216V51.5107L418.516 46.7273H419.56V48.4034H418.942L417.028 51.4325V51.4893H421.342V52.7216H415.479ZM418.97 54V52.3523L418.999 51.8161V46.7273H420.44V54H418.97ZM422.381 56.0455V48.5455H423.873V49.4616H423.94C424.006 49.3149 424.102 49.1657 424.228 49.0142C424.355 48.8603 424.521 48.7325 424.725 48.6307C424.931 48.5265 425.186 48.4744 425.492 48.4744C425.89 48.4744 426.257 48.5786 426.593 48.7869C426.929 48.9929 427.198 49.3042 427.399 49.7209C427.6 50.1352 427.701 50.6548 427.701 51.2798C427.701 51.8883 427.602 52.402 427.406 52.821C427.212 53.2377 426.947 53.5537 426.61 53.7692C426.277 53.9822 425.903 54.0888 425.488 54.0888C425.195 54.0888 424.945 54.0402 424.739 53.9432C424.535 53.8461 424.368 53.7242 424.238 53.5774C424.108 53.4283 424.009 53.2779 423.94 53.1264H423.894V56.0455H422.381ZM423.862 51.2727C423.862 51.5971 423.907 51.88 423.997 52.1214C424.087 52.3629 424.217 52.5511 424.387 52.6861C424.558 52.8187 424.765 52.8849 425.009 52.8849C425.255 52.8849 425.463 52.8175 425.634 52.6825C425.804 52.5452 425.933 52.3558 426.021 52.1143C426.111 51.8705 426.156 51.59 426.156 51.2727C426.156 50.9579 426.112 50.6809 426.025 50.4418C425.937 50.2027 425.808 50.0156 425.637 49.8807C425.467 49.7457 425.257 49.6783 425.009 49.6783C424.763 49.6783 424.554 49.7434 424.384 49.8736C424.216 50.0038 424.087 50.1884 423.997 50.4276C423.907 50.6667 423.862 50.9484 423.862 51.2727ZM429.778 48.5455L430.779 50.4524L431.806 48.5455H433.358L431.777 51.2727L433.4 54H431.855L430.779 52.1143L429.721 54H428.159L429.778 51.2727L428.216 48.5455H429.778Z" fill="white"/>
<path d="M423 36.5H427" stroke="#E8178A"/>
<line x1="423.5" y1="40" x2="423.5" y2="33" stroke="#E8178A"/>
<line x1="426.5" y1="40" x2="426.5" y2="33" stroke="#E8178A"/>
<rect x="303" y="41" width="31" height="18" rx="3" fill="#E8178A"/>
<path d="M309.479 52.7216V51.5107L312.516 46.7273H313.56V48.4034H312.942L311.028 51.4325V51.4893H315.342V52.7216H309.479ZM312.97 54V52.3523L312.999 51.8161V46.7273H314.44V54H312.97ZM316.381 56.0455V48.5455H317.873V49.4616H317.94C318.006 49.3149 318.102 49.1657 318.228 49.0142C318.355 48.8603 318.521 48.7325 318.725 48.6307C318.931 48.5265 319.186 48.4744 319.492 48.4744C319.89 48.4744 320.257 48.5786 320.593 48.7869C320.929 48.9929 321.198 49.3042 321.399 49.7209C321.6 50.1352 321.701 50.6548 321.701 51.2798C321.701 51.8883 321.602 52.402 321.406 52.821C321.212 53.2377 320.947 53.5537 320.61 53.7692C320.277 53.9822 319.903 54.0888 319.488 54.0888C319.195 54.0888 318.945 54.0402 318.739 53.9432C318.535 53.8461 318.368 53.7242 318.238 53.5774C318.108 53.4283 318.009 53.2779 317.94 53.1264H317.894V56.0455H316.381ZM317.862 51.2727C317.862 51.5971 317.907 51.88 317.997 52.1214C318.087 52.3629 318.217 52.5511 318.387 52.6861C318.558 52.8187 318.765 52.8849 319.009 52.8849C319.255 52.8849 319.463 52.8175 319.634 52.6825C319.804 52.5452 319.933 52.3558 320.021 52.1143C320.111 51.8705 320.156 51.59 320.156 51.2727C320.156 50.9579 320.112 50.6809 320.025 50.4418C319.937 50.2027 319.808 50.0156 319.637 49.8807C319.467 49.7457 319.257 49.6783 319.009 49.6783C318.763 49.6783 318.554 49.7434 318.384 49.8736C318.216 50.0038 318.087 50.1884 317.997 50.4276C317.907 50.6667 317.862 50.9484 317.862 51.2727ZM323.778 48.5455L324.779 50.4524L325.806 48.5455H327.358L325.777 51.2727L327.4 54H325.855L324.779 52.1143L323.721 54H322.159L323.778 51.2727L322.216 48.5455H323.778Z" fill="white"/>
<path d="M317 36.5H321" stroke="#E8178A"/>
<line x1="317.5" y1="40" x2="317.5" y2="33" stroke="#E8178A"/>
<line x1="320.5" y1="40" x2="320.5" y2="33" stroke="#E8178A"/>
<path d="M450.5 0V28" stroke="#1745E8"/>
<rect x="455" y="5" width="37" height="18" rx="3" fill="#1745E8"/>
<path d="M461.589 18V16.892L464.178 14.495C464.398 14.282 464.583 14.0902 464.732 13.9197C464.884 13.7493 464.999 13.5824 465.077 13.419C465.155 13.2533 465.194 13.0746 465.194 12.8828C465.194 12.6697 465.145 12.4863 465.048 12.3324C464.951 12.1761 464.819 12.0566 464.651 11.9737C464.482 11.8885 464.292 11.8459 464.079 11.8459C463.856 11.8459 463.662 11.8909 463.496 11.9808C463.331 12.0708 463.203 12.1998 463.113 12.3679C463.023 12.536 462.978 12.736 462.978 12.968H461.518C461.518 12.4922 461.626 12.0791 461.842 11.7287C462.057 11.3783 462.359 11.1072 462.747 10.9155C463.135 10.7237 463.583 10.6278 464.089 10.6278C464.61 10.6278 465.064 10.7202 465.45 10.9048C465.838 11.0871 466.14 11.3404 466.355 11.6648C466.571 11.9891 466.678 12.3608 466.678 12.7798C466.678 13.0545 466.624 13.3255 466.515 13.593C466.408 13.8606 466.218 14.1577 465.943 14.4844C465.669 14.8087 465.281 15.1982 464.782 15.6527L463.72 16.6932V16.7429H466.774V18H461.589ZM470.601 18.0994C470.055 18.0994 469.568 18.0107 469.142 17.8331C468.718 17.6532 468.385 17.4081 468.144 17.098C467.903 16.7879 467.782 16.4363 467.782 16.0433C467.782 15.7403 467.85 15.4621 467.988 15.2088C468.127 14.9531 468.317 14.7412 468.556 14.5732C468.795 14.4027 469.063 14.2938 469.358 14.2464V14.1967C468.97 14.1186 468.655 13.9304 468.414 13.6321C468.172 13.3314 468.052 12.9822 468.052 12.5845C468.052 12.2081 468.162 11.8731 468.382 11.5795C468.602 11.2836 468.904 11.0516 469.287 10.8835C469.673 10.7131 470.111 10.6278 470.601 10.6278C471.091 10.6278 471.528 10.7131 471.912 10.8835C472.298 11.054 472.601 11.2872 472.821 11.5831C473.041 11.8767 473.152 12.2105 473.155 12.5845C473.152 12.9846 473.029 13.3338 472.785 13.6321C472.541 13.9304 472.229 14.1186 471.848 14.1967V14.2464C472.139 14.2938 472.403 14.4027 472.64 14.5732C472.879 14.7412 473.068 14.9531 473.208 15.2088C473.35 15.4621 473.422 15.7403 473.425 16.0433C473.422 16.4363 473.3 16.7879 473.059 17.098C472.817 17.4081 472.483 17.6532 472.057 17.8331C471.634 18.0107 471.148 18.0994 470.601 18.0994ZM470.601 16.9702C470.845 16.9702 471.058 16.9264 471.241 16.8388C471.423 16.7488 471.565 16.6257 471.667 16.4695C471.771 16.3108 471.823 16.1286 471.823 15.9226C471.823 15.7119 471.77 15.526 471.663 15.3651C471.557 15.2017 471.412 15.0739 471.23 14.9815C471.048 14.8868 470.838 14.8395 470.601 14.8395C470.367 14.8395 470.157 14.8868 469.973 14.9815C469.788 15.0739 469.643 15.2017 469.536 15.3651C469.432 15.526 469.38 15.7119 469.38 15.9226C469.38 16.1286 469.431 16.3108 469.532 16.4695C469.634 16.6257 469.778 16.7488 469.962 16.8388C470.147 16.9264 470.36 16.9702 470.601 16.9702ZM470.601 13.7209C470.805 13.7209 470.986 13.6795 471.145 13.5966C471.303 13.5137 471.428 13.3989 471.518 13.2521C471.608 13.1054 471.653 12.9361 471.653 12.7443C471.653 12.5549 471.608 12.3892 471.518 12.2472C471.428 12.1027 471.305 11.9903 471.148 11.9098C470.992 11.8269 470.81 11.7855 470.601 11.7855C470.395 11.7855 470.213 11.8269 470.055 11.9098C469.896 11.9903 469.772 12.1027 469.682 12.2472C469.594 12.3892 469.55 12.5549 469.55 12.7443C469.55 12.9361 469.595 13.1054 469.685 13.2521C469.775 13.3989 469.899 13.5137 470.058 13.5966C470.217 13.6795 470.398 13.7209 470.601 13.7209ZM474.514 20.0455V12.5455H476.005V13.4616H476.073C476.139 13.3149 476.235 13.1657 476.36 13.0142C476.488 12.8603 476.654 12.7325 476.858 12.6307C477.064 12.5265 477.319 12.4744 477.625 12.4744C478.022 12.4744 478.389 12.5786 478.725 12.7869C479.062 12.9929 479.33 13.3042 479.532 13.7209C479.733 14.1352 479.833 14.6548 479.833 15.2798C479.833 15.8883 479.735 16.402 479.539 16.821C479.345 17.2377 479.079 17.5537 478.743 17.7692C478.409 17.9822 478.035 18.0888 477.621 18.0888C477.328 18.0888 477.078 18.0402 476.872 17.9432C476.668 17.8461 476.501 17.7242 476.371 17.5774C476.241 17.4283 476.141 17.2779 476.073 17.1264H476.027V20.0455H474.514ZM475.995 15.2727C475.995 15.5971 476.04 15.88 476.13 16.1214C476.22 16.3629 476.35 16.5511 476.52 16.6861C476.691 16.8187 476.898 16.8849 477.142 16.8849C477.388 16.8849 477.596 16.8175 477.767 16.6825C477.937 16.5452 478.066 16.3558 478.154 16.1143C478.244 15.8705 478.289 15.59 478.289 15.2727C478.289 14.9579 478.245 14.6809 478.157 14.4418C478.07 14.2027 477.941 14.0156 477.77 13.8807C477.6 13.7457 477.39 13.6783 477.142 13.6783C476.895 13.6783 476.687 13.7434 476.517 13.8736C476.349 14.0038 476.22 14.1884 476.13 14.4276C476.04 14.6667 475.995 14.9484 475.995 15.2727ZM481.911 12.5455L482.912 14.4524L483.939 12.5455H485.49L483.91 15.2727L485.533 18H483.988L482.912 16.1143L481.854 18H480.292L481.911 15.2727L480.348 12.5455H481.911Z" fill="white"/>
<line x1="447" y1="0.5" x2="454" y2="0.5" stroke="#1745E8"/>
<line x1="447" y1="27.5" x2="454" y2="27.5" stroke="#1745E8"/>
<defs>
<clipPath id="clip0_5083_1965">
<rect width="4" height="28" fill="white" transform="translate(34)"/>
</clipPath>
<clipPath id="clip1_5083_1965">
<rect width="4" height="28" fill="white" transform="translate(317)"/>
</clipPath>
<clipPath id="clip2_5083_1965">
<rect width="4" height="28" fill="white" transform="translate(423)"/>
</clipPath>
</defs>
</svg>
