<svg width="453" height="176" viewBox="0 0 453 176" fill="none" xmlns="http://www.w3.org/2000/svg">
<rect x="0.5" y="46.5" width="452" height="63" rx="3.5" fill="#E2EFF8"/>
<rect x="0.5" y="46.5" width="452" height="63" rx="3.5" stroke="#58A1D4"/>
<path d="M40 88.5C37.2152 88.5 34.5445 87.3938 32.5754 85.4246C30.6062 83.4555 29.5 80.7848 29.5 78C29.5 75.2152 30.6062 72.5445 32.5754 70.5754C34.5445 68.6062 37.2152 67.5 40 67.5C42.7848 67.5 45.4555 68.6062 47.4246 70.5754C49.3938 72.5445 50.5 75.2152 50.5 78C50.5 80.7848 49.3938 83.4555 47.4246 85.4246C45.4555 87.3938 42.7848 88.5 40 88.5ZM40 90C43.1826 90 46.2348 88.7357 48.4853 86.4853C50.7357 84.2348 52 81.1826 52 78C52 74.8174 50.7357 71.7652 48.4853 69.5147C46.2348 67.2643 43.1826 66 40 66C36.8174 66 33.7652 67.2643 31.5147 69.5147C29.2643 71.7652 28 74.8174 28 78C28 81.1826 29.2643 84.2348 31.5147 86.4853C33.7652 88.7357 36.8174 90 40 90Z" fill="#0F71BB"/>
<path d="M38.5029 82.5001C38.5029 82.3032 38.5417 82.1081 38.6171 81.9261C38.6925 81.7441 38.803 81.5788 38.9423 81.4395C39.0816 81.3002 39.2469 81.1897 39.4289 81.1143C39.6109 81.0389 39.8059 81.0001 40.0029 81.0001C40.1999 81.0001 40.395 81.0389 40.577 81.1143C40.7589 81.1897 40.9243 81.3002 41.0636 81.4395C41.2029 81.5788 41.3134 81.7441 41.3888 81.9261C41.4641 82.1081 41.5029 82.3032 41.5029 82.5001C41.5029 82.898 41.3449 83.2795 41.0636 83.5608C40.7823 83.8421 40.4008 84.0001 40.0029 84.0001C39.6051 84.0001 39.2236 83.8421 38.9423 83.5608C38.661 83.2795 38.5029 82.898 38.5029 82.5001ZM38.6499 73.4927C38.63 73.3034 38.65 73.1121 38.7087 72.9311C38.7675 72.7501 38.8636 72.5835 38.9909 72.442C39.1182 72.3006 39.2738 72.1875 39.4476 72.1101C39.6215 72.0327 39.8096 71.9927 39.9999 71.9927C40.1902 71.9927 40.3784 72.0327 40.5522 72.1101C40.726 72.1875 40.8817 72.3006 41.009 72.442C41.1362 72.5835 41.2324 72.7501 41.2911 72.9311C41.3499 73.1121 41.3699 73.3034 41.3499 73.4927L40.8249 78.7531C40.8073 78.9598 40.7127 79.1523 40.56 79.2926C40.4072 79.4329 40.2073 79.5107 39.9999 79.5107C39.7925 79.5107 39.5927 79.4329 39.4399 79.2926C39.2871 79.1523 39.1926 78.9598 39.1749 78.7531L38.6499 73.4927Z" fill="#0F71BB"/>
<path d="M73.8864 84H72.4091L76.6818 72.3636H78.1364L82.4091 84H80.9318L77.4545 74.2045H77.3636L73.8864 84ZM74.4318 79.4545H80.3864V80.7045H74.4318V79.4545ZM94.7216 77.2273L93.517 77.5682C93.4413 77.3674 93.3295 77.1723 93.1818 76.983C93.0379 76.7898 92.8409 76.6307 92.5909 76.5057C92.3409 76.3807 92.0208 76.3182 91.6307 76.3182C91.0966 76.3182 90.6515 76.4413 90.2955 76.6875C89.9432 76.9299 89.767 77.2386 89.767 77.6136C89.767 77.947 89.8883 78.2102 90.1307 78.4034C90.3731 78.5966 90.7519 78.7576 91.267 78.8864L92.5625 79.2045C93.3428 79.3939 93.9242 79.6837 94.3068 80.0739C94.6894 80.4602 94.8807 80.9583 94.8807 81.5682C94.8807 82.0682 94.7367 82.5152 94.4489 82.9091C94.1648 83.303 93.767 83.6136 93.2557 83.8409C92.7443 84.0682 92.1496 84.1818 91.4716 84.1818C90.5814 84.1818 89.8447 83.9886 89.2614 83.6023C88.678 83.2159 88.3087 82.6515 88.1534 81.9091L89.4261 81.5909C89.5473 82.0606 89.7765 82.4129 90.1136 82.6477C90.4545 82.8826 90.8996 83 91.4489 83C92.0739 83 92.5701 82.8674 92.9375 82.6023C93.3087 82.3333 93.4943 82.0114 93.4943 81.6364C93.4943 81.3333 93.3883 81.0795 93.1761 80.875C92.964 80.6667 92.6383 80.5114 92.1989 80.4091L90.7443 80.0682C89.9451 79.8788 89.358 79.5852 88.983 79.1875C88.6117 78.786 88.4261 78.2841 88.4261 77.6818C88.4261 77.1894 88.5644 76.7538 88.8409 76.375C89.1212 75.9962 89.5019 75.6989 89.983 75.483C90.4678 75.267 91.017 75.1591 91.6307 75.1591C92.4943 75.1591 93.1723 75.3485 93.6648 75.7273C94.161 76.1061 94.5133 76.6061 94.7216 77.2273ZM99.4673 84.2045C98.9143 84.2045 98.4124 84.1004 97.9616 83.892C97.5109 83.6799 97.1529 83.375 96.8878 82.9773C96.6226 82.5758 96.4901 82.0909 96.4901 81.5227C96.4901 81.0227 96.5885 80.6174 96.7855 80.3068C96.9825 79.9924 97.2457 79.7462 97.5753 79.5682C97.9048 79.3902 98.2685 79.2576 98.6662 79.1705C99.0677 79.0795 99.4711 79.0076 99.8764 78.9545C100.407 78.8864 100.837 78.8352 101.166 78.8011C101.5 78.7633 101.742 78.7008 101.893 78.6136C102.049 78.5265 102.126 78.375 102.126 78.1591V78.1136C102.126 77.553 101.973 77.1174 101.666 76.8068C101.363 76.4962 100.903 76.3409 100.286 76.3409C99.6454 76.3409 99.1435 76.4811 98.7798 76.7614C98.4162 77.0417 98.1605 77.3409 98.0128 77.6591L96.7401 77.2045C96.9673 76.6742 97.2704 76.2614 97.6491 75.9659C98.0317 75.6667 98.4484 75.4583 98.8991 75.3409C99.3537 75.2197 99.8007 75.1591 100.24 75.1591C100.52 75.1591 100.842 75.1932 101.206 75.2614C101.573 75.3258 101.928 75.4602 102.268 75.6648C102.613 75.8693 102.899 76.178 103.126 76.5909C103.354 77.0038 103.467 77.5568 103.467 78.25V84H102.126V82.8182H102.058C101.967 83.0076 101.816 83.2102 101.604 83.4261C101.392 83.642 101.109 83.8258 100.757 83.9773C100.405 84.1288 99.9749 84.2045 99.4673 84.2045ZM99.6719 83C100.202 83 100.649 82.8958 101.013 82.6875C101.38 82.4792 101.657 82.2102 101.842 81.8807C102.032 81.5511 102.126 81.2045 102.126 80.8409V79.6136C102.07 79.6818 101.945 79.7443 101.751 79.8011C101.562 79.8542 101.342 79.9015 101.092 79.9432C100.846 79.9811 100.606 80.0152 100.371 80.0455C100.14 80.072 99.9522 80.0947 99.8082 80.1136C99.4598 80.1591 99.134 80.233 98.831 80.3352C98.5317 80.4337 98.2893 80.5833 98.1037 80.7841C97.9219 80.9811 97.831 81.25 97.831 81.5909C97.831 82.0568 98.0033 82.4091 98.348 82.6477C98.6965 82.8826 99.1378 83 99.6719 83ZM105.915 84V75.2727H107.21V76.6364H107.324C107.506 76.1705 107.799 75.8087 108.205 75.5511C108.61 75.2898 109.097 75.1591 109.665 75.1591C110.241 75.1591 110.72 75.2898 111.102 75.5511C111.489 75.8087 111.79 76.1705 112.006 76.6364H112.097C112.32 76.1856 112.655 75.8277 113.102 75.5625C113.549 75.2936 114.085 75.1591 114.71 75.1591C115.491 75.1591 116.129 75.4034 116.625 75.892C117.121 76.3769 117.369 77.1326 117.369 78.1591V84H116.028V78.1591C116.028 77.5152 115.852 77.0549 115.5 76.7784C115.148 76.5019 114.733 76.3636 114.256 76.3636C113.642 76.3636 113.167 76.5492 112.83 76.9205C112.492 77.2879 112.324 77.7538 112.324 78.3182V84H110.96V78.0227C110.96 77.5265 110.799 77.1269 110.477 76.8239C110.155 76.517 109.741 76.3636 109.233 76.3636C108.884 76.3636 108.559 76.4564 108.256 76.642C107.956 76.8277 107.714 77.0852 107.528 77.4148C107.347 77.7405 107.256 78.1174 107.256 78.5455V84H105.915ZM119.821 87.2727V75.2727H121.116V76.6591H121.276C121.374 76.5076 121.51 76.3144 121.685 76.0795C121.863 75.8409 122.116 75.6288 122.446 75.4432C122.779 75.2538 123.23 75.1591 123.798 75.1591C124.533 75.1591 125.181 75.3428 125.741 75.7102C126.302 76.0777 126.74 76.5985 127.054 77.2727C127.368 77.947 127.526 78.7424 127.526 79.6591C127.526 80.5833 127.368 81.3845 127.054 82.0625C126.74 82.7367 126.304 83.2595 125.747 83.6307C125.19 83.9981 124.548 84.1818 123.821 84.1818C123.26 84.1818 122.812 84.089 122.474 83.9034C122.137 83.714 121.878 83.5 121.696 83.2614C121.514 83.0189 121.374 82.8182 121.276 82.6591H121.162V87.2727H119.821ZM121.139 79.6364C121.139 80.2955 121.236 80.8769 121.429 81.3807C121.622 81.8807 121.904 82.2727 122.276 82.5568C122.647 82.8371 123.101 82.9773 123.639 82.9773C124.2 82.9773 124.668 82.8295 125.043 82.5341C125.421 82.2348 125.705 81.8333 125.895 81.3295C126.088 80.822 126.185 80.2576 126.185 79.6364C126.185 79.0227 126.09 78.4697 125.901 77.9773C125.715 77.4811 125.433 77.089 125.054 76.8011C124.679 76.5095 124.207 76.3636 123.639 76.3636C123.094 76.3636 122.635 76.5019 122.264 76.7784C121.893 77.0511 121.613 77.4337 121.423 77.9261C121.234 78.4148 121.139 78.9848 121.139 79.6364ZM130.912 72.3636V84H129.571V72.3636H130.912ZM137.027 84.1818C136.186 84.1818 135.461 83.9962 134.851 83.625C134.245 83.25 133.777 82.7273 133.447 82.0568C133.122 81.3826 132.959 80.5985 132.959 79.7045C132.959 78.8106 133.122 78.0227 133.447 77.3409C133.777 76.6553 134.235 76.1212 134.822 75.7386C135.413 75.3523 136.103 75.1591 136.891 75.1591C137.345 75.1591 137.794 75.2348 138.237 75.3864C138.68 75.5379 139.084 75.7841 139.447 76.125C139.811 76.4621 140.101 76.9091 140.317 77.4659C140.533 78.0227 140.641 78.7083 140.641 79.5227V80.0909H133.913V78.9318H139.277C139.277 78.4394 139.179 78 138.982 77.6136C138.788 77.2273 138.512 76.9223 138.152 76.6989C137.796 76.4754 137.375 76.3636 136.891 76.3636C136.357 76.3636 135.894 76.4962 135.504 76.7614C135.118 77.0227 134.821 77.3636 134.612 77.7841C134.404 78.2045 134.3 78.6553 134.3 79.1364V79.9091C134.3 80.5682 134.413 81.1269 134.641 81.5852C134.872 82.0398 135.192 82.3864 135.601 82.625C136.01 82.8598 136.485 82.9773 137.027 82.9773C137.379 82.9773 137.697 82.928 137.982 82.8295C138.269 82.7273 138.518 82.5758 138.726 82.375C138.934 82.1705 139.095 81.9167 139.209 81.6136L140.504 81.9773C140.368 82.4167 140.139 82.803 139.817 83.1364C139.495 83.4659 139.097 83.7235 138.624 83.9091C138.15 84.0909 137.618 84.1818 137.027 84.1818ZM147.18 84V75.2727H148.521V84H147.18ZM147.862 73.8182C147.601 73.8182 147.375 73.7292 147.186 73.5511C147 73.3731 146.908 73.1591 146.908 72.9091C146.908 72.6591 147 72.4451 147.186 72.267C147.375 72.089 147.601 72 147.862 72C148.124 72 148.347 72.089 148.533 72.267C148.722 72.4451 148.817 72.6591 148.817 72.9091C148.817 73.1591 148.722 73.3731 148.533 73.5511C148.347 73.7292 148.124 73.8182 147.862 73.8182ZM152.318 78.75V84H150.977V75.2727H152.273V76.6364H152.386C152.591 76.1932 152.902 75.8371 153.318 75.5682C153.735 75.2955 154.273 75.1591 154.932 75.1591C155.523 75.1591 156.04 75.2803 156.483 75.5227C156.926 75.7614 157.271 76.125 157.517 76.6136C157.763 77.0985 157.886 77.7121 157.886 78.4545V84H156.545V78.5455C156.545 77.8598 156.367 77.3258 156.011 76.9432C155.655 76.5568 155.167 76.3636 154.545 76.3636C154.117 76.3636 153.735 76.4564 153.398 76.642C153.064 76.8277 152.801 77.0985 152.608 77.4545C152.415 77.8106 152.318 78.2424 152.318 78.75ZM164.223 75.2727V76.4091H159.518V75.2727H164.223ZM160.928 84V74.0682C160.928 73.5682 161.045 73.1515 161.28 72.8182C161.515 72.4848 161.82 72.2348 162.195 72.0682C162.57 71.9015 162.965 71.8182 163.382 71.8182C163.712 71.8182 163.981 71.8447 164.189 71.8977C164.397 71.9508 164.553 72 164.655 72.0455L164.268 73.2045C164.2 73.1818 164.106 73.1534 163.984 73.1193C163.867 73.0852 163.712 73.0682 163.518 73.0682C163.075 73.0682 162.755 73.1799 162.558 73.4034C162.365 73.6269 162.268 73.9545 162.268 74.3864V84H160.928ZM169.288 84.1818C168.5 84.1818 167.809 83.9943 167.214 83.6193C166.624 83.2443 166.161 82.7197 165.828 82.0455C165.499 81.3712 165.334 80.5833 165.334 79.6818C165.334 78.7727 165.499 77.9792 165.828 77.3011C166.161 76.6231 166.624 76.0966 167.214 75.7216C167.809 75.3466 168.5 75.1591 169.288 75.1591C170.076 75.1591 170.766 75.3466 171.357 75.7216C171.951 76.0966 172.413 76.6231 172.743 77.3011C173.076 77.9792 173.243 78.7727 173.243 79.6818C173.243 80.5833 173.076 81.3712 172.743 82.0455C172.413 82.7197 171.951 83.2443 171.357 83.6193C170.766 83.9943 170.076 84.1818 169.288 84.1818ZM169.288 82.9773C169.887 82.9773 170.379 82.8239 170.766 82.517C171.152 82.2102 171.438 81.8068 171.624 81.3068C171.809 80.8068 171.902 80.2652 171.902 79.6818C171.902 79.0985 171.809 78.5549 171.624 78.0511C171.438 77.5473 171.152 77.1402 170.766 76.8295C170.379 76.5189 169.887 76.3636 169.288 76.3636C168.69 76.3636 168.197 76.5189 167.811 76.8295C167.425 77.1402 167.139 77.5473 166.953 78.0511C166.768 78.5549 166.675 79.0985 166.675 79.6818C166.675 80.2652 166.768 80.8068 166.953 81.3068C167.139 81.8068 167.425 82.2102 167.811 82.517C168.197 82.8239 168.69 82.9773 169.288 82.9773ZM182.358 84.2045C181.805 84.2045 181.303 84.1004 180.852 83.892C180.402 83.6799 180.044 83.375 179.778 82.9773C179.513 82.5758 179.381 82.0909 179.381 81.5227C179.381 81.0227 179.479 80.6174 179.676 80.3068C179.873 79.9924 180.136 79.7462 180.466 79.5682C180.795 79.3902 181.159 79.2576 181.557 79.1705C181.958 79.0795 182.362 79.0076 182.767 78.9545C183.297 78.8864 183.727 78.8352 184.057 78.8011C184.39 78.7633 184.633 78.7008 184.784 78.6136C184.939 78.5265 185.017 78.375 185.017 78.1591V78.1136C185.017 77.553 184.864 77.1174 184.557 76.8068C184.254 76.4962 183.794 76.3409 183.176 76.3409C182.536 76.3409 182.034 76.4811 181.67 76.7614C181.307 77.0417 181.051 77.3409 180.903 77.6591L179.631 77.2045C179.858 76.6742 180.161 76.2614 180.54 75.9659C180.922 75.6667 181.339 75.4583 181.79 75.3409C182.244 75.2197 182.691 75.1591 183.131 75.1591C183.411 75.1591 183.733 75.1932 184.097 75.2614C184.464 75.3258 184.818 75.4602 185.159 75.6648C185.504 75.8693 185.79 76.178 186.017 76.5909C186.244 77.0038 186.358 77.5568 186.358 78.25V84H185.017V82.8182H184.949C184.858 83.0076 184.706 83.2102 184.494 83.4261C184.282 83.642 184 83.8258 183.648 83.9773C183.295 84.1288 182.866 84.2045 182.358 84.2045ZM182.562 83C183.093 83 183.54 82.8958 183.903 82.6875C184.271 82.4792 184.547 82.2102 184.733 81.8807C184.922 81.5511 185.017 81.2045 185.017 80.8409V79.6136C184.96 79.6818 184.835 79.7443 184.642 79.8011C184.453 79.8542 184.233 79.9015 183.983 79.9432C183.737 79.9811 183.496 80.0152 183.261 80.0455C183.03 80.072 182.843 80.0947 182.699 80.1136C182.35 80.1591 182.025 80.233 181.722 80.3352C181.422 80.4337 181.18 80.5833 180.994 80.7841C180.813 80.9811 180.722 81.25 180.722 81.5909C180.722 82.0568 180.894 82.4091 181.239 82.6477C181.587 82.8826 182.028 83 182.562 83ZM190.146 72.3636V84H188.805V72.3636H190.146ZM196.261 84.1818C195.42 84.1818 194.695 83.9962 194.085 83.625C193.479 83.25 193.011 82.7273 192.682 82.0568C192.356 81.3826 192.193 80.5985 192.193 79.7045C192.193 78.8106 192.356 78.0227 192.682 77.3409C193.011 76.6553 193.47 76.1212 194.057 75.7386C194.648 75.3523 195.337 75.1591 196.125 75.1591C196.58 75.1591 197.028 75.2348 197.472 75.3864C197.915 75.5379 198.318 75.7841 198.682 76.125C199.045 76.4621 199.335 76.9091 199.551 77.4659C199.767 78.0227 199.875 78.7083 199.875 79.5227V80.0909H193.148V78.9318H198.511C198.511 78.4394 198.413 78 198.216 77.6136C198.023 77.2273 197.746 76.9223 197.386 76.6989C197.03 76.4754 196.61 76.3636 196.125 76.3636C195.591 76.3636 195.129 76.4962 194.739 76.7614C194.352 77.0227 194.055 77.3636 193.847 77.7841C193.638 78.2045 193.534 78.6553 193.534 79.1364V79.9091C193.534 80.5682 193.648 81.1269 193.875 81.5852C194.106 82.0398 194.426 82.3864 194.835 82.625C195.244 82.8598 195.72 82.9773 196.261 82.9773C196.614 82.9773 196.932 82.928 197.216 82.8295C197.504 82.7273 197.752 82.5758 197.96 82.375C198.169 82.1705 198.33 81.9167 198.443 81.6136L199.739 81.9773C199.602 82.4167 199.373 82.803 199.051 83.1364C198.729 83.4659 198.331 83.7235 197.858 83.9091C197.384 84.0909 196.852 84.1818 196.261 84.1818ZM201.915 84V75.2727H203.21V76.5909H203.301C203.46 76.1591 203.748 75.8087 204.165 75.5398C204.581 75.2708 205.051 75.1364 205.574 75.1364C205.672 75.1364 205.795 75.1383 205.943 75.142C206.091 75.1458 206.203 75.1515 206.278 75.1591V76.5227C206.233 76.5114 206.129 76.4943 205.966 76.4716C205.807 76.4451 205.638 76.4318 205.46 76.4318C205.036 76.4318 204.657 76.5208 204.324 76.6989C203.994 76.8731 203.733 77.1155 203.54 77.4261C203.35 77.733 203.256 78.0833 203.256 78.4773V84H201.915ZM212.21 75.2727V76.4091H207.688V75.2727H212.21ZM209.006 73.1818H210.347V81.5C210.347 81.8788 210.402 82.1629 210.511 82.3523C210.625 82.5379 210.769 82.6629 210.943 82.7273C211.121 82.7879 211.309 82.8182 211.506 82.8182C211.653 82.8182 211.775 82.8106 211.869 82.7955C211.964 82.7765 212.04 82.7614 212.097 82.75L212.369 83.9545C212.278 83.9886 212.152 84.0227 211.989 84.0568C211.826 84.0947 211.619 84.1136 211.369 84.1136C210.991 84.1136 210.619 84.0322 210.256 83.8693C209.896 83.7064 209.597 83.4583 209.358 83.125C209.123 82.7917 209.006 82.3712 209.006 81.8636V73.1818Z" fill="#1D2939"/>
<path fill-rule="evenodd" clip-rule="evenodd" d="M411 72C411.133 71.8674 411.312 71.7929 411.5 71.7929C411.688 71.7929 411.867 71.8674 412 72L417 77L422 72C422.133 71.8674 422.312 71.7929 422.5 71.7929C422.688 71.7929 422.867 71.8674 423 72C423.133 72.1326 423.207 72.3125 423.207 72.5C423.207 72.6875 423.133 72.8674 423 73L418 78L423 83C423.133 83.1326 423.207 83.3125 423.207 83.5C423.207 83.6875 423.133 83.8674 423 84C422.867 84.1326 422.688 84.2071 422.5 84.2071C422.312 84.2071 422.133 84.1326 422 84L417 79L412 84C411.867 84.1326 411.688 84.2071 411.5 84.2071C411.312 84.2071 411.133 84.1326 411 84C410.867 83.8674 410.793 83.6875 410.793 83.5C410.793 83.3125 410.867 83.1326 411 83L416 78L411 73C410.867 72.8674 410.793 72.6875 410.793 72.5C410.793 72.3125 410.867 72.1326 411 72Z" fill="#1D2939"/>
<circle cx="417" cy="160" r="12" fill="#1D2939"/>
<path d="M417.244 166.159C416.396 166.159 415.64 166.013 414.977 165.722C414.318 165.426 413.797 165.021 413.415 164.506C413.036 163.987 412.841 163.388 412.83 162.71H415.307C415.322 162.994 415.415 163.244 415.585 163.46C415.759 163.672 415.991 163.837 416.278 163.955C416.566 164.072 416.89 164.131 417.25 164.131C417.625 164.131 417.956 164.064 418.244 163.932C418.532 163.799 418.758 163.616 418.92 163.381C419.083 163.146 419.165 162.875 419.165 162.568C419.165 162.258 419.078 161.983 418.903 161.744C418.733 161.502 418.487 161.312 418.165 161.176C417.847 161.04 417.468 160.972 417.028 160.972H415.943V159.165H417.028C417.4 159.165 417.727 159.1 418.011 158.972C418.299 158.843 418.523 158.665 418.682 158.438C418.841 158.206 418.92 157.938 418.92 157.631C418.92 157.339 418.85 157.083 418.71 156.864C418.574 156.64 418.381 156.466 418.131 156.341C417.884 156.216 417.597 156.153 417.267 156.153C416.934 156.153 416.629 156.214 416.352 156.335C416.076 156.453 415.854 156.621 415.688 156.841C415.521 157.061 415.432 157.318 415.42 157.614H413.062C413.074 156.943 413.265 156.352 413.636 155.841C414.008 155.33 414.508 154.93 415.136 154.642C415.769 154.35 416.483 154.205 417.278 154.205C418.081 154.205 418.784 154.35 419.386 154.642C419.989 154.934 420.456 155.328 420.79 155.824C421.127 156.316 421.294 156.869 421.29 157.483C421.294 158.134 421.091 158.678 420.682 159.114C420.277 159.549 419.748 159.826 419.097 159.943V160.034C419.953 160.144 420.604 160.441 421.051 160.926C421.502 161.407 421.725 162.009 421.722 162.733C421.725 163.396 421.534 163.985 421.148 164.5C420.765 165.015 420.237 165.42 419.562 165.716C418.888 166.011 418.116 166.159 417.244 166.159Z" fill="white"/>
<path d="M417 149L417 85" stroke="#1D2939" stroke-dasharray="2 2"/>
<circle cx="326" cy="160" r="12" fill="#1D2939"/>
<path d="M320.767 163.955V162.017L325.625 154.364H327.295V157.045H326.307L323.244 161.892V161.983H330.148V163.955H320.767ZM326.352 166V163.364L326.398 162.506V154.364H328.705V166H326.352Z" fill="white"/>
<path d="M326 149L326 110" stroke="#1D2939" stroke-dasharray="2 2"/>
<circle cx="83" cy="16" r="12" fill="#1D2939"/>
<path d="M85.0057 10.3636V22H82.5455V12.6989H82.4773L79.8125 14.3693V12.1875L82.6932 10.3636H85.0057Z" fill="white"/>
<circle cx="28" cy="160" r="12" fill="#1D2939"/>
<path d="M23.9432 166V164.227L28.0852 160.392C28.4375 160.051 28.733 159.744 28.9716 159.472C29.214 159.199 29.3977 158.932 29.5227 158.67C29.6477 158.405 29.7102 158.119 29.7102 157.812C29.7102 157.472 29.6326 157.178 29.4773 156.932C29.322 156.682 29.1098 156.491 28.8409 156.358C28.572 156.222 28.267 156.153 27.9261 156.153C27.5701 156.153 27.2595 156.225 26.9943 156.369C26.7292 156.513 26.5246 156.72 26.3807 156.989C26.2367 157.258 26.1648 157.578 26.1648 157.949H23.8295C23.8295 157.187 24.0019 156.527 24.3466 155.966C24.6913 155.405 25.1742 154.972 25.7955 154.665C26.4167 154.358 27.1326 154.205 27.9432 154.205C28.7765 154.205 29.5019 154.352 30.1193 154.648C30.7405 154.939 31.2235 155.345 31.5682 155.864C31.9129 156.383 32.0852 156.977 32.0852 157.648C32.0852 158.087 31.9981 158.521 31.8239 158.949C31.6534 159.377 31.3485 159.852 30.9091 160.375C30.4697 160.894 29.8504 161.517 29.0511 162.244L27.3523 163.909V163.989H32.2386V166H23.9432Z" fill="white"/>
<path d="M80 16H36V66" stroke="#1D2939" stroke-dasharray="2 2"/>
<path d="M41 160H114V94" stroke="#1D2939" stroke-dasharray="2 2"/>
</svg>
