<svg width="510" height="94" viewBox="0 0 510 94" fill="none" xmlns="http://www.w3.org/2000/svg">
<rect x="7" y="0.5" width="452" height="63" rx="3.5" fill="#E2EFF8"/>
<rect x="7" y="0.5" width="452" height="63" rx="3.5" stroke="#58A1D4"/>
<path d="M46.5 42.5C43.7152 42.5 41.0445 41.3938 39.0754 39.4246C37.1062 37.4555 36 34.7848 36 32C36 29.2152 37.1062 26.5445 39.0754 24.5754C41.0445 22.6062 43.7152 21.5 46.5 21.5C49.2848 21.5 51.9555 22.6062 53.9246 24.5754C55.8938 26.5445 57 29.2152 57 32C57 34.7848 55.8938 37.4555 53.9246 39.4246C51.9555 41.3938 49.2848 42.5 46.5 42.5ZM46.5 44C49.6826 44 52.7348 42.7357 54.9853 40.4853C57.2357 38.2348 58.5 35.1826 58.5 32C58.5 28.8174 57.2357 25.7652 54.9853 23.5147C52.7348 21.2643 49.6826 20 46.5 20C43.3174 20 40.2652 21.2643 38.0147 23.5147C35.7643 25.7652 34.5 28.8174 34.5 32C34.5 35.1826 35.7643 38.2348 38.0147 40.4853C40.2652 42.7357 43.3174 44 46.5 44Z" fill="#0F71BB"/>
<path d="M45.0029 36.5001C45.0029 36.3032 45.0417 36.1081 45.1171 35.9261C45.1925 35.7441 45.303 35.5788 45.4423 35.4395C45.5816 35.3002 45.7469 35.1897 45.9289 35.1143C46.1109 35.0389 46.3059 35.0001 46.5029 35.0001C46.6999 35.0001 46.895 35.0389 47.077 35.1143C47.2589 35.1897 47.4243 35.3002 47.5636 35.4395C47.7029 35.5788 47.8134 35.7441 47.8888 35.9261C47.9641 36.1081 48.0029 36.3032 48.0029 36.5001C48.0029 36.898 47.8449 37.2795 47.5636 37.5608C47.2823 37.8421 46.9008 38.0001 46.5029 38.0001C46.1051 38.0001 45.7236 37.8421 45.4423 37.5608C45.161 37.2795 45.0029 36.898 45.0029 36.5001ZM45.1499 27.4927C45.13 27.3034 45.15 27.1121 45.2087 26.9311C45.2675 26.7501 45.3636 26.5835 45.4909 26.442C45.6182 26.3006 45.7738 26.1875 45.9476 26.1101C46.1215 26.0327 46.3096 25.9927 46.4999 25.9927C46.6902 25.9927 46.8784 26.0327 47.0522 26.1101C47.226 26.1875 47.3817 26.3006 47.509 26.442C47.6362 26.5835 47.7324 26.7501 47.7911 26.9311C47.8499 27.1121 47.8699 27.3034 47.8499 27.4927L47.3249 32.7531C47.3073 32.9598 47.2127 33.1523 47.06 33.2926C46.9072 33.4329 46.7073 33.5107 46.4999 33.5107C46.2925 33.5107 46.0927 33.4329 45.9399 33.2926C45.7871 33.1523 45.6926 32.9598 45.6749 32.7531L45.1499 27.4927Z" fill="#0F71BB"/>
<path d="M80.3864 38H78.9091L83.1818 26.3636H84.6364L88.9091 38H87.4318L83.9545 28.2045H83.8636L80.3864 38ZM80.9318 33.4545H86.8864V34.7045H80.9318V33.4545ZM101.222 31.2273L100.017 31.5682C99.9413 31.3674 99.8295 31.1723 99.6818 30.983C99.5379 30.7898 99.3409 30.6307 99.0909 30.5057C98.8409 30.3807 98.5208 30.3182 98.1307 30.3182C97.5966 30.3182 97.1515 30.4413 96.7955 30.6875C96.4432 30.9299 96.267 31.2386 96.267 31.6136C96.267 31.947 96.3883 32.2102 96.6307 32.4034C96.8731 32.5966 97.2519 32.7576 97.767 32.8864L99.0625 33.2045C99.8428 33.3939 100.424 33.6837 100.807 34.0739C101.189 34.4602 101.381 34.9583 101.381 35.5682C101.381 36.0682 101.237 36.5152 100.949 36.9091C100.665 37.303 100.267 37.6136 99.7557 37.8409C99.2443 38.0682 98.6496 38.1818 97.9716 38.1818C97.0814 38.1818 96.3447 37.9886 95.7614 37.6023C95.178 37.2159 94.8087 36.6515 94.6534 35.9091L95.9261 35.5909C96.0473 36.0606 96.2765 36.4129 96.6136 36.6477C96.9545 36.8826 97.3996 37 97.9489 37C98.5739 37 99.0701 36.8674 99.4375 36.6023C99.8087 36.3333 99.9943 36.0114 99.9943 35.6364C99.9943 35.3333 99.8883 35.0795 99.6761 34.875C99.464 34.6667 99.1383 34.5114 98.6989 34.4091L97.2443 34.0682C96.4451 33.8788 95.858 33.5852 95.483 33.1875C95.1117 32.786 94.9261 32.2841 94.9261 31.6818C94.9261 31.1894 95.0644 30.7538 95.3409 30.375C95.6212 29.9962 96.0019 29.6989 96.483 29.483C96.9678 29.267 97.517 29.1591 98.1307 29.1591C98.9943 29.1591 99.6723 29.3485 100.165 29.7273C100.661 30.1061 101.013 30.6061 101.222 31.2273ZM105.967 38.2045C105.414 38.2045 104.912 38.1004 104.462 37.892C104.011 37.6799 103.653 37.375 103.388 36.9773C103.123 36.5758 102.99 36.0909 102.99 35.5227C102.99 35.0227 103.089 34.6174 103.286 34.3068C103.482 33.9924 103.746 33.7462 104.075 33.5682C104.405 33.3902 104.768 33.2576 105.166 33.1705C105.568 33.0795 105.971 33.0076 106.376 32.9545C106.907 32.8864 107.337 32.8352 107.666 32.8011C108 32.7633 108.242 32.7008 108.393 32.6136C108.549 32.5265 108.626 32.375 108.626 32.1591V32.1136C108.626 31.553 108.473 31.1174 108.166 30.8068C107.863 30.4962 107.403 30.3409 106.786 30.3409C106.145 30.3409 105.643 30.4811 105.28 30.7614C104.916 31.0417 104.661 31.3409 104.513 31.6591L103.24 31.2045C103.467 30.6742 103.77 30.2614 104.149 29.9659C104.532 29.6667 104.948 29.4583 105.399 29.3409C105.854 29.2197 106.301 29.1591 106.74 29.1591C107.02 29.1591 107.342 29.1932 107.706 29.2614C108.073 29.3258 108.428 29.4602 108.768 29.6648C109.113 29.8693 109.399 30.178 109.626 30.5909C109.854 31.0038 109.967 31.5568 109.967 32.25V38H108.626V36.8182H108.558C108.467 37.0076 108.316 37.2102 108.104 37.4261C107.892 37.642 107.609 37.8258 107.257 37.9773C106.905 38.1288 106.475 38.2045 105.967 38.2045ZM106.172 37C106.702 37 107.149 36.8958 107.513 36.6875C107.88 36.4792 108.157 36.2102 108.342 35.8807C108.532 35.5511 108.626 35.2045 108.626 34.8409V33.6136C108.57 33.6818 108.445 33.7443 108.251 33.8011C108.062 33.8542 107.842 33.9015 107.592 33.9432C107.346 33.9811 107.106 34.0152 106.871 34.0455C106.64 34.072 106.452 34.0947 106.308 34.1136C105.96 34.1591 105.634 34.233 105.331 34.3352C105.032 34.4337 104.789 34.5833 104.604 34.7841C104.422 34.9811 104.331 35.25 104.331 35.5909C104.331 36.0568 104.503 36.4091 104.848 36.6477C105.196 36.8826 105.638 37 106.172 37ZM112.415 38V29.2727H113.71V30.6364H113.824C114.006 30.1705 114.299 29.8087 114.705 29.5511C115.11 29.2898 115.597 29.1591 116.165 29.1591C116.741 29.1591 117.22 29.2898 117.602 29.5511C117.989 29.8087 118.29 30.1705 118.506 30.6364H118.597C118.82 30.1856 119.155 29.8277 119.602 29.5625C120.049 29.2936 120.585 29.1591 121.21 29.1591C121.991 29.1591 122.629 29.4034 123.125 29.892C123.621 30.3769 123.869 31.1326 123.869 32.1591V38H122.528V32.1591C122.528 31.5152 122.352 31.0549 122 30.7784C121.648 30.5019 121.233 30.3636 120.756 30.3636C120.142 30.3636 119.667 30.5492 119.33 30.9205C118.992 31.2879 118.824 31.7538 118.824 32.3182V38H117.46V32.0227C117.46 31.5265 117.299 31.1269 116.977 30.8239C116.655 30.517 116.241 30.3636 115.733 30.3636C115.384 30.3636 115.059 30.4564 114.756 30.642C114.456 30.8277 114.214 31.0852 114.028 31.4148C113.847 31.7405 113.756 32.1174 113.756 32.5455V38H112.415ZM126.321 41.2727V29.2727H127.616V30.6591H127.776C127.874 30.5076 128.01 30.3144 128.185 30.0795C128.363 29.8409 128.616 29.6288 128.946 29.4432C129.279 29.2538 129.73 29.1591 130.298 29.1591C131.033 29.1591 131.681 29.3428 132.241 29.7102C132.802 30.0777 133.24 30.5985 133.554 31.2727C133.868 31.947 134.026 32.7424 134.026 33.6591C134.026 34.5833 133.868 35.3845 133.554 36.0625C133.24 36.7367 132.804 37.2595 132.247 37.6307C131.69 37.9981 131.048 38.1818 130.321 38.1818C129.76 38.1818 129.312 38.089 128.974 37.9034C128.637 37.714 128.378 37.5 128.196 37.2614C128.014 37.0189 127.874 36.8182 127.776 36.6591H127.662V41.2727H126.321ZM127.639 33.6364C127.639 34.2955 127.736 34.8769 127.929 35.3807C128.122 35.8807 128.404 36.2727 128.776 36.5568C129.147 36.8371 129.601 36.9773 130.139 36.9773C130.7 36.9773 131.168 36.8295 131.543 36.5341C131.921 36.2348 132.205 35.8333 132.395 35.3295C132.588 34.822 132.685 34.2576 132.685 33.6364C132.685 33.0227 132.59 32.4697 132.401 31.9773C132.215 31.4811 131.933 31.089 131.554 30.8011C131.179 30.5095 130.707 30.3636 130.139 30.3636C129.594 30.3636 129.135 30.5019 128.764 30.7784C128.393 31.0511 128.113 31.4337 127.923 31.9261C127.734 32.4148 127.639 32.9848 127.639 33.6364ZM137.412 26.3636V38H136.071V26.3636H137.412ZM143.527 38.1818C142.686 38.1818 141.961 37.9962 141.351 37.625C140.745 37.25 140.277 36.7273 139.947 36.0568C139.622 35.3826 139.459 34.5985 139.459 33.7045C139.459 32.8106 139.622 32.0227 139.947 31.3409C140.277 30.6553 140.735 30.1212 141.322 29.7386C141.913 29.3523 142.603 29.1591 143.391 29.1591C143.845 29.1591 144.294 29.2348 144.737 29.3864C145.18 29.5379 145.584 29.7841 145.947 30.125C146.311 30.4621 146.601 30.9091 146.817 31.4659C147.033 32.0227 147.141 32.7083 147.141 33.5227V34.0909H140.413V32.9318H145.777C145.777 32.4394 145.679 32 145.482 31.6136C145.288 31.2273 145.012 30.9223 144.652 30.6989C144.296 30.4754 143.875 30.3636 143.391 30.3636C142.857 30.3636 142.394 30.4962 142.004 30.7614C141.618 31.0227 141.321 31.3636 141.112 31.7841C140.904 32.2045 140.8 32.6553 140.8 33.1364V33.9091C140.8 34.5682 140.913 35.1269 141.141 35.5852C141.372 36.0398 141.692 36.3864 142.101 36.625C142.51 36.8598 142.985 36.9773 143.527 36.9773C143.879 36.9773 144.197 36.928 144.482 36.8295C144.769 36.7273 145.018 36.5758 145.226 36.375C145.434 36.1705 145.595 35.9167 145.709 35.6136L147.004 35.9773C146.868 36.4167 146.639 36.803 146.317 37.1364C145.995 37.4659 145.597 37.7235 145.124 37.9091C144.65 38.0909 144.118 38.1818 143.527 38.1818ZM153.68 38V29.2727H155.021V38H153.68ZM154.362 27.8182C154.101 27.8182 153.875 27.7292 153.686 27.5511C153.5 27.3731 153.408 27.1591 153.408 26.9091C153.408 26.6591 153.5 26.4451 153.686 26.267C153.875 26.089 154.101 26 154.362 26C154.624 26 154.847 26.089 155.033 26.267C155.222 26.4451 155.317 26.6591 155.317 26.9091C155.317 27.1591 155.222 27.3731 155.033 27.5511C154.847 27.7292 154.624 27.8182 154.362 27.8182ZM158.818 32.75V38H157.477V29.2727H158.773V30.6364H158.886C159.091 30.1932 159.402 29.8371 159.818 29.5682C160.235 29.2955 160.773 29.1591 161.432 29.1591C162.023 29.1591 162.54 29.2803 162.983 29.5227C163.426 29.7614 163.771 30.125 164.017 30.6136C164.263 31.0985 164.386 31.7121 164.386 32.4545V38H163.045V32.5455C163.045 31.8598 162.867 31.3258 162.511 30.9432C162.155 30.5568 161.667 30.3636 161.045 30.3636C160.617 30.3636 160.235 30.4564 159.898 30.642C159.564 30.8277 159.301 31.0985 159.108 31.4545C158.915 31.8106 158.818 32.2424 158.818 32.75ZM170.723 29.2727V30.4091H166.018V29.2727H170.723ZM167.428 38V28.0682C167.428 27.5682 167.545 27.1515 167.78 26.8182C168.015 26.4848 168.32 26.2348 168.695 26.0682C169.07 25.9015 169.465 25.8182 169.882 25.8182C170.212 25.8182 170.481 25.8447 170.689 25.8977C170.897 25.9508 171.053 26 171.155 26.0455L170.768 27.2045C170.7 27.1818 170.606 27.1534 170.484 27.1193C170.367 27.0852 170.212 27.0682 170.018 27.0682C169.575 27.0682 169.255 27.1799 169.058 27.4034C168.865 27.6269 168.768 27.9545 168.768 28.3864V38H167.428ZM175.788 38.1818C175 38.1818 174.309 37.9943 173.714 37.6193C173.124 37.2443 172.661 36.7197 172.328 36.0455C171.999 35.3712 171.834 34.5833 171.834 33.6818C171.834 32.7727 171.999 31.9792 172.328 31.3011C172.661 30.6231 173.124 30.0966 173.714 29.7216C174.309 29.3466 175 29.1591 175.788 29.1591C176.576 29.1591 177.266 29.3466 177.857 29.7216C178.451 30.0966 178.913 30.6231 179.243 31.3011C179.576 31.9792 179.743 32.7727 179.743 33.6818C179.743 34.5833 179.576 35.3712 179.243 36.0455C178.913 36.7197 178.451 37.2443 177.857 37.6193C177.266 37.9943 176.576 38.1818 175.788 38.1818ZM175.788 36.9773C176.387 36.9773 176.879 36.8239 177.266 36.517C177.652 36.2102 177.938 35.8068 178.124 35.3068C178.309 34.8068 178.402 34.2652 178.402 33.6818C178.402 33.0985 178.309 32.5549 178.124 32.0511C177.938 31.5473 177.652 31.1402 177.266 30.8295C176.879 30.5189 176.387 30.3636 175.788 30.3636C175.19 30.3636 174.697 30.5189 174.311 30.8295C173.925 31.1402 173.639 31.5473 173.453 32.0511C173.268 32.5549 173.175 33.0985 173.175 33.6818C173.175 34.2652 173.268 34.8068 173.453 35.3068C173.639 35.8068 173.925 36.2102 174.311 36.517C174.697 36.8239 175.19 36.9773 175.788 36.9773ZM188.858 38.2045C188.305 38.2045 187.803 38.1004 187.352 37.892C186.902 37.6799 186.544 37.375 186.278 36.9773C186.013 36.5758 185.881 36.0909 185.881 35.5227C185.881 35.0227 185.979 34.6174 186.176 34.3068C186.373 33.9924 186.636 33.7462 186.966 33.5682C187.295 33.3902 187.659 33.2576 188.057 33.1705C188.458 33.0795 188.862 33.0076 189.267 32.9545C189.797 32.8864 190.227 32.8352 190.557 32.8011C190.89 32.7633 191.133 32.7008 191.284 32.6136C191.439 32.5265 191.517 32.375 191.517 32.1591V32.1136C191.517 31.553 191.364 31.1174 191.057 30.8068C190.754 30.4962 190.294 30.3409 189.676 30.3409C189.036 30.3409 188.534 30.4811 188.17 30.7614C187.807 31.0417 187.551 31.3409 187.403 31.6591L186.131 31.2045C186.358 30.6742 186.661 30.2614 187.04 29.9659C187.422 29.6667 187.839 29.4583 188.29 29.3409C188.744 29.2197 189.191 29.1591 189.631 29.1591C189.911 29.1591 190.233 29.1932 190.597 29.2614C190.964 29.3258 191.318 29.4602 191.659 29.6648C192.004 29.8693 192.29 30.178 192.517 30.5909C192.744 31.0038 192.858 31.5568 192.858 32.25V38H191.517V36.8182H191.449C191.358 37.0076 191.206 37.2102 190.994 37.4261C190.782 37.642 190.5 37.8258 190.148 37.9773C189.795 38.1288 189.366 38.2045 188.858 38.2045ZM189.062 37C189.593 37 190.04 36.8958 190.403 36.6875C190.771 36.4792 191.047 36.2102 191.233 35.8807C191.422 35.5511 191.517 35.2045 191.517 34.8409V33.6136C191.46 33.6818 191.335 33.7443 191.142 33.8011C190.953 33.8542 190.733 33.9015 190.483 33.9432C190.237 33.9811 189.996 34.0152 189.761 34.0455C189.53 34.072 189.343 34.0947 189.199 34.1136C188.85 34.1591 188.525 34.233 188.222 34.3352C187.922 34.4337 187.68 34.5833 187.494 34.7841C187.313 34.9811 187.222 35.25 187.222 35.5909C187.222 36.0568 187.394 36.4091 187.739 36.6477C188.087 36.8826 188.528 37 189.062 37ZM196.646 26.3636V38H195.305V26.3636H196.646ZM202.761 38.1818C201.92 38.1818 201.195 37.9962 200.585 37.625C199.979 37.25 199.511 36.7273 199.182 36.0568C198.856 35.3826 198.693 34.5985 198.693 33.7045C198.693 32.8106 198.856 32.0227 199.182 31.3409C199.511 30.6553 199.97 30.1212 200.557 29.7386C201.148 29.3523 201.837 29.1591 202.625 29.1591C203.08 29.1591 203.528 29.2348 203.972 29.3864C204.415 29.5379 204.818 29.7841 205.182 30.125C205.545 30.4621 205.835 30.9091 206.051 31.4659C206.267 32.0227 206.375 32.7083 206.375 33.5227V34.0909H199.648V32.9318H205.011C205.011 32.4394 204.913 32 204.716 31.6136C204.523 31.2273 204.246 30.9223 203.886 30.6989C203.53 30.4754 203.11 30.3636 202.625 30.3636C202.091 30.3636 201.629 30.4962 201.239 30.7614C200.852 31.0227 200.555 31.3636 200.347 31.7841C200.138 32.2045 200.034 32.6553 200.034 33.1364V33.9091C200.034 34.5682 200.148 35.1269 200.375 35.5852C200.606 36.0398 200.926 36.3864 201.335 36.625C201.744 36.8598 202.22 36.9773 202.761 36.9773C203.114 36.9773 203.432 36.928 203.716 36.8295C204.004 36.7273 204.252 36.5758 204.46 36.375C204.669 36.1705 204.83 35.9167 204.943 35.6136L206.239 35.9773C206.102 36.4167 205.873 36.803 205.551 37.1364C205.229 37.4659 204.831 37.7235 204.358 37.9091C203.884 38.0909 203.352 38.1818 202.761 38.1818ZM208.415 38V29.2727H209.71V30.5909H209.801C209.96 30.1591 210.248 29.8087 210.665 29.5398C211.081 29.2708 211.551 29.1364 212.074 29.1364C212.172 29.1364 212.295 29.1383 212.443 29.142C212.591 29.1458 212.703 29.1515 212.778 29.1591V30.5227C212.733 30.5114 212.629 30.4943 212.466 30.4716C212.307 30.4451 212.138 30.4318 211.96 30.4318C211.536 30.4318 211.157 30.5208 210.824 30.6989C210.494 30.8731 210.233 31.1155 210.04 31.4261C209.85 31.733 209.756 32.0833 209.756 32.4773V38H208.415ZM218.71 29.2727V30.4091H214.188V29.2727H218.71ZM215.506 27.1818H216.847V35.5C216.847 35.8788 216.902 36.1629 217.011 36.3523C217.125 36.5379 217.269 36.6629 217.443 36.7273C217.621 36.7879 217.809 36.8182 218.006 36.8182C218.153 36.8182 218.275 36.8106 218.369 36.7955C218.464 36.7765 218.54 36.7614 218.597 36.75L218.869 37.9545C218.778 37.9886 218.652 38.0227 218.489 38.0568C218.326 38.0947 218.119 38.1136 217.869 38.1136C217.491 38.1136 217.119 38.0322 216.756 37.8693C216.396 37.7064 216.097 37.4583 215.858 37.125C215.623 36.7917 215.506 36.3712 215.506 35.8636V27.1818Z" fill="#1D2939"/>
<path fill-rule="evenodd" clip-rule="evenodd" d="M417.5 26C417.633 25.8674 417.812 25.7929 418 25.7929C418.188 25.7929 418.367 25.8674 418.5 26L423.5 31L428.5 26C428.633 25.8674 428.812 25.7929 429 25.7929C429.188 25.7929 429.367 25.8674 429.5 26C429.633 26.1326 429.707 26.3125 429.707 26.5C429.707 26.6875 429.633 26.8674 429.5 27L424.5 32L429.5 37C429.633 37.1326 429.707 37.3125 429.707 37.5C429.707 37.6875 429.633 37.8674 429.5 38C429.367 38.1326 429.188 38.2071 429 38.2071C428.812 38.2071 428.633 38.1326 428.5 38L423.5 33L418.5 38C418.367 38.1326 418.188 38.2071 418 38.2071C417.812 38.2071 417.633 38.1326 417.5 38C417.367 37.8674 417.293 37.6875 417.293 37.5C417.293 37.3125 417.367 37.1326 417.5 37L422.5 32L417.5 27C417.367 26.8674 417.293 26.6875 417.293 26.5C417.293 26.3125 417.367 26.1326 417.5 26Z" fill="#1D2939"/>
<rect x="6.5" width="453" height="16" fill="#E8178A" fill-opacity="0.24"/>
<rect x="6.5" y="48" width="453" height="16" fill="#E8178A" fill-opacity="0.24"/>
<rect x="6.5" width="24" height="64" fill="#E8178A" fill-opacity="0.24"/>
<rect x="435.5" width="24" height="64" fill="#E8178A" fill-opacity="0.24"/>
<path d="M467 0V64" stroke="#E8178A"/>
<rect x="471.5" y="24.5" width="38" height="18" rx="3" fill="#E8178A"/>
<path d="M480.881 37.5994C480.507 37.5971 480.146 37.5343 479.798 37.4112C479.452 37.2881 479.142 37.0881 478.867 36.8111C478.593 36.5341 478.375 36.1671 478.214 35.7102C478.055 35.2533 477.976 34.6922 477.976 34.027C477.978 33.4162 478.048 32.8705 478.185 32.3899C478.325 31.907 478.524 31.4974 478.782 31.1612C479.042 30.825 479.354 30.5694 479.716 30.3942C480.078 30.2166 480.484 30.1278 480.934 30.1278C481.419 30.1278 481.848 30.2225 482.219 30.4119C482.591 30.599 482.889 30.8535 483.114 31.1754C483.342 31.4974 483.479 31.8584 483.526 32.2585H482.01C481.951 32.0052 481.826 31.8063 481.637 31.6619C481.448 31.5175 481.213 31.4453 480.934 31.4453C480.46 31.4453 480.101 31.6513 479.854 32.0632C479.611 32.4751 479.486 33.035 479.482 33.7429H479.531C479.64 33.5275 479.787 33.344 479.972 33.1925C480.159 33.0386 480.371 32.9214 480.607 32.8409C480.846 32.758 481.098 32.7166 481.364 32.7166C481.795 32.7166 482.178 32.8184 482.514 33.022C482.85 33.2232 483.116 33.5002 483.31 33.853C483.504 34.2057 483.601 34.6094 483.601 35.0639C483.601 35.5563 483.486 35.9943 483.256 36.3778C483.029 36.7614 482.711 37.062 482.301 37.2798C481.894 37.4953 481.42 37.6018 480.881 37.5994ZM480.874 36.392C481.11 36.392 481.322 36.3352 481.509 36.2216C481.696 36.108 481.843 35.9541 481.95 35.7599C482.056 35.5658 482.109 35.348 482.109 35.1065C482.109 34.8651 482.056 34.6484 481.95 34.4567C481.845 34.2649 481.701 34.1122 481.516 33.9986C481.332 33.8849 481.121 33.8281 480.884 33.8281C480.707 33.8281 480.542 33.8613 480.391 33.9276C480.241 33.9938 480.11 34.0862 479.996 34.2045C479.885 34.3229 479.798 34.4602 479.734 34.6165C479.67 34.7704 479.638 34.9349 479.638 35.1101C479.638 35.3445 479.691 35.5587 479.798 35.7528C479.906 35.947 480.053 36.102 480.238 36.218C480.425 36.334 480.637 36.392 480.874 36.392ZM484.581 36.2216V35.0107L487.617 30.2273H488.661V31.9034H488.043L486.129 34.9325V34.9893H490.444V36.2216H484.581ZM488.072 37.5V35.8523L488.1 35.3161V30.2273H489.542V37.5H488.072ZM491.483 39.5455V32.0455H492.974V32.9616H493.042C493.108 32.8149 493.204 32.6657 493.329 32.5142C493.457 32.3603 493.623 32.2325 493.826 32.1307C494.032 32.0265 494.288 31.9744 494.593 31.9744C494.991 31.9744 495.358 32.0786 495.694 32.2869C496.03 32.4929 496.299 32.8042 496.5 33.2209C496.702 33.6352 496.802 34.1548 496.802 34.7798C496.802 35.3883 496.704 35.902 496.507 36.321C496.313 36.7377 496.048 37.0537 495.712 37.2692C495.378 37.4822 495.004 37.5888 494.59 37.5888C494.296 37.5888 494.047 37.5402 493.841 37.4432C493.637 37.3461 493.47 37.2242 493.34 37.0774C493.21 36.9283 493.11 36.7779 493.042 36.6264H492.995V39.5455H491.483ZM492.963 34.7727C492.963 35.0971 493.008 35.38 493.098 35.6214C493.188 35.8629 493.319 36.0511 493.489 36.1861C493.659 36.3187 493.867 36.3849 494.11 36.3849C494.357 36.3849 494.565 36.3175 494.735 36.1825C494.906 36.0452 495.035 35.8558 495.123 35.6143C495.212 35.3705 495.257 35.09 495.257 34.7727C495.257 34.4579 495.214 34.1809 495.126 33.9418C495.038 33.7027 494.909 33.5156 494.739 33.3807C494.569 33.2457 494.359 33.1783 494.11 33.1783C493.864 33.1783 493.656 33.2434 493.485 33.3736C493.317 33.5038 493.188 33.6884 493.098 33.9276C493.008 34.1667 492.963 34.4484 492.963 34.7727ZM498.88 32.0455L499.881 33.9524L500.907 32.0455H502.459L500.879 34.7727L502.502 37.5H500.957L499.881 35.6143L498.823 37.5H497.26L498.88 34.7727L497.317 32.0455H498.88Z" fill="white"/>
<line x1="463.5" y1="0.5" x2="470.5" y2="0.5" stroke="#E8178A"/>
<line x1="463.5" y1="63.5" x2="470.5" y2="63.5" stroke="#E8178A"/>
<path d="M435.5 71.5H459.5" stroke="#E8178A"/>
<rect x="429" y="76" width="37" height="18" rx="3" fill="#E8178A"/>
<path d="M435.589 89V87.892L438.178 85.495C438.398 85.282 438.583 85.0902 438.732 84.9197C438.884 84.7493 438.999 84.5824 439.077 84.419C439.155 84.2533 439.194 84.0746 439.194 83.8828C439.194 83.6697 439.145 83.4863 439.048 83.3324C438.951 83.1761 438.819 83.0566 438.651 82.9737C438.482 82.8885 438.292 82.8459 438.079 82.8459C437.856 82.8459 437.662 82.8909 437.496 82.9808C437.331 83.0708 437.203 83.1998 437.113 83.3679C437.023 83.536 436.978 83.736 436.978 83.968H435.518C435.518 83.4922 435.626 83.0791 435.842 82.7287C436.057 82.3783 436.359 82.1072 436.747 81.9155C437.135 81.7237 437.583 81.6278 438.089 81.6278C438.61 81.6278 439.064 81.7202 439.45 81.9048C439.838 82.0871 440.14 82.3404 440.355 82.6648C440.571 82.9891 440.678 83.3608 440.678 83.7798C440.678 84.0545 440.624 84.3255 440.515 84.593C440.408 84.8606 440.218 85.1577 439.943 85.4844C439.669 85.8087 439.281 86.1982 438.782 86.6527L437.72 87.6932V87.7429H440.774V89H435.589ZM441.622 87.7216V86.5107L444.658 81.7273H445.702V83.4034H445.084L443.17 86.4325V86.4893H447.485V87.7216H441.622ZM445.113 89V87.3523L445.141 86.8161V81.7273H446.583V89H445.113ZM448.524 91.0455V83.5455H450.015V84.4616H450.083C450.149 84.3149 450.245 84.1657 450.37 84.0142C450.498 83.8603 450.664 83.7325 450.867 83.6307C451.073 83.5265 451.329 83.4744 451.634 83.4744C452.032 83.4744 452.399 83.5786 452.735 83.7869C453.071 83.9929 453.34 84.3042 453.541 84.7209C453.743 85.1352 453.843 85.6548 453.843 86.2798C453.843 86.8883 453.745 87.402 453.548 87.821C453.354 88.2377 453.089 88.5537 452.753 88.7692C452.419 88.9822 452.045 89.0888 451.631 89.0888C451.337 89.0888 451.088 89.0402 450.882 88.9432C450.678 88.8461 450.511 88.7242 450.381 88.5774C450.251 88.4283 450.151 88.2779 450.083 88.1264H450.036V91.0455H448.524ZM450.004 86.2727C450.004 86.5971 450.049 86.88 450.139 87.1214C450.229 87.3629 450.36 87.5511 450.53 87.6861C450.7 87.8187 450.908 87.8849 451.151 87.8849C451.398 87.8849 451.606 87.8175 451.776 87.6825C451.947 87.5452 452.076 87.3558 452.164 87.1143C452.253 86.8705 452.298 86.59 452.298 86.2727C452.298 85.9579 452.255 85.6809 452.167 85.4418C452.079 85.2027 451.95 85.0156 451.78 84.8807C451.61 84.7457 451.4 84.6783 451.151 84.6783C450.905 84.6783 450.697 84.7434 450.526 84.8736C450.358 85.0038 450.229 85.1884 450.139 85.4276C450.049 85.6667 450.004 85.9484 450.004 86.2727ZM455.921 83.5455L456.922 85.4524L457.948 83.5455H459.5L457.92 86.2727L459.543 89H457.998L456.922 87.1143L455.864 89H454.301L455.921 86.2727L454.358 83.5455H455.921Z" fill="white"/>
<line x1="436" y1="75" x2="436" y2="68" stroke="#E8178A"/>
<line x1="459" y1="75" x2="459" y2="68" stroke="#E8178A"/>
<path d="M6.5 71.5H30.5" stroke="#E8178A"/>
<rect y="76" width="37" height="18" rx="3" fill="#E8178A"/>
<path d="M6.58949 89V87.892L9.17827 85.495C9.39844 85.282 9.5831 85.0902 9.73224 84.9197C9.88376 84.7493 9.99858 84.5824 10.0767 84.419C10.1548 84.2533 10.1939 84.0746 10.1939 83.8828C10.1939 83.6697 10.1454 83.4863 10.0483 83.3324C9.95123 83.1761 9.81866 83.0566 9.65057 82.9737C9.48248 82.8885 9.2919 82.8459 9.07884 82.8459C8.8563 82.8459 8.66217 82.8909 8.49645 82.9808C8.33073 83.0708 8.20289 83.1998 8.11293 83.3679C8.02296 83.536 7.97798 83.736 7.97798 83.968H6.51847C6.51847 83.4922 6.62618 83.0791 6.84162 82.7287C7.05705 82.3783 7.3589 82.1072 7.74716 81.9155C8.13542 81.7237 8.58286 81.6278 9.08949 81.6278C9.61032 81.6278 10.0637 81.7202 10.4496 81.9048C10.8378 82.0871 11.1397 82.3404 11.3551 82.6648C11.5705 82.9891 11.6783 83.3608 11.6783 83.7798C11.6783 84.0545 11.6238 84.3255 11.5149 84.593C11.4084 84.8606 11.2178 85.1577 10.9432 85.4844C10.6686 85.8087 10.2815 86.1982 9.78196 86.6527L8.72017 87.6932V87.7429H11.7741V89H6.58949ZM12.622 87.7216V86.5107L15.6582 81.7273H16.7022V83.4034H16.0843L14.1703 86.4325V86.4893H18.4849V87.7216H12.622ZM16.1127 89V87.3523L16.1412 86.8161V81.7273H17.5829V89H16.1127ZM19.5236 91.0455V83.5455H21.0151V84.4616H21.0826C21.1489 84.3149 21.2447 84.1657 21.3702 84.0142C21.498 83.8603 21.6638 83.7325 21.8674 83.6307C22.0733 83.5265 22.329 83.4744 22.6344 83.4744C23.0321 83.4744 23.3991 83.5786 23.7353 83.7869C24.0714 83.9929 24.3401 84.3042 24.5414 84.7209C24.7426 85.1352 24.8432 85.6548 24.8432 86.2798C24.8432 86.8883 24.745 87.402 24.5485 87.821C24.3543 88.2377 24.0892 88.5537 23.753 88.7692C23.4192 88.9822 23.0452 89.0888 22.6309 89.0888C22.3373 89.0888 22.0875 89.0402 21.8816 88.9432C21.678 88.8461 21.5111 88.7242 21.3809 88.5774C21.2507 88.4283 21.1512 88.2779 21.0826 88.1264H21.0364V91.0455H19.5236ZM21.0044 86.2727C21.0044 86.5971 21.0494 86.88 21.1394 87.1214C21.2293 87.3629 21.3596 87.5511 21.53 87.6861C21.7005 87.8187 21.9076 87.8849 22.1515 87.8849C22.3977 87.8849 22.606 87.8175 22.7765 87.6825C22.9469 87.5452 23.0759 87.3558 23.1635 87.1143C23.2535 86.8705 23.2985 86.59 23.2985 86.2727C23.2985 85.9579 23.2547 85.6809 23.1671 85.4418C23.0795 85.2027 22.9505 85.0156 22.78 84.8807C22.6096 84.7457 22.4 84.6783 22.1515 84.6783C21.9052 84.6783 21.6969 84.7434 21.5265 84.8736C21.3584 85.0038 21.2293 85.1884 21.1394 85.4276C21.0494 85.6667 21.0044 85.9484 21.0044 86.2727ZM26.9206 83.5455L27.9221 85.4524L28.9483 83.5455H30.5002L28.9199 86.2727L30.5428 89H28.998L27.9221 87.1143L26.8638 89H25.3013L26.9206 86.2727L25.3581 83.5455H26.9206Z" fill="white"/>
<line x1="7" y1="75" x2="7" y2="68" stroke="#E8178A"/>
<line x1="30" y1="75" x2="30" y2="68" stroke="#E8178A"/>
<path d="M54.5 71.5H70.5" stroke="#E8178A"/>
<rect x="48" y="76" width="36" height="18" rx="3" fill="#E8178A"/>
<path d="M57.7536 81.7273V89H56.2159V83.1868H56.1733L54.5078 84.2308V82.8672L56.3082 81.7273H57.7536ZM62.2733 89.0994C61.8992 89.0971 61.5382 89.0343 61.1902 88.9112C60.8445 88.7881 60.5344 88.5881 60.2598 88.3111C59.9851 88.0341 59.7673 87.6671 59.6064 87.2102C59.4477 86.7533 59.3684 86.1922 59.3684 85.527C59.3708 84.9162 59.4406 84.3705 59.5779 83.8899C59.7176 83.407 59.9165 82.9974 60.1745 82.6612C60.435 82.325 60.7463 82.0694 61.1085 81.8942C61.4707 81.7166 61.8767 81.6278 62.3265 81.6278C62.8118 81.6278 63.2404 81.7225 63.612 81.9119C63.9837 82.099 64.282 82.3535 64.5069 82.6754C64.7342 82.9974 64.8715 83.3584 64.9189 83.7585H63.4025C63.3433 83.5052 63.219 83.3063 63.0297 83.1619C62.8403 83.0175 62.6059 82.9453 62.3265 82.9453C61.853 82.9453 61.4932 83.1513 61.247 83.5632C61.0031 83.9751 60.8788 84.535 60.8741 85.2429H60.9238C61.0327 85.0275 61.1795 84.844 61.3642 84.6925C61.5512 84.5386 61.7631 84.4214 61.9998 84.3409C62.2389 84.258 62.4911 84.2166 62.7562 84.2166C63.1871 84.2166 63.5706 84.3184 63.9068 84.522C64.243 84.7232 64.5081 85.0002 64.7022 85.353C64.8964 85.7057 64.9934 86.1094 64.9934 86.5639C64.9934 87.0563 64.8786 87.4943 64.649 87.8778C64.4217 88.2614 64.1033 88.562 63.6937 88.7798C63.2865 88.9953 62.813 89.1018 62.2733 89.0994ZM62.2662 87.892C62.5029 87.892 62.7148 87.8352 62.9018 87.7216C63.0888 87.608 63.2356 87.4541 63.3422 87.2599C63.4487 87.0658 63.502 86.848 63.502 86.6065C63.502 86.3651 63.4487 86.1484 63.3422 85.9567C63.238 85.7649 63.0936 85.6122 62.9089 85.4986C62.7243 85.3849 62.5136 85.3281 62.2768 85.3281C62.0993 85.3281 61.9347 85.3613 61.7832 85.4276C61.6341 85.4938 61.5027 85.5862 61.389 85.7045C61.2778 85.8229 61.1902 85.9602 61.1262 86.1165C61.0623 86.2704 61.0304 86.4349 61.0304 86.6101C61.0304 86.8445 61.0836 87.0587 61.1902 87.2528C61.2991 87.447 61.4458 87.602 61.6305 87.718C61.8175 87.834 62.0294 87.892 62.2662 87.892ZM66.0978 91.0455V83.5455H67.5893V84.4616H67.6568C67.7231 84.3149 67.819 84.1657 67.9444 84.0142C68.0723 83.8603 68.238 83.7325 68.4416 83.6307C68.6475 83.5265 68.9032 83.4744 69.2086 83.4744C69.6064 83.4744 69.9733 83.5786 70.3095 83.7869C70.6457 83.9929 70.9144 84.3042 71.1156 84.7209C71.3168 85.1352 71.4174 85.6548 71.4174 86.2798C71.4174 86.8883 71.3192 87.402 71.1227 87.821C70.9286 88.2377 70.6634 88.5537 70.3272 88.7692C69.9934 88.9822 69.6194 89.0888 69.2051 89.0888C68.9115 89.0888 68.6618 89.0402 68.4558 88.9432C68.2522 88.8461 68.0853 88.7242 67.9551 88.5774C67.8249 88.4283 67.7254 88.2779 67.6568 88.1264H67.6106V91.0455H66.0978ZM67.5787 86.2727C67.5787 86.5971 67.6236 86.88 67.7136 87.1214C67.8036 87.3629 67.9338 87.5511 68.1042 87.6861C68.2747 87.8187 68.4818 87.8849 68.7257 87.8849C68.9719 87.8849 69.1802 87.8175 69.3507 87.6825C69.5211 87.5452 69.6502 87.3558 69.7377 87.1143C69.8277 86.8705 69.8727 86.59 69.8727 86.2727C69.8727 85.9579 69.8289 85.6809 69.7413 85.4418C69.6537 85.2027 69.5247 85.0156 69.3542 84.8807C69.1838 84.7457 68.9743 84.6783 68.7257 84.6783C68.4795 84.6783 68.2711 84.7434 68.1007 84.8736C67.9326 85.0038 67.8036 85.1884 67.7136 85.4276C67.6236 85.6667 67.5787 85.9484 67.5787 86.2727ZM73.4949 83.5455L74.4963 85.4524L75.5225 83.5455H77.0744L75.4941 86.2727L77.117 89H75.5723L74.4963 87.1143L73.438 89H71.8755L73.4949 86.2727L71.9324 83.5455H73.4949Z" fill="white"/>
<line x1="55" y1="75" x2="55" y2="68" stroke="#E8178A"/>
<line x1="70" y1="75" x2="70" y2="68" stroke="#E8178A"/>
<rect x="54.5" width="16" height="64" fill="#E8178A" fill-opacity="0.24"/>
</svg>
