<svg width="166" height="83" viewBox="0 0 166 83" fill="none" xmlns="http://www.w3.org/2000/svg">
<circle cx="154" cy="67" r="12" fill="#344054"/>
<path d="M149.943 73V71.2273L154.085 67.392C154.438 67.0511 154.733 66.7443 154.972 66.4716C155.214 66.1989 155.398 65.9318 155.523 65.6705C155.648 65.4053 155.71 65.1193 155.71 64.8125C155.71 64.4716 155.633 64.178 155.477 63.9318C155.322 63.6818 155.11 63.4905 154.841 63.358C154.572 63.2216 154.267 63.1534 153.926 63.1534C153.57 63.1534 153.259 63.2254 152.994 63.3693C152.729 63.5133 152.525 63.7197 152.381 63.9886C152.237 64.2576 152.165 64.5777 152.165 64.9489H149.83C149.83 64.1875 150.002 63.5265 150.347 62.9659C150.691 62.4053 151.174 61.9716 151.795 61.6648C152.417 61.358 153.133 61.2045 153.943 61.2045C154.777 61.2045 155.502 61.3523 156.119 61.6477C156.741 61.9394 157.223 62.3447 157.568 62.8636C157.913 63.3826 158.085 63.9773 158.085 64.6477C158.085 65.0871 157.998 65.5208 157.824 65.9489C157.653 66.3769 157.348 66.8523 156.909 67.375C156.47 67.8939 155.85 68.517 155.051 69.2443L153.352 70.9091V70.9886H158.239V73H149.943Z" fill="white"/>
<path d="M145 67L93 67.5" stroke="#344054" stroke-dasharray="2 2"/>
<circle cx="59" cy="16" r="12" fill="#344054"/>
<path d="M61.0057 10.3636V22H58.5455V12.6989H58.4773L55.8125 14.3693V12.1875L58.6932 10.3636H61.0057Z" fill="white"/>
<path d="M56 16H12V58" stroke="#344054" stroke-dasharray="2 2"/>
<circle cx="9" cy="67" r="8.5" fill="white" stroke="#667085"/>
<circle cx="9" cy="66.9999" r="3" fill="white"/>
<path d="M37.2273 67.1818C37.2273 68.4091 37.0057 69.4697 36.5625 70.3636C36.1193 71.2576 35.5114 71.947 34.7386 72.4318C33.9659 72.9167 33.0833 73.1591 32.0909 73.1591C31.0985 73.1591 30.2159 72.9167 29.4432 72.4318C28.6705 71.947 28.0625 71.2576 27.6193 70.3636C27.1761 69.4697 26.9545 68.4091 26.9545 67.1818C26.9545 65.9545 27.1761 64.8939 27.6193 64C28.0625 63.1061 28.6705 62.4167 29.4432 61.9318C30.2159 61.447 31.0985 61.2045 32.0909 61.2045C33.0833 61.2045 33.9659 61.447 34.7386 61.9318C35.5114 62.4167 36.1193 63.1061 36.5625 64C37.0057 64.8939 37.2273 65.9545 37.2273 67.1818ZM35.8636 67.1818C35.8636 66.1742 35.6951 65.3239 35.358 64.6307C35.0246 63.9375 34.572 63.4129 34 63.0568C33.4318 62.7008 32.7955 62.5227 32.0909 62.5227C31.3864 62.5227 30.7481 62.7008 30.1761 63.0568C29.608 63.4129 29.1553 63.9375 28.8182 64.6307C28.4848 65.3239 28.3182 66.1742 28.3182 67.1818C28.3182 68.1894 28.4848 69.0398 28.8182 69.733C29.1553 70.4261 29.608 70.9508 30.1761 71.3068C30.7481 71.6629 31.3864 71.8409 32.0909 71.8409C32.7955 71.8409 33.4318 71.6629 34 71.3068C34.572 70.9508 35.0246 70.4261 35.358 69.733C35.6951 69.0398 35.8636 68.1894 35.8636 67.1818ZM39.4148 76.2727V64.2727H40.7102V65.6591H40.8693C40.9678 65.5076 41.1042 65.3144 41.2784 65.0795C41.4564 64.8409 41.7102 64.6288 42.0398 64.4432C42.3731 64.2538 42.8239 64.1591 43.392 64.1591C44.1269 64.1591 44.7746 64.3428 45.3352 64.7102C45.8958 65.0777 46.3333 65.5985 46.6477 66.2727C46.9621 66.947 47.1193 67.7424 47.1193 68.6591C47.1193 69.5833 46.9621 70.3845 46.6477 71.0625C46.3333 71.7367 45.8977 72.2595 45.3409 72.6307C44.7841 72.9981 44.142 73.1818 43.4148 73.1818C42.8542 73.1818 42.4053 73.089 42.0682 72.9034C41.7311 72.714 41.4716 72.5 41.2898 72.2614C41.108 72.0189 40.9678 71.8182 40.8693 71.6591H40.7557V76.2727H39.4148ZM40.733 68.6364C40.733 69.2955 40.8295 69.8769 41.0227 70.3807C41.2159 70.8807 41.4981 71.2727 41.8693 71.5568C42.2405 71.8371 42.6951 71.9773 43.233 71.9773C43.7936 71.9773 44.2614 71.8295 44.6364 71.5341C45.0152 71.2348 45.2992 70.8333 45.4886 70.3295C45.6818 69.822 45.7784 69.2576 45.7784 68.6364C45.7784 68.0227 45.6837 67.4697 45.4943 66.9773C45.3087 66.4811 45.0265 66.089 44.6477 65.8011C44.2727 65.5095 43.8011 65.3636 43.233 65.3636C42.6875 65.3636 42.2292 65.5019 41.858 65.7784C41.4867 66.0511 41.2064 66.4337 41.017 66.9261C40.8277 67.4148 40.733 67.9848 40.733 68.6364ZM52.9602 64.2727V65.4091H48.4375V64.2727H52.9602ZM49.7557 62.1818H51.0966V70.5C51.0966 70.8788 51.1515 71.1629 51.2614 71.3523C51.375 71.5379 51.5189 71.6629 51.6932 71.7273C51.8712 71.7879 52.0587 71.8182 52.2557 71.8182C52.4034 71.8182 52.5246 71.8106 52.6193 71.7955C52.714 71.7765 52.7898 71.7614 52.8466 71.75L53.1193 72.9545C53.0284 72.9886 52.9015 73.0227 52.7386 73.0568C52.5758 73.0947 52.3693 73.1136 52.1193 73.1136C51.7405 73.1136 51.3693 73.0322 51.0057 72.8693C50.6458 72.7064 50.3466 72.4583 50.108 72.125C49.8731 71.7917 49.7557 71.3712 49.7557 70.8636V62.1818ZM54.9773 73V64.2727H56.3182V73H54.9773ZM55.6591 62.8182C55.3977 62.8182 55.1723 62.7292 54.983 62.5511C54.7973 62.3731 54.7045 62.1591 54.7045 61.9091C54.7045 61.6591 54.7973 61.4451 54.983 61.267C55.1723 61.089 55.3977 61 55.6591 61C55.9205 61 56.1439 61.089 56.3295 61.267C56.5189 61.4451 56.6136 61.6591 56.6136 61.9091C56.6136 62.1591 56.5189 62.3731 56.3295 62.5511C56.1439 62.7292 55.9205 62.8182 55.6591 62.8182ZM62.3196 73.1818C61.5317 73.1818 60.8404 72.9943 60.2457 72.6193C59.6548 72.2443 59.1927 71.7197 58.8594 71.0455C58.5298 70.3712 58.3651 69.5833 58.3651 68.6818C58.3651 67.7727 58.5298 66.9792 58.8594 66.3011C59.1927 65.6231 59.6548 65.0966 60.2457 64.7216C60.8404 64.3466 61.5317 64.1591 62.3196 64.1591C63.1075 64.1591 63.7969 64.3466 64.3878 64.7216C64.9825 65.0966 65.4446 65.6231 65.7741 66.3011C66.1075 66.9792 66.2741 67.7727 66.2741 68.6818C66.2741 69.5833 66.1075 70.3712 65.7741 71.0455C65.4446 71.7197 64.9825 72.2443 64.3878 72.6193C63.7969 72.9943 63.1075 73.1818 62.3196 73.1818ZM62.3196 71.9773C62.9181 71.9773 63.4105 71.8239 63.7969 71.517C64.1832 71.2102 64.4692 70.8068 64.6548 70.3068C64.8404 69.8068 64.9332 69.2652 64.9332 68.6818C64.9332 68.0985 64.8404 67.5549 64.6548 67.0511C64.4692 66.5473 64.1832 66.1402 63.7969 65.8295C63.4105 65.5189 62.9181 65.3636 62.3196 65.3636C61.7211 65.3636 61.2287 65.5189 60.8423 65.8295C60.456 66.1402 60.17 66.5473 59.9844 67.0511C59.7988 67.5549 59.706 68.0985 59.706 68.6818C59.706 69.2652 59.7988 69.8068 59.9844 70.3068C60.17 70.8068 60.456 71.2102 60.8423 71.517C61.2287 71.8239 61.7211 71.9773 62.3196 71.9773ZM69.6619 67.75V73H68.321V64.2727H69.6165V65.6364H69.7301C69.9347 65.1932 70.2453 64.8371 70.6619 64.5682C71.0786 64.2955 71.6165 64.1591 72.2756 64.1591C72.8665 64.1591 73.3835 64.2803 73.8267 64.5227C74.2699 64.7614 74.6146 65.125 74.8608 65.6136C75.107 66.0985 75.2301 66.7121 75.2301 67.4545V73H73.8892V67.5455C73.8892 66.8598 73.7112 66.3258 73.3551 65.9432C72.9991 65.5568 72.5104 65.3636 71.8892 65.3636C71.4612 65.3636 71.0786 65.4564 70.7415 65.642C70.4081 65.8277 70.1449 66.0985 69.9517 66.4545C69.7585 66.8106 69.6619 67.2424 69.6619 67.75ZM86.2486 61.3636V73H84.8395V62.8409H84.7713L81.9304 64.7273V63.2955L84.8395 61.3636H86.2486Z" fill="#1D2939"/>
</svg>
