<svg width="89" height="59" viewBox="0 0 89 59" fill="none" xmlns="http://www.w3.org/2000/svg">
<rect x="18" y="4" width="8" height="24" fill="#E8178A" fill-opacity="0.24"/>
<circle cx="9" cy="16" r="8.5" fill="white" stroke="#667085"/>
<circle cx="9" cy="15.9999" r="3" fill="white"/>
<path d="M37.2273 16.1818C37.2273 17.4091 37.0057 18.4697 36.5625 19.3636C36.1193 20.2576 35.5114 20.947 34.7386 21.4318C33.9659 21.9167 33.0833 22.1591 32.0909 22.1591C31.0985 22.1591 30.2159 21.9167 29.4432 21.4318C28.6705 20.947 28.0625 20.2576 27.6193 19.3636C27.1761 18.4697 26.9545 17.4091 26.9545 16.1818C26.9545 14.9545 27.1761 13.8939 27.6193 13C28.0625 12.1061 28.6705 11.4167 29.4432 10.9318C30.2159 10.447 31.0985 10.2045 32.0909 10.2045C33.0833 10.2045 33.9659 10.447 34.7386 10.9318C35.5114 11.4167 36.1193 12.1061 36.5625 13C37.0057 13.8939 37.2273 14.9545 37.2273 16.1818ZM35.8636 16.1818C35.8636 15.1742 35.6951 14.3239 35.358 13.6307C35.0246 12.9375 34.572 12.4129 34 12.0568C33.4318 11.7008 32.7955 11.5227 32.0909 11.5227C31.3864 11.5227 30.7481 11.7008 30.1761 12.0568C29.608 12.4129 29.1553 12.9375 28.8182 13.6307C28.4848 14.3239 28.3182 15.1742 28.3182 16.1818C28.3182 17.1894 28.4848 18.0398 28.8182 18.733C29.1553 19.4261 29.608 19.9508 30.1761 20.3068C30.7481 20.6629 31.3864 20.8409 32.0909 20.8409C32.7955 20.8409 33.4318 20.6629 34 20.3068C34.572 19.9508 35.0246 19.4261 35.358 18.733C35.6951 18.0398 35.8636 17.1894 35.8636 16.1818ZM39.4148 25.2727V13.2727H40.7102V14.6591H40.8693C40.9678 14.5076 41.1042 14.3144 41.2784 14.0795C41.4564 13.8409 41.7102 13.6288 42.0398 13.4432C42.3731 13.2538 42.8239 13.1591 43.392 13.1591C44.1269 13.1591 44.7746 13.3428 45.3352 13.7102C45.8958 14.0777 46.3333 14.5985 46.6477 15.2727C46.9621 15.947 47.1193 16.7424 47.1193 17.6591C47.1193 18.5833 46.9621 19.3845 46.6477 20.0625C46.3333 20.7367 45.8977 21.2595 45.3409 21.6307C44.7841 21.9981 44.142 22.1818 43.4148 22.1818C42.8542 22.1818 42.4053 22.089 42.0682 21.9034C41.7311 21.714 41.4716 21.5 41.2898 21.2614C41.108 21.0189 40.9678 20.8182 40.8693 20.6591H40.7557V25.2727H39.4148ZM40.733 17.6364C40.733 18.2955 40.8295 18.8769 41.0227 19.3807C41.2159 19.8807 41.4981 20.2727 41.8693 20.5568C42.2405 20.8371 42.6951 20.9773 43.233 20.9773C43.7936 20.9773 44.2614 20.8295 44.6364 20.5341C45.0152 20.2348 45.2992 19.8333 45.4886 19.3295C45.6818 18.822 45.7784 18.2576 45.7784 17.6364C45.7784 17.0227 45.6837 16.4697 45.4943 15.9773C45.3087 15.4811 45.0265 15.089 44.6477 14.8011C44.2727 14.5095 43.8011 14.3636 43.233 14.3636C42.6875 14.3636 42.2292 14.5019 41.858 14.7784C41.4867 15.0511 41.2064 15.4337 41.017 15.9261C40.8277 16.4148 40.733 16.9848 40.733 17.6364ZM52.9602 13.2727V14.4091H48.4375V13.2727H52.9602ZM49.7557 11.1818H51.0966V19.5C51.0966 19.8788 51.1515 20.1629 51.2614 20.3523C51.375 20.5379 51.5189 20.6629 51.6932 20.7273C51.8712 20.7879 52.0587 20.8182 52.2557 20.8182C52.4034 20.8182 52.5246 20.8106 52.6193 20.7955C52.714 20.7765 52.7898 20.7614 52.8466 20.75L53.1193 21.9545C53.0284 21.9886 52.9015 22.0227 52.7386 22.0568C52.5758 22.0947 52.3693 22.1136 52.1193 22.1136C51.7405 22.1136 51.3693 22.0322 51.0057 21.8693C50.6458 21.7064 50.3466 21.4583 50.108 21.125C49.8731 20.7917 49.7557 20.3712 49.7557 19.8636V11.1818ZM54.9773 22V13.2727H56.3182V22H54.9773ZM55.6591 11.8182C55.3977 11.8182 55.1723 11.7292 54.983 11.5511C54.7973 11.3731 54.7045 11.1591 54.7045 10.9091C54.7045 10.6591 54.7973 10.4451 54.983 10.267C55.1723 10.089 55.3977 10 55.6591 10C55.9205 10 56.1439 10.089 56.3295 10.267C56.5189 10.4451 56.6136 10.6591 56.6136 10.9091C56.6136 11.1591 56.5189 11.3731 56.3295 11.5511C56.1439 11.7292 55.9205 11.8182 55.6591 11.8182ZM62.3196 22.1818C61.5317 22.1818 60.8404 21.9943 60.2457 21.6193C59.6548 21.2443 59.1927 20.7197 58.8594 20.0455C58.5298 19.3712 58.3651 18.5833 58.3651 17.6818C58.3651 16.7727 58.5298 15.9792 58.8594 15.3011C59.1927 14.6231 59.6548 14.0966 60.2457 13.7216C60.8404 13.3466 61.5317 13.1591 62.3196 13.1591C63.1075 13.1591 63.7969 13.3466 64.3878 13.7216C64.9825 14.0966 65.4446 14.6231 65.7741 15.3011C66.1075 15.9792 66.2741 16.7727 66.2741 17.6818C66.2741 18.5833 66.1075 19.3712 65.7741 20.0455C65.4446 20.7197 64.9825 21.2443 64.3878 21.6193C63.7969 21.9943 63.1075 22.1818 62.3196 22.1818ZM62.3196 20.9773C62.9181 20.9773 63.4105 20.8239 63.7969 20.517C64.1832 20.2102 64.4692 19.8068 64.6548 19.3068C64.8404 18.8068 64.9332 18.2652 64.9332 17.6818C64.9332 17.0985 64.8404 16.5549 64.6548 16.0511C64.4692 15.5473 64.1832 15.1402 63.7969 14.8295C63.4105 14.5189 62.9181 14.3636 62.3196 14.3636C61.7211 14.3636 61.2287 14.5189 60.8423 14.8295C60.456 15.1402 60.17 15.5473 59.9844 16.0511C59.7988 16.5549 59.706 17.0985 59.706 17.6818C59.706 18.2652 59.7988 18.8068 59.9844 19.3068C60.17 19.8068 60.456 20.2102 60.8423 20.517C61.2287 20.8239 61.7211 20.9773 62.3196 20.9773ZM69.6619 16.75V22H68.321V13.2727H69.6165V14.6364H69.7301C69.9347 14.1932 70.2453 13.8371 70.6619 13.5682C71.0786 13.2955 71.6165 13.1591 72.2756 13.1591C72.8665 13.1591 73.3835 13.2803 73.8267 13.5227C74.2699 13.7614 74.6146 14.125 74.8608 14.6136C75.107 15.0985 75.2301 15.7121 75.2301 16.4545V22H73.8892V16.5455C73.8892 15.8598 73.7112 15.3258 73.3551 14.9432C72.9991 14.5568 72.5104 14.3636 71.8892 14.3636C71.4612 14.3636 71.0786 14.4564 70.7415 14.642C70.4081 14.8277 70.1449 15.0985 69.9517 15.4545C69.7585 15.8106 69.6619 16.2424 69.6619 16.75ZM86.2486 10.3636V22H84.8395V11.8409H84.7713L81.9304 13.7273V12.2955L84.8395 10.3636H86.2486Z" fill="#1D2939"/>
<path d="M18 36.5H26" stroke="#E8178A"/>
<rect x="7" y="41" width="31" height="18" rx="3" fill="#E8178A"/>
<path d="M16.3026 54.0994C15.7557 54.0994 15.2692 54.0107 14.843 53.8331C14.4193 53.6532 14.0866 53.4081 13.8452 53.098C13.6037 52.7879 13.483 52.4363 13.483 52.0433C13.483 51.7403 13.5516 51.4621 13.6889 51.2088C13.8286 50.9531 14.018 50.7412 14.2571 50.5732C14.4962 50.4027 14.7637 50.2938 15.0597 50.2464V50.1967C14.6714 50.1186 14.3565 49.9304 14.1151 49.6321C13.8736 49.3314 13.7528 48.9822 13.7528 48.5845C13.7528 48.2081 13.8629 47.8731 14.0831 47.5795C14.3033 47.2836 14.6051 47.0516 14.9886 46.8835C15.3745 46.7131 15.8125 46.6278 16.3026 46.6278C16.7926 46.6278 17.2294 46.7131 17.6129 46.8835C17.9988 47.054 18.3018 47.2872 18.522 47.5831C18.7422 47.8767 18.8535 48.2105 18.8558 48.5845C18.8535 48.9846 18.7304 49.3338 18.4865 49.6321C18.2427 49.9304 17.9302 50.1186 17.549 50.1967V50.2464C17.8402 50.2938 18.1042 50.4027 18.3409 50.5732C18.58 50.7412 18.7694 50.9531 18.9091 51.2088C19.0511 51.4621 19.1233 51.7403 19.1257 52.0433C19.1233 52.4363 19.0014 52.7879 18.7599 53.098C18.5185 53.4081 18.1847 53.6532 17.7585 53.8331C17.3348 54.0107 16.8494 54.0994 16.3026 54.0994ZM16.3026 52.9702C16.5464 52.9702 16.7595 52.9264 16.9418 52.8388C17.1241 52.7488 17.2661 52.6257 17.3679 52.4695C17.4721 52.3108 17.5241 52.1286 17.5241 51.9226C17.5241 51.7119 17.4709 51.526 17.3643 51.3651C17.2578 51.2017 17.1134 51.0739 16.9311 50.9815C16.7488 50.8868 16.5393 50.8395 16.3026 50.8395C16.0682 50.8395 15.8587 50.8868 15.674 50.9815C15.4893 51.0739 15.3438 51.2017 15.2372 51.3651C15.133 51.526 15.081 51.7119 15.081 51.9226C15.081 52.1286 15.1319 52.3108 15.2337 52.4695C15.3355 52.6257 15.4787 52.7488 15.6634 52.8388C15.848 52.9264 16.0611 52.9702 16.3026 52.9702ZM16.3026 49.7209C16.5062 49.7209 16.6873 49.6795 16.8459 49.5966C17.0045 49.5137 17.1288 49.3989 17.2188 49.2521C17.3087 49.1054 17.3537 48.9361 17.3537 48.7443C17.3537 48.5549 17.3087 48.3892 17.2188 48.2472C17.1288 48.1027 17.0057 47.9903 16.8494 47.9098C16.6932 47.8269 16.5109 47.7855 16.3026 47.7855C16.0966 47.7855 15.9143 47.8269 15.7557 47.9098C15.5971 47.9903 15.4728 48.1027 15.3828 48.2472C15.2952 48.3892 15.2514 48.5549 15.2514 48.7443C15.2514 48.9361 15.2964 49.1054 15.3864 49.2521C15.4763 49.3989 15.6006 49.5137 15.7592 49.5966C15.9179 49.6795 16.099 49.7209 16.3026 49.7209ZM20.215 56.0455V48.5455H21.7065V49.4616H21.774C21.8403 49.3149 21.9361 49.1657 22.0616 49.0142C22.1895 48.8603 22.3552 48.7325 22.5588 48.6307C22.7647 48.5265 23.0204 48.4744 23.3258 48.4744C23.7235 48.4744 24.0905 48.5786 24.4267 48.7869C24.7628 48.9929 25.0315 49.3042 25.2328 49.7209C25.434 50.1352 25.5346 50.6548 25.5346 51.2798C25.5346 51.8883 25.4364 52.402 25.2399 52.821C25.0458 53.2377 24.7806 53.5537 24.4444 53.7692C24.1106 53.9822 23.7366 54.0888 23.3223 54.0888C23.0287 54.0888 22.7789 54.0402 22.573 53.9432C22.3694 53.8461 22.2025 53.7242 22.0723 53.5774C21.9421 53.4283 21.8426 53.2779 21.774 53.1264H21.7278V56.0455H20.215ZM21.6958 51.2727C21.6958 51.5971 21.7408 51.88 21.8308 52.1214C21.9208 52.3629 22.051 52.5511 22.2214 52.6861C22.3919 52.8187 22.599 52.8849 22.8429 52.8849C23.0891 52.8849 23.2974 52.8175 23.4679 52.6825C23.6383 52.5452 23.7673 52.3558 23.8549 52.1143C23.9449 51.8705 23.9899 51.59 23.9899 51.2727C23.9899 50.9579 23.9461 50.6809 23.8585 50.4418C23.7709 50.2027 23.6419 50.0156 23.4714 49.8807C23.301 49.7457 23.0914 49.6783 22.8429 49.6783C22.5967 49.6783 22.3883 49.7434 22.2179 49.8736C22.0498 50.0038 21.9208 50.1884 21.8308 50.4276C21.7408 50.6667 21.6958 50.9484 21.6958 51.2727ZM27.612 48.5455L28.6135 50.4524L29.6397 48.5455H31.1916L29.6113 51.2727L31.2342 54H29.6895L28.6135 52.1143L27.5552 54H25.9927L27.612 51.2727L26.0495 48.5455H27.612Z" fill="white"/>
<line x1="18.5" y1="40" x2="18.5" y2="33" stroke="#E8178A"/>
<line x1="25.5" y1="40" x2="25.5" y2="33" stroke="#E8178A"/>
</svg>
