<svg width="434" height="406" viewBox="0 0 434 406" fill="none" xmlns="http://www.w3.org/2000/svg"><rect x=".5" y=".5" width="383" height="367" rx="4.5" fill="#fff"/><rect x=".5" y=".5" width="383" height="367" rx="4.5" stroke="#98A2B3"/><path fill-rule="evenodd" clip-rule="evenodd" d="M43.354 33.646a.499.499 0 0 1 0 .708L37.707 40l5.647 5.646a.5.5 0 1 1-.708.708l-6-6a.501.501 0 0 1 0-.708l6-6a.5.5 0 0 1 .708 0Z" fill="#4A1FB8"/><path d="M154.241 39.91c0 1.11-.21 2.054-.631 2.833-.418.779-.988 1.374-1.71 1.785-.719.407-1.528.611-2.426.611-.905 0-1.717-.205-2.436-.616-.72-.411-1.288-1.006-1.706-1.785-.417-.779-.626-1.722-.626-2.829 0-1.11.209-2.055.626-2.834.418-.779.986-1.372 1.706-1.78.719-.41 1.531-.616 2.436-.616.898 0 1.707.206 2.426.616.722.408 1.292 1.001 1.71 1.78.421.78.631 1.724.631 2.834Zm-2.182 0c0-.72-.108-1.327-.323-1.82-.212-.494-.512-.869-.9-1.124-.388-.255-.842-.383-1.362-.383-.521 0-.975.128-1.362.383-.388.255-.69.63-.905 1.123-.212.494-.319 1.1-.319 1.82s.107 1.326.319 1.82c.215.493.517.868.905 1.123.387.256.841.383 1.362.383.52 0 .974-.127 1.362-.383.388-.255.688-.63.9-1.123.215-.494.323-1.1.323-1.82Zm7.188 5.24c-.783 0-1.455-.167-2.019-.498a3.357 3.357 0 0 1-1.292-1.392c-.299-.593-.448-1.276-.448-2.048 0-.783.151-1.469.453-2.059a3.355 3.355 0 0 1 1.297-1.387c.56-.334 1.226-.502 1.999-.502.666 0 1.249.121 1.75.363.5.242.896.582 1.188 1.02.292.437.452.95.482 1.54h-1.998c-.057-.38-.206-.687-.448-.92-.239-.235-.552-.352-.94-.352-.328 0-.614.09-.86.268-.242.176-.43.433-.566.77-.136.339-.204.748-.204 1.229 0 .487.066.901.199 1.243.136.341.326.601.571.78.246.18.532.269.86.269.242 0 .46-.05.652-.15.195-.099.356-.243.482-.432.129-.192.214-.423.254-.691h1.998a3.128 3.128 0 0 1-.477 1.541 2.88 2.88 0 0 1-1.168 1.034c-.498.249-1.086.373-1.765.373Zm8.828-7.786v1.59h-4.599v-1.59h4.599Zm-3.555-1.83h2.118v7.12c0 .195.03.347.09.457a.49.49 0 0 0 .248.224c.11.043.236.064.378.064.099 0 .199-.008.298-.025.1-.02.176-.035.229-.044l.333 1.576a5.934 5.934 0 0 1-.447.114 3.593 3.593 0 0 1-.701.084c-.511.02-.958-.048-1.343-.203a1.879 1.879 0 0 1-.89-.726c-.212-.328-.316-.743-.313-1.243v-7.398Zm8.303 9.615c-.772 0-1.44-.164-2.004-.492a3.369 3.369 0 0 1-1.297-1.382c-.305-.593-.458-1.281-.458-2.063 0-.79.153-1.479.458-2.069a3.328 3.328 0 0 1 1.297-1.382c.564-.331 1.232-.497 2.004-.497s1.438.166 1.998.497c.564.328.998.79 1.303 1.383.305.59.457 1.279.457 2.068 0 .782-.152 1.47-.457 2.063a3.357 3.357 0 0 1-1.303 1.382c-.56.328-1.226.492-1.998.492Zm.01-1.64c.351 0 .644-.1.88-.299.235-.202.412-.477.532-.825a3.58 3.58 0 0 0 .184-1.188c0-.444-.062-.84-.184-1.189-.12-.348-.297-.623-.532-.825-.236-.202-.529-.303-.88-.303-.355 0-.653.101-.895.303a1.866 1.866 0 0 0-.542.825 3.663 3.663 0 0 0-.179 1.189c0 .444.06.84.179 1.188.123.348.303.623.542.825.242.2.54.298.895.298ZM177.998 45V34.818h2.118v3.828h.065c.093-.205.227-.414.402-.626a2.11 2.11 0 0 1 .696-.537c.289-.146.647-.219 1.074-.219.557 0 1.071.146 1.542.438.47.288.846.724 1.128 1.307.282.58.423 1.308.423 2.183 0 .852-.138 1.57-.413 2.157-.272.584-.643 1.026-1.114 1.328a2.858 2.858 0 0 1-1.571.447c-.411 0-.76-.068-1.049-.204a2.178 2.178 0 0 1-.701-.512 2.603 2.603 0 0 1-.417-.631h-.095V45h-2.088Zm2.073-3.818c0 .454.063.85.189 1.188.126.338.309.602.547.79.239.186.529.279.87.279.345 0 .637-.095.875-.283.239-.193.419-.458.542-.796a3.39 3.39 0 0 0 .189-1.178 3.36 3.36 0 0 0-.184-1.163 1.733 1.733 0 0 0-.542-.786c-.238-.189-.532-.283-.88-.283-.344 0-.636.09-.875.273-.235.182-.416.44-.542.776-.126.334-.189.729-.189 1.183Zm10.268 3.967c-.786 0-1.462-.159-2.028-.477a3.267 3.267 0 0 1-1.303-1.362c-.305-.59-.457-1.288-.457-2.093 0-.786.152-1.475.457-2.069a3.38 3.38 0 0 1 1.288-1.387c.556-.331 1.209-.497 1.958-.497.504 0 .973.081 1.407.244.438.159.819.4 1.144.72.328.322.583.727.765 1.214.183.484.274 1.05.274 1.7v.582h-6.448V40.41h4.454c0-.305-.066-.575-.199-.81a1.42 1.42 0 0 0-.551-.552 1.577 1.577 0 0 0-.811-.204 1.63 1.63 0 0 0-.855.224 1.577 1.577 0 0 0-.577.591 1.67 1.67 0 0 0-.213.82v1.249c0 .377.069.704.208.98.143.274.343.486.602.635.259.15.565.224.92.224.235 0 .451-.033.646-.1.196-.066.363-.165.502-.298a1.3 1.3 0 0 0 .318-.487l1.959.13a2.67 2.67 0 0 1-.611 1.232c-.305.349-.7.62-1.184.816-.48.192-1.035.288-1.665.288Zm4.887-.149v-7.636h2.053v1.332h.08c.139-.474.373-.832.701-1.074a1.842 1.842 0 0 1 1.133-.368 3.208 3.208 0 0 1 .667.075v1.88c-.1-.03-.237-.057-.413-.08a3.718 3.718 0 0 0-.482-.035c-.312 0-.59.068-.836.204a1.495 1.495 0 0 0-.576.556 1.61 1.61 0 0 0-.209.826V45h-2.118Zm8.949 0v-1.551l3.624-3.356c.308-.298.567-.567.776-.805.212-.239.373-.473.482-.701.109-.232.164-.483.164-.751 0-.298-.068-.555-.204-.77a1.335 1.335 0 0 0-.557-.503 1.743 1.743 0 0 0-.8-.179 1.68 1.68 0 0 0-.815.19 1.302 1.302 0 0 0-.537.541 1.756 1.756 0 0 0-.189.84h-2.044c0-.666.151-1.244.453-1.735.301-.49.724-.87 1.268-1.138.543-.269 1.17-.403 1.879-.403.729 0 1.364.13 1.904.388.544.255.966.61 1.268 1.064.301.454.452.974.452 1.56 0 .385-.076.765-.229 1.14-.149.374-.415.79-.8 1.247-.384.454-.926 1-1.626 1.636l-1.486 1.456v.07h4.275V45h-7.258Zm12.81.224c-.855-.004-1.59-.214-2.207-.632-.613-.417-1.085-1.022-1.417-1.814-.328-.792-.49-1.745-.487-2.859 0-1.11.164-2.056.492-2.839.332-.782.804-1.377 1.417-1.785.617-.41 1.351-.616 2.202-.616.852 0 1.585.206 2.198.616.616.411 1.09 1.008 1.422 1.79.331.78.495 1.724.492 2.834 0 1.117-.166 2.072-.497 2.864-.328.792-.799 1.397-1.412 1.814-.613.418-1.347.627-2.203.627Zm0-1.785c.584 0 1.049-.293 1.397-.88.348-.587.521-1.467.518-2.64 0-.772-.08-1.415-.239-1.929-.156-.514-.378-.9-.666-1.158a1.454 1.454 0 0 0-1.01-.388c-.58 0-1.044.29-1.392.87-.348.58-.523 1.448-.527 2.605 0 .782.078 1.435.234 1.959.159.52.383.911.671 1.173a1.47 1.47 0 0 0 1.014.388ZM222.632 45v-1.551l3.624-3.356c.308-.298.567-.567.776-.805.212-.239.373-.473.482-.701.109-.232.164-.483.164-.751 0-.298-.068-.555-.204-.77a1.335 1.335 0 0 0-.557-.503 1.743 1.743 0 0 0-.8-.179 1.68 1.68 0 0 0-.815.19 1.302 1.302 0 0 0-.537.541 1.756 1.756 0 0 0-.189.84h-2.044c0-.666.151-1.244.453-1.735a3.02 3.02 0 0 1 1.268-1.138c.543-.269 1.17-.403 1.879-.403.729 0 1.364.13 1.904.388.544.255.966.61 1.268 1.064.301.454.452.974.452 1.56 0 .385-.076.765-.228 1.14-.15.374-.416.79-.801 1.247-.384.454-.926 1-1.626 1.636l-1.486 1.456v.07h4.275V45h-7.258Zm8.445-1.79v-1.695l4.251-6.697h1.462v2.347h-.865l-2.68 4.24v.08h6.041v1.725h-8.209Zm4.887 1.79v-2.307l.04-.75v-7.125h2.019V45h-2.059Z" fill="#4A1FB8"/><path fill-rule="evenodd" clip-rule="evenodd" d="M340.646 33.646a.5.5 0 0 1 .708 0l6 6a.504.504 0 0 1 0 .708l-6 6a.5.5 0 1 1-.708-.708L346.293 40l-5.647-5.646a.49.49 0 0 1-.147-.354.504.504 0 0 1 .147-.354Z" fill="#4A1FB8"/><path d="M40.908 85.746c-.04-.4-.21-.712-.512-.934-.301-.222-.71-.333-1.228-.333-.351 0-.648.05-.89.149-.242.096-.427.23-.556.403a.969.969 0 0 0-.19.586.838.838 0 0 0 .115.477c.086.136.204.254.353.353.15.097.322.181.517.254.196.07.404.13.627.179l.914.219c.444.1.852.232 1.223.397.372.166.693.37.965.612.271.242.482.527.631.855a2.7 2.7 0 0 1 .234 1.129c-.003.623-.163 1.163-.477 1.62-.312.454-.763.807-1.353 1.06-.586.248-1.294.372-2.123.372-.822 0-1.538-.126-2.147-.378-.607-.252-1.08-.624-1.422-1.118-.338-.497-.516-1.112-.532-1.845h2.083c.023.342.12.627.293.855.176.226.41.397.701.513a2.8 2.8 0 0 0 1 .168c.364 0 .68-.052.95-.159.27-.106.481-.253.63-.442.15-.189.224-.406.224-.651a.846.846 0 0 0-.204-.577c-.132-.156-.328-.288-.586-.398a5.964 5.964 0 0 0-.94-.298l-1.109-.278c-.858-.21-1.536-.536-2.033-.98-.497-.444-.744-1.042-.74-1.795-.004-.616.16-1.155.492-1.615.334-.461.793-.82 1.377-1.08.583-.258 1.246-.387 1.988-.387.756 0 1.416.13 1.979.388.567.258 1.008.618 1.322 1.079.315.46.478.994.488 1.6h-2.064Zm8.508 4.003v-4.385h2.118V93H49.5v-1.387h-.08c-.172.447-.46.807-.86 1.079-.398.272-.883.407-1.457.407-.51 0-.96-.116-1.347-.348a2.393 2.393 0 0 1-.91-.989c-.215-.427-.325-.94-.328-1.536v-4.862h2.118v4.484c.003.45.124.807.363 1.069.239.262.558.393.96.393.255 0 .493-.058.715-.174.222-.12.401-.295.537-.527.14-.232.207-.519.204-.86Zm5.93-1.164V93h-2.118v-7.636h2.018v1.347h.09a2.13 2.13 0 0 1 .85-1.054c.398-.262.88-.393 1.447-.393.53 0 .992.116 1.387.348.394.232.7.564.92.995.218.427.328.938.328 1.53V93H58.15v-4.484c.003-.468-.116-.832-.358-1.094-.242-.265-.575-.398-1-.398a1.52 1.52 0 0 0-.755.184 1.282 1.282 0 0 0-.507.537 1.86 1.86 0 0 0-.184.84Zm26.039-5.767h2.655l2.804 6.841h.12l2.803-6.84h2.655V93h-2.088v-6.627h-.085l-2.635 6.577h-1.422l-2.634-6.602h-.085V93h-2.088V82.818ZM97.606 93.15c-.772 0-1.44-.164-2.003-.492a3.368 3.368 0 0 1-1.298-1.382c-.305-.593-.458-1.281-.458-2.063 0-.79.153-1.479.458-2.069a3.327 3.327 0 0 1 1.297-1.382c.564-.331 1.232-.497 2.004-.497s1.438.166 1.999.497c.563.329.997.79 1.302 1.383.305.59.458 1.279.458 2.068 0 .782-.153 1.47-.458 2.063a3.36 3.36 0 0 1-1.302 1.382c-.56.328-1.227.492-1.999.492Zm.01-1.64c.351 0 .645-.1.88-.299a1.85 1.85 0 0 0 .532-.825 3.58 3.58 0 0 0 .184-1.188c0-.444-.062-.84-.184-1.189a1.85 1.85 0 0 0-.532-.825c-.235-.202-.529-.303-.88-.303-.355 0-.653.101-.895.303-.239.202-.42.477-.542.825-.12.349-.179.745-.179 1.189 0 .444.06.84.18 1.188.122.348.302.623.541.825.242.2.54.299.895.299Zm7.244-2.924V93h-2.118v-7.636h2.018v1.347h.09c.169-.444.452-.796.85-1.054.397-.262.88-.393 1.446-.393.531 0 .993.116 1.388.348.394.232.701.564.919.995.219.427.328.938.328 1.53V93h-2.117v-4.484c.003-.468-.116-.832-.358-1.094-.242-.265-.575-.398-1-.398a1.51 1.51 0 0 0-.755.184 1.274 1.274 0 0 0-.507.537c-.12.232-.181.512-.184.84Zm26.637-3.993v-1.775h8.362v1.775h-3.117V93h-2.128v-8.407h-3.117Zm13.558 5.156v-4.385h2.118V93h-2.034v-1.387h-.079a2.259 2.259 0 0 1-.86 1.079c-.398.272-.884.407-1.457.407-.511 0-.96-.116-1.347-.348a2.393 2.393 0 0 1-.91-.989c-.216-.427-.325-.94-.328-1.536v-4.862h2.118v4.484c.003.45.124.807.362 1.069.239.262.559.393.96.393.255 0 .494-.058.716-.174.222-.12.401-.295.537-.527.139-.232.207-.519.204-.86Zm7.292 3.4c-.786 0-1.462-.159-2.029-.477a3.27 3.27 0 0 1-1.302-1.362c-.305-.59-.458-1.288-.458-2.093 0-.786.153-1.475.458-2.069a3.383 3.383 0 0 1 1.287-1.387c.557-.331 1.21-.497 1.959-.497.504 0 .973.081 1.407.244.438.159.819.4 1.144.72.328.322.583.727.765 1.214.183.484.274 1.05.274 1.7v.582h-6.448V88.41h4.454c0-.305-.066-.575-.199-.81a1.416 1.416 0 0 0-.552-.552 1.573 1.573 0 0 0-.81-.204 1.63 1.63 0 0 0-.855.224 1.57 1.57 0 0 0-.577.591 1.68 1.68 0 0 0-.214.82v1.249c0 .377.07.704.209.98.143.274.343.486.602.635.258.15.565.224.92.224.235 0 .45-.033.646-.1.195-.066.363-.165.502-.297a1.3 1.3 0 0 0 .318-.488l1.959.13a2.67 2.67 0 0 1-.612 1.233c-.304.347-.699.62-1.183.815-.48.192-1.035.288-1.665.288Zm27.33-.149-2.914-10.182h2.352l1.685 7.075h.085l1.859-7.075h2.014l1.854 7.09h.09l1.685-7.09h2.352L187.825 93h-2.098l-1.939-6.657h-.079L181.775 93h-2.098Zm14.834.15c-.786 0-1.462-.16-2.029-.478a3.27 3.27 0 0 1-1.302-1.362c-.305-.59-.458-1.288-.458-2.093 0-.786.153-1.475.458-2.069a3.38 3.38 0 0 1 1.288-1.387c.556-.331 1.209-.497 1.958-.497.504 0 .973.081 1.407.244.438.159.819.4 1.144.72.328.322.583.727.765 1.214.183.484.274 1.05.274 1.7v.582h-6.448V88.41h4.454c0-.305-.066-.575-.199-.81a1.416 1.416 0 0 0-.552-.552 1.573 1.573 0 0 0-.81-.204 1.63 1.63 0 0 0-.855.224 1.577 1.577 0 0 0-.577.591 1.67 1.67 0 0 0-.213.82v1.249c0 .377.069.704.208.98.143.274.343.486.602.635.258.15.565.224.92.224.235 0 .45-.033.646-.1.195-.066.363-.165.502-.297a1.3 1.3 0 0 0 .318-.488l1.959.13c-.099.47-.303.881-.611 1.233-.305.347-.7.62-1.184.815-.48.192-1.035.288-1.665.288Zm7.701-.026c-.58 0-1.106-.149-1.576-.447-.467-.302-.839-.744-1.114-1.328-.272-.586-.407-1.305-.407-2.157 0-.875.14-1.603.422-2.183.282-.583.656-1.019 1.124-1.307.47-.292.986-.438 1.546-.438.427 0 .784.073 1.069.219.288.142.52.322.696.537.179.212.315.42.407.626h.065v-3.828h2.113V93h-2.088v-1.223h-.09c-.099.212-.24.423-.422.631a2.104 2.104 0 0 1-.701.513c-.285.135-.633.203-1.044.203Zm.671-1.685c.341 0 .63-.093.865-.278a1.77 1.77 0 0 0 .547-.791c.129-.338.194-.734.194-1.188 0-.454-.063-.849-.189-1.183-.126-.335-.308-.594-.547-.776a1.392 1.392 0 0 0-.87-.273c-.348 0-.641.094-.88.283a1.73 1.73 0 0 0-.542.785 3.365 3.365 0 0 0-.184 1.164c0 .444.061.837.184 1.178.126.338.307.603.542.796.239.188.532.283.88.283Zm24.114-6.846v-1.775h8.362v1.775h-3.117V93h-2.128v-8.407h-3.117Zm11.818 3.992V93h-2.118V82.818h2.058v3.893h.089c.173-.45.451-.804.836-1.059.384-.258.866-.388 1.446-.388.531 0 .993.116 1.387.348.398.229.706.559.925.99.222.427.332.94.328 1.536V93h-2.118v-4.484c.004-.471-.116-.837-.358-1.1-.238-.26-.573-.392-1.004-.392-.288 0-.543.061-.765.184a1.296 1.296 0 0 0-.517.537 1.81 1.81 0 0 0-.189.84Zm11.515 1.164v-4.385h2.118V93h-2.033v-1.387h-.08a2.253 2.253 0 0 1-.86 1.079c-.398.272-.883.407-1.457.407-.51 0-.959-.116-1.347-.348a2.393 2.393 0 0 1-.91-.989c-.215-.427-.325-.94-.328-1.536v-4.862h2.118v4.484c.003.45.124.807.363 1.069.239.262.558.393.959.393.256 0 .494-.058.716-.174.222-.12.401-.295.537-.527.139-.232.207-.519.204-.86ZM279.885 93V82.818h6.741v1.775h-4.588v2.426h4.141v1.775h-4.141V93h-2.153Zm8.027 0v-7.636h2.053v1.332h.079c.14-.474.373-.832.701-1.074a1.845 1.845 0 0 1 1.134-.368 3.223 3.223 0 0 1 .666.075v1.88a2.758 2.758 0 0 0-.413-.08 3.693 3.693 0 0 0-.482-.035c-.311 0-.59.068-.835.204a1.505 1.505 0 0 0-.577.556 1.61 1.61 0 0 0-.209.826V93h-2.117Zm5.728 0v-7.636h2.118V93h-2.118Zm1.064-8.62c-.315 0-.585-.105-.81-.314a1.016 1.016 0 0 1-.333-.76c0-.292.111-.543.333-.751a1.14 1.14 0 0 1 .81-.319c.315 0 .583.107.805.319a.986.986 0 0 1 .338.75c0 .295-.112.549-.338.761-.222.209-.49.313-.805.313Zm36.204 1.366c-.039-.4-.21-.712-.512-.934-.301-.222-.711-.333-1.228-.333-.351 0-.648.05-.89.149-.242.096-.427.23-.556.403a.97.97 0 0 0-.189.586.834.834 0 0 0 .114.477c.086.136.204.254.353.353.149.097.321.181.517.254.196.07.404.13.626.179l.915.219c.444.1.852.232 1.223.397.371.166.693.37.965.612s.482.527.631.855c.153.328.23.704.234 1.129-.004.623-.163 1.163-.477 1.62-.312.454-.763.807-1.353 1.06-.586.248-1.294.372-2.123.372-.822 0-1.537-.126-2.147-.378-.607-.252-1.081-.624-1.422-1.118-.338-.497-.516-1.112-.532-1.845h2.083c.023.342.121.627.293.855.176.226.41.397.701.513a2.8 2.8 0 0 0 1 .168c.364 0 .681-.052.949-.159a1.45 1.45 0 0 0 .631-.442c.15-.189.224-.406.224-.651a.846.846 0 0 0-.204-.577c-.132-.156-.328-.288-.586-.398a5.97 5.97 0 0 0-.94-.298l-1.109-.278c-.858-.21-1.536-.536-2.033-.98-.497-.444-.744-1.042-.741-1.795-.003-.616.161-1.155.492-1.615.335-.461.794-.82 1.378-1.08.583-.258 1.246-.387 1.988-.387.756 0 1.415.13 1.979.388.567.258 1.008.618 1.322 1.079.315.46.478.994.488 1.6h-2.064Zm5.789 7.398a3.18 3.18 0 0 1-1.303-.253 2.098 2.098 0 0 1-.905-.761c-.219-.338-.328-.759-.328-1.263 0-.424.078-.78.234-1.069.155-.288.368-.52.636-.696.269-.175.573-.308.915-.398a6.982 6.982 0 0 1 1.084-.188c.444-.047.802-.09 1.074-.13.271-.043.469-.106.591-.189a.414.414 0 0 0 .184-.368v-.03c0-.314-.099-.558-.298-.73-.196-.172-.474-.259-.835-.259-.382 0-.685.085-.91.254a1.165 1.165 0 0 0-.448.626l-1.958-.159c.099-.464.294-.865.586-1.203a2.817 2.817 0 0 1 1.129-.785c.464-.186 1.001-.279 1.611-.279.424 0 .83.05 1.218.15.391.099.737.253 1.039.462.305.209.545.477.72.805.176.325.264.714.264 1.168V93h-2.009v-1.059h-.059c-.123.239-.287.45-.492.631-.206.18-.453.32-.741.423-.289.1-.622.15-.999.15Zm.606-1.462c.312 0 .587-.06.825-.183.239-.126.426-.295.562-.507a1.31 1.31 0 0 0 .204-.721v-.81a1.123 1.123 0 0 1-.273.118 5.05 5.05 0 0 1-.383.095c-.143.026-.285.051-.428.075l-.388.054a2.624 2.624 0 0 0-.651.174 1.05 1.05 0 0 0-.432.323.786.786 0 0 0-.155.498c0 .288.105.508.314.66.212.15.48.225.805.225Zm9.399-6.318v1.59h-4.599v-1.59h4.599Zm-3.555-1.83h2.118v7.12c0 .195.03.347.09.457a.49.49 0 0 0 .248.224c.11.043.235.064.378.064.099 0 .199-.008.298-.025l.229-.044.333 1.576a5.934 5.934 0 0 1-.447.114 3.593 3.593 0 0 1-.701.084c-.511.02-.958-.048-1.343-.203a1.879 1.879 0 0 1-.89-.726c-.212-.328-.316-.743-.313-1.243v-7.398Zm-197.852 38.83V134h-1.409v-10.159h-.068l-2.841 1.886v-1.432l2.909-1.931h1.409ZM188.205 134v-1.023l3.84-4.204c.451-.493.822-.921 1.114-1.284a4.75 4.75 0 0 0 .648-1.034c.144-.326.216-.667.216-1.023 0-.409-.099-.763-.296-1.063a1.917 1.917 0 0 0-.795-.693 2.578 2.578 0 0 0-1.137-.244c-.447 0-.837.093-1.17.278a1.92 1.92 0 0 0-.767.767c-.178.33-.267.716-.267 1.159h-1.341c0-.681.157-1.28.472-1.795a3.275 3.275 0 0 1 1.284-1.205c.545-.288 1.157-.431 1.835-.431.682 0 1.286.143 1.812.431.527.288.94.676 1.239 1.165.299.489.449 1.032.449 1.631 0 .428-.078.846-.233 1.256-.152.405-.417.857-.796 1.357-.374.497-.895 1.103-1.562 1.819l-2.614 2.795v.091h5.409V134h-7.34Zm51.431.159c-.75 0-1.418-.129-2.005-.386-.584-.258-1.048-.616-1.392-1.074a2.883 2.883 0 0 1-.557-1.608h1.432c.03.375.159.699.386.971.227.269.525.478.892.626.367.147.775.221 1.222.221.5 0 .943-.087 1.329-.261.387-.175.69-.417.909-.728.22-.31.33-.67.33-1.079 0-.428-.106-.805-.318-1.131-.212-.329-.523-.587-.932-.772-.409-.186-.909-.279-1.5-.279h-.932v-1.25h.932c.462 0 .867-.083 1.216-.25.352-.167.627-.401.824-.704.2-.303.301-.66.301-1.069a1.96 1.96 0 0 0-.262-1.028 1.785 1.785 0 0 0-.738-.682c-.315-.163-.686-.244-1.114-.244-.401 0-.78.074-1.136.221-.353.144-.64.355-.864.631a1.646 1.646 0 0 0-.364.989h-1.363c.023-.61.206-1.144.551-1.603a3.464 3.464 0 0 1 1.352-1.079 4.364 4.364 0 0 1 1.847-.386c.72 0 1.337.145 1.852.437a3.09 3.09 0 0 1 1.188 1.142c.276.474.414.985.414 1.534 0 .655-.172 1.214-.517 1.676a2.623 2.623 0 0 1-1.392.961v.09c.735.122 1.309.434 1.722.938.413.5.619 1.119.619 1.858 0 .632-.172 1.201-.517 1.704-.341.5-.807.894-1.398 1.182-.59.288-1.263.432-2.017.432Zm43.796-2.545v-1.159l5.113-8.091h.841v1.795h-.568l-3.863 6.114v.091h6.886v1.25h-8.409Zm5.477 2.386v-11.636h1.341V134h-1.341Zm46.932.159c-.667 0-1.267-.132-1.801-.398a3.337 3.337 0 0 1-1.284-1.091 2.976 2.976 0 0 1-.529-1.579h1.364c.053.526.292.962.716 1.307.428.341.939.511 1.534.511.477 0 .901-.112 1.273-.335.375-.224.668-.53.88-.921a2.73 2.73 0 0 0 .324-1.335c0-.507-.112-.96-.335-1.358a2.468 2.468 0 0 0-.909-.949 2.571 2.571 0 0 0-1.324-.352 3.622 3.622 0 0 0-1.097.165c-.375.11-.683.252-.926.426l-1.318-.159.705-5.727h6.045v1.25h-4.864l-.409 3.431h.069c.238-.189.537-.346.897-.471s.735-.188 1.125-.188c.712 0 1.347.171 1.904.512.56.337 1 .799 1.318 1.386.322.587.483 1.258.483 2.011 0 .743-.167 1.406-.5 1.989a3.652 3.652 0 0 1-1.364 1.375c-.579.333-1.238.5-1.977.5Zm-287.773 48a4.32 4.32 0 0 1-1.432-.273 3.423 3.423 0 0 1-1.306-.88c-.394-.417-.71-.979-.95-1.688-.238-.712-.357-1.606-.357-2.682 0-1.03.096-1.943.29-2.738.193-.8.473-1.472.84-2.017.368-.55.811-.966 1.33-1.25.523-.284 1.112-.426 1.767-.426.651 0 1.231.13 1.739.392a3.31 3.31 0 0 1 1.25 1.079c.322.462.53.994.625 1.597h-1.387a2.566 2.566 0 0 0-.75-1.301c-.37-.345-.863-.517-1.477-.517-.901 0-1.612.392-2.13 1.176-.516.784-.775 1.884-.78 3.301h.092a3.414 3.414 0 0 1 1.733-1.358 3.388 3.388 0 0 1 1.13-.188 3.48 3.48 0 0 1 1.83.5 3.7 3.7 0 0 1 1.33 1.37c.333.579.5 1.244.5 1.994 0 .72-.161 1.379-.483 1.977a3.682 3.682 0 0 1-1.358 1.421c-.58.348-1.262.519-2.046.511Zm0-1.25c.477 0 .906-.119 1.284-.358.383-.239.684-.559.904-.96.223-.402.335-.849.335-1.341a2.68 2.68 0 0 0-.324-1.312 2.462 2.462 0 0 0-.88-.949 2.329 2.329 0 0 0-1.273-.353c-.36 0-.695.072-1.006.216-.31.14-.583.334-.818.58a2.796 2.796 0 0 0-.546.846 2.69 2.69 0 0 0 1.023 3.262c.383.246.816.369 1.301.369Zm44.5 1.091 5.205-10.295v-.091h-6v-1.25h7.454v1.318L94.046 182h-1.478Zm51.364.159c-.78 0-1.47-.138-2.068-.415-.595-.28-1.059-.664-1.392-1.153a2.893 2.893 0 0 1-.495-1.682 3.094 3.094 0 0 1 .29-1.364c.197-.42.466-.77.807-1.051a2.465 2.465 0 0 1 1.153-.539v-.069c-.557-.144-1-.456-1.329-.937a2.836 2.836 0 0 1-.489-1.654 2.81 2.81 0 0 1 .449-1.585c.303-.466.72-.833 1.25-1.102.534-.269 1.142-.403 1.824-.403.674 0 1.276.134 1.807.403.53.269.947.636 1.25 1.102.306.466.462.995.466 1.585a2.887 2.887 0 0 1-.506 1.654c-.33.481-.767.793-1.313.937v.069c.421.075.8.255 1.137.539a3.16 3.16 0 0 1 1.113 2.415 2.935 2.935 0 0 1-.511 1.682c-.333.489-.797.873-1.392 1.153-.591.277-1.275.415-2.051.415Zm0-1.25c.526 0 .981-.085 1.363-.256.383-.17.678-.411.887-.721a1.95 1.95 0 0 0 .318-1.091 2.092 2.092 0 0 0-.341-1.165 2.304 2.304 0 0 0-.915-.795 2.86 2.86 0 0 0-1.312-.29c-.496 0-.94.096-1.33.29a2.308 2.308 0 0 0-.914.795 2.05 2.05 0 0 0-.324 1.165 1.9 1.9 0 0 0 .301 1.091c.208.31.505.551.892.721.386.171.845.256 1.375.256Zm0-5.523c.416 0 .786-.083 1.108-.25.326-.166.581-.399.767-.698.185-.3.28-.65.284-1.052a1.94 1.94 0 0 0-.279-1.028 1.795 1.795 0 0 0-.755-.682c-.322-.163-.697-.244-1.125-.244-.436 0-.816.081-1.142.244a1.758 1.758 0 0 0-.756.682 1.896 1.896 0 0 0-.261 1.028c-.004.402.085.752.267 1.052.185.299.441.532.767.698.326.167.701.25 1.125.25Z" fill="#1D2939"/><rect x="169" y="153" width="46" height="46" rx="3" fill="#491DB6"/><rect x="169" y="153" width="46" height="46" rx="3" stroke="#491DB6" stroke-width="2"/><path d="M191.909 170.205a4.15 4.15 0 0 1 1.432.272c.477.178.913.474 1.307.887.394.409.71.967.949 1.676.238.708.358 1.596.358 2.665 0 1.034-.099 1.952-.296 2.755-.193.799-.473 1.474-.841 2.023-.363.549-.807.966-1.329 1.25-.519.284-1.106.426-1.762.426-.651 0-1.233-.129-1.744-.386a3.429 3.429 0 0 1-1.25-1.085 3.78 3.78 0 0 1-.619-1.62h1.386c.125.534.373.976.744 1.324.375.345.87.517 1.483.517.898 0 1.606-.392 2.125-1.176.523-.784.784-1.892.784-3.324h-.091a3.58 3.58 0 0 1-.755.824 3.337 3.337 0 0 1-2.108.722 3.53 3.53 0 0 1-1.835-.495 3.75 3.75 0 0 1-1.33-1.369c-.329-.583-.494-1.25-.494-2 0-.712.159-1.364.477-1.955a3.696 3.696 0 0 1 1.352-1.42c.584-.352 1.269-.523 2.057-.511Zm0 1.25c-.477 0-.907.119-1.29.357-.378.235-.68.554-.903.955a2.69 2.69 0 0 0-.33 1.324c0 .485.106.926.319 1.324.215.394.509.708.88.943.375.231.801.347 1.279.347.359 0 .695-.071 1.005-.211.311-.144.582-.339.813-.585.235-.25.418-.532.551-.847a2.55 2.55 0 0 0 .199-.994c0-.454-.11-.881-.33-1.278a2.616 2.616 0 0 0-.897-.966 2.328 2.328 0 0 0-1.296-.369Z" fill="#fff"/><path fill="#ECE6FB" d="M216 152h48v48h-48z"/><path d="M236.295 170.364V182h-1.409v-10.159h-.068l-2.841 1.886v-1.432l2.909-1.931h1.409Zm7.143 11.795c-.857 0-1.586-.233-2.188-.699-.602-.469-1.062-1.149-1.381-2.04-.318-.893-.477-1.973-.477-3.238 0-1.258.159-2.332.477-3.222.322-.894.784-1.576 1.387-2.045.606-.474 1.333-.71 2.182-.71.848 0 1.573.236 2.176.71.606.469 1.068 1.151 1.386 2.045.322.89.483 1.964.483 3.222 0 1.265-.159 2.345-.477 3.238-.318.891-.779 1.571-1.381 2.04-.602.466-1.331.699-2.187.699Zm0-1.25c.848 0 1.507-.409 1.977-1.227.469-.818.704-1.985.704-3.5 0-1.008-.108-1.866-.324-2.574-.212-.708-.518-1.248-.92-1.619a2.029 2.029 0 0 0-1.437-.557c-.841 0-1.499.415-1.972 1.244-.474.826-.71 1.994-.71 3.506 0 1.007.106 1.863.318 2.568.212.705.517 1.241.915 1.608.401.367.884.551 1.449.551Z" fill="#1D2939"/><path fill="#ECE6FB" d="M264 152h48v48h-48z"/><path d="M285.795 170.364V182h-1.409v-10.159h-.068l-2.841 1.886v-1.432l2.909-1.931h1.409Zm7.438 0V182h-1.409v-10.159h-.068l-2.841 1.886v-1.432l2.909-1.931h1.409Z" fill="#1D2939"/><path fill="#ECE6FB" d="M312 152h48v48h-48z"/><path d="M332.295 170.364V182h-1.409v-10.159h-.068l-2.841 1.886v-1.432l2.909-1.931h1.409ZM335.642 182v-1.023l3.841-4.204c.451-.493.822-.921 1.114-1.284a4.78 4.78 0 0 0 .647-1.034c.144-.326.216-.667.216-1.023 0-.409-.098-.763-.295-1.063a1.92 1.92 0 0 0-.796-.693 2.576 2.576 0 0 0-1.136-.244c-.447 0-.837.093-1.171.278a1.926 1.926 0 0 0-.767.767c-.178.33-.267.716-.267 1.159h-1.34c0-.681.157-1.28.471-1.795a3.281 3.281 0 0 1 1.284-1.205c.546-.288 1.157-.431 1.835-.431.682 0 1.286.143 1.813.431.526.288.939.676 1.239 1.165.299.489.448 1.032.448 1.631 0 .428-.077.846-.233 1.256-.151.405-.416.857-.795 1.357-.375.497-.896 1.103-1.562 1.819l-2.614 2.795v.091h5.409V182h-7.341Z" fill="#1D2939"/><path fill="#ECE6FB" d="M24 200h48v48H24z"/><path d="M44.295 218.364V230h-1.409v-10.159h-.068l-2.84 1.886v-1.432l2.908-1.931h1.41Zm7.279 11.795c-.75 0-1.419-.129-2.006-.386-.583-.258-1.047-.616-1.392-1.074a2.886 2.886 0 0 1-.557-1.608h1.432c.03.375.16.699.386.971.228.269.525.478.893.626.367.147.774.221 1.221.221.5 0 .943-.087 1.33-.261.386-.175.69-.417.909-.728.22-.31.33-.67.33-1.079 0-.428-.107-.805-.319-1.131-.212-.329-.523-.587-.932-.772-.409-.186-.909-.279-1.5-.279h-.931v-1.25h.931c.462 0 .868-.083 1.216-.25.352-.167.627-.401.824-.704.2-.303.301-.66.301-1.069 0-.394-.087-.736-.261-1.028a1.787 1.787 0 0 0-.739-.682c-.314-.163-.685-.244-1.113-.244-.402 0-.78.074-1.137.221-.352.144-.64.355-.863.631a1.642 1.642 0 0 0-.364.989h-1.364c.023-.61.207-1.144.551-1.603a3.464 3.464 0 0 1 1.353-1.079 4.363 4.363 0 0 1 1.846-.386c.72 0 1.337.145 1.853.437.515.288.91.669 1.187 1.142.277.474.415.985.415 1.534 0 .655-.172 1.214-.517 1.676a2.623 2.623 0 0 1-1.392.961v.09c.735.122 1.309.434 1.721.938.413.5.62 1.119.62 1.858 0 .632-.173 1.201-.517 1.704-.341.5-.807.894-1.398 1.182-.591.288-1.263.432-2.017.432Z" fill="#1D2939"/><path fill="#ECE6FB" d="M72 200h48v48H72z"/><path d="M92.296 218.364V230h-1.41v-10.159h-.068l-2.84 1.886v-1.432l2.908-1.931h1.41Zm3.073 9.25v-1.159l5.114-8.091h.841v1.795h-.568l-3.864 6.114v.091h6.886v1.25h-8.409Zm5.478 2.386v-11.636h1.341V230h-1.341Z" fill="#1D2939"/><rect x="121" y="201" width="46" height="46" rx="3" fill="#491DB6"/><rect x="121" y="201" width="46" height="46" rx="3" stroke="#491DB6" stroke-width="2"/><path d="M140.295 218.364V230h-1.409v-10.159h-.068l-2.841 1.886v-1.432l2.909-1.931h1.409Zm6.983 11.795c-.666 0-1.267-.132-1.801-.398a3.337 3.337 0 0 1-1.284-1.091 2.966 2.966 0 0 1-.528-1.579h1.363c.053.526.292.962.716 1.307.428.341.94.511 1.534.511.478 0 .902-.112 1.273-.335.375-.224.669-.53.881-.921a2.73 2.73 0 0 0 .324-1.335c0-.507-.112-.96-.336-1.358a2.454 2.454 0 0 0-.909-.949 2.567 2.567 0 0 0-1.323-.352 3.617 3.617 0 0 0-1.097.165c-.375.11-.684.252-.926.426l-1.318-.159.704-5.727h6.046v1.25h-4.864l-.409 3.431h.068c.239-.189.538-.346.898-.471s.735-.188 1.125-.188c.712 0 1.346.171 1.903.512.561.337 1 .799 1.318 1.386.322.587.483 1.258.483 2.011 0 .743-.166 1.406-.5 1.989a3.65 3.65 0 0 1-1.363 1.375c-.58.333-1.239.5-1.978.5Z" fill="#fff"/><path d="M188.295 218.364V230h-1.409v-10.159h-.068l-2.841 1.886v-1.432l2.909-1.931h1.409Zm7.211 11.795a4.318 4.318 0 0 1-1.432-.273 3.426 3.426 0 0 1-1.307-.88c-.394-.417-.71-.979-.949-1.688-.238-.712-.358-1.606-.358-2.682 0-1.03.097-1.943.29-2.738.193-.8.473-1.472.841-2.017.367-.55.811-.966 1.329-1.25.523-.284 1.112-.426 1.768-.426.651 0 1.231.13 1.738.392.512.257.928.617 1.25 1.079.322.462.53.994.625 1.597h-1.386a2.569 2.569 0 0 0-.75-1.301c-.371-.345-.864-.517-1.477-.517-.902 0-1.612.392-2.131 1.176-.515.784-.775 1.884-.779 3.301h.091a3.407 3.407 0 0 1 2.864-1.546c.667 0 1.276.167 1.829.5.554.33.997.786 1.33 1.37.333.579.5 1.244.5 1.994 0 .72-.161 1.379-.483 1.977a3.685 3.685 0 0 1-1.358 1.421c-.579.348-1.261.519-2.045.511Zm0-1.25c.477 0 .905-.119 1.284-.358.382-.239.683-.559.903-.96.224-.402.335-.849.335-1.341a2.69 2.69 0 0 0-.323-1.312 2.47 2.47 0 0 0-.881-.949 2.33 2.33 0 0 0-1.273-.353c-.36 0-.695.072-1.006.216-.31.14-.583.334-.818.58a2.785 2.785 0 0 0-.545.846 2.69 2.69 0 0 0 1.023 3.262c.382.246.816.369 1.301.369Zm41.289-10.545V230h-1.409v-10.159h-.068l-2.841 1.886v-1.432l2.909-1.931h1.409ZM240.506 230l5.204-10.295v-.091h-6v-1.25h7.455v1.318L241.983 230h-1.477Zm43.789-11.636V230h-1.409v-10.159h-.068l-2.841 1.886v-1.432l2.909-1.931h1.409Zm7.074 11.795c-.78 0-1.469-.138-2.068-.415-.595-.28-1.059-.664-1.392-1.153a2.9 2.9 0 0 1-.494-1.682 3.094 3.094 0 0 1 1.096-2.415c.345-.284.73-.464 1.154-.539v-.069c-.557-.144-1-.456-1.33-.937a2.843 2.843 0 0 1-.488-1.654 2.808 2.808 0 0 1 .448-1.585c.303-.466.72-.833 1.25-1.102.535-.269 1.143-.403 1.824-.403.675 0 1.277.134 1.807.403s.947.636 1.25 1.102c.307.466.462.995.466 1.585a2.88 2.88 0 0 1-.506 1.654 2.242 2.242 0 0 1-1.312.937v.069c.42.075.799.255 1.136.539.337.281.606.631.807 1.051.201.417.303.872.307 1.364a2.936 2.936 0 0 1-.512 1.682c-.333.489-.797.873-1.392 1.153-.59.277-1.274.415-2.051.415Zm0-1.25c.527 0 .981-.085 1.364-.256.383-.17.678-.411.886-.721.209-.311.315-.674.319-1.091a2.1 2.1 0 0 0-.341-1.165 2.318 2.318 0 0 0-.915-.795 2.864 2.864 0 0 0-1.313-.29c-.496 0-.939.096-1.329.29a2.304 2.304 0 0 0-.915.795 2.05 2.05 0 0 0-.324 1.165c-.004.417.097.78.301 1.091.209.31.506.551.892.721.387.171.845.256 1.375.256Zm0-5.523c.417 0 .786-.083 1.108-.25.326-.166.582-.399.767-.698.186-.3.281-.65.284-1.052a1.93 1.93 0 0 0-.278-1.028 1.804 1.804 0 0 0-.756-.682c-.322-.163-.697-.244-1.125-.244-.435 0-.816.081-1.142.244a1.76 1.76 0 0 0-.755.682 1.896 1.896 0 0 0-.262 1.028c-.004.402.085.752.267 1.052.186.299.442.532.767.698.326.167.701.25 1.125.25Zm40.926-5.022V230h-1.409v-10.159h-.068l-2.841 1.886v-1.432l2.909-1.931h1.409Zm7.052-.159c.477.003.954.094 1.431.272.478.178.913.474 1.307.887.394.409.71.967.949 1.676.239.708.358 1.596.358 2.665 0 1.034-.098 1.952-.295 2.755-.194.799-.474 1.474-.841 2.023-.364.549-.807.966-1.33 1.25-.519.284-1.106.426-1.761.426-.652 0-1.233-.129-1.745-.386a3.437 3.437 0 0 1-1.25-1.085 3.78 3.78 0 0 1-.619-1.62h1.387c.124.534.373.976.744 1.324.375.345.869.517 1.483.517.898 0 1.606-.392 2.125-1.176.523-.784.784-1.892.784-3.324h-.091a3.561 3.561 0 0 1-.756.824 3.319 3.319 0 0 1-.971.534 3.407 3.407 0 0 1-1.137.188 3.535 3.535 0 0 1-1.835-.495 3.748 3.748 0 0 1-1.329-1.369c-.33-.583-.495-1.25-.495-2 0-.712.159-1.364.478-1.955a3.682 3.682 0 0 1 1.352-1.42c.583-.352 1.269-.523 2.057-.511Zm0 1.25a2.39 2.39 0 0 0-1.29.357c-.379.235-.68.554-.904.955a2.7 2.7 0 0 0-.329 1.324c0 .485.106.926.318 1.324.216.394.51.708.881.943.375.231.801.347 1.278.347.36 0 .695-.071 1.006-.211.31-.144.581-.339.812-.585.235-.25.419-.532.551-.847a2.608 2.608 0 0 0-.13-2.272 2.61 2.61 0 0 0-.898-.966 2.327 2.327 0 0 0-1.295-.369ZM39.205 278v-1.023l3.84-4.204c.451-.493.822-.921 1.114-1.284a4.75 4.75 0 0 0 .648-1.034c.144-.326.216-.667.216-1.023 0-.409-.099-.763-.296-1.063a1.92 1.92 0 0 0-.795-.693 2.577 2.577 0 0 0-1.137-.244c-.447 0-.837.093-1.17.278a1.92 1.92 0 0 0-.767.767c-.178.33-.267.716-.267 1.159H39.25c0-.681.157-1.28.472-1.795a3.28 3.28 0 0 1 1.284-1.205c.545-.288 1.157-.431 1.835-.431.682 0 1.286.143 1.812.431.527.288.94.676 1.239 1.165.3.489.449 1.032.449 1.631 0 .428-.078.846-.233 1.256-.152.405-.417.857-.795 1.357a24.295 24.295 0 0 1-1.563 1.819l-2.614 2.795v.091h5.41V278h-7.341Zm13.483.159c-.857 0-1.586-.233-2.188-.699-.602-.469-1.063-1.149-1.38-2.04-.319-.893-.478-1.973-.478-3.238 0-1.258.16-2.332.477-3.222.322-.894.784-1.576 1.387-2.045.606-.474 1.333-.71 2.181-.71.849 0 1.574.236 2.177.71.606.469 1.068 1.151 1.386 2.045.322.89.483 1.964.483 3.222 0 1.265-.16 2.345-.477 3.238-.319.891-.779 1.571-1.381 2.04-.602.466-1.331.699-2.188.699Zm0-1.25c.848 0 1.507-.409 1.977-1.227.47-.818.704-1.985.704-3.5 0-1.008-.108-1.866-.324-2.574-.212-.708-.519-1.248-.92-1.619a2.029 2.029 0 0 0-1.438-.557c-.84 0-1.498.415-1.971 1.244-.474.826-.71 1.994-.71 3.506 0 1.007.106 1.863.318 2.568.212.705.517 1.241.915 1.608.401.367.884.551 1.449.551ZM88.204 278v-1.023l3.842-4.204c.45-.493.821-.921 1.113-1.284a4.75 4.75 0 0 0 .648-1.034c.144-.326.216-.667.216-1.023 0-.409-.099-.763-.296-1.063a1.92 1.92 0 0 0-.795-.693 2.577 2.577 0 0 0-1.136-.244c-.448 0-.838.093-1.171.278a1.92 1.92 0 0 0-.767.767c-.178.33-.267.716-.267 1.159H88.25c0-.681.157-1.28.472-1.795a3.28 3.28 0 0 1 1.284-1.205c.545-.288 1.157-.431 1.835-.431.682 0 1.286.143 1.812.431.527.288.94.676 1.239 1.165.3.489.449 1.032.449 1.631 0 .428-.078.846-.233 1.256-.152.405-.417.857-.796 1.357-.374.497-.895 1.103-1.562 1.819l-2.614 2.795v.091h5.41V278h-7.342Zm13.779-11.636V278h-1.409v-10.159h-.068l-2.841 1.886v-1.432l2.909-1.931h1.409ZM135.205 278v-1.023l3.84-4.204c.451-.493.822-.921 1.114-1.284a4.75 4.75 0 0 0 .648-1.034c.144-.326.216-.667.216-1.023 0-.409-.099-.763-.296-1.063a1.917 1.917 0 0 0-.795-.693 2.578 2.578 0 0 0-1.137-.244c-.447 0-.837.093-1.17.278a1.92 1.92 0 0 0-.767.767c-.178.33-.267.716-.267 1.159h-1.341c0-.681.157-1.28.472-1.795a3.275 3.275 0 0 1 1.284-1.205c.545-.288 1.157-.431 1.835-.431.682 0 1.286.143 1.812.431.527.288.94.676 1.239 1.165.299.489.449 1.032.449 1.631 0 .428-.078.846-.233 1.256-.152.405-.417.857-.796 1.357-.374.497-.895 1.103-1.562 1.819l-2.614 2.795v.091h5.409V278h-7.34Zm9.687 0v-1.023l3.841-4.204c.451-.493.822-.921 1.114-1.284a4.78 4.78 0 0 0 .647-1.034c.144-.326.216-.667.216-1.023 0-.409-.098-.763-.295-1.063a1.92 1.92 0 0 0-.796-.693 2.576 2.576 0 0 0-1.136-.244c-.447 0-.837.093-1.171.278a1.926 1.926 0 0 0-.767.767c-.178.33-.267.716-.267 1.159h-1.34c0-.681.157-1.28.471-1.795a3.281 3.281 0 0 1 1.284-1.205c.546-.288 1.157-.431 1.835-.431.682 0 1.286.143 1.813.431.526.288.939.676 1.239 1.165.299.489.448 1.032.448 1.631 0 .428-.077.846-.233 1.256-.151.405-.416.857-.795 1.357-.375.497-.896 1.103-1.562 1.819l-2.614 2.795v.091h5.409V278h-7.341Zm38.313 0v-1.023l3.84-4.204c.451-.493.822-.921 1.114-1.284a4.75 4.75 0 0 0 .648-1.034c.144-.326.216-.667.216-1.023 0-.409-.099-.763-.296-1.063a1.917 1.917 0 0 0-.795-.693 2.578 2.578 0 0 0-1.137-.244c-.447 0-.837.093-1.17.278a1.92 1.92 0 0 0-.767.767c-.178.33-.267.716-.267 1.159h-1.341c0-.681.157-1.28.472-1.795a3.275 3.275 0 0 1 1.284-1.205c.545-.288 1.157-.431 1.835-.431.682 0 1.286.143 1.812.431.527.288.94.676 1.239 1.165.299.489.449 1.032.449 1.631 0 .428-.078.846-.233 1.256-.152.405-.417.857-.796 1.357-.374.497-.895 1.103-1.562 1.819l-2.614 2.795v.091h5.409V278h-7.34Zm13.619.159c-.75 0-1.419-.129-2.006-.386-.583-.258-1.047-.616-1.392-1.074a2.891 2.891 0 0 1-.557-1.608h1.432c.03.375.159.699.387.971.227.269.524.478.892.626.367.147.774.221 1.221.221.5 0 .943-.087 1.33-.261.386-.175.689-.417.909-.728.219-.31.329-.67.329-1.079 0-.428-.106-.805-.318-1.131-.212-.329-.523-.587-.932-.772-.409-.186-.909-.279-1.5-.279h-.931v-1.25h.931c.462 0 .868-.083 1.216-.25a1.95 1.95 0 0 0 .824-.704 1.89 1.89 0 0 0 .301-1.069c0-.394-.087-.736-.261-1.028a1.787 1.787 0 0 0-.739-.682c-.314-.163-.685-.244-1.113-.244a2.95 2.95 0 0 0-1.137.221c-.352.144-.64.355-.863.631a1.64 1.64 0 0 0-.364.989h-1.364c.023-.61.207-1.144.551-1.603a3.467 3.467 0 0 1 1.353-1.079 4.36 4.36 0 0 1 1.846-.386c.72 0 1.337.145 1.853.437a3.08 3.08 0 0 1 1.187 1.142c.277.474.415.985.415 1.534 0 .655-.172 1.214-.517 1.676a2.623 2.623 0 0 1-1.392.961v.09c.735.122 1.308.434 1.721.938.413.5.62 1.119.62 1.858 0 .632-.173 1.201-.517 1.704-.341.5-.807.894-1.398 1.182-.591.288-1.263.432-2.017.432Zm34.381-.159v-1.023l3.84-4.204c.451-.493.822-.921 1.114-1.284a4.75 4.75 0 0 0 .648-1.034c.144-.326.216-.667.216-1.023 0-.409-.099-.763-.296-1.063a1.917 1.917 0 0 0-.795-.693 2.578 2.578 0 0 0-1.137-.244c-.447 0-.837.093-1.17.278a1.92 1.92 0 0 0-.767.767c-.178.33-.267.716-.267 1.159h-1.341c0-.681.157-1.28.472-1.795a3.275 3.275 0 0 1 1.284-1.205c.545-.288 1.157-.431 1.835-.431.682 0 1.286.143 1.812.431.527.288.94.676 1.239 1.165.299.489.449 1.032.449 1.631 0 .428-.078.846-.233 1.256-.152.405-.417.857-.796 1.357-.374.497-.895 1.103-1.562 1.819l-2.614 2.795v.091h5.409V278h-7.34Zm9.164-2.386v-1.159l5.114-8.091h.841v1.795h-.568l-3.864 6.114v.091h6.886v1.25h-8.409Zm5.478 2.386v-11.636h1.341V278h-1.341Zm33.358 0v-1.023l3.84-4.204c.451-.493.822-.921 1.114-1.284a4.75 4.75 0 0 0 .648-1.034c.144-.326.216-.667.216-1.023 0-.409-.099-.763-.296-1.063a1.917 1.917 0 0 0-.795-.693 2.578 2.578 0 0 0-1.137-.244c-.447 0-.837.093-1.17.278a1.92 1.92 0 0 0-.767.767c-.178.33-.267.716-.267 1.159h-1.341c0-.681.157-1.28.472-1.795a3.275 3.275 0 0 1 1.284-1.205c.545-.288 1.157-.431 1.835-.431.682 0 1.286.143 1.812.431.527.288.94.676 1.239 1.165.299.489.449 1.032.449 1.631 0 .428-.078.846-.233 1.256-.152.405-.417.857-.796 1.357-.374.497-.895 1.103-1.562 1.819l-2.614 2.795v.091h5.409V278h-7.34Zm13.323.159c-.666 0-1.267-.132-1.801-.398a3.337 3.337 0 0 1-1.284-1.091 2.966 2.966 0 0 1-.528-1.579h1.363c.053.526.292.962.716 1.307.428.341.94.511 1.534.511.478 0 .902-.112 1.273-.335.375-.224.669-.53.881-.921a2.73 2.73 0 0 0 .324-1.335c0-.507-.112-.96-.336-1.358a2.454 2.454 0 0 0-.909-.949 2.567 2.567 0 0 0-1.323-.352 3.617 3.617 0 0 0-1.097.165c-.375.11-.684.252-.926.426l-1.318-.159.704-5.727h6.046v1.25h-4.864l-.409 3.431h.068c.239-.189.538-.346.898-.471s.735-.188 1.125-.188c.712 0 1.346.171 1.903.512.561.337 1 .799 1.318 1.386.322.587.483 1.258.483 2.011 0 .743-.166 1.406-.5 1.989a3.65 3.65 0 0 1-1.363 1.375c-.58.333-1.239.5-1.978.5Zm34.677-.159v-1.023l3.84-4.204c.451-.493.822-.921 1.114-1.284a4.75 4.75 0 0 0 .648-1.034c.144-.326.216-.667.216-1.023 0-.409-.099-.763-.296-1.063a1.917 1.917 0 0 0-.795-.693 2.578 2.578 0 0 0-1.137-.244c-.447 0-.837.093-1.17.278a1.92 1.92 0 0 0-.767.767c-.178.33-.267.716-.267 1.159h-1.341c0-.681.157-1.28.472-1.795a3.275 3.275 0 0 1 1.284-1.205c.545-.288 1.157-.431 1.835-.431.682 0 1.286.143 1.812.431.527.288.94.676 1.239 1.165.299.489.449 1.032.449 1.631 0 .428-.078.846-.233 1.256-.152.405-.417.857-.796 1.357-.374.497-.895 1.103-1.562 1.819l-2.614 2.795v.091h5.409V278h-7.34Zm13.551.159a4.318 4.318 0 0 1-1.432-.273 3.426 3.426 0 0 1-1.307-.88c-.394-.417-.71-.979-.949-1.688-.238-.712-.358-1.606-.358-2.682 0-1.03.097-1.943.29-2.738.193-.8.473-1.472.841-2.017.367-.55.811-.966 1.329-1.25.523-.284 1.112-.426 1.768-.426.651 0 1.231.13 1.738.392.512.257.928.617 1.25 1.079.322.462.53.994.625 1.597h-1.386a2.569 2.569 0 0 0-.75-1.301c-.371-.345-.864-.517-1.477-.517-.902 0-1.612.392-2.131 1.176-.515.784-.775 1.884-.779 3.301h.091a3.407 3.407 0 0 1 2.864-1.546c.667 0 1.276.167 1.829.5.554.33.997.786 1.33 1.37.333.579.5 1.244.5 1.994 0 .72-.161 1.379-.483 1.977a3.685 3.685 0 0 1-1.358 1.421c-.579.348-1.261.519-2.045.511Zm0-1.25c.477 0 .905-.119 1.284-.358.382-.239.683-.559.903-.96.224-.402.335-.849.335-1.341a2.69 2.69 0 0 0-.323-1.312 2.47 2.47 0 0 0-.881-.949 2.33 2.33 0 0 0-1.273-.353c-.36 0-.695.072-1.006.216-.31.14-.583.334-.818.58a2.785 2.785 0 0 0-.545.846 2.69 2.69 0 0 0 1.023 3.262c.382.246.816.369 1.301.369ZM39.705 326v-1.023l3.84-4.204c.451-.493.822-.921 1.114-1.284a4.75 4.75 0 0 0 .648-1.034c.144-.326.216-.667.216-1.023 0-.409-.099-.763-.296-1.063a1.92 1.92 0 0 0-.795-.693 2.577 2.577 0 0 0-1.137-.244c-.447 0-.837.093-1.17.278a1.92 1.92 0 0 0-.767.767c-.178.33-.267.716-.267 1.159H39.75c0-.681.157-1.28.472-1.795a3.28 3.28 0 0 1 1.284-1.205c.545-.288 1.157-.431 1.835-.431.682 0 1.286.143 1.812.431.527.288.94.676 1.239 1.165.3.489.449 1.032.449 1.631 0 .428-.078.846-.233 1.256-.152.405-.417.857-.795 1.357a24.295 24.295 0 0 1-1.563 1.819l-2.614 2.795v.091h5.41V326h-7.341Zm10.05 0 5.205-10.295v-.091h-6v-1.25h7.455v1.318L51.233 326h-1.477Zm37.449 0v-1.023l3.842-4.204c.45-.493.821-.921 1.113-1.284a4.75 4.75 0 0 0 .648-1.034c.144-.326.216-.667.216-1.023 0-.409-.099-.763-.296-1.063a1.92 1.92 0 0 0-.795-.693 2.577 2.577 0 0 0-1.136-.244c-.448 0-.838.093-1.171.278a1.92 1.92 0 0 0-.767.767c-.178.33-.267.716-.267 1.159H87.25c0-.681.157-1.28.472-1.795a3.28 3.28 0 0 1 1.284-1.205c.545-.288 1.157-.431 1.835-.431.682 0 1.286.143 1.812.431.527.288.94.676 1.239 1.165.3.489.449 1.032.449 1.631 0 .428-.078.846-.233 1.256-.152.405-.417.857-.796 1.357-.374.497-.895 1.103-1.562 1.819l-2.614 2.795v.091h5.41V326h-7.342Zm13.415.159c-.78 0-1.47-.138-2.068-.415-.595-.28-1.059-.664-1.392-1.153a2.9 2.9 0 0 1-.494-1.682 3.098 3.098 0 0 1 .29-1.364c.197-.42.466-.77.806-1.051.345-.284.73-.464 1.154-.539v-.069c-.557-.144-1-.456-1.33-.937a2.841 2.841 0 0 1-.488-1.654 2.81 2.81 0 0 1 .449-1.585 3.16 3.16 0 0 1 1.25-1.102c.533-.269 1.141-.403 1.823-.403.675 0 1.277.134 1.807.403s.947.636 1.25 1.102c.307.466.462.995.466 1.585a2.88 2.88 0 0 1-.506 1.654 2.242 2.242 0 0 1-1.312.937v.069c.42.075.799.255 1.136.539.337.281.606.631.807 1.051.201.417.303.872.307 1.364a2.936 2.936 0 0 1-.512 1.682c-.333.489-.797.873-1.392 1.153-.59.277-1.274.415-2.051.415Zm0-1.25c.527 0 .981-.085 1.364-.256.383-.17.678-.411.886-.721.209-.311.315-.674.319-1.091a2.1 2.1 0 0 0-.341-1.165 2.318 2.318 0 0 0-.915-.795 2.864 2.864 0 0 0-1.313-.29c-.496 0-.94.096-1.33.29a2.311 2.311 0 0 0-.914.795 2.05 2.05 0 0 0-.324 1.165c-.004.417.097.78.301 1.091.209.31.506.551.892.721.387.171.845.256 1.375.256Zm0-5.523c.417 0 .786-.083 1.108-.25.326-.166.582-.399.767-.698.186-.3.281-.65.284-1.052a1.93 1.93 0 0 0-.278-1.028 1.804 1.804 0 0 0-.756-.682c-.322-.163-.697-.244-1.125-.244-.435 0-.816.081-1.142.244a1.758 1.758 0 0 0-.755.682 1.898 1.898 0 0 0-.262 1.028c-.004.402.086.752.267 1.052.186.299.442.532.767.698.326.167.701.25 1.125.25ZM135.205 326v-1.023l3.84-4.204c.451-.493.822-.921 1.114-1.284a4.75 4.75 0 0 0 .648-1.034c.144-.326.216-.667.216-1.023 0-.409-.099-.763-.296-1.063a1.917 1.917 0 0 0-.795-.693 2.578 2.578 0 0 0-1.137-.244c-.447 0-.837.093-1.17.278a1.92 1.92 0 0 0-.767.767c-.178.33-.267.716-.267 1.159h-1.341c0-.681.157-1.28.472-1.795a3.275 3.275 0 0 1 1.284-1.205c.545-.288 1.157-.431 1.835-.431.682 0 1.286.143 1.812.431.527.288.94.676 1.239 1.165.299.489.449 1.032.449 1.631 0 .428-.078.846-.233 1.256-.152.405-.417.857-.796 1.357-.374.497-.895 1.103-1.562 1.819l-2.614 2.795v.091h5.409V326h-7.34Zm13.392-11.795c.477.003.954.094 1.431.272.478.178.913.474 1.307.887.394.409.71.967.949 1.676.239.708.358 1.596.358 2.665 0 1.034-.098 1.952-.295 2.755-.194.799-.474 1.474-.841 2.023-.364.549-.807.966-1.33 1.25-.519.284-1.106.426-1.761.426-.652 0-1.233-.129-1.745-.386a3.437 3.437 0 0 1-1.25-1.085 3.78 3.78 0 0 1-.619-1.62h1.387c.124.534.373.976.744 1.324.375.345.869.517 1.483.517.898 0 1.606-.392 2.125-1.176.523-.784.784-1.892.784-3.324h-.091a3.561 3.561 0 0 1-.756.824 3.319 3.319 0 0 1-.971.534 3.407 3.407 0 0 1-1.137.188 3.535 3.535 0 0 1-1.835-.495 3.748 3.748 0 0 1-1.329-1.369c-.33-.583-.495-1.25-.495-2 0-.712.159-1.364.478-1.955a3.682 3.682 0 0 1 1.352-1.42c.583-.352 1.269-.523 2.057-.511Zm0 1.25a2.39 2.39 0 0 0-1.29.357c-.379.235-.68.554-.904.955a2.7 2.7 0 0 0-.329 1.324c0 .485.106.926.318 1.324.216.394.51.708.881.943.375.231.801.347 1.278.347.36 0 .695-.071 1.006-.211.31-.144.581-.339.812-.585.235-.25.419-.532.551-.847a2.608 2.608 0 0 0-.13-2.272 2.61 2.61 0 0 0-.898-.966 2.327 2.327 0 0 0-1.295-.369Zm38.039 10.704c-.75 0-1.418-.129-2.005-.386-.584-.258-1.048-.616-1.392-1.074a2.883 2.883 0 0 1-.557-1.608h1.432c.03.375.159.699.386.971.227.269.525.478.892.626.367.147.775.221 1.222.221.5 0 .943-.087 1.329-.261.387-.175.69-.417.909-.728.22-.31.33-.67.33-1.079 0-.428-.106-.805-.318-1.131-.212-.329-.523-.587-.932-.772-.409-.186-.909-.279-1.5-.279h-.932v-1.25h.932c.462 0 .867-.083 1.216-.25.352-.167.627-.401.824-.704.2-.303.301-.66.301-1.069a1.96 1.96 0 0 0-.262-1.028 1.785 1.785 0 0 0-.738-.682c-.315-.163-.686-.244-1.114-.244-.401 0-.78.074-1.136.221-.353.144-.64.355-.864.631a1.646 1.646 0 0 0-.364.989h-1.363c.023-.61.206-1.144.551-1.603a3.464 3.464 0 0 1 1.352-1.079 4.364 4.364 0 0 1 1.847-.386c.72 0 1.337.145 1.852.437a3.09 3.09 0 0 1 1.188 1.142c.276.474.414.985.414 1.534 0 .655-.172 1.214-.517 1.676a2.623 2.623 0 0 1-1.392.961v.09c.735.122 1.309.434 1.722.938.413.5.619 1.119.619 1.858 0 .632-.172 1.201-.517 1.704-.341.5-.807.894-1.398 1.182-.59.288-1.263.432-2.017.432Zm10.052 0c-.857 0-1.586-.233-2.188-.699-.602-.469-1.062-1.149-1.381-2.04-.318-.893-.477-1.973-.477-3.238 0-1.258.159-2.332.477-3.222.322-.894.784-1.576 1.387-2.045.606-.474 1.333-.71 2.182-.71.848 0 1.573.236 2.176.71.606.469 1.068 1.151 1.386 2.045.322.89.483 1.964.483 3.222 0 1.265-.159 2.345-.477 3.238-.318.891-.779 1.571-1.381 2.04-.602.466-1.331.699-2.187.699Zm0-1.25c.848 0 1.507-.409 1.977-1.227.469-.818.704-1.985.704-3.5 0-1.008-.108-1.866-.324-2.574-.212-.708-.518-1.248-.92-1.619a2.029 2.029 0 0 0-1.437-.557c-.841 0-1.499.415-1.972 1.244-.474.826-.71 1.994-.71 3.506 0 1.007.106 1.863.318 2.568.212.705.517 1.241.915 1.608.401.367.884.551 1.449.551Zm39.448 1.25c-.75 0-1.418-.129-2.005-.386-.584-.258-1.048-.616-1.392-1.074a2.883 2.883 0 0 1-.557-1.608h1.432c.03.375.159.699.386.971.227.269.525.478.892.626.367.147.775.221 1.222.221.5 0 .943-.087 1.329-.261.387-.175.69-.417.909-.728.22-.31.33-.67.33-1.079 0-.428-.106-.805-.318-1.131-.212-.329-.523-.587-.932-.772-.409-.186-.909-.279-1.5-.279H235v-1.25h.932c.462 0 .867-.083 1.216-.25.352-.167.627-.401.824-.704.2-.303.301-.66.301-1.069a1.96 1.96 0 0 0-.262-1.028 1.785 1.785 0 0 0-.738-.682c-.315-.163-.686-.244-1.114-.244-.401 0-.78.074-1.136.221-.353.144-.64.355-.864.631a1.646 1.646 0 0 0-.364.989h-1.363c.023-.61.206-1.144.551-1.603a3.464 3.464 0 0 1 1.352-1.079 4.364 4.364 0 0 1 1.847-.386c.72 0 1.337.145 1.852.437a3.09 3.09 0 0 1 1.188 1.142c.276.474.414.985.414 1.534 0 .655-.172 1.214-.517 1.676a2.623 2.623 0 0 1-1.392.961v.09c.735.122 1.309.434 1.722.938.413.5.619 1.119.619 1.858 0 .632-.172 1.201-.517 1.704-.341.5-.807.894-1.398 1.182-.59.288-1.263.432-2.017.432Zm10.347-11.795V326h-1.409v-10.159h-.068l-2.841 1.886v-1.432l2.909-1.931h1.409Z" fill="#1D2939"/><path fill="#E8178A" fill-opacity=".24" d="M384 56v24H0V56zm0 288v24H0v-24zm0-343v24H0V1z"/><path fill="#E8178A" fill-opacity=".24" d="M25 368H1V0h24zm358 0h-24V0h24z"/><path d="M359 380.25h24M359.504 384v-7m22.996 7v-7" stroke="#E8178A"/><rect x="356" y="390" width="29" height="16" rx="3" fill="#E8178A"/><path d="M358.692 402v-1.108l2.589-2.397c.22-.213.405-.405.554-.575.151-.171.266-.338.344-.501.078-.166.117-.344.117-.536a.958.958 0 0 0-.543-.909 1.238 1.238 0 0 0-.572-.128c-.222 0-.416.045-.582.135a.93.93 0 0 0-.384.387 1.265 1.265 0 0 0-.134.6h-1.46c0-.476.108-.889.323-1.239.216-.351.517-.622.906-.814.388-.191.835-.287 1.342-.287.521 0 .974.092 1.36.277.388.182.69.435.906.76.215.324.323.696.323 1.115 0 .274-.055.546-.164.813-.106.268-.297.565-.571.891-.275.325-.662.714-1.162 1.169l-1.061 1.04v.05h3.054V402h-5.185Zm6.033-1.278v-1.211l3.036-4.784h1.044v1.676h-.618l-1.914 3.03v.056h4.314v1.233h-5.862Zm3.49 1.278v-1.648l.029-.536v-5.089h1.441V402h-1.47Zm3.411 2.045v-7.5h1.492v.917h.067c.066-.147.162-.296.288-.448a1.5 1.5 0 0 1 .497-.383c.206-.104.462-.157.767-.157.398 0 .765.105 1.101.313.336.206.605.517.806.934.201.414.302.934.302 1.559 0 .608-.098 1.122-.295 1.541-.194.417-.459.733-.795.948-.334.213-.708.32-1.123.32-.293 0-.543-.049-.749-.146a1.563 1.563 0 0 1-.501-.366 1.86 1.86 0 0 1-.298-.451h-.046v2.919h-1.513Zm1.481-4.772c0 .324.045.607.135.848.09.242.22.43.391.565.17.133.377.199.621.199a.98.98 0 0 0 .625-.202c.17-.138.299-.327.387-.569.09-.243.135-.524.135-.841 0-.315-.044-.592-.131-.831a1.245 1.245 0 0 0-.387-.561.983.983 0 0 0-.629-.203.994.994 0 0 0-.625.196 1.22 1.22 0 0 0-.387.554c-.09.239-.135.52-.135.845Zm5.916-2.728 1.002 1.907 1.026-1.907h1.552l-1.581 2.728 1.623 2.727h-1.544l-1.076-1.886-1.059 1.886h-1.562l1.619-2.727-1.562-2.728h1.562Z" fill="#fff"/><g clip-path="url(#a)"><rect x="403" y="5" width="31" height="16" rx="3" fill="#E8178A"/><path d="M406.692 17v-1.108l2.589-2.397c.22-.213.405-.405.554-.575.151-.17.266-.338.344-.501.078-.166.117-.344.117-.536a1.01 1.01 0 0 0-.145-.55.957.957 0 0 0-.398-.36 1.248 1.248 0 0 0-.572-.127c-.222 0-.416.045-.582.135a.93.93 0 0 0-.384.387 1.266 1.266 0 0 0-.134.6h-1.46c0-.476.108-.889.323-1.24.216-.35.517-.62.906-.813.388-.191.835-.287 1.342-.287.521 0 .974.092 1.36.277.388.182.69.435.906.76.215.324.323.696.323 1.115 0 .275-.055.546-.164.813-.106.268-.297.565-.571.891-.275.325-.662.714-1.162 1.169l-1.061 1.04v.05h3.054V17h-5.185Zm6.033-1.278V14.51l3.036-4.784h1.044v1.676h-.618l-1.914 3.03v.056h4.314v1.233h-5.862Zm3.49 1.278v-1.648l.029-.536V9.727h1.441V17h-1.47Zm3.411 2.046v-7.5h1.492v.916h.067c.066-.147.162-.296.288-.448.128-.154.293-.281.497-.383.206-.104.462-.157.767-.157.398 0 .765.105 1.101.313.336.206.605.517.806.934.201.414.302.934.302 1.559 0 .608-.098 1.122-.295 1.541-.194.417-.459.733-.795.948-.334.213-.708.32-1.123.32a1.75 1.75 0 0 1-.749-.146 1.567 1.567 0 0 1-.501-.366c-.13-.149-.229-.3-.298-.45h-.046v2.919h-1.513Zm1.481-4.773c0 .324.045.607.135.848.09.242.22.43.391.565.17.133.377.199.621.199a.975.975 0 0 0 .625-.203c.17-.137.299-.326.387-.568a2.42 2.42 0 0 0 .135-.841c0-.315-.044-.592-.131-.831a1.244 1.244 0 0 0-.387-.561.982.982 0 0 0-.629-.203.999.999 0 0 0-.625.196 1.22 1.22 0 0 0-.387.554c-.09.239-.135.52-.135.845Zm5.916-2.727 1.002 1.906 1.026-1.906h1.552l-1.581 2.727L430.645 17h-1.544l-1.076-1.886L426.966 17h-1.562l1.619-2.727-1.562-2.727h1.562Z" fill="#fff"/></g><path d="M393.75 5v15.008M390 5.504h7m-7 14h7" stroke="#E8178A"/><g clip-path="url(#b)"><rect x="403" y="60" width="31" height="16" rx="3" fill="#E8178A"/><path d="M406.692 72v-1.108l2.589-2.397c.22-.213.405-.405.554-.575.151-.17.266-.338.344-.501.078-.166.117-.344.117-.536a1.01 1.01 0 0 0-.145-.55.957.957 0 0 0-.398-.36 1.248 1.248 0 0 0-.572-.127c-.222 0-.416.045-.582.135a.93.93 0 0 0-.384.387 1.266 1.266 0 0 0-.134.6h-1.46c0-.476.108-.889.323-1.24.216-.35.517-.62.906-.813.388-.191.835-.287 1.342-.287.521 0 .974.092 1.36.277.388.182.69.435.906.76.215.324.323.696.323 1.115 0 .275-.055.546-.164.813-.106.268-.297.565-.571.891-.275.325-.662.714-1.162 1.169l-1.061 1.04v.05h3.054V72h-5.185Zm6.033-1.278V69.51l3.036-4.784h1.044v1.676h-.618l-1.914 3.03v.056h4.314v1.233h-5.862Zm3.49 1.278v-1.648l.029-.536v-5.089h1.441V72h-1.47Zm3.411 2.046v-7.5h1.492v.916h.067c.066-.147.162-.296.288-.448.128-.154.293-.281.497-.383.206-.105.462-.157.767-.157.398 0 .765.105 1.101.313.336.206.605.517.806.934.201.414.302.934.302 1.559 0 .608-.098 1.122-.295 1.541-.194.417-.459.733-.795.948-.334.213-.708.32-1.123.32a1.75 1.75 0 0 1-.749-.146 1.567 1.567 0 0 1-.501-.366c-.13-.149-.229-.3-.298-.45h-.046v2.919h-1.513Zm1.481-4.773c0 .324.045.607.135.848.09.242.22.43.391.565.17.133.377.199.621.199a.975.975 0 0 0 .625-.203c.17-.137.299-.326.387-.568.09-.243.135-.524.135-.841 0-.315-.044-.592-.131-.831a1.244 1.244 0 0 0-.387-.561.982.982 0 0 0-.629-.203.999.999 0 0 0-.625.196 1.22 1.22 0 0 0-.387.554c-.09.239-.135.52-.135.845Zm5.916-2.727 1.002 1.906 1.026-1.906h1.552l-1.581 2.727L430.645 72h-1.544l-1.076-1.886L426.966 72h-1.562l1.619-2.727-1.562-2.727h1.562Z" fill="#fff"/></g><path d="M393.75 60v15.008M390 60.504h7m-7 14h7" stroke="#E8178A"/><defs><clipPath id="a"><rect x="403" y="5" width="31" height="16" rx="3" fill="#fff"/></clipPath><clipPath id="b"><rect x="403" y="60" width="31" height="16" rx="3" fill="#fff"/></clipPath></defs></svg>