<svg width="492" height="59" viewBox="0 0 492 59" fill="none" xmlns="http://www.w3.org/2000/svg"><path fill="#F0F0F0" d="M0 0h454v28H0z"/><path d="M17.174 10.413s-.632.925.196 2.12c0 0 .13-.609 1.437-.609h1.569c1.481 0 2.592-1.465 1.895-2.977 0 0 1.045.113 1.395-.564.348-.676-.022-.947-.545-.947h-2.636c0 .485-.893.552-.893 0h-1.481s-1.111 0-1.133.97c0 0 .252-.158.501-.18v.258s-.305.057-.447.136c-.14.079-.348.293-.151.846.195.552.272.744.272.744s.316-.283.828-.283h.6c1.066 0 .87 1.071-.197 1.071s-1.209-.586-1.209-.586v.001Z" fill="#DB0000"/><path d="M22.74 9.297s.359.023.62-.214c0 0 2.363 1.906-1.143 5.74-3.508 3.834-.796 6.316-.796 6.316s-.631.631-.272 1.861c0 0-1.459-.853-2.575-2.301-1.612-2.093-2.598-5.295 1.83-7.85 0 0 2.923-1.522 2.335-3.552Zm-3.613-2.222s.472-.872 1.568-.872c.864 0 1.061-.46 1.061-.46S22.133 5 24.036 5c1.743 0 2.919.602 3.87 1.406 0 0-2.564-1.647-5.09.67h-3.689Z" fill="#DB0000"/><path d="M29.786 12.594c-.073-2.722-2.106-5.639-6.477-5.473 4.27-3.745 11.676 4.615 5.576 9.007 0 0 1.021-1.508.901-3.534Z" fill="#DB0000"/><path d="M23.963 7.421c5.33-.165 7.232 6.45 3.79 9.428l-3.456 1.73s-.45-1.504 1.22-3.264c1.671-1.758 3.282-5.051-1.335-7.217 0 0 .087-.45-.217-.676h-.002Z" fill="#DB0000"/><path d="M23.687 8.91s.261-.256.349-.466c3.964 1.713 3.34 4.616.973 7.052-1.453 1.548-1.003 3.218-1.003 3.218s-1.77 1.142-2.381 2.135c0 0-2.565-2.261.987-6.014 3.486-3.684 1.075-5.925 1.075-5.925Z" fill="#DB0000"/><path d="M41.65 19h-1.292l3.739-10.182h1.272L49.108 19h-1.293l-3.042-8.571h-.08L41.651 19Zm.478-3.977h5.21v1.093h-5.21v-1.093Zm18.072-3.66a1.56 1.56 0 0 0-.726-1.173c-.424-.278-.945-.417-1.561-.417-.451 0-.845.073-1.184.218a1.889 1.889 0 0 0-.785.602 1.442 1.442 0 0 0-.279.87c0 .272.065.506.194.701.133.192.302.353.508.482.205.126.42.23.646.313.225.08.432.145.621.194l1.034.279c.266.07.56.165.885.288.328.123.642.29.94.502.301.21.55.478.746.806.195.328.293.73.293 1.208a2.68 2.68 0 0 1-.433 1.491c-.285.444-.702.797-1.252 1.06-.547.261-1.212.392-1.994.392-.73 0-1.36-.118-1.894-.353-.53-.235-.948-.564-1.253-.984a2.809 2.809 0 0 1-.512-1.467h1.273c.033.384.162.703.387.954a2.1 2.1 0 0 0 .865.557c.352.12.73.18 1.134.18.47 0 .893-.077 1.268-.23.374-.155.67-.37.89-.646.218-.278.328-.603.328-.974 0-.338-.095-.613-.284-.825a2.08 2.08 0 0 0-.745-.517 7.834 7.834 0 0 0-1-.348l-1.253-.358c-.795-.23-1.425-.555-1.889-.98-.464-.424-.696-.98-.696-1.665 0-.57.154-1.067.463-1.492a3.07 3.07 0 0 1 1.252-.994 4.23 4.23 0 0 1 1.765-.358c.657 0 1.24.118 1.75.353.51.232.915.55 1.214.955.301.404.46.863.477 1.377H60.2ZM63.4 19v-7.636h1.173V19H63.4Zm.597-8.91a.834.834 0 0 1-.592-.233.75.75 0 0 1-.244-.562.75.75 0 0 1 .244-.561.834.834 0 0 1 .592-.234c.228 0 .424.078.586.234a.744.744 0 0 1 .249.561.744.744 0 0 1-.249.562.817.817 0 0 1-.586.234Zm3.899 4.316V19h-1.174v-7.636h1.134v1.193h.1c.178-.388.45-.7.815-.935.364-.239.835-.358 1.412-.358.517 0 .969.106 1.357.318.388.21.69.527.905.955.215.424.323.961.323 1.61V19h-1.174v-4.773c0-.6-.155-1.067-.467-1.402-.311-.338-.739-.507-1.282-.507-.375 0-.71.081-1.005.244-.291.162-.522.4-.69.71-.17.312-.254.69-.254 1.134Zm10.098 7.617c-.567 0-1.054-.073-1.462-.219a3.102 3.102 0 0 1-1.019-.567 3.103 3.103 0 0 1-.641-.745l.935-.657c.106.14.24.299.402.477.163.183.385.34.666.473.286.136.658.204 1.12.204.616 0 1.124-.15 1.525-.448.401-.298.602-.765.602-1.402v-1.55h-.1a6.32 6.32 0 0 1-.367.516 2.094 2.094 0 0 1-.677.542c-.291.156-.686.234-1.183.234-.616 0-1.17-.146-1.66-.438-.488-.292-.874-.716-1.159-1.273-.281-.556-.422-1.233-.422-2.028 0-.782.137-1.463.412-2.043.276-.584.658-1.034 1.149-1.353.49-.321 1.057-.482 1.7-.482.497 0 .892.083 1.183.249.295.162.52.348.676.557.16.205.282.374.368.507h.12v-1.213h1.133v7.855c0 .656-.149 1.19-.447 1.6a2.547 2.547 0 0 1-1.193.91 4.501 4.501 0 0 1-1.66.294Zm-.04-4.196c.471 0 .869-.108 1.194-.323.324-.216.571-.526.74-.93.17-.405.254-.888.254-1.452 0-.55-.083-1.036-.249-1.457a2.186 2.186 0 0 0-.736-.989c-.324-.239-.725-.358-1.203-.358-.497 0-.911.126-1.242.378a2.3 2.3 0 0 0-.741 1.014 3.921 3.921 0 0 0-.244 1.412c0 .53.083 1 .249 1.407.169.404.417.723.745.955.332.228.743.343 1.233.343Zm7.736 1.352c-.484 0-.923-.091-1.317-.273a2.26 2.26 0 0 1-.94-.8c-.232-.352-.348-.777-.348-1.274 0-.437.086-.792.259-1.064.172-.275.402-.49.69-.646.289-.156.607-.272.955-.348.352-.08.704-.142 1.06-.189.463-.06.84-.104 1.128-.134.291-.033.503-.088.636-.164.136-.076.204-.209.204-.398v-.04c0-.49-.134-.871-.403-1.143-.265-.272-.668-.408-1.208-.408-.56 0-1 .123-1.317.368-.319.245-.542.507-.672.786l-1.113-.398c.199-.464.464-.825.795-1.084.335-.262.7-.444 1.094-.547a4.54 4.54 0 0 1 1.173-.159c.246 0 .527.03.846.09.321.056.63.174.93.353.3.179.551.449.75.81.199.361.298.845.298 1.452V19h-1.173v-1.034h-.06c-.08.166-.212.343-.397.532-.186.189-.433.35-.741.482-.309.133-.685.199-1.129.199Zm.18-1.054c.463 0 .854-.091 1.172-.273a1.862 1.862 0 0 0 .975-1.616v-1.074c-.05.06-.16.114-.328.164a5.542 5.542 0 0 1-.577.124 26.343 26.343 0 0 1-1.123.15c-.306.04-.59.104-.856.193a1.474 1.474 0 0 0-.636.393c-.16.172-.239.408-.239.706 0 .408.151.716.453.925.305.205.69.308 1.158.308Zm5.462 3.739v-10.5h1.133v1.213h.14c.086-.133.205-.302.357-.507.156-.21.378-.395.667-.557.291-.166.686-.249 1.183-.249.643 0 1.21.161 1.7.482.49.322.873.778 1.148 1.368.276.59.413 1.286.413 2.088 0 .808-.137 1.51-.412 2.103-.276.59-.657 1.047-1.144 1.372-.487.321-1.049.482-1.685.482-.49 0-.884-.081-1.179-.243a2.184 2.184 0 0 1-.68-.562 7.527 7.527 0 0 1-.369-.527h-.099v4.037h-1.173Zm1.153-6.682c0 .576.085 1.085.254 1.526.169.438.416.78.74 1.03.325.245.723.367 1.194.367.49 0 .9-.13 1.228-.388a2.37 2.37 0 0 0 .745-1.054c.17-.444.254-.938.254-1.481 0-.537-.083-1.021-.249-1.452a2.243 2.243 0 0 0-.74-1.029c-.329-.255-.741-.383-1.238-.383-.478 0-.879.121-1.204.363-.324.239-.57.574-.735 1.004-.166.428-.249.927-.249 1.497Zm10.48 3.977c-.689 0-1.294-.164-1.814-.492a3.344 3.344 0 0 1-1.213-1.377c-.289-.59-.433-1.28-.433-2.068 0-.796.144-1.49.433-2.083a3.337 3.337 0 0 1 1.213-1.383c.52-.328 1.125-.492 1.814-.492.69 0 1.293.164 1.81.492.52.329.925.79 1.213 1.383.292.593.437 1.287.437 2.083 0 .788-.145 1.478-.437 2.068a3.298 3.298 0 0 1-1.213 1.377c-.517.328-1.12.492-1.81.492Zm0-1.054c.524 0 .955-.134 1.293-.403a2.38 2.38 0 0 0 .751-1.059c.162-.437.243-.911.243-1.421s-.081-.986-.243-1.427a2.41 2.41 0 0 0-.751-1.07c-.338-.27-.769-.407-1.293-.407-.523 0-.954.136-1.292.408a2.402 2.402 0 0 0-.751 1.069c-.163.44-.244.916-.244 1.427 0 .51.081.984.244 1.421.162.438.413.79.751 1.06.338.268.769.402 1.292.402Zm5.251.895v-7.636h1.134v1.153h.08c.139-.378.391-.684.755-.92a2.227 2.227 0 0 1 1.233-.353c.086 0 .194.002.323.005.13.004.227.009.294.015v1.193a3.46 3.46 0 0 0-.274-.044 2.69 2.69 0 0 0-.442-.035 2.09 2.09 0 0 0-.995.233 1.765 1.765 0 0 0-.686.637 1.72 1.72 0 0 0-.248.92V19h-1.174Zm8.179.16c-.736 0-1.371-.163-1.904-.488a3.263 3.263 0 0 1-1.228-1.372c-.285-.59-.428-1.276-.428-2.059 0-.782.143-1.471.428-2.068.288-.6.689-1.067 1.203-1.402.517-.338 1.12-.507 1.809-.507.398 0 .791.067 1.179.2.387.132.74.347 1.059.645.318.295.571.687.76 1.174.189.487.284 1.087.284 1.8v.496h-5.887v-1.014h4.693c0-.43-.086-.815-.258-1.153a1.948 1.948 0 0 0-.726-.8c-.311-.196-.679-.294-1.104-.294-.467 0-.871.116-1.213.348a2.286 2.286 0 0 0-.78.895 2.62 2.62 0 0 0-.274 1.183v.677c0 .576.1 1.065.299 1.466.202.398.482.701.84.91.358.205.774.308 1.248.308.308 0 .586-.043.835-.13a1.77 1.77 0 0 0 .651-.397c.183-.179.323-.4.423-.666l1.133.318c-.119.385-.32.723-.601 1.014-.282.289-.63.514-1.044.677-.415.159-.88.238-1.397.238ZM132.398 12a3.578 3.578 0 0 0-.432-.9 2.772 2.772 0 0 0-.632-.686 2.651 2.651 0 0 0-.825-.432c-.308-.1-.646-.15-1.014-.15a3.02 3.02 0 0 0-1.646.468c-.494.311-.886.77-1.178 1.377-.292.606-.438 1.35-.438 2.232 0 .882.148 1.626.443 2.232.295.607.694 1.066 1.198 1.378a3.169 3.169 0 0 0 1.7.467c.584 0 1.097-.125 1.542-.373a2.65 2.65 0 0 0 1.044-1.064c.252-.46.377-1.003.377-1.626l.378.08h-3.062v-1.094h3.878v1.094c0 .838-.179 1.567-.537 2.187-.355.62-.845 1.1-1.472 1.442-.623.338-1.339.507-2.148.507-.901 0-1.693-.212-2.376-.636-.679-.424-1.21-1.028-1.591-1.81-.378-.782-.567-1.71-.567-2.784 0-.805.108-1.53.323-2.173a4.813 4.813 0 0 1 .925-1.65 4.052 4.052 0 0 1 1.412-1.044 4.366 4.366 0 0 1 1.795-.363c.537 0 1.037.081 1.501.244a4.031 4.031 0 0 1 2.168 1.73 4 4 0 0 1 .507 1.347h-1.273Zm6.388 7.16c-.69 0-1.295-.165-1.815-.493a3.34 3.34 0 0 1-1.213-1.377c-.289-.59-.433-1.28-.433-2.068 0-.796.144-1.49.433-2.083a3.333 3.333 0 0 1 1.213-1.383c.52-.328 1.125-.492 1.815-.492.689 0 1.292.164 1.809.492.521.329.925.79 1.213 1.383.292.593.438 1.287.438 2.083 0 .788-.146 1.478-.438 2.068a3.291 3.291 0 0 1-1.213 1.377c-.517.328-1.12.492-1.809.492Zm0-1.055c.523 0 .954-.134 1.292-.403a2.38 2.38 0 0 0 .751-1.059c.162-.437.243-.911.243-1.421s-.081-.986-.243-1.427a2.41 2.41 0 0 0-.751-1.07c-.338-.27-.769-.407-1.292-.407-.524 0-.955.136-1.293.408a2.41 2.41 0 0 0-.751 1.069 4.1 4.1 0 0 0-.243 1.427c0 .51.081.984.243 1.421.163.438.413.79.751 1.06.338.268.769.402 1.293.402Zm11.222-6.741L147.184 19h-1.193l-2.824-7.636h1.272l2.108 6.085h.08l2.108-6.085h1.273Zm4.477 7.795c-.736 0-1.371-.162-1.905-.487a3.276 3.276 0 0 1-1.228-1.372c-.285-.59-.427-1.276-.427-2.059 0-.782.142-1.471.427-2.068.289-.6.69-1.067 1.204-1.402.517-.338 1.12-.507 1.809-.507.398 0 .791.067 1.179.2.387.132.74.347 1.058.645.319.295.572.687.761 1.174.189.487.283 1.087.283 1.8v.496h-5.886v-1.014h4.693c0-.43-.086-.815-.258-1.153a1.948 1.948 0 0 0-.726-.8c-.312-.196-.68-.294-1.104-.294-.467 0-.871.116-1.213.348a2.286 2.286 0 0 0-.78.895 2.62 2.62 0 0 0-.274 1.183v.677c0 .576.1 1.065.298 1.466.203.398.483.701.841.91.358.205.774.308 1.248.308.308 0 .586-.043.835-.13a1.77 1.77 0 0 0 .651-.397c.182-.179.323-.4.423-.666l1.133.318c-.119.385-.32.723-.601 1.014-.282.289-.63.514-1.044.677-.415.159-.88.238-1.397.238Zm4.946-.159v-7.636h1.134v1.153h.079a1.84 1.84 0 0 1 .756-.92 2.227 2.227 0 0 1 1.233-.353c.086 0 .194.002.323.005.129.004.227.009.293.015v1.193a3.321 3.321 0 0 0-.273-.044 2.69 2.69 0 0 0-.442-.035c-.372 0-.703.078-.995.233a1.712 1.712 0 0 0-.934 1.556V19h-1.174Zm6.383-4.594V19h-1.174v-7.636h1.134v1.193h.099c.179-.388.451-.7.816-.935.364-.239.835-.358 1.411-.358.518 0 .97.106 1.358.318.388.21.689.527.905.955.215.424.323.961.323 1.61V19h-1.174v-4.773c0-.6-.155-1.067-.467-1.402-.311-.338-.739-.507-1.283-.507-.374 0-.709.081-1.004.244-.291.162-.522.4-.691.71-.169.312-.253.69-.253 1.134ZM172.83 19v-7.636h1.133v1.193h.1a1.92 1.92 0 0 1 .77-.95c.355-.228.781-.343 1.278-.343.504 0 .923.115 1.258.343.338.226.601.542.79.95h.08a2.22 2.22 0 0 1 .88-.94c.391-.235.86-.353 1.407-.353.683 0 1.241.214 1.675.642.434.424.651 1.085.651 1.983V19h-1.173v-5.11c0-.564-.154-.967-.462-1.209a1.711 1.711 0 0 0-1.089-.363c-.537 0-.953.163-1.248.487-.295.322-.442.73-.442 1.223V19h-1.194v-5.23c0-.434-.14-.784-.422-1.05-.282-.268-.645-.402-1.089-.402-.305 0-.59.081-.855.244a1.834 1.834 0 0 0-.636.676 1.997 1.997 0 0 0-.239.99V19h-1.173Zm15.369.16c-.735 0-1.37-.163-1.904-.488a3.276 3.276 0 0 1-1.228-1.372c-.285-.59-.427-1.276-.427-2.059 0-.782.142-1.471.427-2.068.289-.6.69-1.067 1.203-1.402.517-.338 1.121-.507 1.81-.507.398 0 .791.067 1.178.2.388.132.741.347 1.059.645.318.295.572.687.761 1.174.189.487.283 1.087.283 1.8v.496h-5.886v-1.014h4.693c0-.43-.086-.815-.258-1.153a1.948 1.948 0 0 0-.726-.8c-.312-.196-.68-.294-1.104-.294-.467 0-.872.116-1.213.348a2.297 2.297 0 0 0-.781.895 2.632 2.632 0 0 0-.273 1.183v.677c0 .576.099 1.065.298 1.466.203.398.483.701.841.91.357.205.773.308 1.247.308.309 0 .587-.043.836-.13a1.77 1.77 0 0 0 .651-.397c.182-.179.323-.4.422-.666l1.134.318c-.119.385-.32.723-.602 1.014a2.92 2.92 0 0 1-1.044.677c-.414.159-.88.238-1.397.238Zm6.12-4.754V19h-1.173v-7.636h1.134v1.193h.099c.179-.388.451-.7.815-.935.365-.239.836-.358 1.412-.358.517 0 .97.106 1.358.318.387.21.689.527.904.955.216.424.324.961.324 1.61V19h-1.174v-4.773c0-.6-.155-1.067-.467-1.402-.312-.338-.739-.507-1.283-.507-.374 0-.709.081-1.004.244a1.74 1.74 0 0 0-.691.71c-.169.312-.254.69-.254 1.134Zm10.338-3.042v.994h-3.958v-.994h3.958Zm-2.804-1.83h1.173v7.278c0 .332.048.58.144.746.1.163.225.272.378.328.156.053.32.08.492.08.129 0 .235-.007.318-.02l.199-.04.239 1.054c-.08.03-.191.06-.333.09-.143.033-.323.05-.542.05-.332 0-.656-.072-.975-.214a1.942 1.942 0 0 1-.785-.652c-.206-.291-.308-.66-.308-1.103V9.534ZM210.936 19h-1.293l3.739-10.182h1.272L218.393 19H217.1l-3.042-8.571h-.08L210.936 19Zm.477-3.977h5.21v1.093h-5.21v-1.093Zm11.489 7c-.566 0-1.054-.073-1.461-.219a3.09 3.09 0 0 1-1.019-.567 3.09 3.09 0 0 1-.642-.745l.935-.657c.106.14.24.299.403.477.162.183.384.34.666.473.285.136.658.204 1.118.204.617 0 1.126-.15 1.527-.448.401-.298.601-.765.601-1.402v-1.55h-.099c-.086.138-.209.31-.368.516a2.088 2.088 0 0 1-.676.542c-.292.156-.686.234-1.184.234-.616 0-1.17-.146-1.66-.438-.487-.292-.873-.716-1.158-1.273-.282-.556-.423-1.233-.423-2.028 0-.782.138-1.463.413-2.043.275-.584.658-1.034 1.148-1.353.491-.321 1.057-.482 1.7-.482.498 0 .892.083 1.184.249.295.162.52.348.676.557.159.205.281.374.368.507h.119v-1.213h1.133v7.855c0 .656-.149 1.19-.447 1.6a2.55 2.55 0 0 1-1.193.91 4.502 4.502 0 0 1-1.661.294Zm-.039-4.196c.47 0 .868-.108 1.193-.323.325-.216.571-.526.741-.93.169-.405.253-.888.253-1.452 0-.55-.083-1.036-.249-1.457-.165-.42-.41-.75-.735-.989s-.726-.358-1.203-.358c-.498 0-.912.126-1.243.378-.328.252-.575.59-.741 1.014a3.93 3.93 0 0 0-.244 1.412c0 .53.083 1 .249 1.407.169.404.417.723.746.955.331.228.742.343 1.233.343Zm8.69 1.332c-.736 0-1.371-.162-1.904-.487a3.263 3.263 0 0 1-1.228-1.372c-.285-.59-.428-1.276-.428-2.059 0-.782.143-1.471.428-2.068.288-.6.689-1.067 1.203-1.402.517-.338 1.12-.507 1.81-.507.397 0 .79.067 1.178.2.388.132.741.347 1.059.645.318.295.572.687.76 1.174.189.487.284 1.087.284 1.8v.496h-5.887v-1.014h4.694c0-.43-.087-.815-.259-1.153a1.948 1.948 0 0 0-.726-.8c-.311-.196-.679-.294-1.103-.294-.468 0-.872.116-1.213.348a2.28 2.28 0 0 0-.781.895 2.632 2.632 0 0 0-.273 1.183v.677c0 .576.099 1.065.298 1.466.202.398.482.701.84.91.358.205.774.308 1.248.308.308 0 .587-.043.835-.13a1.77 1.77 0 0 0 .651-.397c.183-.179.324-.4.423-.666l1.134.318a2.51 2.51 0 0 1-.602 1.014c-.282.289-.63.514-1.044.677-.414.159-.88.238-1.397.238Zm6.12-4.753V19H236.5v-7.636h1.133v1.193h.1c.179-.388.45-.7.815-.935.365-.239.835-.358 1.412-.358.517 0 .969.106 1.357.318.388.21.69.527.905.955.215.424.323.961.323 1.61V19h-1.173v-4.773c0-.6-.156-1.067-.468-1.402-.311-.338-.739-.507-1.282-.507-.375 0-.709.081-1.004.244a1.75 1.75 0 0 0-.692.71c-.169.312-.253.69-.253 1.134Zm10.118 4.753c-.716 0-1.332-.169-1.849-.507a3.302 3.302 0 0 1-1.193-1.397c-.279-.593-.418-1.271-.418-2.033 0-.776.143-1.46.428-2.054a3.375 3.375 0 0 1 1.203-1.397c.517-.338 1.12-.507 1.809-.507.537 0 1.021.1 1.452.299a2.78 2.78 0 0 1 1.059.835 2.6 2.6 0 0 1 .512 1.253h-1.173a1.818 1.818 0 0 0-.597-.925c-.305-.272-.716-.408-1.233-.408-.457 0-.858.12-1.203.358-.341.236-.608.569-.8 1-.189.427-.284.93-.284 1.506 0 .59.093 1.103.279 1.541.189.438.454.777.795 1.02.345.241.749.362 1.213.362a2.1 2.1 0 0 0 .831-.159c.248-.106.459-.259.631-.457.172-.2.295-.438.368-.716h1.173a2.713 2.713 0 0 1-1.521 2.073c-.424.209-.918.313-1.482.313Zm5.474 2.705a2.58 2.58 0 0 1-.532-.05 1.398 1.398 0 0 1-.323-.09l.298-1.034c.285.073.537.1.756.08a.906.906 0 0 0 .582-.293c.172-.173.329-.453.472-.84l.219-.597-2.824-7.676h1.273l2.108 6.085h.079l2.108-6.085h1.273l-3.242 8.75a3.3 3.3 0 0 1-.542.979 2.024 2.024 0 0 1-.75.582c-.282.126-.6.189-.955.189ZM266.248 19l-2.784-10.182h1.253l2.128 8.293h.099l2.168-8.293h1.392l2.168 8.293h.099l2.128-8.293h1.253L273.368 19h-1.273l-2.247-8.114h-.08L267.521 19h-1.273Zm13.772.16c-.736 0-1.371-.163-1.904-.488a3.263 3.263 0 0 1-1.228-1.372c-.285-.59-.428-1.276-.428-2.059 0-.782.143-1.471.428-2.068.288-.6.689-1.067 1.203-1.402.517-.338 1.12-.507 1.809-.507.398 0 .791.067 1.179.2.387.132.74.347 1.059.645.318.295.571.687.76 1.174.189.487.284 1.087.284 1.8v.496h-5.887v-1.014h4.693c0-.43-.086-.815-.258-1.153a1.948 1.948 0 0 0-.726-.8c-.311-.196-.679-.294-1.104-.294-.467 0-.871.116-1.213.348a2.286 2.286 0 0 0-.78.895 2.62 2.62 0 0 0-.274 1.183v.677c0 .576.1 1.065.299 1.466.202.398.482.701.84.91.358.205.774.308 1.248.308.308 0 .586-.043.835-.13a1.77 1.77 0 0 0 .651-.397c.183-.179.323-.4.423-.666l1.133.318c-.119.385-.32.723-.601 1.014-.282.289-.63.514-1.044.677-.415.159-.88.238-1.397.238Zm5.106-.16V8.818h1.173v3.759h.099c.086-.133.206-.302.358-.507.156-.21.378-.395.666-.557.292-.166.686-.249 1.184-.249.643 0 1.209.161 1.7.482.49.322.873.778 1.148 1.368.275.59.413 1.286.413 2.088 0 .808-.138 1.51-.413 2.103-.275.59-.656 1.047-1.143 1.372-.487.321-1.049.482-1.685.482-.491 0-.884-.081-1.179-.243a2.182 2.182 0 0 1-.681-.562 7.5 7.5 0 0 1-.368-.527h-.139V19h-1.133Zm1.153-3.818c0 .576.084 1.085.253 1.526.17.438.416.78.741 1.03.325.245.723.367 1.193.367.491 0 .9-.13 1.228-.388a2.37 2.37 0 0 0 .746-1.054c.169-.444.254-.938.254-1.481 0-.537-.083-1.021-.249-1.452a2.237 2.237 0 0 0-.741-1.029c-.328-.255-.74-.383-1.238-.383-.477 0-.878.121-1.203.363-.324.239-.57.574-.735 1.004-.166.428-.249.927-.249 1.497Zm12.792-2.108-1.054.298a1.955 1.955 0 0 0-.293-.512 1.425 1.425 0 0 0-.518-.417c-.218-.11-.498-.165-.84-.165-.467 0-.856.108-1.168.324-.308.212-.462.482-.462.81 0 .292.106.522.318.691.212.169.543.31.994.423l1.134.278c.682.166 1.191.42 1.526.76.335.339.502.774.502 1.308 0 .438-.126.829-.378 1.174-.248.344-.596.616-1.044.815-.447.199-.968.298-1.561.298-.779 0-1.423-.169-1.934-.507-.51-.338-.833-.832-.969-1.482l1.113-.278c.106.411.307.72.602.925.298.205.688.308 1.168.308.547 0 .981-.116 1.303-.348.325-.235.487-.517.487-.845a.89.89 0 0 0-.278-.666c-.186-.183-.471-.319-.856-.408l-1.272-.298c-.7-.166-1.213-.423-1.541-.77-.325-.352-.488-.791-.488-1.318 0-.431.121-.812.363-1.144a2.477 2.477 0 0 1 1-.78 3.504 3.504 0 0 1 1.441-.284c.756 0 1.349.166 1.78.497.434.332.743.77.925 1.313ZM300.976 19v-7.636h1.174V19h-1.174Zm.597-8.91a.835.835 0 0 1-.592-.233.752.752 0 0 1-.243-.562.75.75 0 0 1 .243-.561.835.835 0 0 1 .592-.234c.228 0 .424.078.586.234a.743.743 0 0 1 .249.561.743.743 0 0 1-.249.562.816.816 0 0 1-.586.234Zm6.046 1.274v.994h-3.957v-.994h3.957Zm-2.803-1.83h1.173v7.278c0 .332.048.58.144.746a.744.744 0 0 0 .378.328c.156.053.32.08.492.08.129 0 .235-.007.318-.02l.199-.04.239 1.054c-.08.03-.191.06-.333.09-.143.033-.324.05-.542.05a2.37 2.37 0 0 1-.975-.214 1.936 1.936 0 0 1-.785-.652c-.206-.291-.308-.66-.308-1.103V9.534Zm7.688 9.625c-.736 0-1.37-.162-1.904-.487a3.27 3.27 0 0 1-1.228-1.372c-.285-.59-.428-1.276-.428-2.059 0-.782.143-1.471.428-2.068.288-.6.689-1.067 1.203-1.402.517-.338 1.12-.507 1.81-.507.397 0 .79.067 1.178.2.388.132.741.347 1.059.645.318.295.572.687.761 1.174.189.487.283 1.087.283 1.8v.496h-5.886v-1.014h4.693c0-.43-.086-.815-.259-1.153a1.948 1.948 0 0 0-.726-.8c-.311-.196-.679-.294-1.103-.294-.468 0-.872.116-1.213.348a2.289 2.289 0 0 0-.781.895 2.632 2.632 0 0 0-.273 1.183v.677c0 .576.099 1.065.298 1.466.202.398.482.701.84.91.358.205.774.308 1.248.308.308 0 .587-.043.835-.13.252-.089.469-.221.652-.397.182-.179.323-.4.422-.666l1.134.318a2.51 2.51 0 0 1-.602 1.014c-.282.289-.63.514-1.044.677-.414.159-.88.238-1.397.238Z" fill="#344054"/><path d="M322.233 19V8.818h1.233v4.534h5.429V8.818h1.233V19h-1.233v-4.554h-5.429V19h-1.233Zm13.306.16c-.689 0-1.294-.165-1.814-.493a3.34 3.34 0 0 1-1.213-1.377c-.289-.59-.433-1.28-.433-2.068 0-.796.144-1.49.433-2.083a3.333 3.333 0 0 1 1.213-1.383c.52-.328 1.125-.492 1.814-.492.69 0 1.293.164 1.81.492.52.329.925.79 1.213 1.383.292.593.438 1.287.438 2.083 0 .788-.146 1.478-.438 2.068a3.298 3.298 0 0 1-1.213 1.377c-.517.328-1.12.492-1.81.492Zm0-1.055c.524 0 .955-.134 1.293-.403a2.38 2.38 0 0 0 .751-1.059c.162-.437.243-.911.243-1.421s-.081-.986-.243-1.427a2.41 2.41 0 0 0-.751-1.07c-.338-.27-.769-.407-1.293-.407-.523 0-.954.136-1.292.408a2.402 2.402 0 0 0-.751 1.069 4.1 4.1 0 0 0-.244 1.427c0 .51.082.984.244 1.421.162.438.413.79.751 1.06.338.268.769.402 1.292.402Zm6.722.895-2.327-7.636h1.233l1.651 5.846h.079l1.631-5.846h1.253l1.611 5.826h.079l1.651-5.826h1.233L348.028 19h-1.153l-1.671-5.867h-.119L343.414 19h-1.153Zm16.903-7.636v.994h-3.957v-.994h3.957Zm-2.804-1.83h1.174v7.278c0 .332.048.58.144.746a.744.744 0 0 0 .378.328c.156.053.32.08.492.08.129 0 .235-.007.318-.02l.199-.04.239 1.054c-.08.03-.191.06-.333.09-.143.033-.324.05-.542.05a2.37 2.37 0 0 1-.975-.214 1.93 1.93 0 0 1-.785-.652c-.206-.291-.309-.66-.309-1.103V9.534Zm7.59 9.625c-.69 0-1.295-.164-1.815-.492a3.346 3.346 0 0 1-1.213-1.377c-.288-.59-.433-1.28-.433-2.068 0-.796.145-1.49.433-2.083a3.34 3.34 0 0 1 1.213-1.383c.52-.328 1.125-.492 1.815-.492.689 0 1.292.164 1.809.492.521.329.925.79 1.213 1.383.292.593.438 1.287.438 2.083 0 .788-.146 1.478-.438 2.068a3.291 3.291 0 0 1-1.213 1.377c-.517.328-1.12.492-1.809.492Zm0-1.054c.523 0 .954-.134 1.292-.403a2.38 2.38 0 0 0 .751-1.059c.162-.437.244-.911.244-1.421s-.082-.986-.244-1.427a2.41 2.41 0 0 0-.751-1.07c-.338-.27-.769-.407-1.292-.407-.524 0-.955.136-1.293.408a2.41 2.41 0 0 0-.751 1.069 4.1 4.1 0 0 0-.243 1.427c0 .51.081.984.243 1.421.163.438.413.79.751 1.06.338.268.769.402 1.293.402Zm9.188.895v-7.636h1.174V19h-1.174Zm.597-8.91a.835.835 0 0 1-.592-.233.752.752 0 0 1-.243-.562.75.75 0 0 1 .243-.561.835.835 0 0 1 .592-.234c.229 0 .424.078.587.234a.746.746 0 0 1 .248.561.746.746 0 0 1-.248.562.818.818 0 0 1-.587.234Zm5.609 9.07c-.636 0-1.198-.162-1.685-.483-.487-.325-.869-.782-1.144-1.372-.275-.594-.412-1.295-.412-2.103 0-.802.137-1.498.412-2.088.275-.59.658-1.046 1.149-1.368.49-.321 1.057-.482 1.7-.482.497 0 .89.083 1.178.249.292.162.514.348.666.557.156.205.277.374.363.507h.1V8.818h1.173V19h-1.133v-1.173h-.14a7.195 7.195 0 0 1-.368.527 2.182 2.182 0 0 1-.681.562c-.295.162-.687.243-1.178.243Zm.159-1.055c.471 0 .869-.122 1.193-.368.325-.248.572-.591.741-1.029.169-.44.254-.95.254-1.526 0-.57-.083-1.07-.249-1.497-.166-.43-.411-.765-.736-1.004-.324-.242-.726-.363-1.203-.363-.497 0-.911.128-1.243.383a2.286 2.286 0 0 0-.74 1.03c-.163.43-.244.914-.244 1.45 0 .544.083 1.038.249 1.482.169.441.417.793.745 1.054.332.259.743.388 1.233.388Zm8.855 1.054c-.736 0-1.371-.162-1.905-.487a3.276 3.276 0 0 1-1.228-1.372c-.285-.59-.427-1.276-.427-2.059 0-.782.142-1.471.427-2.068.289-.6.69-1.067 1.204-1.402.517-.338 1.12-.507 1.809-.507.398 0 .791.067 1.179.2.387.132.74.347 1.058.645.319.295.572.687.761 1.174.189.487.284 1.087.284 1.8v.496h-5.887v-1.014h4.693c0-.43-.086-.815-.258-1.153a1.948 1.948 0 0 0-.726-.8c-.312-.196-.679-.294-1.104-.294-.467 0-.871.116-1.213.348a2.286 2.286 0 0 0-.78.895 2.62 2.62 0 0 0-.274 1.183v.677c0 .576.1 1.065.299 1.466.202.398.482.701.84.91.358.205.774.308 1.248.308.308 0 .586-.043.835-.13a1.77 1.77 0 0 0 .651-.397c.182-.179.323-.4.423-.666l1.133.318c-.119.385-.32.723-.601 1.014-.282.289-.63.514-1.044.677-.415.159-.88.238-1.397.238Zm6.12-4.753V19h-1.174v-7.636h1.134v1.193h.099c.179-.388.451-.7.816-.935.364-.239.835-.358 1.412-.358.517 0 .969.106 1.357.318.388.21.689.527.905.955.215.424.323.961.323 1.61V19h-1.174v-4.773c0-.6-.155-1.067-.467-1.402-.311-.338-.739-.507-1.283-.507-.374 0-.709.081-1.004.244-.291.162-.522.4-.691.71-.169.312-.253.69-.253 1.134Zm10.337-3.042v.994h-3.958v-.994h3.958Zm-2.804-1.83h1.173v7.278c0 .332.048.58.144.746.1.163.226.272.378.328.156.053.32.08.492.08.13 0 .236-.007.319-.02l.198-.04.239 1.054c-.08.03-.191.06-.333.09-.143.033-.323.05-.542.05a2.36 2.36 0 0 1-.974-.214 1.939 1.939 0 0 1-.786-.652c-.205-.291-.308-.66-.308-1.103V9.534ZM406.58 19v-7.636h1.173V19h-1.173Zm.596-8.91a.833.833 0 0 1-.591-.233.749.749 0 0 1-.244-.562c0-.218.081-.406.244-.561a.833.833 0 0 1 .591-.234c.229 0 .425.078.587.234a.743.743 0 0 1 .249.561.743.743 0 0 1-.249.562.817.817 0 0 1-.587.234Zm6.127 1.274v.994h-4.117v-.994h4.117ZM410.419 19v-8.69c0-.438.103-.802.308-1.094.206-.292.473-.51.801-.656a2.528 2.528 0 0 1 1.039-.22c.288 0 .523.024.706.07.182.047.318.09.407.13l-.338 1.014a5.46 5.46 0 0 0-.248-.075 1.511 1.511 0 0 0-.408-.044c-.388 0-.668.097-.84.293-.169.196-.254.482-.254.86V19h-1.173Zm5.284 2.864a2.56 2.56 0 0 1-.532-.05 1.41 1.41 0 0 1-.324-.09l.299-1.034c.285.073.537.1.755.08a.906.906 0 0 0 .582-.293c.172-.173.33-.453.472-.84l.219-.597-2.824-7.676h1.273l2.108 6.085h.08l2.108-6.085h1.272l-3.241 8.75c-.146.394-.327.72-.542.979a2.035 2.035 0 0 1-.751.582c-.282.126-.6.189-.954.189Z" fill="#2F5FD0"/><path d="M321 21.784h18.716v.955H321v-.955Zm18.457 0h20.403v.955h-20.403v-.955Zm20.316 0h32.462v.955h-32.462v-.955Zm32.457 0h8.194v.955h-8.194v-.955Zm8.19 0h5.091v.955h-5.091v-.955Zm5.086 0h8.373v.955h-8.373v-.955Zm8.367 0h7.796v.955h-7.796v-.955Z" fill="#2F5FD0"/><path fill-rule="evenodd" clip-rule="evenodd" d="M428.136 10.904a.45.45 0 0 1 .326-.135.462.462 0 0 1 .327.135L434 16.116l5.211-5.212a.464.464 0 0 1 .754.15.466.466 0 0 1-.1.504l-5.538 5.538a.466.466 0 0 1-.504.1.466.466 0 0 1-.15-.1l-5.537-5.538a.467.467 0 0 1 0-.653Z" fill="#2F5FD0"/><g clip-path="url(#a)"><path fill="#E8178A" fill-opacity=".24" d="M34 0h4v28h-4z"/></g><g clip-path="url(#b)"><path fill="#E8178A" fill-opacity=".24" d="M317 0h4v28h-4z"/></g><g clip-path="url(#c)"><path fill="#E8178A" fill-opacity=".24" d="M423 0h4v28h-4z"/></g><path d="M34 36.5h4" stroke="#E8178A"/><rect x="20" y="41" width="31" height="18" rx="3" fill="#E8178A"/><path d="M26.48 52.722V51.51l3.036-4.784h1.044v1.676h-.618l-1.914 3.03v.056h4.314v1.233H26.48ZM29.97 54v-1.648l.029-.536v-5.089h1.441V54h-1.47Zm3.411 2.045v-7.5h1.492v.917h.067c.066-.147.162-.296.288-.448a1.49 1.49 0 0 1 .497-.383c.206-.105.461-.157.767-.157.398 0 .765.105 1.1.313.337.206.606.517.807.934.201.414.302.934.302 1.559 0 .608-.099 1.122-.295 1.541-.194.417-.46.733-.796.948-.333.213-.707.32-1.122.32-.293 0-.543-.049-.749-.146a1.55 1.55 0 0 1-.5-.366 1.9 1.9 0 0 1-.299-.45h-.046v2.918H33.38Zm1.48-4.772c0 .324.046.607.136.848.09.242.22.43.39.565a.98.98 0 0 0 .622.199.975.975 0 0 0 .625-.203c.17-.137.3-.326.387-.568.09-.243.135-.524.135-.841a2.41 2.41 0 0 0-.131-.831 1.237 1.237 0 0 0-.388-.561.98.98 0 0 0-.628-.203 1 1 0 0 0-.625.196 1.22 1.22 0 0 0-.387.554c-.09.239-.135.52-.135.845Zm5.917-2.728 1.002 1.907 1.026-1.907h1.552l-1.58 2.728L44.4 54h-1.544l-1.077-1.886L40.721 54H39.16l1.62-2.727-1.563-2.728h1.562Z" fill="#fff"/><path stroke="#E8178A" d="M34.5 40v-7m3 7v-7"/><rect x="409" y="41" width="31" height="18" rx="3" fill="#E8178A"/><path d="M415.479 52.722V51.51l3.037-4.784h1.044v1.676h-.618l-1.914 3.03v.056h4.314v1.233h-5.863ZM418.97 54v-1.648l.029-.536v-5.089h1.441V54h-1.47Zm3.411 2.045v-7.5h1.492v.917h.067c.066-.147.162-.296.288-.448a1.49 1.49 0 0 1 .497-.383c.206-.105.461-.157.767-.157.398 0 .765.105 1.101.313.336.206.605.517.806.934.201.414.302.934.302 1.559 0 .608-.099 1.122-.295 1.541-.194.417-.459.733-.796.948-.333.213-.707.32-1.122.32a1.75 1.75 0 0 1-.749-.146 1.545 1.545 0 0 1-.501-.366c-.13-.149-.229-.3-.298-.45h-.046v2.918h-1.513Zm1.481-4.772c0 .324.045.607.135.848.09.242.22.43.39.565a.984.984 0 0 0 .622.199.977.977 0 0 0 .625-.203c.17-.137.299-.326.387-.568.09-.243.135-.524.135-.841 0-.315-.044-.592-.131-.831a1.238 1.238 0 0 0-.388-.561.98.98 0 0 0-.628-.203.999.999 0 0 0-.625.196 1.22 1.22 0 0 0-.387.554c-.09.239-.135.52-.135.845Zm5.916-2.728 1.001 1.907 1.027-1.907h1.552l-1.581 2.728L433.4 54h-1.545l-1.076-1.886L429.721 54h-1.562l1.619-2.727-1.562-2.728h1.562Z" fill="#fff"/><path d="M423 36.5h4m-3.5 3.5v-7m3 7v-7" stroke="#E8178A"/><rect x="303" y="41" width="31" height="18" rx="3" fill="#E8178A"/><path d="M309.479 52.722V51.51l3.037-4.784h1.044v1.676h-.618l-1.914 3.03v.056h4.314v1.233h-5.863ZM312.97 54v-1.648l.029-.536v-5.089h1.441V54h-1.47Zm3.411 2.045v-7.5h1.492v.917h.067c.066-.147.162-.296.288-.448a1.49 1.49 0 0 1 .497-.383c.206-.105.461-.157.767-.157.398 0 .765.105 1.101.313.336.206.605.517.806.934.201.414.302.934.302 1.559 0 .608-.099 1.122-.295 1.541-.194.417-.459.733-.796.948-.333.213-.707.32-1.122.32a1.75 1.75 0 0 1-.749-.146 1.545 1.545 0 0 1-.501-.366c-.13-.149-.229-.3-.298-.45h-.046v2.918h-1.513Zm1.481-4.772c0 .324.045.607.135.848.09.242.22.43.39.565a.984.984 0 0 0 .622.199.977.977 0 0 0 .625-.203c.17-.137.299-.326.387-.568.09-.243.135-.524.135-.841 0-.315-.044-.592-.131-.831a1.238 1.238 0 0 0-.388-.561.98.98 0 0 0-.628-.203.999.999 0 0 0-.625.196 1.22 1.22 0 0 0-.387.554c-.09.239-.135.52-.135.845Zm5.916-2.728 1.001 1.907 1.027-1.907h1.552l-1.581 2.728L327.4 54h-1.545l-1.076-1.886L323.721 54h-1.562l1.619-2.727-1.562-2.728h1.562Z" fill="#fff"/><path d="M317 36.5h4m-3.5 3.5v-7m3 7v-7" stroke="#E8178A"/><path d="M450.5 0v28" stroke="#1745E8"/><rect x="455" y="5" width="37" height="18" rx="3" fill="#1745E8"/><path d="M461.589 18v-1.108l2.589-2.397c.22-.213.405-.405.554-.575.152-.17.267-.338.345-.501.078-.166.117-.344.117-.536a1.01 1.01 0 0 0-.146-.55.954.954 0 0 0-.397-.36 1.25 1.25 0 0 0-.572-.127c-.223 0-.417.045-.583.135a.933.933 0 0 0-.383.387c-.09.168-.135.368-.135.6h-1.46c0-.476.108-.889.324-1.24.215-.35.517-.62.905-.813.388-.191.836-.287 1.342-.287.521 0 .975.092 1.361.277.388.182.69.435.905.76.216.324.323.696.323 1.115 0 .275-.054.546-.163.813-.107.268-.297.565-.572.891-.274.325-.662.714-1.161 1.169l-1.062 1.04v.05h3.054V18h-5.185Zm9.012.1c-.546 0-1.033-.09-1.459-.267-.424-.18-.757-.425-.998-.735a1.674 1.674 0 0 1-.362-1.055c0-.303.068-.58.206-.834.139-.256.329-.468.568-.636.239-.17.507-.28.802-.327v-.05a1.575 1.575 0 0 1-.944-.564 1.62 1.62 0 0 1-.362-1.047c0-.377.11-.712.33-1.006a2.2 2.2 0 0 1 .905-.696c.386-.17.824-.255 1.314-.255.49 0 .927.085 1.311.255.386.171.689.404.909.7.22.294.331.627.334 1.002-.003.4-.126.749-.37 1.047a1.587 1.587 0 0 1-.937.565v.05c.291.047.555.156.792.326.239.168.428.38.568.636a1.713 1.713 0 0 1-.149 1.889c-.242.31-.576.555-1.002.735-.423.178-.909.266-1.456.266Zm0-1.13c.244 0 .457-.044.64-.131.182-.09.324-.213.426-.37a.975.975 0 0 0 .156-.546.983.983 0 0 0-.16-.558 1.097 1.097 0 0 0-.433-.383 1.344 1.344 0 0 0-.629-.143c-.234 0-.444.048-.628.143-.185.092-.33.22-.437.383a1.006 1.006 0 0 0-.156.558c0 .206.051.388.152.546.102.157.246.28.43.37.185.087.398.131.639.131Zm0-3.25c.204 0 .385-.04.544-.123a.94.94 0 0 0 .373-.345.951.951 0 0 0 .135-.508.909.909 0 0 0-.505-.834 1.148 1.148 0 0 0-.547-.124c-.206 0-.388.04-.546.124a.917.917 0 0 0-.373.337.924.924 0 0 0-.132.497c0 .192.045.361.135.508.09.147.214.262.373.345.159.083.34.124.543.124Zm3.913 6.325v-7.5h1.491v.917h.068c.066-.147.162-.296.287-.448.128-.154.294-.281.498-.383.206-.104.461-.157.767-.157.397 0 .764.105 1.1.313.337.206.605.517.807.934.201.414.301.934.301 1.559 0 .608-.098 1.122-.294 1.541-.194.417-.46.733-.796.948-.334.213-.708.32-1.122.32a1.75 1.75 0 0 1-.749-.146 1.545 1.545 0 0 1-.501-.366c-.13-.149-.23-.3-.298-.45h-.046v2.919h-1.513Zm1.481-4.772c0 .324.045.607.135.848.09.242.22.43.39.565a.984.984 0 0 0 .622.199.977.977 0 0 0 .625-.203c.17-.137.299-.326.387-.568a2.42 2.42 0 0 0 .135-.841 2.4 2.4 0 0 0-.132-.831 1.229 1.229 0 0 0-.387-.561.98.98 0 0 0-.628-.203.997.997 0 0 0-.625.196 1.22 1.22 0 0 0-.387.554c-.09.239-.135.52-.135.845Zm5.916-2.727 1.001 1.906 1.027-1.906h1.551l-1.58 2.727L485.533 18h-1.545l-1.076-1.886L481.854 18h-1.562l1.619-2.727-1.563-2.727h1.563Z" fill="#fff"/><path stroke="#1745E8" d="M447 .5h7m-7 27h7"/><defs><clipPath id="a"><path fill="#fff" transform="translate(34)" d="M0 0h4v28H0z"/></clipPath><clipPath id="b"><path fill="#fff" transform="translate(317)" d="M0 0h4v28H0z"/></clipPath><clipPath id="c"><path fill="#fff" transform="translate(423)" d="M0 0h4v28H0z"/></clipPath></defs></svg>