<svg width="206" height="165" viewBox="0 0 206 165" fill="none" xmlns="http://www.w3.org/2000/svg"><circle cx="97" cy="150" r="12" fill="#344054"/><path d="M92.943 155v-1.773l4.142-3.835c.353-.341.648-.648.887-.92.242-.273.426-.54.55-.802.126-.265.188-.551.188-.858 0-.34-.077-.634-.233-.88a1.533 1.533 0 0 0-.636-.574 2 2 0 0 0-.915-.205c-.356 0-.666.072-.932.216a1.49 1.49 0 0 0-.613.62c-.144.269-.216.589-.216.96h-2.336c0-.762.173-1.422.518-1.983a3.45 3.45 0 0 1 1.449-1.301c.62-.307 1.337-.46 2.147-.46.834 0 1.559.147 2.176.443.621.291 1.104.697 1.449 1.216s.517 1.113.517 1.784c0 .439-.087.873-.261 1.301-.171.428-.476.903-.915 1.426-.44.519-1.059 1.142-1.858 1.869l-1.699 1.665v.08h4.887V155h-8.296Z" fill="#fff"/><path d="M97 86v53" stroke="#344054" stroke-dasharray="2 2"/><circle cx="194" cy="48" r="12" fill="#344054"/><path d="M194.244 54.16c-.848 0-1.604-.147-2.267-.438-.659-.296-1.18-.701-1.562-1.216a3.052 3.052 0 0 1-.585-1.796h2.477c.015.284.108.534.278.75.174.212.406.377.693.495.288.117.612.176.972.176.375 0 .706-.067.994-.2.288-.132.514-.316.676-.55a1.39 1.39 0 0 0 .245-.813c0-.31-.087-.585-.262-.824a1.666 1.666 0 0 0-.738-.568c-.318-.136-.697-.204-1.137-.204h-1.085v-1.807h1.085c.372 0 .699-.065.983-.193a1.59 1.59 0 0 0 .671-.535c.159-.23.238-.5.238-.806a1.396 1.396 0 0 0-.789-1.29 1.887 1.887 0 0 0-.864-.188c-.333 0-.638.061-.915.182a1.596 1.596 0 0 0-.664.506c-.167.22-.256.477-.268.773h-2.358c.012-.67.203-1.262.574-1.773.372-.511.872-.911 1.5-1.199.633-.292 1.347-.438 2.142-.438.803 0 1.506.146 2.108.438.603.292 1.07.686 1.404 1.182.337.492.504 1.045.5 1.659.004.652-.199 1.195-.608 1.63-.405.436-.934.713-1.585.83v.091c.856.11 1.507.407 1.954.892.451.481.674 1.084.671 1.807a2.846 2.846 0 0 1-.574 1.767c-.383.515-.911.92-1.586 1.216-.674.295-1.446.443-2.318.443Z" fill="#fff"/><path d="M134 48h53" stroke="#344054" stroke-dasharray="2 2"/><circle cx="12" cy="16" r="12" fill="#344054"/><path d="M14.006 10.364V22h-2.46v-9.301h-.069l-2.665 1.67v-2.181l2.881-1.824h2.313Z" fill="#fff"/><path d="M24.5 16h73v23" stroke="#344054" stroke-dasharray="2 2"/><mask id="a" fill="#fff"><path d="M45 8h89v80H45V8Z"/></mask><path d="M134 86H45v4h89v-4Z" fill="#5925DC" mask="url(#a)"/><path d="M52.773 45.273a1.784 1.784 0 0 0-.83-1.341c-.485-.318-1.08-.477-1.784-.477-.515 0-.966.083-1.352.25a2.16 2.16 0 0 0-.898.687 1.648 1.648 0 0 0-.318.994c0 .311.074.578.221.801.152.22.345.404.58.552.235.144.481.263.739.358.257.09.494.164.71.221l1.182.318c.303.08.64.19 1.011.33.375.14.733.331 1.074.574.345.238.629.545.852.92.224.375.335.835.335 1.38 0 .63-.164 1.198-.494 1.705-.326.508-.803.911-1.432 1.21-.625.3-1.384.45-2.278.45-.833 0-1.555-.135-2.165-.404-.606-.269-1.083-.644-1.432-1.125A3.209 3.209 0 0 1 45.91 51h1.455c.038.44.185.803.443 1.09a2.4 2.4 0 0 0 .988.637c.402.137.834.205 1.296.205.538 0 1.02-.087 1.449-.262.428-.178.767-.424 1.017-.738.25-.318.375-.69.375-1.114 0-.386-.108-.7-.324-.943-.216-.242-.5-.44-.852-.59a8.954 8.954 0 0 0-1.142-.399l-1.432-.409c-.91-.261-1.629-.634-2.16-1.119-.53-.485-.795-1.12-.795-1.903 0-.652.176-1.22.529-1.705a3.51 3.51 0 0 1 1.431-1.136c.603-.273 1.275-.41 2.018-.41.75 0 1.416.135 2 .404.583.265 1.045.629 1.386 1.09.345.463.526.988.545 1.575h-1.363Zm7.316 8.909c-.84 0-1.566-.186-2.176-.557a3.737 3.737 0 0 1-1.403-1.568c-.326-.674-.489-1.459-.489-2.352 0-.894.163-1.682.489-2.364.33-.686.788-1.22 1.375-1.602.59-.387 1.28-.58 2.068-.58.455 0 .903.076 1.347.227.443.152.846.398 1.21.739.364.337.653.784.87 1.34.215.558.323 1.243.323 2.058v.568h-6.727v-1.16h5.364c0-.492-.099-.931-.296-1.317a2.226 2.226 0 0 0-.83-.915c-.356-.224-.776-.335-1.26-.335-.535 0-.997.132-1.387.397a2.615 2.615 0 0 0-.892 1.023c-.209.42-.313.871-.313 1.352v.773c0 .66.114 1.218.341 1.676.231.455.551.801.96 1.04.41.235.885.352 1.427.352.352 0 .67-.049.954-.147.288-.103.536-.254.744-.455.209-.205.37-.458.483-.761l1.296.363c-.137.44-.366.826-.688 1.16-.322.329-.72.587-1.193.772a4.426 4.426 0 0 1-1.596.273Zm9.2 0c-.819 0-1.523-.193-2.114-.58a3.777 3.777 0 0 1-1.364-1.596c-.318-.678-.477-1.453-.477-2.324 0-.887.163-1.669.488-2.347.33-.682.788-1.214 1.375-1.596.591-.387 1.28-.58 2.069-.58.613 0 1.166.114 1.659.341.492.227.895.545 1.21.955.314.409.51.886.585 1.431h-1.34c-.103-.397-.33-.75-.683-1.056-.348-.311-.818-.466-1.409-.466-.522 0-.98.136-1.375.409-.39.269-.695.65-.914 1.142-.216.488-.324 1.062-.324 1.721 0 .675.106 1.262.318 1.762.216.5.519.888.909 1.164.394.277.856.415 1.386.415.349 0 .665-.06.95-.181.283-.122.524-.296.72-.523.198-.228.338-.5.421-.819h1.341c-.076.516-.263.98-.562 1.393a3.153 3.153 0 0 1-1.177.977c-.484.239-1.049.358-1.693.358Zm9.187-8.91v1.137h-4.523v-1.136h4.523Zm-3.205-2.09h1.341V51.5c0 .379.055.663.165.852.114.186.258.31.432.375.178.06.365.091.562.091.148 0 .27-.007.364-.023l.227-.045.273 1.205a2.73 2.73 0 0 1-.38.102c-.164.038-.37.057-.62.057a2.7 2.7 0 0 1-1.114-.245 2.213 2.213 0 0 1-.897-.744c-.235-.333-.353-.754-.353-1.261v-8.682ZM80.493 54v-8.727h1.34V54h-1.34Zm.682-10.182a.953.953 0 0 1-.676-.267.858.858 0 0 1-.279-.642c0-.25.093-.464.279-.642a.954.954 0 0 1 .676-.267c.261 0 .485.089.67.267a.85.85 0 0 1 .284.642.85.85 0 0 1-.284.642.934.934 0 0 1-.67.267Zm6.66 10.364c-.788 0-1.479-.188-2.074-.563-.59-.375-1.053-.9-1.386-1.574-.33-.674-.494-1.462-.494-2.363 0-.91.165-1.703.494-2.38.333-.679.796-1.205 1.386-1.58.595-.375 1.286-.563 2.074-.563.788 0 1.478.188 2.068.563.595.375 1.057.901 1.387 1.58.333.677.5 1.47.5 2.38 0 .901-.167 1.69-.5 2.363a3.77 3.77 0 0 1-1.387 1.574c-.59.375-1.28.563-2.068.563Zm0-1.205c.599 0 1.091-.153 1.478-.46a2.72 2.72 0 0 0 .858-1.21c.185-.5.278-1.042.278-1.625 0-.584-.093-1.127-.278-1.63a2.75 2.75 0 0 0-.859-1.222c-.386-.311-.878-.466-1.477-.466-.598 0-1.09.155-1.477.466-.386.31-.672.717-.858 1.221a4.681 4.681 0 0 0-.278 1.63c0 .584.092 1.126.278 1.626.186.5.472.903.858 1.21.386.307.879.46 1.477.46Zm7.343-4.227V54h-1.341v-8.727h1.295v1.363h.114c.204-.443.515-.799.932-1.068.416-.273.954-.409 1.613-.409.591 0 1.108.121 1.551.364.444.238.788.602 1.034 1.09.247.486.37 1.1.37 1.842V54h-1.341v-5.455c0-.685-.178-1.22-.534-1.602-.356-.386-.845-.58-1.466-.58-.428 0-.81.093-1.148.279a1.993 1.993 0 0 0-.79.813c-.193.356-.29.787-.29 1.295Z" fill="#5925DC"/><path fill-rule="evenodd" clip-rule="evenodd" d="M120.136 44.904a.45.45 0 0 1 .326-.135.462.462 0 0 1 .327.135L126 50.116l5.211-5.212a.464.464 0 0 1 .754.15.466.466 0 0 1-.1.504l-5.538 5.538a.466.466 0 0 1-.504.1.466.466 0 0 1-.15-.1l-5.537-5.538a.467.467 0 0 1 0-.653Z" fill="#344054"/></svg>