<svg width="441" height="149" viewBox="0 0 441 149" fill="none" xmlns="http://www.w3.org/2000/svg"><path d="M31.773 71.273a1.784 1.784 0 0 0-.83-1.341c-.485-.318-1.08-.478-1.784-.478-.515 0-.966.084-1.352.25a2.16 2.16 0 0 0-.898.688 1.648 1.648 0 0 0-.318.994c0 .311.074.578.221.802.152.22.345.403.58.55a4.1 4.1 0 0 0 .739.359c.257.09.494.164.71.221l1.182.318c.303.08.64.19 1.011.33.375.14.733.331 1.074.574.345.238.629.545.852.92.224.375.335.836.335 1.38 0 .63-.164 1.198-.494 1.706-.326.507-.803.91-1.432 1.21-.625.299-1.384.448-2.278.448-.833 0-1.555-.134-2.165-.403-.606-.269-1.083-.644-1.432-1.125A3.209 3.209 0 0 1 24.91 77h1.455c.037.44.185.803.443 1.09a2.4 2.4 0 0 0 .989.637c.401.137.833.205 1.295.205.538 0 1.02-.087 1.449-.261.428-.179.767-.425 1.017-.74.25-.317.375-.689.375-1.113 0-.386-.108-.7-.324-.943-.216-.242-.5-.44-.852-.59a8.954 8.954 0 0 0-1.142-.399l-1.432-.409c-.91-.261-1.629-.634-2.16-1.119-.53-.485-.795-1.12-.795-1.904 0-.651.176-1.22.529-1.704a3.51 3.51 0 0 1 1.431-1.136c.603-.273 1.275-.41 2.017-.41.75 0 1.417.135 2 .404.584.265 1.046.629 1.387 1.09.345.463.526.988.545 1.575h-1.363Zm7.317 8.909c-.841 0-1.567-.186-2.177-.557a3.737 3.737 0 0 1-1.403-1.568c-.326-.674-.489-1.459-.489-2.353 0-.893.163-1.681.489-2.363.33-.686.788-1.22 1.375-1.602.59-.387 1.28-.58 2.068-.58.455 0 .903.076 1.347.227.443.152.846.398 1.21.739.364.337.653.784.87 1.34.215.558.323 1.243.323 2.058v.568h-6.727v-1.16h5.364c0-.492-.099-.931-.296-1.317a2.226 2.226 0 0 0-.83-.915c-.356-.224-.776-.335-1.26-.335-.535 0-.997.132-1.387.397a2.615 2.615 0 0 0-.892 1.023c-.209.42-.313.871-.313 1.352v.773c0 .66.114 1.218.341 1.676.231.455.551.801.96 1.04.41.235.885.352 1.427.352.352 0 .67-.049.954-.148a2.03 2.03 0 0 0 .744-.454c.209-.204.37-.458.483-.761l1.296.363c-.137.44-.366.826-.688 1.16-.322.329-.72.587-1.193.772a4.426 4.426 0 0 1-1.596.273Zm9.198 0c-.818 0-1.522-.193-2.113-.58a3.777 3.777 0 0 1-1.364-1.596c-.318-.678-.477-1.453-.477-2.324 0-.886.163-1.669.488-2.347.33-.682.788-1.214 1.375-1.596.591-.387 1.28-.58 2.069-.58.613 0 1.166.114 1.659.341.492.227.896.546 1.21.954.314.41.51.887.585 1.432h-1.34c-.103-.397-.33-.75-.683-1.056-.348-.311-.818-.466-1.409-.466-.522 0-.98.136-1.375.409-.39.269-.695.65-.914 1.142-.216.488-.324 1.062-.324 1.721 0 .675.106 1.262.318 1.762.216.5.519.888.909 1.165.394.276.856.414 1.386.414.349 0 .665-.06.95-.181.283-.122.524-.296.72-.523.198-.227.338-.5.421-.819h1.341c-.076.516-.263.98-.562 1.393a3.153 3.153 0 0 1-1.177.977c-.484.239-1.049.358-1.693.358Zm9.188-8.91v1.137h-4.523v-1.136h4.523Zm-3.205-2.09h1.341V77.5c0 .379.055.663.165.852.114.186.258.31.432.375.178.06.365.091.562.091.148 0 .27-.007.364-.022l.227-.046.273 1.204a2.73 2.73 0 0 1-.38.103c-.164.038-.37.057-.62.057a2.7 2.7 0 0 1-1.114-.245 2.213 2.213 0 0 1-.897-.744c-.235-.333-.353-.754-.353-1.261v-8.682ZM59.493 80v-8.727h1.34V80h-1.34Zm.682-10.182a.953.953 0 0 1-.676-.267.858.858 0 0 1-.279-.642c0-.25.093-.464.279-.642a.954.954 0 0 1 .676-.267c.261 0 .485.089.67.267a.85.85 0 0 1 .284.642.85.85 0 0 1-.284.642.934.934 0 0 1-.67.267Zm6.66 10.364c-.788 0-1.479-.188-2.074-.563-.59-.375-1.053-.9-1.386-1.573-.33-.675-.494-1.463-.494-2.364 0-.91.164-1.703.494-2.38.333-.679.796-1.205 1.386-1.58.595-.375 1.286-.563 2.074-.563.788 0 1.478.188 2.068.563.595.375 1.057.901 1.387 1.58.333.677.5 1.47.5 2.38 0 .901-.167 1.69-.5 2.364a3.77 3.77 0 0 1-1.387 1.573c-.59.375-1.28.563-2.068.563Zm0-1.205c.599 0 1.091-.153 1.478-.46a2.72 2.72 0 0 0 .858-1.21c.185-.5.278-1.042.278-1.625 0-.584-.093-1.127-.278-1.63a2.75 2.75 0 0 0-.859-1.223c-.386-.31-.878-.465-1.477-.465-.598 0-1.09.155-1.477.465a2.757 2.757 0 0 0-.858 1.222 4.681 4.681 0 0 0-.278 1.63c0 .584.092 1.126.278 1.626.186.5.472.903.858 1.21.386.307.879.46 1.477.46Zm7.343-4.227V80h-1.341v-8.727h1.295v1.363h.114c.204-.443.515-.799.932-1.068.416-.272.954-.409 1.613-.409.591 0 1.108.121 1.551.364.444.238.788.602 1.034 1.09.247.486.37 1.1.37 1.841V80h-1.341v-5.454c0-.686-.178-1.22-.534-1.603-.356-.386-.845-.58-1.466-.58-.428 0-.81.093-1.148.279a1.993 1.993 0 0 0-.79.813c-.193.356-.29.787-.29 1.295Zm16.586-6.386V80h-1.409V69.84h-.068l-2.841 1.887v-1.431l2.91-1.932h1.408Z" fill="#344054"/><mask id="a" fill="#fff"><path d="M117 34h104v80H117V34Z"/></mask><path d="M221 112H117v4h104v-4Z" fill="#5925DC" mask="url(#a)"/><path d="M124.773 71.273a1.783 1.783 0 0 0-.83-1.341c-.485-.318-1.079-.478-1.784-.478-.515 0-.966.084-1.352.25a2.16 2.16 0 0 0-.898.688 1.649 1.649 0 0 0-.318.994c0 .311.074.578.221.802.152.22.345.403.58.55a4.1 4.1 0 0 0 .739.359c.257.09.494.164.71.221l1.182.318c.303.08.64.19 1.011.33.375.14.733.331 1.074.574.345.238.629.545.852.92.224.375.335.836.335 1.38a3.06 3.06 0 0 1-.494 1.706c-.326.507-.803.91-1.432 1.21-.625.299-1.384.448-2.278.448-.833 0-1.555-.134-2.165-.403-.606-.269-1.083-.644-1.432-1.125a3.22 3.22 0 0 1-.585-1.676h1.455c.038.44.185.803.443 1.09a2.4 2.4 0 0 0 .988.637 4.01 4.01 0 0 0 1.296.205c.538 0 1.021-.087 1.449-.261.428-.179.767-.425 1.017-.74.25-.317.375-.689.375-1.113 0-.386-.108-.7-.324-.943-.216-.242-.5-.44-.852-.59a8.996 8.996 0 0 0-1.142-.399l-1.432-.409c-.909-.261-1.629-.634-2.159-1.119-.531-.485-.796-1.12-.796-1.904 0-.651.176-1.22.529-1.704a3.507 3.507 0 0 1 1.432-1.136c.602-.273 1.274-.41 2.017-.41.75 0 1.416.135 2 .404.583.265 1.045.629 1.386 1.09.345.463.526.988.545 1.575h-1.363Zm7.316 8.909c-.84 0-1.566-.186-2.176-.557a3.733 3.733 0 0 1-1.403-1.568c-.326-.674-.489-1.459-.489-2.353 0-.893.163-1.681.489-2.363.329-.686.788-1.22 1.375-1.602.591-.387 1.28-.58 2.068-.58.455 0 .904.076 1.347.227a3.34 3.34 0 0 1 1.21.739c.364.337.653.784.869 1.34.216.558.324 1.243.324 2.058v.568h-6.727v-1.16h5.363c0-.492-.098-.931-.295-1.317a2.225 2.225 0 0 0-.83-.915c-.356-.224-.776-.335-1.261-.335-.534 0-.996.132-1.386.397a2.608 2.608 0 0 0-.892 1.023c-.209.42-.313.871-.313 1.352v.773c0 .66.114 1.218.341 1.676.231.455.551.801.96 1.04.409.235.885.352 1.426.352a2.9 2.9 0 0 0 .955-.148 2.03 2.03 0 0 0 .744-.454c.209-.204.37-.458.483-.761l1.296.363a2.88 2.88 0 0 1-.688 1.16 3.344 3.344 0 0 1-1.193.772 4.426 4.426 0 0 1-1.597.273Zm9.199 0c-.818 0-1.522-.193-2.113-.58a3.776 3.776 0 0 1-1.364-1.596c-.318-.678-.477-1.453-.477-2.324 0-.886.163-1.669.488-2.347.33-.682.788-1.214 1.375-1.596.591-.387 1.281-.58 2.069-.58.613 0 1.166.114 1.659.341.492.227.896.546 1.21.954.314.41.509.887.585 1.432h-1.341c-.102-.397-.329-.75-.682-1.056-.348-.311-.818-.466-1.409-.466-.522 0-.981.136-1.375.409-.39.269-.695.65-.914 1.142-.216.488-.324 1.062-.324 1.721 0 .675.106 1.262.318 1.762.216.5.519.888.909 1.165.394.276.856.414 1.386.414.349 0 .665-.06.949-.181a1.96 1.96 0 0 0 .722-.523c.197-.227.337-.5.42-.819h1.341c-.076.516-.263.98-.562 1.393a3.158 3.158 0 0 1-1.176.977c-.485.239-1.05.358-1.694.358Zm9.188-8.91v1.137h-4.523v-1.136h4.523Zm-3.205-2.09h1.341V77.5c0 .379.055.663.165.852.114.186.258.31.432.375.178.06.365.091.562.091.148 0 .269-.007.364-.022l.227-.046.273 1.204a2.733 2.733 0 0 1-.381.103 2.8 2.8 0 0 1-.619.057 2.7 2.7 0 0 1-1.114-.245 2.205 2.205 0 0 1-.897-.744c-.235-.333-.353-.754-.353-1.261v-8.682ZM152.493 80v-8.727h1.341V80h-1.341Zm.682-10.182a.951.951 0 0 1-.676-.267.857.857 0 0 1-.279-.642c0-.25.093-.464.279-.642a.951.951 0 0 1 .676-.267c.261 0 .485.089.67.267.19.178.284.392.284.642s-.094.464-.284.642a.932.932 0 0 1-.67.267Zm6.66 10.364c-.788 0-1.479-.188-2.074-.563-.591-.375-1.053-.9-1.386-1.573-.33-.675-.494-1.463-.494-2.364 0-.91.164-1.703.494-2.38.333-.679.795-1.205 1.386-1.58.595-.375 1.286-.563 2.074-.563.788 0 1.478.188 2.068.563.595.375 1.057.901 1.387 1.58.333.677.5 1.47.5 2.38 0 .901-.167 1.69-.5 2.364a3.77 3.77 0 0 1-1.387 1.573c-.59.375-1.28.563-2.068.563Zm0-1.205c.599 0 1.091-.153 1.477-.46.387-.307.673-.71.858-1.21.186-.5.279-1.042.279-1.625 0-.584-.093-1.127-.279-1.63a2.74 2.74 0 0 0-.858-1.223c-.386-.31-.878-.465-1.477-.465-.598 0-1.091.155-1.477.465a2.757 2.757 0 0 0-.858 1.222 4.672 4.672 0 0 0-.278 1.63c0 .584.092 1.126.278 1.626.186.5.472.903.858 1.21.386.307.879.46 1.477.46Zm7.343-4.227V80h-1.341v-8.727h1.295v1.363h.114c.204-.443.515-.799.932-1.068.416-.272.954-.409 1.613-.409.591 0 1.108.121 1.551.364.444.238.788.602 1.034 1.09.247.486.37 1.1.37 1.841V80h-1.341v-5.454c0-.686-.178-1.22-.534-1.603-.356-.386-.845-.58-1.466-.58a2.34 2.34 0 0 0-1.148.279 2 2 0 0 0-.79.813c-.193.356-.289.787-.289 1.295ZM179.673 80v-1.023l3.841-4.204c.451-.493.822-.92 1.114-1.284.292-.368.507-.713.648-1.035.144-.325.215-.666.215-1.022 0-.41-.098-.763-.295-1.063a1.917 1.917 0 0 0-.795-.693 2.584 2.584 0 0 0-1.137-.244c-.447 0-.837.093-1.17.278a1.92 1.92 0 0 0-.767.767c-.178.33-.267.716-.267 1.16h-1.341c0-.683.157-1.28.471-1.796a3.285 3.285 0 0 1 1.284-1.205 3.875 3.875 0 0 1 1.836-.431c.681 0 1.286.144 1.812.431.527.288.94.677 1.239 1.165.299.489.449 1.032.449 1.63 0 .429-.078.847-.233 1.257-.152.405-.417.858-.796 1.358-.375.496-.896 1.102-1.562 1.818l-2.614 2.795v.091h5.409V80h-7.341Z" fill="#5925DC"/><path fill-rule="evenodd" clip-rule="evenodd" d="M207.136 70.904a.45.45 0 0 1 .326-.135.462.462 0 0 1 .327.135L213 76.116l5.211-5.212a.464.464 0 0 1 .754.15.466.466 0 0 1-.1.504l-5.538 5.538a.466.466 0 0 1-.504.1.466.466 0 0 1-.15-.1l-5.537-5.538a.467.467 0 0 1 0-.653Z" fill="#344054"/><path d="M252.773 71.273a1.783 1.783 0 0 0-.83-1.341c-.485-.318-1.079-.478-1.784-.478-.515 0-.966.084-1.352.25a2.16 2.16 0 0 0-.898.688 1.649 1.649 0 0 0-.318.994c0 .311.074.578.221.802.152.22.345.403.58.55a4.1 4.1 0 0 0 .739.359c.257.09.494.164.71.221l1.182.318c.303.08.64.19 1.011.33.375.14.733.331 1.074.574.345.238.629.545.852.92.224.375.335.836.335 1.38a3.06 3.06 0 0 1-.494 1.706c-.326.507-.803.91-1.432 1.21-.625.299-1.384.448-2.278.448-.833 0-1.555-.134-2.165-.403-.606-.269-1.083-.644-1.432-1.125a3.22 3.22 0 0 1-.585-1.676h1.455c.038.44.185.803.443 1.09a2.4 2.4 0 0 0 .988.637 4.01 4.01 0 0 0 1.296.205c.538 0 1.021-.087 1.449-.261.428-.179.767-.425 1.017-.74.25-.317.375-.689.375-1.113 0-.386-.108-.7-.324-.943-.216-.242-.5-.44-.852-.59a8.996 8.996 0 0 0-1.142-.399l-1.432-.409c-.909-.261-1.629-.634-2.159-1.119-.531-.485-.796-1.12-.796-1.904 0-.651.176-1.22.529-1.704a3.507 3.507 0 0 1 1.432-1.136c.602-.273 1.274-.41 2.017-.41.75 0 1.416.135 2 .404.583.265 1.045.629 1.386 1.09.345.463.526.988.545 1.575h-1.363Zm7.316 8.909c-.84 0-1.566-.186-2.176-.557a3.733 3.733 0 0 1-1.403-1.568c-.326-.674-.489-1.459-.489-2.353 0-.893.163-1.681.489-2.363.329-.686.788-1.22 1.375-1.602.591-.387 1.28-.58 2.068-.58.455 0 .904.076 1.347.227a3.34 3.34 0 0 1 1.21.739c.364.337.653.784.869 1.34.216.558.324 1.243.324 2.058v.568h-6.727v-1.16h5.363c0-.492-.098-.931-.295-1.317a2.225 2.225 0 0 0-.83-.915c-.356-.224-.776-.335-1.261-.335-.534 0-.996.132-1.386.397a2.608 2.608 0 0 0-.892 1.023c-.209.42-.313.871-.313 1.352v.773c0 .66.114 1.218.341 1.676.231.455.551.801.96 1.04.409.235.885.352 1.426.352a2.9 2.9 0 0 0 .955-.148 2.03 2.03 0 0 0 .744-.454c.209-.204.37-.458.483-.761l1.296.363a2.88 2.88 0 0 1-.688 1.16 3.344 3.344 0 0 1-1.193.772 4.426 4.426 0 0 1-1.597.273Zm9.199 0c-.818 0-1.522-.193-2.113-.58a3.776 3.776 0 0 1-1.364-1.596c-.318-.678-.477-1.453-.477-2.324 0-.886.163-1.669.488-2.347.33-.682.788-1.214 1.375-1.596.591-.387 1.281-.58 2.069-.58.613 0 1.166.114 1.659.341.492.227.896.546 1.21.954.314.41.509.887.585 1.432h-1.341c-.102-.397-.329-.75-.682-1.056-.348-.311-.818-.466-1.409-.466-.522 0-.981.136-1.375.409-.39.269-.695.65-.914 1.142-.216.488-.324 1.062-.324 1.721 0 .675.106 1.262.318 1.762.216.5.519.888.909 1.165.394.276.856.414 1.386.414.349 0 .665-.06.949-.181a1.96 1.96 0 0 0 .722-.523c.197-.227.337-.5.42-.819h1.341c-.076.516-.263.98-.562 1.393a3.158 3.158 0 0 1-1.176.977c-.485.239-1.05.358-1.694.358Zm9.188-8.91v1.137h-4.523v-1.136h4.523Zm-3.205-2.09h1.341V77.5c0 .379.055.663.165.852.114.186.258.31.432.375.178.06.365.091.562.091.148 0 .269-.007.364-.022l.227-.046.273 1.204a2.733 2.733 0 0 1-.381.103 2.8 2.8 0 0 1-.619.057 2.7 2.7 0 0 1-1.114-.245 2.205 2.205 0 0 1-.897-.744c-.235-.333-.353-.754-.353-1.261v-8.682ZM280.493 80v-8.727h1.341V80h-1.341Zm.682-10.182a.951.951 0 0 1-.676-.267.857.857 0 0 1-.279-.642c0-.25.093-.464.279-.642a.951.951 0 0 1 .676-.267c.261 0 .485.089.67.267.19.178.284.392.284.642s-.094.464-.284.642a.932.932 0 0 1-.67.267Zm6.66 10.364c-.788 0-1.479-.188-2.074-.563-.591-.375-1.053-.9-1.386-1.573-.33-.675-.494-1.463-.494-2.364 0-.91.164-1.703.494-2.38.333-.679.795-1.205 1.386-1.58.595-.375 1.286-.563 2.074-.563.788 0 1.478.188 2.068.563.595.375 1.057.901 1.387 1.58.333.677.5 1.47.5 2.38 0 .901-.167 1.69-.5 2.364a3.77 3.77 0 0 1-1.387 1.573c-.59.375-1.28.563-2.068.563Zm0-1.205c.599 0 1.091-.153 1.477-.46.387-.307.673-.71.858-1.21.186-.5.279-1.042.279-1.625 0-.584-.093-1.127-.279-1.63a2.74 2.74 0 0 0-.858-1.223c-.386-.31-.878-.465-1.477-.465-.598 0-1.091.155-1.477.465a2.757 2.757 0 0 0-.858 1.222 4.672 4.672 0 0 0-.278 1.63c0 .584.092 1.126.278 1.626.186.5.472.903.858 1.21.386.307.879.46 1.477.46Zm7.343-4.227V80h-1.341v-8.727h1.295v1.363h.114c.204-.443.515-.799.932-1.068.416-.272.954-.409 1.613-.409.591 0 1.108.121 1.551.364.444.238.788.602 1.034 1.09.247.486.37 1.1.37 1.841V80h-1.341v-5.454c0-.686-.178-1.22-.534-1.603-.356-.386-.845-.58-1.466-.58a2.34 2.34 0 0 0-1.148.279 2 2 0 0 0-.79.813c-.193.356-.289.787-.289 1.295Zm16.427 5.41c-.75 0-1.418-.13-2.006-.387-.583-.258-1.047-.616-1.392-1.074a2.883 2.883 0 0 1-.556-1.608h1.431c.031.375.159.699.387.972.227.268.524.477.892.624.367.148.774.222 1.221.222.5 0 .944-.087 1.33-.261a2.19 2.19 0 0 0 .909-.727c.22-.311.33-.671.33-1.08a2.02 2.02 0 0 0-.319-1.13c-.212-.33-.522-.588-.931-.773-.41-.186-.91-.279-1.5-.279h-.932v-1.25h.932c.462 0 .867-.083 1.215-.25a1.887 1.887 0 0 0 1.125-1.773 1.97 1.97 0 0 0-.261-1.028 1.782 1.782 0 0 0-.739-.682c-.314-.163-.685-.244-1.113-.244-.402 0-.78.074-1.137.221-.352.144-.64.355-.863.631a1.64 1.64 0 0 0-.364.989h-1.363c.022-.61.206-1.144.551-1.602a3.462 3.462 0 0 1 1.352-1.08 4.37 4.37 0 0 1 1.847-.386c.719 0 1.337.145 1.852.437a3.08 3.08 0 0 1 1.187 1.142c.277.474.415.985.415 1.534 0 .656-.172 1.214-.517 1.676-.341.462-.805.782-1.392.96v.092c.735.12 1.309.433 1.722.937.412.5.619 1.12.619 1.858 0 .633-.172 1.2-.517 1.705-.341.5-.807.893-1.398 1.181-.591.288-1.263.432-2.017.432Z" fill="#344054"/><path fill="#E8178A" fill-opacity=".24" d="M93 34h24v78H93zm128 0h24v78h-24z"/><path fill="#E8178A" fill-opacity=".24" d="M0 88h385v24H0zm0-54h385v24H0z"/><path fill="#E8178A" fill-opacity=".24" d="M189 34h16v78h-16z"/><path d="M93 123h24" stroke="#E8178A"/><rect x="86" y="131" width="37" height="18" rx="3" fill="#E8178A"/><path d="M92.59 144v-1.108l2.588-2.397c.22-.213.405-.405.554-.575a2.19 2.19 0 0 0 .345-.501c.078-.166.117-.344.117-.536 0-.213-.049-.397-.146-.551a.957.957 0 0 0-.397-.358 1.237 1.237 0 0 0-.572-.128c-.223 0-.417.045-.583.135a.93.93 0 0 0-.383.387c-.09.168-.135.368-.135.6h-1.46c0-.476.108-.889.324-1.239.215-.351.517-.622.905-.814.388-.191.836-.287 1.343-.287.52 0 .974.092 1.36.277.388.182.69.435.905.76.215.324.323.696.323 1.115 0 .274-.054.546-.163.813-.107.268-.297.565-.572.891a13.16 13.16 0 0 1-1.161 1.169l-1.062 1.04v.05h3.054V144H92.59Zm6.032-1.278v-1.211l3.036-4.784h1.044v1.676h-.618l-1.914 3.03v.056h4.315v1.233h-5.863Zm3.491 1.278v-1.648l.028-.536v-5.089h1.442V144h-1.47Zm3.411 2.045v-7.5h1.491v.917h.068c.066-.147.162-.296.287-.448a1.51 1.51 0 0 1 .497-.383c.206-.104.462-.157.767-.157.398 0 .765.105 1.101.313.336.206.605.517.806.934.202.414.302.934.302 1.559 0 .608-.098 1.122-.295 1.541-.194.417-.459.733-.795.948-.334.213-.708.32-1.122.32-.294 0-.543-.049-.749-.146a1.54 1.54 0 0 1-.501-.366 1.831 1.831 0 0 1-.298-.451h-.047v2.919h-1.512Zm1.48-4.772c0 .324.045.607.135.848.09.242.221.43.391.565.17.133.378.199.621.199a.978.978 0 0 0 .625-.202c.171-.138.3-.327.388-.569a2.44 2.44 0 0 0 .134-.841 2.4 2.4 0 0 0-.131-.831 1.245 1.245 0 0 0-.387-.561.98.98 0 0 0-.629-.203.996.996 0 0 0-.625.196 1.22 1.22 0 0 0-.387.554c-.09.239-.135.52-.135.845Zm5.917-2.728 1.001 1.907 1.026-1.907h1.552l-1.58 2.728 1.623 2.727h-1.545l-1.076-1.886-1.058 1.886h-1.563l1.62-2.727-1.563-2.728h1.563Z" fill="#fff"/><path stroke="#E8178A" d="M93.5 127v-7m23 7v-7m278.5-8V88"/><rect x="404" y="91" width="37" height="18" rx="3" fill="#E8178A"/><path d="M410.589 104v-1.108l2.589-2.397c.22-.213.405-.405.554-.575.152-.17.267-.338.345-.501.078-.166.117-.344.117-.536a1.01 1.01 0 0 0-.146-.55.954.954 0 0 0-.397-.36 1.25 1.25 0 0 0-.572-.127c-.223 0-.417.045-.583.135a.933.933 0 0 0-.383.387c-.09.168-.135.368-.135.6h-1.46c0-.476.108-.889.324-1.24.215-.35.517-.62.905-.813.388-.191.836-.287 1.342-.287.521 0 .975.092 1.361.277.388.182.69.435.905.76.216.324.323.696.323 1.115 0 .275-.054.546-.163.813-.107.268-.297.565-.572.891-.274.325-.662.714-1.161 1.169l-1.062 1.04v.05h3.054V104h-5.185Zm6.033-1.278v-1.211l3.036-4.784h1.044v1.676h-.618l-1.914 3.03v.056h4.315v1.233h-5.863Zm3.491 1.278v-1.648l.028-.536v-5.089h1.442V104h-1.47Zm3.411 2.045v-7.5h1.491v.917h.068c.066-.147.162-.296.287-.448.128-.154.294-.281.497-.383.206-.105.462-.157.767-.157.398 0 .765.105 1.101.313.336.206.605.517.806.934.202.414.302.934.302 1.559 0 .608-.098 1.122-.295 1.541-.194.417-.459.733-.795.948-.334.213-.708.32-1.122.32-.294 0-.543-.049-.749-.146a1.54 1.54 0 0 1-.501-.366 1.831 1.831 0 0 1-.298-.451h-.047v2.919h-1.512Zm1.48-4.772c0 .324.045.607.135.848.09.242.221.43.391.565.17.133.378.199.621.199a.978.978 0 0 0 .625-.202c.171-.138.3-.327.388-.569a2.44 2.44 0 0 0 .134-.841 2.4 2.4 0 0 0-.131-.831 1.248 1.248 0 0 0-.387-.561.98.98 0 0 0-.629-.203 1 1 0 0 0-.625.196 1.22 1.22 0 0 0-.387.554c-.09.239-.135.52-.135.845Zm5.917-2.727 1.001 1.906 1.026-1.906h1.552l-1.58 2.727 1.623 2.727h-1.545l-1.076-1.886-1.058 1.886h-1.563l1.62-2.727-1.563-2.727h1.563Z" fill="#fff"/><path stroke="#E8178A" d="M398 111.5h-7m7-23h-7M221 123h24"/><rect x="214" y="131" width="37" height="18" rx="3" fill="#E8178A"/><path d="M220.589 144v-1.108l2.589-2.397c.22-.213.405-.405.554-.575a2.19 2.19 0 0 0 .345-.501c.078-.166.117-.344.117-.536 0-.213-.049-.397-.146-.551a.955.955 0 0 0-.397-.358 1.24 1.24 0 0 0-.572-.128c-.223 0-.417.045-.583.135a.934.934 0 0 0-.383.387c-.09.168-.135.368-.135.6h-1.46c0-.476.108-.889.324-1.239.215-.351.517-.622.905-.814.388-.191.836-.287 1.342-.287.521 0 .975.092 1.361.277.388.182.69.435.905.76.216.324.323.696.323 1.115 0 .274-.054.546-.163.813-.107.268-.297.565-.572.891-.274.325-.662.714-1.161 1.169l-1.062 1.04v.05h3.054V144h-5.185Zm6.033-1.278v-1.211l3.036-4.784h1.044v1.676h-.618l-1.914 3.03v.056h4.315v1.233h-5.863Zm3.491 1.278v-1.648l.028-.536v-5.089h1.442V144h-1.47Zm3.411 2.045v-7.5h1.491v.917h.068c.066-.147.162-.296.287-.448a1.51 1.51 0 0 1 .497-.383c.206-.104.462-.157.767-.157.398 0 .765.105 1.101.313.336.206.605.517.806.934.202.414.302.934.302 1.559 0 .608-.098 1.122-.295 1.541-.194.417-.459.733-.795.948-.334.213-.708.32-1.122.32-.294 0-.543-.049-.749-.146a1.54 1.54 0 0 1-.501-.366 1.831 1.831 0 0 1-.298-.451h-.047v2.919h-1.512Zm1.48-4.772c0 .324.045.607.135.848.09.242.221.43.391.565.17.133.378.199.621.199a.978.978 0 0 0 .625-.202c.171-.138.3-.327.388-.569a2.44 2.44 0 0 0 .134-.841 2.4 2.4 0 0 0-.131-.831 1.245 1.245 0 0 0-.387-.561.98.98 0 0 0-.629-.203.996.996 0 0 0-.625.196 1.22 1.22 0 0 0-.387.554c-.09.239-.135.52-.135.845Zm5.917-2.728 1.001 1.907 1.026-1.907h1.552l-1.58 2.728 1.623 2.727h-1.545l-1.076-1.886-1.058 1.886h-1.563l1.62-2.727-1.563-2.728h1.563Z" fill="#fff"/><path stroke="#E8178A" d="M221.5 127v-7m23 7v-7M189 26h16"/><rect x="179" width="36" height="18" rx="3" fill="#E8178A"/><path d="M188.754 5.727V13h-1.538V7.187h-.043l-1.665 1.044V6.867l1.8-1.14h1.446Zm4.519 7.372a3.285 3.285 0 0 1-1.083-.188 2.464 2.464 0 0 1-.93-.6c-.275-.277-.493-.644-.654-1.1-.158-.458-.238-1.019-.238-1.684.003-.61.073-1.156.21-1.637.14-.483.338-.893.597-1.229.26-.336.571-.592.933-.767a2.736 2.736 0 0 1 1.219-.266c.485 0 .913.095 1.285.284.372.187.67.441.895.763.227.322.365.683.412 1.084h-1.516a1.018 1.018 0 0 0-.373-.597 1.127 1.127 0 0 0-.703-.217c-.474 0-.834.206-1.08.618-.244.412-.368.972-.373 1.68h.05c.109-.216.256-.399.44-.55.187-.154.399-.272.636-.352.239-.083.491-.124.756-.124a2.162 2.162 0 0 1 1.946 1.136c.194.353.291.756.291 1.21 0 .493-.114.931-.344 1.315a2.389 2.389 0 0 1-.955.902c-.407.215-.881.322-1.421.32Zm-.007-1.207a1.2 1.2 0 0 0 1.076-.632 1.33 1.33 0 0 0 .16-.653 1.31 1.31 0 0 0-.16-.65 1.181 1.181 0 0 0-1.065-.629 1.22 1.22 0 0 0-.494.1 1.244 1.244 0 0 0-.657.688 1.272 1.272 0 0 0-.096.494 1.277 1.277 0 0 0 .601 1.108c.187.116.398.174.635.174Zm3.832 3.154v-7.5h1.491v.916h.068c.066-.147.162-.296.287-.448.128-.154.294-.282.498-.383.206-.104.461-.157.767-.157.397 0 .764.105 1.1.313.337.206.605.517.807.934.201.414.301.934.301 1.559 0 .608-.098 1.122-.294 1.541-.194.417-.46.733-.796.948-.334.213-.708.32-1.122.32a1.75 1.75 0 0 1-.749-.146 1.545 1.545 0 0 1-.501-.366c-.13-.149-.23-.3-.298-.45h-.046v2.918h-1.513Zm1.481-4.773c0 .324.045.607.135.848.09.242.22.43.39.565a.984.984 0 0 0 .622.199.977.977 0 0 0 .625-.203c.17-.137.299-.326.387-.568a2.42 2.42 0 0 0 .135-.841 2.4 2.4 0 0 0-.132-.831 1.23 1.23 0 0 0-.387-.561.98.98 0 0 0-.628-.203.997.997 0 0 0-.625.196 1.22 1.22 0 0 0-.387.554c-.09.239-.135.52-.135.845Zm5.916-2.728 1.001 1.907 1.027-1.907h1.551l-1.58 2.728L208.117 13h-1.545l-1.076-1.886L204.438 13h-1.562l1.619-2.727-1.563-2.728h1.563Z" fill="#fff"/><path stroke="#E8178A" d="M189.5 30v-7m15 7v-7"/></svg>