<svg width="339" height="292" viewBox="0 0 339 292" fill="none" xmlns="http://www.w3.org/2000/svg"><circle cx="216" cy="74" r="12" fill="#344054"/><path d="M211.943 80v-1.773l4.142-3.835c.353-.34.648-.648.887-.92.242-.273.426-.54.551-.801.125-.266.187-.552.187-.859 0-.34-.077-.634-.233-.88a1.526 1.526 0 0 0-.636-.574 1.995 1.995 0 0 0-.915-.205c-.356 0-.667.072-.932.216-.265.144-.469.35-.613.62-.144.269-.216.589-.216.96h-2.335c0-.761.172-1.422.517-1.983.344-.56.827-.994 1.448-1.301.622-.307 1.338-.46 2.148-.46.834 0 1.559.147 2.176.443.622.291 1.104.697 1.449 1.216s.517 1.113.517 1.784c0 .44-.087.873-.261 1.3-.171.429-.476.904-.915 1.427-.439.519-1.059 1.142-1.858 1.87l-1.699 1.664v.08h4.887V80h-8.296Z" fill="#fff"/><path d="m207 74-52 .5M329 272v19m0-33-52 .5" stroke="#344054" stroke-dasharray="2 2"/><circle cx="79" cy="16" r="12" fill="#344054"/><path d="M81.006 10.364V22h-2.46v-9.301h-.069l-2.665 1.67v-2.181l2.881-1.824h2.313Z" fill="#fff"/><path d="M76 16H32v42" stroke="#344054" stroke-dasharray="2 2"/><circle cx="327" cy="258" r="12" fill="#344054"/><path d="M321.767 261.955v-1.938l4.858-7.653h1.67v2.681h-.988l-3.063 4.847v.091h6.904v1.972h-9.381Zm5.585 2.045v-2.636l.046-.858v-8.142h2.307V264h-2.353Z" fill="#fff"/><path d="M328 291H10v-23" stroke="#344054" stroke-dasharray="2 2"/><rect y="50" width="163" height="48" rx="5" fill="#5925DC"/><path d="M19.563 76.194a.562.562 0 0 1 .562.563v2.812a1.125 1.125 0 0 0 1.125 1.125h13.5a1.125 1.125 0 0 0 1.125-1.125v-2.812a.562.562 0 0 1 1.125 0v2.812a2.25 2.25 0 0 1-2.25 2.25h-13.5A2.25 2.25 0 0 1 19 79.57v-2.812a.562.562 0 0 1 .563-.563Z" fill="#fff"/><path d="M27.602 66.346a.56.56 0 0 1 .796 0l3.375 3.375a.563.563 0 0 1-.796.796l-2.415-2.415v9.892a.563.563 0 0 1-1.125 0v-9.892l-2.414 2.415a.563.563 0 1 1-.796-.796l3.375-3.375ZM59 72h-1.41a2.93 2.93 0 0 0-1.187-1.84 3.185 3.185 0 0 0-.972-.478 3.883 3.883 0 0 0-1.113-.16 3.55 3.55 0 0 0-1.915.535c-.569.356-1.021.88-1.358 1.574-.334.693-.5 1.543-.5 2.55 0 1.008.166 1.859.5 2.552.337.693.79 1.218 1.358 1.574a3.55 3.55 0 0 0 1.915.534 3.88 3.88 0 0 0 1.113-.16c.356-.105.68-.262.972-.47a2.984 2.984 0 0 0 1.188-1.847h1.408a4.695 4.695 0 0 1-.58 1.596c-.28.47-.628.87-1.045 1.2a4.58 4.58 0 0 1-1.403.743 5.23 5.23 0 0 1-1.653.256c-.993 0-1.875-.242-2.648-.727-.773-.485-1.38-1.174-1.824-2.068-.443-.894-.665-1.955-.665-3.182 0-1.228.222-2.288.665-3.182.443-.894 1.051-1.583 1.824-2.068.773-.485 1.655-.728 2.648-.728.587 0 1.138.086 1.653.256.519.17.987.42 1.403.75.417.326.765.724 1.046 1.193.28.466.473.998.58 1.597Zm3.435 2.75V80h-1.34V68.364h1.34v4.272h.114a2.47 2.47 0 0 1 .92-1.073c.413-.27.963-.404 1.648-.404.595 0 1.116.12 1.563.358.447.235.793.597 1.04 1.085.25.485.374 1.102.374 1.852V80h-1.34v-5.454c0-.694-.18-1.23-.54-1.609-.356-.382-.85-.573-1.483-.573-.44 0-.833.092-1.182.278a2.036 2.036 0 0 0-.818.813c-.197.356-.296.787-.296 1.295Zm11.658 5.432c-.788 0-1.48-.188-2.074-.563-.59-.375-1.053-.9-1.386-1.573-.33-.675-.495-1.463-.495-2.364 0-.91.165-1.703.495-2.38.333-.679.795-1.205 1.386-1.58.595-.375 1.286-.563 2.074-.563.788 0 1.477.188 2.068.563.595.375 1.057.901 1.387 1.58.333.677.5 1.47.5 2.38 0 .901-.167 1.69-.5 2.364a3.77 3.77 0 0 1-1.387 1.573c-.59.375-1.28.563-2.068.563Zm0-1.205c.599 0 1.09-.153 1.477-.46.387-.307.673-.71.858-1.21.186-.5.279-1.042.279-1.625 0-.584-.093-1.127-.279-1.63a2.749 2.749 0 0 0-.858-1.223c-.386-.31-.878-.465-1.477-.465-.598 0-1.09.155-1.477.465a2.741 2.741 0 0 0-.858 1.222 4.681 4.681 0 0 0-.279 1.63c0 .584.093 1.126.279 1.626.185.5.471.903.858 1.21.386.307.879.46 1.477.46Zm9.547 1.205c-.788 0-1.48-.188-2.074-.563-.59-.375-1.053-.9-1.386-1.573-.33-.675-.495-1.463-.495-2.364 0-.91.165-1.703.495-2.38.333-.679.795-1.205 1.386-1.58.595-.375 1.286-.563 2.074-.563.788 0 1.477.188 2.068.563.595.375 1.057.901 1.386 1.58.334.677.5 1.47.5 2.38 0 .901-.166 1.69-.5 2.364a3.77 3.77 0 0 1-1.386 1.573c-.59.375-1.28.563-2.068.563Zm0-1.205c.598 0 1.09-.153 1.477-.46.387-.307.672-.71.858-1.21.186-.5.279-1.042.279-1.625 0-.584-.093-1.127-.279-1.63a2.748 2.748 0 0 0-.858-1.223c-.386-.31-.879-.465-1.477-.465-.599 0-1.091.155-1.477.465a2.75 2.75 0 0 0-.858 1.222 4.681 4.681 0 0 0-.279 1.63c0 .584.093 1.126.279 1.626.185.5.471.903.858 1.21.386.307.878.46 1.477.46Zm12.183-5.75-1.204.341a2.234 2.234 0 0 0-.336-.585 1.627 1.627 0 0 0-.59-.477c-.25-.125-.57-.188-.96-.188-.535 0-.98.123-1.336.37-.352.242-.528.55-.528.926 0 .333.12.596.363.79.243.193.621.354 1.137.482l1.295.319c.78.189 1.362.479 1.744.869.383.386.574.884.574 1.494 0 .5-.144.947-.432 1.341-.284.394-.681.705-1.193.932-.511.227-1.106.34-1.784.34-.89 0-1.627-.192-2.21-.579-.583-.386-.953-.95-1.108-1.693l1.273-.318c.12.47.35.822.687 1.057.341.235.786.352 1.335.352.625 0 1.122-.133 1.49-.398.37-.269.556-.59.556-.966 0-.303-.106-.556-.318-.761-.212-.208-.538-.364-.978-.466l-1.454-.34c-.8-.19-1.386-.484-1.761-.882-.372-.401-.557-.903-.557-1.505 0-.493.138-.928.414-1.307.28-.379.662-.676 1.143-.892.484-.216 1.034-.324 1.647-.324.864 0 1.542.19 2.034.568.496.38.849.88 1.057 1.5Zm5.837 6.955c-.841 0-1.566-.186-2.176-.557a3.737 3.737 0 0 1-1.404-1.568c-.326-.674-.488-1.459-.488-2.353 0-.893.162-1.681.488-2.363.33-.686.788-1.22 1.375-1.602.591-.387 1.281-.58 2.068-.58.455 0 .904.076 1.347.227.443.152.847.398 1.21.739.364.337.654.784.87 1.34.215.558.323 1.243.323 2.058v.568h-6.727v-1.16h5.364c0-.492-.099-.931-.296-1.317a2.223 2.223 0 0 0-.829-.915c-.356-.224-.777-.335-1.262-.335-.534 0-.996.132-1.386.397a2.616 2.616 0 0 0-.892 1.023c-.208.42-.313.871-.313 1.352v.773c0 .66.114 1.218.341 1.676.231.455.552.801.961 1.04.409.235.884.352 1.426.352.352 0 .67-.049.954-.148.288-.102.536-.253.745-.454.208-.204.369-.458.483-.761l1.295.363a2.87 2.87 0 0 1-.687 1.16 3.35 3.35 0 0 1-1.194.772 4.42 4.42 0 0 1-1.596.273Zm12.721.022a3.54 3.54 0 0 1-1.505-.312 2.582 2.582 0 0 1-1.074-.915c-.265-.401-.398-.886-.398-1.454 0-.5.099-.906.296-1.216.197-.315.46-.56.789-.739.33-.178.694-.31 1.091-.397.402-.092.805-.163 1.21-.217.531-.068.961-.119 1.29-.153.334-.038.576-.1.728-.187.155-.088.232-.239.232-.455v-.045c0-.561-.153-.997-.46-1.307-.303-.31-.763-.466-1.38-.466-.641 0-1.142.14-1.506.42-.364.28-.619.58-.767.898l-1.273-.455c.227-.53.53-.943.909-1.238a3.39 3.39 0 0 1 1.25-.625 5.196 5.196 0 0 1 1.341-.182c.28 0 .602.034.966.102.367.065.722.2 1.063.404.344.204.63.513.857.926.228.413.341.966.341 1.659V80h-1.341v-1.182h-.068c-.091.19-.242.392-.454.608-.212.216-.495.4-.847.551-.352.152-.782.227-1.29.227Zm.205-1.204c.53 0 .977-.104 1.341-.313a2.124 2.124 0 0 0 1.113-1.846v-1.227c-.056.068-.181.13-.375.187a6.29 6.29 0 0 1-.659.142 29.56 29.56 0 0 1-1.284.17 5.19 5.19 0 0 0-.977.222 1.681 1.681 0 0 0-.727.45c-.182.196-.273.465-.273.806 0 .466.172.818.517 1.057.349.235.79.352 1.324.352Zm14.629-7.727v1.136h-4.704v-1.136h4.704ZM125.92 80v-9.932c0-.5.117-.916.352-1.25a2.19 2.19 0 0 1 .915-.75 2.89 2.89 0 0 1 1.187-.25c.33 0 .599.027.807.08.208.053.364.102.466.148l-.386 1.158a7.154 7.154 0 0 0-.284-.085 1.727 1.727 0 0 0-.466-.05c-.444 0-.764.11-.961.334-.193.224-.289.551-.289.983V80h-1.341Zm5.174 0v-8.727h1.341V80h-1.341Zm.682-10.182a.954.954 0 0 1-.676-.267.86.86 0 0 1-.278-.642.86.86 0 0 1 .278-.642.955.955 0 0 1 .676-.267c.262 0 .485.089.671.267a.851.851 0 0 1 .284.642c0 .25-.095.464-.284.642a.934.934 0 0 1-.671.267Zm4.456-1.454V80h-1.341V68.364h1.341Zm6.115 11.818c-.841 0-1.566-.186-2.176-.557a3.733 3.733 0 0 1-1.403-1.568c-.326-.674-.489-1.459-.489-2.353 0-.893.163-1.681.489-2.363.329-.686.788-1.22 1.375-1.602.591-.387 1.28-.58 2.068-.58.454 0 .903.076 1.347.227a3.34 3.34 0 0 1 1.21.739c.363.337.653.784.869 1.34.216.558.324 1.243.324 2.058v.568h-6.727v-1.16h5.363c0-.492-.098-.931-.295-1.317a2.225 2.225 0 0 0-.83-.915c-.356-.224-.776-.335-1.261-.335-.534 0-.996.132-1.386.397a2.608 2.608 0 0 0-.892 1.023c-.209.42-.313.871-.313 1.352v.773c0 .66.114 1.218.341 1.676.231.455.551.801.96 1.04.409.235.885.352 1.426.352a2.9 2.9 0 0 0 .955-.148 2.03 2.03 0 0 0 .744-.454c.208-.204.369-.458.483-.761l1.296.363a2.88 2.88 0 0 1-.688 1.16c-.322.329-.72.587-1.193.772a4.43 4.43 0 0 1-1.597.273Z" fill="#fff"/><path d="M.773 125.614v-1.25H9.5v1.25H5.84V136H4.433v-10.386H.772Zm12.06 5.136V136h-1.34v-11.636h1.34v4.272h.114c.205-.45.512-.808.92-1.074.414-.268.963-.403 1.649-.403.594 0 1.115.119 1.562.358a2.41 2.41 0 0 1 1.04 1.085c.25.485.375 1.103.375 1.853V136h-1.341v-5.455c0-.693-.18-1.229-.54-1.607-.356-.383-.85-.574-1.483-.574-.44 0-.833.092-1.182.278a2.032 2.032 0 0 0-.818.813c-.197.356-.295.787-.295 1.295Zm8.113 5.25v-8.727h1.34V136h-1.34Zm.682-10.182a.954.954 0 0 1-.676-.267.858.858 0 0 1-.279-.642c0-.25.093-.464.279-.642a.954.954 0 0 1 .676-.267c.261 0 .485.089.67.267a.85.85 0 0 1 .284.642.85.85 0 0 1-.284.642.934.934 0 0 1-.67.267Zm9.297 3.409-1.205.341a2.226 2.226 0 0 0-.335-.585 1.628 1.628 0 0 0-.591-.477c-.25-.125-.57-.188-.96-.188-.534 0-.98.123-1.335.37-.353.242-.529.551-.529.926 0 .333.121.596.364.789.242.194.621.355 1.136.483l1.296.319c.78.189 1.361.479 1.744.869.382.386.574.884.574 1.494 0 .5-.144.947-.432 1.341-.284.394-.682.705-1.193.932-.512.227-1.106.341-1.784.341-.89 0-1.627-.193-2.21-.58-.584-.386-.953-.95-1.108-1.693l1.272-.318c.121.47.35.822.688 1.057.34.235.786.352 1.335.352.625 0 1.121-.133 1.489-.398.37-.269.556-.591.556-.966 0-.303-.106-.556-.318-.761-.212-.208-.538-.364-.977-.466l-1.455-.341c-.799-.189-1.386-.483-1.76-.88-.372-.402-.558-.904-.558-1.506 0-.493.138-.928.415-1.307a2.82 2.82 0 0 1 1.142-.892c.485-.216 1.034-.324 1.648-.324.863 0 1.541.189 2.034.568a3.07 3.07 0 0 1 1.057 1.5ZM37.602 136v-8.727h1.341V136h-1.34Zm.682-10.182a.953.953 0 0 1-.676-.267.858.858 0 0 1-.278-.642c0-.25.092-.464.278-.642a.953.953 0 0 1 .676-.267c.261 0 .485.089.67.267a.85.85 0 0 1 .285.642.85.85 0 0 1-.284.642.934.934 0 0 1-.67.267Zm9.297 3.409-1.205.341a2.225 2.225 0 0 0-.335-.585 1.628 1.628 0 0 0-.59-.477c-.25-.125-.57-.188-.96-.188-.535 0-.98.123-1.336.37-.352.242-.529.551-.529.926 0 .333.122.596.364.789.242.194.621.355 1.136.483l1.296.319c.78.189 1.362.479 1.744.869.383.386.574.884.574 1.494 0 .5-.144.947-.432 1.341-.284.394-.682.705-1.193.932-.511.227-1.106.341-1.784.341-.89 0-1.627-.193-2.21-.58-.584-.386-.953-.95-1.108-1.693l1.273-.318c.12.47.35.822.687 1.057.34.235.786.352 1.335.352.625 0 1.121-.133 1.489-.398.371-.269.557-.591.557-.966 0-.303-.106-.556-.319-.761-.212-.208-.537-.364-.977-.466l-1.454-.341c-.8-.189-1.387-.483-1.762-.88-.37-.402-.556-.904-.556-1.506 0-.493.138-.928.414-1.307a2.82 2.82 0 0 1 1.142-.892c.485-.216 1.034-.324 1.648-.324.864 0 1.542.189 2.034.568.496.379.849.879 1.057 1.5Zm8.018 1.523V136h-1.34v-11.636h1.34v4.272h.114c.205-.45.511-.808.92-1.074.413-.268.963-.403 1.648-.403.595 0 1.116.119 1.563.358.447.235.793.597 1.04 1.085.25.485.374 1.103.374 1.853V136h-1.34v-5.455c0-.693-.18-1.229-.54-1.607-.356-.383-.85-.574-1.483-.574-.44 0-.833.092-1.182.278a2.032 2.032 0 0 0-.818.813c-.197.356-.296.787-.296 1.295Zm8.113 5.25v-8.727h1.34V136h-1.34Zm.681-10.182a.954.954 0 0 1-.676-.267.858.858 0 0 1-.278-.642.86.86 0 0 1 .278-.642.954.954 0 0 1 .677-.267c.26 0 .484.089.67.267a.85.85 0 0 1 .284.642.85.85 0 0 1-.284.642.934.934 0 0 1-.67.267Zm4.456 4.932V136h-1.34v-8.727h1.295v1.363h.114c.204-.443.515-.799.931-1.068.417-.273.955-.409 1.614-.409.591 0 1.108.121 1.551.364.443.238.788.602 1.034 1.091.246.484.37 1.098.37 1.841V136h-1.341v-5.455c0-.685-.178-1.219-.534-1.602-.356-.386-.845-.579-1.466-.579-.428 0-.81.092-1.148.278a1.99 1.99 0 0 0-.79.813c-.193.356-.29.787-.29 1.295Zm11.814-3.477v1.136h-4.522v-1.136h4.522Zm-3.204-2.091h1.34v8.318c0 .379.056.663.165.852a.85.85 0 0 0 .432.375c.178.061.366.091.563.091.147 0 .269-.007.363-.023l.228-.045.272 1.205c-.09.034-.217.068-.38.102-.163.038-.37.057-.62.057-.378 0-.75-.082-1.113-.245a2.215 2.215 0 0 1-.898-.744c-.235-.333-.352-.754-.352-1.261v-8.682Zm13.517 2.091v1.136h-4.523v-1.136h4.523Zm-3.205-2.091h1.341v8.318c0 .379.055.663.165.852a.85.85 0 0 0 .432.375c.178.061.365.091.562.091.148 0 .27-.007.364-.023l.227-.045.273 1.205a2.76 2.76 0 0 1-.38.102c-.164.038-.37.057-.62.057a2.7 2.7 0 0 1-1.114-.245 2.215 2.215 0 0 1-.897-.744c-.235-.333-.353-.754-.353-1.261v-8.682Zm8.787 11c-.84 0-1.566-.186-2.176-.557a3.74 3.74 0 0 1-1.403-1.568c-.326-.674-.489-1.459-.489-2.352 0-.894.163-1.682.489-2.364.33-.686.788-1.22 1.375-1.602.59-.387 1.28-.58 2.068-.58.454 0 .903.076 1.347.227.443.152.846.398 1.21.739.363.337.653.784.869 1.341.216.557.324 1.242.324 2.057v.568h-6.727v-1.159h5.363c0-.493-.098-.932-.295-1.318a2.22 2.22 0 0 0-.83-.915c-.356-.224-.776-.335-1.261-.335-.534 0-.996.132-1.386.397a2.624 2.624 0 0 0-.892 1.023 3.004 3.004 0 0 0-.313 1.352v.773c0 .659.114 1.218.34 1.676.232.455.552.801.961 1.04.41.235.885.352 1.426.352.352 0 .67-.049.955-.147a2.05 2.05 0 0 0 .744-.455c.208-.205.37-.458.483-.761l1.296.363c-.137.44-.366.826-.688 1.159-.322.33-.72.587-1.193.773a4.421 4.421 0 0 1-1.597.273Zm6.419-8.909 2.091 3.568 2.091-3.568h1.546l-2.819 4.363 2.819 4.364h-1.546l-2.091-3.386-2.091 3.386h-1.545l2.773-4.364-2.773-4.363h1.545Zm11.436 0v1.136h-4.522v-1.136h4.522Zm-3.204-2.091h1.341v8.318c0 .379.055.663.164.852a.853.853 0 0 0 .432.375c.178.061.366.091.563.091.148 0 .269-.007.363-.023l.228-.045.272 1.205c-.09.034-.217.068-.38.102-.163.038-.37.057-.62.057-.378 0-.75-.082-1.113-.245a2.217 2.217 0 0 1-.898-.744c-.235-.333-.352-.754-.352-1.261v-8.682Z" fill="#344054"/><path d="M20.77 171.968a.789.789 0 0 1 .17.854.789.789 0 0 1-.17.255L9.815 184.032a.79.79 0 0 1-1.108 0l-5.478-5.478a.783.783 0 1 1 1.109-1.108l4.923 4.925 10.401-10.403a.79.79 0 0 1 1.108 0Z" fill="#0A8217"/><path d="M48.045 172.364h1.41v7.704c0 .796-.188 1.506-.563 2.131a3.933 3.933 0 0 1-1.574 1.471c-.678.357-1.473.535-2.386.535s-1.709-.178-2.387-.535a3.973 3.973 0 0 1-1.58-1.471c-.37-.625-.556-1.335-.556-2.131v-7.704h1.41v7.591c0 .568.124 1.073.374 1.517.25.439.606.786 1.068 1.039.466.25 1.023.375 1.67.375.649 0 1.205-.125 1.671-.375.466-.253.822-.6 1.069-1.039.25-.444.374-.949.374-1.517v-7.591Zm4.042 14.909v-12h1.295v1.386h.16c.098-.151.234-.345.408-.579.178-.239.432-.451.762-.637.333-.189.784-.284 1.352-.284.735 0 1.383.184 1.943.551.56.368.998.888 1.313 1.563.314.674.471 1.469.471 2.386 0 .924-.157 1.725-.471 2.403-.315.675-.75 1.197-1.307 1.569-.557.367-1.2.551-1.926.551-.561 0-1.01-.093-1.347-.279-.337-.189-.596-.403-.778-.642a8.534 8.534 0 0 1-.42-.602h-.114v4.614h-1.341Zm1.318-7.637c0 .659.096 1.241.29 1.745.193.5.475.892.846 1.176.371.28.826.42 1.364.42.56 0 1.028-.147 1.403-.443.379-.299.663-.701.852-1.204a4.73 4.73 0 0 0 .29-1.694c0-.613-.094-1.166-.284-1.659-.185-.496-.468-.888-.846-1.176-.375-.292-.847-.437-1.415-.437-.546 0-1.004.138-1.375.414-.371.273-.652.656-.841 1.148-.19.489-.284 1.059-.284 1.71Zm9.773-7.272V184h-1.341v-11.636h1.34Zm6.001 11.818c-.788 0-1.48-.188-2.074-.563-.59-.375-1.053-.899-1.386-1.574-.33-.674-.495-1.462-.495-2.363 0-.909.165-1.703.495-2.381.333-.678.795-1.204 1.386-1.579.595-.375 1.286-.563 2.074-.563.788 0 1.477.188 2.068.563.595.375 1.057.901 1.386 1.579.334.678.5 1.472.5 2.381 0 .901-.166 1.689-.5 2.363a3.764 3.764 0 0 1-1.386 1.574c-.59.375-1.28.563-2.068.563Zm0-1.205c.599 0 1.09-.153 1.477-.46.387-.307.673-.71.858-1.21.186-.5.279-1.042.279-1.625a4.68 4.68 0 0 0-.279-1.631 2.742 2.742 0 0 0-.858-1.221c-.386-.311-.879-.466-1.477-.466-.599 0-1.09.155-1.477.466-.387.31-.673.717-.858 1.221a4.678 4.678 0 0 0-.279 1.631c0 .583.093 1.125.279 1.625.185.5.471.903.858 1.21.386.307.879.46 1.477.46Zm8.57 1.228a3.552 3.552 0 0 1-1.506-.313 2.582 2.582 0 0 1-1.074-.915c-.265-.401-.398-.886-.398-1.454 0-.5.099-.906.296-1.216.197-.315.46-.561.79-.739.33-.178.693-.31 1.09-.398.402-.09.805-.162 1.21-.215.531-.069.96-.12 1.29-.154.334-.038.576-.1.728-.187.155-.087.233-.239.233-.455v-.045c0-.561-.154-.997-.46-1.307-.304-.311-.764-.466-1.381-.466-.64 0-1.142.14-1.506.42-.364.281-.62.58-.767.898l-1.273-.454c.228-.531.53-.944.91-1.239a3.398 3.398 0 0 1 1.25-.625 5.199 5.199 0 0 1 1.34-.182c.28 0 .603.034.966.102.368.065.722.199 1.063.404.344.204.63.513.858.926.227.413.34.966.34 1.659V184h-1.34v-1.182h-.069a2.35 2.35 0 0 1-.454.608c-.212.216-.494.4-.847.551-.352.152-.782.228-1.29.228Zm.204-1.205c.53 0 .977-.104 1.341-.312.368-.209.644-.478.83-.807.189-.33.284-.676.284-1.04v-1.227c-.057.068-.182.13-.375.187-.19.053-.41.101-.66.142a27.7 27.7 0 0 1-.721.102c-.231.027-.419.05-.563.069a5.108 5.108 0 0 0-.977.221 1.69 1.69 0 0 0-.727.449c-.182.197-.273.466-.273.807 0 .466.173.818.517 1.057.349.235.79.352 1.324.352Zm9.538 1.182c-.727 0-1.369-.184-1.926-.551-.556-.372-.992-.894-1.306-1.569-.315-.678-.472-1.479-.472-2.403 0-.917.157-1.712.471-2.386.315-.675.752-1.195 1.313-1.563.56-.367 1.208-.551 1.943-.551.568 0 1.017.095 1.347.284.333.186.587.398.761.637.178.234.316.428.415.579h.114v-4.295h1.34V184h-1.295v-1.341h-.16c-.098.159-.238.36-.42.602-.181.239-.44.453-.778.642-.337.186-.786.279-1.346.279Zm.182-1.205c.538 0 .993-.14 1.364-.42.371-.284.653-.676.846-1.176.194-.504.29-1.086.29-1.745 0-.651-.094-1.221-.284-1.71-.19-.492-.47-.875-.84-1.148-.372-.276-.83-.414-1.376-.414-.568 0-1.041.145-1.42.437-.375.288-.657.68-.847 1.176a4.68 4.68 0 0 0-.278 1.659c0 .622.094 1.186.284 1.694.193.503.477.905.852 1.204.379.296.849.443 1.41.443Zm10.12 1.205c-.841 0-1.567-.186-2.177-.557a3.74 3.74 0 0 1-1.403-1.568c-.326-.674-.489-1.459-.489-2.352 0-.894.163-1.682.49-2.364.329-.686.787-1.22 1.374-1.602.591-.387 1.28-.58 2.068-.58.455 0 .904.076 1.347.227.443.152.846.398 1.21.739.364.337.653.784.869 1.341.216.557.324 1.242.324 2.057v.568h-6.727v-1.159h5.364c0-.493-.099-.932-.296-1.318a2.22 2.22 0 0 0-.83-.915c-.355-.224-.776-.335-1.26-.335-.535 0-.997.132-1.387.397a2.625 2.625 0 0 0-.892 1.023 3.006 3.006 0 0 0-.313 1.352v.773c0 .659.114 1.218.341 1.676.231.455.551.801.96 1.04.41.235.885.352 1.427.352.352 0 .67-.049.954-.147.288-.103.536-.254.745-.455.208-.205.369-.458.482-.761l1.296.363c-.136.44-.366.826-.688 1.159a3.35 3.35 0 0 1-1.193.773 4.421 4.421 0 0 1-1.596.273Zm8.948 0c-.727 0-1.369-.184-1.926-.551-.556-.372-.992-.894-1.306-1.569-.315-.678-.472-1.479-.472-2.403 0-.917.157-1.712.472-2.386.314-.675.751-1.195 1.312-1.563.561-.367 1.208-.551 1.943-.551.568 0 1.017.095 1.347.284.333.186.587.398.761.637.178.234.316.428.415.579h.114v-4.295h1.34V184h-1.295v-1.341h-.159c-.099.159-.239.36-.421.602-.181.239-.441.453-.778.642-.337.186-.786.279-1.347.279Zm.182-1.205c.538 0 .993-.14 1.364-.42.371-.284.653-.676.847-1.176.193-.504.289-1.086.289-1.745 0-.651-.094-1.221-.284-1.71-.189-.492-.469-.875-.841-1.148-.371-.276-.829-.414-1.375-.414-.568 0-1.041.145-1.42.437-.375.288-.657.68-.847 1.176a4.694 4.694 0 0 0-.278 1.659c0 .622.095 1.186.284 1.694.193.503.477.905.852 1.204.379.296.849.443 1.409.443Zm14.847-7.704v1.136h-4.705v-1.136h4.705ZM118.474 184v-9.932c0-.5.118-.916.353-1.25.235-.333.539-.583.914-.75.375-.166.771-.25 1.188-.25.33 0 .598.027.807.08.208.053.363.102.466.147l-.387 1.16a5.962 5.962 0 0 0-.284-.086 1.721 1.721 0 0 0-.466-.051c-.443 0-.763.112-.96.335-.193.224-.29.552-.29.983V184h-1.341Zm5.175 0v-8.727h1.341V184h-1.341Zm.682-10.182a.953.953 0 0 1-.676-.267.857.857 0 0 1-.279-.642c0-.25.093-.464.279-.642a.953.953 0 0 1 .676-.267c.261 0 .485.089.67.267.19.178.285.392.285.642s-.095.464-.285.642a.932.932 0 0 1-.67.267Zm4.456-1.454V184h-1.341v-11.636h1.341Zm6.115 11.818c-.841 0-1.566-.186-2.176-.557a3.744 3.744 0 0 1-1.404-1.568c-.325-.674-.488-1.459-.488-2.352 0-.894.163-1.682.488-2.364.33-.686.788-1.22 1.375-1.602.591-.387 1.281-.58 2.069-.58.454 0 .903.076 1.346.227.443.152.847.398 1.21.739.364.337.654.784.87 1.341.216.557.324 1.242.324 2.057v.568h-6.728v-1.159h5.364c0-.493-.098-.932-.295-1.318a2.226 2.226 0 0 0-.83-.915c-.356-.224-.777-.335-1.261-.335-.534 0-.997.132-1.387.397a2.633 2.633 0 0 0-.892 1.023 3.01 3.01 0 0 0-.312 1.352v.773c0 .659.113 1.218.341 1.676.231.455.551.801.96 1.04.409.235.884.352 1.426.352.352 0 .67-.049.955-.147.287-.103.536-.254.744-.455.208-.205.369-.458.483-.761l1.295.363a2.86 2.86 0 0 1-.687 1.159c-.322.33-.72.587-1.193.773a4.425 4.425 0 0 1-1.597.273Zm14.222-11.818V184h-1.41v-10.159h-.068l-2.841 1.886v-1.432l2.909-1.931h1.41Zm3.659 11.727a.983.983 0 0 1-.722-.301.985.985 0 0 1-.301-.722c0-.28.1-.521.301-.721a.984.984 0 0 1 .722-.302c.28 0 .521.101.721.302.201.2.301.441.301.721a.964.964 0 0 1-.142.512c-.091.155-.214.28-.369.375a.981.981 0 0 1-.511.136Zm7.088.091c-.841 0-1.567-.186-2.176-.557a3.744 3.744 0 0 1-1.404-1.568c-.326-.674-.488-1.459-.488-2.352 0-.894.162-1.682.488-2.364.33-.686.788-1.22 1.375-1.602.591-.387 1.28-.58 2.068-.58.455 0 .904.076 1.347.227.443.152.847.398 1.21.739.364.337.654.784.87 1.341.215.557.323 1.242.323 2.057v.568h-6.727v-1.159h5.364c0-.493-.099-.932-.296-1.318a2.217 2.217 0 0 0-.829-.915c-.356-.224-.777-.335-1.262-.335-.534 0-.996.132-1.386.397a2.625 2.625 0 0 0-.892 1.023 3.01 3.01 0 0 0-.313 1.352v.773c0 .659.114 1.218.341 1.676.231.455.552.801.961 1.04.409.235.884.352 1.426.352.352 0 .67-.049.954-.147.288-.103.536-.254.745-.455.208-.205.369-.458.483-.761l1.295.363c-.136.44-.366.826-.687 1.159a3.35 3.35 0 0 1-1.194.773 4.416 4.416 0 0 1-1.596.273Zm6.419-8.909 2.091 3.568 2.091-3.568h1.545l-2.818 4.363 2.818 4.364h-1.545l-2.091-3.386L166.29 184h-1.546l2.773-4.364-2.773-4.363h1.546Zm11.436 0v1.136h-4.523v-1.136h4.523Zm-3.205-2.091h1.341v8.318c0 .379.055.663.165.852a.853.853 0 0 0 .432.375c.178.061.365.091.562.091.148 0 .269-.007.364-.023l.227-.045.273 1.205a2.74 2.74 0 0 1-.381.102 2.792 2.792 0 0 1-.619.057 2.7 2.7 0 0 1-1.114-.245 2.208 2.208 0 0 1-.897-.744c-.235-.333-.353-.754-.353-1.261v-8.682Zm8.787 11c-.841 0-1.566-.186-2.176-.557a3.736 3.736 0 0 1-1.403-1.568c-.326-.674-.489-1.459-.489-2.352 0-.894.163-1.682.489-2.364.329-.686.788-1.22 1.375-1.602.591-.387 1.28-.58 2.068-.58.454 0 .903.076 1.346.227.444.152.847.398 1.211.739.363.337.653.784.869 1.341.216.557.324 1.242.324 2.057v.568h-6.727v-1.159h5.363c0-.493-.098-.932-.295-1.318a2.219 2.219 0 0 0-.83-.915c-.356-.224-.776-.335-1.261-.335-.534 0-.996.132-1.386.397a2.627 2.627 0 0 0-.893 1.023 3.01 3.01 0 0 0-.312 1.352v.773c0 .659.114 1.218.341 1.676.231.455.551.801.96 1.04.409.235.885.352 1.426.352.353 0 .671-.049.955-.147.288-.103.536-.254.744-.455.208-.205.369-.458.483-.761l1.296.363c-.137.44-.366.826-.688 1.159-.322.33-.72.587-1.193.773a4.425 4.425 0 0 1-1.597.273Zm6.995-5.432V184h-1.341v-8.727h1.295v1.363h.114c.204-.443.515-.799.932-1.068.416-.273.954-.409 1.613-.409.591 0 1.108.121 1.551.364.444.238.788.602 1.034 1.091.247.484.37 1.098.37 1.841V184h-1.341v-5.455c0-.685-.178-1.219-.534-1.602-.356-.386-.845-.579-1.466-.579-.428 0-.811.092-1.148.278a1.998 1.998 0 0 0-.79.813c-.193.356-.289.787-.289 1.295Zm14.2-1.523-1.205.341a2.197 2.197 0 0 0-.335-.585 1.63 1.63 0 0 0-.591-.477c-.25-.125-.57-.188-.96-.188-.534 0-.979.123-1.335.37-.353.242-.529.551-.529.926 0 .333.122.596.364.789.242.194.621.355 1.136.483l1.296.319c.78.189 1.361.479 1.744.869.383.386.574.884.574 1.494 0 .5-.144.947-.432 1.341-.284.394-.682.705-1.193.932-.511.227-1.106.341-1.784.341-.89 0-1.627-.193-2.21-.58-.584-.386-.953-.95-1.108-1.693l1.272-.318c.122.47.351.822.688 1.057.341.235.786.352 1.335.352.625 0 1.121-.133 1.489-.398.371-.269.557-.591.557-.966 0-.303-.106-.556-.319-.761-.212-.208-.537-.364-.977-.466l-1.454-.341c-.8-.189-1.387-.483-1.762-.88-.371-.402-.557-.904-.557-1.506 0-.493.139-.928.415-1.307a2.82 2.82 0 0 1 1.142-.892c.485-.216 1.034-.324 1.648-.324.864 0 1.542.189 2.034.568.496.379.849.879 1.057 1.5ZM206.68 184v-8.727h1.341V184h-1.341Zm.682-10.182a.953.953 0 0 1-.676-.267.856.856 0 0 1-.278-.642c0-.25.092-.464.278-.642a.953.953 0 0 1 .676-.267c.262 0 .485.089.671.267a.851.851 0 0 1 .284.642c0 .25-.095.464-.284.642a.935.935 0 0 1-.671.267Zm6.661 10.364c-.788 0-1.479-.188-2.074-.563-.591-.375-1.053-.899-1.387-1.574-.329-.674-.494-1.462-.494-2.363 0-.909.165-1.703.494-2.381.334-.678.796-1.204 1.387-1.579.595-.375 1.286-.563 2.074-.563.788 0 1.477.188 2.068.563.595.375 1.057.901 1.386 1.579.334.678.5 1.472.5 2.381 0 .901-.166 1.689-.5 2.363a3.758 3.758 0 0 1-1.386 1.574c-.591.375-1.28.563-2.068.563Zm0-1.205c.598 0 1.091-.153 1.477-.46a2.72 2.72 0 0 0 .858-1.21c.186-.5.278-1.042.278-1.625 0-.584-.092-1.127-.278-1.631a2.748 2.748 0 0 0-.858-1.221c-.386-.311-.879-.466-1.477-.466-.599 0-1.091.155-1.478.466-.386.31-.672.717-.857 1.221a4.672 4.672 0 0 0-.279 1.631c0 .583.093 1.125.279 1.625.185.5.471.903.857 1.21.387.307.879.46 1.478.46Zm7.342-4.227V184h-1.341v-8.727h1.296v1.363h.113c.205-.443.515-.799.932-1.068.417-.273.955-.409 1.614-.409.591 0 1.108.121 1.551.364.443.238.788.602 1.034 1.091.246.484.369 1.098.369 1.841V184h-1.341v-5.455c0-.685-.178-1.219-.534-1.602-.356-.386-.844-.579-1.466-.579-.428 0-.81.092-1.147.278a1.985 1.985 0 0 0-.79.813c-.193.356-.29.787-.29 1.295Z" fill="#0F71BB"/><path d="M39 187.182h11.864v1.091H39v-1.091Zm11.86 0h32.116v1.091H50.859v-1.091Zm32.109 0h19.255v1.091H82.969v-1.091Zm19.25 0h20.21v1.091h-20.21v-1.091Zm20.203 0h16.912v1.091h-16.912v-1.091Zm16.906 0h11.932v1.091h-11.932v-1.091Zm11.25 0h4.409v1.091h-4.409v-1.091Zm4.406 0h9.319v1.091h-9.319v-1.091Zm9.078 0h14.459v1.091h-14.459v-1.091Zm14.36 0h9.318v1.091h-9.318v-1.091Zm9.312 0h9.364v1.091h-9.364v-1.091Zm9.36 0h8.363v1.091h-8.363v-1.091Zm8.359 0h22.708v1.091h-22.708v-1.091Z" fill="#0F71BB"/><path d="M256 185.875a7.872 7.872 0 0 1-5.568-2.307 7.872 7.872 0 0 1 0-11.136 7.872 7.872 0 0 1 11.136 0 7.872 7.872 0 0 1 0 11.136 7.872 7.872 0 0 1-5.568 2.307Zm0 1.125a9 9 0 1 0 0-18 9 9 0 0 0 0 18Z" fill="#344054"/><path d="M252.227 174.227a.563.563 0 0 1 .614-.123c.068.029.13.07.182.123l2.977 2.978 2.977-2.978a.555.555 0 0 1 .614-.122c.068.028.13.069.182.122a.555.555 0 0 1 .122.614.545.545 0 0 1-.122.182L256.795 178l2.978 2.977a.555.555 0 0 1 .122.613.539.539 0 0 1-.122.183.555.555 0 0 1-.614.122.545.545 0 0 1-.182-.122L256 178.795l-2.977 2.978a.555.555 0 0 1-.614.122.545.545 0 0 1-.182-.122.539.539 0 0 1-.122-.183.547.547 0 0 1 0-.431.545.545 0 0 1 .122-.182l2.978-2.977-2.978-2.977a.563.563 0 0 1-.123-.614.563.563 0 0 1 .123-.182Z" fill="#344054"/><path d="M20.77 211.968a.789.789 0 0 1 .17.854.789.789 0 0 1-.17.255L9.815 224.032a.79.79 0 0 1-1.108 0l-5.478-5.478a.783.783 0 1 1 1.109-1.108l4.923 4.925 10.401-10.403a.79.79 0 0 1 1.108 0Z" fill="#0A8217"/><path d="M49.045 212.364h1.41v7.704c0 .796-.188 1.506-.563 2.131a3.933 3.933 0 0 1-1.574 1.471c-.678.357-1.473.535-2.386.535s-1.709-.178-2.387-.535a3.973 3.973 0 0 1-1.58-1.471c-.37-.625-.556-1.335-.556-2.131v-7.704h1.41v7.591c0 .568.124 1.073.374 1.517.25.439.606.786 1.068 1.039.466.25 1.023.375 1.67.375.649 0 1.205-.125 1.671-.375.466-.253.822-.6 1.069-1.039.25-.444.374-.949.374-1.517v-7.591Zm4.042 14.909v-12h1.295v1.386h.16c.098-.151.234-.345.408-.579.178-.239.432-.451.762-.637.333-.189.784-.284 1.352-.284.735 0 1.383.184 1.943.551.56.368.998.888 1.313 1.563.314.674.471 1.469.471 2.386 0 .924-.157 1.725-.471 2.403-.315.675-.75 1.197-1.307 1.569-.557.367-1.2.551-1.926.551-.561 0-1.01-.093-1.347-.279-.337-.189-.596-.403-.778-.642a8.534 8.534 0 0 1-.42-.602h-.114v4.614h-1.341Zm1.318-7.637c0 .659.096 1.241.29 1.745.193.5.475.892.846 1.176.371.28.826.42 1.364.42.56 0 1.028-.147 1.403-.443.379-.299.663-.701.852-1.204a4.73 4.73 0 0 0 .29-1.694c0-.613-.094-1.166-.284-1.659-.185-.496-.468-.888-.846-1.176-.375-.292-.847-.437-1.415-.437-.546 0-1.004.138-1.375.414-.371.273-.652.656-.841 1.148-.19.489-.284 1.059-.284 1.71Zm9.773-7.272V224h-1.341v-11.636h1.34Zm6.001 11.818c-.788 0-1.48-.188-2.074-.563-.59-.375-1.053-.899-1.386-1.574-.33-.674-.495-1.462-.495-2.363 0-.909.165-1.703.495-2.381.333-.678.795-1.204 1.386-1.579.595-.375 1.286-.563 2.074-.563.788 0 1.477.188 2.068.563.595.375 1.057.901 1.386 1.579.334.678.5 1.472.5 2.381 0 .901-.166 1.689-.5 2.363a3.764 3.764 0 0 1-1.386 1.574c-.59.375-1.28.563-2.068.563Zm0-1.205c.599 0 1.09-.153 1.477-.46.387-.307.673-.71.858-1.21.186-.5.279-1.042.279-1.625a4.68 4.68 0 0 0-.279-1.631 2.742 2.742 0 0 0-.858-1.221c-.386-.311-.879-.466-1.477-.466-.599 0-1.09.155-1.477.466-.387.31-.673.717-.858 1.221a4.678 4.678 0 0 0-.279 1.631c0 .583.093 1.125.279 1.625.185.5.471.903.858 1.21.386.307.879.46 1.477.46Zm8.57 1.228a3.552 3.552 0 0 1-1.506-.313 2.582 2.582 0 0 1-1.074-.915c-.265-.401-.398-.886-.398-1.454 0-.5.099-.906.296-1.216.197-.315.46-.561.79-.739.33-.178.693-.31 1.09-.398.402-.09.805-.162 1.21-.215.531-.069.96-.12 1.29-.154.334-.038.576-.1.728-.187.155-.087.233-.239.233-.455v-.045c0-.561-.154-.997-.46-1.307-.304-.311-.764-.466-1.381-.466-.64 0-1.142.14-1.506.42-.364.281-.62.58-.767.898l-1.273-.454c.228-.531.53-.944.91-1.239a3.398 3.398 0 0 1 1.25-.625 5.199 5.199 0 0 1 1.34-.182c.28 0 .603.034.966.102.368.065.722.199 1.063.404.344.204.63.513.858.926.227.413.34.966.34 1.659V224h-1.34v-1.182h-.069a2.35 2.35 0 0 1-.454.608c-.212.216-.494.4-.847.551-.352.152-.782.228-1.29.228Zm.204-1.205c.53 0 .977-.104 1.341-.312.368-.209.644-.478.83-.807.189-.33.284-.676.284-1.04v-1.227c-.057.068-.182.13-.375.187-.19.053-.41.101-.66.142a27.7 27.7 0 0 1-.721.102c-.231.027-.419.05-.563.069a5.108 5.108 0 0 0-.977.221 1.69 1.69 0 0 0-.727.449c-.182.197-.273.466-.273.807 0 .466.173.818.517 1.057.349.235.79.352 1.324.352Zm9.538 1.182c-.727 0-1.369-.184-1.926-.551-.556-.372-.992-.894-1.306-1.569-.315-.678-.472-1.479-.472-2.403 0-.917.157-1.712.471-2.386.315-.675.752-1.195 1.313-1.563.56-.367 1.208-.551 1.943-.551.568 0 1.017.095 1.347.284.333.186.587.398.761.637.178.234.316.428.415.579h.114v-4.295h1.34V224h-1.295v-1.341h-.16c-.098.159-.238.36-.42.602-.181.239-.44.453-.778.642-.337.186-.786.279-1.346.279Zm.182-1.205c.538 0 .993-.14 1.364-.42.371-.284.653-.676.846-1.176.194-.504.29-1.086.29-1.745 0-.651-.094-1.221-.284-1.71-.19-.492-.47-.875-.84-1.148-.372-.276-.83-.414-1.376-.414-.568 0-1.041.145-1.42.437-.375.288-.657.68-.847 1.176a4.68 4.68 0 0 0-.278 1.659c0 .622.094 1.186.284 1.694.193.503.477.905.852 1.204.379.296.849.443 1.41.443Zm10.12 1.205c-.841 0-1.567-.186-2.177-.557a3.74 3.74 0 0 1-1.403-1.568c-.326-.674-.489-1.459-.489-2.352 0-.894.163-1.682.49-2.364.329-.686.787-1.22 1.374-1.602.591-.387 1.28-.58 2.068-.58.455 0 .904.076 1.347.227.443.152.846.398 1.21.739.364.337.653.784.869 1.341.216.557.324 1.242.324 2.057v.568h-6.727v-1.159h5.364c0-.493-.099-.932-.296-1.318a2.222 2.222 0 0 0-.83-.915c-.355-.224-.776-.335-1.26-.335-.535 0-.997.132-1.387.397a2.625 2.625 0 0 0-.892 1.023 3.006 3.006 0 0 0-.313 1.352v.773c0 .659.114 1.218.341 1.676.231.455.551.801.96 1.04.41.235.885.352 1.427.352.352 0 .67-.049.954-.147.288-.103.536-.254.744-.455.209-.205.37-.458.483-.761l1.296.363c-.136.44-.366.826-.688 1.159-.322.33-.719.587-1.193.773a4.42 4.42 0 0 1-1.596.273Zm8.948 0c-.727 0-1.369-.184-1.926-.551-.556-.372-.992-.894-1.306-1.569-.315-.678-.472-1.479-.472-2.403 0-.917.157-1.712.472-2.386.314-.675.751-1.195 1.312-1.563.561-.367 1.208-.551 1.943-.551.568 0 1.017.095 1.347.284.333.186.587.398.761.637.178.234.316.428.415.579h.114v-4.295h1.34V224h-1.295v-1.341h-.159c-.099.159-.239.36-.421.602-.181.239-.441.453-.778.642-.337.186-.786.279-1.347.279Zm.182-1.205c.538 0 .993-.14 1.364-.42.371-.284.653-.676.847-1.176.193-.504.289-1.086.289-1.745 0-.651-.094-1.221-.284-1.71-.189-.492-.469-.875-.841-1.148-.371-.276-.829-.414-1.375-.414-.568 0-1.041.145-1.42.437-.375.288-.657.68-.847 1.176a4.694 4.694 0 0 0-.278 1.659c0 .622.095 1.186.284 1.694.193.503.477.905.852 1.204.379.296.849.443 1.409.443Zm14.847-7.704v1.136h-4.705v-1.136h4.705ZM119.474 224v-9.932c0-.5.118-.916.353-1.25.235-.333.539-.583.914-.75.375-.166.771-.25 1.188-.25.33 0 .598.027.807.08.208.053.363.102.466.147l-.387 1.16a5.962 5.962 0 0 0-.284-.086 1.721 1.721 0 0 0-.466-.051c-.443 0-.763.112-.96.335-.193.224-.29.552-.29.983V224h-1.341Zm5.175 0v-8.727h1.341V224h-1.341Zm.682-10.182a.953.953 0 0 1-.676-.267.857.857 0 0 1-.279-.642c0-.25.093-.464.279-.642a.953.953 0 0 1 .676-.267c.261 0 .485.089.67.267.19.178.285.392.285.642s-.095.464-.285.642a.932.932 0 0 1-.67.267Zm4.456-1.454V224h-1.341v-11.636h1.341Zm6.115 11.818c-.841 0-1.566-.186-2.176-.557a3.744 3.744 0 0 1-1.404-1.568c-.325-.674-.488-1.459-.488-2.352 0-.894.163-1.682.488-2.364.33-.686.788-1.22 1.375-1.602.591-.387 1.281-.58 2.069-.58.454 0 .903.076 1.346.227.443.152.847.398 1.21.739.364.337.654.784.87 1.341.216.557.324 1.242.324 2.057v.568h-6.728v-1.159h5.364c0-.493-.098-.932-.295-1.318a2.226 2.226 0 0 0-.83-.915c-.356-.224-.777-.335-1.261-.335-.534 0-.997.132-1.387.397a2.633 2.633 0 0 0-.892 1.023 3.01 3.01 0 0 0-.312 1.352v.773c0 .659.113 1.218.341 1.676.231.455.551.801.96 1.04.409.235.884.352 1.426.352.352 0 .67-.049.955-.147.287-.103.536-.254.744-.455.208-.205.369-.458.483-.761l1.295.363a2.86 2.86 0 0 1-.687 1.159c-.322.33-.72.587-1.193.773a4.425 4.425 0 0 1-1.597.273Zm10.131-.182v-1.023l3.841-4.204c.45-.493.822-.921 1.113-1.284a4.75 4.75 0 0 0 .648-1.034c.144-.326.216-.667.216-1.023 0-.409-.099-.763-.296-1.063a1.917 1.917 0 0 0-.795-.693 2.576 2.576 0 0 0-1.136-.244c-.447 0-.838.093-1.171.278a1.926 1.926 0 0 0-.767.767c-.178.33-.267.716-.267 1.159h-1.341c0-.681.157-1.28.472-1.795a3.275 3.275 0 0 1 1.284-1.205c.545-.288 1.157-.431 1.835-.431.682 0 1.286.143 1.813.431.526.288.939.676 1.238 1.165.299.489.449 1.032.449 1.631 0 .428-.078.846-.233 1.256-.151.405-.417.857-.795 1.357-.375.497-.896 1.103-1.563 1.819l-2.614 2.795v.091h5.41V224h-7.341Zm10.687.091c-.28 0-.521-.1-.721-.301a.986.986 0 0 1-.302-.722c0-.28.101-.521.302-.721a.982.982 0 0 1 .721-.302c.28 0 .521.101.722.302.201.2.301.441.301.721a.964.964 0 0 1-.142.512c-.091.155-.214.28-.369.375a.985.985 0 0 1-.512.136Zm7.088.091c-.841 0-1.566-.186-2.176-.557a3.736 3.736 0 0 1-1.403-1.568c-.326-.674-.489-1.459-.489-2.352 0-.894.163-1.682.489-2.364.329-.686.788-1.22 1.375-1.602.591-.387 1.28-.58 2.068-.58.454 0 .903.076 1.346.227.444.152.847.398 1.211.739.363.337.653.784.869 1.341.216.557.324 1.242.324 2.057v.568h-6.727v-1.159h5.363c0-.493-.098-.932-.295-1.318a2.219 2.219 0 0 0-.83-.915c-.356-.224-.776-.335-1.261-.335-.534 0-.996.132-1.386.397a2.627 2.627 0 0 0-.893 1.023 3.01 3.01 0 0 0-.312 1.352v.773c0 .659.114 1.218.341 1.676.231.455.551.801.96 1.04.409.235.885.352 1.426.352.353 0 .671-.049.955-.147.288-.103.536-.254.744-.455.208-.205.369-.458.483-.761l1.296.363c-.137.44-.366.826-.688 1.159-.322.33-.72.587-1.193.773a4.425 4.425 0 0 1-1.597.273Zm6.419-8.909 2.091 3.568 2.091-3.568h1.546l-2.819 4.363 2.819 4.364h-1.546l-2.091-3.386-2.091 3.386h-1.545l2.773-4.364-2.773-4.363h1.545Zm11.436 0v1.136h-4.522v-1.136h4.522Zm-3.204-2.091h1.341v8.318c0 .379.055.663.164.852a.853.853 0 0 0 .432.375c.178.061.366.091.563.091.148 0 .269-.007.363-.023l.228-.045.272 1.205c-.09.034-.217.068-.38.102-.163.038-.37.057-.62.057-.378 0-.75-.082-1.113-.245a2.217 2.217 0 0 1-.898-.744c-.235-.333-.352-.754-.352-1.261v-8.682Zm8.787 11c-.841 0-1.567-.186-2.176-.557a3.744 3.744 0 0 1-1.404-1.568c-.326-.674-.488-1.459-.488-2.352 0-.894.162-1.682.488-2.364.33-.686.788-1.22 1.375-1.602.591-.387 1.28-.58 2.068-.58.455 0 .904.076 1.347.227.443.152.847.398 1.21.739.364.337.654.784.87 1.341.215.557.323 1.242.323 2.057v.568h-6.727v-1.159h5.364c0-.493-.099-.932-.296-1.318a2.217 2.217 0 0 0-.829-.915c-.356-.224-.777-.335-1.262-.335-.534 0-.996.132-1.386.397a2.625 2.625 0 0 0-.892 1.023 3.01 3.01 0 0 0-.313 1.352v.773c0 .659.114 1.218.341 1.676.231.455.552.801.961 1.04.409.235.884.352 1.426.352.352 0 .67-.049.954-.147.288-.103.536-.254.745-.455.208-.205.369-.458.483-.761l1.295.363c-.136.44-.366.826-.687 1.159a3.35 3.35 0 0 1-1.194.773 4.416 4.416 0 0 1-1.596.273Zm6.994-5.432V224h-1.341v-8.727h1.296v1.363h.113c.205-.443.515-.799.932-1.068.417-.273.955-.409 1.614-.409.591 0 1.108.121 1.551.364.443.238.788.602 1.034 1.091.246.484.369 1.098.369 1.841V224h-1.341v-5.455c0-.685-.178-1.219-.534-1.602-.356-.386-.844-.579-1.466-.579-.428 0-.81.092-1.147.278a1.985 1.985 0 0 0-.79.813c-.193.356-.29.787-.29 1.295Zm14.2-1.523-1.204.341a2.253 2.253 0 0 0-.335-.585 1.63 1.63 0 0 0-.591-.477c-.25-.125-.57-.188-.961-.188-.534 0-.979.123-1.335.37-.352.242-.528.551-.528.926 0 .333.121.596.363.789.243.194.622.355 1.137.483l1.295.319c.781.189 1.362.479 1.745.869.382.386.573.884.573 1.494 0 .5-.144.947-.431 1.341-.284.394-.682.705-1.194.932-.511.227-1.106.341-1.784.341-.89 0-1.627-.193-2.21-.58-.583-.386-.953-.95-1.108-1.693l1.273-.318c.121.47.35.822.687 1.057.341.235.786.352 1.336.352.625 0 1.121-.133 1.488-.398.371-.269.557-.591.557-.966 0-.303-.106-.556-.318-.761-.212-.208-.538-.364-.977-.466l-1.455-.341c-.799-.189-1.386-.483-1.761-.88-.372-.402-.557-.904-.557-1.506 0-.493.138-.928.415-1.307a2.82 2.82 0 0 1 1.142-.892c.485-.216 1.034-.324 1.647-.324.864 0 1.542.189 2.035.568.496.379.848.879 1.056 1.5Zm2.178 6.773v-8.727h1.341V224h-1.341Zm.682-10.182a.951.951 0 0 1-.676-.267.857.857 0 0 1-.279-.642c0-.25.093-.464.279-.642a.951.951 0 0 1 .676-.267c.261 0 .485.089.67.267.19.178.284.392.284.642s-.094.464-.284.642a.932.932 0 0 1-.67.267Zm6.66 10.364c-.788 0-1.479-.188-2.074-.563-.591-.375-1.053-.899-1.386-1.574-.33-.674-.494-1.462-.494-2.363 0-.909.164-1.703.494-2.381.333-.678.795-1.204 1.386-1.579.595-.375 1.286-.563 2.074-.563.788 0 1.478.188 2.068.563.595.375 1.057.901 1.387 1.579.333.678.5 1.472.5 2.381 0 .901-.167 1.689-.5 2.363-.33.675-.792 1.199-1.387 1.574-.59.375-1.28.563-2.068.563Zm0-1.205c.599 0 1.091-.153 1.478-.46a2.71 2.71 0 0 0 .857-1.21c.186-.5.279-1.042.279-1.625 0-.584-.093-1.127-.279-1.631a2.738 2.738 0 0 0-.857-1.221c-.387-.311-.879-.466-1.478-.466-.598 0-1.091.155-1.477.466-.386.31-.672.717-.858 1.221a4.671 4.671 0 0 0-.278 1.631c0 .583.092 1.125.278 1.625.186.5.472.903.858 1.21.386.307.879.46 1.477.46Zm7.343-4.227V224h-1.341v-8.727h1.295v1.363h.114c.204-.443.515-.799.932-1.068.416-.273.954-.409 1.613-.409.591 0 1.108.121 1.551.364.444.238.788.602 1.034 1.091.247.484.37 1.098.37 1.841V224h-1.341v-5.455c0-.685-.178-1.219-.534-1.602-.356-.386-.845-.579-1.466-.579-.428 0-.811.092-1.148.278a1.998 1.998 0 0 0-.79.813c-.193.356-.289.787-.289 1.295Z" fill="#0F71BB"/><path d="M40 227.182h11.864v1.091H40v-1.091Zm11.86 0h32.116v1.091H51.859v-1.091Zm32.109 0h19.255v1.091H83.969v-1.091Zm19.25 0h20.21v1.091h-20.21v-1.091Zm20.203 0h16.912v1.091h-16.912v-1.091Zm16.906 0h18.597v1.091h-18.597v-1.091Zm18.594 0h9.318v1.091h-9.318v-1.091Zm9.078 0h14.459v1.091H168v-1.091Zm14.359 0h9.319v1.091h-9.319v-1.091Zm9.313 0h9.364v1.091h-9.364v-1.091Zm9.359 0h8.364v1.091h-8.364v-1.091Zm8.36 0h22.707v1.091h-22.707v-1.091Z" fill="#0F71BB"/><path d="M261 225.875a7.872 7.872 0 0 1-5.568-2.307 7.872 7.872 0 0 1 0-11.136 7.872 7.872 0 0 1 11.136 0 7.872 7.872 0 0 1 0 11.136 7.872 7.872 0 0 1-5.568 2.307Zm0 1.125a9 9 0 1 0 0-18 9 9 0 0 0 0 18Z" fill="#344054"/><path d="M257.227 214.227a.563.563 0 0 1 .614-.123c.068.029.13.07.182.123l2.977 2.978 2.977-2.978a.555.555 0 0 1 .614-.122c.068.028.13.069.182.122a.555.555 0 0 1 .122.614.545.545 0 0 1-.122.182L261.795 218l2.978 2.977a.555.555 0 0 1 .122.613.539.539 0 0 1-.122.183.555.555 0 0 1-.614.122.545.545 0 0 1-.182-.122L261 218.795l-2.977 2.978a.555.555 0 0 1-.614.122.545.545 0 0 1-.182-.122.539.539 0 0 1-.122-.183.547.547 0 0 1 0-.431.545.545 0 0 1 .122-.182l2.978-2.977-2.978-2.977a.563.563 0 0 1-.123-.614.563.563 0 0 1 .123-.182Z" fill="#344054"/><path d="M20.77 251.968a.789.789 0 0 1 .17.854.789.789 0 0 1-.17.255L9.815 264.032a.79.79 0 0 1-1.108 0l-5.478-5.478a.783.783 0 1 1 1.109-1.108l4.923 4.925 10.401-10.403a.79.79 0 0 1 1.108 0Z" fill="#0A8217"/><path d="M49.045 252.364h1.41v7.704c0 .796-.188 1.506-.563 2.131a3.933 3.933 0 0 1-1.574 1.471c-.678.357-1.473.535-2.386.535s-1.709-.178-2.387-.535a3.973 3.973 0 0 1-1.58-1.471c-.37-.625-.556-1.335-.556-2.131v-7.704h1.41v7.591c0 .568.124 1.073.374 1.517.25.439.606.786 1.068 1.039.466.25 1.023.375 1.67.375.649 0 1.205-.125 1.671-.375.466-.253.822-.6 1.069-1.039.25-.444.374-.949.374-1.517v-7.591Zm4.042 14.909v-12h1.295v1.386h.16c.098-.151.234-.345.408-.579.178-.239.432-.451.762-.637.333-.189.784-.284 1.352-.284.735 0 1.383.184 1.943.551.56.368.998.888 1.313 1.563.314.674.471 1.469.471 2.386 0 .924-.157 1.725-.471 2.403-.315.675-.75 1.197-1.307 1.569-.557.367-1.2.551-1.926.551-.561 0-1.01-.093-1.347-.279-.337-.189-.596-.403-.778-.642a8.534 8.534 0 0 1-.42-.602h-.114v4.614h-1.341Zm1.318-7.637c0 .659.096 1.241.29 1.745.193.5.475.892.846 1.176.371.28.826.42 1.364.42.56 0 1.028-.147 1.403-.443.379-.299.663-.701.852-1.204a4.73 4.73 0 0 0 .29-1.694c0-.613-.094-1.166-.284-1.659-.185-.496-.468-.888-.846-1.176-.375-.292-.847-.437-1.415-.437-.546 0-1.004.138-1.375.414-.371.273-.652.656-.841 1.148-.19.489-.284 1.059-.284 1.71Zm9.773-7.272V264h-1.341v-11.636h1.34Zm6.001 11.818c-.788 0-1.48-.188-2.074-.563-.59-.375-1.053-.899-1.386-1.574-.33-.674-.495-1.462-.495-2.363 0-.909.165-1.703.495-2.381.333-.678.795-1.204 1.386-1.579.595-.375 1.286-.563 2.074-.563.788 0 1.477.188 2.068.563.595.375 1.057.901 1.386 1.579.334.678.5 1.472.5 2.381 0 .901-.166 1.689-.5 2.363a3.764 3.764 0 0 1-1.386 1.574c-.59.375-1.28.563-2.068.563Zm0-1.205c.599 0 1.09-.153 1.477-.46.387-.307.673-.71.858-1.21.186-.5.279-1.042.279-1.625a4.68 4.68 0 0 0-.279-1.631 2.742 2.742 0 0 0-.858-1.221c-.386-.311-.879-.466-1.477-.466-.599 0-1.09.155-1.477.466-.387.31-.673.717-.858 1.221a4.678 4.678 0 0 0-.279 1.631c0 .583.093 1.125.279 1.625.185.5.471.903.858 1.21.386.307.879.46 1.477.46Zm8.57 1.228a3.552 3.552 0 0 1-1.506-.313 2.582 2.582 0 0 1-1.074-.915c-.265-.401-.398-.886-.398-1.454 0-.5.099-.906.296-1.216.197-.315.46-.561.79-.739.33-.178.693-.31 1.09-.398.402-.09.805-.162 1.21-.215.531-.069.96-.12 1.29-.154.334-.038.576-.1.728-.187.155-.087.233-.239.233-.455v-.045c0-.561-.154-.997-.46-1.307-.304-.311-.764-.466-1.381-.466-.64 0-1.142.14-1.506.42-.364.281-.62.58-.767.898l-1.273-.454c.228-.531.53-.944.91-1.239a3.398 3.398 0 0 1 1.25-.625 5.199 5.199 0 0 1 1.34-.182c.28 0 .603.034.966.102.368.065.722.199 1.063.404.344.204.63.513.858.926.227.413.34.966.34 1.659V264h-1.34v-1.182h-.069a2.35 2.35 0 0 1-.454.608c-.212.216-.494.4-.847.551-.352.152-.782.228-1.29.228Zm.204-1.205c.53 0 .977-.104 1.341-.312.368-.209.644-.478.83-.807.189-.33.284-.676.284-1.04v-1.227c-.057.068-.182.13-.375.187-.19.053-.41.101-.66.142a27.7 27.7 0 0 1-.721.102c-.231.027-.419.05-.563.069a5.108 5.108 0 0 0-.977.221 1.69 1.69 0 0 0-.727.449c-.182.197-.273.466-.273.807 0 .466.173.818.517 1.057.349.235.79.352 1.324.352Zm9.538 1.182c-.727 0-1.369-.184-1.926-.551-.556-.372-.992-.894-1.306-1.569-.315-.678-.472-1.479-.472-2.403 0-.917.157-1.712.471-2.386.315-.675.752-1.195 1.313-1.563.56-.367 1.208-.551 1.943-.551.568 0 1.017.095 1.347.284.333.186.587.398.761.637.178.234.316.428.415.579h.114v-4.295h1.34V264h-1.295v-1.341h-.16c-.098.159-.238.36-.42.602-.181.239-.44.453-.778.642-.337.186-.786.279-1.346.279Zm.182-1.205c.538 0 .993-.14 1.364-.42.371-.284.653-.676.846-1.176.194-.504.29-1.086.29-1.745 0-.651-.094-1.221-.284-1.71-.19-.492-.47-.875-.84-1.148-.372-.276-.83-.414-1.376-.414-.568 0-1.041.145-1.42.437-.375.288-.657.68-.847 1.176a4.68 4.68 0 0 0-.278 1.659c0 .622.094 1.186.284 1.694.193.503.477.905.852 1.204.379.296.849.443 1.41.443Zm10.12 1.205c-.841 0-1.567-.186-2.177-.557a3.74 3.74 0 0 1-1.403-1.568c-.326-.674-.489-1.459-.489-2.352 0-.894.163-1.682.49-2.364.329-.686.787-1.22 1.374-1.602.591-.387 1.28-.58 2.068-.58.455 0 .904.076 1.347.227.443.152.846.398 1.21.739.364.337.653.784.869 1.341.216.557.324 1.242.324 2.057v.568h-6.727v-1.159h5.364c0-.493-.099-.932-.296-1.318a2.222 2.222 0 0 0-.83-.915c-.355-.224-.776-.335-1.26-.335-.535 0-.997.132-1.387.397a2.625 2.625 0 0 0-.892 1.023 3.006 3.006 0 0 0-.313 1.352v.773c0 .659.114 1.218.341 1.676.231.455.551.801.96 1.04.41.235.885.352 1.427.352.352 0 .67-.049.954-.147.288-.103.536-.254.744-.455.209-.205.37-.458.483-.761l1.296.363c-.136.44-.366.826-.688 1.159-.322.33-.719.587-1.193.773a4.42 4.42 0 0 1-1.596.273Zm8.948 0c-.727 0-1.369-.184-1.926-.551-.556-.372-.992-.894-1.306-1.569-.315-.678-.472-1.479-.472-2.403 0-.917.157-1.712.472-2.386.314-.675.751-1.195 1.312-1.563.561-.367 1.208-.551 1.943-.551.568 0 1.017.095 1.347.284.333.186.587.398.761.637.178.234.316.428.415.579h.114v-4.295h1.34V264h-1.295v-1.341h-.159c-.099.159-.239.36-.421.602-.181.239-.441.453-.778.642-.337.186-.786.279-1.347.279Zm.182-1.205c.538 0 .993-.14 1.364-.42.371-.284.653-.676.847-1.176.193-.504.289-1.086.289-1.745 0-.651-.094-1.221-.284-1.71-.189-.492-.469-.875-.841-1.148-.371-.276-.829-.414-1.375-.414-.568 0-1.041.145-1.42.437-.375.288-.657.68-.847 1.176a4.694 4.694 0 0 0-.278 1.659c0 .622.095 1.186.284 1.694.193.503.477.905.852 1.204.379.296.849.443 1.409.443Zm14.847-7.704v1.136h-4.705v-1.136h4.705ZM119.474 264v-9.932c0-.5.118-.916.353-1.25.235-.333.539-.583.914-.75.375-.166.771-.25 1.188-.25.33 0 .598.027.807.08.208.053.363.102.466.147l-.387 1.16a5.962 5.962 0 0 0-.284-.086 1.721 1.721 0 0 0-.466-.051c-.443 0-.763.112-.96.335-.193.224-.29.552-.29.983V264h-1.341Zm5.175 0v-8.727h1.341V264h-1.341Zm.682-10.182a.953.953 0 0 1-.676-.267.857.857 0 0 1-.279-.642c0-.25.093-.464.279-.642a.953.953 0 0 1 .676-.267c.261 0 .485.089.67.267.19.178.285.392.285.642s-.095.464-.285.642a.932.932 0 0 1-.67.267Zm4.456-1.454V264h-1.341v-11.636h1.341Zm6.115 11.818c-.841 0-1.566-.186-2.176-.557a3.744 3.744 0 0 1-1.404-1.568c-.325-.674-.488-1.459-.488-2.352 0-.894.163-1.682.488-2.364.33-.686.788-1.22 1.375-1.602.591-.387 1.281-.58 2.069-.58.454 0 .903.076 1.346.227.443.152.847.398 1.21.739.364.337.654.784.87 1.341.216.557.324 1.242.324 2.057v.568h-6.728v-1.159h5.364c0-.493-.098-.932-.295-1.318a2.226 2.226 0 0 0-.83-.915c-.356-.224-.777-.335-1.261-.335-.534 0-.997.132-1.387.397a2.633 2.633 0 0 0-.892 1.023 3.01 3.01 0 0 0-.312 1.352v.773c0 .659.113 1.218.341 1.676.231.455.551.801.96 1.04.409.235.884.352 1.426.352.352 0 .67-.049.955-.147.287-.103.536-.254.744-.455.208-.205.369-.458.483-.761l1.295.363a2.86 2.86 0 0 1-.687 1.159c-.322.33-.72.587-1.193.773a4.425 4.425 0 0 1-1.597.273Zm14.062-.023c-.75 0-1.418-.129-2.005-.386-.584-.258-1.048-.616-1.392-1.074a2.883 2.883 0 0 1-.557-1.608h1.432c.03.375.159.699.386.971.227.269.525.478.892.626.368.147.775.221 1.222.221.5 0 .943-.087 1.329-.261.387-.175.69-.417.909-.728.22-.31.33-.67.33-1.079 0-.428-.106-.805-.318-1.131-.212-.329-.523-.587-.932-.772-.409-.186-.909-.279-1.5-.279h-.932v-1.25h.932c.462 0 .867-.083 1.216-.25.352-.167.627-.401.824-.704.2-.303.301-.66.301-1.069a1.96 1.96 0 0 0-.262-1.028 1.785 1.785 0 0 0-.738-.682c-.315-.163-.686-.244-1.114-.244-.401 0-.78.074-1.136.221-.352.144-.64.355-.864.631a1.645 1.645 0 0 0-.363.989h-1.364c.023-.61.206-1.144.551-1.603a3.471 3.471 0 0 1 1.352-1.079 4.364 4.364 0 0 1 1.847-.386c.72 0 1.337.145 1.852.437a3.09 3.09 0 0 1 1.188 1.142c.276.474.414.985.414 1.534 0 .655-.172 1.214-.517 1.676-.34.462-.804.783-1.392.961v.09c.735.122 1.309.434 1.722.938.413.5.619 1.119.619 1.858 0 .632-.172 1.201-.517 1.704-.341.5-.807.894-1.397 1.182-.591.288-1.264.432-2.018.432Zm6.897-.068a.983.983 0 0 1-.722-.301.985.985 0 0 1-.301-.722c0-.28.1-.521.301-.721a.984.984 0 0 1 .722-.302c.28 0 .521.101.721.302.201.2.302.441.302.721a.965.965 0 0 1-.143.512 1.06 1.06 0 0 1-.369.375.981.981 0 0 1-.511.136Zm7.088.091c-.841 0-1.566-.186-2.176-.557a3.744 3.744 0 0 1-1.404-1.568c-.325-.674-.488-1.459-.488-2.352 0-.894.163-1.682.488-2.364.33-.686.788-1.22 1.375-1.602.591-.387 1.281-.58 2.068-.58.455 0 .904.076 1.347.227.443.152.847.398 1.21.739.364.337.654.784.87 1.341.216.557.323 1.242.323 2.057v.568h-6.727v-1.159h5.364c0-.493-.099-.932-.296-1.318a2.217 2.217 0 0 0-.829-.915c-.356-.224-.777-.335-1.262-.335-.534 0-.996.132-1.386.397a2.625 2.625 0 0 0-.892 1.023 3.01 3.01 0 0 0-.312 1.352v.773c0 .659.113 1.218.34 1.676.232.455.552.801.961 1.04.409.235.884.352 1.426.352.352 0 .67-.049.954-.147.288-.103.536-.254.745-.455.208-.205.369-.458.483-.761l1.295.363a2.86 2.86 0 0 1-.687 1.159 3.35 3.35 0 0 1-1.194.773 4.416 4.416 0 0 1-1.596.273Zm6.419-8.909 2.091 3.568 2.091-3.568h1.545l-2.818 4.363 2.818 4.364h-1.545l-2.091-3.386-2.091 3.386h-1.546l2.773-4.364-2.773-4.363h1.546Zm11.436 0v1.136h-4.523v-1.136h4.523Zm-3.205-2.091h1.341v8.318c0 .379.055.663.165.852a.853.853 0 0 0 .432.375c.178.061.365.091.562.091.148 0 .269-.007.364-.023l.227-.045.273 1.205a2.74 2.74 0 0 1-.381.102 2.785 2.785 0 0 1-.619.057 2.7 2.7 0 0 1-1.114-.245 2.214 2.214 0 0 1-.897-.744c-.235-.333-.353-.754-.353-1.261v-8.682Zm8.787 11c-.841 0-1.566-.186-2.176-.557a3.736 3.736 0 0 1-1.403-1.568c-.326-.674-.489-1.459-.489-2.352 0-.894.163-1.682.489-2.364.329-.686.788-1.22 1.375-1.602.591-.387 1.28-.58 2.068-.58.455 0 .903.076 1.347.227.443.152.846.398 1.21.739.363.337.653.784.869 1.341.216.557.324 1.242.324 2.057v.568h-6.727v-1.159h5.363c0-.493-.098-.932-.295-1.318a2.219 2.219 0 0 0-.83-.915c-.356-.224-.776-.335-1.261-.335-.534 0-.996.132-1.386.397a2.617 2.617 0 0 0-.892 1.023 2.997 2.997 0 0 0-.313 1.352v.773c0 .659.114 1.218.341 1.676.231.455.551.801.96 1.04.409.235.885.352 1.426.352.353 0 .671-.049.955-.147.288-.103.536-.254.744-.455.209-.205.37-.458.483-.761l1.296.363c-.137.44-.366.826-.688 1.159-.322.33-.72.587-1.193.773a4.425 4.425 0 0 1-1.597.273Zm6.995-5.432V264h-1.341v-8.727h1.295v1.363h.114c.204-.443.515-.799.932-1.068.416-.273.954-.409 1.613-.409.591 0 1.108.121 1.551.364.444.238.788.602 1.035 1.091.246.484.369 1.098.369 1.841V264h-1.341v-5.455c0-.685-.178-1.219-.534-1.602-.356-.386-.845-.579-1.466-.579-.428 0-.811.092-1.148.278a1.998 1.998 0 0 0-.79.813c-.193.356-.289.787-.289 1.295Zm14.2-1.523-1.205.341a2.197 2.197 0 0 0-.335-.585 1.63 1.63 0 0 0-.591-.477c-.25-.125-.57-.188-.96-.188-.534 0-.979.123-1.335.37-.352.242-.529.551-.529.926 0 .333.122.596.364.789.242.194.621.355 1.136.483l1.296.319c.78.189 1.362.479 1.744.869.383.386.574.884.574 1.494 0 .5-.144.947-.432 1.341-.284.394-.682.705-1.193.932-.511.227-1.106.341-1.784.341-.89 0-1.627-.193-2.21-.58-.584-.386-.953-.95-1.108-1.693l1.273-.318c.121.47.35.822.687 1.057.341.235.786.352 1.335.352.625 0 1.121-.133 1.489-.398.371-.269.557-.591.557-.966 0-.303-.106-.556-.318-.761-.213-.208-.538-.364-.978-.466l-1.454-.341c-.8-.189-1.387-.483-1.762-.88-.371-.402-.556-.904-.556-1.506 0-.493.138-.928.414-1.307a2.827 2.827 0 0 1 1.142-.892c.485-.216 1.034-.324 1.648-.324.864 0 1.542.189 2.034.568.496.379.849.879 1.057 1.5Zm2.178 6.773v-8.727h1.34V264h-1.34Zm.681-10.182a.955.955 0 0 1-.676-.267.86.86 0 0 1-.278-.642.86.86 0 0 1 .278-.642.955.955 0 0 1 .676-.267c.262 0 .485.089.671.267a.851.851 0 0 1 .284.642c0 .25-.095.464-.284.642a.935.935 0 0 1-.671.267Zm6.661 10.364c-.788 0-1.479-.188-2.074-.563-.591-.375-1.053-.899-1.386-1.574-.33-.674-.495-1.462-.495-2.363 0-.909.165-1.703.495-2.381.333-.678.795-1.204 1.386-1.579.595-.375 1.286-.563 2.074-.563.788 0 1.477.188 2.068.563.595.375 1.057.901 1.386 1.579.334.678.5 1.472.5 2.381 0 .901-.166 1.689-.5 2.363a3.758 3.758 0 0 1-1.386 1.574c-.591.375-1.28.563-2.068.563Zm0-1.205c.598 0 1.091-.153 1.477-.46a2.72 2.72 0 0 0 .858-1.21c.186-.5.278-1.042.278-1.625 0-.584-.092-1.127-.278-1.631a2.748 2.748 0 0 0-.858-1.221c-.386-.311-.879-.466-1.477-.466-.599 0-1.091.155-1.477.466-.387.31-.673.717-.858 1.221a4.672 4.672 0 0 0-.279 1.631c0 .583.093 1.125.279 1.625.185.5.471.903.858 1.21.386.307.878.46 1.477.46Zm7.342-4.227V264h-1.341v-8.727h1.296v1.363h.113c.205-.443.516-.799.932-1.068.417-.273.955-.409 1.614-.409.591 0 1.108.121 1.551.364.443.238.788.602 1.034 1.091.246.484.369 1.098.369 1.841V264h-1.341v-5.455c0-.685-.178-1.219-.534-1.602-.356-.386-.844-.579-1.466-.579-.428 0-.81.092-1.147.278a1.985 1.985 0 0 0-.79.813c-.193.356-.29.787-.29 1.295Z" fill="#0F71BB"/><path d="M40 267.182h11.864v1.091H40v-1.091Zm11.86 0h32.116v1.091H51.859v-1.091Zm32.109 0h19.255v1.091H83.969v-1.091Zm19.25 0h20.21v1.091h-20.21v-1.091Zm20.203 0h16.912v1.091h-16.912v-1.091Zm16.906 0h14.682v1.091h-14.682v-1.091Zm14.328 0h4.409v1.091h-4.409v-1.091Zm4.406 0h9.319v1.091h-9.319v-1.091Zm9.079 0h14.458v1.091h-14.458v-1.091Zm14.359 0h9.318v1.091H182.5v-1.091Zm9.312 0h9.364v1.091h-9.364v-1.091Zm9.36 0h8.364v1.091h-8.364v-1.091Zm8.359 0h22.708v1.091h-22.708v-1.091Z" fill="#0F71BB"/><path d="M261 265.875a7.872 7.872 0 0 1-5.568-2.307 7.872 7.872 0 0 1 0-11.136 7.872 7.872 0 0 1 11.136 0 7.872 7.872 0 0 1 0 11.136 7.872 7.872 0 0 1-5.568 2.307Zm0 1.125a9 9 0 1 0 0-18 9 9 0 0 0 0 18Z" fill="#344054"/><path d="M257.227 254.227a.563.563 0 0 1 .614-.123c.068.029.13.07.182.123l2.977 2.978 2.977-2.978a.555.555 0 0 1 .614-.122c.068.028.13.069.182.122a.555.555 0 0 1 .122.614.545.545 0 0 1-.122.182L261.795 258l2.978 2.977a.555.555 0 0 1 .122.613.539.539 0 0 1-.122.183.555.555 0 0 1-.614.122.545.545 0 0 1-.182-.122L261 258.795l-2.977 2.978a.555.555 0 0 1-.614.122.545.545 0 0 1-.182-.122.539.539 0 0 1-.122-.183.547.547 0 0 1 0-.431.545.545 0 0 1 .122-.182l2.978-2.977-2.978-2.977a.563.563 0 0 1-.123-.614.563.563 0 0 1 .123-.182Z" fill="#344054"/><circle cx="216" cy="127" r="12" fill="#344054"/><path d="M216.244 133.159c-.848 0-1.604-.146-2.267-.437-.659-.296-1.18-.701-1.562-1.216a3.054 3.054 0 0 1-.585-1.796h2.477c.015.284.108.534.278.75.174.212.406.377.693.495.288.117.612.176.972.176.375 0 .706-.067.994-.199.288-.133.514-.316.676-.551.163-.235.245-.506.245-.813 0-.31-.087-.585-.262-.824a1.666 1.666 0 0 0-.738-.568c-.318-.136-.697-.204-1.137-.204h-1.085v-1.807h1.085c.372 0 .699-.065.983-.193.288-.129.512-.307.671-.534.159-.232.238-.5.238-.807 0-.292-.07-.548-.21-.767a1.382 1.382 0 0 0-.579-.523 1.887 1.887 0 0 0-.864-.188c-.333 0-.638.061-.915.182a1.599 1.599 0 0 0-.664.506c-.167.22-.256.477-.268.773h-2.358c.012-.671.203-1.262.574-1.773.372-.511.872-.911 1.5-1.199.633-.292 1.347-.437 2.142-.437.803 0 1.506.145 2.108.437.603.292 1.07.686 1.404 1.182.337.492.504 1.045.5 1.659.004.651-.199 1.195-.608 1.631-.405.435-.934.712-1.585.829v.091c.856.11 1.507.407 1.954.892.451.481.674 1.083.671 1.807a2.846 2.846 0 0 1-.574 1.767c-.383.515-.911.92-1.586 1.216-.674.295-1.446.443-2.318.443Z" fill="#fff"/><path d="M213 127h-44v42" stroke="#344054" stroke-dasharray="2 2"/></svg>