<svg width="345" height="65" viewBox="0 0 345 65" fill="none" xmlns="http://www.w3.org/2000/svg"><path fill="#E8178A" fill-opacity=".24" d="M45 4h8v28h-8z"/><rect x="34" y="47" width="31" height="18" rx="3" fill="#E8178A"/><path d="M43.303 60.1c-.547 0-1.034-.09-1.46-.267-.424-.18-.756-.425-.998-.735a1.671 1.671 0 0 1-.362-1.055c0-.303.069-.58.206-.834.14-.256.329-.468.568-.636.24-.17.507-.28.803-.327v-.05a1.576 1.576 0 0 1-.945-.564c-.241-.3-.362-.65-.362-1.047 0-.377.11-.712.33-1.005a2.2 2.2 0 0 1 .906-.697c.386-.17.824-.255 1.314-.255.49 0 .926.085 1.31.255.386.171.689.404.909.7.22.294.331.628.334 1.002-.003.4-.126.749-.37 1.047a1.587 1.587 0 0 1-.937.565v.05c.291.047.555.156.792.326.239.168.428.38.568.636a1.706 1.706 0 0 1-.15 1.889c-.24.31-.574.555-1 .735-.424.178-.91.266-1.456.266Zm0-1.13c.243 0 .457-.044.639-.131a1.05 1.05 0 0 0 .426-.37.973.973 0 0 0 .156-.546.986.986 0 0 0-.16-.558 1.098 1.098 0 0 0-.433-.384 1.344 1.344 0 0 0-.628-.142c-.235 0-.444.048-.629.142-.185.093-.33.22-.437.384a1.006 1.006 0 0 0-.156.558.976.976 0 0 0 .583.916c.184.087.397.131.639.131Zm0-3.25c.203 0 .384-.04.543-.123a.936.936 0 0 0 .373-.345.952.952 0 0 0 .135-.508.91.91 0 0 0-.505-.834 1.15 1.15 0 0 0-.546-.124c-.206 0-.389.04-.547.124a.92.92 0 0 0-.373.337.927.927 0 0 0-.132.497c0 .192.045.361.135.508.09.147.215.262.373.345.159.082.34.124.544.124Zm3.912 6.325v-7.5h1.491v.917h.068c.066-.147.162-.296.288-.448a1.5 1.5 0 0 1 .497-.383c.206-.105.461-.157.767-.157.398 0 .764.105 1.1.313.337.206.605.517.807.934.201.414.302.934.302 1.559 0 .608-.099 1.122-.295 1.541-.194.417-.46.733-.796.948-.333.213-.707.32-1.122.32-.293 0-.543-.049-.749-.146a1.55 1.55 0 0 1-.5-.366 1.9 1.9 0 0 1-.299-.45h-.046v2.918h-1.513Zm1.48-4.772c0 .324.046.607.136.848.09.242.22.43.39.565a.98.98 0 0 0 .622.199.975.975 0 0 0 .625-.203c.17-.137.3-.326.387-.568.09-.243.135-.524.135-.841a2.41 2.41 0 0 0-.132-.831 1.237 1.237 0 0 0-.387-.561.98.98 0 0 0-.628-.203 1 1 0 0 0-.625.196 1.22 1.22 0 0 0-.387.554c-.09.239-.135.52-.135.845Zm5.917-2.728 1.002 1.907 1.026-1.907h1.552l-1.58 2.728L58.233 60H56.69l-1.076-1.886L54.555 60h-1.562l1.619-2.727-1.563-2.728h1.563Z" fill="#fff"/><path d="M45 42.5h8M45.5 46v-7m7 7v-7" stroke="#E8178A"/><path d="M1.41 22V10.364h1.408v5.181h6.205v-5.181h1.409V22h-1.41v-5.204H2.819V22H1.41Zm15.207.182c-.788 0-1.48-.188-2.074-.563-.591-.375-1.053-.9-1.387-1.573-.33-.675-.494-1.463-.494-2.364 0-.91.165-1.703.494-2.38.334-.679.796-1.205 1.387-1.58.594-.375 1.286-.563 2.073-.563.788 0 1.478.188 2.069.563.594.375 1.056.901 1.386 1.58.333.677.5 1.47.5 2.38 0 .901-.167 1.69-.5 2.364a3.769 3.769 0 0 1-1.386 1.573c-.591.375-1.28.563-2.069.563Zm0-1.205c.598 0 1.09-.153 1.477-.46a2.72 2.72 0 0 0 .858-1.21c.185-.5.278-1.042.278-1.625s-.093-1.127-.278-1.63a2.75 2.75 0 0 0-.858-1.223c-.387-.31-.879-.465-1.478-.465-.598 0-1.09.155-1.477.465a2.75 2.75 0 0 0-.858 1.222 4.681 4.681 0 0 0-.278 1.63c0 .584.093 1.126.278 1.626.186.5.472.903.858 1.21.387.307.879.46 1.477.46Zm6 1.023v-8.727h1.296v1.363h.114a2.2 2.2 0 0 1 .88-1.085c.406-.261.893-.392 1.46-.392.577 0 1.056.13 1.438.392.387.258.688.62.904 1.085h.09c.224-.45.56-.808 1.006-1.073.447-.27.983-.404 1.608-.404.78 0 1.419.244 1.915.733.496.485.744 1.24.744 2.267V22h-1.34v-5.84c0-.645-.177-1.105-.529-1.382a1.956 1.956 0 0 0-1.244-.414c-.614 0-1.09.185-1.426.556-.338.368-.506.834-.506 1.398V22h-1.364v-5.977c0-.496-.16-.896-.483-1.2-.322-.306-.736-.46-1.244-.46-.348 0-.674.093-.977.279-.3.186-.542.443-.727.773a2.281 2.281 0 0 0-.273 1.13V22h-1.341Zm17.566.182c-.84 0-1.566-.186-2.176-.557a3.737 3.737 0 0 1-1.403-1.568c-.326-.674-.489-1.458-.489-2.352 0-.894.163-1.682.489-2.364.33-.686.788-1.22 1.375-1.602.59-.387 1.28-.58 2.068-.58.454 0 .903.076 1.347.227.443.152.846.398 1.21.739.363.337.653.784.869 1.34.216.558.324 1.243.324 2.058v.568H37.07v-1.16h5.363c0-.492-.098-.931-.295-1.317a2.226 2.226 0 0 0-.83-.915c-.356-.224-.776-.335-1.261-.335-.534 0-.996.132-1.386.397a2.615 2.615 0 0 0-.892 1.023c-.209.42-.313.871-.313 1.352v.773c0 .66.114 1.218.34 1.676.232.455.552.801.961 1.04.41.235.885.352 1.426.352.352 0 .67-.049.955-.148a2.03 2.03 0 0 0 .744-.454c.208-.204.37-.458.483-.761l1.295.363a2.87 2.87 0 0 1-.687 1.16c-.322.329-.72.587-1.193.772a4.426 4.426 0 0 1-1.597.273ZM0 25.182h35.3v1.09H0v-1.09Zm35.297 0h9.318v1.09h-9.318v-1.09Z" fill="#0F71BB"/><path d="M58.34 9.818 54.59 23.75h-1.226l3.75-13.932h1.227Z" fill="#1D2939"/><path d="M69.818 10.364V22H68.41V10.364h1.41Zm6.44 2.909v1.136h-4.524v-1.136h4.523Zm-3.205-2.091h1.34V19.5c0 .379.055.663.165.852.114.186.258.31.432.375.178.06.366.091.563.091.147 0 .269-.007.363-.023l.228-.045.272 1.204c-.09.035-.218.069-.38.103-.163.038-.37.057-.62.057-.379 0-.75-.082-1.113-.245a2.213 2.213 0 0 1-.898-.744c-.235-.333-.352-.754-.352-1.261v-8.682Zm8.787 11c-.841 0-1.567-.186-2.177-.557a3.737 3.737 0 0 1-1.403-1.568c-.326-.674-.489-1.458-.489-2.352 0-.894.163-1.682.489-2.364.33-.686.788-1.22 1.375-1.602.59-.387 1.28-.58 2.068-.58.455 0 .903.076 1.347.227.443.152.846.398 1.21.739.364.337.653.784.87 1.34.215.558.323 1.243.323 2.058v.568h-6.727v-1.16h5.364c0-.492-.099-.931-.296-1.317a2.226 2.226 0 0 0-.83-.915c-.356-.224-.776-.335-1.26-.335-.535 0-.997.132-1.387.397a2.615 2.615 0 0 0-.892 1.023c-.209.42-.313.871-.313 1.352v.773c0 .66.114 1.218.341 1.676.231.455.551.801.96 1.04.41.235.885.352 1.427.352.352 0 .67-.049.954-.148a2.03 2.03 0 0 0 .744-.454c.209-.204.37-.458.483-.761l1.296.363c-.137.44-.366.826-.688 1.16-.322.329-.72.587-1.193.772a4.426 4.426 0 0 1-1.597.273ZM87.493 22v-8.727h1.295v1.363h.114a2.2 2.2 0 0 1 .88-1.085c.406-.261.893-.392 1.46-.392.577 0 1.056.13 1.438.392.387.258.688.62.904 1.085h.09c.224-.45.56-.808 1.006-1.073.447-.27.983-.404 1.608-.404.78 0 1.419.244 1.915.733.496.485.744 1.24.744 2.267V22h-1.34v-5.84c0-.645-.177-1.105-.529-1.382a1.956 1.956 0 0 0-1.244-.414c-.614 0-1.09.185-1.426.556-.338.368-.506.834-.506 1.398V22h-1.364v-5.977c0-.496-.16-.896-.483-1.2-.322-.306-.736-.46-1.244-.46-.348 0-.674.093-.977.279-.3.186-.542.443-.728.773a2.281 2.281 0 0 0-.272 1.13V22h-1.341Zm22.474-11.636V22h-1.409V11.84h-.068l-2.841 1.887v-1.431l2.909-1.932h1.409ZM67 25.182h10.053v1.09H67v-1.09Zm9.953 0h9.318v1.09h-9.318v-1.09Zm9.313 0h13.909v1.09h-13.91v-1.09Zm13.906 0h11.932v1.09h-11.932v-1.09Z" fill="#0F71BB"/><path d="m126.341 9.818-3.75 13.932h-1.227l3.75-13.932h1.227Z" fill="#1D2939"/><path d="M137.818 10.364V22h-1.409V10.364h1.409Zm6.439 2.909v1.136h-4.523v-1.136h4.523Zm-3.204-2.091h1.34V19.5c0 .379.055.663.165.852.114.186.258.31.432.375.178.06.366.091.563.091.147 0 .268-.007.363-.023l.227-.045.273 1.204a2.753 2.753 0 0 1-.38.103c-.163.038-.37.057-.62.057-.379 0-.75-.082-1.113-.245a2.208 2.208 0 0 1-.898-.744c-.235-.333-.352-.754-.352-1.261v-8.682Zm8.786 11c-.84 0-1.566-.186-2.176-.557a3.733 3.733 0 0 1-1.403-1.568c-.326-.674-.489-1.458-.489-2.352 0-.894.163-1.682.489-2.364.329-.686.788-1.22 1.375-1.602.591-.387 1.28-.58 2.068-.58.455 0 .904.076 1.347.227a3.34 3.34 0 0 1 1.21.739c.364.337.653.784.869 1.34.216.558.324 1.243.324 2.058v.568h-6.727v-1.16h5.363c0-.492-.098-.931-.295-1.317a2.225 2.225 0 0 0-.83-.915c-.356-.224-.776-.335-1.261-.335-.534 0-.996.132-1.386.397a2.608 2.608 0 0 0-.892 1.023c-.209.42-.313.871-.313 1.352v.773c0 .66.114 1.218.341 1.676.231.455.551.801.96 1.04.409.235.885.352 1.426.352a2.9 2.9 0 0 0 .955-.148 2.03 2.03 0 0 0 .744-.454c.209-.204.37-.458.483-.761l1.296.363a2.88 2.88 0 0 1-.688 1.16 3.344 3.344 0 0 1-1.193.772 4.426 4.426 0 0 1-1.597.273Zm5.654-.182v-8.727h1.295v1.363h.114c.182-.465.475-.827.881-1.085.405-.261.892-.392 1.46-.392.576 0 1.055.13 1.437.392.387.258.688.62.904 1.085h.091c.223-.45.558-.808 1.005-1.073.447-.27.983-.404 1.608-.404.781 0 1.419.244 1.915.733.496.485.744 1.24.744 2.267V22h-1.34v-5.84c0-.645-.177-1.105-.529-1.382a1.955 1.955 0 0 0-1.244-.414c-.614 0-1.089.185-1.426.556-.337.368-.506.834-.506 1.398V22h-1.364v-5.977c0-.496-.161-.896-.483-1.2-.322-.306-.736-.46-1.244-.46-.348 0-.674.093-.977.279a2.1 2.1 0 0 0-.727.773 2.28 2.28 0 0 0-.273 1.13V22h-1.341Zm18.383 0v-1.023l3.841-4.204c.451-.493.822-.92 1.114-1.284.292-.368.508-.713.648-1.035.144-.325.216-.666.216-1.022 0-.41-.099-.763-.296-1.063a1.917 1.917 0 0 0-.795-.693 2.58 2.58 0 0 0-1.137-.244c-.447 0-.837.093-1.17.278a1.92 1.92 0 0 0-.767.767c-.178.33-.267.716-.267 1.16h-1.341c0-.683.157-1.28.471-1.796a3.28 3.28 0 0 1 1.285-1.205 3.878 3.878 0 0 1 1.835-.431c.682 0 1.286.143 1.812.431.527.288.94.677 1.239 1.165.299.489.449 1.032.449 1.63 0 .429-.078.847-.233 1.257-.152.405-.417.857-.796 1.357a24.164 24.164 0 0 1-1.562 1.819l-2.614 2.795v.091h5.409V22h-7.341ZM135 25.182h10.053v1.09H135v-1.09Zm9.953 0h9.318v1.09h-9.318v-1.09Zm9.313 0h13.909v1.09h-13.909v-1.09Zm13.906 0h14.182v1.09h-14.182v-1.09Z" fill="#0F71BB"/><path d="m196.341 9.818-3.75 13.932h-1.227l3.75-13.932h1.227Z" fill="#1D2939"/><path d="M207.818 10.364V22h-1.409V10.364h1.409Zm6.439 2.909v1.136h-4.523v-1.136h4.523Zm-3.204-2.091h1.34V19.5c0 .379.055.663.165.852.114.186.258.31.432.375.178.06.366.091.563.091.147 0 .268-.007.363-.023l.227-.045.273 1.204a2.753 2.753 0 0 1-.38.103c-.163.038-.37.057-.62.057-.379 0-.75-.082-1.113-.245a2.208 2.208 0 0 1-.898-.744c-.235-.333-.352-.754-.352-1.261v-8.682Zm8.786 11c-.84 0-1.566-.186-2.176-.557a3.733 3.733 0 0 1-1.403-1.568c-.326-.674-.489-1.458-.489-2.352 0-.894.163-1.682.489-2.364.329-.686.788-1.22 1.375-1.602.591-.387 1.28-.58 2.068-.58.455 0 .904.076 1.347.227a3.34 3.34 0 0 1 1.21.739c.364.337.653.784.869 1.34.216.558.324 1.243.324 2.058v.568h-6.727v-1.16h5.363c0-.492-.098-.931-.295-1.317a2.225 2.225 0 0 0-.83-.915c-.356-.224-.776-.335-1.261-.335-.534 0-.996.132-1.386.397a2.608 2.608 0 0 0-.892 1.023c-.209.42-.313.871-.313 1.352v.773c0 .66.114 1.218.341 1.676.231.455.551.801.96 1.04.409.235.885.352 1.426.352a2.9 2.9 0 0 0 .955-.148 2.03 2.03 0 0 0 .744-.454c.209-.204.37-.458.483-.761l1.296.363a2.88 2.88 0 0 1-.688 1.16 3.344 3.344 0 0 1-1.193.772 4.426 4.426 0 0 1-1.597.273Zm5.654-.182v-8.727h1.295v1.363h.114c.182-.465.475-.827.881-1.085.405-.261.892-.392 1.46-.392.576 0 1.055.13 1.437.392.387.258.688.62.904 1.085h.091c.223-.45.558-.808 1.005-1.073.447-.27.983-.404 1.608-.404.781 0 1.419.244 1.915.733.496.485.744 1.24.744 2.267V22h-1.34v-5.84c0-.645-.177-1.105-.529-1.382a1.955 1.955 0 0 0-1.244-.414c-.614 0-1.089.185-1.426.556-.337.368-.506.834-.506 1.398V22h-1.364v-5.977c0-.496-.161-.896-.483-1.2-.322-.306-.736-.46-1.244-.46-.348 0-.674.093-.977.279a2.1 2.1 0 0 0-.727.773 2.28 2.28 0 0 0-.273 1.13V22h-1.341Zm22.315.16c-.75 0-1.418-.13-2.005-.387-.584-.258-1.048-.616-1.392-1.074a2.884 2.884 0 0 1-.557-1.608h1.432c.03.375.159.699.386.971.227.27.524.478.892.625.367.148.775.222 1.222.222.5 0 .943-.087 1.329-.261a2.19 2.19 0 0 0 .909-.727c.22-.311.33-.671.33-1.08 0-.428-.106-.805-.318-1.13-.213-.33-.523-.588-.932-.773-.409-.186-.909-.279-1.5-.279h-.932v-1.25h.932c.462 0 .867-.083 1.216-.25.352-.167.626-.401.823-.705.201-.303.302-.659.302-1.068a1.97 1.97 0 0 0-.262-1.028 1.786 1.786 0 0 0-.738-.682c-.315-.163-.686-.244-1.114-.244-.402 0-.78.074-1.136.221a2.11 2.11 0 0 0-.864.631 1.64 1.64 0 0 0-.364.989h-1.363c.022-.61.206-1.144.551-1.602a3.47 3.47 0 0 1 1.352-1.08 4.37 4.37 0 0 1 1.847-.386c.719 0 1.337.145 1.852.437a3.08 3.08 0 0 1 1.187 1.142c.277.474.415.985.415 1.534 0 .655-.172 1.214-.517 1.676a2.616 2.616 0 0 1-1.392.96v.091c.735.122 1.309.434 1.722.938.413.5.619 1.12.619 1.858 0 .633-.172 1.2-.517 1.704-.341.5-.807.894-1.398 1.182-.591.288-1.263.432-2.017.432ZM205 25.182h10.053v1.09H205v-1.09Zm9.953 0h9.318v1.09h-9.318v-1.09Zm9.313 0h13.909v1.09h-13.909v-1.09Zm13.906 0h14.682v1.09h-14.682v-1.09Z" fill="#0F71BB"/><path d="m266.341 9.818-3.75 13.932h-1.227l3.75-13.932h1.227ZM276.409 22V10.364h1.409V20.75h5.409V22h-6.818Zm11.386.204a3.543 3.543 0 0 1-1.505-.312 2.582 2.582 0 0 1-1.074-.915c-.265-.401-.398-.886-.398-1.454 0-.5.099-.906.296-1.216.197-.315.46-.56.789-.739a4.2 4.2 0 0 1 1.091-.398c.402-.09.805-.162 1.211-.216.53-.068.96-.119 1.289-.153.334-.038.576-.1.728-.187.155-.088.233-.239.233-.455v-.045c0-.561-.154-.997-.461-1.307-.303-.31-.763-.466-1.38-.466-.641 0-1.142.14-1.506.42-.364.28-.619.58-.767.898l-1.273-.455c.227-.53.53-.943.909-1.238.383-.3.8-.508 1.25-.625a5.196 5.196 0 0 1 1.341-.182c.28 0 .602.034.966.102.368.065.722.2 1.063.404.344.204.63.513.858.926.227.413.34.966.34 1.659V22h-1.34v-1.182h-.069c-.091.19-.242.392-.454.608-.212.216-.494.4-.847.551-.352.152-.782.227-1.29.227ZM288 21c.53 0 .977-.104 1.341-.313.367-.208.644-.477.829-.806.19-.33.285-.677.285-1.04v-1.227c-.057.068-.182.13-.375.187-.19.053-.41.1-.66.142a29.56 29.56 0 0 1-1.284.17 5.19 5.19 0 0 0-.977.222 1.681 1.681 0 0 0-.727.45c-.182.196-.273.465-.273.806 0 .466.172.818.517 1.057.349.235.79.352 1.324.352Zm12.425-5.773-1.205.341a2.233 2.233 0 0 0-.335-.585 1.628 1.628 0 0 0-.591-.477c-.25-.125-.57-.188-.96-.188-.534 0-.979.123-1.335.37-.353.242-.529.55-.529.926 0 .333.121.596.364.79.242.193.621.354 1.136.482l1.296.319c.78.189 1.361.479 1.744.869.383.386.574.884.574 1.494 0 .5-.144.947-.432 1.341-.284.394-.682.705-1.193.932-.512.227-1.106.34-1.784.34-.89 0-1.627-.192-2.211-.579-.583-.386-.952-.95-1.107-1.693l1.272-.318c.121.47.351.822.688 1.057.341.235.786.352 1.335.352.625 0 1.121-.133 1.489-.398.371-.269.556-.59.556-.966 0-.303-.106-.556-.318-.761-.212-.208-.538-.364-.977-.466l-1.455-.34c-.799-.19-1.386-.484-1.761-.881-.371-.402-.557-.904-.557-1.506 0-.493.139-.928.415-1.307a2.82 2.82 0 0 1 1.142-.892c.485-.216 1.034-.324 1.648-.324.863 0 1.541.19 2.034.568.496.38.848.88 1.057 1.5Zm5.973-1.954v1.136h-4.523v-1.136h4.523Zm-3.205-2.091h1.341V19.5c0 .379.055.663.165.852.114.186.257.31.432.375.178.06.365.091.562.091.148 0 .269-.007.364-.023l.227-.045.273 1.204a2.733 2.733 0 0 1-.381.103 2.8 2.8 0 0 1-.619.057 2.7 2.7 0 0 1-1.114-.245 2.215 2.215 0 0 1-.898-.744c-.234-.333-.352-.754-.352-1.261v-8.682ZM312.915 22v-8.727h1.341V22h-1.341Zm.682-10.182a.955.955 0 0 1-.677-.267.86.86 0 0 1-.278-.642.86.86 0 0 1 .278-.642.955.955 0 0 1 .677-.267c.261 0 .484.089.67.267a.851.851 0 0 1 .284.642c0 .25-.095.464-.284.642a.934.934 0 0 1-.67.267Zm6.91 1.455v1.136h-4.523v-1.136h4.523Zm-3.204-2.091h1.34V19.5c0 .379.055.663.165.852.114.186.258.31.432.375.178.06.366.091.563.091.147 0 .268-.007.363-.023l.227-.045.273 1.204a2.753 2.753 0 0 1-.38.103c-.163.038-.37.057-.62.057-.379 0-.75-.082-1.113-.245a2.208 2.208 0 0 1-.898-.744c-.235-.333-.352-.754-.352-1.261v-8.682Zm8.786 11c-.84 0-1.566-.186-2.176-.557a3.733 3.733 0 0 1-1.403-1.568c-.326-.674-.489-1.458-.489-2.352 0-.894.163-1.682.489-2.364.329-.686.788-1.22 1.375-1.602.591-.387 1.28-.58 2.068-.58.455 0 .904.076 1.347.227a3.34 3.34 0 0 1 1.21.739c.364.337.653.784.869 1.34.216.558.324 1.243.324 2.058v.568h-6.727v-1.16h5.363c0-.492-.098-.931-.295-1.317a2.225 2.225 0 0 0-.83-.915c-.356-.224-.776-.335-1.261-.335-.534 0-.996.132-1.386.397a2.608 2.608 0 0 0-.892 1.023c-.209.42-.313.871-.313 1.352v.773c0 .66.114 1.218.341 1.676.231.455.551.801.96 1.04.409.235.885.352 1.426.352a2.9 2.9 0 0 0 .955-.148 2.03 2.03 0 0 0 .744-.454c.209-.204.37-.458.483-.761l1.296.363a2.88 2.88 0 0 1-.688 1.16 3.344 3.344 0 0 1-1.193.772 4.426 4.426 0 0 1-1.597.273Zm5.654-.182v-8.727h1.295v1.363h.114c.182-.465.475-.827.881-1.085.405-.261.892-.392 1.46-.392.576 0 1.055.13 1.437.392.387.258.688.62.904 1.085h.091c.223-.45.558-.808 1.005-1.073.447-.27.983-.404 1.608-.404.781 0 1.419.244 1.915.733.496.485.744 1.24.744 2.267V22h-1.34v-5.84c0-.645-.177-1.105-.529-1.382a1.955 1.955 0 0 0-1.244-.414c-.614 0-1.089.185-1.426.556-.337.368-.506.834-.506 1.398V22h-1.364v-5.977c0-.496-.161-.896-.483-1.2-.322-.306-.736-.46-1.244-.46-.348 0-.674.093-.977.279a2.1 2.1 0 0 0-.727.773 2.28 2.28 0 0 0-.273 1.13V22h-1.341Z" fill="#1D2939"/></svg>