<svg width="189" height="97" viewBox="0 0 189 97" fill="none" xmlns="http://www.w3.org/2000/svg">
<g opacity="0.5">
<path d="M37.5 53.5V53H37H5C2.51472 53 0.5 55.0147 0.5 57.5V91.5C0.5 93.9853 2.51472 96 5 96H37H37.5V95.5V53.5Z" fill="#5925DC"/>
<path d="M37.5 53.5V53H37H5C2.51472 53 0.5 55.0147 0.5 57.5V91.5C0.5 93.9853 2.51472 96 5 96H37H37.5V95.5V53.5Z" stroke="#5925DC"/>
<path fill-rule="evenodd" clip-rule="evenodd" d="M23.5 74.4998C23.5 74.602 23.4605 74.7001 23.3902 74.7724C23.3198 74.8446 23.2245 74.8853 23.125 74.8853L14.875 74.8853C14.7755 74.8853 14.6802 74.8446 14.6098 74.7724C14.5395 74.7001 14.5 74.602 14.5 74.4998C14.5 74.3976 14.5395 74.2995 14.6098 74.2272C14.6802 74.1549 14.7755 74.1143 14.875 74.1143L23.125 74.1143C23.2245 74.1143 23.3198 74.1549 23.3902 74.2272C23.4605 74.2995 23.5 74.3976 23.5 74.4998Z" fill="#98A2B3"/>
</g>
<rect x="37.5" y="53" width="68.6379" height="43" fill="white"/>
<rect x="37.5" y="53" width="68.6379" height="43" stroke="#98A2B3"/>
<path d="M71.8189 80.6591C70.9629 80.6591 70.2337 80.4261 69.6314 79.9602C69.0292 79.4905 68.5689 78.8106 68.2508 77.9205C67.9326 77.0265 67.7735 75.947 67.7735 74.6818C67.7735 73.4242 67.9326 72.3504 68.2508 71.4602C68.5727 70.5663 69.0348 69.8845 69.6371 69.4148C70.2432 68.9413 70.9705 68.7045 71.8189 68.7045C72.6674 68.7045 73.3928 68.9413 73.9951 69.4148C74.6011 69.8845 75.0633 70.5663 75.3814 71.4602C75.7034 72.3504 75.8644 73.4242 75.8644 74.6818C75.8644 75.947 75.7053 77.0265 75.3871 77.9205C75.0689 78.8106 74.6087 79.4905 74.0064 79.9602C73.4042 80.4261 72.675 80.6591 71.8189 80.6591ZM71.8189 79.4091C72.6674 79.4091 73.3265 79 73.7962 78.1818C74.2659 77.3636 74.5008 76.197 74.5008 74.6818C74.5008 73.6742 74.3928 72.8163 74.1769 72.108C73.9648 71.3996 73.658 70.8598 73.2564 70.4886C72.8587 70.1174 72.3795 69.9318 71.8189 69.9318C70.978 69.9318 70.3208 70.3466 69.8473 71.1761C69.3739 72.0019 69.1371 73.1705 69.1371 74.6818C69.1371 75.6894 69.2432 76.5455 69.4553 77.25C69.6674 77.9545 69.9723 78.4905 70.3701 78.858C70.7716 79.2254 71.2545 79.4091 71.8189 79.4091Z" fill="#344054"/>
<path d="M106.638 53H106.138V53.5V95.5V96H106.638H138.638C141.123 96 143.138 93.9853 143.138 91.5V57.5C143.138 55.0147 141.123 53 138.638 53H106.638Z" fill="#5925DC"/>
<path d="M106.638 53H106.138V53.5V95.5V96H106.638H138.638C141.123 96 143.138 93.9853 143.138 91.5V57.5C143.138 55.0147 141.123 53 138.638 53H106.638Z" stroke="#5925DC"/>
<path d="M130.638 80.6672L122.638 80.6672C120.429 80.6672 118.638 78.8764 118.638 76.6672L118.638 72.3326C118.638 70.1234 120.429 68.3326 122.638 68.3326L130.638 68.3326L130.638 80.6672Z" fill="#5925DC"/>
<path fill-rule="evenodd" clip-rule="evenodd" d="M124.638 79.1255C124.538 79.1255 124.443 79.0849 124.373 79.0126C124.302 78.9403 124.263 78.8423 124.263 78.74L124.263 74.8854L120.513 74.8854C120.413 74.8854 120.318 74.8448 120.248 74.7725C120.177 74.7003 120.138 74.6022 120.138 74.5C120.138 74.3978 120.177 74.2997 120.248 74.2274C120.318 74.1551 120.413 74.1145 120.513 74.1145L124.263 74.1145L124.263 70.2599C124.263 70.1577 124.302 70.0597 124.373 69.9874C124.443 69.9151 124.538 69.8745 124.638 69.8745C124.737 69.8745 124.833 69.9151 124.903 69.9874C124.973 70.0597 125.013 70.1577 125.013 70.2599L125.013 74.1145L128.763 74.1145C128.862 74.1145 128.958 74.1551 129.028 74.2274C129.098 74.2997 129.138 74.3978 129.138 74.5C129.138 74.6022 129.098 74.7003 129.028 74.7725C128.958 74.8448 128.862 74.8854 128.763 74.8854L125.013 74.8854L125.013 78.74C125.013 78.8423 124.973 78.9403 124.903 79.0126C124.833 79.0849 124.737 79.1255 124.638 79.1255Z" fill="white"/>
<circle cx="177" cy="74" r="12" transform="rotate(-90 177 74)" fill="#344054"/>
<path d="M172.443 80V78.2273L176.585 74.392C176.938 74.0511 177.233 73.7443 177.472 73.4716C177.714 73.1989 177.898 72.9318 178.023 72.6705C178.148 72.4053 178.21 72.1193 178.21 71.8125C178.21 71.4716 178.133 71.178 177.977 70.9318C177.822 70.6818 177.61 70.4905 177.341 70.358C177.072 70.2216 176.767 70.1534 176.426 70.1534C176.07 70.1534 175.759 70.2254 175.494 70.3693C175.229 70.5133 175.025 70.7197 174.881 70.9886C174.737 71.2576 174.665 71.5777 174.665 71.9489H172.33C172.33 71.1875 172.502 70.5265 172.847 69.9659C173.191 69.4053 173.674 68.9716 174.295 68.6648C174.917 68.358 175.633 68.2045 176.443 68.2045C177.277 68.2045 178.002 68.3523 178.619 68.6477C179.241 68.9394 179.723 69.3447 180.068 69.8636C180.413 70.3826 180.585 70.9773 180.585 71.6477C180.585 72.0871 180.498 72.5208 180.324 72.9489C180.153 73.3769 179.848 73.8523 179.409 74.375C178.97 74.8939 178.35 75.517 177.551 76.2443L175.852 77.9091V77.9886H180.739V80H172.443Z" fill="white"/>
<path d="M167 74L144 74" stroke="#344054" stroke-dasharray="2 2"/>
<circle cx="72" cy="16" r="12" transform="rotate(-90 72 16)" fill="#344054"/>
<path d="M74.0057 10.3636V22H71.5455V12.6989H71.4773L68.8125 14.3693V12.1875L71.6932 10.3636H74.0057Z" fill="white"/>
<path d="M72 25L72 53" stroke="#344054" stroke-dasharray="2 2"/>
</svg>
