<svg width="198" height="47" viewBox="0 0 198 47" fill="none" xmlns="http://www.w3.org/2000/svg">
<g opacity="0.5">
<path d="M37.5 2.5V2H37H5C2.51472 2 0.5 4.01472 0.5 6.5V40.5C0.5 42.9853 2.51472 45 5 45H37H37.5V44.5V2.5Z" fill="#5925DC"/>
<path d="M37.5 2.5V2H37H5C2.51472 2 0.5 4.01472 0.5 6.5V40.5C0.5 42.9853 2.51472 45 5 45H37H37.5V44.5V2.5Z" stroke="#5925DC"/>
<path fill-rule="evenodd" clip-rule="evenodd" d="M23.5 23.5C23.5 23.6023 23.4605 23.7003 23.3902 23.7726C23.3198 23.8449 23.2245 23.8855 23.125 23.8855L14.875 23.8855C14.7755 23.8855 14.6802 23.8449 14.6098 23.7726C14.5395 23.7003 14.5 23.6023 14.5 23.5C14.5 23.3978 14.5395 23.2998 14.6098 23.2275C14.6802 23.1552 14.7755 23.1146 14.875 23.1146L23.125 23.1146C23.2245 23.1146 23.3198 23.1552 23.3902 23.2275C23.4605 23.2998 23.5 23.3978 23.5 23.5Z" fill="#98A2B3"/>
</g>
<rect x="37.5" y="2" width="68.6379" height="43" fill="white"/>
<rect x="37.5" y="2" width="68.6379" height="43" stroke="#98A2B3"/>
<path d="M71.8189 29.6591C70.9629 29.6591 70.2337 29.4261 69.6314 28.9602C69.0292 28.4905 68.5689 27.8106 68.2508 26.9205C67.9326 26.0265 67.7735 24.947 67.7735 23.6818C67.7735 22.4242 67.9326 21.3504 68.2508 20.4602C68.5727 19.5663 69.0348 18.8845 69.6371 18.4148C70.2432 17.9413 70.9705 17.7045 71.8189 17.7045C72.6674 17.7045 73.3928 17.9413 73.9951 18.4148C74.6011 18.8845 75.0633 19.5663 75.3814 20.4602C75.7034 21.3504 75.8644 22.4242 75.8644 23.6818C75.8644 24.947 75.7053 26.0265 75.3871 26.9205C75.0689 27.8106 74.6087 28.4905 74.0064 28.9602C73.4042 29.4261 72.675 29.6591 71.8189 29.6591ZM71.8189 28.4091C72.6674 28.4091 73.3265 28 73.7962 27.1818C74.2659 26.3636 74.5008 25.197 74.5008 23.6818C74.5008 22.6742 74.3928 21.8163 74.1769 21.108C73.9648 20.3996 73.658 19.8598 73.2564 19.4886C72.8587 19.1174 72.3795 18.9318 71.8189 18.9318C70.978 18.9318 70.3208 19.3466 69.8473 20.1761C69.3739 21.0019 69.1371 22.1705 69.1371 23.6818C69.1371 24.6894 69.2432 25.5455 69.4553 26.25C69.6674 26.9545 69.9723 27.4905 70.3701 27.858C70.7716 28.2254 71.2545 28.4091 71.8189 28.4091Z" fill="#344054"/>
<path d="M106.638 2H106.138V2.5V44.5V45H106.638H138.638C141.123 45 143.138 42.9853 143.138 40.5V6.5C143.138 4.01472 141.123 2 138.638 2H106.638Z" fill="#5925DC"/>
<path d="M106.638 2H106.138V2.5V44.5V45H106.638H138.638C141.123 45 143.138 42.9853 143.138 40.5V6.5C143.138 4.01472 141.123 2 138.638 2H106.638Z" stroke="#5925DC"/>
<path d="M130.638 29.6674L122.638 29.6674C120.429 29.6674 118.638 27.8765 118.638 25.6674L118.638 21.3327C118.638 19.1235 120.429 17.3327 122.638 17.3327L130.638 17.3327L130.638 29.6674Z" fill="#5925DC"/>
<path fill-rule="evenodd" clip-rule="evenodd" d="M124.638 28.1255C124.538 28.1255 124.443 28.0849 124.373 28.0126C124.302 27.9403 124.263 27.8423 124.263 27.74L124.263 23.8854L120.513 23.8854C120.413 23.8854 120.318 23.8448 120.248 23.7725C120.177 23.7003 120.138 23.6022 120.138 23.5C120.138 23.3978 120.177 23.2997 120.248 23.2274C120.318 23.1551 120.413 23.1145 120.513 23.1145L124.263 23.1145L124.263 19.2599C124.263 19.1577 124.302 19.0597 124.373 18.9874C124.443 18.9151 124.538 18.8745 124.638 18.8745C124.737 18.8745 124.833 18.9151 124.903 18.9874C124.973 19.0597 125.013 19.1577 125.013 19.2599L125.013 23.1145L128.763 23.1145C128.862 23.1145 128.958 23.1551 129.028 23.2274C129.098 23.2997 129.138 23.3978 129.138 23.5C129.138 23.6022 129.098 23.7003 129.028 23.7725C128.958 23.8448 128.862 23.8854 128.763 23.8854L125.013 23.8854L125.013 27.74C125.013 27.8423 124.973 27.9403 124.903 28.0126C124.833 28.0849 124.737 28.1255 124.638 28.1255Z" fill="white"/>
<path d="M151.5 17.5L151.5 1.5" stroke="#E8178A"/>
<rect x="162" y="0.5" width="36" height="18" rx="3" fill="#E8178A"/>
<path d="M171.754 6.22727V13.5H170.216V7.68679H170.173L168.508 8.73082V7.36719L170.308 6.22727H171.754ZM176.273 13.5994C175.899 13.5971 175.538 13.5343 175.19 13.4112C174.845 13.2881 174.534 13.0881 174.26 12.8111C173.985 12.5341 173.767 12.1671 173.606 11.7102C173.448 11.2533 173.368 10.6922 173.368 10.027C173.371 9.41619 173.441 8.8705 173.578 8.38991C173.718 7.90696 173.916 7.4974 174.175 7.16122C174.435 6.82505 174.746 6.56937 175.108 6.39418C175.471 6.21662 175.877 6.12784 176.327 6.12784C176.812 6.12784 177.24 6.22254 177.612 6.41193C177.984 6.59896 178.282 6.85346 178.507 7.17543C178.734 7.4974 178.872 7.85843 178.919 8.25852H177.403C177.343 8.00521 177.219 7.80634 177.03 7.66193C176.84 7.51752 176.606 7.44531 176.327 7.44531C175.853 7.44531 175.493 7.65128 175.247 8.06321C175.003 8.47514 174.879 9.03504 174.874 9.7429H174.924C175.033 9.52746 175.18 9.34399 175.364 9.19247C175.551 9.03859 175.763 8.9214 176 8.84091C176.239 8.75805 176.491 8.71662 176.756 8.71662C177.187 8.71662 177.571 8.81842 177.907 9.02202C178.243 9.22325 178.508 9.50024 178.702 9.85298C178.896 10.2057 178.993 10.6094 178.993 11.0639C178.993 11.5563 178.879 11.9943 178.649 12.3778C178.422 12.7614 178.103 13.062 177.694 13.2798C177.287 13.4953 176.813 13.6018 176.273 13.5994ZM176.266 12.392C176.503 12.392 176.715 12.3352 176.902 12.2216C177.089 12.108 177.236 11.9541 177.342 11.7599C177.449 11.5658 177.502 11.348 177.502 11.1065C177.502 10.8651 177.449 10.6484 177.342 10.4567C177.238 10.2649 177.094 10.1122 176.909 9.99858C176.724 9.88494 176.514 9.82812 176.277 9.82812C176.099 9.82812 175.935 9.86127 175.783 9.92756C175.634 9.99384 175.503 10.0862 175.389 10.2045C175.278 10.3229 175.19 10.4602 175.126 10.6165C175.062 10.7704 175.03 10.9349 175.03 11.1101C175.03 11.3445 175.084 11.5587 175.19 11.7528C175.299 11.947 175.446 12.102 175.631 12.218C175.818 12.334 176.029 12.392 176.266 12.392ZM180.098 15.5455V8.04545H181.589V8.96165H181.657C181.723 8.81487 181.819 8.66572 181.944 8.5142C182.072 8.36032 182.238 8.23248 182.442 8.13068C182.648 8.02652 182.903 7.97443 183.209 7.97443C183.606 7.97443 183.973 8.0786 184.309 8.28693C184.646 8.4929 184.914 8.80421 185.116 9.22088C185.317 9.63518 185.417 10.1548 185.417 10.7798C185.417 11.3883 185.319 11.902 185.123 12.321C184.929 12.7377 184.663 13.0537 184.327 13.2692C183.993 13.4822 183.619 13.5888 183.205 13.5888C182.912 13.5888 182.662 13.5402 182.456 13.4432C182.252 13.3461 182.085 13.2242 181.955 13.0774C181.825 12.9283 181.725 12.7779 181.657 12.6264H181.611V15.5455H180.098ZM181.579 10.7727C181.579 11.0971 181.624 11.38 181.714 11.6214C181.804 11.8629 181.934 12.0511 182.104 12.1861C182.275 12.3187 182.482 12.3849 182.726 12.3849C182.972 12.3849 183.18 12.3175 183.351 12.1825C183.521 12.0452 183.65 11.8558 183.738 11.6143C183.828 11.3705 183.873 11.09 183.873 10.7727C183.873 10.4579 183.829 10.1809 183.741 9.94176C183.654 9.70265 183.525 9.51562 183.354 9.38068C183.184 9.24574 182.974 9.17827 182.726 9.17827C182.479 9.17827 182.271 9.24337 182.101 9.37358C181.933 9.50379 181.804 9.68845 181.714 9.92756C181.624 10.1667 181.579 10.4484 181.579 10.7727ZM187.495 8.04545L188.496 9.95241L189.523 8.04545H191.074L189.494 10.7727L191.117 13.5H189.572L188.496 11.6143L187.438 13.5H185.876L187.495 10.7727L185.932 8.04545H187.495Z" fill="white"/>
<line x1="155" y1="17" x2="148" y2="17" stroke="#E8178A"/>
<line x1="155" y1="2" x2="148" y2="2" stroke="#E8178A"/>
<path d="M151.5 45.5L151.5 29.5" stroke="#E8178A"/>
<rect x="162" y="28.5" width="36" height="18" rx="3" fill="#E8178A"/>
<path d="M171.754 34.2273V41.5H170.216V35.6868H170.173L168.508 36.7308V35.3672L170.308 34.2273H171.754ZM176.273 41.5994C175.899 41.5971 175.538 41.5343 175.19 41.4112C174.845 41.2881 174.534 41.0881 174.26 40.8111C173.985 40.5341 173.767 40.1671 173.606 39.7102C173.448 39.2533 173.368 38.6922 173.368 38.027C173.371 37.4162 173.441 36.8705 173.578 36.3899C173.718 35.907 173.916 35.4974 174.175 35.1612C174.435 34.825 174.746 34.5694 175.108 34.3942C175.471 34.2166 175.877 34.1278 176.327 34.1278C176.812 34.1278 177.24 34.2225 177.612 34.4119C177.984 34.599 178.282 34.8535 178.507 35.1754C178.734 35.4974 178.872 35.8584 178.919 36.2585H177.403C177.343 36.0052 177.219 35.8063 177.03 35.6619C176.84 35.5175 176.606 35.4453 176.327 35.4453C175.853 35.4453 175.493 35.6513 175.247 36.0632C175.003 36.4751 174.879 37.035 174.874 37.7429H174.924C175.033 37.5275 175.18 37.344 175.364 37.1925C175.551 37.0386 175.763 36.9214 176 36.8409C176.239 36.758 176.491 36.7166 176.756 36.7166C177.187 36.7166 177.571 36.8184 177.907 37.022C178.243 37.2232 178.508 37.5002 178.702 37.853C178.896 38.2057 178.993 38.6094 178.993 39.0639C178.993 39.5563 178.879 39.9943 178.649 40.3778C178.422 40.7614 178.103 41.062 177.694 41.2798C177.287 41.4953 176.813 41.6018 176.273 41.5994ZM176.266 40.392C176.503 40.392 176.715 40.3352 176.902 40.2216C177.089 40.108 177.236 39.9541 177.342 39.7599C177.449 39.5658 177.502 39.348 177.502 39.1065C177.502 38.8651 177.449 38.6484 177.342 38.4567C177.238 38.2649 177.094 38.1122 176.909 37.9986C176.724 37.8849 176.514 37.8281 176.277 37.8281C176.099 37.8281 175.935 37.8613 175.783 37.9276C175.634 37.9938 175.503 38.0862 175.389 38.2045C175.278 38.3229 175.19 38.4602 175.126 38.6165C175.062 38.7704 175.03 38.9349 175.03 39.1101C175.03 39.3445 175.084 39.5587 175.19 39.7528C175.299 39.947 175.446 40.102 175.631 40.218C175.818 40.334 176.029 40.392 176.266 40.392ZM180.098 43.5455V36.0455H181.589V36.9616H181.657C181.723 36.8149 181.819 36.6657 181.944 36.5142C182.072 36.3603 182.238 36.2325 182.442 36.1307C182.648 36.0265 182.903 35.9744 183.209 35.9744C183.606 35.9744 183.973 36.0786 184.309 36.2869C184.646 36.4929 184.914 36.8042 185.116 37.2209C185.317 37.6352 185.417 38.1548 185.417 38.7798C185.417 39.3883 185.319 39.902 185.123 40.321C184.929 40.7377 184.663 41.0537 184.327 41.2692C183.993 41.4822 183.619 41.5888 183.205 41.5888C182.912 41.5888 182.662 41.5402 182.456 41.4432C182.252 41.3461 182.085 41.2242 181.955 41.0774C181.825 40.9283 181.725 40.7779 181.657 40.6264H181.611V43.5455H180.098ZM181.579 38.7727C181.579 39.0971 181.624 39.38 181.714 39.6214C181.804 39.8629 181.934 40.0511 182.104 40.1861C182.275 40.3187 182.482 40.3849 182.726 40.3849C182.972 40.3849 183.18 40.3175 183.351 40.1825C183.521 40.0452 183.65 39.8558 183.738 39.6143C183.828 39.3705 183.873 39.09 183.873 38.7727C183.873 38.4579 183.829 38.1809 183.741 37.9418C183.654 37.7027 183.525 37.5156 183.354 37.3807C183.184 37.2457 182.974 37.1783 182.726 37.1783C182.479 37.1783 182.271 37.2434 182.101 37.3736C181.933 37.5038 181.804 37.6884 181.714 37.9276C181.624 38.1667 181.579 38.4484 181.579 38.7727ZM187.495 36.0455L188.496 37.9524L189.523 36.0455H191.074L189.494 38.7727L191.117 41.5H189.572L188.496 39.6143L187.438 41.5H185.876L187.495 38.7727L185.932 36.0455H187.495Z" fill="white"/>
<line x1="155" y1="45" x2="148" y2="45" stroke="#E8178A"/>
<line x1="155" y1="30" x2="148" y2="30" stroke="#E8178A"/>
<rect y="1.5" width="144" height="16" fill="#E8178A" fill-opacity="0.24"/>
<rect y="29.5" width="144" height="16" fill="#E8178A" fill-opacity="0.24"/>
</svg>
