<svg width="339" height="292" viewBox="0 0 339 292" fill="none" xmlns="http://www.w3.org/2000/svg">
<circle cx="216" cy="74" r="12" fill="#344054"/>
<path d="M211.943 80V78.2273L216.085 74.392C216.438 74.0511 216.733 73.7443 216.972 73.4716C217.214 73.1989 217.398 72.9318 217.523 72.6705C217.648 72.4053 217.71 72.1193 217.71 71.8125C217.71 71.4716 217.633 71.178 217.477 70.9318C217.322 70.6818 217.11 70.4905 216.841 70.358C216.572 70.2216 216.267 70.1534 215.926 70.1534C215.57 70.1534 215.259 70.2254 214.994 70.3693C214.729 70.5133 214.525 70.7197 214.381 70.9886C214.237 71.2576 214.165 71.5777 214.165 71.9489H211.83C211.83 71.1875 212.002 70.5265 212.347 69.9659C212.691 69.4053 213.174 68.9716 213.795 68.6648C214.417 68.358 215.133 68.2045 215.943 68.2045C216.777 68.2045 217.502 68.3523 218.119 68.6477C218.741 68.9394 219.223 69.3447 219.568 69.8636C219.913 70.3826 220.085 70.9773 220.085 71.6477C220.085 72.0871 219.998 72.5208 219.824 72.9489C219.653 73.3769 219.348 73.8523 218.909 74.375C218.47 74.8939 217.85 75.517 217.051 76.2443L215.352 77.9091V77.9886H220.239V80H211.943Z" fill="white"/>
<path d="M207 74L155 74.5" stroke="#344054" stroke-dasharray="2 2"/>
<path d="M329 272L329 291" stroke="#344054" stroke-dasharray="2 2"/>
<path d="M329 258L277 258.5" stroke="#344054" stroke-dasharray="2 2"/>
<circle cx="79" cy="16" r="12" fill="#344054"/>
<path d="M81.0057 10.3636V22H78.5455V12.6989H78.4773L75.8125 14.3693V12.1875L78.6932 10.3636H81.0057Z" fill="white"/>
<path d="M76 16H32V58" stroke="#344054" stroke-dasharray="2 2"/>
<circle cx="327" cy="258" r="12" fill="#344054"/>
<path d="M321.767 261.955V260.017L326.625 252.364H328.295V255.045H327.307L324.244 259.892V259.983H331.148V261.955H321.767ZM327.352 264V261.364L327.398 260.506V252.364H329.705V264H327.352Z" fill="white"/>
<path d="M328 291H9.99999V268" stroke="#344054" stroke-dasharray="2 2"/>
<rect y="50" width="163" height="48" rx="5" fill="#5925DC"/>
<path d="M19.5625 76.1942C19.7117 76.1942 19.8548 76.2535 19.9602 76.359C20.0657 76.4645 20.125 76.6075 20.125 76.7567V79.5692C20.125 79.8676 20.2435 80.1537 20.4545 80.3647C20.6655 80.5757 20.9516 80.6942 21.25 80.6942H34.75C35.0484 80.6942 35.3345 80.5757 35.5455 80.3647C35.7565 80.1537 35.875 79.8676 35.875 79.5692V76.7567C35.875 76.6075 35.9343 76.4645 36.0398 76.359C36.1452 76.2535 36.2883 76.1942 36.4375 76.1942C36.5867 76.1942 36.7298 76.2535 36.8352 76.359C36.9407 76.4645 37 76.6075 37 76.7567V79.5692C37 80.166 36.7629 80.7383 36.341 81.1602C35.919 81.5822 35.3467 81.8192 34.75 81.8192H21.25C20.6533 81.8192 20.081 81.5822 19.659 81.1602C19.2371 80.7383 19 80.166 19 79.5692V76.7567C19 76.6075 19.0593 76.4645 19.1648 76.359C19.2702 76.2535 19.4133 76.1942 19.5625 76.1942Z" fill="white"/>
<path d="M27.6018 66.346C27.654 66.2936 27.7161 66.252 27.7844 66.2237C27.8528 66.1953 27.926 66.1807 28 66.1807C28.074 66.1807 28.1473 66.1953 28.2156 66.2237C28.2839 66.252 28.346 66.2936 28.3983 66.346L31.7733 69.721C31.8789 69.8266 31.9382 69.9699 31.9382 70.1192C31.9382 70.2686 31.8789 70.4119 31.7733 70.5175C31.6676 70.6231 31.5244 70.6824 31.375 70.6824C31.2256 70.6824 31.0824 70.6231 30.9768 70.5175L28.5625 68.1021V77.9942C28.5625 78.1434 28.5032 78.2865 28.3978 78.392C28.2923 78.4975 28.1492 78.5567 28 78.5567C27.8508 78.5567 27.7077 78.4975 27.6023 78.392C27.4968 78.2865 27.4375 78.1434 27.4375 77.9942V68.1021L25.0233 70.5175C24.971 70.5698 24.9089 70.6113 24.8405 70.6396C24.7722 70.6679 24.699 70.6824 24.625 70.6824C24.551 70.6824 24.4778 70.6679 24.4095 70.6396C24.3411 70.6113 24.2791 70.5698 24.2268 70.5175C24.1745 70.4652 24.133 70.4031 24.1047 70.3348C24.0764 70.2664 24.0618 70.1932 24.0618 70.1192C24.0618 70.0453 24.0764 69.972 24.1047 69.9037C24.133 69.8354 24.1745 69.7733 24.2268 69.721L27.6018 66.346Z" fill="white"/>
<path d="M58.9993 72H57.5902C57.5069 71.5947 57.361 71.2386 57.1527 70.9318C56.9482 70.625 56.6982 70.3674 56.4027 70.1591C56.111 69.947 55.7872 69.7879 55.4311 69.6818C55.075 69.5758 54.7038 69.5227 54.3175 69.5227C53.6129 69.5227 52.9747 69.7008 52.4027 70.0568C51.8345 70.4129 51.3819 70.9375 51.0447 71.6307C50.7114 72.3239 50.5447 73.1742 50.5447 74.1818C50.5447 75.1894 50.7114 76.0398 51.0447 76.733C51.3819 77.4261 51.8345 77.9508 52.4027 78.3068C52.9747 78.6629 53.6129 78.8409 54.3175 78.8409C54.7038 78.8409 55.075 78.7879 55.4311 78.6818C55.7872 78.5758 56.111 78.4186 56.4027 78.2102C56.6982 77.9981 56.9482 77.7386 57.1527 77.4318C57.361 77.1212 57.5069 76.7652 57.5902 76.3636H58.9993C58.8932 76.9583 58.7 77.4905 58.4197 77.9602C58.1394 78.4299 57.791 78.8295 57.3743 79.1591C56.9576 79.4848 56.4898 79.733 55.9709 79.9034C55.4557 80.0739 54.9046 80.1591 54.3175 80.1591C53.325 80.1591 52.4425 79.9167 51.6697 79.4318C50.897 78.947 50.2891 78.2576 49.8459 77.3636C49.4027 76.4697 49.1811 75.4091 49.1811 74.1818C49.1811 72.9545 49.4027 71.8939 49.8459 71C50.2891 70.1061 50.897 69.4167 51.6697 68.9318C52.4425 68.447 53.325 68.2045 54.3175 68.2045C54.9046 68.2045 55.4557 68.2898 55.9709 68.4602C56.4898 68.6307 56.9576 68.8807 57.3743 69.2102C57.791 69.536 58.1394 69.9337 58.4197 70.4034C58.7 70.8693 58.8932 71.4015 58.9993 72ZM62.4354 74.75V80H61.0945V68.3636H62.4354V72.6364H62.549C62.7536 72.1856 63.0604 71.8277 63.4695 71.5625C63.8823 71.2936 64.4316 71.1591 65.1172 71.1591C65.7119 71.1591 66.2327 71.2784 66.6797 71.517C67.1267 71.7519 67.4732 72.1136 67.7195 72.6023C67.9695 73.0871 68.0945 73.7045 68.0945 74.4545V80H66.7536V74.5455C66.7536 73.8523 66.5736 73.3163 66.2138 72.9375C65.8577 72.5549 65.3634 72.3636 64.7308 72.3636C64.2914 72.3636 63.8975 72.4564 63.549 72.642C63.2043 72.8277 62.9316 73.0985 62.7308 73.4545C62.5339 73.8106 62.4354 74.2424 62.4354 74.75ZM74.093 80.1818C73.3052 80.1818 72.6139 79.9943 72.0192 79.6193C71.4283 79.2443 70.9661 78.7197 70.6328 78.0455C70.3033 77.3712 70.1385 76.5833 70.1385 75.6818C70.1385 74.7727 70.3033 73.9792 70.6328 73.3011C70.9661 72.6231 71.4283 72.0966 72.0192 71.7216C72.6139 71.3466 73.3052 71.1591 74.093 71.1591C74.8809 71.1591 75.5703 71.3466 76.1612 71.7216C76.7559 72.0966 77.218 72.6231 77.5476 73.3011C77.8809 73.9792 78.0476 74.7727 78.0476 75.6818C78.0476 76.5833 77.8809 77.3712 77.5476 78.0455C77.218 78.7197 76.7559 79.2443 76.1612 79.6193C75.5703 79.9943 74.8809 80.1818 74.093 80.1818ZM74.093 78.9773C74.6915 78.9773 75.1839 78.8239 75.5703 78.517C75.9567 78.2102 76.2427 77.8068 76.4283 77.3068C76.6139 76.8068 76.7067 76.2652 76.7067 75.6818C76.7067 75.0985 76.6139 74.5549 76.4283 74.0511C76.2427 73.5473 75.9567 73.1402 75.5703 72.8295C75.1839 72.5189 74.6915 72.3636 74.093 72.3636C73.4946 72.3636 73.0021 72.5189 72.6158 72.8295C72.2294 73.1402 71.9434 73.5473 71.7578 74.0511C71.5722 74.5549 71.4794 75.0985 71.4794 75.6818C71.4794 76.2652 71.5722 76.8068 71.7578 77.3068C71.9434 77.8068 72.2294 78.2102 72.6158 78.517C73.0021 78.8239 73.4946 78.9773 74.093 78.9773ZM83.6399 80.1818C82.852 80.1818 82.1607 79.9943 81.5661 79.6193C80.9751 79.2443 80.513 78.7197 80.1797 78.0455C79.8501 77.3712 79.6854 76.5833 79.6854 75.6818C79.6854 74.7727 79.8501 73.9792 80.1797 73.3011C80.513 72.6231 80.9751 72.0966 81.5661 71.7216C82.1607 71.3466 82.852 71.1591 83.6399 71.1591C84.4278 71.1591 85.1172 71.3466 85.7081 71.7216C86.3028 72.0966 86.7649 72.6231 87.0945 73.3011C87.4278 73.9792 87.5945 74.7727 87.5945 75.6818C87.5945 76.5833 87.4278 77.3712 87.0945 78.0455C86.7649 78.7197 86.3028 79.2443 85.7081 79.6193C85.1172 79.9943 84.4278 80.1818 83.6399 80.1818ZM83.6399 78.9773C84.2384 78.9773 84.7308 78.8239 85.1172 78.517C85.5036 78.2102 85.7895 77.8068 85.9751 77.3068C86.1607 76.8068 86.2536 76.2652 86.2536 75.6818C86.2536 75.0985 86.1607 74.5549 85.9751 74.0511C85.7895 73.5473 85.5036 73.1402 85.1172 72.8295C84.7308 72.5189 84.2384 72.3636 83.6399 72.3636C83.0414 72.3636 82.549 72.5189 82.1626 72.8295C81.7763 73.1402 81.4903 73.5473 81.3047 74.0511C81.1191 74.5549 81.0263 75.0985 81.0263 75.6818C81.0263 76.2652 81.1191 76.8068 81.3047 77.3068C81.4903 77.8068 81.7763 78.2102 82.1626 78.517C82.549 78.8239 83.0414 78.9773 83.6399 78.9773ZM95.8232 73.2273L94.6186 73.5682C94.5429 73.3674 94.4311 73.1723 94.2834 72.983C94.1394 72.7898 93.9425 72.6307 93.6925 72.5057C93.4425 72.3807 93.1224 72.3182 92.7322 72.3182C92.1982 72.3182 91.7531 72.4413 91.397 72.6875C91.0447 72.9299 90.8686 73.2386 90.8686 73.6136C90.8686 73.947 90.9898 74.2102 91.2322 74.4034C91.4747 74.5966 91.8535 74.7576 92.3686 74.8864L93.6641 75.2045C94.4444 75.3939 95.0258 75.6837 95.4084 76.0739C95.791 76.4602 95.9822 76.9583 95.9822 77.5682C95.9822 78.0682 95.8383 78.5152 95.5504 78.9091C95.2663 79.303 94.8686 79.6136 94.3572 79.8409C93.8459 80.0682 93.2512 80.1818 92.5732 80.1818C91.683 80.1818 90.9463 79.9886 90.3629 79.6023C89.7796 79.2159 89.4103 78.6515 89.255 77.9091L90.5277 77.5909C90.6489 78.0606 90.8781 78.4129 91.2152 78.6477C91.5561 78.8826 92.0012 79 92.5504 79C93.1754 79 93.6716 78.8674 94.0391 78.6023C94.4103 78.3333 94.5959 78.0114 94.5959 77.6364C94.5959 77.3333 94.4898 77.0795 94.2777 76.875C94.0656 76.6667 93.7398 76.5114 93.3004 76.4091L91.8459 76.0682C91.0466 75.8788 90.4595 75.5852 90.0845 75.1875C89.7133 74.786 89.5277 74.2841 89.5277 73.6818C89.5277 73.1894 89.666 72.7538 89.9425 72.375C90.2228 71.9962 90.6035 71.6989 91.0845 71.483C91.5694 71.267 92.1186 71.1591 92.7322 71.1591C93.5959 71.1591 94.2739 71.3485 94.7663 71.7273C95.2625 72.1061 95.6148 72.6061 95.8232 73.2273ZM101.66 80.1818C100.819 80.1818 100.094 79.9962 99.4837 79.625C98.8776 79.25 98.4098 78.7273 98.0803 78.0568C97.7545 77.3826 97.5916 76.5985 97.5916 75.7045C97.5916 74.8106 97.7545 74.0227 98.0803 73.3409C98.4098 72.6553 98.8681 72.1212 99.4553 71.7386C100.046 71.3523 100.736 71.1591 101.523 71.1591C101.978 71.1591 102.427 71.2348 102.87 71.3864C103.313 71.5379 103.717 71.7841 104.08 72.125C104.444 72.4621 104.734 72.9091 104.95 73.4659C105.165 74.0227 105.273 74.7083 105.273 75.5227V76.0909H98.5462V74.9318H103.91C103.91 74.4394 103.811 74 103.614 73.6136C103.421 73.2273 103.145 72.9223 102.785 72.6989C102.429 72.4754 102.008 72.3636 101.523 72.3636C100.989 72.3636 100.527 72.4962 100.137 72.7614C99.7507 73.0227 99.4534 73.3636 99.245 73.7841C99.0367 74.2045 98.9325 74.6553 98.9325 75.1364V75.9091C98.9325 76.5682 99.0462 77.1269 99.2734 77.5852C99.5045 78.0398 99.8246 78.3864 100.234 78.625C100.643 78.8598 101.118 78.9773 101.66 78.9773C102.012 78.9773 102.33 78.928 102.614 78.8295C102.902 78.7273 103.15 78.5758 103.359 78.375C103.567 78.1705 103.728 77.9167 103.842 77.6136L105.137 77.9773C105.001 78.4167 104.772 78.803 104.45 79.1364C104.128 79.4659 103.73 79.7235 103.256 79.9091C102.783 80.0909 102.251 80.1818 101.66 80.1818ZM114.381 80.2045C113.828 80.2045 113.326 80.1004 112.876 79.892C112.425 79.6799 112.067 79.375 111.802 78.9773C111.537 78.5758 111.404 78.0909 111.404 77.5227C111.404 77.0227 111.503 76.6174 111.7 76.3068C111.897 75.9924 112.16 75.7462 112.489 75.5682C112.819 75.3902 113.183 75.2576 113.58 75.1705C113.982 75.0795 114.385 75.0076 114.79 74.9545C115.321 74.8864 115.751 74.8352 116.08 74.8011C116.414 74.7633 116.656 74.7008 116.808 74.6136C116.963 74.5265 117.04 74.375 117.04 74.1591V74.1136C117.04 73.553 116.887 73.1174 116.58 72.8068C116.277 72.4962 115.817 72.3409 115.2 72.3409C114.559 72.3409 114.058 72.4811 113.694 72.7614C113.33 73.0417 113.075 73.3409 112.927 73.6591L111.654 73.2045C111.881 72.6742 112.184 72.2614 112.563 71.9659C112.946 71.6667 113.362 71.4583 113.813 71.3409C114.268 71.2197 114.715 71.1591 115.154 71.1591C115.434 71.1591 115.756 71.1932 116.12 71.2614C116.487 71.3258 116.842 71.4602 117.183 71.6648C117.527 71.8693 117.813 72.178 118.04 72.5909C118.268 73.0038 118.381 73.5568 118.381 74.25V80H117.04V78.8182H116.972C116.881 79.0076 116.73 79.2102 116.518 79.4261C116.306 79.642 116.023 79.8258 115.671 79.9773C115.319 80.1288 114.889 80.2045 114.381 80.2045ZM114.586 79C115.116 79 115.563 78.8958 115.927 78.6875C116.294 78.4792 116.571 78.2102 116.756 77.8807C116.946 77.5511 117.04 77.2045 117.04 76.8409V75.6136C116.984 75.6818 116.859 75.7443 116.665 75.8011C116.476 75.8542 116.256 75.9015 116.006 75.9432C115.76 75.9811 115.52 76.0152 115.285 76.0455C115.054 76.072 114.866 76.0947 114.722 76.1136C114.374 76.1591 114.048 76.233 113.745 76.3352C113.446 76.4337 113.203 76.5833 113.018 76.7841C112.836 76.9811 112.745 77.25 112.745 77.5909C112.745 78.0568 112.917 78.4091 113.262 78.6477C113.611 78.8826 114.052 79 114.586 79ZM129.215 71.2727V72.4091H124.511V71.2727H129.215ZM125.92 80V70.0682C125.92 69.5682 126.037 69.1515 126.272 68.8182C126.507 68.4848 126.812 68.2348 127.187 68.0682C127.562 67.9015 127.958 67.8182 128.374 67.8182C128.704 67.8182 128.973 67.8447 129.181 67.8977C129.389 67.9508 129.545 68 129.647 68.0455L129.261 69.2045C129.192 69.1818 129.098 69.1534 128.977 69.1193C128.859 69.0852 128.704 69.0682 128.511 69.0682C128.067 69.0682 127.747 69.1799 127.55 69.4034C127.357 69.6269 127.261 69.9545 127.261 70.3864V80H125.92ZM131.094 80V71.2727H132.435V80H131.094ZM131.776 69.8182C131.515 69.8182 131.29 69.7292 131.1 69.5511C130.915 69.3731 130.822 69.1591 130.822 68.9091C130.822 68.6591 130.915 68.4451 131.1 68.267C131.29 68.089 131.515 68 131.776 68C132.038 68 132.261 68.089 132.447 68.267C132.636 68.4451 132.731 68.6591 132.731 68.9091C132.731 69.1591 132.636 69.3731 132.447 69.5511C132.261 69.7292 132.038 69.8182 131.776 69.8182ZM136.232 68.3636V80H134.891V68.3636H136.232ZM142.347 80.1818C141.506 80.1818 140.781 79.9962 140.171 79.625C139.565 79.25 139.097 78.7273 138.768 78.0568C138.442 77.3826 138.279 76.5985 138.279 75.7045C138.279 74.8106 138.442 74.0227 138.768 73.3409C139.097 72.6553 139.556 72.1212 140.143 71.7386C140.734 71.3523 141.423 71.1591 142.211 71.1591C142.665 71.1591 143.114 71.2348 143.558 71.3864C144.001 71.5379 144.404 71.7841 144.768 72.125C145.131 72.4621 145.421 72.9091 145.637 73.4659C145.853 74.0227 145.961 74.7083 145.961 75.5227V76.0909H139.234V74.9318H144.597C144.597 74.4394 144.499 74 144.302 73.6136C144.109 73.2273 143.832 72.9223 143.472 72.6989C143.116 72.4754 142.696 72.3636 142.211 72.3636C141.677 72.3636 141.215 72.4962 140.825 72.7614C140.438 73.0227 140.141 73.3636 139.933 73.7841C139.724 74.2045 139.62 74.6553 139.62 75.1364V75.9091C139.62 76.5682 139.734 77.1269 139.961 77.5852C140.192 78.0398 140.512 78.3864 140.921 78.625C141.33 78.8598 141.806 78.9773 142.347 78.9773C142.7 78.9773 143.018 78.928 143.302 78.8295C143.59 78.7273 143.838 78.5758 144.046 78.375C144.254 78.1705 144.415 77.9167 144.529 77.6136L145.825 77.9773C145.688 78.4167 145.459 78.803 145.137 79.1364C144.815 79.4659 144.417 79.7235 143.944 79.9091C143.47 80.0909 142.938 80.1818 142.347 80.1818Z" fill="white"/>
<path d="M0.772727 125.614V124.364H9.5V125.614H5.84091V136H4.43182V125.614H0.772727ZM12.8338 130.75V136H11.4929V124.364H12.8338V128.636H12.9474C13.152 128.186 13.4588 127.828 13.8679 127.562C14.2808 127.294 14.83 127.159 15.5156 127.159C16.1103 127.159 16.6312 127.278 17.0781 127.517C17.5251 127.752 17.8717 128.114 18.1179 128.602C18.3679 129.087 18.4929 129.705 18.4929 130.455V136H17.152V130.545C17.152 129.852 16.9721 129.316 16.6122 128.938C16.2562 128.555 15.7618 128.364 15.1293 128.364C14.6899 128.364 14.2959 128.456 13.9474 128.642C13.6027 128.828 13.33 129.098 13.1293 129.455C12.9323 129.811 12.8338 130.242 12.8338 130.75ZM20.946 136V127.273H22.2869V136H20.946ZM21.6278 125.818C21.3665 125.818 21.1411 125.729 20.9517 125.551C20.7661 125.373 20.6733 125.159 20.6733 124.909C20.6733 124.659 20.7661 124.445 20.9517 124.267C21.1411 124.089 21.3665 124 21.6278 124C21.8892 124 22.1127 124.089 22.2983 124.267C22.4877 124.445 22.5824 124.659 22.5824 124.909C22.5824 125.159 22.4877 125.373 22.2983 125.551C22.1127 125.729 21.8892 125.818 21.6278 125.818ZM30.9247 129.227L29.7202 129.568C29.6444 129.367 29.5327 129.172 29.3849 128.983C29.241 128.79 29.044 128.631 28.794 128.506C28.544 128.381 28.224 128.318 27.8338 128.318C27.2997 128.318 26.8546 128.441 26.4986 128.688C26.1463 128.93 25.9702 129.239 25.9702 129.614C25.9702 129.947 26.0914 130.21 26.3338 130.403C26.5762 130.597 26.955 130.758 27.4702 130.886L28.7656 131.205C29.5459 131.394 30.1274 131.684 30.5099 132.074C30.8925 132.46 31.0838 132.958 31.0838 133.568C31.0838 134.068 30.9399 134.515 30.652 134.909C30.3679 135.303 29.9702 135.614 29.4588 135.841C28.9474 136.068 28.3527 136.182 27.6747 136.182C26.7846 136.182 26.0478 135.989 25.4645 135.602C24.8812 135.216 24.5118 134.652 24.3565 133.909L25.6293 133.591C25.7505 134.061 25.9796 134.413 26.3168 134.648C26.6577 134.883 27.1027 135 27.652 135C28.277 135 28.7732 134.867 29.1406 134.602C29.5118 134.333 29.6974 134.011 29.6974 133.636C29.6974 133.333 29.5914 133.08 29.3793 132.875C29.1671 132.667 28.8414 132.511 28.402 132.409L26.9474 132.068C26.1482 131.879 25.5611 131.585 25.1861 131.188C24.8149 130.786 24.6293 130.284 24.6293 129.682C24.6293 129.189 24.7675 128.754 25.044 128.375C25.3243 127.996 25.705 127.699 26.1861 127.483C26.6709 127.267 27.2202 127.159 27.8338 127.159C28.6974 127.159 29.3755 127.348 29.8679 127.727C30.3641 128.106 30.7164 128.606 30.9247 129.227ZM37.6023 136V127.273H38.9432V136H37.6023ZM38.2841 125.818C38.0227 125.818 37.7973 125.729 37.608 125.551C37.4223 125.373 37.3295 125.159 37.3295 124.909C37.3295 124.659 37.4223 124.445 37.608 124.267C37.7973 124.089 38.0227 124 38.2841 124C38.5455 124 38.7689 124.089 38.9545 124.267C39.1439 124.445 39.2386 124.659 39.2386 124.909C39.2386 125.159 39.1439 125.373 38.9545 125.551C38.7689 125.729 38.5455 125.818 38.2841 125.818ZM47.581 129.227L46.3764 129.568C46.3007 129.367 46.1889 129.172 46.0412 128.983C45.8973 128.79 45.7003 128.631 45.4503 128.506C45.2003 128.381 44.8802 128.318 44.4901 128.318C43.956 128.318 43.5109 128.441 43.1548 128.688C42.8026 128.93 42.6264 129.239 42.6264 129.614C42.6264 129.947 42.7476 130.21 42.9901 130.403C43.2325 130.597 43.6113 130.758 44.1264 130.886L45.4219 131.205C46.2022 131.394 46.7836 131.684 47.1662 132.074C47.5488 132.46 47.7401 132.958 47.7401 133.568C47.7401 134.068 47.5961 134.515 47.3082 134.909C47.0241 135.303 46.6264 135.614 46.1151 135.841C45.6037 136.068 45.009 136.182 44.331 136.182C43.4408 136.182 42.7041 135.989 42.1207 135.602C41.5374 135.216 41.1681 134.652 41.0128 133.909L42.2855 133.591C42.4067 134.061 42.6359 134.413 42.973 134.648C43.3139 134.883 43.759 135 44.3082 135C44.9332 135 45.4295 134.867 45.7969 134.602C46.1681 134.333 46.3537 134.011 46.3537 133.636C46.3537 133.333 46.2476 133.08 46.0355 132.875C45.8234 132.667 45.4976 132.511 45.0582 132.409L43.6037 132.068C42.8045 131.879 42.2173 131.585 41.8423 131.188C41.4711 130.786 41.2855 130.284 41.2855 129.682C41.2855 129.189 41.4238 128.754 41.7003 128.375C41.9806 127.996 42.3613 127.699 42.8423 127.483C43.3272 127.267 43.8764 127.159 44.4901 127.159C45.3537 127.159 46.0317 127.348 46.5241 127.727C47.0204 128.106 47.3726 128.606 47.581 129.227ZM55.5994 130.75V136H54.2585V124.364H55.5994V128.636H55.7131C55.9176 128.186 56.2244 127.828 56.6335 127.562C57.0464 127.294 57.5956 127.159 58.2812 127.159C58.8759 127.159 59.3968 127.278 59.8438 127.517C60.2907 127.752 60.6373 128.114 60.8835 128.602C61.1335 129.087 61.2585 129.705 61.2585 130.455V136H59.9176V130.545C59.9176 129.852 59.7377 129.316 59.3778 128.938C59.0218 128.555 58.5275 128.364 57.8949 128.364C57.4555 128.364 57.0616 128.456 56.7131 128.642C56.3684 128.828 56.0956 129.098 55.8949 129.455C55.6979 129.811 55.5994 130.242 55.5994 130.75ZM63.7116 136V127.273H65.0526V136H63.7116ZM64.3935 125.818C64.1321 125.818 63.9067 125.729 63.7173 125.551C63.5317 125.373 63.4389 125.159 63.4389 124.909C63.4389 124.659 63.5317 124.445 63.7173 124.267C63.9067 124.089 64.1321 124 64.3935 124C64.6548 124 64.8783 124.089 65.0639 124.267C65.2533 124.445 65.348 124.659 65.348 124.909C65.348 125.159 65.2533 125.373 65.0639 125.551C64.8783 125.729 64.6548 125.818 64.3935 125.818ZM68.8494 130.75V136H67.5085V127.273H68.804V128.636H68.9176C69.1222 128.193 69.4328 127.837 69.8494 127.568C70.2661 127.295 70.804 127.159 71.4631 127.159C72.054 127.159 72.571 127.28 73.0142 127.523C73.4574 127.761 73.8021 128.125 74.0483 128.614C74.2945 129.098 74.4176 129.712 74.4176 130.455V136H73.0767V130.545C73.0767 129.86 72.8987 129.326 72.5426 128.943C72.1866 128.557 71.6979 128.364 71.0767 128.364C70.6487 128.364 70.2661 128.456 69.929 128.642C69.5956 128.828 69.3324 129.098 69.1392 129.455C68.946 129.811 68.8494 130.242 68.8494 130.75ZM80.6634 127.273V128.409H76.1406V127.273H80.6634ZM77.4588 125.182H78.7997V133.5C78.7997 133.879 78.8546 134.163 78.9645 134.352C79.0781 134.538 79.2221 134.663 79.3963 134.727C79.5743 134.788 79.7618 134.818 79.9588 134.818C80.1065 134.818 80.2277 134.811 80.3224 134.795C80.4171 134.777 80.4929 134.761 80.5497 134.75L80.8224 135.955C80.7315 135.989 80.6046 136.023 80.4418 136.057C80.2789 136.095 80.0724 136.114 79.8224 136.114C79.4437 136.114 79.0724 136.032 78.7088 135.869C78.349 135.706 78.0497 135.458 77.8111 135.125C77.5762 134.792 77.4588 134.371 77.4588 133.864V125.182ZM90.9759 127.273V128.409H86.4531V127.273H90.9759ZM87.7713 125.182H89.1122V133.5C89.1122 133.879 89.1671 134.163 89.277 134.352C89.3906 134.538 89.5346 134.663 89.7088 134.727C89.8868 134.788 90.0743 134.818 90.2713 134.818C90.419 134.818 90.5402 134.811 90.6349 134.795C90.7296 134.777 90.8054 134.761 90.8622 134.75L91.1349 135.955C91.044 135.989 90.9171 136.023 90.7543 136.057C90.5914 136.095 90.3849 136.114 90.1349 136.114C89.7562 136.114 89.3849 136.032 89.0213 135.869C88.6615 135.706 88.3622 135.458 88.1236 135.125C87.8887 134.792 87.7713 134.371 87.7713 133.864V125.182ZM96.5582 136.182C95.7173 136.182 94.992 135.996 94.3821 135.625C93.776 135.25 93.3082 134.727 92.9787 134.057C92.6529 133.383 92.4901 132.598 92.4901 131.705C92.4901 130.811 92.6529 130.023 92.9787 129.341C93.3082 128.655 93.7666 128.121 94.3537 127.739C94.9446 127.352 95.634 127.159 96.4219 127.159C96.8764 127.159 97.3253 127.235 97.7685 127.386C98.2116 127.538 98.6151 127.784 98.9787 128.125C99.3423 128.462 99.6321 128.909 99.848 129.466C100.064 130.023 100.172 130.708 100.172 131.523V132.091H93.4446V130.932H98.8082C98.8082 130.439 98.7098 130 98.5128 129.614C98.3196 129.227 98.0431 128.922 97.6832 128.699C97.3272 128.475 96.9067 128.364 96.4219 128.364C95.8878 128.364 95.4257 128.496 95.0355 128.761C94.6491 129.023 94.3518 129.364 94.1435 129.784C93.9351 130.205 93.831 130.655 93.831 131.136V131.909C93.831 132.568 93.9446 133.127 94.1719 133.585C94.4029 134.04 94.723 134.386 95.1321 134.625C95.5412 134.86 96.0166 134.977 96.5582 134.977C96.9105 134.977 97.2287 134.928 97.5128 134.83C97.8007 134.727 98.0488 134.576 98.2571 134.375C98.4654 134.17 98.6264 133.917 98.7401 133.614L100.036 133.977C99.8991 134.417 99.67 134.803 99.348 135.136C99.026 135.466 98.6283 135.723 98.1548 135.909C97.6813 136.091 97.1491 136.182 96.5582 136.182ZM102.977 127.273L105.068 130.841L107.159 127.273H108.705L105.886 131.636L108.705 136H107.159L105.068 132.614L102.977 136H101.432L104.205 131.636L101.432 127.273H102.977ZM114.413 127.273V128.409H109.891V127.273H114.413ZM111.209 125.182H112.55V133.5C112.55 133.879 112.605 134.163 112.714 134.352C112.828 134.538 112.972 134.663 113.146 134.727C113.324 134.788 113.512 134.818 113.709 134.818C113.857 134.818 113.978 134.811 114.072 134.795C114.167 134.777 114.243 134.761 114.3 134.75L114.572 135.955C114.482 135.989 114.355 136.023 114.192 136.057C114.029 136.095 113.822 136.114 113.572 136.114C113.194 136.114 112.822 136.032 112.459 135.869C112.099 135.706 111.8 135.458 111.561 135.125C111.326 134.792 111.209 134.371 111.209 133.864V125.182Z" fill="#344054"/>
<path d="M20.7701 171.968C20.843 172.041 20.9008 172.128 20.9402 172.223C20.9797 172.318 21 172.42 21 172.522C21 172.625 20.9797 172.727 20.9402 172.822C20.9008 172.917 20.843 173.004 20.7701 173.077L9.81504 184.032C9.74235 184.104 9.656 184.162 9.56094 184.202C9.46587 184.241 9.36395 184.261 9.26103 184.261C9.1581 184.261 9.05619 184.241 8.96112 184.202C8.86605 184.162 8.7797 184.104 8.70701 184.032L3.22948 178.554C3.08255 178.407 3 178.208 3 178C3 177.792 3.08255 177.593 3.22948 177.446C3.37641 177.299 3.5757 177.217 3.78349 177.217C3.99129 177.217 4.19057 177.299 4.33751 177.446L9.26103 182.371L19.6621 171.968C19.7348 171.896 19.8211 171.838 19.9162 171.798C20.0113 171.759 20.1132 171.739 20.2161 171.739C20.319 171.739 20.4209 171.759 20.516 171.798C20.6111 171.838 20.6974 171.896 20.7701 171.968Z" fill="#0A8217"/>
<path d="M48.0455 172.364H49.4545V180.068C49.4545 180.864 49.267 181.574 48.892 182.199C48.5208 182.82 47.9962 183.311 47.3182 183.67C46.6402 184.027 45.8447 184.205 44.9318 184.205C44.0189 184.205 43.2235 184.027 42.5455 183.67C41.8674 183.311 41.3409 182.82 40.9659 182.199C40.5947 181.574 40.4091 180.864 40.4091 180.068V172.364H41.8182V179.955C41.8182 180.523 41.9432 181.028 42.1932 181.472C42.4432 181.911 42.7992 182.258 43.2614 182.511C43.7273 182.761 44.2841 182.886 44.9318 182.886C45.5795 182.886 46.1364 182.761 46.6023 182.511C47.0682 182.258 47.4242 181.911 47.6705 181.472C47.9205 181.028 48.0455 180.523 48.0455 179.955V172.364ZM52.0866 187.273V175.273H53.3821V176.659H53.5412C53.6397 176.508 53.776 176.314 53.9503 176.08C54.1283 175.841 54.3821 175.629 54.7116 175.443C55.045 175.254 55.4957 175.159 56.0639 175.159C56.7988 175.159 57.4465 175.343 58.0071 175.71C58.5677 176.078 59.0052 176.598 59.3196 177.273C59.634 177.947 59.7912 178.742 59.7912 179.659C59.7912 180.583 59.634 181.384 59.3196 182.062C59.0052 182.737 58.5696 183.259 58.0128 183.631C57.456 183.998 56.8139 184.182 56.0866 184.182C55.526 184.182 55.0772 184.089 54.7401 183.903C54.4029 183.714 54.1435 183.5 53.9616 183.261C53.7798 183.019 53.6397 182.818 53.5412 182.659H53.4276V187.273H52.0866ZM53.4048 179.636C53.4048 180.295 53.5014 180.877 53.6946 181.381C53.8878 181.881 54.17 182.273 54.5412 182.557C54.9124 182.837 55.367 182.977 55.9048 182.977C56.4654 182.977 56.9332 182.83 57.3082 182.534C57.687 182.235 57.9711 181.833 58.1605 181.33C58.3537 180.822 58.4503 180.258 58.4503 179.636C58.4503 179.023 58.3556 178.47 58.1662 177.977C57.9806 177.481 57.6984 177.089 57.3196 176.801C56.9446 176.509 56.473 176.364 55.9048 176.364C55.3594 176.364 54.901 176.502 54.5298 176.778C54.1586 177.051 53.8783 177.434 53.6889 177.926C53.4995 178.415 53.4048 178.985 53.4048 179.636ZM63.1776 172.364V184H61.8366V172.364H63.1776ZM69.179 184.182C68.3911 184.182 67.6998 183.994 67.1051 183.619C66.5142 183.244 66.0521 182.72 65.7188 182.045C65.3892 181.371 65.2244 180.583 65.2244 179.682C65.2244 178.773 65.3892 177.979 65.7188 177.301C66.0521 176.623 66.5142 176.097 67.1051 175.722C67.6998 175.347 68.3911 175.159 69.179 175.159C69.9669 175.159 70.6563 175.347 71.2472 175.722C71.8419 176.097 72.304 176.623 72.6335 177.301C72.9669 177.979 73.1335 178.773 73.1335 179.682C73.1335 180.583 72.9669 181.371 72.6335 182.045C72.304 182.72 71.8419 183.244 71.2472 183.619C70.6563 183.994 69.9669 184.182 69.179 184.182ZM69.179 182.977C69.7775 182.977 70.2699 182.824 70.6562 182.517C71.0426 182.21 71.3286 181.807 71.5142 181.307C71.6998 180.807 71.7926 180.265 71.7926 179.682C71.7926 179.098 71.6998 178.555 71.5142 178.051C71.3286 177.547 71.0426 177.14 70.6562 176.83C70.2699 176.519 69.7775 176.364 69.179 176.364C68.5805 176.364 68.0881 176.519 67.7017 176.83C67.3153 177.14 67.0294 177.547 66.8438 178.051C66.6581 178.555 66.5653 179.098 66.5653 179.682C66.5653 180.265 66.6581 180.807 66.8438 181.307C67.0294 181.807 67.3153 182.21 67.7017 182.517C68.0881 182.824 68.5805 182.977 69.179 182.977ZM77.7486 184.205C77.1955 184.205 76.6937 184.1 76.2429 183.892C75.7921 183.68 75.4342 183.375 75.169 182.977C74.9039 182.576 74.7713 182.091 74.7713 181.523C74.7713 181.023 74.8698 180.617 75.0668 180.307C75.2637 179.992 75.527 179.746 75.8565 179.568C76.1861 179.39 76.5497 179.258 76.9474 179.17C77.349 179.08 77.7524 179.008 78.1577 178.955C78.688 178.886 79.1179 178.835 79.4474 178.801C79.7808 178.763 80.0232 178.701 80.1747 178.614C80.33 178.527 80.4077 178.375 80.4077 178.159V178.114C80.4077 177.553 80.2543 177.117 79.9474 176.807C79.6444 176.496 79.1842 176.341 78.5668 176.341C77.9266 176.341 77.4247 176.481 77.0611 176.761C76.6974 177.042 76.4418 177.341 76.294 177.659L75.0213 177.205C75.2486 176.674 75.5516 176.261 75.9304 175.966C76.313 175.667 76.7296 175.458 77.1804 175.341C77.6349 175.22 78.0819 175.159 78.5213 175.159C78.8016 175.159 79.1236 175.193 79.4872 175.261C79.8546 175.326 80.2088 175.46 80.5497 175.665C80.8944 175.869 81.1804 176.178 81.4077 176.591C81.6349 177.004 81.7486 177.557 81.7486 178.25V184H80.4077V182.818H80.3395C80.2486 183.008 80.0971 183.21 79.8849 183.426C79.6728 183.642 79.3906 183.826 79.0384 183.977C78.6861 184.129 78.2562 184.205 77.7486 184.205ZM77.9531 183C78.4834 183 78.9304 182.896 79.294 182.688C79.6615 182.479 79.938 182.21 80.1236 181.881C80.313 181.551 80.4077 181.205 80.4077 180.841V179.614C80.3509 179.682 80.2259 179.744 80.0327 179.801C79.8433 179.854 79.6236 179.902 79.3736 179.943C79.1274 179.981 78.8868 180.015 78.652 180.045C78.4209 180.072 78.2334 180.095 78.0895 180.114C77.741 180.159 77.4152 180.233 77.1122 180.335C76.813 180.434 76.5705 180.583 76.3849 180.784C76.2031 180.981 76.1122 181.25 76.1122 181.591C76.1122 182.057 76.2846 182.409 76.6293 182.648C76.9777 182.883 77.419 183 77.9531 183ZM87.4915 184.182C86.7642 184.182 86.1222 183.998 85.5653 183.631C85.0085 183.259 84.5729 182.737 84.2585 182.062C83.9441 181.384 83.7869 180.583 83.7869 179.659C83.7869 178.742 83.9441 177.947 84.2585 177.273C84.5729 176.598 85.0104 176.078 85.571 175.71C86.1316 175.343 86.7794 175.159 87.5142 175.159C88.0824 175.159 88.5313 175.254 88.8608 175.443C89.1941 175.629 89.4479 175.841 89.6222 176.08C89.8002 176.314 89.9384 176.508 90.0369 176.659H90.1506V172.364H91.4915V184H90.196V182.659H90.0369C89.9384 182.818 89.7983 183.019 89.6165 183.261C89.4347 183.5 89.1752 183.714 88.8381 183.903C88.5009 184.089 88.0521 184.182 87.4915 184.182ZM87.6733 182.977C88.2112 182.977 88.6657 182.837 89.0369 182.557C89.4081 182.273 89.6903 181.881 89.8835 181.381C90.0767 180.877 90.1733 180.295 90.1733 179.636C90.1733 178.985 90.0786 178.415 89.8892 177.926C89.6998 177.434 89.4195 177.051 89.0483 176.778C88.6771 176.502 88.2188 176.364 87.6733 176.364C87.1051 176.364 86.6316 176.509 86.2528 176.801C85.8778 177.089 85.5956 177.481 85.4062 177.977C85.2206 178.47 85.1278 179.023 85.1278 179.636C85.1278 180.258 85.2225 180.822 85.4119 181.33C85.6051 181.833 85.8892 182.235 86.2642 182.534C86.643 182.83 87.1127 182.977 87.6733 182.977ZM97.7926 184.182C96.9517 184.182 96.2263 183.996 95.6165 183.625C95.0104 183.25 94.5426 182.727 94.2131 182.057C93.8873 181.383 93.7244 180.598 93.7244 179.705C93.7244 178.811 93.8873 178.023 94.2131 177.341C94.5426 176.655 95.0009 176.121 95.5881 175.739C96.179 175.352 96.8684 175.159 97.6562 175.159C98.1108 175.159 98.5597 175.235 99.0028 175.386C99.446 175.538 99.8494 175.784 100.213 176.125C100.577 176.462 100.866 176.909 101.082 177.466C101.298 178.023 101.406 178.708 101.406 179.523V180.091H94.679V178.932H100.043C100.043 178.439 99.9441 178 99.7472 177.614C99.554 177.227 99.2775 176.922 98.9176 176.699C98.5616 176.475 98.1411 176.364 97.6562 176.364C97.1222 176.364 96.66 176.496 96.2699 176.761C95.8835 177.023 95.5862 177.364 95.3778 177.784C95.1695 178.205 95.0653 178.655 95.0653 179.136V179.909C95.0653 180.568 95.179 181.127 95.4062 181.585C95.6373 182.04 95.9574 182.386 96.3665 182.625C96.7756 182.86 97.2509 182.977 97.7926 182.977C98.1449 182.977 98.4631 182.928 98.7472 182.83C99.035 182.727 99.2831 182.576 99.4915 182.375C99.6998 182.17 99.8608 181.917 99.9744 181.614L101.27 181.977C101.134 182.417 100.904 182.803 100.582 183.136C100.26 183.466 99.8627 183.723 99.3892 183.909C98.9157 184.091 98.3835 184.182 97.7926 184.182ZM106.741 184.182C106.014 184.182 105.372 183.998 104.815 183.631C104.259 183.259 103.823 182.737 103.509 182.062C103.194 181.384 103.037 180.583 103.037 179.659C103.037 178.742 103.194 177.947 103.509 177.273C103.823 176.598 104.26 176.078 104.821 175.71C105.382 175.343 106.029 175.159 106.764 175.159C107.332 175.159 107.781 175.254 108.111 175.443C108.444 175.629 108.698 175.841 108.872 176.08C109.05 176.314 109.188 176.508 109.287 176.659H109.401V172.364H110.741V184H109.446V182.659H109.287C109.188 182.818 109.048 183.019 108.866 183.261C108.685 183.5 108.425 183.714 108.088 183.903C107.751 184.089 107.302 184.182 106.741 184.182ZM106.923 182.977C107.461 182.977 107.916 182.837 108.287 182.557C108.658 182.273 108.94 181.881 109.134 181.381C109.327 180.877 109.423 180.295 109.423 179.636C109.423 178.985 109.329 178.415 109.139 177.926C108.95 177.434 108.67 177.051 108.298 176.778C107.927 176.502 107.469 176.364 106.923 176.364C106.355 176.364 105.882 176.509 105.503 176.801C105.128 177.089 104.846 177.481 104.656 177.977C104.471 178.47 104.378 179.023 104.378 179.636C104.378 180.258 104.473 180.822 104.662 181.33C104.855 181.833 105.139 182.235 105.514 182.534C105.893 182.83 106.363 182.977 106.923 182.977ZM121.77 175.273V176.409H117.065V175.273H121.77ZM118.474 184V174.068C118.474 173.568 118.592 173.152 118.827 172.818C119.062 172.485 119.366 172.235 119.741 172.068C120.116 171.902 120.512 171.818 120.929 171.818C121.259 171.818 121.527 171.845 121.736 171.898C121.944 171.951 122.099 172 122.202 172.045L121.815 173.205C121.747 173.182 121.652 173.153 121.531 173.119C121.414 173.085 121.259 173.068 121.065 173.068C120.622 173.068 120.302 173.18 120.105 173.403C119.912 173.627 119.815 173.955 119.815 174.386V184H118.474ZM123.649 184V175.273H124.99V184H123.649ZM124.331 173.818C124.07 173.818 123.844 173.729 123.655 173.551C123.469 173.373 123.376 173.159 123.376 172.909C123.376 172.659 123.469 172.445 123.655 172.267C123.844 172.089 124.07 172 124.331 172C124.592 172 124.816 172.089 125.001 172.267C125.191 172.445 125.286 172.659 125.286 172.909C125.286 173.159 125.191 173.373 125.001 173.551C124.816 173.729 124.592 173.818 124.331 173.818ZM128.787 172.364V184H127.446V172.364H128.787ZM134.902 184.182C134.061 184.182 133.336 183.996 132.726 183.625C132.12 183.25 131.652 182.727 131.322 182.057C130.997 181.383 130.834 180.598 130.834 179.705C130.834 178.811 130.997 178.023 131.322 177.341C131.652 176.655 132.11 176.121 132.697 175.739C133.288 175.352 133.978 175.159 134.766 175.159C135.22 175.159 135.669 175.235 136.112 175.386C136.555 175.538 136.959 175.784 137.322 176.125C137.686 176.462 137.976 176.909 138.192 177.466C138.408 178.023 138.516 178.708 138.516 179.523V180.091H131.788V178.932H137.152C137.152 178.439 137.054 178 136.857 177.614C136.663 177.227 136.387 176.922 136.027 176.699C135.671 176.475 135.25 176.364 134.766 176.364C134.232 176.364 133.769 176.496 133.379 176.761C132.993 177.023 132.696 177.364 132.487 177.784C132.279 178.205 132.175 178.655 132.175 179.136V179.909C132.175 180.568 132.288 181.127 132.516 181.585C132.747 182.04 133.067 182.386 133.476 182.625C133.885 182.86 134.36 182.977 134.902 182.977C135.254 182.977 135.572 182.928 135.857 182.83C136.144 182.727 136.393 182.576 136.601 182.375C136.809 182.17 136.97 181.917 137.084 181.614L138.379 181.977C138.243 182.417 138.014 182.803 137.692 183.136C137.37 183.466 136.972 183.723 136.499 183.909C136.025 184.091 135.493 184.182 134.902 184.182ZM149.124 172.364V184H147.714V173.841H147.646L144.805 175.727V174.295L147.714 172.364H149.124ZM152.783 184.091C152.502 184.091 152.262 183.991 152.061 183.79C151.86 183.589 151.76 183.348 151.76 183.068C151.76 182.788 151.86 182.547 152.061 182.347C152.262 182.146 152.502 182.045 152.783 182.045C153.063 182.045 153.304 182.146 153.504 182.347C153.705 182.547 153.805 182.788 153.805 183.068C153.805 183.254 153.758 183.424 153.663 183.58C153.572 183.735 153.449 183.86 153.294 183.955C153.143 184.045 152.972 184.091 152.783 184.091ZM159.871 184.182C159.03 184.182 158.304 183.996 157.695 183.625C157.089 183.25 156.621 182.727 156.291 182.057C155.965 181.383 155.803 180.598 155.803 179.705C155.803 178.811 155.965 178.023 156.291 177.341C156.621 176.655 157.079 176.121 157.666 175.739C158.257 175.352 158.946 175.159 159.734 175.159C160.189 175.159 160.638 175.235 161.081 175.386C161.524 175.538 161.928 175.784 162.291 176.125C162.655 176.462 162.945 176.909 163.161 177.466C163.376 178.023 163.484 178.708 163.484 179.523V180.091H156.757V178.932H162.121C162.121 178.439 162.022 178 161.825 177.614C161.632 177.227 161.356 176.922 160.996 176.699C160.64 176.475 160.219 176.364 159.734 176.364C159.2 176.364 158.738 176.496 158.348 176.761C157.962 177.023 157.664 177.364 157.456 177.784C157.248 178.205 157.143 178.655 157.143 179.136V179.909C157.143 180.568 157.257 181.127 157.484 181.585C157.715 182.04 158.036 182.386 158.445 182.625C158.854 182.86 159.329 182.977 159.871 182.977C160.223 182.977 160.541 182.928 160.825 182.83C161.113 182.727 161.361 182.576 161.57 182.375C161.778 182.17 161.939 181.917 162.053 181.614L163.348 181.977C163.212 182.417 162.982 182.803 162.661 183.136C162.339 183.466 161.941 183.723 161.467 183.909C160.994 184.091 160.462 184.182 159.871 184.182ZM166.29 175.273L168.381 178.841L170.472 175.273H172.017L169.199 179.636L172.017 184H170.472L168.381 180.614L166.29 184H164.744L167.517 179.636L164.744 175.273H166.29ZM177.726 175.273V176.409H173.203V175.273H177.726ZM174.521 173.182H175.862V181.5C175.862 181.879 175.917 182.163 176.027 182.352C176.141 182.538 176.285 182.663 176.459 182.727C176.637 182.788 176.824 182.818 177.021 182.818C177.169 182.818 177.29 182.811 177.385 182.795C177.48 182.777 177.555 182.761 177.612 182.75L177.885 183.955C177.794 183.989 177.667 184.023 177.504 184.057C177.341 184.095 177.135 184.114 176.885 184.114C176.506 184.114 176.135 184.032 175.771 183.869C175.411 183.706 175.112 183.458 174.874 183.125C174.639 182.792 174.521 182.371 174.521 181.864V173.182ZM183.308 184.182C182.467 184.182 181.742 183.996 181.132 183.625C180.526 183.25 180.058 182.727 179.729 182.057C179.403 181.383 179.24 180.598 179.24 179.705C179.24 178.811 179.403 178.023 179.729 177.341C180.058 176.655 180.517 176.121 181.104 175.739C181.695 175.352 182.384 175.159 183.172 175.159C183.626 175.159 184.075 175.235 184.518 175.386C184.962 175.538 185.365 175.784 185.729 176.125C186.092 176.462 186.382 176.909 186.598 177.466C186.814 178.023 186.922 178.708 186.922 179.523V180.091H180.195V178.932H185.558C185.558 178.439 185.46 178 185.263 177.614C185.07 177.227 184.793 176.922 184.433 176.699C184.077 176.475 183.657 176.364 183.172 176.364C182.638 176.364 182.176 176.496 181.786 176.761C181.399 177.023 181.102 177.364 180.893 177.784C180.685 178.205 180.581 178.655 180.581 179.136V179.909C180.581 180.568 180.695 181.127 180.922 181.585C181.153 182.04 181.473 182.386 181.882 182.625C182.291 182.86 182.767 182.977 183.308 182.977C183.661 182.977 183.979 182.928 184.263 182.83C184.551 182.727 184.799 182.576 185.007 182.375C185.215 182.17 185.376 181.917 185.49 181.614L186.786 181.977C186.649 182.417 186.42 182.803 186.098 183.136C185.776 183.466 185.378 183.723 184.905 183.909C184.431 184.091 183.899 184.182 183.308 184.182ZM190.303 178.75V184H188.962V175.273H190.257V176.636H190.371C190.575 176.193 190.886 175.837 191.303 175.568C191.719 175.295 192.257 175.159 192.916 175.159C193.507 175.159 194.024 175.28 194.467 175.523C194.911 175.761 195.255 176.125 195.501 176.614C195.748 177.098 195.871 177.712 195.871 178.455V184H194.53V178.545C194.53 177.86 194.352 177.326 193.996 176.943C193.64 176.557 193.151 176.364 192.53 176.364C192.102 176.364 191.719 176.456 191.382 176.642C191.049 176.828 190.786 177.098 190.592 177.455C190.399 177.811 190.303 178.242 190.303 178.75ZM204.503 177.227L203.298 177.568C203.223 177.367 203.111 177.172 202.963 176.983C202.819 176.79 202.622 176.631 202.372 176.506C202.122 176.381 201.802 176.318 201.412 176.318C200.878 176.318 200.433 176.441 200.077 176.688C199.724 176.93 199.548 177.239 199.548 177.614C199.548 177.947 199.67 178.21 199.912 178.403C200.154 178.597 200.533 178.758 201.048 178.886L202.344 179.205C203.124 179.394 203.705 179.684 204.088 180.074C204.471 180.46 204.662 180.958 204.662 181.568C204.662 182.068 204.518 182.515 204.23 182.909C203.946 183.303 203.548 183.614 203.037 183.841C202.526 184.068 201.931 184.182 201.253 184.182C200.363 184.182 199.626 183.989 199.043 183.602C198.459 183.216 198.09 182.652 197.935 181.909L199.207 181.591C199.329 182.061 199.558 182.413 199.895 182.648C200.236 182.883 200.681 183 201.23 183C201.855 183 202.351 182.867 202.719 182.602C203.09 182.333 203.276 182.011 203.276 181.636C203.276 181.333 203.17 181.08 202.957 180.875C202.745 180.667 202.42 180.511 201.98 180.409L200.526 180.068C199.726 179.879 199.139 179.585 198.764 179.188C198.393 178.786 198.207 178.284 198.207 177.682C198.207 177.189 198.346 176.754 198.622 176.375C198.902 175.996 199.283 175.699 199.764 175.483C200.249 175.267 200.798 175.159 201.412 175.159C202.276 175.159 202.954 175.348 203.446 175.727C203.942 176.106 204.295 176.606 204.503 177.227ZM206.68 184V175.273H208.021V184H206.68ZM207.362 173.818C207.101 173.818 206.875 173.729 206.686 173.551C206.5 173.373 206.408 173.159 206.408 172.909C206.408 172.659 206.5 172.445 206.686 172.267C206.875 172.089 207.101 172 207.362 172C207.624 172 207.847 172.089 208.033 172.267C208.222 172.445 208.317 172.659 208.317 172.909C208.317 173.159 208.222 173.373 208.033 173.551C207.847 173.729 207.624 173.818 207.362 173.818ZM214.023 184.182C213.235 184.182 212.544 183.994 211.949 183.619C211.358 183.244 210.896 182.72 210.562 182.045C210.233 181.371 210.068 180.583 210.068 179.682C210.068 178.773 210.233 177.979 210.562 177.301C210.896 176.623 211.358 176.097 211.949 175.722C212.544 175.347 213.235 175.159 214.023 175.159C214.811 175.159 215.5 175.347 216.091 175.722C216.686 176.097 217.148 176.623 217.477 177.301C217.811 177.979 217.977 178.773 217.977 179.682C217.977 180.583 217.811 181.371 217.477 182.045C217.148 182.72 216.686 183.244 216.091 183.619C215.5 183.994 214.811 184.182 214.023 184.182ZM214.023 182.977C214.621 182.977 215.114 182.824 215.5 182.517C215.886 182.21 216.172 181.807 216.358 181.307C216.544 180.807 216.636 180.265 216.636 179.682C216.636 179.098 216.544 178.555 216.358 178.051C216.172 177.547 215.886 177.14 215.5 176.83C215.114 176.519 214.621 176.364 214.023 176.364C213.424 176.364 212.932 176.519 212.545 176.83C212.159 177.14 211.873 177.547 211.688 178.051C211.502 178.555 211.409 179.098 211.409 179.682C211.409 180.265 211.502 180.807 211.688 181.307C211.873 181.807 212.159 182.21 212.545 182.517C212.932 182.824 213.424 182.977 214.023 182.977ZM221.365 178.75V184H220.024V175.273H221.32V176.636H221.433C221.638 176.193 221.948 175.837 222.365 175.568C222.782 175.295 223.32 175.159 223.979 175.159C224.57 175.159 225.087 175.28 225.53 175.523C225.973 175.761 226.318 176.125 226.564 176.614C226.81 177.098 226.933 177.712 226.933 178.455V184H225.592V178.545C225.592 177.86 225.414 177.326 225.058 176.943C224.702 176.557 224.214 176.364 223.592 176.364C223.164 176.364 222.782 176.456 222.445 176.642C222.111 176.828 221.848 177.098 221.655 177.455C221.462 177.811 221.365 178.242 221.365 178.75Z" fill="#0F71BB"/>
<path d="M39 187.182H50.8636V188.273H39V187.182ZM50.8594 187.182H82.9759V188.273H50.8594V187.182ZM82.9688 187.182H102.224V188.273H82.9688V187.182ZM102.219 187.182H122.429V188.273H102.219V187.182ZM122.422 187.182H139.334V188.273H122.422V187.182ZM139.328 187.182H151.26V188.273H139.328V187.182ZM150.578 187.182H154.987V188.273H150.578V187.182ZM154.984 187.182H164.303V188.273H154.984V187.182ZM164.062 187.182H178.521V188.273H164.062V187.182ZM178.422 187.182H187.74V188.273H178.422V187.182ZM187.734 187.182H197.098V188.273H187.734V187.182ZM197.094 187.182H205.457V188.273H197.094V187.182ZM205.453 187.182H228.161V188.273H205.453V187.182Z" fill="#0F71BB"/>
<path d="M256 185.875C253.911 185.875 251.908 185.045 250.432 183.568C248.955 182.092 248.125 180.089 248.125 178C248.125 175.911 248.955 173.908 250.432 172.432C251.908 170.955 253.911 170.125 256 170.125C258.089 170.125 260.092 170.955 261.568 172.432C263.045 173.908 263.875 175.911 263.875 178C263.875 180.089 263.045 182.092 261.568 183.568C260.092 185.045 258.089 185.875 256 185.875ZM256 187C258.387 187 260.676 186.052 262.364 184.364C264.052 182.676 265 180.387 265 178C265 175.613 264.052 173.324 262.364 171.636C260.676 169.948 258.387 169 256 169C253.613 169 251.324 169.948 249.636 171.636C247.948 173.324 247 175.613 247 178C247 180.387 247.948 182.676 249.636 184.364C251.324 186.052 253.613 187 256 187Z" fill="#344054"/>
<path d="M252.227 174.227C252.279 174.174 252.341 174.133 252.409 174.104C252.478 174.076 252.551 174.061 252.625 174.061C252.699 174.061 252.772 174.076 252.841 174.104C252.909 174.133 252.971 174.174 253.023 174.227L256 177.205L258.977 174.227C259.029 174.174 259.091 174.133 259.159 174.105C259.228 174.076 259.301 174.062 259.375 174.062C259.449 174.062 259.522 174.076 259.591 174.105C259.659 174.133 259.721 174.174 259.773 174.227C259.826 174.279 259.867 174.341 259.895 174.409C259.924 174.478 259.938 174.551 259.938 174.625C259.938 174.699 259.924 174.772 259.895 174.841C259.867 174.909 259.826 174.971 259.773 175.023L256.795 178L259.773 180.977C259.826 181.029 259.867 181.091 259.895 181.159C259.924 181.228 259.938 181.301 259.938 181.375C259.938 181.449 259.924 181.522 259.895 181.59C259.867 181.659 259.826 181.721 259.773 181.773C259.721 181.826 259.659 181.867 259.591 181.895C259.522 181.924 259.449 181.938 259.375 181.938C259.301 181.938 259.228 181.924 259.159 181.895C259.091 181.867 259.029 181.826 258.977 181.773L256 178.795L253.023 181.773C252.971 181.826 252.909 181.867 252.841 181.895C252.772 181.924 252.699 181.938 252.625 181.938C252.551 181.938 252.478 181.924 252.409 181.895C252.341 181.867 252.279 181.826 252.227 181.773C252.174 181.721 252.133 181.659 252.105 181.59C252.076 181.522 252.062 181.449 252.062 181.375C252.062 181.301 252.076 181.228 252.105 181.159C252.133 181.091 252.174 181.029 252.227 180.977L255.205 178L252.227 175.023C252.174 174.971 252.133 174.909 252.104 174.841C252.076 174.772 252.061 174.699 252.061 174.625C252.061 174.551 252.076 174.478 252.104 174.409C252.133 174.341 252.174 174.279 252.227 174.227Z" fill="#344054"/>
<path d="M20.7701 211.968C20.843 212.041 20.9008 212.128 20.9402 212.223C20.9797 212.318 21 212.42 21 212.522C21 212.625 20.9797 212.727 20.9402 212.822C20.9008 212.917 20.843 213.004 20.7701 213.077L9.81504 224.032C9.74235 224.104 9.656 224.162 9.56094 224.202C9.46587 224.241 9.36395 224.261 9.26103 224.261C9.1581 224.261 9.05619 224.241 8.96112 224.202C8.86605 224.162 8.7797 224.104 8.70701 224.032L3.22948 218.554C3.08255 218.407 3 218.208 3 218C3 217.792 3.08255 217.593 3.22948 217.446C3.37641 217.299 3.5757 217.217 3.78349 217.217C3.99129 217.217 4.19057 217.299 4.33751 217.446L9.26103 222.371L19.6621 211.968C19.7348 211.896 19.8211 211.838 19.9162 211.798C20.0113 211.759 20.1132 211.739 20.2161 211.739C20.319 211.739 20.4209 211.759 20.516 211.798C20.6111 211.838 20.6974 211.896 20.7701 211.968Z" fill="#0A8217"/>
<path d="M49.0455 212.364H50.4545V220.068C50.4545 220.864 50.267 221.574 49.892 222.199C49.5208 222.82 48.9962 223.311 48.3182 223.67C47.6402 224.027 46.8447 224.205 45.9318 224.205C45.0189 224.205 44.2235 224.027 43.5455 223.67C42.8674 223.311 42.3409 222.82 41.9659 222.199C41.5947 221.574 41.4091 220.864 41.4091 220.068V212.364H42.8182V219.955C42.8182 220.523 42.9432 221.028 43.1932 221.472C43.4432 221.911 43.7992 222.258 44.2614 222.511C44.7273 222.761 45.2841 222.886 45.9318 222.886C46.5795 222.886 47.1364 222.761 47.6023 222.511C48.0682 222.258 48.4242 221.911 48.6705 221.472C48.9205 221.028 49.0455 220.523 49.0455 219.955V212.364ZM53.0866 227.273V215.273H54.3821V216.659H54.5412C54.6397 216.508 54.776 216.314 54.9503 216.08C55.1283 215.841 55.3821 215.629 55.7116 215.443C56.045 215.254 56.4957 215.159 57.0639 215.159C57.7988 215.159 58.4465 215.343 59.0071 215.71C59.5677 216.078 60.0052 216.598 60.3196 217.273C60.634 217.947 60.7912 218.742 60.7912 219.659C60.7912 220.583 60.634 221.384 60.3196 222.062C60.0052 222.737 59.5696 223.259 59.0128 223.631C58.456 223.998 57.8139 224.182 57.0866 224.182C56.526 224.182 56.0772 224.089 55.7401 223.903C55.4029 223.714 55.1435 223.5 54.9616 223.261C54.7798 223.019 54.6397 222.818 54.5412 222.659H54.4276V227.273H53.0866ZM54.4048 219.636C54.4048 220.295 54.5014 220.877 54.6946 221.381C54.8878 221.881 55.17 222.273 55.5412 222.557C55.9124 222.837 56.367 222.977 56.9048 222.977C57.4654 222.977 57.9332 222.83 58.3082 222.534C58.687 222.235 58.9711 221.833 59.1605 221.33C59.3537 220.822 59.4503 220.258 59.4503 219.636C59.4503 219.023 59.3556 218.47 59.1662 217.977C58.9806 217.481 58.6984 217.089 58.3196 216.801C57.9446 216.509 57.473 216.364 56.9048 216.364C56.3594 216.364 55.901 216.502 55.5298 216.778C55.1586 217.051 54.8783 217.434 54.6889 217.926C54.4995 218.415 54.4048 218.985 54.4048 219.636ZM64.1776 212.364V224H62.8366V212.364H64.1776ZM70.179 224.182C69.3911 224.182 68.6998 223.994 68.1051 223.619C67.5142 223.244 67.0521 222.72 66.7188 222.045C66.3892 221.371 66.2244 220.583 66.2244 219.682C66.2244 218.773 66.3892 217.979 66.7188 217.301C67.0521 216.623 67.5142 216.097 68.1051 215.722C68.6998 215.347 69.3911 215.159 70.179 215.159C70.9669 215.159 71.6563 215.347 72.2472 215.722C72.8419 216.097 73.304 216.623 73.6335 217.301C73.9669 217.979 74.1335 218.773 74.1335 219.682C74.1335 220.583 73.9669 221.371 73.6335 222.045C73.304 222.72 72.8419 223.244 72.2472 223.619C71.6563 223.994 70.9669 224.182 70.179 224.182ZM70.179 222.977C70.7775 222.977 71.2699 222.824 71.6562 222.517C72.0426 222.21 72.3286 221.807 72.5142 221.307C72.6998 220.807 72.7926 220.265 72.7926 219.682C72.7926 219.098 72.6998 218.555 72.5142 218.051C72.3286 217.547 72.0426 217.14 71.6562 216.83C71.2699 216.519 70.7775 216.364 70.179 216.364C69.5805 216.364 69.0881 216.519 68.7017 216.83C68.3153 217.14 68.0294 217.547 67.8438 218.051C67.6581 218.555 67.5653 219.098 67.5653 219.682C67.5653 220.265 67.6581 220.807 67.8438 221.307C68.0294 221.807 68.3153 222.21 68.7017 222.517C69.0881 222.824 69.5805 222.977 70.179 222.977ZM78.7486 224.205C78.1955 224.205 77.6937 224.1 77.2429 223.892C76.7921 223.68 76.4342 223.375 76.169 222.977C75.9039 222.576 75.7713 222.091 75.7713 221.523C75.7713 221.023 75.8698 220.617 76.0668 220.307C76.2637 219.992 76.527 219.746 76.8565 219.568C77.1861 219.39 77.5497 219.258 77.9474 219.17C78.349 219.08 78.7524 219.008 79.1577 218.955C79.688 218.886 80.1179 218.835 80.4474 218.801C80.7808 218.763 81.0232 218.701 81.1747 218.614C81.33 218.527 81.4077 218.375 81.4077 218.159V218.114C81.4077 217.553 81.2543 217.117 80.9474 216.807C80.6444 216.496 80.1842 216.341 79.5668 216.341C78.9266 216.341 78.4247 216.481 78.0611 216.761C77.6974 217.042 77.4418 217.341 77.294 217.659L76.0213 217.205C76.2486 216.674 76.5516 216.261 76.9304 215.966C77.313 215.667 77.7296 215.458 78.1804 215.341C78.6349 215.22 79.0819 215.159 79.5213 215.159C79.8016 215.159 80.1236 215.193 80.4872 215.261C80.8546 215.326 81.2088 215.46 81.5497 215.665C81.8944 215.869 82.1804 216.178 82.4077 216.591C82.6349 217.004 82.7486 217.557 82.7486 218.25V224H81.4077V222.818H81.3395C81.2486 223.008 81.0971 223.21 80.8849 223.426C80.6728 223.642 80.3906 223.826 80.0384 223.977C79.6861 224.129 79.2562 224.205 78.7486 224.205ZM78.9531 223C79.4834 223 79.9304 222.896 80.294 222.688C80.6615 222.479 80.938 222.21 81.1236 221.881C81.313 221.551 81.4077 221.205 81.4077 220.841V219.614C81.3509 219.682 81.2259 219.744 81.0327 219.801C80.8433 219.854 80.6236 219.902 80.3736 219.943C80.1274 219.981 79.8868 220.015 79.652 220.045C79.4209 220.072 79.2334 220.095 79.0895 220.114C78.741 220.159 78.4152 220.233 78.1122 220.335C77.813 220.434 77.5705 220.583 77.3849 220.784C77.2031 220.981 77.1122 221.25 77.1122 221.591C77.1122 222.057 77.2846 222.409 77.6293 222.648C77.9777 222.883 78.419 223 78.9531 223ZM88.4915 224.182C87.7642 224.182 87.1222 223.998 86.5653 223.631C86.0085 223.259 85.5729 222.737 85.2585 222.062C84.9441 221.384 84.7869 220.583 84.7869 219.659C84.7869 218.742 84.9441 217.947 85.2585 217.273C85.5729 216.598 86.0104 216.078 86.571 215.71C87.1316 215.343 87.7794 215.159 88.5142 215.159C89.0824 215.159 89.5313 215.254 89.8608 215.443C90.1941 215.629 90.4479 215.841 90.6222 216.08C90.8002 216.314 90.9384 216.508 91.0369 216.659H91.1506V212.364H92.4915V224H91.196V222.659H91.0369C90.9384 222.818 90.7983 223.019 90.6165 223.261C90.4347 223.5 90.1752 223.714 89.8381 223.903C89.5009 224.089 89.0521 224.182 88.4915 224.182ZM88.6733 222.977C89.2112 222.977 89.6657 222.837 90.0369 222.557C90.4081 222.273 90.6903 221.881 90.8835 221.381C91.0767 220.877 91.1733 220.295 91.1733 219.636C91.1733 218.985 91.0786 218.415 90.8892 217.926C90.6998 217.434 90.4195 217.051 90.0483 216.778C89.6771 216.502 89.2188 216.364 88.6733 216.364C88.1051 216.364 87.6316 216.509 87.2528 216.801C86.8778 217.089 86.5956 217.481 86.4062 217.977C86.2206 218.47 86.1278 219.023 86.1278 219.636C86.1278 220.258 86.2225 220.822 86.4119 221.33C86.6051 221.833 86.8892 222.235 87.2642 222.534C87.643 222.83 88.1127 222.977 88.6733 222.977ZM98.7926 224.182C97.9517 224.182 97.2263 223.996 96.6165 223.625C96.0104 223.25 95.5426 222.727 95.2131 222.057C94.8873 221.383 94.7244 220.598 94.7244 219.705C94.7244 218.811 94.8873 218.023 95.2131 217.341C95.5426 216.655 96.0009 216.121 96.5881 215.739C97.179 215.352 97.8684 215.159 98.6562 215.159C99.1108 215.159 99.5597 215.235 100.003 215.386C100.446 215.538 100.849 215.784 101.213 216.125C101.577 216.462 101.866 216.909 102.082 217.466C102.298 218.023 102.406 218.708 102.406 219.523V220.091H95.679V218.932H101.043C101.043 218.439 100.944 218 100.747 217.614C100.554 217.227 100.277 216.922 99.9176 216.699C99.5616 216.475 99.1411 216.364 98.6562 216.364C98.1222 216.364 97.66 216.496 97.2699 216.761C96.8835 217.023 96.5862 217.364 96.3778 217.784C96.1695 218.205 96.0653 218.655 96.0653 219.136V219.909C96.0653 220.568 96.179 221.127 96.4062 221.585C96.6373 222.04 96.9574 222.386 97.3665 222.625C97.7756 222.86 98.2509 222.977 98.7926 222.977C99.1449 222.977 99.4631 222.928 99.7472 222.83C100.035 222.727 100.283 222.576 100.491 222.375C100.7 222.17 100.861 221.917 100.974 221.614L102.27 221.977C102.134 222.417 101.904 222.803 101.582 223.136C101.26 223.466 100.863 223.723 100.389 223.909C99.9157 224.091 99.3835 224.182 98.7926 224.182ZM107.741 224.182C107.014 224.182 106.372 223.998 105.815 223.631C105.259 223.259 104.823 222.737 104.509 222.062C104.194 221.384 104.037 220.583 104.037 219.659C104.037 218.742 104.194 217.947 104.509 217.273C104.823 216.598 105.26 216.078 105.821 215.71C106.382 215.343 107.029 215.159 107.764 215.159C108.332 215.159 108.781 215.254 109.111 215.443C109.444 215.629 109.698 215.841 109.872 216.08C110.05 216.314 110.188 216.508 110.287 216.659H110.401V212.364H111.741V224H110.446V222.659H110.287C110.188 222.818 110.048 223.019 109.866 223.261C109.685 223.5 109.425 223.714 109.088 223.903C108.751 224.089 108.302 224.182 107.741 224.182ZM107.923 222.977C108.461 222.977 108.916 222.837 109.287 222.557C109.658 222.273 109.94 221.881 110.134 221.381C110.327 220.877 110.423 220.295 110.423 219.636C110.423 218.985 110.329 218.415 110.139 217.926C109.95 217.434 109.67 217.051 109.298 216.778C108.927 216.502 108.469 216.364 107.923 216.364C107.355 216.364 106.882 216.509 106.503 216.801C106.128 217.089 105.846 217.481 105.656 217.977C105.471 218.47 105.378 219.023 105.378 219.636C105.378 220.258 105.473 220.822 105.662 221.33C105.855 221.833 106.139 222.235 106.514 222.534C106.893 222.83 107.363 222.977 107.923 222.977ZM122.77 215.273V216.409H118.065V215.273H122.77ZM119.474 224V214.068C119.474 213.568 119.592 213.152 119.827 212.818C120.062 212.485 120.366 212.235 120.741 212.068C121.116 211.902 121.512 211.818 121.929 211.818C122.259 211.818 122.527 211.845 122.736 211.898C122.944 211.951 123.099 212 123.202 212.045L122.815 213.205C122.747 213.182 122.652 213.153 122.531 213.119C122.414 213.085 122.259 213.068 122.065 213.068C121.622 213.068 121.302 213.18 121.105 213.403C120.912 213.627 120.815 213.955 120.815 214.386V224H119.474ZM124.649 224V215.273H125.99V224H124.649ZM125.331 213.818C125.07 213.818 124.844 213.729 124.655 213.551C124.469 213.373 124.376 213.159 124.376 212.909C124.376 212.659 124.469 212.445 124.655 212.267C124.844 212.089 125.07 212 125.331 212C125.592 212 125.816 212.089 126.001 212.267C126.191 212.445 126.286 212.659 126.286 212.909C126.286 213.159 126.191 213.373 126.001 213.551C125.816 213.729 125.592 213.818 125.331 213.818ZM129.787 212.364V224H128.446V212.364H129.787ZM135.902 224.182C135.061 224.182 134.336 223.996 133.726 223.625C133.12 223.25 132.652 222.727 132.322 222.057C131.997 221.383 131.834 220.598 131.834 219.705C131.834 218.811 131.997 218.023 132.322 217.341C132.652 216.655 133.11 216.121 133.697 215.739C134.288 215.352 134.978 215.159 135.766 215.159C136.22 215.159 136.669 215.235 137.112 215.386C137.555 215.538 137.959 215.784 138.322 216.125C138.686 216.462 138.976 216.909 139.192 217.466C139.408 218.023 139.516 218.708 139.516 219.523V220.091H132.788V218.932H138.152C138.152 218.439 138.054 218 137.857 217.614C137.663 217.227 137.387 216.922 137.027 216.699C136.671 216.475 136.25 216.364 135.766 216.364C135.232 216.364 134.769 216.496 134.379 216.761C133.993 217.023 133.696 217.364 133.487 217.784C133.279 218.205 133.175 218.655 133.175 219.136V219.909C133.175 220.568 133.288 221.127 133.516 221.585C133.747 222.04 134.067 222.386 134.476 222.625C134.885 222.86 135.36 222.977 135.902 222.977C136.254 222.977 136.572 222.928 136.857 222.83C137.144 222.727 137.393 222.576 137.601 222.375C137.809 222.17 137.97 221.917 138.084 221.614L139.379 221.977C139.243 222.417 139.014 222.803 138.692 223.136C138.37 223.466 137.972 223.723 137.499 223.909C137.025 224.091 136.493 224.182 135.902 224.182ZM146.033 224V222.977L149.874 218.773C150.324 218.28 150.696 217.852 150.987 217.489C151.279 217.121 151.495 216.777 151.635 216.455C151.779 216.129 151.851 215.788 151.851 215.432C151.851 215.023 151.752 214.669 151.555 214.369C151.362 214.07 151.097 213.839 150.76 213.676C150.423 213.513 150.044 213.432 149.624 213.432C149.177 213.432 148.786 213.525 148.453 213.71C148.124 213.892 147.868 214.148 147.686 214.477C147.508 214.807 147.419 215.193 147.419 215.636H146.078C146.078 214.955 146.235 214.356 146.55 213.841C146.864 213.326 147.292 212.924 147.834 212.636C148.379 212.348 148.991 212.205 149.669 212.205C150.351 212.205 150.955 212.348 151.482 212.636C152.008 212.924 152.421 213.312 152.72 213.801C153.019 214.29 153.169 214.833 153.169 215.432C153.169 215.86 153.091 216.278 152.936 216.688C152.785 217.093 152.519 217.545 152.141 218.045C151.766 218.542 151.245 219.148 150.578 219.864L147.964 222.659V222.75H153.374V224H146.033ZM156.72 224.091C156.44 224.091 156.199 223.991 155.999 223.79C155.798 223.589 155.697 223.348 155.697 223.068C155.697 222.788 155.798 222.547 155.999 222.347C156.199 222.146 156.44 222.045 156.72 222.045C157 222.045 157.241 222.146 157.442 222.347C157.643 222.547 157.743 222.788 157.743 223.068C157.743 223.254 157.696 223.424 157.601 223.58C157.51 223.735 157.387 223.86 157.232 223.955C157.08 224.045 156.91 224.091 156.72 224.091ZM163.808 224.182C162.967 224.182 162.242 223.996 161.632 223.625C161.026 223.25 160.558 222.727 160.229 222.057C159.903 221.383 159.74 220.598 159.74 219.705C159.74 218.811 159.903 218.023 160.229 217.341C160.558 216.655 161.017 216.121 161.604 215.739C162.195 215.352 162.884 215.159 163.672 215.159C164.126 215.159 164.575 215.235 165.018 215.386C165.462 215.538 165.865 215.784 166.229 216.125C166.592 216.462 166.882 216.909 167.098 217.466C167.314 218.023 167.422 218.708 167.422 219.523V220.091H160.695V218.932H166.058C166.058 218.439 165.96 218 165.763 217.614C165.57 217.227 165.293 216.922 164.933 216.699C164.577 216.475 164.157 216.364 163.672 216.364C163.138 216.364 162.676 216.496 162.286 216.761C161.899 217.023 161.602 217.364 161.393 217.784C161.185 218.205 161.081 218.655 161.081 219.136V219.909C161.081 220.568 161.195 221.127 161.422 221.585C161.653 222.04 161.973 222.386 162.382 222.625C162.791 222.86 163.267 222.977 163.808 222.977C164.161 222.977 164.479 222.928 164.763 222.83C165.051 222.727 165.299 222.576 165.507 222.375C165.715 222.17 165.876 221.917 165.99 221.614L167.286 221.977C167.149 222.417 166.92 222.803 166.598 223.136C166.276 223.466 165.878 223.723 165.405 223.909C164.931 224.091 164.399 224.182 163.808 224.182ZM170.227 215.273L172.318 218.841L174.409 215.273H175.955L173.136 219.636L175.955 224H174.409L172.318 220.614L170.227 224H168.682L171.455 219.636L168.682 215.273H170.227ZM181.663 215.273V216.409H177.141V215.273H181.663ZM178.459 213.182H179.8V221.5C179.8 221.879 179.855 222.163 179.964 222.352C180.078 222.538 180.222 222.663 180.396 222.727C180.574 222.788 180.762 222.818 180.959 222.818C181.107 222.818 181.228 222.811 181.322 222.795C181.417 222.777 181.493 222.761 181.55 222.75L181.822 223.955C181.732 223.989 181.605 224.023 181.442 224.057C181.279 224.095 181.072 224.114 180.822 224.114C180.444 224.114 180.072 224.032 179.709 223.869C179.349 223.706 179.05 223.458 178.811 223.125C178.576 222.792 178.459 222.371 178.459 221.864V213.182ZM187.246 224.182C186.405 224.182 185.679 223.996 185.07 223.625C184.464 223.25 183.996 222.727 183.666 222.057C183.34 221.383 183.178 220.598 183.178 219.705C183.178 218.811 183.34 218.023 183.666 217.341C183.996 216.655 184.454 216.121 185.041 215.739C185.632 215.352 186.321 215.159 187.109 215.159C187.564 215.159 188.013 215.235 188.456 215.386C188.899 215.538 189.303 215.784 189.666 216.125C190.03 216.462 190.32 216.909 190.536 217.466C190.751 218.023 190.859 218.708 190.859 219.523V220.091H184.132V218.932H189.496C189.496 218.439 189.397 218 189.2 217.614C189.007 217.227 188.731 216.922 188.371 216.699C188.015 216.475 187.594 216.364 187.109 216.364C186.575 216.364 186.113 216.496 185.723 216.761C185.337 217.023 185.039 217.364 184.831 217.784C184.623 218.205 184.518 218.655 184.518 219.136V219.909C184.518 220.568 184.632 221.127 184.859 221.585C185.09 222.04 185.411 222.386 185.82 222.625C186.229 222.86 186.704 222.977 187.246 222.977C187.598 222.977 187.916 222.928 188.2 222.83C188.488 222.727 188.736 222.576 188.945 222.375C189.153 222.17 189.314 221.917 189.428 221.614L190.723 221.977C190.587 222.417 190.357 222.803 190.036 223.136C189.714 223.466 189.316 223.723 188.842 223.909C188.369 224.091 187.837 224.182 187.246 224.182ZM194.24 218.75V224H192.899V215.273H194.195V216.636H194.308C194.513 216.193 194.823 215.837 195.24 215.568C195.657 215.295 196.195 215.159 196.854 215.159C197.445 215.159 197.962 215.28 198.405 215.523C198.848 215.761 199.193 216.125 199.439 216.614C199.685 217.098 199.808 217.712 199.808 218.455V224H198.467V218.545C198.467 217.86 198.289 217.326 197.933 216.943C197.577 216.557 197.089 216.364 196.467 216.364C196.039 216.364 195.657 216.456 195.32 216.642C194.986 216.828 194.723 217.098 194.53 217.455C194.337 217.811 194.24 218.242 194.24 218.75ZM208.44 217.227L207.236 217.568C207.16 217.367 207.048 217.172 206.901 216.983C206.757 216.79 206.56 216.631 206.31 216.506C206.06 216.381 205.74 216.318 205.349 216.318C204.815 216.318 204.37 216.441 204.014 216.688C203.662 216.93 203.486 217.239 203.486 217.614C203.486 217.947 203.607 218.21 203.849 218.403C204.092 218.597 204.471 218.758 204.986 218.886L206.281 219.205C207.062 219.394 207.643 219.684 208.026 220.074C208.408 220.46 208.599 220.958 208.599 221.568C208.599 222.068 208.455 222.515 208.168 222.909C207.884 223.303 207.486 223.614 206.974 223.841C206.463 224.068 205.868 224.182 205.19 224.182C204.3 224.182 203.563 223.989 202.98 223.602C202.397 223.216 202.027 222.652 201.872 221.909L203.145 221.591C203.266 222.061 203.495 222.413 203.832 222.648C204.173 222.883 204.618 223 205.168 223C205.793 223 206.289 222.867 206.656 222.602C207.027 222.333 207.213 222.011 207.213 221.636C207.213 221.333 207.107 221.08 206.895 220.875C206.683 220.667 206.357 220.511 205.918 220.409L204.463 220.068C203.664 219.879 203.077 219.585 202.702 219.188C202.33 218.786 202.145 218.284 202.145 217.682C202.145 217.189 202.283 216.754 202.56 216.375C202.84 215.996 203.221 215.699 203.702 215.483C204.187 215.267 204.736 215.159 205.349 215.159C206.213 215.159 206.891 215.348 207.384 215.727C207.88 216.106 208.232 216.606 208.44 217.227ZM210.618 224V215.273H211.959V224H210.618ZM211.3 213.818C211.038 213.818 210.813 213.729 210.624 213.551C210.438 213.373 210.345 213.159 210.345 212.909C210.345 212.659 210.438 212.445 210.624 212.267C210.813 212.089 211.038 212 211.3 212C211.561 212 211.785 212.089 211.97 212.267C212.16 212.445 212.254 212.659 212.254 212.909C212.254 213.159 212.16 213.373 211.97 213.551C211.785 213.729 211.561 213.818 211.3 213.818ZM217.96 224.182C217.172 224.182 216.481 223.994 215.886 223.619C215.295 223.244 214.833 222.72 214.5 222.045C214.17 221.371 214.006 220.583 214.006 219.682C214.006 218.773 214.17 217.979 214.5 217.301C214.833 216.623 215.295 216.097 215.886 215.722C216.481 215.347 217.172 215.159 217.96 215.159C218.748 215.159 219.438 215.347 220.028 215.722C220.623 216.097 221.085 216.623 221.415 217.301C221.748 217.979 221.915 218.773 221.915 219.682C221.915 220.583 221.748 221.371 221.415 222.045C221.085 222.72 220.623 223.244 220.028 223.619C219.438 223.994 218.748 224.182 217.96 224.182ZM217.96 222.977C218.559 222.977 219.051 222.824 219.438 222.517C219.824 222.21 220.11 221.807 220.295 221.307C220.481 220.807 220.574 220.265 220.574 219.682C220.574 219.098 220.481 218.555 220.295 218.051C220.11 217.547 219.824 217.14 219.438 216.83C219.051 216.519 218.559 216.364 217.96 216.364C217.362 216.364 216.869 216.519 216.483 216.83C216.097 217.14 215.811 217.547 215.625 218.051C215.439 218.555 215.347 219.098 215.347 219.682C215.347 220.265 215.439 220.807 215.625 221.307C215.811 221.807 216.097 222.21 216.483 222.517C216.869 222.824 217.362 222.977 217.96 222.977ZM225.303 218.75V224H223.962V215.273H225.257V216.636H225.371C225.575 216.193 225.886 215.837 226.303 215.568C226.719 215.295 227.257 215.159 227.916 215.159C228.507 215.159 229.024 215.28 229.467 215.523C229.911 215.761 230.255 216.125 230.501 216.614C230.748 217.098 230.871 217.712 230.871 218.455V224H229.53V218.545C229.53 217.86 229.352 217.326 228.996 216.943C228.64 216.557 228.151 216.364 227.53 216.364C227.102 216.364 226.719 216.456 226.382 216.642C226.049 216.828 225.786 217.098 225.592 217.455C225.399 217.811 225.303 218.242 225.303 218.75Z" fill="#0F71BB"/>
<path d="M40 227.182H51.8636V228.273H40V227.182ZM51.8594 227.182H83.9759V228.273H51.8594V227.182ZM83.9688 227.182H103.224V228.273H83.9688V227.182ZM103.219 227.182H123.429V228.273H103.219V227.182ZM123.422 227.182H140.334V228.273H123.422V227.182ZM140.328 227.182H158.925V228.273H140.328V227.182ZM158.922 227.182H168.24V228.273H158.922V227.182ZM168 227.182H182.459V228.273H168V227.182ZM182.359 227.182H191.678V228.273H182.359V227.182ZM191.672 227.182H201.036V228.273H191.672V227.182ZM201.031 227.182H209.395V228.273H201.031V227.182ZM209.391 227.182H232.098V228.273H209.391V227.182Z" fill="#0F71BB"/>
<path d="M261 225.875C258.911 225.875 256.908 225.045 255.432 223.568C253.955 222.092 253.125 220.089 253.125 218C253.125 215.911 253.955 213.908 255.432 212.432C256.908 210.955 258.911 210.125 261 210.125C263.089 210.125 265.092 210.955 266.568 212.432C268.045 213.908 268.875 215.911 268.875 218C268.875 220.089 268.045 222.092 266.568 223.568C265.092 225.045 263.089 225.875 261 225.875ZM261 227C263.387 227 265.676 226.052 267.364 224.364C269.052 222.676 270 220.387 270 218C270 215.613 269.052 213.324 267.364 211.636C265.676 209.948 263.387 209 261 209C258.613 209 256.324 209.948 254.636 211.636C252.948 213.324 252 215.613 252 218C252 220.387 252.948 222.676 254.636 224.364C256.324 226.052 258.613 227 261 227Z" fill="#344054"/>
<path d="M257.227 214.227C257.279 214.174 257.341 214.133 257.409 214.104C257.478 214.076 257.551 214.061 257.625 214.061C257.699 214.061 257.772 214.076 257.841 214.104C257.909 214.133 257.971 214.174 258.023 214.227L261 217.205L263.977 214.227C264.029 214.174 264.091 214.133 264.159 214.105C264.228 214.076 264.301 214.062 264.375 214.062C264.449 214.062 264.522 214.076 264.591 214.105C264.659 214.133 264.721 214.174 264.773 214.227C264.826 214.279 264.867 214.341 264.895 214.409C264.924 214.478 264.938 214.551 264.938 214.625C264.938 214.699 264.924 214.772 264.895 214.841C264.867 214.909 264.826 214.971 264.773 215.023L261.795 218L264.773 220.977C264.826 221.029 264.867 221.091 264.895 221.159C264.924 221.228 264.938 221.301 264.938 221.375C264.938 221.449 264.924 221.522 264.895 221.59C264.867 221.659 264.826 221.721 264.773 221.773C264.721 221.826 264.659 221.867 264.591 221.895C264.522 221.924 264.449 221.938 264.375 221.938C264.301 221.938 264.228 221.924 264.159 221.895C264.091 221.867 264.029 221.826 263.977 221.773L261 218.795L258.023 221.773C257.971 221.826 257.909 221.867 257.841 221.895C257.772 221.924 257.699 221.938 257.625 221.938C257.551 221.938 257.478 221.924 257.409 221.895C257.341 221.867 257.279 221.826 257.227 221.773C257.174 221.721 257.133 221.659 257.105 221.59C257.076 221.522 257.062 221.449 257.062 221.375C257.062 221.301 257.076 221.228 257.105 221.159C257.133 221.091 257.174 221.029 257.227 220.977L260.205 218L257.227 215.023C257.174 214.971 257.133 214.909 257.104 214.841C257.076 214.772 257.061 214.699 257.061 214.625C257.061 214.551 257.076 214.478 257.104 214.409C257.133 214.341 257.174 214.279 257.227 214.227Z" fill="#344054"/>
<path d="M20.7701 251.968C20.843 252.041 20.9008 252.128 20.9402 252.223C20.9797 252.318 21 252.42 21 252.522C21 252.625 20.9797 252.727 20.9402 252.822C20.9008 252.917 20.843 253.004 20.7701 253.077L9.81504 264.032C9.74235 264.104 9.656 264.162 9.56094 264.202C9.46587 264.241 9.36395 264.261 9.26103 264.261C9.1581 264.261 9.05619 264.241 8.96112 264.202C8.86605 264.162 8.7797 264.104 8.70701 264.032L3.22948 258.554C3.08255 258.407 3 258.208 3 258C3 257.792 3.08255 257.593 3.22948 257.446C3.37641 257.299 3.5757 257.217 3.78349 257.217C3.99129 257.217 4.19057 257.299 4.33751 257.446L9.26103 262.371L19.6621 251.968C19.7348 251.896 19.8211 251.838 19.9162 251.798C20.0113 251.759 20.1132 251.739 20.2161 251.739C20.319 251.739 20.4209 251.759 20.516 251.798C20.6111 251.838 20.6974 251.896 20.7701 251.968Z" fill="#0A8217"/>
<path d="M49.0455 252.364H50.4545V260.068C50.4545 260.864 50.267 261.574 49.892 262.199C49.5208 262.82 48.9962 263.311 48.3182 263.67C47.6402 264.027 46.8447 264.205 45.9318 264.205C45.0189 264.205 44.2235 264.027 43.5455 263.67C42.8674 263.311 42.3409 262.82 41.9659 262.199C41.5947 261.574 41.4091 260.864 41.4091 260.068V252.364H42.8182V259.955C42.8182 260.523 42.9432 261.028 43.1932 261.472C43.4432 261.911 43.7992 262.258 44.2614 262.511C44.7273 262.761 45.2841 262.886 45.9318 262.886C46.5795 262.886 47.1364 262.761 47.6023 262.511C48.0682 262.258 48.4242 261.911 48.6705 261.472C48.9205 261.028 49.0455 260.523 49.0455 259.955V252.364ZM53.0866 267.273V255.273H54.3821V256.659H54.5412C54.6397 256.508 54.776 256.314 54.9503 256.08C55.1283 255.841 55.3821 255.629 55.7116 255.443C56.045 255.254 56.4957 255.159 57.0639 255.159C57.7988 255.159 58.4465 255.343 59.0071 255.71C59.5677 256.078 60.0052 256.598 60.3196 257.273C60.634 257.947 60.7912 258.742 60.7912 259.659C60.7912 260.583 60.634 261.384 60.3196 262.062C60.0052 262.737 59.5696 263.259 59.0128 263.631C58.456 263.998 57.8139 264.182 57.0866 264.182C56.526 264.182 56.0772 264.089 55.7401 263.903C55.4029 263.714 55.1435 263.5 54.9616 263.261C54.7798 263.019 54.6397 262.818 54.5412 262.659H54.4276V267.273H53.0866ZM54.4048 259.636C54.4048 260.295 54.5014 260.877 54.6946 261.381C54.8878 261.881 55.17 262.273 55.5412 262.557C55.9124 262.837 56.367 262.977 56.9048 262.977C57.4654 262.977 57.9332 262.83 58.3082 262.534C58.687 262.235 58.9711 261.833 59.1605 261.33C59.3537 260.822 59.4503 260.258 59.4503 259.636C59.4503 259.023 59.3556 258.47 59.1662 257.977C58.9806 257.481 58.6984 257.089 58.3196 256.801C57.9446 256.509 57.473 256.364 56.9048 256.364C56.3594 256.364 55.901 256.502 55.5298 256.778C55.1586 257.051 54.8783 257.434 54.6889 257.926C54.4995 258.415 54.4048 258.985 54.4048 259.636ZM64.1776 252.364V264H62.8366V252.364H64.1776ZM70.179 264.182C69.3911 264.182 68.6998 263.994 68.1051 263.619C67.5142 263.244 67.0521 262.72 66.7188 262.045C66.3892 261.371 66.2244 260.583 66.2244 259.682C66.2244 258.773 66.3892 257.979 66.7188 257.301C67.0521 256.623 67.5142 256.097 68.1051 255.722C68.6998 255.347 69.3911 255.159 70.179 255.159C70.9669 255.159 71.6563 255.347 72.2472 255.722C72.8419 256.097 73.304 256.623 73.6335 257.301C73.9669 257.979 74.1335 258.773 74.1335 259.682C74.1335 260.583 73.9669 261.371 73.6335 262.045C73.304 262.72 72.8419 263.244 72.2472 263.619C71.6563 263.994 70.9669 264.182 70.179 264.182ZM70.179 262.977C70.7775 262.977 71.2699 262.824 71.6562 262.517C72.0426 262.21 72.3286 261.807 72.5142 261.307C72.6998 260.807 72.7926 260.265 72.7926 259.682C72.7926 259.098 72.6998 258.555 72.5142 258.051C72.3286 257.547 72.0426 257.14 71.6562 256.83C71.2699 256.519 70.7775 256.364 70.179 256.364C69.5805 256.364 69.0881 256.519 68.7017 256.83C68.3153 257.14 68.0294 257.547 67.8438 258.051C67.6581 258.555 67.5653 259.098 67.5653 259.682C67.5653 260.265 67.6581 260.807 67.8438 261.307C68.0294 261.807 68.3153 262.21 68.7017 262.517C69.0881 262.824 69.5805 262.977 70.179 262.977ZM78.7486 264.205C78.1955 264.205 77.6937 264.1 77.2429 263.892C76.7921 263.68 76.4342 263.375 76.169 262.977C75.9039 262.576 75.7713 262.091 75.7713 261.523C75.7713 261.023 75.8698 260.617 76.0668 260.307C76.2637 259.992 76.527 259.746 76.8565 259.568C77.1861 259.39 77.5497 259.258 77.9474 259.17C78.349 259.08 78.7524 259.008 79.1577 258.955C79.688 258.886 80.1179 258.835 80.4474 258.801C80.7808 258.763 81.0232 258.701 81.1747 258.614C81.33 258.527 81.4077 258.375 81.4077 258.159V258.114C81.4077 257.553 81.2543 257.117 80.9474 256.807C80.6444 256.496 80.1842 256.341 79.5668 256.341C78.9266 256.341 78.4247 256.481 78.0611 256.761C77.6974 257.042 77.4418 257.341 77.294 257.659L76.0213 257.205C76.2486 256.674 76.5516 256.261 76.9304 255.966C77.313 255.667 77.7296 255.458 78.1804 255.341C78.6349 255.22 79.0819 255.159 79.5213 255.159C79.8016 255.159 80.1236 255.193 80.4872 255.261C80.8546 255.326 81.2088 255.46 81.5497 255.665C81.8944 255.869 82.1804 256.178 82.4077 256.591C82.6349 257.004 82.7486 257.557 82.7486 258.25V264H81.4077V262.818H81.3395C81.2486 263.008 81.0971 263.21 80.8849 263.426C80.6728 263.642 80.3906 263.826 80.0384 263.977C79.6861 264.129 79.2562 264.205 78.7486 264.205ZM78.9531 263C79.4834 263 79.9304 262.896 80.294 262.688C80.6615 262.479 80.938 262.21 81.1236 261.881C81.313 261.551 81.4077 261.205 81.4077 260.841V259.614C81.3509 259.682 81.2259 259.744 81.0327 259.801C80.8433 259.854 80.6236 259.902 80.3736 259.943C80.1274 259.981 79.8868 260.015 79.652 260.045C79.4209 260.072 79.2334 260.095 79.0895 260.114C78.741 260.159 78.4152 260.233 78.1122 260.335C77.813 260.434 77.5705 260.583 77.3849 260.784C77.2031 260.981 77.1122 261.25 77.1122 261.591C77.1122 262.057 77.2846 262.409 77.6293 262.648C77.9777 262.883 78.419 263 78.9531 263ZM88.4915 264.182C87.7642 264.182 87.1222 263.998 86.5653 263.631C86.0085 263.259 85.5729 262.737 85.2585 262.062C84.9441 261.384 84.7869 260.583 84.7869 259.659C84.7869 258.742 84.9441 257.947 85.2585 257.273C85.5729 256.598 86.0104 256.078 86.571 255.71C87.1316 255.343 87.7794 255.159 88.5142 255.159C89.0824 255.159 89.5313 255.254 89.8608 255.443C90.1941 255.629 90.4479 255.841 90.6222 256.08C90.8002 256.314 90.9384 256.508 91.0369 256.659H91.1506V252.364H92.4915V264H91.196V262.659H91.0369C90.9384 262.818 90.7983 263.019 90.6165 263.261C90.4347 263.5 90.1752 263.714 89.8381 263.903C89.5009 264.089 89.0521 264.182 88.4915 264.182ZM88.6733 262.977C89.2112 262.977 89.6657 262.837 90.0369 262.557C90.4081 262.273 90.6903 261.881 90.8835 261.381C91.0767 260.877 91.1733 260.295 91.1733 259.636C91.1733 258.985 91.0786 258.415 90.8892 257.926C90.6998 257.434 90.4195 257.051 90.0483 256.778C89.6771 256.502 89.2188 256.364 88.6733 256.364C88.1051 256.364 87.6316 256.509 87.2528 256.801C86.8778 257.089 86.5956 257.481 86.4062 257.977C86.2206 258.47 86.1278 259.023 86.1278 259.636C86.1278 260.258 86.2225 260.822 86.4119 261.33C86.6051 261.833 86.8892 262.235 87.2642 262.534C87.643 262.83 88.1127 262.977 88.6733 262.977ZM98.7926 264.182C97.9517 264.182 97.2263 263.996 96.6165 263.625C96.0104 263.25 95.5426 262.727 95.2131 262.057C94.8873 261.383 94.7244 260.598 94.7244 259.705C94.7244 258.811 94.8873 258.023 95.2131 257.341C95.5426 256.655 96.0009 256.121 96.5881 255.739C97.179 255.352 97.8684 255.159 98.6562 255.159C99.1108 255.159 99.5597 255.235 100.003 255.386C100.446 255.538 100.849 255.784 101.213 256.125C101.577 256.462 101.866 256.909 102.082 257.466C102.298 258.023 102.406 258.708 102.406 259.523V260.091H95.679V258.932H101.043C101.043 258.439 100.944 258 100.747 257.614C100.554 257.227 100.277 256.922 99.9176 256.699C99.5616 256.475 99.1411 256.364 98.6562 256.364C98.1222 256.364 97.66 256.496 97.2699 256.761C96.8835 257.023 96.5862 257.364 96.3778 257.784C96.1695 258.205 96.0653 258.655 96.0653 259.136V259.909C96.0653 260.568 96.179 261.127 96.4062 261.585C96.6373 262.04 96.9574 262.386 97.3665 262.625C97.7756 262.86 98.2509 262.977 98.7926 262.977C99.1449 262.977 99.4631 262.928 99.7472 262.83C100.035 262.727 100.283 262.576 100.491 262.375C100.7 262.17 100.861 261.917 100.974 261.614L102.27 261.977C102.134 262.417 101.904 262.803 101.582 263.136C101.26 263.466 100.863 263.723 100.389 263.909C99.9157 264.091 99.3835 264.182 98.7926 264.182ZM107.741 264.182C107.014 264.182 106.372 263.998 105.815 263.631C105.259 263.259 104.823 262.737 104.509 262.062C104.194 261.384 104.037 260.583 104.037 259.659C104.037 258.742 104.194 257.947 104.509 257.273C104.823 256.598 105.26 256.078 105.821 255.71C106.382 255.343 107.029 255.159 107.764 255.159C108.332 255.159 108.781 255.254 109.111 255.443C109.444 255.629 109.698 255.841 109.872 256.08C110.05 256.314 110.188 256.508 110.287 256.659H110.401V252.364H111.741V264H110.446V262.659H110.287C110.188 262.818 110.048 263.019 109.866 263.261C109.685 263.5 109.425 263.714 109.088 263.903C108.751 264.089 108.302 264.182 107.741 264.182ZM107.923 262.977C108.461 262.977 108.916 262.837 109.287 262.557C109.658 262.273 109.94 261.881 110.134 261.381C110.327 260.877 110.423 260.295 110.423 259.636C110.423 258.985 110.329 258.415 110.139 257.926C109.95 257.434 109.67 257.051 109.298 256.778C108.927 256.502 108.469 256.364 107.923 256.364C107.355 256.364 106.882 256.509 106.503 256.801C106.128 257.089 105.846 257.481 105.656 257.977C105.471 258.47 105.378 259.023 105.378 259.636C105.378 260.258 105.473 260.822 105.662 261.33C105.855 261.833 106.139 262.235 106.514 262.534C106.893 262.83 107.363 262.977 107.923 262.977ZM122.77 255.273V256.409H118.065V255.273H122.77ZM119.474 264V254.068C119.474 253.568 119.592 253.152 119.827 252.818C120.062 252.485 120.366 252.235 120.741 252.068C121.116 251.902 121.512 251.818 121.929 251.818C122.259 251.818 122.527 251.845 122.736 251.898C122.944 251.951 123.099 252 123.202 252.045L122.815 253.205C122.747 253.182 122.652 253.153 122.531 253.119C122.414 253.085 122.259 253.068 122.065 253.068C121.622 253.068 121.302 253.18 121.105 253.403C120.912 253.627 120.815 253.955 120.815 254.386V264H119.474ZM124.649 264V255.273H125.99V264H124.649ZM125.331 253.818C125.07 253.818 124.844 253.729 124.655 253.551C124.469 253.373 124.376 253.159 124.376 252.909C124.376 252.659 124.469 252.445 124.655 252.267C124.844 252.089 125.07 252 125.331 252C125.592 252 125.816 252.089 126.001 252.267C126.191 252.445 126.286 252.659 126.286 252.909C126.286 253.159 126.191 253.373 126.001 253.551C125.816 253.729 125.592 253.818 125.331 253.818ZM129.787 252.364V264H128.446V252.364H129.787ZM135.902 264.182C135.061 264.182 134.336 263.996 133.726 263.625C133.12 263.25 132.652 262.727 132.322 262.057C131.997 261.383 131.834 260.598 131.834 259.705C131.834 258.811 131.997 258.023 132.322 257.341C132.652 256.655 133.11 256.121 133.697 255.739C134.288 255.352 134.978 255.159 135.766 255.159C136.22 255.159 136.669 255.235 137.112 255.386C137.555 255.538 137.959 255.784 138.322 256.125C138.686 256.462 138.976 256.909 139.192 257.466C139.408 258.023 139.516 258.708 139.516 259.523V260.091H132.788V258.932H138.152C138.152 258.439 138.054 258 137.857 257.614C137.663 257.227 137.387 256.922 137.027 256.699C136.671 256.475 136.25 256.364 135.766 256.364C135.232 256.364 134.769 256.496 134.379 256.761C133.993 257.023 133.696 257.364 133.487 257.784C133.279 258.205 133.175 258.655 133.175 259.136V259.909C133.175 260.568 133.288 261.127 133.516 261.585C133.747 262.04 134.067 262.386 134.476 262.625C134.885 262.86 135.36 262.977 135.902 262.977C136.254 262.977 136.572 262.928 136.857 262.83C137.144 262.727 137.393 262.576 137.601 262.375C137.809 262.17 137.97 261.917 138.084 261.614L139.379 261.977C139.243 262.417 139.014 262.803 138.692 263.136C138.37 263.466 137.972 263.723 137.499 263.909C137.025 264.091 136.493 264.182 135.902 264.182ZM149.964 264.159C149.214 264.159 148.546 264.03 147.959 263.773C147.375 263.515 146.911 263.157 146.567 262.699C146.226 262.237 146.04 261.701 146.01 261.091H147.442C147.472 261.466 147.601 261.79 147.828 262.062C148.055 262.331 148.353 262.54 148.72 262.688C149.088 262.835 149.495 262.909 149.942 262.909C150.442 262.909 150.885 262.822 151.271 262.648C151.658 262.473 151.961 262.231 152.18 261.92C152.4 261.61 152.51 261.25 152.51 260.841C152.51 260.413 152.404 260.036 152.192 259.71C151.98 259.381 151.669 259.123 151.26 258.938C150.851 258.752 150.351 258.659 149.76 258.659H148.828V257.409H149.76C150.222 257.409 150.627 257.326 150.976 257.159C151.328 256.992 151.603 256.758 151.8 256.455C152 256.152 152.101 255.795 152.101 255.386C152.101 254.992 152.014 254.65 151.839 254.358C151.665 254.066 151.419 253.839 151.101 253.676C150.786 253.513 150.415 253.432 149.987 253.432C149.586 253.432 149.207 253.506 148.851 253.653C148.499 253.797 148.211 254.008 147.987 254.284C147.764 254.557 147.643 254.886 147.624 255.273H146.26C146.283 254.663 146.466 254.129 146.811 253.67C147.156 253.208 147.607 252.848 148.163 252.591C148.724 252.333 149.339 252.205 150.01 252.205C150.73 252.205 151.347 252.35 151.862 252.642C152.377 252.93 152.773 253.311 153.05 253.784C153.326 254.258 153.464 254.769 153.464 255.318C153.464 255.973 153.292 256.532 152.947 256.994C152.607 257.456 152.143 257.777 151.555 257.955V258.045C152.29 258.167 152.864 258.479 153.277 258.983C153.69 259.483 153.896 260.102 153.896 260.841C153.896 261.473 153.724 262.042 153.379 262.545C153.038 263.045 152.572 263.439 151.982 263.727C151.391 264.015 150.718 264.159 149.964 264.159ZM156.861 264.091C156.58 264.091 156.34 263.991 156.139 263.79C155.938 263.589 155.838 263.348 155.838 263.068C155.838 262.788 155.938 262.547 156.139 262.347C156.34 262.146 156.58 262.045 156.861 262.045C157.141 262.045 157.382 262.146 157.582 262.347C157.783 262.547 157.884 262.788 157.884 263.068C157.884 263.254 157.836 263.424 157.741 263.58C157.651 263.735 157.527 263.86 157.372 263.955C157.221 264.045 157.05 264.091 156.861 264.091ZM163.949 264.182C163.108 264.182 162.383 263.996 161.773 263.625C161.167 263.25 160.699 262.727 160.369 262.057C160.044 261.383 159.881 260.598 159.881 259.705C159.881 258.811 160.044 258.023 160.369 257.341C160.699 256.655 161.157 256.121 161.744 255.739C162.335 255.352 163.025 255.159 163.812 255.159C164.267 255.159 164.716 255.235 165.159 255.386C165.602 255.538 166.006 255.784 166.369 256.125C166.733 256.462 167.023 256.909 167.239 257.466C167.455 258.023 167.562 258.708 167.562 259.523V260.091H160.835V258.932H166.199C166.199 258.439 166.1 258 165.903 257.614C165.71 257.227 165.434 256.922 165.074 256.699C164.718 256.475 164.297 256.364 163.812 256.364C163.278 256.364 162.816 256.496 162.426 256.761C162.04 257.023 161.742 257.364 161.534 257.784C161.326 258.205 161.222 258.655 161.222 259.136V259.909C161.222 260.568 161.335 261.127 161.562 261.585C161.794 262.04 162.114 262.386 162.523 262.625C162.932 262.86 163.407 262.977 163.949 262.977C164.301 262.977 164.619 262.928 164.903 262.83C165.191 262.727 165.439 262.576 165.648 262.375C165.856 262.17 166.017 261.917 166.131 261.614L167.426 261.977C167.29 262.417 167.061 262.803 166.739 263.136C166.417 263.466 166.019 263.723 165.545 263.909C165.072 264.091 164.54 264.182 163.949 264.182ZM170.368 255.273L172.459 258.841L174.55 255.273H176.095L173.277 259.636L176.095 264H174.55L172.459 260.614L170.368 264H168.822L171.595 259.636L168.822 255.273H170.368ZM181.804 255.273V256.409H177.281V255.273H181.804ZM178.599 253.182H179.94V261.5C179.94 261.879 179.995 262.163 180.105 262.352C180.219 262.538 180.363 262.663 180.537 262.727C180.715 262.788 180.902 262.818 181.099 262.818C181.247 262.818 181.368 262.811 181.463 262.795C181.558 262.777 181.634 262.761 181.69 262.75L181.963 263.955C181.872 263.989 181.745 264.023 181.582 264.057C181.42 264.095 181.213 264.114 180.963 264.114C180.584 264.114 180.213 264.032 179.849 263.869C179.49 263.706 179.19 263.458 178.952 263.125C178.717 262.792 178.599 262.371 178.599 261.864V253.182ZM187.386 264.182C186.545 264.182 185.82 263.996 185.21 263.625C184.604 263.25 184.136 262.727 183.807 262.057C183.481 261.383 183.318 260.598 183.318 259.705C183.318 258.811 183.481 258.023 183.807 257.341C184.136 256.655 184.595 256.121 185.182 255.739C185.773 255.352 186.462 255.159 187.25 255.159C187.705 255.159 188.153 255.235 188.597 255.386C189.04 255.538 189.443 255.784 189.807 256.125C190.17 256.462 190.46 256.909 190.676 257.466C190.892 258.023 191 258.708 191 259.523V260.091H184.273V258.932H189.636C189.636 258.439 189.538 258 189.341 257.614C189.148 257.227 188.871 256.922 188.511 256.699C188.155 256.475 187.735 256.364 187.25 256.364C186.716 256.364 186.254 256.496 185.864 256.761C185.477 257.023 185.18 257.364 184.972 257.784C184.763 258.205 184.659 258.655 184.659 259.136V259.909C184.659 260.568 184.773 261.127 185 261.585C185.231 262.04 185.551 262.386 185.96 262.625C186.369 262.86 186.845 262.977 187.386 262.977C187.739 262.977 188.057 262.928 188.341 262.83C188.629 262.727 188.877 262.576 189.085 262.375C189.294 262.17 189.455 261.917 189.568 261.614L190.864 261.977C190.727 262.417 190.498 262.803 190.176 263.136C189.854 263.466 189.456 263.723 188.983 263.909C188.509 264.091 187.977 264.182 187.386 264.182ZM194.381 258.75V264H193.04V255.273H194.335V256.636H194.449C194.653 256.193 194.964 255.837 195.381 255.568C195.797 255.295 196.335 255.159 196.994 255.159C197.585 255.159 198.102 255.28 198.545 255.523C198.989 255.761 199.333 256.125 199.58 256.614C199.826 257.098 199.949 257.712 199.949 258.455V264H198.608V258.545C198.608 257.86 198.43 257.326 198.074 256.943C197.718 256.557 197.229 256.364 196.608 256.364C196.18 256.364 195.797 256.456 195.46 256.642C195.127 256.828 194.864 257.098 194.67 257.455C194.477 257.811 194.381 258.242 194.381 258.75ZM208.581 257.227L207.376 257.568C207.301 257.367 207.189 257.172 207.041 256.983C206.897 256.79 206.7 256.631 206.45 256.506C206.2 256.381 205.88 256.318 205.49 256.318C204.956 256.318 204.511 256.441 204.155 256.688C203.803 256.93 203.626 257.239 203.626 257.614C203.626 257.947 203.748 258.21 203.99 258.403C204.232 258.597 204.611 258.758 205.126 258.886L206.422 259.205C207.202 259.394 207.784 259.684 208.166 260.074C208.549 260.46 208.74 260.958 208.74 261.568C208.74 262.068 208.596 262.515 208.308 262.909C208.024 263.303 207.626 263.614 207.115 263.841C206.604 264.068 206.009 264.182 205.331 264.182C204.441 264.182 203.704 263.989 203.121 263.602C202.537 263.216 202.168 262.652 202.013 261.909L203.286 261.591C203.407 262.061 203.636 262.413 203.973 262.648C204.314 262.883 204.759 263 205.308 263C205.933 263 206.429 262.867 206.797 262.602C207.168 262.333 207.354 262.011 207.354 261.636C207.354 261.333 207.248 261.08 207.036 260.875C206.823 260.667 206.498 260.511 206.058 260.409L204.604 260.068C203.804 259.879 203.217 259.585 202.842 259.188C202.471 258.786 202.286 258.284 202.286 257.682C202.286 257.189 202.424 256.754 202.7 256.375C202.981 255.996 203.361 255.699 203.842 255.483C204.327 255.267 204.876 255.159 205.49 255.159C206.354 255.159 207.032 255.348 207.524 255.727C208.02 256.106 208.373 256.606 208.581 257.227ZM210.759 264V255.273H212.099V264H210.759ZM211.44 253.818C211.179 253.818 210.954 253.729 210.764 253.551C210.579 253.373 210.486 253.159 210.486 252.909C210.486 252.659 210.579 252.445 210.764 252.267C210.954 252.089 211.179 252 211.44 252C211.702 252 211.925 252.089 212.111 252.267C212.3 252.445 212.395 252.659 212.395 252.909C212.395 253.159 212.3 253.373 212.111 253.551C211.925 253.729 211.702 253.818 211.44 253.818ZM218.101 264.182C217.313 264.182 216.622 263.994 216.027 263.619C215.436 263.244 214.974 262.72 214.641 262.045C214.311 261.371 214.146 260.583 214.146 259.682C214.146 258.773 214.311 257.979 214.641 257.301C214.974 256.623 215.436 256.097 216.027 255.722C216.622 255.347 217.313 255.159 218.101 255.159C218.889 255.159 219.578 255.347 220.169 255.722C220.764 256.097 221.226 256.623 221.555 257.301C221.889 257.979 222.055 258.773 222.055 259.682C222.055 260.583 221.889 261.371 221.555 262.045C221.226 262.72 220.764 263.244 220.169 263.619C219.578 263.994 218.889 264.182 218.101 264.182ZM218.101 262.977C218.699 262.977 219.192 262.824 219.578 262.517C219.964 262.21 220.25 261.807 220.436 261.307C220.622 260.807 220.714 260.265 220.714 259.682C220.714 259.098 220.622 258.555 220.436 258.051C220.25 257.547 219.964 257.14 219.578 256.83C219.192 256.519 218.699 256.364 218.101 256.364C217.502 256.364 217.01 256.519 216.624 256.83C216.237 257.14 215.951 257.547 215.766 258.051C215.58 258.555 215.487 259.098 215.487 259.682C215.487 260.265 215.58 260.807 215.766 261.307C215.951 261.807 216.237 262.21 216.624 262.517C217.01 262.824 217.502 262.977 218.101 262.977ZM225.443 258.75V264H224.102V255.273H225.398V256.636H225.511C225.716 256.193 226.027 255.837 226.443 255.568C226.86 255.295 227.398 255.159 228.057 255.159C228.648 255.159 229.165 255.28 229.608 255.523C230.051 255.761 230.396 256.125 230.642 256.614C230.888 257.098 231.011 257.712 231.011 258.455V264H229.67V258.545C229.67 257.86 229.492 257.326 229.136 256.943C228.78 256.557 228.292 256.364 227.67 256.364C227.242 256.364 226.86 256.456 226.523 256.642C226.189 256.828 225.926 257.098 225.733 257.455C225.54 257.811 225.443 258.242 225.443 258.75Z" fill="#0F71BB"/>
<path d="M40 267.182H51.8636V268.273H40V267.182ZM51.8594 267.182H83.9759V268.273H51.8594V267.182ZM83.9688 267.182H103.224V268.273H83.9688V267.182ZM103.219 267.182H123.429V268.273H103.219V267.182ZM123.422 267.182H140.334V268.273H123.422V267.182ZM140.328 267.182H155.01V268.273H140.328V267.182ZM154.656 267.182H159.065V268.273H154.656V267.182ZM159.062 267.182H168.381V268.273H159.062V267.182ZM168.141 267.182H182.599V268.273H168.141V267.182ZM182.5 267.182H191.818V268.273H182.5V267.182ZM191.812 267.182H201.176V268.273H191.812V267.182ZM201.172 267.182H209.536V268.273H201.172V267.182ZM209.531 267.182H232.239V268.273H209.531V267.182Z" fill="#0F71BB"/>
<path d="M261 265.875C258.911 265.875 256.908 265.045 255.432 263.568C253.955 262.092 253.125 260.089 253.125 258C253.125 255.911 253.955 253.908 255.432 252.432C256.908 250.955 258.911 250.125 261 250.125C263.089 250.125 265.092 250.955 266.568 252.432C268.045 253.908 268.875 255.911 268.875 258C268.875 260.089 268.045 262.092 266.568 263.568C265.092 265.045 263.089 265.875 261 265.875ZM261 267C263.387 267 265.676 266.052 267.364 264.364C269.052 262.676 270 260.387 270 258C270 255.613 269.052 253.324 267.364 251.636C265.676 249.948 263.387 249 261 249C258.613 249 256.324 249.948 254.636 251.636C252.948 253.324 252 255.613 252 258C252 260.387 252.948 262.676 254.636 264.364C256.324 266.052 258.613 267 261 267Z" fill="#344054"/>
<path d="M257.227 254.227C257.279 254.174 257.341 254.133 257.409 254.104C257.478 254.076 257.551 254.061 257.625 254.061C257.699 254.061 257.772 254.076 257.841 254.104C257.909 254.133 257.971 254.174 258.023 254.227L261 257.205L263.977 254.227C264.029 254.174 264.091 254.133 264.159 254.105C264.228 254.076 264.301 254.062 264.375 254.062C264.449 254.062 264.522 254.076 264.591 254.105C264.659 254.133 264.721 254.174 264.773 254.227C264.826 254.279 264.867 254.341 264.895 254.409C264.924 254.478 264.938 254.551 264.938 254.625C264.938 254.699 264.924 254.772 264.895 254.841C264.867 254.909 264.826 254.971 264.773 255.023L261.795 258L264.773 260.977C264.826 261.029 264.867 261.091 264.895 261.159C264.924 261.228 264.938 261.301 264.938 261.375C264.938 261.449 264.924 261.522 264.895 261.59C264.867 261.659 264.826 261.721 264.773 261.773C264.721 261.826 264.659 261.867 264.591 261.895C264.522 261.924 264.449 261.938 264.375 261.938C264.301 261.938 264.228 261.924 264.159 261.895C264.091 261.867 264.029 261.826 263.977 261.773L261 258.795L258.023 261.773C257.971 261.826 257.909 261.867 257.841 261.895C257.772 261.924 257.699 261.938 257.625 261.938C257.551 261.938 257.478 261.924 257.409 261.895C257.341 261.867 257.279 261.826 257.227 261.773C257.174 261.721 257.133 261.659 257.105 261.59C257.076 261.522 257.062 261.449 257.062 261.375C257.062 261.301 257.076 261.228 257.105 261.159C257.133 261.091 257.174 261.029 257.227 260.977L260.205 258L257.227 255.023C257.174 254.971 257.133 254.909 257.104 254.841C257.076 254.772 257.061 254.699 257.061 254.625C257.061 254.551 257.076 254.478 257.104 254.409C257.133 254.341 257.174 254.279 257.227 254.227Z" fill="#344054"/>
<circle cx="216" cy="127" r="12" fill="#344054"/>
<path d="M216.244 133.159C215.396 133.159 214.64 133.013 213.977 132.722C213.318 132.426 212.797 132.021 212.415 131.506C212.036 130.987 211.841 130.388 211.83 129.71H214.307C214.322 129.994 214.415 130.244 214.585 130.46C214.759 130.672 214.991 130.837 215.278 130.955C215.566 131.072 215.89 131.131 216.25 131.131C216.625 131.131 216.956 131.064 217.244 130.932C217.532 130.799 217.758 130.616 217.92 130.381C218.083 130.146 218.165 129.875 218.165 129.568C218.165 129.258 218.078 128.983 217.903 128.744C217.733 128.502 217.487 128.312 217.165 128.176C216.847 128.04 216.468 127.972 216.028 127.972H214.943V126.165H216.028C216.4 126.165 216.727 126.1 217.011 125.972C217.299 125.843 217.523 125.665 217.682 125.438C217.841 125.206 217.92 124.938 217.92 124.631C217.92 124.339 217.85 124.083 217.71 123.864C217.574 123.64 217.381 123.466 217.131 123.341C216.884 123.216 216.597 123.153 216.267 123.153C215.934 123.153 215.629 123.214 215.352 123.335C215.076 123.453 214.854 123.621 214.688 123.841C214.521 124.061 214.432 124.318 214.42 124.614H212.062C212.074 123.943 212.265 123.352 212.636 122.841C213.008 122.33 213.508 121.93 214.136 121.642C214.769 121.35 215.483 121.205 216.278 121.205C217.081 121.205 217.784 121.35 218.386 121.642C218.989 121.934 219.456 122.328 219.79 122.824C220.127 123.316 220.294 123.869 220.29 124.483C220.294 125.134 220.091 125.678 219.682 126.114C219.277 126.549 218.748 126.826 218.097 126.943V127.034C218.953 127.144 219.604 127.441 220.051 127.926C220.502 128.407 220.725 129.009 220.722 129.733C220.725 130.396 220.534 130.985 220.148 131.5C219.765 132.015 219.237 132.42 218.562 132.716C217.888 133.011 217.116 133.159 216.244 133.159Z" fill="white"/>
<path d="M213 127H169V169" stroke="#344054" stroke-dasharray="2 2"/>
</svg>
