<svg width="180" height="93" viewBox="0 0 180 93" fill="none" xmlns="http://www.w3.org/2000/svg">
<rect x="0.5" y="67" width="17" height="17" rx="4.5" fill="white" stroke="#98A2B3"/>
<path d="M36.7727 73H35.3636C35.2803 72.5947 35.1345 72.2386 34.9261 71.9318C34.7216 71.625 34.4716 71.3674 34.1761 71.1591C33.8845 70.947 33.5606 70.7879 33.2045 70.6818C32.8485 70.5758 32.4773 70.5227 32.0909 70.5227C31.3864 70.5227 30.7481 70.7008 30.1761 71.0568C29.608 71.4129 29.1553 71.9375 28.8182 72.6307C28.4848 73.3239 28.3182 74.1742 28.3182 75.1818C28.3182 76.1894 28.4848 77.0398 28.8182 77.733C29.1553 78.4261 29.608 78.9508 30.1761 79.3068C30.7481 79.6629 31.3864 79.8409 32.0909 79.8409C32.4773 79.8409 32.8485 79.7879 33.2045 79.6818C33.5606 79.5758 33.8845 79.4186 34.1761 79.2102C34.4716 78.9981 34.7216 78.7386 34.9261 78.4318C35.1345 78.1212 35.2803 77.7652 35.3636 77.3636H36.7727C36.6667 77.9583 36.4735 78.4905 36.1932 78.9602C35.9129 79.4299 35.5644 79.8295 35.1477 80.1591C34.7311 80.4848 34.2633 80.733 33.7443 80.9034C33.2292 81.0739 32.678 81.1591 32.0909 81.1591C31.0985 81.1591 30.2159 80.9167 29.4432 80.4318C28.6705 79.947 28.0625 79.2576 27.6193 78.3636C27.1761 77.4697 26.9545 76.4091 26.9545 75.1818C26.9545 73.9545 27.1761 72.8939 27.6193 72C28.0625 71.1061 28.6705 70.4167 29.4432 69.9318C30.2159 69.447 31.0985 69.2045 32.0909 69.2045C32.678 69.2045 33.2292 69.2898 33.7443 69.4602C34.2633 69.6307 34.7311 69.8807 35.1477 70.2102C35.5644 70.536 35.9129 70.9337 36.1932 71.4034C36.4735 71.8693 36.6667 72.4015 36.7727 73ZM40.2088 75.75V81H38.8679V69.3636H40.2088V73.6364H40.3224C40.527 73.1856 40.8338 72.8277 41.2429 72.5625C41.6558 72.2936 42.205 72.1591 42.8906 72.1591C43.4853 72.1591 44.0062 72.2784 44.4531 72.517C44.9001 72.7519 45.2467 73.1136 45.4929 73.6023C45.7429 74.0871 45.8679 74.7045 45.8679 75.4545V81H44.527V75.5455C44.527 74.8523 44.3471 74.3163 43.9872 73.9375C43.6312 73.5549 43.1368 73.3636 42.5043 73.3636C42.0649 73.3636 41.6709 73.4564 41.3224 73.642C40.9777 73.8277 40.705 74.0985 40.5043 74.4545C40.3073 74.8106 40.2088 75.2424 40.2088 75.75ZM51.9801 81.1818C51.1392 81.1818 50.4138 80.9962 49.804 80.625C49.1979 80.25 48.7301 79.7273 48.4006 79.0568C48.0748 78.3826 47.9119 77.5985 47.9119 76.7045C47.9119 75.8106 48.0748 75.0227 48.4006 74.3409C48.7301 73.6553 49.1884 73.1212 49.7756 72.7386C50.3665 72.3523 51.0559 72.1591 51.8438 72.1591C52.2983 72.1591 52.7472 72.2348 53.1903 72.3864C53.6335 72.5379 54.0369 72.7841 54.4006 73.125C54.7642 73.4621 55.054 73.9091 55.2699 74.4659C55.4858 75.0227 55.5938 75.7083 55.5938 76.5227V77.0909H48.8665V75.9318H54.2301C54.2301 75.4394 54.1316 75 53.9347 74.6136C53.7415 74.2273 53.465 73.9223 53.1051 73.6989C52.7491 73.4754 52.3286 73.3636 51.8438 73.3636C51.3097 73.3636 50.8475 73.4962 50.4574 73.7614C50.071 74.0227 49.7737 74.3636 49.5653 74.7841C49.357 75.2045 49.2528 75.6553 49.2528 76.1364V76.9091C49.2528 77.5682 49.3665 78.1269 49.5938 78.5852C49.8248 79.0398 50.1449 79.3864 50.554 79.625C50.9631 79.8598 51.4384 79.9773 51.9801 79.9773C52.3324 79.9773 52.6506 79.928 52.9347 79.8295C53.2225 79.7273 53.4706 79.5758 53.679 79.375C53.8873 79.1705 54.0483 78.9167 54.1619 78.6136L55.4574 78.9773C55.321 79.4167 55.0919 79.803 54.7699 80.1364C54.4479 80.4659 54.0502 80.7235 53.5767 80.9091C53.1032 81.0909 52.571 81.1818 51.9801 81.1818ZM61.179 81.1818C60.3608 81.1818 59.6563 80.9886 59.0653 80.6023C58.4744 80.2159 58.0199 79.6837 57.7017 79.0057C57.3835 78.3277 57.2244 77.553 57.2244 76.6818C57.2244 75.7955 57.3873 75.0133 57.7131 74.3352C58.0426 73.6534 58.5009 73.1212 59.0881 72.7386C59.679 72.3523 60.3684 72.1591 61.1562 72.1591C61.7699 72.1591 62.3229 72.2727 62.8153 72.5C63.3078 72.7273 63.7112 73.0455 64.0256 73.4545C64.34 73.8636 64.535 74.3409 64.6108 74.8864H63.2699C63.1676 74.4886 62.9403 74.1364 62.5881 73.8295C62.2396 73.5189 61.7699 73.3636 61.179 73.3636C60.6563 73.3636 60.1979 73.5 59.804 73.7727C59.4138 74.0417 59.1089 74.4223 58.8892 74.9148C58.6733 75.4034 58.5653 75.9773 58.5653 76.6364C58.5653 77.3106 58.6714 77.8977 58.8835 78.3977C59.0994 78.8977 59.4025 79.286 59.7926 79.5625C60.1866 79.839 60.6487 79.9773 61.179 79.9773C61.5275 79.9773 61.8438 79.9167 62.1278 79.7955C62.4119 79.6742 62.6525 79.5 62.8494 79.2727C63.0464 79.0455 63.1866 78.7727 63.2699 78.4545H64.6108C64.535 78.9697 64.3475 79.4337 64.0483 79.8466C63.7528 80.2557 63.3608 80.5814 62.8722 80.8239C62.3873 81.0625 61.8229 81.1818 61.179 81.1818ZM67.821 77.8182L67.7983 76.1591H68.071L71.8892 72.2727H73.5483L69.4801 76.3864H69.3665L67.821 77.8182ZM66.571 81V69.3636H67.9119V81H66.571ZM72.1165 81L68.7074 76.6818L69.6619 75.75L73.821 81H72.1165ZM75.456 81V69.3636H76.7969V73.6591H76.9105C77.009 73.5076 77.1454 73.3144 77.3196 73.0795C77.4976 72.8409 77.7514 72.6288 78.081 72.4432C78.4143 72.2538 78.8651 72.1591 79.4332 72.1591C80.1681 72.1591 80.8158 72.3428 81.3764 72.7102C81.937 73.0777 82.3745 73.5985 82.6889 74.2727C83.0033 74.947 83.1605 75.7424 83.1605 76.6591C83.1605 77.5833 83.0033 78.3845 82.6889 79.0625C82.3745 79.7367 81.9389 80.2595 81.3821 80.6307C80.8253 80.9981 80.1832 81.1818 79.456 81.1818C78.8954 81.1818 78.4465 81.089 78.1094 80.9034C77.7723 80.714 77.5128 80.5 77.331 80.2614C77.1491 80.0189 77.009 79.8182 76.9105 79.6591H76.7514V81H75.456ZM76.7741 76.6364C76.7741 77.2955 76.8707 77.8769 77.0639 78.3807C77.2571 78.8807 77.5393 79.2727 77.9105 79.5568C78.2817 79.8371 78.7363 79.9773 79.2741 79.9773C79.8348 79.9773 80.3026 79.8295 80.6776 79.5341C81.0563 79.2348 81.3404 78.8333 81.5298 78.3295C81.723 77.822 81.8196 77.2576 81.8196 76.6364C81.8196 76.0227 81.7249 75.4697 81.5355 74.9773C81.3499 74.4811 81.0677 74.089 80.6889 73.8011C80.3139 73.5095 79.8423 73.3636 79.2741 73.3636C78.7287 73.3636 78.2704 73.5019 77.8991 73.7784C77.5279 74.0511 77.2476 74.4337 77.0582 74.9261C76.8688 75.4148 76.7741 75.9848 76.7741 76.6364ZM88.7571 81.1818C87.9692 81.1818 87.2779 80.9943 86.6832 80.6193C86.0923 80.2443 85.6302 79.7197 85.2969 79.0455C84.9673 78.3712 84.8026 77.5833 84.8026 76.6818C84.8026 75.7727 84.9673 74.9792 85.2969 74.3011C85.6302 73.6231 86.0923 73.0966 86.6832 72.7216C87.2779 72.3466 87.9692 72.1591 88.7571 72.1591C89.545 72.1591 90.2344 72.3466 90.8253 72.7216C91.42 73.0966 91.8821 73.6231 92.2116 74.3011C92.545 74.9792 92.7116 75.7727 92.7116 76.6818C92.7116 77.5833 92.545 78.3712 92.2116 79.0455C91.8821 79.7197 91.42 80.2443 90.8253 80.6193C90.2344 80.9943 89.545 81.1818 88.7571 81.1818ZM88.7571 79.9773C89.3556 79.9773 89.848 79.8239 90.2344 79.517C90.6207 79.2102 90.9067 78.8068 91.0923 78.3068C91.2779 77.8068 91.3707 77.2652 91.3707 76.6818C91.3707 76.0985 91.2779 75.5549 91.0923 75.0511C90.9067 74.5473 90.6207 74.1402 90.2344 73.8295C89.848 73.5189 89.3556 73.3636 88.7571 73.3636C88.1586 73.3636 87.6662 73.5189 87.2798 73.8295C86.8935 74.1402 86.6075 74.5473 86.4219 75.0511C86.2363 75.5549 86.1435 76.0985 86.1435 76.6818C86.1435 77.2652 86.2363 77.8068 86.4219 78.3068C86.6075 78.8068 86.8935 79.2102 87.2798 79.517C87.6662 79.8239 88.1586 79.9773 88.7571 79.9773ZM95.3991 72.2727L97.4901 75.8409L99.581 72.2727H101.126L98.3082 76.6364L101.126 81H99.581L97.4901 77.6136L95.3991 81H93.8537L96.6264 76.6364L93.8537 72.2727H95.3991Z" fill="#1D2939"/>
<circle cx="168" cy="74" r="12" fill="#1D2939"/>
<path d="M163.943 80V78.2273L168.085 74.392C168.438 74.0511 168.733 73.7443 168.972 73.4716C169.214 73.1989 169.398 72.9318 169.523 72.6705C169.648 72.4053 169.71 72.1193 169.71 71.8125C169.71 71.4716 169.633 71.178 169.477 70.9318C169.322 70.6818 169.11 70.4905 168.841 70.358C168.572 70.2216 168.267 70.1534 167.926 70.1534C167.57 70.1534 167.259 70.2254 166.994 70.3693C166.729 70.5133 166.525 70.7197 166.381 70.9886C166.237 71.2576 166.165 71.5777 166.165 71.9489H163.83C163.83 71.1875 164.002 70.5265 164.347 69.9659C164.691 69.4053 165.174 68.9716 165.795 68.6648C166.417 68.358 167.133 68.2045 167.943 68.2045C168.777 68.2045 169.502 68.3523 170.119 68.6477C170.741 68.9394 171.223 69.3447 171.568 69.8636C171.913 70.3826 172.085 70.9773 172.085 71.6477C172.085 72.0871 171.998 72.5208 171.824 72.9489C171.653 73.3769 171.348 73.8523 170.909 74.375C170.47 74.8939 169.85 75.517 169.051 76.2443L167.352 77.9091V77.9886H172.239V80H163.943Z" fill="white"/>
<path d="M159 74L107 74.5" stroke="#1D2939" stroke-dasharray="2 2"/>
<circle cx="56" cy="16" r="12" fill="#1D2939"/>
<path d="M58.0057 10.3636V22H55.5455V12.6989H55.4773L52.8125 14.3693V12.1875L55.6932 10.3636H58.0057Z" fill="white"/>
<path d="M53 16H9V58" stroke="#1D2939" stroke-dasharray="2 2"/>
</svg>
