<svg width="180" height="93" viewBox="0 0 180 93" fill="none" xmlns="http://www.w3.org/2000/svg"><rect x=".5" y="67" width="17" height="17" rx="4.5" fill="#fff" stroke="#98A2B3"/><path d="M36.773 73h-1.41a2.927 2.927 0 0 0-1.187-1.84 3.184 3.184 0 0 0-.971-.478 3.882 3.882 0 0 0-1.114-.16 3.55 3.55 0 0 0-1.915.535c-.568.356-1.02.88-1.358 1.574-.333.693-.5 1.543-.5 2.55 0 1.008.167 1.859.5 2.552.337.693.79 1.218 1.358 1.574a3.55 3.55 0 0 0 1.915.534c.386 0 .758-.053 1.114-.16.356-.105.68-.262.971-.47a2.982 2.982 0 0 0 1.188-1.847h1.409a4.693 4.693 0 0 1-.58 1.596c-.28.47-.629.87-1.045 1.2a4.577 4.577 0 0 1-1.404.743 5.23 5.23 0 0 1-1.653.256c-.992 0-1.875-.242-2.648-.727-.773-.485-1.38-1.174-1.824-2.068-.443-.894-.665-1.955-.665-3.182 0-1.228.222-2.288.665-3.182.444-.894 1.052-1.583 1.824-2.068.773-.485 1.655-.728 2.648-.728.587 0 1.138.086 1.653.256.52.17.987.42 1.404.75.416.326.765.724 1.045 1.193.28.466.474.998.58 1.597Zm3.436 2.75V81h-1.341V69.364h1.34v4.272h.114c.205-.45.512-.808.92-1.073.414-.27.963-.404 1.649-.404.594 0 1.115.12 1.562.358a2.41 2.41 0 0 1 1.04 1.085c.25.485.375 1.102.375 1.852V81h-1.341v-5.454c0-.694-.18-1.23-.54-1.609-.356-.382-.85-.573-1.483-.573-.44 0-.833.092-1.182.278a2.035 2.035 0 0 0-.818.813c-.197.356-.295.787-.295 1.295Zm11.771 5.432c-.84 0-1.566-.186-2.176-.557a3.737 3.737 0 0 1-1.403-1.568c-.326-.674-.49-1.459-.49-2.353 0-.893.164-1.681.49-2.363.33-.686.787-1.22 1.375-1.602.59-.387 1.28-.58 2.068-.58.454 0 .903.076 1.346.227a3.33 3.33 0 0 1 1.21.739c.364.337.654.784.87 1.34.216.558.324 1.243.324 2.058v.568h-6.727v-1.16h5.363c0-.492-.098-.931-.295-1.317a2.226 2.226 0 0 0-.83-.915c-.356-.224-.776-.335-1.261-.335-.534 0-.997.132-1.387.397a2.616 2.616 0 0 0-.892 1.023c-.208.42-.312.871-.312 1.352v.773c0 .66.114 1.218.34 1.676.232.455.552.801.961 1.04.41.235.884.352 1.426.352.352 0 .67-.049.955-.148.287-.102.536-.253.744-.454.208-.204.37-.458.483-.761l1.295.363a2.87 2.87 0 0 1-.687 1.16c-.322.329-.72.587-1.193.772a4.426 4.426 0 0 1-1.597.273Zm9.199 0c-.818 0-1.523-.193-2.114-.58a3.777 3.777 0 0 1-1.363-1.596c-.319-.678-.478-1.453-.478-2.324 0-.886.163-1.669.49-2.347.329-.682.787-1.214 1.374-1.596.591-.387 1.28-.58 2.068-.58.614 0 1.167.114 1.66.341a3.19 3.19 0 0 1 1.21.954c.314.41.509.887.585 1.432H63.27c-.102-.397-.33-.75-.682-1.056-.348-.311-.818-.466-1.409-.466-.523 0-.981.136-1.375.409-.39.269-.695.65-.915 1.142-.216.488-.324 1.062-.324 1.721 0 .675.106 1.262.319 1.762.215.5.519.888.909 1.165.394.276.856.414 1.386.414.349 0 .665-.06.949-.181a1.96 1.96 0 0 0 .721-.523c.197-.227.338-.5.42-.819h1.342c-.076.516-.264.98-.563 1.393a3.142 3.142 0 0 1-1.176.977c-.485.239-1.05.358-1.693.358Zm6.642-3.364-.023-1.659h.273l3.818-3.886h1.66l-4.069 4.113h-.114l-1.545 1.432ZM66.571 81V69.364h1.34V81h-1.34Zm5.546 0-3.41-4.318.955-.932L73.82 81h-1.704Zm3.339 0V69.364h1.34v4.295h.114c.099-.151.235-.345.41-.58.178-.238.431-.45.761-.636.333-.19.784-.284 1.352-.284.735 0 1.383.184 1.943.551.561.368.998.889 1.313 1.563.314.674.472 1.47.472 2.386 0 .924-.158 1.725-.472 2.403-.314.675-.75 1.198-1.307 1.569-.557.367-1.199.55-1.926.55-.56 0-1.01-.092-1.347-.278-.337-.189-.596-.403-.778-.642a8.595 8.595 0 0 1-.42-.602h-.16V81h-1.295Zm1.318-4.364c0 .66.097 1.24.29 1.745.193.5.475.892.847 1.176.37.28.825.42 1.363.42.56 0 1.029-.148 1.404-.443.378-.3.662-.7.852-1.205.193-.507.29-1.071.29-1.693 0-.613-.095-1.166-.284-1.659-.186-.496-.468-.888-.847-1.176-.375-.291-.847-.437-1.415-.437-.545 0-1.004.138-1.375.414-.371.273-.651.656-.84 1.148-.19.489-.285 1.059-.285 1.71Zm11.983 4.546c-.788 0-1.48-.188-2.074-.563-.59-.375-1.053-.9-1.386-1.573-.33-.675-.494-1.463-.494-2.364 0-.91.164-1.703.494-2.38.333-.679.795-1.205 1.386-1.58.595-.375 1.286-.563 2.074-.563.788 0 1.477.188 2.068.563.595.375 1.057.901 1.387 1.58.333.677.5 1.47.5 2.38 0 .901-.167 1.69-.5 2.364a3.769 3.769 0 0 1-1.387 1.573c-.59.375-1.28.563-2.068.563Zm0-1.205c.599 0 1.091-.153 1.477-.46.387-.307.673-.71.858-1.21.186-.5.279-1.042.279-1.625 0-.584-.093-1.127-.279-1.63a2.75 2.75 0 0 0-.858-1.223c-.386-.31-.878-.465-1.477-.465-.598 0-1.09.155-1.477.465a2.75 2.75 0 0 0-.858 1.222 4.681 4.681 0 0 0-.278 1.63c0 .584.092 1.126.278 1.626.186.5.472.903.858 1.21.386.307.879.46 1.477.46Zm6.642-7.704 2.091 3.568 2.091-3.568h1.545l-2.818 4.363L101.126 81h-1.545l-2.09-3.386L95.398 81h-1.545l2.772-4.364-2.772-4.363h1.545Z" fill="#1D2939"/><circle cx="168" cy="74" r="12" fill="#1D2939"/><path d="M163.943 80v-1.773l4.142-3.835c.353-.34.648-.648.887-.92.242-.273.426-.54.551-.801.125-.266.187-.552.187-.859 0-.34-.077-.634-.233-.88a1.526 1.526 0 0 0-.636-.574 1.995 1.995 0 0 0-.915-.205c-.356 0-.667.072-.932.216-.265.144-.469.35-.613.62-.144.269-.216.589-.216.96h-2.335c0-.761.172-1.422.517-1.983.344-.56.827-.994 1.448-1.301.622-.307 1.338-.46 2.148-.46.834 0 1.559.147 2.176.443.622.291 1.104.697 1.449 1.216s.517 1.113.517 1.784c0 .44-.087.873-.261 1.3-.171.429-.476.904-.915 1.427-.439.519-1.059 1.142-1.858 1.87l-1.699 1.664v.08h4.887V80h-8.296Z" fill="#fff"/><path d="m159 74-52 .5" stroke="#1D2939" stroke-dasharray="2 2"/><circle cx="56" cy="16" r="12" fill="#1D2939"/><path d="M58.006 10.364V22h-2.46v-9.301h-.069l-2.664 1.67v-2.181l2.88-1.824h2.313Z" fill="#fff"/><path d="M53 16H9v42" stroke="#1D2939" stroke-dasharray="2 2"/></svg>