<svg width="369" height="150" viewBox="0 0 369 150" fill="none" xmlns="http://www.w3.org/2000/svg">
<circle cx="72" cy="16" r="12" fill="#1D2939"/>
<path d="M74.0057 10.3636V22H71.5455V12.6989H71.4773L68.8125 14.3693V12.1875L71.6932 10.3636H74.0057Z" fill="white"/>
<path d="M69 16H25V58" stroke="#1D2939" stroke-dasharray="2 2"/>
<circle cx="100" cy="134" r="12" fill="#1D2939"/>
<path d="M95.9432 140V138.227L100.085 134.392C100.438 134.051 100.733 133.744 100.972 133.472C101.214 133.199 101.398 132.932 101.523 132.67C101.648 132.405 101.71 132.119 101.71 131.812C101.71 131.472 101.633 131.178 101.477 130.932C101.322 130.682 101.11 130.491 100.841 130.358C100.572 130.222 100.267 130.153 99.9261 130.153C99.5701 130.153 99.2595 130.225 98.9943 130.369C98.7292 130.513 98.5246 130.72 98.3807 130.989C98.2367 131.258 98.1648 131.578 98.1648 131.949H95.8295C95.8295 131.187 96.0019 130.527 96.3466 129.966C96.6913 129.405 97.1742 128.972 97.7955 128.665C98.4167 128.358 99.1326 128.205 99.9432 128.205C100.777 128.205 101.502 128.352 102.119 128.648C102.741 128.939 103.223 129.345 103.568 129.864C103.913 130.383 104.085 130.977 104.085 131.648C104.085 132.087 103.998 132.521 103.824 132.949C103.653 133.377 103.348 133.852 102.909 134.375C102.47 134.894 101.85 135.517 101.051 136.244L99.3523 137.909V137.989H104.239V140H95.9432Z" fill="white"/>
<path d="M97 134H53V94" stroke="#1D2939" stroke-dasharray="2 2"/>
<circle cx="357" cy="134" r="12" fill="#1D2939"/>
<path d="M357.244 140.159C356.396 140.159 355.64 140.013 354.977 139.722C354.318 139.426 353.797 139.021 353.415 138.506C353.036 137.987 352.841 137.388 352.83 136.71H355.307C355.322 136.994 355.415 137.244 355.585 137.46C355.759 137.672 355.991 137.837 356.278 137.955C356.566 138.072 356.89 138.131 357.25 138.131C357.625 138.131 357.956 138.064 358.244 137.932C358.532 137.799 358.758 137.616 358.92 137.381C359.083 137.146 359.165 136.875 359.165 136.568C359.165 136.258 359.078 135.983 358.903 135.744C358.733 135.502 358.487 135.312 358.165 135.176C357.847 135.04 357.468 134.972 357.028 134.972H355.943V133.165H357.028C357.4 133.165 357.727 133.1 358.011 132.972C358.299 132.843 358.523 132.665 358.682 132.438C358.841 132.206 358.92 131.938 358.92 131.631C358.92 131.339 358.85 131.083 358.71 130.864C358.574 130.64 358.381 130.466 358.131 130.341C357.884 130.216 357.597 130.153 357.267 130.153C356.934 130.153 356.629 130.214 356.352 130.335C356.076 130.453 355.854 130.621 355.688 130.841C355.521 131.061 355.432 131.318 355.42 131.614H353.062C353.074 130.943 353.265 130.352 353.636 129.841C354.008 129.33 354.508 128.93 355.136 128.642C355.769 128.35 356.483 128.205 357.278 128.205C358.081 128.205 358.784 128.35 359.386 128.642C359.989 128.934 360.456 129.328 360.79 129.824C361.127 130.316 361.294 130.869 361.29 131.483C361.294 132.134 361.091 132.678 360.682 133.114C360.277 133.549 359.748 133.826 359.097 133.943V134.034C359.953 134.144 360.604 134.441 361.051 134.926C361.502 135.407 361.725 136.009 361.722 136.733C361.725 137.396 361.534 137.985 361.148 138.5C360.765 139.015 360.237 139.42 359.562 139.716C358.888 140.011 358.116 140.159 357.244 140.159Z" fill="white"/>
<path d="M354 134H310V94" stroke="#1D2939" stroke-dasharray="2 2"/>
<path d="M1.40909 81V69.3636H2.81818V74.5455H9.02273V69.3636H10.4318V81H9.02273V75.7955H2.81818V81H1.40909ZM16.6165 81.1818C15.8286 81.1818 15.1373 80.9943 14.5426 80.6193C13.9517 80.2443 13.4896 79.7197 13.1562 79.0455C12.8267 78.3712 12.6619 77.5833 12.6619 76.6818C12.6619 75.7727 12.8267 74.9792 13.1562 74.3011C13.4896 73.6231 13.9517 73.0966 14.5426 72.7216C15.1373 72.3466 15.8286 72.1591 16.6165 72.1591C17.4044 72.1591 18.0938 72.3466 18.6847 72.7216C19.2794 73.0966 19.7415 73.6231 20.071 74.3011C20.4044 74.9792 20.571 75.7727 20.571 76.6818C20.571 77.5833 20.4044 78.3712 20.071 79.0455C19.7415 79.7197 19.2794 80.2443 18.6847 80.6193C18.0938 80.9943 17.4044 81.1818 16.6165 81.1818ZM16.6165 79.9773C17.215 79.9773 17.7074 79.8239 18.0938 79.517C18.4801 79.2102 18.7661 78.8068 18.9517 78.3068C19.1373 77.8068 19.2301 77.2652 19.2301 76.6818C19.2301 76.0985 19.1373 75.5549 18.9517 75.0511C18.7661 74.5473 18.4801 74.1402 18.0938 73.8295C17.7074 73.5189 17.215 73.3636 16.6165 73.3636C16.018 73.3636 15.5256 73.5189 15.1392 73.8295C14.7528 74.1402 14.4669 74.5473 14.2812 75.0511C14.0956 75.5549 14.0028 76.0985 14.0028 76.6818C14.0028 77.2652 14.0956 77.8068 14.2812 78.3068C14.4669 78.8068 14.7528 79.2102 15.1392 79.517C15.5256 79.8239 16.018 79.9773 16.6165 79.9773ZM22.6179 81V72.2727H23.9134V73.6364H24.027C24.2088 73.1705 24.5024 72.8087 24.9077 72.5511C25.313 72.2898 25.7997 72.1591 26.3679 72.1591C26.9437 72.1591 27.4228 72.2898 27.8054 72.5511C28.1918 72.8087 28.4929 73.1705 28.7088 73.6364H28.7997C29.0232 73.1856 29.3584 72.8277 29.8054 72.5625C30.2524 72.2936 30.7884 72.1591 31.4134 72.1591C32.1937 72.1591 32.8319 72.4034 33.3281 72.892C33.8243 73.3769 34.0724 74.1326 34.0724 75.1591V81H32.7315V75.1591C32.7315 74.5152 32.5554 74.0549 32.2031 73.7784C31.8509 73.5019 31.4361 73.3636 30.9588 73.3636C30.3452 73.3636 29.8698 73.5492 29.5327 73.9205C29.1955 74.2879 29.027 74.7538 29.027 75.3182V81H27.6634V75.0227C27.6634 74.5265 27.5024 74.1269 27.1804 73.8239C26.8584 73.517 26.4437 73.3636 25.9361 73.3636C25.5876 73.3636 25.2618 73.4564 24.9588 73.642C24.6596 73.8277 24.4171 74.0852 24.2315 74.4148C24.0497 74.7405 23.9588 75.1174 23.9588 75.5455V81H22.6179ZM40.1832 81.1818C39.3423 81.1818 38.617 80.9962 38.0071 80.625C37.401 80.25 36.9332 79.7273 36.6037 79.0568C36.2779 78.3826 36.1151 77.5985 36.1151 76.7045C36.1151 75.8106 36.2779 75.0227 36.6037 74.3409C36.9332 73.6553 37.3916 73.1212 37.9787 72.7386C38.5696 72.3523 39.259 72.1591 40.0469 72.1591C40.5014 72.1591 40.9503 72.2348 41.3935 72.3864C41.8366 72.5379 42.2401 72.7841 42.6037 73.125C42.9673 73.4621 43.2571 73.9091 43.473 74.4659C43.6889 75.0227 43.7969 75.7083 43.7969 76.5227V77.0909H37.0696V75.9318H42.4332C42.4332 75.4394 42.3348 75 42.1378 74.6136C41.9446 74.2273 41.6681 73.9223 41.3082 73.6989C40.9522 73.4754 40.5317 73.3636 40.0469 73.3636C39.5128 73.3636 39.0507 73.4962 38.6605 73.7614C38.2741 74.0227 37.9768 74.3636 37.7685 74.7841C37.5601 75.2045 37.456 75.6553 37.456 76.1364V76.9091C37.456 77.5682 37.5696 78.1269 37.7969 78.5852C38.0279 79.0398 38.348 79.3864 38.7571 79.625C39.1662 79.8598 39.6416 79.9773 40.1832 79.9773C40.5355 79.9773 40.8537 79.928 41.1378 79.8295C41.4257 79.7273 41.6738 79.5758 41.8821 79.375C42.0904 79.1705 42.2514 78.9167 42.3651 78.6136L43.6605 78.9773C43.5241 79.4167 43.295 79.803 42.973 80.1364C42.651 80.4659 42.2533 80.7235 41.7798 80.9091C41.3063 81.0909 40.7741 81.1818 40.1832 81.1818Z" fill="#0F71BB"/>
<path d="M0 84.1818H35.2997V85.2727H0V84.1818ZM35.2969 84.1818H44.6151V85.2727H35.2969V84.1818Z" fill="#0F71BB"/>
<path d="M58.3409 68.8182L54.5909 82.75H53.3636L57.1136 68.8182H58.3409Z" fill="#1D2939"/>
<path d="M69.8182 69.3636V81H68.4091V69.3636H69.8182ZM76.2571 72.2727V73.4091H71.7344V72.2727H76.2571ZM73.0526 70.1818H74.3935V78.5C74.3935 78.8788 74.4484 79.1629 74.5582 79.3523C74.6719 79.5379 74.8158 79.6629 74.9901 79.7273C75.1681 79.7879 75.3556 79.8182 75.5526 79.8182C75.7003 79.8182 75.8215 79.8106 75.9162 79.7955C76.0109 79.7765 76.0866 79.7614 76.1435 79.75L76.4162 80.9545C76.3253 80.9886 76.1984 81.0227 76.0355 81.0568C75.8726 81.0947 75.6662 81.1136 75.4162 81.1136C75.0374 81.1136 74.6662 81.0322 74.3026 80.8693C73.9427 80.7064 73.6435 80.4583 73.4048 80.125C73.17 79.7917 73.0526 79.3712 73.0526 78.8636V70.1818ZM81.8395 81.1818C80.9986 81.1818 80.2732 80.9962 79.6634 80.625C79.0573 80.25 78.5895 79.7273 78.2599 79.0568C77.9342 78.3826 77.7713 77.5985 77.7713 76.7045C77.7713 75.8106 77.9342 75.0227 78.2599 74.3409C78.5895 73.6553 79.0478 73.1212 79.6349 72.7386C80.2259 72.3523 80.9152 72.1591 81.7031 72.1591C82.1577 72.1591 82.6065 72.2348 83.0497 72.3864C83.4929 72.5379 83.8963 72.7841 84.2599 73.125C84.6236 73.4621 84.9134 73.9091 85.1293 74.4659C85.3452 75.0227 85.4531 75.7083 85.4531 76.5227V77.0909H78.7259V75.9318H84.0895C84.0895 75.4394 83.991 75 83.794 74.6136C83.6009 74.2273 83.3243 73.9223 82.9645 73.6989C82.6084 73.4754 82.188 73.3636 81.7031 73.3636C81.169 73.3636 80.7069 73.4962 80.3168 73.7614C79.9304 74.0227 79.633 74.3636 79.4247 74.7841C79.2164 75.2045 79.1122 75.6553 79.1122 76.1364V76.9091C79.1122 77.5682 79.2259 78.1269 79.4531 78.5852C79.6842 79.0398 80.0043 79.3864 80.4134 79.625C80.8224 79.8598 81.2978 79.9773 81.8395 79.9773C82.1918 79.9773 82.5099 79.928 82.794 79.8295C83.0819 79.7273 83.33 79.5758 83.5384 79.375C83.7467 79.1705 83.9077 78.9167 84.0213 78.6136L85.3168 78.9773C85.1804 79.4167 84.9512 79.803 84.6293 80.1364C84.3073 80.4659 83.9096 80.7235 83.4361 80.9091C82.9626 81.0909 82.4304 81.1818 81.8395 81.1818ZM87.4929 81V72.2727H88.7884V73.6364H88.902C89.0838 73.1705 89.3774 72.8087 89.7827 72.5511C90.188 72.2898 90.6747 72.1591 91.2429 72.1591C91.8187 72.1591 92.2978 72.2898 92.6804 72.5511C93.0668 72.8087 93.3679 73.1705 93.5838 73.6364H93.6747C93.8982 73.1856 94.2334 72.8277 94.6804 72.5625C95.1274 72.2936 95.6634 72.1591 96.2884 72.1591C97.0687 72.1591 97.7069 72.4034 98.2031 72.892C98.6993 73.3769 98.9474 74.1326 98.9474 75.1591V81H97.6065V75.1591C97.6065 74.5152 97.4304 74.0549 97.0781 73.7784C96.7259 73.5019 96.3111 73.3636 95.8338 73.3636C95.2202 73.3636 94.7448 73.5492 94.4077 73.9205C94.0705 74.2879 93.902 74.7538 93.902 75.3182V81H92.5384V75.0227C92.5384 74.5265 92.3774 74.1269 92.0554 73.8239C91.7334 73.517 91.3187 73.3636 90.8111 73.3636C90.4626 73.3636 90.1368 73.4564 89.8338 73.642C89.5346 73.8277 89.2921 74.0852 89.1065 74.4148C88.9247 74.7405 88.8338 75.1174 88.8338 75.5455V81H87.4929ZM109.967 69.3636V81H108.558V70.8409H108.49L105.649 72.7273V71.2955L108.558 69.3636H109.967Z" fill="#0F71BB"/>
<path d="M67 84.1818H77.0526V85.2727H67V84.1818ZM76.9531 84.1818H86.2713V85.2727H76.9531V84.1818ZM86.2656 84.1818H100.175V85.2727H86.2656V84.1818ZM100.172 84.1818H112.104V85.2727H100.172V84.1818Z" fill="#0F71BB"/>
<path d="M126.341 68.8182L122.591 82.75H121.364L125.114 68.8182H126.341Z" fill="#1D2939"/>
<path d="M137.818 69.3636V81H136.409V69.3636H137.818ZM144.257 72.2727V73.4091H139.734V72.2727H144.257ZM141.053 70.1818H142.393V78.5C142.393 78.8788 142.448 79.1629 142.558 79.3523C142.672 79.5379 142.816 79.6629 142.99 79.7273C143.168 79.7879 143.356 79.8182 143.553 79.8182C143.7 79.8182 143.821 79.8106 143.916 79.7955C144.011 79.7765 144.087 79.7614 144.143 79.75L144.416 80.9545C144.325 80.9886 144.198 81.0227 144.036 81.0568C143.873 81.0947 143.666 81.1136 143.416 81.1136C143.037 81.1136 142.666 81.0322 142.303 80.8693C141.943 80.7064 141.643 80.4583 141.405 80.125C141.17 79.7917 141.053 79.3712 141.053 78.8636V70.1818ZM149.839 81.1818C148.999 81.1818 148.273 80.9962 147.663 80.625C147.057 80.25 146.589 79.7273 146.26 79.0568C145.934 78.3826 145.771 77.5985 145.771 76.7045C145.771 75.8106 145.934 75.0227 146.26 74.3409C146.589 73.6553 147.048 73.1212 147.635 72.7386C148.226 72.3523 148.915 72.1591 149.703 72.1591C150.158 72.1591 150.607 72.2348 151.05 72.3864C151.493 72.5379 151.896 72.7841 152.26 73.125C152.624 73.4621 152.913 73.9091 153.129 74.4659C153.345 75.0227 153.453 75.7083 153.453 76.5227V77.0909H146.726V75.9318H152.089C152.089 75.4394 151.991 75 151.794 74.6136C151.601 74.2273 151.324 73.9223 150.964 73.6989C150.608 73.4754 150.188 73.3636 149.703 73.3636C149.169 73.3636 148.707 73.4962 148.317 73.7614C147.93 74.0227 147.633 74.3636 147.425 74.7841C147.216 75.2045 147.112 75.6553 147.112 76.1364V76.9091C147.112 77.5682 147.226 78.1269 147.453 78.5852C147.684 79.0398 148.004 79.3864 148.413 79.625C148.822 79.8598 149.298 79.9773 149.839 79.9773C150.192 79.9773 150.51 79.928 150.794 79.8295C151.082 79.7273 151.33 79.5758 151.538 79.375C151.747 79.1705 151.908 78.9167 152.021 78.6136L153.317 78.9773C153.18 79.4167 152.951 79.803 152.629 80.1364C152.307 80.4659 151.91 80.7235 151.436 80.9091C150.963 81.0909 150.43 81.1818 149.839 81.1818ZM155.493 81V72.2727H156.788V73.6364H156.902C157.084 73.1705 157.377 72.8087 157.783 72.5511C158.188 72.2898 158.675 72.1591 159.243 72.1591C159.819 72.1591 160.298 72.2898 160.68 72.5511C161.067 72.8087 161.368 73.1705 161.584 73.6364H161.675C161.898 73.1856 162.233 72.8277 162.68 72.5625C163.127 72.2936 163.663 72.1591 164.288 72.1591C165.069 72.1591 165.707 72.4034 166.203 72.892C166.699 73.3769 166.947 74.1326 166.947 75.1591V81H165.607V75.1591C165.607 74.5152 165.43 74.0549 165.078 73.7784C164.726 73.5019 164.311 73.3636 163.834 73.3636C163.22 73.3636 162.745 73.5492 162.408 73.9205C162.071 74.2879 161.902 74.7538 161.902 75.3182V81H160.538V75.0227C160.538 74.5265 160.377 74.1269 160.055 73.8239C159.733 73.517 159.319 73.3636 158.811 73.3636C158.463 73.3636 158.137 73.4564 157.834 73.642C157.535 73.8277 157.292 74.0852 157.107 74.4148C156.925 74.7405 156.834 75.1174 156.834 75.5455V81H155.493ZM173.876 81V79.9773L177.717 75.7727C178.168 75.2803 178.539 74.8523 178.831 74.4886C179.123 74.1212 179.339 73.7765 179.479 73.4545C179.623 73.1288 179.695 72.7879 179.695 72.4318C179.695 72.0227 179.596 71.6686 179.399 71.3693C179.206 71.0701 178.941 70.839 178.604 70.6761C178.267 70.5133 177.888 70.4318 177.467 70.4318C177.02 70.4318 176.63 70.5246 176.297 70.7102C175.967 70.892 175.712 71.1477 175.53 71.4773C175.352 71.8068 175.263 72.1932 175.263 72.6364H173.922C173.922 71.9545 174.079 71.3561 174.393 70.8409C174.708 70.3258 175.136 69.9242 175.678 69.6364C176.223 69.3485 176.835 69.2045 177.513 69.2045C178.195 69.2045 178.799 69.3485 179.325 69.6364C179.852 69.9242 180.265 70.3125 180.564 70.8011C180.863 71.2898 181.013 71.8333 181.013 72.4318C181.013 72.8598 180.935 73.2784 180.78 73.6875C180.628 74.0928 180.363 74.5455 179.984 75.0455C179.609 75.5417 179.089 76.1477 178.422 76.8636L175.808 79.6591V79.75H181.217V81H173.876Z" fill="#0F71BB"/>
<path d="M135 84.1818H145.053V85.2727H135V84.1818ZM144.953 84.1818H154.271V85.2727H144.953V84.1818ZM154.266 84.1818H168.175V85.2727H154.266V84.1818ZM168.172 84.1818H182.354V85.2727H168.172V84.1818Z" fill="#0F71BB"/>
<path d="M196.341 68.8182L192.591 82.75H191.364L195.114 68.8182H196.341Z" fill="#1D2939"/>
<path d="M207.818 69.3636V81H206.409V69.3636H207.818ZM214.257 72.2727V73.4091H209.734V72.2727H214.257ZM211.053 70.1818H212.393V78.5C212.393 78.8788 212.448 79.1629 212.558 79.3523C212.672 79.5379 212.816 79.6629 212.99 79.7273C213.168 79.7879 213.356 79.8182 213.553 79.8182C213.7 79.8182 213.821 79.8106 213.916 79.7955C214.011 79.7765 214.087 79.7614 214.143 79.75L214.416 80.9545C214.325 80.9886 214.198 81.0227 214.036 81.0568C213.873 81.0947 213.666 81.1136 213.416 81.1136C213.037 81.1136 212.666 81.0322 212.303 80.8693C211.943 80.7064 211.643 80.4583 211.405 80.125C211.17 79.7917 211.053 79.3712 211.053 78.8636V70.1818ZM219.839 81.1818C218.999 81.1818 218.273 80.9962 217.663 80.625C217.057 80.25 216.589 79.7273 216.26 79.0568C215.934 78.3826 215.771 77.5985 215.771 76.7045C215.771 75.8106 215.934 75.0227 216.26 74.3409C216.589 73.6553 217.048 73.1212 217.635 72.7386C218.226 72.3523 218.915 72.1591 219.703 72.1591C220.158 72.1591 220.607 72.2348 221.05 72.3864C221.493 72.5379 221.896 72.7841 222.26 73.125C222.624 73.4621 222.913 73.9091 223.129 74.4659C223.345 75.0227 223.453 75.7083 223.453 76.5227V77.0909H216.726V75.9318H222.089C222.089 75.4394 221.991 75 221.794 74.6136C221.601 74.2273 221.324 73.9223 220.964 73.6989C220.608 73.4754 220.188 73.3636 219.703 73.3636C219.169 73.3636 218.707 73.4962 218.317 73.7614C217.93 74.0227 217.633 74.3636 217.425 74.7841C217.216 75.2045 217.112 75.6553 217.112 76.1364V76.9091C217.112 77.5682 217.226 78.1269 217.453 78.5852C217.684 79.0398 218.004 79.3864 218.413 79.625C218.822 79.8598 219.298 79.9773 219.839 79.9773C220.192 79.9773 220.51 79.928 220.794 79.8295C221.082 79.7273 221.33 79.5758 221.538 79.375C221.747 79.1705 221.908 78.9167 222.021 78.6136L223.317 78.9773C223.18 79.4167 222.951 79.803 222.629 80.1364C222.307 80.4659 221.91 80.7235 221.436 80.9091C220.963 81.0909 220.43 81.1818 219.839 81.1818ZM225.493 81V72.2727H226.788V73.6364H226.902C227.084 73.1705 227.377 72.8087 227.783 72.5511C228.188 72.2898 228.675 72.1591 229.243 72.1591C229.819 72.1591 230.298 72.2898 230.68 72.5511C231.067 72.8087 231.368 73.1705 231.584 73.6364H231.675C231.898 73.1856 232.233 72.8277 232.68 72.5625C233.127 72.2936 233.663 72.1591 234.288 72.1591C235.069 72.1591 235.707 72.4034 236.203 72.892C236.699 73.3769 236.947 74.1326 236.947 75.1591V81H235.607V75.1591C235.607 74.5152 235.43 74.0549 235.078 73.7784C234.726 73.5019 234.311 73.3636 233.834 73.3636C233.22 73.3636 232.745 73.5492 232.408 73.9205C232.071 74.2879 231.902 74.7538 231.902 75.3182V81H230.538V75.0227C230.538 74.5265 230.377 74.1269 230.055 73.8239C229.733 73.517 229.319 73.3636 228.811 73.3636C228.463 73.3636 228.137 73.4564 227.834 73.642C227.535 73.8277 227.292 74.0852 227.107 74.4148C226.925 74.7405 226.834 75.1174 226.834 75.5455V81H225.493ZM247.808 81.1591C247.058 81.1591 246.39 81.0303 245.803 80.7727C245.219 80.5152 244.755 80.1572 244.411 79.6989C244.07 79.2367 243.884 78.7008 243.854 78.0909H245.286C245.316 78.4659 245.445 78.7898 245.672 79.0625C245.899 79.3314 246.196 79.5398 246.564 79.6875C246.931 79.8352 247.339 79.9091 247.786 79.9091C248.286 79.9091 248.729 79.822 249.115 79.6477C249.501 79.4735 249.804 79.2311 250.024 78.9205C250.244 78.6098 250.354 78.25 250.354 77.8409C250.354 77.4129 250.248 77.036 250.036 76.7102C249.823 76.3807 249.513 76.1231 249.104 75.9375C248.695 75.7519 248.195 75.6591 247.604 75.6591H246.672V74.4091H247.604C248.066 74.4091 248.471 74.3258 248.82 74.1591C249.172 73.9924 249.446 73.7576 249.643 73.4545C249.844 73.1515 249.945 72.7955 249.945 72.3864C249.945 71.9924 249.857 71.6496 249.683 71.358C249.509 71.0663 249.263 70.839 248.945 70.6761C248.63 70.5133 248.259 70.4318 247.831 70.4318C247.429 70.4318 247.051 70.5057 246.695 70.6534C246.342 70.7973 246.054 71.0076 245.831 71.2841C245.607 71.5568 245.486 71.8864 245.467 72.2727H244.104C244.126 71.6629 244.31 71.1288 244.655 70.6705C245 70.2083 245.45 69.8485 246.007 69.5909C246.568 69.3333 247.183 69.2045 247.854 69.2045C248.573 69.2045 249.191 69.3504 249.706 69.642C250.221 69.9299 250.617 70.3106 250.893 70.7841C251.17 71.2576 251.308 71.7689 251.308 72.3182C251.308 72.9735 251.136 73.5322 250.791 73.9943C250.45 74.4564 249.986 74.7765 249.399 74.9545V75.0455C250.134 75.1667 250.708 75.4792 251.121 75.983C251.534 76.483 251.74 77.1023 251.74 77.8409C251.74 78.4735 251.568 79.0417 251.223 79.5455C250.882 80.0455 250.416 80.4394 249.825 80.7273C249.234 81.0152 248.562 81.1591 247.808 81.1591Z" fill="#0F71BB"/>
<path d="M205 84.1818H215.053V85.2727H205V84.1818ZM214.953 84.1818H224.271V85.2727H214.953V84.1818ZM224.266 84.1818H238.175V85.2727H224.266V84.1818ZM238.172 84.1818H252.854V85.2727H238.172V84.1818Z" fill="#0F71BB"/>
<path d="M266.341 68.8182L262.591 82.75H261.364L265.114 68.8182H266.341Z" fill="#1D2939"/>
<path d="M276.409 81V69.3636H277.818V79.75H283.227V81H276.409ZM287.795 81.2045C287.242 81.2045 286.741 81.1004 286.29 80.892C285.839 80.6799 285.481 80.375 285.216 79.9773C284.951 79.5758 284.818 79.0909 284.818 78.5227C284.818 78.0227 284.917 77.6174 285.114 77.3068C285.311 76.9924 285.574 76.7462 285.903 76.5682C286.233 76.3902 286.597 76.2576 286.994 76.1705C287.396 76.0795 287.799 76.0076 288.205 75.9545C288.735 75.8864 289.165 75.8352 289.494 75.8011C289.828 75.7633 290.07 75.7008 290.222 75.6136C290.377 75.5265 290.455 75.375 290.455 75.1591V75.1136C290.455 74.553 290.301 74.1174 289.994 73.8068C289.691 73.4962 289.231 73.3409 288.614 73.3409C287.973 73.3409 287.472 73.4811 287.108 73.7614C286.744 74.0417 286.489 74.3409 286.341 74.6591L285.068 74.2045C285.295 73.6742 285.598 73.2614 285.977 72.9659C286.36 72.6667 286.777 72.4583 287.227 72.3409C287.682 72.2197 288.129 72.1591 288.568 72.1591C288.848 72.1591 289.17 72.1932 289.534 72.2614C289.902 72.3258 290.256 72.4602 290.597 72.6648C290.941 72.8693 291.227 73.178 291.455 73.5909C291.682 74.0038 291.795 74.5568 291.795 75.25V81H290.455V79.8182H290.386C290.295 80.0076 290.144 80.2102 289.932 80.4261C289.72 80.642 289.438 80.8258 289.085 80.9773C288.733 81.1288 288.303 81.2045 287.795 81.2045ZM288 80C288.53 80 288.977 79.8958 289.341 79.6875C289.708 79.4792 289.985 79.2102 290.17 78.8807C290.36 78.5511 290.455 78.2045 290.455 77.8409V76.6136C290.398 76.6818 290.273 76.7443 290.08 76.8011C289.89 76.8542 289.67 76.9015 289.42 76.9432C289.174 76.9811 288.934 77.0152 288.699 77.0455C288.468 77.072 288.28 77.0947 288.136 77.1136C287.788 77.1591 287.462 77.233 287.159 77.3352C286.86 77.4337 286.617 77.5833 286.432 77.7841C286.25 77.9811 286.159 78.25 286.159 78.5909C286.159 79.0568 286.331 79.4091 286.676 79.6477C287.025 79.8826 287.466 80 288 80ZM300.425 74.2273L299.22 74.5682C299.144 74.3674 299.033 74.1723 298.885 73.983C298.741 73.7898 298.544 73.6307 298.294 73.5057C298.044 73.3807 297.724 73.3182 297.334 73.3182C296.8 73.3182 296.355 73.4413 295.999 73.6875C295.646 73.9299 295.47 74.2386 295.47 74.6136C295.47 74.947 295.591 75.2102 295.834 75.4034C296.076 75.5966 296.455 75.7576 296.97 75.8864L298.266 76.2045C299.046 76.3939 299.627 76.6837 300.01 77.0739C300.393 77.4602 300.584 77.9583 300.584 78.5682C300.584 79.0682 300.44 79.5152 300.152 79.9091C299.868 80.303 299.47 80.6136 298.959 80.8409C298.447 81.0682 297.853 81.1818 297.175 81.1818C296.285 81.1818 295.548 80.9886 294.964 80.6023C294.381 80.2159 294.012 79.6515 293.857 78.9091L295.129 78.5909C295.25 79.0606 295.48 79.4129 295.817 79.6477C296.158 79.8826 296.603 80 297.152 80C297.777 80 298.273 79.8674 298.641 79.6023C299.012 79.3333 299.197 79.0114 299.197 78.6364C299.197 78.3333 299.091 78.0795 298.879 77.875C298.667 77.6667 298.341 77.5114 297.902 77.4091L296.447 77.0682C295.648 76.8788 295.061 76.5852 294.686 76.1875C294.315 75.786 294.129 75.2841 294.129 74.6818C294.129 74.1894 294.268 73.7538 294.544 73.375C294.824 72.9962 295.205 72.6989 295.686 72.483C296.171 72.267 296.72 72.1591 297.334 72.1591C298.197 72.1591 298.875 72.3485 299.368 72.7273C299.864 73.1061 300.216 73.6061 300.425 74.2273ZM306.398 72.2727V73.4091H301.875V72.2727H306.398ZM303.193 70.1818H304.534V78.5C304.534 78.8788 304.589 79.1629 304.699 79.3523C304.813 79.5379 304.956 79.6629 305.131 79.7273C305.309 79.7879 305.496 79.8182 305.693 79.8182C305.841 79.8182 305.962 79.8106 306.057 79.7955C306.152 79.7765 306.227 79.7614 306.284 79.75L306.557 80.9545C306.466 80.9886 306.339 81.0227 306.176 81.0568C306.013 81.0947 305.807 81.1136 305.557 81.1136C305.178 81.1136 304.807 81.0322 304.443 80.8693C304.083 80.7064 303.784 80.4583 303.545 80.125C303.311 79.7917 303.193 79.3712 303.193 78.8636V70.1818ZM312.915 81V72.2727H314.256V81H312.915ZM313.597 70.8182C313.335 70.8182 313.11 70.7292 312.92 70.5511C312.735 70.3731 312.642 70.1591 312.642 69.9091C312.642 69.6591 312.735 69.4451 312.92 69.267C313.11 69.089 313.335 69 313.597 69C313.858 69 314.081 69.089 314.267 69.267C314.456 69.4451 314.551 69.6591 314.551 69.9091C314.551 70.1591 314.456 70.3731 314.267 70.5511C314.081 70.7292 313.858 70.8182 313.597 70.8182ZM320.507 72.2727V73.4091H315.984V72.2727H320.507ZM317.303 70.1818H318.643V78.5C318.643 78.8788 318.698 79.1629 318.808 79.3523C318.922 79.5379 319.066 79.6629 319.24 79.7273C319.418 79.7879 319.606 79.8182 319.803 79.8182C319.95 79.8182 320.071 79.8106 320.166 79.7955C320.261 79.7765 320.337 79.7614 320.393 79.75L320.666 80.9545C320.575 80.9886 320.448 81.0227 320.286 81.0568C320.123 81.0947 319.916 81.1136 319.666 81.1136C319.287 81.1136 318.916 81.0322 318.553 80.8693C318.193 80.7064 317.893 80.4583 317.655 80.125C317.42 79.7917 317.303 79.3712 317.303 78.8636V70.1818ZM326.089 81.1818C325.249 81.1818 324.523 80.9962 323.913 80.625C323.307 80.25 322.839 79.7273 322.51 79.0568C322.184 78.3826 322.021 77.5985 322.021 76.7045C322.021 75.8106 322.184 75.0227 322.51 74.3409C322.839 73.6553 323.298 73.1212 323.885 72.7386C324.476 72.3523 325.165 72.1591 325.953 72.1591C326.408 72.1591 326.857 72.2348 327.3 72.3864C327.743 72.5379 328.146 72.7841 328.51 73.125C328.874 73.4621 329.163 73.9091 329.379 74.4659C329.595 75.0227 329.703 75.7083 329.703 76.5227V77.0909H322.976V75.9318H328.339C328.339 75.4394 328.241 75 328.044 74.6136C327.851 74.2273 327.574 73.9223 327.214 73.6989C326.858 73.4754 326.438 73.3636 325.953 73.3636C325.419 73.3636 324.957 73.4962 324.567 73.7614C324.18 74.0227 323.883 74.3636 323.675 74.7841C323.466 75.2045 323.362 75.6553 323.362 76.1364V76.9091C323.362 77.5682 323.476 78.1269 323.703 78.5852C323.934 79.0398 324.254 79.3864 324.663 79.625C325.072 79.8598 325.548 79.9773 326.089 79.9773C326.442 79.9773 326.76 79.928 327.044 79.8295C327.332 79.7273 327.58 79.5758 327.788 79.375C327.997 79.1705 328.158 78.9167 328.271 78.6136L329.567 78.9773C329.43 79.4167 329.201 79.803 328.879 80.1364C328.557 80.4659 328.16 80.7235 327.686 80.9091C327.213 81.0909 326.68 81.1818 326.089 81.1818ZM331.743 81V72.2727H333.038V73.6364H333.152C333.334 73.1705 333.627 72.8087 334.033 72.5511C334.438 72.2898 334.925 72.1591 335.493 72.1591C336.069 72.1591 336.548 72.2898 336.93 72.5511C337.317 72.8087 337.618 73.1705 337.834 73.6364H337.925C338.148 73.1856 338.483 72.8277 338.93 72.5625C339.377 72.2936 339.913 72.1591 340.538 72.1591C341.319 72.1591 341.957 72.4034 342.453 72.892C342.949 73.3769 343.197 74.1326 343.197 75.1591V81H341.857V75.1591C341.857 74.5152 341.68 74.0549 341.328 73.7784C340.976 73.5019 340.561 73.3636 340.084 73.3636C339.47 73.3636 338.995 73.5492 338.658 73.9205C338.321 74.2879 338.152 74.7538 338.152 75.3182V81H336.788V75.0227C336.788 74.5265 336.627 74.1269 336.305 73.8239C335.983 73.517 335.569 73.3636 335.061 73.3636C334.713 73.3636 334.387 73.4564 334.084 73.642C333.785 73.8277 333.542 74.0852 333.357 74.4148C333.175 74.7405 333.084 75.1174 333.084 75.5455V81H331.743Z" fill="#1D2939"/>
</svg>
