<svg width="345" height="65" viewBox="0 0 345 65" fill="none" xmlns="http://www.w3.org/2000/svg">
<rect x="45" y="4" width="8" height="28" fill="#E8178A" fill-opacity="0.24"/>
<rect x="34" y="47" width="31" height="18" rx="3" fill="#E8178A"/>
<path d="M43.3026 60.0994C42.7557 60.0994 42.2692 60.0107 41.843 59.8331C41.4193 59.6532 41.0866 59.4081 40.8452 59.098C40.6037 58.7879 40.483 58.4363 40.483 58.0433C40.483 57.7403 40.5516 57.4621 40.6889 57.2088C40.8286 56.9531 41.018 56.7412 41.2571 56.5732C41.4962 56.4027 41.7637 56.2938 42.0597 56.2464V56.1967C41.6714 56.1186 41.3565 55.9304 41.1151 55.6321C40.8736 55.3314 40.7528 54.9822 40.7528 54.5845C40.7528 54.2081 40.8629 53.8731 41.0831 53.5795C41.3033 53.2836 41.6051 53.0516 41.9886 52.8835C42.3745 52.7131 42.8125 52.6278 43.3026 52.6278C43.7926 52.6278 44.2294 52.7131 44.6129 52.8835C44.9988 53.054 45.3018 53.2872 45.522 53.5831C45.7422 53.8767 45.8535 54.2105 45.8558 54.5845C45.8535 54.9846 45.7304 55.3338 45.4865 55.6321C45.2427 55.9304 44.9302 56.1186 44.549 56.1967V56.2464C44.8402 56.2938 45.1042 56.4027 45.3409 56.5732C45.58 56.7412 45.7694 56.9531 45.9091 57.2088C46.0511 57.4621 46.1233 57.7403 46.1257 58.0433C46.1233 58.4363 46.0014 58.7879 45.7599 59.098C45.5185 59.4081 45.1847 59.6532 44.7585 59.8331C44.3348 60.0107 43.8494 60.0994 43.3026 60.0994ZM43.3026 58.9702C43.5464 58.9702 43.7595 58.9264 43.9418 58.8388C44.1241 58.7488 44.2661 58.6257 44.3679 58.4695C44.4721 58.3108 44.5241 58.1286 44.5241 57.9226C44.5241 57.7119 44.4709 57.526 44.3643 57.3651C44.2578 57.2017 44.1134 57.0739 43.9311 56.9815C43.7488 56.8868 43.5393 56.8395 43.3026 56.8395C43.0682 56.8395 42.8587 56.8868 42.674 56.9815C42.4893 57.0739 42.3438 57.2017 42.2372 57.3651C42.133 57.526 42.081 57.7119 42.081 57.9226C42.081 58.1286 42.1319 58.3108 42.2337 58.4695C42.3355 58.6257 42.4787 58.7488 42.6634 58.8388C42.848 58.9264 43.0611 58.9702 43.3026 58.9702ZM43.3026 55.7209C43.5062 55.7209 43.6873 55.6795 43.8459 55.5966C44.0045 55.5137 44.1288 55.3989 44.2188 55.2521C44.3087 55.1054 44.3537 54.9361 44.3537 54.7443C44.3537 54.5549 44.3087 54.3892 44.2188 54.2472C44.1288 54.1027 44.0057 53.9903 43.8494 53.9098C43.6932 53.8269 43.5109 53.7855 43.3026 53.7855C43.0966 53.7855 42.9143 53.8269 42.7557 53.9098C42.5971 53.9903 42.4728 54.1027 42.3828 54.2472C42.2952 54.3892 42.2514 54.5549 42.2514 54.7443C42.2514 54.9361 42.2964 55.1054 42.3864 55.2521C42.4763 55.3989 42.6006 55.5137 42.7592 55.5966C42.9179 55.6795 43.099 55.7209 43.3026 55.7209ZM47.215 62.0455V54.5455H48.7065V55.4616H48.774C48.8403 55.3149 48.9361 55.1657 49.0616 55.0142C49.1895 54.8603 49.3552 54.7325 49.5588 54.6307C49.7647 54.5265 50.0204 54.4744 50.3258 54.4744C50.7235 54.4744 51.0905 54.5786 51.4267 54.7869C51.7628 54.9929 52.0315 55.3042 52.2328 55.7209C52.434 56.1352 52.5346 56.6548 52.5346 57.2798C52.5346 57.8883 52.4364 58.402 52.2399 58.821C52.0458 59.2377 51.7806 59.5537 51.4444 59.7692C51.1106 59.9822 50.7366 60.0888 50.3223 60.0888C50.0287 60.0888 49.7789 60.0402 49.573 59.9432C49.3694 59.8461 49.2025 59.7242 49.0723 59.5774C48.9421 59.4283 48.8426 59.2779 48.774 59.1264H48.7278V62.0455H47.215ZM48.6958 57.2727C48.6958 57.5971 48.7408 57.88 48.8308 58.1214C48.9208 58.3629 49.051 58.5511 49.2214 58.6861C49.3919 58.8187 49.599 58.8849 49.8429 58.8849C50.0891 58.8849 50.2974 58.8175 50.4679 58.6825C50.6383 58.5452 50.7673 58.3558 50.8549 58.1143C50.9449 57.8705 50.9899 57.59 50.9899 57.2727C50.9899 56.9579 50.9461 56.6809 50.8585 56.4418C50.7709 56.2027 50.6419 56.0156 50.4714 55.8807C50.301 55.7457 50.0914 55.6783 49.8429 55.6783C49.5967 55.6783 49.3883 55.7434 49.2179 55.8736C49.0498 56.0038 48.9208 56.1884 48.8308 56.4276C48.7408 56.6667 48.6958 56.9484 48.6958 57.2727ZM54.612 54.5455L55.6135 56.4524L56.6397 54.5455H58.1916L56.6113 57.2727L58.2342 60H56.6895L55.6135 58.1143L54.5552 60H52.9927L54.612 57.2727L53.0495 54.5455H54.612Z" fill="white"/>
<path d="M45 42.5H53" stroke="#E8178A"/>
<line x1="45.5" y1="46" x2="45.5" y2="39" stroke="#E8178A"/>
<line x1="52.5" y1="46" x2="52.5" y2="39" stroke="#E8178A"/>
<path d="M1.40909 22V10.3636H2.81818V15.5455H9.02273V10.3636H10.4318V22H9.02273V16.7955H2.81818V22H1.40909ZM16.6165 22.1818C15.8286 22.1818 15.1373 21.9943 14.5426 21.6193C13.9517 21.2443 13.4896 20.7197 13.1562 20.0455C12.8267 19.3712 12.6619 18.5833 12.6619 17.6818C12.6619 16.7727 12.8267 15.9792 13.1562 15.3011C13.4896 14.6231 13.9517 14.0966 14.5426 13.7216C15.1373 13.3466 15.8286 13.1591 16.6165 13.1591C17.4044 13.1591 18.0938 13.3466 18.6847 13.7216C19.2794 14.0966 19.7415 14.6231 20.071 15.3011C20.4044 15.9792 20.571 16.7727 20.571 17.6818C20.571 18.5833 20.4044 19.3712 20.071 20.0455C19.7415 20.7197 19.2794 21.2443 18.6847 21.6193C18.0938 21.9943 17.4044 22.1818 16.6165 22.1818ZM16.6165 20.9773C17.215 20.9773 17.7074 20.8239 18.0938 20.517C18.4801 20.2102 18.7661 19.8068 18.9517 19.3068C19.1373 18.8068 19.2301 18.2652 19.2301 17.6818C19.2301 17.0985 19.1373 16.5549 18.9517 16.0511C18.7661 15.5473 18.4801 15.1402 18.0938 14.8295C17.7074 14.5189 17.215 14.3636 16.6165 14.3636C16.018 14.3636 15.5256 14.5189 15.1392 14.8295C14.7528 15.1402 14.4669 15.5473 14.2812 16.0511C14.0956 16.5549 14.0028 17.0985 14.0028 17.6818C14.0028 18.2652 14.0956 18.8068 14.2812 19.3068C14.4669 19.8068 14.7528 20.2102 15.1392 20.517C15.5256 20.8239 16.018 20.9773 16.6165 20.9773ZM22.6179 22V13.2727H23.9134V14.6364H24.027C24.2088 14.1705 24.5024 13.8087 24.9077 13.5511C25.313 13.2898 25.7997 13.1591 26.3679 13.1591C26.9437 13.1591 27.4228 13.2898 27.8054 13.5511C28.1918 13.8087 28.4929 14.1705 28.7088 14.6364H28.7997C29.0232 14.1856 29.3584 13.8277 29.8054 13.5625C30.2524 13.2936 30.7884 13.1591 31.4134 13.1591C32.1937 13.1591 32.8319 13.4034 33.3281 13.892C33.8243 14.3769 34.0724 15.1326 34.0724 16.1591V22H32.7315V16.1591C32.7315 15.5152 32.5554 15.0549 32.2031 14.7784C31.8509 14.5019 31.4361 14.3636 30.9588 14.3636C30.3452 14.3636 29.8698 14.5492 29.5327 14.9205C29.1955 15.2879 29.027 15.7538 29.027 16.3182V22H27.6634V16.0227C27.6634 15.5265 27.5024 15.1269 27.1804 14.8239C26.8584 14.517 26.4437 14.3636 25.9361 14.3636C25.5876 14.3636 25.2618 14.4564 24.9588 14.642C24.6596 14.8277 24.4171 15.0852 24.2315 15.4148C24.0497 15.7405 23.9588 16.1174 23.9588 16.5455V22H22.6179ZM40.1832 22.1818C39.3423 22.1818 38.617 21.9962 38.0071 21.625C37.401 21.25 36.9332 20.7273 36.6037 20.0568C36.2779 19.3826 36.1151 18.5985 36.1151 17.7045C36.1151 16.8106 36.2779 16.0227 36.6037 15.3409C36.9332 14.6553 37.3916 14.1212 37.9787 13.7386C38.5696 13.3523 39.259 13.1591 40.0469 13.1591C40.5014 13.1591 40.9503 13.2348 41.3935 13.3864C41.8366 13.5379 42.2401 13.7841 42.6037 14.125C42.9673 14.4621 43.2571 14.9091 43.473 15.4659C43.6889 16.0227 43.7969 16.7083 43.7969 17.5227V18.0909H37.0696V16.9318H42.4332C42.4332 16.4394 42.3348 16 42.1378 15.6136C41.9446 15.2273 41.6681 14.9223 41.3082 14.6989C40.9522 14.4754 40.5317 14.3636 40.0469 14.3636C39.5128 14.3636 39.0507 14.4962 38.6605 14.7614C38.2741 15.0227 37.9768 15.3636 37.7685 15.7841C37.5601 16.2045 37.456 16.6553 37.456 17.1364V17.9091C37.456 18.5682 37.5696 19.1269 37.7969 19.5852C38.0279 20.0398 38.348 20.3864 38.7571 20.625C39.1662 20.8598 39.6416 20.9773 40.1832 20.9773C40.5355 20.9773 40.8537 20.928 41.1378 20.8295C41.4257 20.7273 41.6738 20.5758 41.8821 20.375C42.0904 20.1705 42.2514 19.9167 42.3651 19.6136L43.6605 19.9773C43.5241 20.4167 43.295 20.803 42.973 21.1364C42.651 21.4659 42.2533 21.7235 41.7798 21.9091C41.3063 22.0909 40.7741 22.1818 40.1832 22.1818Z" fill="#0F71BB"/>
<path d="M0 25.1818H35.2997V26.2727H0V25.1818ZM35.2969 25.1818H44.6151V26.2727H35.2969V25.1818Z" fill="#0F71BB"/>
<path d="M58.3409 9.81818L54.5909 23.75H53.3636L57.1136 9.81818H58.3409Z" fill="#1D2939"/>
<path d="M69.8182 10.3636V22H68.4091V10.3636H69.8182ZM76.2571 13.2727V14.4091H71.7344V13.2727H76.2571ZM73.0526 11.1818H74.3935V19.5C74.3935 19.8788 74.4484 20.1629 74.5582 20.3523C74.6719 20.5379 74.8158 20.6629 74.9901 20.7273C75.1681 20.7879 75.3556 20.8182 75.5526 20.8182C75.7003 20.8182 75.8215 20.8106 75.9162 20.7955C76.0109 20.7765 76.0866 20.7614 76.1435 20.75L76.4162 21.9545C76.3253 21.9886 76.1984 22.0227 76.0355 22.0568C75.8726 22.0947 75.6662 22.1136 75.4162 22.1136C75.0374 22.1136 74.6662 22.0322 74.3026 21.8693C73.9427 21.7064 73.6435 21.4583 73.4048 21.125C73.17 20.7917 73.0526 20.3712 73.0526 19.8636V11.1818ZM81.8395 22.1818C80.9986 22.1818 80.2732 21.9962 79.6634 21.625C79.0573 21.25 78.5895 20.7273 78.2599 20.0568C77.9342 19.3826 77.7713 18.5985 77.7713 17.7045C77.7713 16.8106 77.9342 16.0227 78.2599 15.3409C78.5895 14.6553 79.0478 14.1212 79.6349 13.7386C80.2259 13.3523 80.9152 13.1591 81.7031 13.1591C82.1577 13.1591 82.6065 13.2348 83.0497 13.3864C83.4929 13.5379 83.8963 13.7841 84.2599 14.125C84.6236 14.4621 84.9134 14.9091 85.1293 15.4659C85.3452 16.0227 85.4531 16.7083 85.4531 17.5227V18.0909H78.7259V16.9318H84.0895C84.0895 16.4394 83.991 16 83.794 15.6136C83.6009 15.2273 83.3243 14.9223 82.9645 14.6989C82.6084 14.4754 82.188 14.3636 81.7031 14.3636C81.169 14.3636 80.7069 14.4962 80.3168 14.7614C79.9304 15.0227 79.633 15.3636 79.4247 15.7841C79.2164 16.2045 79.1122 16.6553 79.1122 17.1364V17.9091C79.1122 18.5682 79.2259 19.1269 79.4531 19.5852C79.6842 20.0398 80.0043 20.3864 80.4134 20.625C80.8224 20.8598 81.2978 20.9773 81.8395 20.9773C82.1918 20.9773 82.5099 20.928 82.794 20.8295C83.0819 20.7273 83.33 20.5758 83.5384 20.375C83.7467 20.1705 83.9077 19.9167 84.0213 19.6136L85.3168 19.9773C85.1804 20.4167 84.9512 20.803 84.6293 21.1364C84.3073 21.4659 83.9096 21.7235 83.4361 21.9091C82.9626 22.0909 82.4304 22.1818 81.8395 22.1818ZM87.4929 22V13.2727H88.7884V14.6364H88.902C89.0838 14.1705 89.3774 13.8087 89.7827 13.5511C90.188 13.2898 90.6747 13.1591 91.2429 13.1591C91.8187 13.1591 92.2978 13.2898 92.6804 13.5511C93.0668 13.8087 93.3679 14.1705 93.5838 14.6364H93.6747C93.8982 14.1856 94.2334 13.8277 94.6804 13.5625C95.1274 13.2936 95.6634 13.1591 96.2884 13.1591C97.0687 13.1591 97.7069 13.4034 98.2031 13.892C98.6993 14.3769 98.9474 15.1326 98.9474 16.1591V22H97.6065V16.1591C97.6065 15.5152 97.4304 15.0549 97.0781 14.7784C96.7259 14.5019 96.3111 14.3636 95.8338 14.3636C95.2202 14.3636 94.7448 14.5492 94.4077 14.9205C94.0705 15.2879 93.902 15.7538 93.902 16.3182V22H92.5384V16.0227C92.5384 15.5265 92.3774 15.1269 92.0554 14.8239C91.7334 14.517 91.3187 14.3636 90.8111 14.3636C90.4626 14.3636 90.1368 14.4564 89.8338 14.642C89.5346 14.8277 89.2921 15.0852 89.1065 15.4148C88.9247 15.7405 88.8338 16.1174 88.8338 16.5455V22H87.4929ZM109.967 10.3636V22H108.558V11.8409H108.49L105.649 13.7273V12.2955L108.558 10.3636H109.967Z" fill="#0F71BB"/>
<path d="M67 25.1818H77.0526V26.2727H67V25.1818ZM76.9531 25.1818H86.2713V26.2727H76.9531V25.1818ZM86.2656 25.1818H100.175V26.2727H86.2656V25.1818ZM100.172 25.1818H112.104V26.2727H100.172V25.1818Z" fill="#0F71BB"/>
<path d="M126.341 9.81818L122.591 23.75H121.364L125.114 9.81818H126.341Z" fill="#1D2939"/>
<path d="M137.818 10.3636V22H136.409V10.3636H137.818ZM144.257 13.2727V14.4091H139.734V13.2727H144.257ZM141.053 11.1818H142.393V19.5C142.393 19.8788 142.448 20.1629 142.558 20.3523C142.672 20.5379 142.816 20.6629 142.99 20.7273C143.168 20.7879 143.356 20.8182 143.553 20.8182C143.7 20.8182 143.821 20.8106 143.916 20.7955C144.011 20.7765 144.087 20.7614 144.143 20.75L144.416 21.9545C144.325 21.9886 144.198 22.0227 144.036 22.0568C143.873 22.0947 143.666 22.1136 143.416 22.1136C143.037 22.1136 142.666 22.0322 142.303 21.8693C141.943 21.7064 141.643 21.4583 141.405 21.125C141.17 20.7917 141.053 20.3712 141.053 19.8636V11.1818ZM149.839 22.1818C148.999 22.1818 148.273 21.9962 147.663 21.625C147.057 21.25 146.589 20.7273 146.26 20.0568C145.934 19.3826 145.771 18.5985 145.771 17.7045C145.771 16.8106 145.934 16.0227 146.26 15.3409C146.589 14.6553 147.048 14.1212 147.635 13.7386C148.226 13.3523 148.915 13.1591 149.703 13.1591C150.158 13.1591 150.607 13.2348 151.05 13.3864C151.493 13.5379 151.896 13.7841 152.26 14.125C152.624 14.4621 152.913 14.9091 153.129 15.4659C153.345 16.0227 153.453 16.7083 153.453 17.5227V18.0909H146.726V16.9318H152.089C152.089 16.4394 151.991 16 151.794 15.6136C151.601 15.2273 151.324 14.9223 150.964 14.6989C150.608 14.4754 150.188 14.3636 149.703 14.3636C149.169 14.3636 148.707 14.4962 148.317 14.7614C147.93 15.0227 147.633 15.3636 147.425 15.7841C147.216 16.2045 147.112 16.6553 147.112 17.1364V17.9091C147.112 18.5682 147.226 19.1269 147.453 19.5852C147.684 20.0398 148.004 20.3864 148.413 20.625C148.822 20.8598 149.298 20.9773 149.839 20.9773C150.192 20.9773 150.51 20.928 150.794 20.8295C151.082 20.7273 151.33 20.5758 151.538 20.375C151.747 20.1705 151.908 19.9167 152.021 19.6136L153.317 19.9773C153.18 20.4167 152.951 20.803 152.629 21.1364C152.307 21.4659 151.91 21.7235 151.436 21.9091C150.963 22.0909 150.43 22.1818 149.839 22.1818ZM155.493 22V13.2727H156.788V14.6364H156.902C157.084 14.1705 157.377 13.8087 157.783 13.5511C158.188 13.2898 158.675 13.1591 159.243 13.1591C159.819 13.1591 160.298 13.2898 160.68 13.5511C161.067 13.8087 161.368 14.1705 161.584 14.6364H161.675C161.898 14.1856 162.233 13.8277 162.68 13.5625C163.127 13.2936 163.663 13.1591 164.288 13.1591C165.069 13.1591 165.707 13.4034 166.203 13.892C166.699 14.3769 166.947 15.1326 166.947 16.1591V22H165.607V16.1591C165.607 15.5152 165.43 15.0549 165.078 14.7784C164.726 14.5019 164.311 14.3636 163.834 14.3636C163.22 14.3636 162.745 14.5492 162.408 14.9205C162.071 15.2879 161.902 15.7538 161.902 16.3182V22H160.538V16.0227C160.538 15.5265 160.377 15.1269 160.055 14.8239C159.733 14.517 159.319 14.3636 158.811 14.3636C158.463 14.3636 158.137 14.4564 157.834 14.642C157.535 14.8277 157.292 15.0852 157.107 15.4148C156.925 15.7405 156.834 16.1174 156.834 16.5455V22H155.493ZM173.876 22V20.9773L177.717 16.7727C178.168 16.2803 178.539 15.8523 178.831 15.4886C179.123 15.1212 179.339 14.7765 179.479 14.4545C179.623 14.1288 179.695 13.7879 179.695 13.4318C179.695 13.0227 179.596 12.6686 179.399 12.3693C179.206 12.0701 178.941 11.839 178.604 11.6761C178.267 11.5133 177.888 11.4318 177.467 11.4318C177.02 11.4318 176.63 11.5246 176.297 11.7102C175.967 11.892 175.712 12.1477 175.53 12.4773C175.352 12.8068 175.263 13.1932 175.263 13.6364H173.922C173.922 12.9545 174.079 12.3561 174.393 11.8409C174.708 11.3258 175.136 10.9242 175.678 10.6364C176.223 10.3485 176.835 10.2045 177.513 10.2045C178.195 10.2045 178.799 10.3485 179.325 10.6364C179.852 10.9242 180.265 11.3125 180.564 11.8011C180.863 12.2898 181.013 12.8333 181.013 13.4318C181.013 13.8598 180.935 14.2784 180.78 14.6875C180.628 15.0928 180.363 15.5455 179.984 16.0455C179.609 16.5417 179.089 17.1477 178.422 17.8636L175.808 20.6591V20.75H181.217V22H173.876Z" fill="#0F71BB"/>
<path d="M135 25.1818H145.053V26.2727H135V25.1818ZM144.953 25.1818H154.271V26.2727H144.953V25.1818ZM154.266 25.1818H168.175V26.2727H154.266V25.1818ZM168.172 25.1818H182.354V26.2727H168.172V25.1818Z" fill="#0F71BB"/>
<path d="M196.341 9.81818L192.591 23.75H191.364L195.114 9.81818H196.341Z" fill="#1D2939"/>
<path d="M207.818 10.3636V22H206.409V10.3636H207.818ZM214.257 13.2727V14.4091H209.734V13.2727H214.257ZM211.053 11.1818H212.393V19.5C212.393 19.8788 212.448 20.1629 212.558 20.3523C212.672 20.5379 212.816 20.6629 212.99 20.7273C213.168 20.7879 213.356 20.8182 213.553 20.8182C213.7 20.8182 213.821 20.8106 213.916 20.7955C214.011 20.7765 214.087 20.7614 214.143 20.75L214.416 21.9545C214.325 21.9886 214.198 22.0227 214.036 22.0568C213.873 22.0947 213.666 22.1136 213.416 22.1136C213.037 22.1136 212.666 22.0322 212.303 21.8693C211.943 21.7064 211.643 21.4583 211.405 21.125C211.17 20.7917 211.053 20.3712 211.053 19.8636V11.1818ZM219.839 22.1818C218.999 22.1818 218.273 21.9962 217.663 21.625C217.057 21.25 216.589 20.7273 216.26 20.0568C215.934 19.3826 215.771 18.5985 215.771 17.7045C215.771 16.8106 215.934 16.0227 216.26 15.3409C216.589 14.6553 217.048 14.1212 217.635 13.7386C218.226 13.3523 218.915 13.1591 219.703 13.1591C220.158 13.1591 220.607 13.2348 221.05 13.3864C221.493 13.5379 221.896 13.7841 222.26 14.125C222.624 14.4621 222.913 14.9091 223.129 15.4659C223.345 16.0227 223.453 16.7083 223.453 17.5227V18.0909H216.726V16.9318H222.089C222.089 16.4394 221.991 16 221.794 15.6136C221.601 15.2273 221.324 14.9223 220.964 14.6989C220.608 14.4754 220.188 14.3636 219.703 14.3636C219.169 14.3636 218.707 14.4962 218.317 14.7614C217.93 15.0227 217.633 15.3636 217.425 15.7841C217.216 16.2045 217.112 16.6553 217.112 17.1364V17.9091C217.112 18.5682 217.226 19.1269 217.453 19.5852C217.684 20.0398 218.004 20.3864 218.413 20.625C218.822 20.8598 219.298 20.9773 219.839 20.9773C220.192 20.9773 220.51 20.928 220.794 20.8295C221.082 20.7273 221.33 20.5758 221.538 20.375C221.747 20.1705 221.908 19.9167 222.021 19.6136L223.317 19.9773C223.18 20.4167 222.951 20.803 222.629 21.1364C222.307 21.4659 221.91 21.7235 221.436 21.9091C220.963 22.0909 220.43 22.1818 219.839 22.1818ZM225.493 22V13.2727H226.788V14.6364H226.902C227.084 14.1705 227.377 13.8087 227.783 13.5511C228.188 13.2898 228.675 13.1591 229.243 13.1591C229.819 13.1591 230.298 13.2898 230.68 13.5511C231.067 13.8087 231.368 14.1705 231.584 14.6364H231.675C231.898 14.1856 232.233 13.8277 232.68 13.5625C233.127 13.2936 233.663 13.1591 234.288 13.1591C235.069 13.1591 235.707 13.4034 236.203 13.892C236.699 14.3769 236.947 15.1326 236.947 16.1591V22H235.607V16.1591C235.607 15.5152 235.43 15.0549 235.078 14.7784C234.726 14.5019 234.311 14.3636 233.834 14.3636C233.22 14.3636 232.745 14.5492 232.408 14.9205C232.071 15.2879 231.902 15.7538 231.902 16.3182V22H230.538V16.0227C230.538 15.5265 230.377 15.1269 230.055 14.8239C229.733 14.517 229.319 14.3636 228.811 14.3636C228.463 14.3636 228.137 14.4564 227.834 14.642C227.535 14.8277 227.292 15.0852 227.107 15.4148C226.925 15.7405 226.834 16.1174 226.834 16.5455V22H225.493ZM247.808 22.1591C247.058 22.1591 246.39 22.0303 245.803 21.7727C245.219 21.5152 244.755 21.1572 244.411 20.6989C244.07 20.2367 243.884 19.7008 243.854 19.0909H245.286C245.316 19.4659 245.445 19.7898 245.672 20.0625C245.899 20.3314 246.196 20.5398 246.564 20.6875C246.931 20.8352 247.339 20.9091 247.786 20.9091C248.286 20.9091 248.729 20.822 249.115 20.6477C249.501 20.4735 249.804 20.2311 250.024 19.9205C250.244 19.6098 250.354 19.25 250.354 18.8409C250.354 18.4129 250.248 18.036 250.036 17.7102C249.823 17.3807 249.513 17.1231 249.104 16.9375C248.695 16.7519 248.195 16.6591 247.604 16.6591H246.672V15.4091H247.604C248.066 15.4091 248.471 15.3258 248.82 15.1591C249.172 14.9924 249.446 14.7576 249.643 14.4545C249.844 14.1515 249.945 13.7955 249.945 13.3864C249.945 12.9924 249.857 12.6496 249.683 12.358C249.509 12.0663 249.263 11.839 248.945 11.6761C248.63 11.5133 248.259 11.4318 247.831 11.4318C247.429 11.4318 247.051 11.5057 246.695 11.6534C246.342 11.7973 246.054 12.0076 245.831 12.2841C245.607 12.5568 245.486 12.8864 245.467 13.2727H244.104C244.126 12.6629 244.31 12.1288 244.655 11.6705C245 11.2083 245.45 10.8485 246.007 10.5909C246.568 10.3333 247.183 10.2045 247.854 10.2045C248.573 10.2045 249.191 10.3504 249.706 10.642C250.221 10.9299 250.617 11.3106 250.893 11.7841C251.17 12.2576 251.308 12.7689 251.308 13.3182C251.308 13.9735 251.136 14.5322 250.791 14.9943C250.45 15.4564 249.986 15.7765 249.399 15.9545V16.0455C250.134 16.1667 250.708 16.4792 251.121 16.983C251.534 17.483 251.74 18.1023 251.74 18.8409C251.74 19.4735 251.568 20.0417 251.223 20.5455C250.882 21.0455 250.416 21.4394 249.825 21.7273C249.234 22.0152 248.562 22.1591 247.808 22.1591Z" fill="#0F71BB"/>
<path d="M205 25.1818H215.053V26.2727H205V25.1818ZM214.953 25.1818H224.271V26.2727H214.953V25.1818ZM224.266 25.1818H238.175V26.2727H224.266V25.1818ZM238.172 25.1818H252.854V26.2727H238.172V25.1818Z" fill="#0F71BB"/>
<path d="M266.341 9.81818L262.591 23.75H261.364L265.114 9.81818H266.341Z" fill="#1D2939"/>
<path d="M276.409 22V10.3636H277.818V20.75H283.227V22H276.409ZM287.795 22.2045C287.242 22.2045 286.741 22.1004 286.29 21.892C285.839 21.6799 285.481 21.375 285.216 20.9773C284.951 20.5758 284.818 20.0909 284.818 19.5227C284.818 19.0227 284.917 18.6174 285.114 18.3068C285.311 17.9924 285.574 17.7462 285.903 17.5682C286.233 17.3902 286.597 17.2576 286.994 17.1705C287.396 17.0795 287.799 17.0076 288.205 16.9545C288.735 16.8864 289.165 16.8352 289.494 16.8011C289.828 16.7633 290.07 16.7008 290.222 16.6136C290.377 16.5265 290.455 16.375 290.455 16.1591V16.1136C290.455 15.553 290.301 15.1174 289.994 14.8068C289.691 14.4962 289.231 14.3409 288.614 14.3409C287.973 14.3409 287.472 14.4811 287.108 14.7614C286.744 15.0417 286.489 15.3409 286.341 15.6591L285.068 15.2045C285.295 14.6742 285.598 14.2614 285.977 13.9659C286.36 13.6667 286.777 13.4583 287.227 13.3409C287.682 13.2197 288.129 13.1591 288.568 13.1591C288.848 13.1591 289.17 13.1932 289.534 13.2614C289.902 13.3258 290.256 13.4602 290.597 13.6648C290.941 13.8693 291.227 14.178 291.455 14.5909C291.682 15.0038 291.795 15.5568 291.795 16.25V22H290.455V20.8182H290.386C290.295 21.0076 290.144 21.2102 289.932 21.4261C289.72 21.642 289.438 21.8258 289.085 21.9773C288.733 22.1288 288.303 22.2045 287.795 22.2045ZM288 21C288.53 21 288.977 20.8958 289.341 20.6875C289.708 20.4792 289.985 20.2102 290.17 19.8807C290.36 19.5511 290.455 19.2045 290.455 18.8409V17.6136C290.398 17.6818 290.273 17.7443 290.08 17.8011C289.89 17.8542 289.67 17.9015 289.42 17.9432C289.174 17.9811 288.934 18.0152 288.699 18.0455C288.468 18.072 288.28 18.0947 288.136 18.1136C287.788 18.1591 287.462 18.233 287.159 18.3352C286.86 18.4337 286.617 18.5833 286.432 18.7841C286.25 18.9811 286.159 19.25 286.159 19.5909C286.159 20.0568 286.331 20.4091 286.676 20.6477C287.025 20.8826 287.466 21 288 21ZM300.425 15.2273L299.22 15.5682C299.144 15.3674 299.033 15.1723 298.885 14.983C298.741 14.7898 298.544 14.6307 298.294 14.5057C298.044 14.3807 297.724 14.3182 297.334 14.3182C296.8 14.3182 296.355 14.4413 295.999 14.6875C295.646 14.9299 295.47 15.2386 295.47 15.6136C295.47 15.947 295.591 16.2102 295.834 16.4034C296.076 16.5966 296.455 16.7576 296.97 16.8864L298.266 17.2045C299.046 17.3939 299.627 17.6837 300.01 18.0739C300.393 18.4602 300.584 18.9583 300.584 19.5682C300.584 20.0682 300.44 20.5152 300.152 20.9091C299.868 21.303 299.47 21.6136 298.959 21.8409C298.447 22.0682 297.853 22.1818 297.175 22.1818C296.285 22.1818 295.548 21.9886 294.964 21.6023C294.381 21.2159 294.012 20.6515 293.857 19.9091L295.129 19.5909C295.25 20.0606 295.48 20.4129 295.817 20.6477C296.158 20.8826 296.603 21 297.152 21C297.777 21 298.273 20.8674 298.641 20.6023C299.012 20.3333 299.197 20.0114 299.197 19.6364C299.197 19.3333 299.091 19.0795 298.879 18.875C298.667 18.6667 298.341 18.5114 297.902 18.4091L296.447 18.0682C295.648 17.8788 295.061 17.5852 294.686 17.1875C294.315 16.786 294.129 16.2841 294.129 15.6818C294.129 15.1894 294.268 14.7538 294.544 14.375C294.824 13.9962 295.205 13.6989 295.686 13.483C296.171 13.267 296.72 13.1591 297.334 13.1591C298.197 13.1591 298.875 13.3485 299.368 13.7273C299.864 14.1061 300.216 14.6061 300.425 15.2273ZM306.398 13.2727V14.4091H301.875V13.2727H306.398ZM303.193 11.1818H304.534V19.5C304.534 19.8788 304.589 20.1629 304.699 20.3523C304.813 20.5379 304.956 20.6629 305.131 20.7273C305.309 20.7879 305.496 20.8182 305.693 20.8182C305.841 20.8182 305.962 20.8106 306.057 20.7955C306.152 20.7765 306.227 20.7614 306.284 20.75L306.557 21.9545C306.466 21.9886 306.339 22.0227 306.176 22.0568C306.013 22.0947 305.807 22.1136 305.557 22.1136C305.178 22.1136 304.807 22.0322 304.443 21.8693C304.083 21.7064 303.784 21.4583 303.545 21.125C303.311 20.7917 303.193 20.3712 303.193 19.8636V11.1818ZM312.915 22V13.2727H314.256V22H312.915ZM313.597 11.8182C313.335 11.8182 313.11 11.7292 312.92 11.5511C312.735 11.3731 312.642 11.1591 312.642 10.9091C312.642 10.6591 312.735 10.4451 312.92 10.267C313.11 10.089 313.335 10 313.597 10C313.858 10 314.081 10.089 314.267 10.267C314.456 10.4451 314.551 10.6591 314.551 10.9091C314.551 11.1591 314.456 11.3731 314.267 11.5511C314.081 11.7292 313.858 11.8182 313.597 11.8182ZM320.507 13.2727V14.4091H315.984V13.2727H320.507ZM317.303 11.1818H318.643V19.5C318.643 19.8788 318.698 20.1629 318.808 20.3523C318.922 20.5379 319.066 20.6629 319.24 20.7273C319.418 20.7879 319.606 20.8182 319.803 20.8182C319.95 20.8182 320.071 20.8106 320.166 20.7955C320.261 20.7765 320.337 20.7614 320.393 20.75L320.666 21.9545C320.575 21.9886 320.448 22.0227 320.286 22.0568C320.123 22.0947 319.916 22.1136 319.666 22.1136C319.287 22.1136 318.916 22.0322 318.553 21.8693C318.193 21.7064 317.893 21.4583 317.655 21.125C317.42 20.7917 317.303 20.3712 317.303 19.8636V11.1818ZM326.089 22.1818C325.249 22.1818 324.523 21.9962 323.913 21.625C323.307 21.25 322.839 20.7273 322.51 20.0568C322.184 19.3826 322.021 18.5985 322.021 17.7045C322.021 16.8106 322.184 16.0227 322.51 15.3409C322.839 14.6553 323.298 14.1212 323.885 13.7386C324.476 13.3523 325.165 13.1591 325.953 13.1591C326.408 13.1591 326.857 13.2348 327.3 13.3864C327.743 13.5379 328.146 13.7841 328.51 14.125C328.874 14.4621 329.163 14.9091 329.379 15.4659C329.595 16.0227 329.703 16.7083 329.703 17.5227V18.0909H322.976V16.9318H328.339C328.339 16.4394 328.241 16 328.044 15.6136C327.851 15.2273 327.574 14.9223 327.214 14.6989C326.858 14.4754 326.438 14.3636 325.953 14.3636C325.419 14.3636 324.957 14.4962 324.567 14.7614C324.18 15.0227 323.883 15.3636 323.675 15.7841C323.466 16.2045 323.362 16.6553 323.362 17.1364V17.9091C323.362 18.5682 323.476 19.1269 323.703 19.5852C323.934 20.0398 324.254 20.3864 324.663 20.625C325.072 20.8598 325.548 20.9773 326.089 20.9773C326.442 20.9773 326.76 20.928 327.044 20.8295C327.332 20.7273 327.58 20.5758 327.788 20.375C327.997 20.1705 328.158 19.9167 328.271 19.6136L329.567 19.9773C329.43 20.4167 329.201 20.803 328.879 21.1364C328.557 21.4659 328.16 21.7235 327.686 21.9091C327.213 22.0909 326.68 22.1818 326.089 22.1818ZM331.743 22V13.2727H333.038V14.6364H333.152C333.334 14.1705 333.627 13.8087 334.033 13.5511C334.438 13.2898 334.925 13.1591 335.493 13.1591C336.069 13.1591 336.548 13.2898 336.93 13.5511C337.317 13.8087 337.618 14.1705 337.834 14.6364H337.925C338.148 14.1856 338.483 13.8277 338.93 13.5625C339.377 13.2936 339.913 13.1591 340.538 13.1591C341.319 13.1591 341.957 13.4034 342.453 13.892C342.949 14.3769 343.197 15.1326 343.197 16.1591V22H341.857V16.1591C341.857 15.5152 341.68 15.0549 341.328 14.7784C340.976 14.5019 340.561 14.3636 340.084 14.3636C339.47 14.3636 338.995 14.5492 338.658 14.9205C338.321 15.2879 338.152 15.7538 338.152 16.3182V22H336.788V16.0227C336.788 15.5265 336.627 15.1269 336.305 14.8239C335.983 14.517 335.569 14.3636 335.061 14.3636C334.713 14.3636 334.387 14.4564 334.084 14.642C333.785 14.8277 333.542 15.0852 333.357 15.4148C333.175 15.7405 333.084 16.1174 333.084 16.5455V22H331.743Z" fill="#1D2939"/>
</svg>
