<svg width="414" height="201" viewBox="0 0 414 201" fill="none" xmlns="http://www.w3.org/2000/svg"><path d="M12.085 31 8.338 17.91h3.023l2.167 9.095h.109l2.39-9.096h2.59L21 27.024h.115l2.167-9.115h3.024L22.56 31h-2.697l-2.493-8.559h-.102L14.781 31h-2.697Zm15.652 0v-9.818h2.723V31h-2.723Zm1.368-11.084a1.48 1.48 0 0 1-1.042-.402 1.306 1.306 0 0 1-.428-.979c0-.375.142-.696.428-.965.29-.272.637-.409 1.042-.409s.75.137 1.035.41c.29.268.435.59.435.964 0 .38-.145.706-.435.979-.285.268-.63.402-1.035.402Zm8.759 1.266v2.045H31.95v-2.045h5.913Zm-4.57-2.352h2.722v9.153c0 .251.039.447.115.588a.634.634 0 0 0 .32.288c.14.055.303.083.486.083.128 0 .256-.01.383-.032l.294-.058.429 2.027a7.658 7.658 0 0 1-.576.147c-.247.06-.547.095-.9.108-.657.026-1.233-.062-1.727-.262-.49-.2-.871-.511-1.144-.933-.273-.422-.407-.955-.403-1.598v-9.512Zm9.277 6.494V31h-2.723V17.91h2.647v5.004h.115c.221-.58.58-1.033 1.074-1.361.494-.333 1.114-.499 1.86-.499.681 0 1.276.15 1.783.447a2.99 2.99 0 0 1 1.189 1.272c.285.55.426 1.209.422 1.976V31h-2.723v-5.766c.004-.605-.15-1.076-.46-1.412-.307-.337-.738-.505-1.292-.505-.37 0-.698.079-.984.236a1.676 1.676 0 0 0-.665.69c-.157.299-.238.659-.243 1.08ZM51.081 31v-9.818h2.723V31H51.08Zm1.368-11.084a1.48 1.48 0 0 1-1.042-.402 1.306 1.306 0 0 1-.428-.979c0-.375.142-.696.428-.965a1.47 1.47 0 0 1 1.042-.409c.404 0 .75.137 1.035.41.29.268.435.59.435.964 0 .38-.145.706-.435.979-.285.268-.63.402-1.035.402Zm6.26 5.408V31h-2.724v-9.818h2.595v1.732h.115a2.739 2.739 0 0 1 1.093-1.355c.512-.337 1.132-.505 1.86-.505.682 0 1.277.15 1.784.447.507.299.901.725 1.182 1.279.282.55.422 1.206.422 1.969V31h-2.723v-5.766c.005-.6-.149-1.07-.46-1.406-.311-.34-.74-.511-1.285-.511-.366 0-.69.079-.971.236a1.648 1.648 0 0 0-.652.69c-.154.299-.233.659-.237 1.08Zm17.862-4.142v2.045h-5.913v-2.045h5.913ZM72 18.83h2.722v9.153c0 .251.039.447.115.588a.635.635 0 0 0 .32.288c.14.055.303.083.486.083.128 0 .255-.01.383-.032l.294-.058.429 2.027a7.666 7.666 0 0 1-.576.147 4.62 4.62 0 0 1-.9.108c-.657.026-1.233-.062-1.727-.262-.49-.2-.871-.511-1.144-.933-.273-.422-.407-.955-.403-1.598v-9.512Zm9.277 6.494V31h-2.723V17.91h2.647v5.004h.115c.221-.58.58-1.033 1.074-1.361.494-.333 1.114-.499 1.86-.499.681 0 1.276.15 1.783.447.511.294.908.718 1.189 1.272.285.55.426 1.209.422 1.976V31h-2.723v-5.766c.004-.605-.15-1.076-.46-1.412-.307-.337-.738-.505-1.291-.505-.371 0-.7.079-.985.236a1.676 1.676 0 0 0-.665.69c-.157.299-.238.659-.243 1.08Zm12.984 5.868c-1.01 0-1.879-.205-2.608-.614a4.202 4.202 0 0 1-1.674-1.751c-.392-.759-.589-1.656-.589-2.691 0-1.01.197-1.897.589-2.66a4.347 4.347 0 0 1 1.655-1.783c.716-.426 1.555-.639 2.519-.639.647 0 1.25.104 1.809.313a4.013 4.013 0 0 1 1.47.927c.422.413.75.933.984 1.56.234.622.352 1.35.352 2.186v.748h-8.29V25.1h5.726c0-.392-.085-.74-.255-1.042a1.832 1.832 0 0 0-.71-.71 2.024 2.024 0 0 0-1.042-.261c-.413 0-.78.096-1.1.287a2.017 2.017 0 0 0-.74.76 2.14 2.14 0 0 0-.275 1.056v1.604c0 .486.09.906.268 1.26.183.353.441.626.773.817.333.192.727.288 1.183.288.303 0 .58-.043.831-.128s.467-.213.646-.383c.178-.17.315-.38.409-.627l2.518.166a3.439 3.439 0 0 1-.786 1.586c-.392.447-.9.797-1.521 1.048-.618.247-1.332.37-2.142.37Zm15.672-10.01v2.045h-5.913v-2.045h5.913Zm-4.57-2.352h2.723v9.153c0 .251.038.447.115.588a.632.632 0 0 0 .319.288c.141.055.303.083.486.083.128 0 .256-.01.384-.032l.294-.058.428 2.027a7.63 7.63 0 0 1-.575.147c-.248.06-.548.095-.902.108-.656.026-1.231-.062-1.725-.262a2.408 2.408 0 0 1-1.145-.933c-.272-.422-.407-.955-.402-1.598v-9.512Zm10.674 12.362c-.993 0-1.851-.211-2.576-.633a4.33 4.33 0 0 1-1.668-1.777c-.392-.763-.588-1.647-.588-2.653 0-1.014.196-1.9.588-2.659a4.28 4.28 0 0 1 1.668-1.777c.725-.426 1.583-.639 2.576-.639.993 0 1.85.213 2.57.64a4.27 4.27 0 0 1 1.675 1.776c.392.759.588 1.645.588 2.66 0 1.005-.196 1.89-.588 2.652a4.32 4.32 0 0 1-1.675 1.777c-.72.422-1.577.633-2.57.633Zm.013-2.11c.452 0 .829-.128 1.132-.383.302-.26.53-.614.683-1.061.158-.448.237-.957.237-1.528 0-.57-.079-1.08-.237-1.528-.153-.447-.381-.8-.683-1.06-.303-.26-.68-.39-1.132-.39-.456 0-.839.13-1.15.39-.307.26-.539.613-.697 1.06-.154.448-.23.957-.23 1.528 0 .571.076 1.08.23 1.528.158.447.39.8.697 1.06.311.256.694.384 1.15.384Zm9.39 2.103c-.626 0-1.185-.108-1.675-.326a2.693 2.693 0 0 1-1.163-.978c-.281-.434-.422-.976-.422-1.623 0-.546.1-1.004.301-1.374.2-.371.473-.67.818-.895a3.965 3.965 0 0 1 1.176-.512 8.958 8.958 0 0 1 1.393-.243c.571-.06 1.032-.115 1.381-.166.349-.055.603-.136.761-.243a.535.535 0 0 0 .236-.473v-.038c0-.405-.128-.718-.383-.94-.252-.221-.61-.332-1.074-.332-.49 0-.88.109-1.17.326-.29.213-.482.481-.575.805l-2.519-.204a3.42 3.42 0 0 1 .755-1.547 3.616 3.616 0 0 1 1.451-1.01c.596-.239 1.286-.358 2.071-.358.545 0 1.067.064 1.566.192a4.12 4.12 0 0 1 1.336.594c.392.269.701.614.926 1.036.226.417.339.918.339 1.502V31h-2.582v-1.361h-.077a2.781 2.781 0 0 1-.633.811c-.264.23-.581.412-.952.544a3.94 3.94 0 0 1-1.285.191Zm.78-1.879a2.3 2.3 0 0 0 1.061-.236c.307-.162.548-.38.722-.652a1.68 1.68 0 0 0 .262-.927v-1.042a1.453 1.453 0 0 1-.351.153 6.431 6.431 0 0 1-.492.122c-.184.034-.367.066-.55.096l-.499.07a3.381 3.381 0 0 0-.837.224 1.33 1.33 0 0 0-.556.415c-.132.17-.198.384-.198.64 0 .37.134.653.402.85.273.191.618.287 1.036.287Zm15.031-5.325-2.493.154a1.289 1.289 0 0 0-.275-.575 1.46 1.46 0 0 0-.556-.416 1.89 1.89 0 0 0-.812-.16c-.422 0-.778.09-1.067.269-.29.175-.435.409-.435.703 0 .234.094.433.281.594.188.162.509.292.965.39l1.777.358c.955.196 1.667.512 2.135.946.469.435.703 1.006.703 1.713 0 .644-.189 1.209-.568 1.694-.375.486-.891.865-1.547 1.138-.652.268-1.404.403-2.257.403-1.299 0-2.335-.27-3.106-.812-.767-.546-1.217-1.287-1.349-2.224l2.678-.141c.081.396.277.699.588.908.311.204.71.306 1.196.306.477 0 .861-.091 1.15-.274.294-.188.443-.429.448-.723a.755.755 0 0 0-.313-.607c-.205-.162-.52-.285-.946-.37l-1.701-.34c-.959-.191-1.672-.524-2.141-.997-.465-.473-.697-1.076-.697-1.809 0-.63.171-1.174.512-1.63.345-.456.828-.807 1.451-1.054.626-.247 1.359-.371 2.198-.371 1.24 0 2.216.262 2.928.786.716.524 1.133 1.238 1.253 2.142Zm7.16-2.8v2.046H142.5v-2.045h5.912Zm-4.57-2.352h2.723v9.154c0 .251.039.447.115.588a.634.634 0 0 0 .32.288c.14.055.302.083.486.083.127 0 .255-.01.383-.032l.294-.058.428 2.027a7.63 7.63 0 0 1-.575.147 4.6 4.6 0 0 1-.901.108c-.656.026-1.232-.062-1.726-.262a2.41 2.41 0 0 1-1.144-.933c-.273-.422-.407-.955-.403-1.598v-9.512Z" fill="#344054"/><g filter="url(#a)"><path d="M8 8h351a4 4 0 0 1 4 4v144a4 4 0 0 1-4 4H8V8Z" fill="#fff"/><path d="M8.5 8.5H359a3.5 3.5 0 0 1 3.5 3.5v144a3.5 3.5 0 0 1-3.5 3.5H8.5V8.5Z" stroke="#FB7463"/><path fill="#D7260F" d="M8 8h6v152H8zm34 35.875a7.875 7.875 0 1 1 0-15.75 7.875 7.875 0 0 1 0 15.75ZM42 45a9 9 0 1 0 0-18 9 9 0 0 0 0 18Z"/><path d="M40.877 39.375a1.126 1.126 0 1 1 2.252 0 1.126 1.126 0 0 1-2.252 0Zm.11-6.755A1.02 1.02 0 0 1 42 31.495a1.018 1.018 0 0 1 1.012 1.125l-.393 3.945a.62.62 0 0 1-1.238 0l-.394-3.945ZM63.011 42V30.364h2.46v9.608h4.99V42h-7.45Zm11.522.165c-.557 0-1.053-.097-1.489-.29a2.397 2.397 0 0 1-1.034-.87c-.25-.386-.375-.867-.375-1.443 0-.484.089-.892.267-1.221.178-.33.42-.595.727-.796.307-.2.656-.352 1.046-.454a7.97 7.97 0 0 1 1.238-.216c.508-.053.917-.102 1.228-.148.31-.049.536-.12.676-.216a.475.475 0 0 0 .21-.42v-.034c0-.36-.114-.638-.34-.835-.224-.197-.543-.296-.956-.296-.435 0-.782.097-1.04.29-.257.19-.427.428-.51.716l-2.24-.182a3.05 3.05 0 0 1 .671-1.375c.334-.39.764-.69 1.29-.898.53-.212 1.144-.318 1.84-.318.486 0 .95.057 1.393.17.447.114.843.29 1.187.529.349.239.623.545.824.92.201.372.301.817.301 1.336V42h-2.295v-1.21h-.068a2.45 2.45 0 0 1-.563.721 2.603 2.603 0 0 1-.846.483c-.33.114-.71.17-1.142.17Zm.693-1.67c.356 0 .67-.07.943-.21a1.67 1.67 0 0 0 .642-.58c.155-.243.233-.517.233-.824v-.926c-.076.049-.18.094-.313.136a5.692 5.692 0 0 1-.437.108c-.163.03-.326.059-.489.085l-.443.063a2.991 2.991 0 0 0-.744.198 1.19 1.19 0 0 0-.494.37.9.9 0 0 0-.177.568c0 .33.12.581.358.756.243.17.55.255.92.255Zm11.696-2.21v-5.012h2.42V42H87.02v-1.585h-.091a2.578 2.578 0 0 1-.983 1.233c-.455.31-1.01.466-1.665.466-.584 0-1.097-.133-1.54-.398a2.734 2.734 0 0 1-1.04-1.13c-.246-.49-.37-1.075-.375-1.756v-5.557h2.42v5.125c.004.515.143.922.415 1.221.273.3.639.45 1.097.45.292 0 .564-.067.818-.2a1.56 1.56 0 0 0 .614-.602c.159-.265.237-.593.233-.983Zm6.777-1.33V42h-2.42v-8.727h2.306v1.54h.103c.193-.508.516-.91.971-1.205.455-.3 1.006-.449 1.653-.449.607 0 1.135.133 1.586.398.45.265.8.644 1.05 1.136.25.489.376 1.072.376 1.75V42h-2.42v-5.125c.003-.534-.133-.95-.41-1.25-.276-.303-.657-.455-1.142-.455-.326 0-.613.07-.863.21a1.46 1.46 0 0 0-.58.614c-.136.266-.206.586-.21.96Zm11.476 5.215c-.894 0-1.663-.189-2.307-.568a3.837 3.837 0 0 1-1.477-1.59c-.341-.679-.512-1.459-.512-2.342 0-.894.173-1.678.517-2.352a3.845 3.845 0 0 1 1.483-1.585c.64-.383 1.402-.574 2.284-.574.762 0 1.428.138 2 .415a3.34 3.34 0 0 1 1.358 1.165c.334.5.517 1.087.551 1.761h-2.284c-.064-.436-.234-.786-.511-1.051-.273-.27-.631-.404-1.074-.404-.375 0-.703.103-.983.307-.276.201-.492.495-.648.881-.155.386-.233.854-.233 1.403 0 .557.076 1.03.228 1.42.155.391.373.688.653.893.28.204.608.307.983.307.277 0 .525-.057.744-.17.224-.114.408-.28.552-.495.147-.22.244-.483.289-.79h2.284c-.037.667-.219 1.254-.545 1.761a3.295 3.295 0 0 1-1.335 1.182c-.568.284-1.241.426-2.017.426Zm7.868-5.215V42h-2.421V30.364h2.352v4.448h.103c.197-.515.515-.918.954-1.21.44-.295.991-.443 1.654-.443.606 0 1.134.133 1.585.398a2.66 2.66 0 0 1 1.057 1.13c.253.49.378 1.074.375 1.756V42h-2.421v-5.125c.004-.538-.132-.956-.409-1.256-.273-.299-.655-.449-1.148-.449-.329 0-.621.07-.875.21-.25.14-.447.345-.59.614-.141.266-.213.586-.216.96ZM124.355 42V30.364h7.705v2.028h-5.245v2.773h4.733v2.028h-4.733V42h-2.46Zm11.693.165c-.557 0-1.053-.097-1.488-.29a2.39 2.39 0 0 1-1.034-.87c-.25-.386-.375-.867-.375-1.443 0-.484.089-.892.267-1.221.178-.33.42-.595.727-.796a3.54 3.54 0 0 1 1.045-.454 7.972 7.972 0 0 1 1.239-.216c.508-.053.917-.102 1.227-.148.311-.049.536-.12.676-.216a.473.473 0 0 0 .211-.42v-.034c0-.36-.114-.638-.341-.835-.224-.197-.542-.296-.955-.296-.435 0-.782.097-1.04.29-.257.19-.428.428-.511.716l-2.239-.182a3.05 3.05 0 0 1 .671-1.375c.333-.39.763-.69 1.29-.898.53-.212 1.144-.318 1.841-.318.484 0 .948.057 1.392.17.447.114.842.29 1.187.529.349.239.623.545.824.92.201.372.301.817.301 1.336V42h-2.295v-1.21h-.069c-.14.273-.327.513-.562.721a2.603 2.603 0 0 1-.847.483c-.329.114-.71.17-1.142.17Zm.693-1.67c.357 0 .671-.07.944-.21a1.68 1.68 0 0 0 .642-.58c.155-.243.233-.517.233-.824v-.926c-.076.049-.18.094-.313.136a5.688 5.688 0 0 1-.437.108c-.163.03-.326.059-.489.085l-.443.063a2.989 2.989 0 0 0-.744.198 1.19 1.19 0 0 0-.495.37.902.902 0 0 0-.176.568c0 .33.119.581.358.756.242.17.549.255.92.255Zm6.1 1.505v-8.727h2.42V42h-2.42Zm1.216-9.852c-.36 0-.669-.12-.926-.358a1.16 1.16 0 0 1-.381-.87c0-.333.127-.619.381-.858.257-.242.566-.363.926-.363.36 0 .666.121.92.363.258.24.387.525.387.858 0 .338-.129.627-.387.87-.254.238-.56.358-.92.358Zm5.564-1.784V42H147.2V30.364h2.421Zm5.916 11.806c-.898 0-1.671-.181-2.318-.545a3.74 3.74 0 0 1-1.489-1.557c-.348-.674-.523-1.471-.523-2.392 0-.898.175-1.686.523-2.364a3.866 3.866 0 0 1 1.472-1.585c.636-.378 1.382-.568 2.238-.568.576 0 1.112.093 1.608.279.5.181.936.456 1.307.823.375.368.667.83.875 1.387.208.553.313 1.2.313 1.943v.665h-7.37v-1.5h5.091a1.86 1.86 0 0 0-.227-.926 1.632 1.632 0 0 0-.631-.631 1.799 1.799 0 0 0-.926-.233c-.367 0-.693.085-.977.256-.28.166-.5.392-.659.676a1.91 1.91 0 0 0-.245.937v1.426c0 .432.08.805.239 1.12.163.314.392.556.688.727.295.17.645.256 1.051.256.269 0 .515-.038.738-.114a1.48 1.48 0 0 0 .938-.898l2.238.148a3.052 3.052 0 0 1-.698 1.41c-.349.397-.8.707-1.353.93-.549.22-1.183.33-1.903.33Zm8.801-.028c-.663 0-1.263-.17-1.801-.511-.534-.345-.958-.85-1.273-1.517-.31-.67-.466-1.493-.466-2.466 0-1 .161-1.832.483-2.495.322-.666.75-1.164 1.284-1.494a3.291 3.291 0 0 1 1.767-.5c.489 0 .896.083 1.222.25.33.163.595.367.795.614.205.242.36.48.466.716h.074v-4.375h2.415V42h-2.386v-1.398h-.103a3.08 3.08 0 0 1-.483.722 2.39 2.39 0 0 1-.801.585c-.326.155-.723.233-1.193.233Zm.767-1.926c.39 0 .72-.106.989-.318.272-.216.481-.517.625-.904.147-.386.221-.839.221-1.358 0-.519-.072-.97-.216-1.352-.144-.383-.352-.678-.625-.886-.272-.209-.604-.313-.994-.313-.398 0-.733.108-1.006.324-.272.216-.479.515-.619.898-.14.382-.21.826-.21 1.33 0 .507.07.956.21 1.346.144.386.35.69.619.909.273.216.608.324 1.006.324Z" fill="#D7260F"/><path fill-rule="evenodd" clip-rule="evenodd" d="M328.614 29.614a.75.75 0 0 1 1.061 0l5.303 5.303 5.303-5.303a.752.752 0 0 1 1.281.53c0 .2-.079.39-.22.53l-5.303 5.304 5.303 5.303a.749.749 0 1 1-1.061 1.06l-5.303-5.302-5.303 5.303a.752.752 0 0 1-1.281-.53c0-.2.079-.39.22-.53l5.303-5.304-5.303-5.303a.749.749 0 0 1 0-1.061Z" fill="#667085"/><path d="M31.41 78V66.364h3.93c.91 0 1.656.155 2.24.465.583.307 1.015.73 1.295 1.268s.42 1.15.42 1.835-.14 1.293-.42 1.824c-.28.53-.71.947-1.29 1.25-.58.299-1.32.448-2.221.448h-3.182v-1.272h3.136c.621 0 1.121-.091 1.5-.273.383-.182.66-.44.83-.773.174-.337.261-.738.261-1.204 0-.466-.087-.873-.261-1.222a1.782 1.782 0 0 0-.836-.807c-.382-.193-.888-.29-1.517-.29h-2.477V78H31.41Zm5.476-5.227L39.75 78h-1.636l-2.819-5.227h1.591Zm8.141 5.409c-.84 0-1.566-.186-2.176-.557a3.737 3.737 0 0 1-1.404-1.568c-.325-.674-.488-1.459-.488-2.353 0-.893.163-1.681.488-2.363.33-.686.788-1.22 1.375-1.602.591-.387 1.28-.58 2.069-.58.454 0 .903.076 1.346.227.443.152.847.398 1.21.739.364.337.654.784.87 1.34.216.558.324 1.243.324 2.058v.568h-6.728v-1.16h5.364c0-.492-.099-.931-.296-1.317a2.226 2.226 0 0 0-.829-.915c-.356-.224-.776-.335-1.261-.335-.535 0-.997.132-1.387.397a2.615 2.615 0 0 0-.892 1.023c-.208.42-.312.871-.312 1.352v.773c0 .66.113 1.218.34 1.676.232.455.552.801.96 1.04.41.235.885.352 1.427.352.352 0 .67-.049.954-.148.288-.102.536-.253.745-.454.208-.204.37-.458.483-.761l1.295.363a2.87 2.87 0 0 1-.687 1.16c-.322.329-.72.587-1.193.772a4.426 4.426 0 0 1-1.597.273Zm11.608 3.09V76.66h-.114c-.098.16-.238.36-.42.602-.182.239-.441.453-.779.642-.337.186-.786.279-1.346.279-.727 0-1.37-.184-1.926-.551-.557-.371-.993-.894-1.307-1.569-.315-.677-.472-1.479-.472-2.403 0-.917.157-1.712.472-2.386.314-.674.752-1.195 1.312-1.563.561-.367 1.209-.55 1.944-.55.568 0 1.017.094 1.346.283.334.186.587.398.761.636.179.235.317.429.415.58h.16v-1.386h1.295v12h-1.341Zm-2.477-4.295c.538 0 .992-.14 1.363-.42.371-.284.654-.676.847-1.176.193-.504.29-1.085.29-1.745 0-.651-.095-1.221-.284-1.71-.19-.492-.47-.875-.841-1.148-.372-.276-.83-.414-1.375-.414-.569 0-1.042.145-1.42.437-.376.288-.658.68-.847 1.176a4.675 4.675 0 0 0-.279 1.66c0 .62.095 1.185.284 1.692.194.504.478.906.853 1.205.378.295.848.443 1.409.443Zm11.772-2.545v-5.16h1.341V78h-1.34v-1.477h-.091c-.205.443-.523.82-.955 1.13-.432.307-.977.46-1.636.46-.546 0-1.03-.119-1.455-.357-.424-.243-.758-.606-1-1.091-.242-.489-.364-1.104-.364-1.847v-5.545h1.341v5.454c0 .637.178 1.144.534 1.523.36.379.819.568 1.375.568.334 0 .673-.085 1.017-.255.349-.171.64-.432.875-.785.24-.352.358-.8.358-1.346Zm7.456 3.75c-.84 0-1.566-.186-2.176-.557a3.738 3.738 0 0 1-1.403-1.568c-.326-.674-.489-1.459-.489-2.353 0-.893.163-1.681.489-2.363.33-.686.788-1.22 1.375-1.602.59-.387 1.28-.58 2.068-.58.454 0 .903.076 1.347.227.443.152.846.398 1.21.739.364.337.653.784.87 1.34.215.558.323 1.243.323 2.058v.568h-6.727v-1.16h5.363c0-.492-.098-.931-.295-1.317a2.226 2.226 0 0 0-.83-.915c-.356-.224-.776-.335-1.261-.335-.534 0-.996.132-1.386.397a2.615 2.615 0 0 0-.892 1.023c-.209.42-.313.871-.313 1.352v.773c0 .66.114 1.218.341 1.676.231.455.551.801.96 1.04.41.235.885.352 1.426.352.353 0 .67-.049.955-.148a2.03 2.03 0 0 0 .744-.454c.209-.204.37-.458.483-.761l1.296.363c-.137.44-.366.826-.688 1.16-.322.329-.72.587-1.193.772a4.426 4.426 0 0 1-1.597.273Zm11.836-6.955-1.205.341a2.234 2.234 0 0 0-.335-.585 1.626 1.626 0 0 0-.591-.477c-.25-.125-.57-.188-.96-.188-.534 0-.98.123-1.335.37-.353.242-.529.55-.529.926 0 .333.121.596.364.79.242.193.62.354 1.136.482l1.296.319c.78.189 1.361.479 1.744.869.382.386.574.884.574 1.494 0 .5-.144.947-.432 1.341-.284.394-.682.705-1.193.932-.512.227-1.106.34-1.784.34-.89 0-1.627-.192-2.21-.579-.584-.386-.953-.95-1.109-1.693l1.273-.318c.121.47.35.822.688 1.057.34.235.786.352 1.335.352.625 0 1.121-.133 1.489-.398.37-.269.556-.59.556-.966 0-.303-.106-.556-.318-.761-.212-.208-.538-.364-.977-.466l-1.455-.34c-.799-.19-1.386-.484-1.761-.882-.371-.401-.557-.903-.557-1.505 0-.493.138-.928.415-1.307.28-.379.66-.676 1.142-.892.485-.216 1.034-.324 1.648-.324.863 0 1.541.19 2.034.568.496.38.848.88 1.057 1.5Zm5.973-1.954v1.136h-4.523v-1.136h4.523Zm-3.205-2.091h1.341V75.5c0 .379.055.663.165.852a.85.85 0 0 0 .432.375c.178.06.365.091.562.091.148 0 .269-.007.364-.022l.227-.046.273 1.204a2.587 2.587 0 0 1-.381.103c-.163.038-.37.057-.62.057-.378 0-.75-.082-1.113-.245a2.213 2.213 0 0 1-.898-.744c-.234-.333-.352-.754-.352-1.261v-8.682Zm11.063-.818V78h-1.341V66.364h1.34ZM101.509 78v-8.727h1.34V78h-1.34Zm.681-10.182a.954.954 0 0 1-.676-.267.86.86 0 0 1-.278-.642.86.86 0 0 1 .278-.642.955.955 0 0 1 .676-.267c.262 0 .485.089.671.267a.851.851 0 0 1 .284.642c0 .25-.095.464-.284.642a.934.934 0 0 1-.671.267ZM105.305 78v-8.727h1.296v1.363h.113c.182-.465.476-.827.881-1.085.405-.261.892-.392 1.46-.392.576 0 1.055.13 1.438.392.386.258.687.62.903 1.085h.091c.224-.45.559-.808 1.006-1.073.447-.27.983-.404 1.608-.404.78 0 1.418.244 1.915.733.496.485.744 1.24.744 2.267V78h-1.341v-5.84c0-.645-.176-1.105-.528-1.382a1.958 1.958 0 0 0-1.245-.414c-.613 0-1.089.185-1.426.556-.337.368-.506.834-.506 1.398V78h-1.363v-5.977c0-.496-.161-.896-.483-1.2-.322-.306-.737-.46-1.244-.46a1.84 1.84 0 0 0-.978.279 2.107 2.107 0 0 0-.727.773 2.28 2.28 0 0 0-.273 1.13V78h-1.341Zm13.907 0v-8.727h1.341V78h-1.341Zm.681-10.182a.954.954 0 0 1-.676-.267.86.86 0 0 1-.278-.642.86.86 0 0 1 .278-.642.955.955 0 0 1 .676-.267c.262 0 .485.089.671.267a.851.851 0 0 1 .284.642c0 .25-.095.464-.284.642a.934.934 0 0 1-.671.267Zm6.911 1.455v1.136h-4.523v-1.136h4.523Zm-3.205-2.091h1.341V75.5c0 .379.055.663.165.852.114.186.258.31.432.375.178.06.365.091.562.091.148 0 .269-.007.364-.022l.227-.046.273 1.204a2.733 2.733 0 0 1-.381.103 2.793 2.793 0 0 1-.619.057 2.7 2.7 0 0 1-1.114-.245 2.212 2.212 0 0 1-.897-.744c-.235-.333-.353-.754-.353-1.261v-8.682Zm13.381 11c-.841 0-1.566-.186-2.176-.557a3.733 3.733 0 0 1-1.403-1.568c-.326-.674-.489-1.459-.489-2.353 0-.893.163-1.681.489-2.363.329-.686.787-1.22 1.375-1.602.59-.387 1.28-.58 2.068-.58.454 0 .903.076 1.346.227.444.152.847.398 1.211.739.363.337.653.784.869 1.34.216.558.324 1.243.324 2.058v.568h-6.728v-1.16h5.364c0-.492-.098-.931-.295-1.317a2.232 2.232 0 0 0-.83-.915c-.356-.224-.776-.335-1.261-.335-.534 0-.996.132-1.387.397a2.623 2.623 0 0 0-.892 1.023c-.208.42-.312.871-.312 1.352v.773c0 .66.113 1.218.341 1.676.231.455.551.801.96 1.04.409.235.884.352 1.426.352.352 0 .671-.049.955-.148a2.03 2.03 0 0 0 .744-.454c.208-.204.369-.458.483-.761l1.295.363a2.87 2.87 0 0 1-.687 1.16c-.322.329-.72.587-1.193.772a4.43 4.43 0 0 1-1.597.273Zm6.419-8.91 2.091 3.569 2.091-3.568h1.545l-2.818 4.363L149.126 78h-1.545l-2.091-3.386L143.399 78h-1.545l2.772-4.364-2.772-4.363h1.545Zm10.827 8.91c-.818 0-1.523-.193-2.114-.58a3.774 3.774 0 0 1-1.363-1.596c-.319-.678-.478-1.453-.478-2.324 0-.886.163-1.669.489-2.347.329-.682.788-1.214 1.375-1.596.591-.387 1.28-.58 2.068-.58a3.91 3.91 0 0 1 1.659.341 3.17 3.17 0 0 1 1.21.954c.315.41.51.887.586 1.432h-1.341c-.103-.397-.33-.75-.682-1.056-.349-.311-.818-.466-1.409-.466-.523 0-.981.136-1.375.409-.39.269-.695.65-.915 1.142-.216.488-.324 1.062-.324 1.721 0 .675.106 1.262.318 1.762.216.5.519.888.909 1.165.394.276.857.414 1.387.414a2.4 2.4 0 0 0 .949-.181c.284-.122.524-.296.721-.523.197-.227.337-.5.421-.819h1.341c-.076.516-.264.98-.563 1.393a3.142 3.142 0 0 1-1.176.977c-.485.239-1.049.358-1.693.358Zm9.051 0c-.841 0-1.566-.186-2.176-.557a3.742 3.742 0 0 1-1.404-1.568c-.325-.674-.488-1.459-.488-2.353 0-.893.163-1.681.488-2.363.33-.686.788-1.22 1.375-1.602.591-.387 1.281-.58 2.069-.58.454 0 .903.076 1.346.227.443.152.847.398 1.21.739.364.337.654.784.87 1.34.216.558.324 1.243.324 2.058v.568h-6.728v-1.16h5.364c0-.492-.098-.931-.295-1.317a2.232 2.232 0 0 0-.83-.915c-.356-.224-.777-.335-1.261-.335-.534 0-.997.132-1.387.397a2.623 2.623 0 0 0-.892 1.023c-.208.42-.312.871-.312 1.352v.773c0 .66.113 1.218.341 1.676.231.455.551.801.96 1.04.409.235.884.352 1.426.352.352 0 .67-.049.955-.148.287-.102.536-.253.744-.454.208-.204.369-.458.483-.761l1.295.363a2.87 2.87 0 0 1-.687 1.16c-.322.329-.72.587-1.193.772a4.43 4.43 0 0 1-1.597.273Zm9.312 0c-.84 0-1.566-.186-2.176-.557a3.733 3.733 0 0 1-1.403-1.568c-.326-.674-.489-1.459-.489-2.353 0-.893.163-1.681.489-2.363.329-.686.788-1.22 1.375-1.602.591-.387 1.28-.58 2.068-.58.455 0 .904.076 1.347.227a3.34 3.34 0 0 1 1.21.739c.364.337.653.784.869 1.34.216.558.324 1.243.324 2.058v.568h-6.727v-1.16h5.363c0-.492-.098-.931-.295-1.317a2.225 2.225 0 0 0-.83-.915c-.356-.224-.776-.335-1.261-.335-.534 0-.996.132-1.386.397a2.608 2.608 0 0 0-.892 1.023c-.209.42-.313.871-.313 1.352v.773c0 .66.114 1.218.341 1.676.231.455.551.801.96 1.04.409.235.885.352 1.426.352a2.9 2.9 0 0 0 .955-.148 2.03 2.03 0 0 0 .744-.454c.209-.204.37-.458.483-.761l1.296.363a2.88 2.88 0 0 1-.688 1.16 3.344 3.344 0 0 1-1.193.772 4.426 4.426 0 0 1-1.597.273Zm8.949 0c-.727 0-1.369-.184-1.926-.551-.557-.371-.992-.894-1.307-1.569-.314-.677-.471-1.479-.471-2.403 0-.917.157-1.712.471-2.386.315-.674.752-1.195 1.313-1.563.561-.367 1.208-.55 1.943-.55.568 0 1.017.094 1.347.283.333.186.587.398.761.636.178.235.316.429.415.58h.113v-4.295h1.341V78h-1.295v-1.34h-.159a8.77 8.77 0 0 1-.421.601c-.181.239-.441.453-.778.642-.337.186-.786.279-1.347.279Zm.182-1.205c.538 0 .993-.14 1.364-.42.371-.284.653-.676.846-1.176.194-.504.29-1.085.29-1.745 0-.651-.095-1.221-.284-1.71-.189-.492-.47-.875-.841-1.148-.371-.276-.829-.414-1.375-.414-.568 0-1.041.145-1.42.437-.375.288-.657.68-.847 1.176a4.689 4.689 0 0 0-.278 1.66c0 .62.094 1.185.284 1.692.193.504.477.906.852 1.205.379.295.849.443 1.409.443Zm10.119 1.205c-.84 0-1.566-.186-2.176-.557a3.733 3.733 0 0 1-1.403-1.568c-.326-.674-.489-1.459-.489-2.353 0-.893.163-1.681.489-2.363.329-.686.788-1.22 1.375-1.602.591-.387 1.28-.58 2.068-.58.455 0 .904.076 1.347.227a3.34 3.34 0 0 1 1.21.739c.364.337.653.784.869 1.34.216.558.324 1.243.324 2.058v.568h-6.727v-1.16h5.363c0-.492-.098-.931-.295-1.317a2.225 2.225 0 0 0-.83-.915c-.356-.224-.776-.335-1.261-.335-.534 0-.996.132-1.386.397a2.608 2.608 0 0 0-.892 1.023c-.209.42-.313.871-.313 1.352v.773c0 .66.114 1.218.341 1.676.231.455.551.801.96 1.04.409.235.885.352 1.426.352a2.9 2.9 0 0 0 .955-.148 2.03 2.03 0 0 0 .744-.454c.209-.204.37-.458.483-.761l1.296.363a2.88 2.88 0 0 1-.688 1.16 3.344 3.344 0 0 1-1.193.772 4.426 4.426 0 0 1-1.597.273Zm8.949 0c-.727 0-1.369-.184-1.926-.551-.557-.371-.992-.894-1.307-1.569-.314-.677-.471-1.479-.471-2.403 0-.917.157-1.712.471-2.386.315-.674.752-1.195 1.313-1.563.561-.367 1.208-.55 1.943-.55.568 0 1.017.094 1.347.283.333.186.587.398.761.636.178.235.316.429.415.58h.113v-4.295h1.341V78h-1.295v-1.34h-.159a8.77 8.77 0 0 1-.421.601c-.181.239-.441.453-.778.642-.337.186-.786.279-1.347.279Zm.182-1.205c.538 0 .993-.14 1.364-.42.371-.284.653-.676.846-1.176.194-.504.29-1.085.29-1.745 0-.651-.095-1.221-.284-1.71-.189-.492-.47-.875-.841-1.148-.371-.276-.829-.414-1.375-.414-.568 0-1.041.145-1.42.437-.375.288-.657.68-.847 1.176a4.689 4.689 0 0 0-.278 1.66c0 .62.094 1.185.284 1.692.193.504.477.906.852 1.205.379.295.849.443 1.409.443Zm7.438 1.114a.985.985 0 0 1-.722-.301.983.983 0 0 1-.301-.722c0-.28.1-.52.301-.721a.984.984 0 0 1 .722-.301c.28 0 .521.1.721.3a.985.985 0 0 1 .301.722.96.96 0 0 1-.142.511c-.091.156-.214.28-.369.376a.972.972 0 0 1-.511.136Z" fill="#344054"/><rect x="30.5" y="104.5" width="107" height="39" rx="4.5" stroke="#344054"/><path d="M55.443 118.818V129h-1.194l-5.548-7.994h-.1V129H47.37v-10.182h1.193l5.568 8.014h.1v-8.014h1.213Zm5.51 10.341c-.736 0-1.371-.162-1.905-.487a3.273 3.273 0 0 1-1.228-1.372c-.285-.59-.427-1.276-.427-2.059 0-.782.142-1.471.427-2.068.289-.6.69-1.067 1.203-1.402.517-.338 1.12-.507 1.81-.507.398 0 .79.066 1.178.199.388.133.741.348 1.06.646.317.295.571.686.76 1.174.189.487.283 1.087.283 1.799v.498h-5.886v-1.015h4.693c0-.431-.086-.815-.258-1.153a1.944 1.944 0 0 0-.726-.8c-.312-.196-.68-.294-1.104-.294-.467 0-.872.116-1.213.348a2.291 2.291 0 0 0-.78.895 2.628 2.628 0 0 0-.274 1.183v.676c0 .577.1 1.066.298 1.467.202.398.483.701.84.91.358.205.774.308 1.248.308.309 0 .587-.043.836-.129.251-.09.469-.222.65-.398.183-.179.324-.401.423-.666l1.134.318a2.51 2.51 0 0 1-.602 1.014c-.281.289-.63.514-1.044.676-.414.16-.88.239-1.397.239Zm5.616-7.795 1.83 3.122 1.83-3.122h1.351l-2.466 3.818L71.58 129h-1.352l-1.83-2.963L66.57 129h-1.352l2.426-3.818-2.426-3.818h1.352Zm10.007 0v.994h-3.958v-.994h3.958Zm-2.804-1.83h1.173v7.278c0 .332.048.581.144.746.1.163.225.272.378.328.156.053.32.08.492.08.13 0 .235-.007.318-.02l.2-.04.238 1.054c-.08.03-.19.06-.333.09a2.467 2.467 0 0 1-.542.049 2.37 2.37 0 0 1-.975-.213 1.939 1.939 0 0 1-.785-.652c-.206-.291-.308-.659-.308-1.103v-7.597Zm10.753 9.645c-.484 0-.923-.091-1.317-.273a2.265 2.265 0 0 1-.94-.801c-.232-.351-.348-.775-.348-1.273 0-.437.086-.792.258-1.064a1.83 1.83 0 0 1 .692-.646c.288-.156.606-.272.954-.348a12.03 12.03 0 0 1 1.06-.189c.463-.059.84-.104 1.128-.134.291-.033.503-.088.636-.164.136-.076.204-.209.204-.398v-.04c0-.49-.134-.871-.403-1.143-.265-.272-.668-.408-1.208-.408-.56 0-1 .123-1.317.368-.319.245-.542.507-.672.786l-1.113-.398c.199-.464.464-.825.795-1.084.335-.262.7-.444 1.094-.547a4.543 4.543 0 0 1 1.173-.159c.246 0 .527.03.845.09.322.056.632.174.93.353.302.179.552.449.75.81.2.361.3.845.3 1.452V129h-1.174v-1.034h-.06c-.08.166-.212.343-.398.532-.185.189-.432.35-.74.482-.309.133-.685.199-1.129.199Zm.18-1.054c.463 0 .854-.091 1.172-.273a1.863 1.863 0 0 0 .975-1.616v-1.074c-.05.06-.16.114-.328.164a5.527 5.527 0 0 1-.577.124c-.215.033-.426.063-.631.09-.203.023-.367.043-.493.059a4.55 4.55 0 0 0-.855.194 1.47 1.47 0 0 0-.636.393c-.16.172-.239.408-.239.706 0 .408.151.716.453.925.305.205.69.308 1.158.308Zm8.564 1.034c-.716 0-1.333-.169-1.85-.507a3.306 3.306 0 0 1-1.193-1.397c-.278-.593-.417-1.271-.417-2.033 0-.776.142-1.46.427-2.054a3.384 3.384 0 0 1 1.203-1.397c.517-.338 1.12-.507 1.81-.507.537 0 1.02.1 1.452.298.43.199.784.478 1.059.836.275.358.445.775.512 1.253h-1.174c-.089-.348-.288-.657-.596-.925-.305-.272-.716-.408-1.233-.408-.458 0-.859.119-1.203.358-.342.235-.608.569-.8.999-.19.428-.284.93-.284 1.507 0 .59.093 1.104.278 1.541.19.438.454.777.796 1.019.344.242.749.363 1.213.363.305 0 .582-.053.83-.159a1.71 1.71 0 0 0 .632-.457c.172-.199.294-.438.368-.716h1.173a2.73 2.73 0 0 1-.492 1.218 2.75 2.75 0 0 1-1.03.855c-.424.209-.918.313-1.481.313Zm8.039-7.795v.994h-3.957v-.994h3.957Zm-2.804-1.83h1.173v7.278c0 .332.048.581.144.746.1.163.226.272.378.328.156.053.32.08.492.08.13 0 .236-.007.319-.02l.199-.04.238 1.054c-.079.03-.19.06-.333.09a2.463 2.463 0 0 1-.542.049 2.37 2.37 0 0 1-.974-.213 1.939 1.939 0 0 1-.786-.652c-.205-.291-.308-.659-.308-1.103v-7.597Zm4.569 9.466v-7.636h1.173V129h-1.173Zm.596-8.909a.834.834 0 0 1-.591-.234.75.75 0 0 1-.244-.562c0-.218.081-.406.244-.561a.834.834 0 0 1 .591-.234c.229 0 .425.078.587.234a.741.741 0 0 1 .249.561.744.744 0 0 1-.249.562.816.816 0 0 1-.587.234Zm5.828 9.068c-.689 0-1.294-.164-1.814-.492a3.338 3.338 0 0 1-1.213-1.377c-.289-.59-.433-1.28-.433-2.068 0-.796.144-1.49.433-2.084a3.34 3.34 0 0 1 1.213-1.382c.52-.328 1.125-.492 1.814-.492.69 0 1.293.164 1.81.492.52.329.925.789 1.213 1.382.292.594.438 1.288.438 2.084 0 .788-.146 1.478-.438 2.068a3.296 3.296 0 0 1-1.213 1.377c-.517.328-1.12.492-1.81.492Zm0-1.054c.524 0 .955-.134 1.293-.403.338-.268.588-.621.751-1.059.162-.437.243-.911.243-1.421 0-.511-.081-.986-.243-1.427a2.411 2.411 0 0 0-.751-1.069c-.338-.272-.769-.408-1.293-.408-.523 0-.954.136-1.292.408a2.411 2.411 0 0 0-.751 1.069 4.104 4.104 0 0 0-.244 1.427c0 .51.082.984.244 1.421.163.438.413.791.751 1.059.338.269.769.403 1.292.403Zm6.425-3.699V129h-1.173v-7.636h1.133v1.193h.1c.179-.388.45-.7.815-.935.365-.238.835-.358 1.412-.358.517 0 .969.106 1.357.318.388.209.69.527.905.955.215.424.323.961.323 1.611V129h-1.173v-4.773c0-.6-.156-1.067-.468-1.402-.311-.338-.739-.507-1.282-.507-.375 0-.709.081-1.004.244a1.736 1.736 0 0 0-.691.711c-.17.311-.254.689-.254 1.133Z" fill="#344054"/></g><path fill="#E8178A" fill-opacity=".24" d="M8 8h355v16H8zm0 80h355v16H8zm0 56h355v16H8z"/><path fill="#E8178A" fill-opacity=".24" d="M14 8h16v152H14zm333 0h16v152h-16z"/><path d="M373.5 8v16" stroke="#E8178A"/><rect x="378" y="8.5" width="36" height="18" rx="3" fill="#E8178A"/><path d="M387.754 14.227V21.5h-1.538v-5.813h-.043l-1.665 1.044v-1.364l1.8-1.14h1.446Zm4.519 7.372a3.285 3.285 0 0 1-1.083-.188 2.464 2.464 0 0 1-.93-.6c-.275-.277-.493-.644-.654-1.1-.158-.458-.238-1.019-.238-1.684.003-.61.073-1.157.21-1.637a3.66 3.66 0 0 1 .597-1.229c.26-.336.571-.592.933-.767a2.736 2.736 0 0 1 1.219-.266c.485 0 .913.095 1.285.284.372.187.67.441.895.763.227.322.365.683.412 1.084h-1.516a1.018 1.018 0 0 0-.373-.597 1.127 1.127 0 0 0-.703-.217c-.474 0-.834.206-1.08.618-.244.412-.368.972-.373 1.68h.05a1.7 1.7 0 0 1 .44-.55c.187-.154.399-.272.636-.352a2.29 2.29 0 0 1 .756-.124 2.162 2.162 0 0 1 1.946 1.136c.194.353.291.756.291 1.21 0 .493-.114.931-.344 1.315a2.389 2.389 0 0 1-.955.902c-.407.215-.881.322-1.421.32Zm-.007-1.207a1.2 1.2 0 0 0 1.076-.632 1.33 1.33 0 0 0 .16-.654 1.31 1.31 0 0 0-.16-.65 1.18 1.18 0 0 0-1.065-.629 1.22 1.22 0 0 0-.494.1 1.244 1.244 0 0 0-.657.69 1.272 1.272 0 0 0-.096.493 1.277 1.277 0 0 0 .601 1.108c.187.116.398.174.635.174Zm3.832 3.154v-7.5h1.491v.916h.068c.066-.147.162-.296.287-.448.128-.154.294-.281.498-.383.206-.105.461-.157.767-.157.397 0 .764.105 1.1.313.337.206.605.517.807.934.201.414.301.934.301 1.559 0 .608-.098 1.122-.294 1.541-.194.417-.46.733-.796.948-.334.213-.708.32-1.122.32a1.75 1.75 0 0 1-.749-.146 1.545 1.545 0 0 1-.501-.366c-.13-.149-.23-.3-.298-.45h-.046v2.919h-1.513Zm1.481-4.773c0 .324.045.607.135.848.09.242.22.43.39.565a.984.984 0 0 0 .622.199.977.977 0 0 0 .625-.203c.17-.137.299-.326.387-.568a2.42 2.42 0 0 0 .135-.841 2.4 2.4 0 0 0-.132-.831 1.229 1.229 0 0 0-.387-.561.98.98 0 0 0-.628-.203.997.997 0 0 0-.625.196 1.22 1.22 0 0 0-.387.554c-.09.239-.135.52-.135.845Zm5.916-2.727 1.001 1.906 1.027-1.907h1.551l-1.58 2.728 1.623 2.727h-1.545l-1.076-1.886-1.058 1.886h-1.562l1.619-2.727-1.563-2.727h1.563Z" fill="#fff"/><path stroke="#E8178A" d="M370 8.5h7m-7 15h7m-363 155h16"/><rect x="4" y="183" width="36" height="18" rx="3" fill="#E8178A"/><path d="M13.754 188.727V196h-1.538v-5.813h-.043l-1.665 1.044v-1.364l1.8-1.14h1.446Zm4.52 7.372a3.28 3.28 0 0 1-1.084-.188 2.463 2.463 0 0 1-.93-.6c-.275-.277-.493-.644-.654-1.101-.158-.457-.238-1.018-.238-1.683a6.053 6.053 0 0 1 .21-1.637c.14-.483.338-.893.596-1.229.261-.336.572-.592.934-.767a2.738 2.738 0 0 1 1.218-.266c.486 0 .914.095 1.286.284.372.187.67.441.895.763.227.322.364.683.412 1.084h-1.517a1.01 1.01 0 0 0-.372-.597 1.129 1.129 0 0 0-.704-.217c-.473 0-.833.206-1.079.618-.244.412-.368.972-.373 1.68h.05a1.7 1.7 0 0 1 .44-.551c.187-.153.4-.271.636-.351a2.29 2.29 0 0 1 .756-.124 2.162 2.162 0 0 1 1.946 1.136c.194.353.291.756.291 1.211 0 .492-.114.93-.344 1.314a2.393 2.393 0 0 1-.955.902c-.407.215-.881.322-1.42.319Zm-.008-1.207a1.205 1.205 0 0 0 1.076-.632 1.33 1.33 0 0 0 .16-.653c0-.242-.053-.459-.16-.65a1.178 1.178 0 0 0-1.065-.629 1.207 1.207 0 0 0-.888.377 1.328 1.328 0 0 0-.359.905 1.278 1.278 0 0 0 .6 1.108c.187.116.4.174.636.174Zm3.832 3.153v-7.5h1.491v.917h.068c.066-.147.162-.296.287-.448.128-.154.294-.282.498-.383.206-.104.461-.157.767-.157.397 0 .764.105 1.1.313.337.206.605.517.807.934.2.414.301.934.301 1.559 0 .608-.098 1.122-.294 1.541-.194.417-.46.733-.796.948-.334.213-.708.32-1.122.32-.293 0-.543-.049-.75-.146a1.546 1.546 0 0 1-.5-.366 1.844 1.844 0 0 1-.298-.451h-.046v2.919h-1.513Zm1.48-4.772c0 .324.046.607.136.848.09.242.22.43.39.565a.98.98 0 0 0 .622.199.98.98 0 0 0 .625-.202c.17-.138.3-.327.387-.569.09-.243.135-.524.135-.841a2.41 2.41 0 0 0-.132-.831 1.238 1.238 0 0 0-.387-.561.98.98 0 0 0-.628-.203.995.995 0 0 0-.625.196 1.22 1.22 0 0 0-.387.554c-.09.239-.135.52-.135.845Zm5.917-2.728 1.001 1.907 1.027-1.907h1.551l-1.58 2.728L33.117 196h-1.545l-1.076-1.886L29.438 196h-1.563l1.62-2.727-1.563-2.728h1.563Z" fill="#fff"/><path stroke="#E8178A" d="M14.5 182v-7m15 7v-7m317.5 3.5h16"/><rect x="337" y="183" width="36" height="18" rx="3" fill="#E8178A"/><path d="M346.754 188.727V196h-1.538v-5.813h-.043l-1.665 1.044v-1.364l1.8-1.14h1.446Zm4.519 7.372a3.28 3.28 0 0 1-1.083-.188 2.463 2.463 0 0 1-.93-.6c-.275-.277-.493-.644-.654-1.101-.158-.457-.238-1.018-.238-1.683a6.088 6.088 0 0 1 .21-1.637c.14-.483.338-.893.597-1.229.26-.336.571-.592.933-.767a2.744 2.744 0 0 1 1.219-.266c.485 0 .913.095 1.285.284.372.187.67.441.895.763.227.322.365.683.412 1.084h-1.516a1.016 1.016 0 0 0-.373-.597 1.13 1.13 0 0 0-.703-.217c-.474 0-.834.206-1.08.618-.244.412-.368.972-.373 1.68h.05a1.7 1.7 0 0 1 .44-.551c.187-.153.399-.271.636-.351.239-.083.491-.124.756-.124a2.162 2.162 0 0 1 1.946 1.136c.194.353.291.756.291 1.211 0 .492-.114.93-.344 1.314a2.394 2.394 0 0 1-.955.902c-.407.215-.881.322-1.421.319Zm-.007-1.207c.237 0 .449-.057.636-.17.187-.114.334-.268.44-.462a1.33 1.33 0 0 0 .16-.653c0-.242-.053-.459-.16-.65a1.192 1.192 0 0 0-1.065-.629 1.208 1.208 0 0 0-.888.377 1.332 1.332 0 0 0-.199 1.548c.109.194.256.349.441.465.187.116.398.174.635.174Zm3.832 3.153v-7.5h1.491v.917h.068c.066-.147.162-.296.287-.448.128-.154.294-.282.498-.383.206-.104.461-.157.767-.157.397 0 .764.105 1.1.313.337.206.605.517.807.934.201.414.301.934.301 1.559 0 .608-.098 1.122-.294 1.541-.194.417-.46.733-.796.948-.334.213-.708.32-1.122.32-.293 0-.543-.049-.749-.146a1.54 1.54 0 0 1-.501-.366 1.831 1.831 0 0 1-.298-.451h-.046v2.919h-1.513Zm1.481-4.772c0 .324.045.607.135.848.09.242.22.43.39.565a.982.982 0 0 0 .622.199.982.982 0 0 0 .625-.202c.17-.138.299-.327.387-.569.09-.243.135-.524.135-.841a2.4 2.4 0 0 0-.132-.831 1.23 1.23 0 0 0-.387-.561.98.98 0 0 0-.628-.203.992.992 0 0 0-.625.196 1.22 1.22 0 0 0-.387.554c-.09.239-.135.52-.135.845Zm5.916-2.728 1.001 1.907 1.027-1.907h1.551l-1.58 2.728 1.623 2.727h-1.545l-1.076-1.886-1.058 1.886h-1.562l1.619-2.727-1.563-2.728h1.563Z" fill="#fff"/><path stroke="#E8178A" d="M347.5 182v-7m15 7v-7m11-23v16"/><rect x="378" y="151" width="36" height="18" rx="3" fill="#E8178A"/><path d="M387.754 156.727V164h-1.538v-5.813h-.043l-1.665 1.044v-1.364l1.8-1.14h1.446Zm4.519 7.372a3.28 3.28 0 0 1-1.083-.188 2.463 2.463 0 0 1-.93-.6c-.275-.277-.493-.644-.654-1.101-.158-.457-.238-1.018-.238-1.683a6.088 6.088 0 0 1 .21-1.637c.14-.483.338-.893.597-1.229.26-.336.571-.592.933-.767a2.744 2.744 0 0 1 1.219-.266c.485 0 .913.095 1.285.284.372.187.67.441.895.763.227.322.365.683.412 1.084h-1.516a1.016 1.016 0 0 0-.373-.597 1.13 1.13 0 0 0-.703-.217c-.474 0-.834.206-1.08.618-.244.412-.368.972-.373 1.68h.05a1.7 1.7 0 0 1 .44-.551c.187-.153.399-.271.636-.351.239-.083.491-.124.756-.124a2.162 2.162 0 0 1 1.946 1.136c.194.353.291.756.291 1.211 0 .492-.114.93-.344 1.314a2.394 2.394 0 0 1-.955.902c-.407.215-.881.322-1.421.319Zm-.007-1.207c.237 0 .449-.057.636-.17.187-.114.334-.268.44-.462a1.33 1.33 0 0 0 .16-.653c0-.242-.053-.459-.16-.65a1.192 1.192 0 0 0-1.065-.629 1.208 1.208 0 0 0-.888.377 1.332 1.332 0 0 0-.199 1.548c.109.194.256.349.441.465.187.116.398.174.635.174Zm3.832 3.153v-7.5h1.491v.917h.068c.066-.147.162-.296.287-.448.128-.154.294-.282.498-.383.206-.104.461-.157.767-.157.397 0 .764.105 1.1.313.337.206.605.517.807.934.201.414.301.934.301 1.559 0 .608-.098 1.122-.294 1.541-.194.417-.46.733-.796.948-.334.213-.708.32-1.122.32-.293 0-.543-.049-.749-.146a1.54 1.54 0 0 1-.501-.366 1.831 1.831 0 0 1-.298-.451h-.046v2.919h-1.513Zm1.481-4.772c0 .324.045.607.135.848.09.242.22.43.39.565a.982.982 0 0 0 .622.199.982.982 0 0 0 .625-.202c.17-.138.299-.327.387-.569.09-.243.135-.524.135-.841a2.4 2.4 0 0 0-.132-.831 1.23 1.23 0 0 0-.387-.561.98.98 0 0 0-.628-.203.992.992 0 0 0-.625.196 1.22 1.22 0 0 0-.387.554c-.09.239-.135.52-.135.845Zm5.916-2.728 1.001 1.907 1.027-1.907h1.551l-1.58 2.728 1.623 2.727h-1.545l-1.076-1.886-1.058 1.886h-1.562l1.619-2.727-1.563-2.728h1.563Z" fill="#fff"/><path stroke="#E8178A" d="M370 152.5h7m-7 15h7M373.5 96v16"/><rect x="378" y="95" width="36" height="18" rx="3" fill="#E8178A"/><path d="M387.754 100.727V108h-1.538v-5.813h-.043l-1.665 1.044v-1.364l1.8-1.14h1.446Zm4.519 7.372a3.28 3.28 0 0 1-1.083-.188 2.463 2.463 0 0 1-.93-.6c-.275-.277-.493-.644-.654-1.101-.158-.457-.238-1.018-.238-1.683a6.088 6.088 0 0 1 .21-1.637c.14-.483.338-.893.597-1.229.26-.336.571-.592.933-.767a2.744 2.744 0 0 1 1.219-.266c.485 0 .913.095 1.285.284.372.187.67.441.895.763.227.322.365.683.412 1.084h-1.516a1.016 1.016 0 0 0-.373-.597 1.13 1.13 0 0 0-.703-.217c-.474 0-.834.206-1.08.618-.244.412-.368.972-.373 1.68h.05a1.7 1.7 0 0 1 .44-.551c.187-.153.399-.271.636-.351.239-.083.491-.124.756-.124a2.162 2.162 0 0 1 1.946 1.136c.194.353.291.756.291 1.211 0 .492-.114.93-.344 1.314a2.394 2.394 0 0 1-.955.902c-.407.215-.881.322-1.421.319Zm-.007-1.207c.237 0 .449-.057.636-.17.187-.114.334-.268.44-.462a1.33 1.33 0 0 0 .16-.653c0-.242-.053-.459-.16-.65a1.192 1.192 0 0 0-1.065-.629 1.208 1.208 0 0 0-.888.377 1.332 1.332 0 0 0-.199 1.548c.109.194.256.349.441.465.187.116.398.174.635.174Zm3.832 3.153v-7.5h1.491v.917h.068c.066-.147.162-.296.287-.448.128-.154.294-.282.498-.383.206-.104.461-.157.767-.157.397 0 .764.105 1.1.313.337.206.605.517.807.934.201.414.301.934.301 1.559 0 .608-.098 1.122-.294 1.541-.194.417-.46.733-.796.948-.334.213-.708.32-1.122.32-.293 0-.543-.049-.749-.146a1.54 1.54 0 0 1-.501-.366 1.831 1.831 0 0 1-.298-.451h-.046v2.919h-1.513Zm1.481-4.772c0 .324.045.607.135.848.09.242.22.43.39.565a.982.982 0 0 0 .622.199.982.982 0 0 0 .625-.202c.17-.138.299-.327.387-.569.09-.243.135-.524.135-.841a2.4 2.4 0 0 0-.132-.831 1.23 1.23 0 0 0-.387-.561.98.98 0 0 0-.628-.203.992.992 0 0 0-.625.196 1.22 1.22 0 0 0-.387.554c-.09.239-.135.52-.135.845Zm5.916-2.728 1.001 1.907 1.027-1.907h1.551l-1.58 2.728 1.623 2.727h-1.545l-1.076-1.886-1.058 1.886h-1.562l1.619-2.727-1.563-2.728h1.563Z" fill="#fff"/><path stroke="#E8178A" d="M370 96.5h7m-7 15h7"/><defs><filter id="a" x="0" y="0" width="371" height="168" filterUnits="userSpaceOnUse" color-interpolation-filters="sRGB"><feFlood flood-opacity="0" result="BackgroundImageFix"/><feColorMatrix in="SourceAlpha" values="0 0 0 0 0 0 0 0 0 0 0 0 0 0 0 0 0 0 127 0" result="hardAlpha"/><feOffset/><feGaussianBlur stdDeviation="4"/><feColorMatrix values="0 0 0 0 0 0 0 0 0 0 0 0 0 0 0 0 0 0 0.15 0"/><feBlend in2="BackgroundImageFix" result="effect1_dropShadow_5033_1501"/><feBlend in="SourceGraphic" in2="effect1_dropShadow_5033_1501" result="shape"/></filter></defs></svg>