<svg width="259" height="207" viewBox="0 0 259 207" fill="none" xmlns="http://www.w3.org/2000/svg">
<rect x="57" y="78" width="197" height="4" fill="#98A2B3"/>
<path d="M1.01136 106.364H4.04545L7.25 114.182H7.38636L10.5909 106.364H13.625V118H11.2386V110.426H11.142L8.13068 117.943H6.50568L3.49432 110.398H3.39773V118H1.01136V106.364ZM18.0952 118.165C17.5384 118.165 17.0421 118.068 16.6065 117.875C16.1709 117.678 15.8262 117.388 15.5724 117.006C15.3224 116.619 15.1974 116.138 15.1974 115.562C15.1974 115.078 15.2865 114.67 15.4645 114.341C15.6425 114.011 15.8849 113.746 16.1918 113.545C16.4986 113.345 16.8471 113.193 17.2372 113.091C17.6312 112.989 18.044 112.917 18.4759 112.875C18.9834 112.822 19.3925 112.773 19.7031 112.727C20.0137 112.678 20.2391 112.606 20.3793 112.511C20.5194 112.417 20.5895 112.277 20.5895 112.091V112.057C20.5895 111.697 20.4759 111.419 20.2486 111.222C20.0251 111.025 19.7069 110.926 19.294 110.926C18.8584 110.926 18.5118 111.023 18.2543 111.216C17.9967 111.405 17.8262 111.644 17.7429 111.932L15.5043 111.75C15.6179 111.22 15.8414 110.761 16.1747 110.375C16.508 109.985 16.938 109.686 17.4645 109.477C17.9948 109.265 18.6084 109.159 19.3054 109.159C19.7902 109.159 20.2543 109.216 20.6974 109.33C21.1444 109.443 21.5402 109.619 21.8849 109.858C22.2334 110.097 22.508 110.403 22.7088 110.778C22.9096 111.15 23.0099 111.595 23.0099 112.114V118H20.7145V116.79H20.6463C20.5062 117.062 20.3187 117.303 20.0838 117.511C19.849 117.716 19.5668 117.877 19.2372 117.994C18.9077 118.108 18.527 118.165 18.0952 118.165ZM18.7884 116.494C19.1444 116.494 19.4588 116.424 19.7315 116.284C20.0043 116.14 20.2183 115.947 20.3736 115.705C20.5289 115.462 20.6065 115.187 20.6065 114.881V113.955C20.5308 114.004 20.4266 114.049 20.294 114.091C20.1652 114.129 20.0194 114.165 19.8565 114.199C19.6937 114.229 19.5308 114.258 19.3679 114.284C19.205 114.307 19.0573 114.328 18.9247 114.347C18.6406 114.388 18.3925 114.455 18.1804 114.545C17.9683 114.636 17.8035 114.759 17.6861 114.915C17.5687 115.066 17.5099 115.256 17.5099 115.483C17.5099 115.812 17.6293 116.064 17.8679 116.239C18.1103 116.409 18.4171 116.494 18.7884 116.494ZM24.8878 118V109.273H27.2344V110.795H27.3253C27.4844 110.254 27.7514 109.845 28.1264 109.568C28.5014 109.288 28.9332 109.148 29.4219 109.148C29.5431 109.148 29.6738 109.155 29.8139 109.17C29.9541 109.186 30.0772 109.206 30.1832 109.233V111.381C30.0696 111.347 29.9124 111.316 29.7116 111.29C29.5109 111.263 29.3272 111.25 29.1605 111.25C28.8045 111.25 28.4863 111.328 28.206 111.483C27.9295 111.634 27.7098 111.847 27.5469 112.119C27.3878 112.392 27.3082 112.706 27.3082 113.062V118H24.8878ZM33.6278 115.489L33.6335 112.585H33.9858L36.7812 109.273H39.5597L35.804 113.659H35.2301L33.6278 115.489ZM31.4347 118V106.364H33.8551V118H31.4347ZM36.8892 118L34.321 114.199L35.9347 112.489L39.7244 118H36.8892ZM44.3651 118.17C43.4673 118.17 42.6946 117.989 42.0469 117.625C41.4029 117.258 40.9067 116.739 40.5582 116.068C40.2098 115.394 40.0355 114.597 40.0355 113.676C40.0355 112.778 40.2098 111.991 40.5582 111.312C40.9067 110.634 41.3973 110.106 42.0298 109.727C42.6662 109.348 43.4124 109.159 44.2685 109.159C44.8442 109.159 45.3802 109.252 45.8764 109.438C46.3764 109.619 46.812 109.894 47.1832 110.261C47.5582 110.629 47.8499 111.091 48.0582 111.648C48.2666 112.201 48.3707 112.848 48.3707 113.591V114.256H41.0014V112.756H46.0923C46.0923 112.407 46.0166 112.098 45.8651 111.83C45.7135 111.561 45.5033 111.35 45.2344 111.199C44.9692 111.044 44.6605 110.966 44.3082 110.966C43.9408 110.966 43.6151 111.051 43.331 111.222C43.0507 111.388 42.831 111.614 42.6719 111.898C42.5128 112.178 42.4313 112.491 42.4276 112.835V114.261C42.4276 114.693 42.5071 115.066 42.6662 115.381C42.8291 115.695 43.0582 115.938 43.3537 116.108C43.6491 116.278 43.9995 116.364 44.4048 116.364C44.6738 116.364 44.92 116.326 45.1435 116.25C45.367 116.174 45.5582 116.061 45.7173 115.909C45.8764 115.758 45.9976 115.572 46.081 115.352L48.3196 115.5C48.206 116.038 47.973 116.508 47.6207 116.909C47.2723 117.307 46.8215 117.617 46.2685 117.841C45.7192 118.061 45.0848 118.17 44.3651 118.17ZM49.9503 118V109.273H52.2969V110.795H52.3878C52.5469 110.254 52.8139 109.845 53.1889 109.568C53.5639 109.288 53.9957 109.148 54.4844 109.148C54.6056 109.148 54.7363 109.155 54.8764 109.17C55.0166 109.186 55.1397 109.206 55.2457 109.233V111.381C55.1321 111.347 54.9749 111.316 54.7741 111.29C54.5734 111.263 54.3897 111.25 54.223 111.25C53.867 111.25 53.5488 111.328 53.2685 111.483C52.992 111.634 52.7723 111.847 52.6094 112.119C52.4503 112.392 52.3707 112.706 52.3707 113.062V118H49.9503ZM64.8423 109.273V111.091H59.5866V109.273H64.8423ZM60.7798 107.182H63.2003V115.318C63.2003 115.542 63.2344 115.716 63.3026 115.841C63.3707 115.962 63.4654 116.047 63.5866 116.097C63.7116 116.146 63.8556 116.17 64.0185 116.17C64.1321 116.17 64.2457 116.161 64.3594 116.142C64.473 116.119 64.5601 116.102 64.6207 116.091L65.0014 117.892C64.8802 117.93 64.7098 117.973 64.4901 118.023C64.2704 118.076 64.0033 118.108 63.6889 118.119C63.1056 118.142 62.5942 118.064 62.1548 117.886C61.7192 117.708 61.3802 117.432 61.1378 117.057C60.8954 116.682 60.776 116.208 60.7798 115.636V107.182ZM66.419 118V109.273H68.8395V118H66.419ZM67.6349 108.148C67.2751 108.148 66.9664 108.028 66.7088 107.79C66.455 107.547 66.3281 107.258 66.3281 106.92C66.3281 106.587 66.455 106.301 66.7088 106.062C66.9664 105.82 67.2751 105.699 67.6349 105.699C67.9948 105.699 68.3016 105.82 68.5554 106.062C68.813 106.301 68.9418 106.587 68.9418 106.92C68.9418 107.258 68.813 107.547 68.5554 107.79C68.3016 108.028 67.9948 108.148 67.6349 108.148ZM75.4205 109.273V111.091H70.1648V109.273H75.4205ZM71.358 107.182H73.7784V115.318C73.7784 115.542 73.8125 115.716 73.8807 115.841C73.9489 115.962 74.0436 116.047 74.1648 116.097C74.2898 116.146 74.4337 116.17 74.5966 116.17C74.7102 116.17 74.8239 116.161 74.9375 116.142C75.0511 116.119 75.1383 116.102 75.1989 116.091L75.5795 117.892C75.4583 117.93 75.2879 117.973 75.0682 118.023C74.8485 118.076 74.5814 118.108 74.267 118.119C73.6837 118.142 73.1723 118.064 72.733 117.886C72.2973 117.708 71.9583 117.432 71.7159 117.057C71.4735 116.682 71.3542 116.208 71.358 115.636V107.182ZM79.6051 106.364V118H77.1847V106.364H79.6051ZM85.5213 118.17C84.6236 118.17 83.8509 117.989 83.2031 117.625C82.5592 117.258 82.063 116.739 81.7145 116.068C81.366 115.394 81.1918 114.597 81.1918 113.676C81.1918 112.778 81.366 111.991 81.7145 111.312C82.063 110.634 82.5535 110.106 83.1861 109.727C83.8224 109.348 84.5687 109.159 85.4247 109.159C86.0005 109.159 86.5365 109.252 87.0327 109.438C87.5327 109.619 87.9683 109.894 88.3395 110.261C88.7145 110.629 89.0062 111.091 89.2145 111.648C89.4228 112.201 89.527 112.848 89.527 113.591V114.256H82.1577V112.756H87.2486C87.2486 112.407 87.1728 112.098 87.0213 111.83C86.8698 111.561 86.6596 111.35 86.3906 111.199C86.1255 111.044 85.8168 110.966 85.4645 110.966C85.0971 110.966 84.7713 111.051 84.4872 111.222C84.2069 111.388 83.9872 111.614 83.8281 111.898C83.669 112.178 83.5876 112.491 83.5838 112.835V114.261C83.5838 114.693 83.6634 115.066 83.8224 115.381C83.9853 115.695 84.2145 115.938 84.5099 116.108C84.8054 116.278 85.1558 116.364 85.5611 116.364C85.83 116.364 86.0762 116.326 86.2997 116.25C86.5232 116.174 86.7145 116.061 86.8736 115.909C87.0327 115.758 87.1539 115.572 87.2372 115.352L89.4759 115.5C89.3622 116.038 89.1293 116.508 88.777 116.909C88.4285 117.307 87.9777 117.617 87.4247 117.841C86.8755 118.061 86.241 118.17 85.5213 118.17Z" fill="#344054"/>
<rect x="31.5" y="66" width="28" height="28" rx="14" fill="#98A2B3"/>
<rect x="31.5" y="66" width="28" height="28" rx="14" stroke="white" stroke-width="4"/>
<path d="M47.3302 74.8182V85H45.1775V76.8615H45.1178L42.7861 78.3232V76.4141L45.3067 74.8182H47.3302Z" fill="white"/>
<circle cx="45" cy="191" r="12" fill="#344054"/>
<path d="M40.9432 197V195.227L45.0852 191.392C45.4375 191.051 45.733 190.744 45.9716 190.472C46.214 190.199 46.3977 189.932 46.5227 189.67C46.6477 189.405 46.7102 189.119 46.7102 188.812C46.7102 188.472 46.6326 188.178 46.4773 187.932C46.322 187.682 46.1098 187.491 45.8409 187.358C45.572 187.222 45.267 187.153 44.9261 187.153C44.5701 187.153 44.2595 187.225 43.9943 187.369C43.7292 187.513 43.5246 187.72 43.3807 187.989C43.2367 188.258 43.1648 188.578 43.1648 188.949H40.8295C40.8295 188.187 41.0019 187.527 41.3466 186.966C41.6913 186.405 42.1742 185.972 42.7955 185.665C43.4167 185.358 44.1326 185.205 44.9432 185.205C45.7765 185.205 46.5019 185.352 47.1193 185.648C47.7405 185.939 48.2235 186.345 48.5682 186.864C48.9129 187.383 49.0852 187.977 49.0852 188.648C49.0852 189.087 48.9981 189.521 48.8239 189.949C48.6534 190.377 48.3485 190.852 47.9091 191.375C47.4697 191.894 46.8504 192.517 46.0511 193.244L44.3523 194.909V194.989H49.2386V197H40.9432Z" fill="white"/>
<path d="M45 180L45 141" stroke="#344054" stroke-dasharray="2 2"/>
<circle cx="247" cy="140" r="12" fill="#344054"/>
<path d="M247.244 146.159C246.396 146.159 245.64 146.013 244.977 145.722C244.318 145.426 243.797 145.021 243.415 144.506C243.036 143.987 242.841 143.388 242.83 142.71H245.307C245.322 142.994 245.415 143.244 245.585 143.46C245.759 143.672 245.991 143.837 246.278 143.955C246.566 144.072 246.89 144.131 247.25 144.131C247.625 144.131 247.956 144.064 248.244 143.932C248.532 143.799 248.758 143.616 248.92 143.381C249.083 143.146 249.165 142.875 249.165 142.568C249.165 142.258 249.078 141.983 248.903 141.744C248.733 141.502 248.487 141.312 248.165 141.176C247.847 141.04 247.468 140.972 247.028 140.972H245.943V139.165H247.028C247.4 139.165 247.727 139.1 248.011 138.972C248.299 138.843 248.523 138.665 248.682 138.438C248.841 138.206 248.92 137.938 248.92 137.631C248.92 137.339 248.85 137.083 248.71 136.864C248.574 136.64 248.381 136.466 248.131 136.341C247.884 136.216 247.597 136.153 247.267 136.153C246.934 136.153 246.629 136.214 246.352 136.335C246.076 136.453 245.854 136.621 245.688 136.841C245.521 137.061 245.432 137.318 245.42 137.614H243.062C243.074 136.943 243.265 136.352 243.636 135.841C244.008 135.33 244.508 134.93 245.136 134.642C245.769 134.35 246.483 134.205 247.278 134.205C248.081 134.205 248.784 134.35 249.386 134.642C249.989 134.934 250.456 135.328 250.79 135.824C251.127 136.316 251.294 136.869 251.29 137.483C251.294 138.134 251.091 138.678 250.682 139.114C250.277 139.549 249.748 139.826 249.097 139.943V140.034C249.953 140.144 250.604 140.441 251.051 140.926C251.502 141.407 251.725 142.009 251.722 142.733C251.725 143.396 251.534 143.985 251.148 144.5C250.765 145.015 250.237 145.42 249.562 145.716C248.888 146.011 248.116 146.159 247.244 146.159Z" fill="white"/>
<path d="M247 129L247 90" stroke="#344054" stroke-dasharray="2 2"/>
<circle cx="92" cy="16" r="12" fill="#344054"/>
<path d="M94.0057 10.3636V22H91.5455V12.6989H91.4773L88.8125 14.3693V12.1875L91.6932 10.3636H94.0057Z" fill="white"/>
<path d="M89 16H45V66" stroke="#344054" stroke-dasharray="2 2"/>
</svg>
