<svg width="135" height="64" viewBox="0 0 135 64" fill="none" xmlns="http://www.w3.org/2000/svg">
<path d="M1.01136 42.3636H4.04545L7.25 50.1818H7.38636L10.5909 42.3636H13.625V54H11.2386V46.4261H11.142L8.13068 53.9432H6.50568L3.49432 46.3977H3.39773V54H1.01136V42.3636ZM18.0952 54.1648C17.5384 54.1648 17.0421 54.0682 16.6065 53.875C16.1709 53.678 15.8262 53.3883 15.5724 53.0057C15.3224 52.6193 15.1974 52.1383 15.1974 51.5625C15.1974 51.0777 15.2865 50.6705 15.4645 50.3409C15.6425 50.0114 15.8849 49.7462 16.1918 49.5455C16.4986 49.3447 16.8471 49.1932 17.2372 49.0909C17.6312 48.9886 18.044 48.9167 18.4759 48.875C18.9834 48.822 19.3925 48.7727 19.7031 48.7273C20.0137 48.678 20.2391 48.6061 20.3793 48.5114C20.5194 48.4167 20.5895 48.2765 20.5895 48.0909V48.0568C20.5895 47.697 20.4759 47.4186 20.2486 47.2216C20.0251 47.0246 19.7069 46.9261 19.294 46.9261C18.8584 46.9261 18.5118 47.0227 18.2543 47.2159C17.9967 47.4053 17.8262 47.6439 17.7429 47.9318L15.5043 47.75C15.6179 47.2197 15.8414 46.7614 16.1747 46.375C16.508 45.9848 16.938 45.6856 17.4645 45.4773C17.9948 45.2652 18.6084 45.1591 19.3054 45.1591C19.7902 45.1591 20.2543 45.2159 20.6974 45.3295C21.1444 45.4432 21.5402 45.6193 21.8849 45.858C22.2334 46.0966 22.508 46.4034 22.7088 46.7784C22.9096 47.1496 23.0099 47.5947 23.0099 48.1136V54H20.7145V52.7898H20.6463C20.5062 53.0625 20.3187 53.303 20.0838 53.5114C19.849 53.7159 19.5668 53.8769 19.2372 53.9943C18.9077 54.108 18.527 54.1648 18.0952 54.1648ZM18.7884 52.4943C19.1444 52.4943 19.4588 52.4242 19.7315 52.2841C20.0043 52.1402 20.2183 51.947 20.3736 51.7045C20.5289 51.4621 20.6065 51.1875 20.6065 50.8807V49.9545C20.5308 50.0038 20.4266 50.0492 20.294 50.0909C20.1652 50.1288 20.0194 50.1648 19.8565 50.1989C19.6937 50.2292 19.5308 50.2576 19.3679 50.2841C19.205 50.3068 19.0573 50.3277 18.9247 50.3466C18.6406 50.3883 18.3925 50.4545 18.1804 50.5455C17.9683 50.6364 17.8035 50.7595 17.6861 50.9148C17.5687 51.0663 17.5099 51.2557 17.5099 51.483C17.5099 51.8125 17.6293 52.0644 17.8679 52.2386C18.1103 52.4091 18.4171 52.4943 18.7884 52.4943ZM24.8878 54V45.2727H27.2344V46.7955H27.3253C27.4844 46.2538 27.7514 45.8447 28.1264 45.5682C28.5014 45.2879 28.9332 45.1477 29.4219 45.1477C29.5431 45.1477 29.6738 45.1553 29.8139 45.1705C29.9541 45.1856 30.0772 45.2064 30.1832 45.233V47.3807C30.0696 47.3466 29.9124 47.3163 29.7116 47.2898C29.5109 47.2633 29.3272 47.25 29.1605 47.25C28.8045 47.25 28.4863 47.3277 28.206 47.483C27.9295 47.6345 27.7098 47.8466 27.5469 48.1193C27.3878 48.392 27.3082 48.7064 27.3082 49.0625V54H24.8878ZM33.6278 51.4886L33.6335 48.5852H33.9858L36.7812 45.2727H39.5597L35.804 49.6591H35.2301L33.6278 51.4886ZM31.4347 54V42.3636H33.8551V54H31.4347ZM36.8892 54L34.321 50.1989L35.9347 48.4886L39.7244 54H36.8892ZM44.3651 54.1705C43.4673 54.1705 42.6946 53.9886 42.0469 53.625C41.4029 53.2576 40.9067 52.7386 40.5582 52.0682C40.2098 51.3939 40.0355 50.5966 40.0355 49.6761C40.0355 48.7784 40.2098 47.9905 40.5582 47.3125C40.9067 46.6345 41.3973 46.1061 42.0298 45.7273C42.6662 45.3485 43.4124 45.1591 44.2685 45.1591C44.8442 45.1591 45.3802 45.2519 45.8764 45.4375C46.3764 45.6193 46.812 45.8939 47.1832 46.2614C47.5582 46.6288 47.8499 47.0909 48.0582 47.6477C48.2666 48.2008 48.3707 48.8485 48.3707 49.5909V50.2557H41.0014V48.7557H46.0923C46.0923 48.4072 46.0166 48.0985 45.8651 47.8295C45.7135 47.5606 45.5033 47.3504 45.2344 47.1989C44.9692 47.0436 44.6605 46.9659 44.3082 46.9659C43.9408 46.9659 43.6151 47.0511 43.331 47.2216C43.0507 47.3883 42.831 47.6136 42.6719 47.8977C42.5128 48.178 42.4313 48.4905 42.4276 48.8352V50.2614C42.4276 50.6932 42.5071 51.0663 42.6662 51.3807C42.8291 51.6951 43.0582 51.9375 43.3537 52.108C43.6491 52.2784 43.9995 52.3636 44.4048 52.3636C44.6738 52.3636 44.92 52.3258 45.1435 52.25C45.367 52.1742 45.5582 52.0606 45.7173 51.9091C45.8764 51.7576 45.9976 51.572 46.081 51.3523L48.3196 51.5C48.206 52.0379 47.973 52.5076 47.6207 52.9091C47.2723 53.3068 46.8215 53.6174 46.2685 53.8409C45.7192 54.0606 45.0848 54.1705 44.3651 54.1705ZM49.9503 54V45.2727H52.2969V46.7955H52.3878C52.5469 46.2538 52.8139 45.8447 53.1889 45.5682C53.5639 45.2879 53.9957 45.1477 54.4844 45.1477C54.6056 45.1477 54.7363 45.1553 54.8764 45.1705C55.0166 45.1856 55.1397 45.2064 55.2457 45.233V47.3807C55.1321 47.3466 54.9749 47.3163 54.7741 47.2898C54.5734 47.2633 54.3897 47.25 54.223 47.25C53.867 47.25 53.5488 47.3277 53.2685 47.483C52.992 47.6345 52.7723 47.8466 52.6094 48.1193C52.4503 48.392 52.3707 48.7064 52.3707 49.0625V54H49.9503ZM64.8423 45.2727V47.0909H59.5866V45.2727H64.8423ZM60.7798 43.1818H63.2003V51.3182C63.2003 51.5417 63.2344 51.7159 63.3026 51.8409C63.3707 51.9621 63.4654 52.0473 63.5866 52.0966C63.7116 52.1458 63.8556 52.1705 64.0185 52.1705C64.1321 52.1705 64.2457 52.161 64.3594 52.142C64.473 52.1193 64.5601 52.1023 64.6207 52.0909L65.0014 53.892C64.8802 53.9299 64.7098 53.9735 64.4901 54.0227C64.2704 54.0758 64.0033 54.108 63.6889 54.1193C63.1056 54.142 62.5942 54.0644 62.1548 53.8864C61.7192 53.7083 61.3802 53.4318 61.1378 53.0568C60.8954 52.6818 60.776 52.2083 60.7798 51.6364V43.1818ZM66.419 54V45.2727H68.8395V54H66.419ZM67.6349 44.1477C67.2751 44.1477 66.9664 44.0284 66.7088 43.7898C66.455 43.5473 66.3281 43.2576 66.3281 42.9205C66.3281 42.5871 66.455 42.3011 66.7088 42.0625C66.9664 41.8201 67.2751 41.6989 67.6349 41.6989C67.9948 41.6989 68.3016 41.8201 68.5554 42.0625C68.813 42.3011 68.9418 42.5871 68.9418 42.9205C68.9418 43.2576 68.813 43.5473 68.5554 43.7898C68.3016 44.0284 67.9948 44.1477 67.6349 44.1477ZM75.4205 45.2727V47.0909H70.1648V45.2727H75.4205ZM71.358 43.1818H73.7784V51.3182C73.7784 51.5417 73.8125 51.7159 73.8807 51.8409C73.9489 51.9621 74.0436 52.0473 74.1648 52.0966C74.2898 52.1458 74.4337 52.1705 74.5966 52.1705C74.7102 52.1705 74.8239 52.161 74.9375 52.142C75.0511 52.1193 75.1383 52.1023 75.1989 52.0909L75.5795 53.892C75.4583 53.9299 75.2879 53.9735 75.0682 54.0227C74.8485 54.0758 74.5814 54.108 74.267 54.1193C73.6837 54.142 73.1723 54.0644 72.733 53.8864C72.2973 53.7083 71.9583 53.4318 71.7159 53.0568C71.4735 52.6818 71.3542 52.2083 71.358 51.6364V43.1818ZM79.6051 42.3636V54H77.1847V42.3636H79.6051ZM85.5213 54.1705C84.6236 54.1705 83.8509 53.9886 83.2031 53.625C82.5592 53.2576 82.063 52.7386 81.7145 52.0682C81.366 51.3939 81.1918 50.5966 81.1918 49.6761C81.1918 48.7784 81.366 47.9905 81.7145 47.3125C82.063 46.6345 82.5535 46.1061 83.1861 45.7273C83.8224 45.3485 84.5687 45.1591 85.4247 45.1591C86.0005 45.1591 86.5365 45.2519 87.0327 45.4375C87.5327 45.6193 87.9683 45.8939 88.3395 46.2614C88.7145 46.6288 89.0062 47.0909 89.2145 47.6477C89.4228 48.2008 89.527 48.8485 89.527 49.5909V50.2557H82.1577V48.7557H87.2486C87.2486 48.4072 87.1728 48.0985 87.0213 47.8295C86.8698 47.5606 86.6596 47.3504 86.3906 47.1989C86.1255 47.0436 85.8168 46.9659 85.4645 46.9659C85.0971 46.9659 84.7713 47.0511 84.4872 47.2216C84.2069 47.3883 83.9872 47.6136 83.8281 47.8977C83.669 48.178 83.5876 48.4905 83.5838 48.8352V50.2614C83.5838 50.6932 83.6634 51.0663 83.8224 51.3807C83.9853 51.6951 84.2145 51.9375 84.5099 52.108C84.8054 52.2784 85.1558 52.3636 85.5611 52.3636C85.83 52.3636 86.0762 52.3258 86.2997 52.25C86.5232 52.1742 86.7145 52.0606 86.8736 51.9091C87.0327 51.7576 87.1539 51.572 87.2372 51.3523L89.4759 51.5C89.3622 52.0379 89.1293 52.5076 88.777 52.9091C88.4285 53.3068 87.9777 53.6174 87.4247 53.8409C86.8755 54.0606 86.241 54.1705 85.5213 54.1705Z" fill="#344054"/>
<rect x="31.5" y="2" width="28" height="28" rx="14" fill="#98A2B3"/>
<rect x="31.5" y="2" width="28" height="28" rx="14" stroke="white" stroke-width="4"/>
<path d="M47.3302 10.8182V21H45.1775V12.8615H45.1178L42.7861 14.3232V12.4141L45.3067 10.8182H47.3302Z" fill="white"/>
<rect x="2" y="33.5" width="88" height="4" fill="#E8178A" fill-opacity="0.24"/>
<path d="M97.5 33.5V37.5" stroke="#E8178A"/>
<rect x="104" y="28" width="31" height="18" rx="3" fill="#E8178A"/>
<path d="M110.479 39.7216V38.5107L113.516 33.7273H114.56V35.4034H113.942L112.028 38.4325V38.4893H116.342V39.7216H110.479ZM113.97 41V39.3523L113.999 38.8161V33.7273H115.44V41H113.97ZM117.381 43.0455V35.5455H118.873V36.4616H118.94C119.006 36.3149 119.102 36.1657 119.228 36.0142C119.355 35.8603 119.521 35.7325 119.725 35.6307C119.931 35.5265 120.186 35.4744 120.492 35.4744C120.89 35.4744 121.257 35.5786 121.593 35.7869C121.929 35.9929 122.198 36.3042 122.399 36.7209C122.6 37.1352 122.701 37.6548 122.701 38.2798C122.701 38.8883 122.602 39.402 122.406 39.821C122.212 40.2377 121.947 40.5537 121.61 40.7692C121.277 40.9822 120.903 41.0888 120.488 41.0888C120.195 41.0888 119.945 41.0402 119.739 40.9432C119.535 40.8461 119.368 40.7242 119.238 40.5774C119.108 40.4283 119.009 40.2779 118.94 40.1264H118.894V43.0455H117.381ZM118.862 38.2727C118.862 38.5971 118.907 38.88 118.997 39.1214C119.087 39.3629 119.217 39.5511 119.387 39.6861C119.558 39.8187 119.765 39.8849 120.009 39.8849C120.255 39.8849 120.463 39.8175 120.634 39.6825C120.804 39.5452 120.933 39.3558 121.021 39.1143C121.111 38.8705 121.156 38.59 121.156 38.2727C121.156 37.9579 121.112 37.6809 121.025 37.4418C120.937 37.2027 120.808 37.0156 120.637 36.8807C120.467 36.7457 120.257 36.6783 120.009 36.6783C119.763 36.6783 119.554 36.7434 119.384 36.8736C119.216 37.0038 119.087 37.1884 118.997 37.4276C118.907 37.6667 118.862 37.9484 118.862 38.2727ZM124.778 35.5455L125.779 37.4524L126.806 35.5455H128.358L126.777 38.2727L128.4 41H126.855L125.779 39.1143L124.721 41H123.159L124.778 38.2727L123.216 35.5455H124.778Z" fill="white"/>
<line x1="94" y1="34" x2="101" y2="34" stroke="#E8178A"/>
<line x1="94" y1="37" x2="101" y2="37" stroke="#E8178A"/>
</svg>
