<svg width="189" height="97" viewBox="0 0 189 97" fill="none" xmlns="http://www.w3.org/2000/svg"><g opacity=".5"><path d="M37.5 53.5V53H5a4.5 4.5 0 0 0-4.5 4.5v34A4.5 4.5 0 0 0 5 96h32.5V53.5Z" fill="#5925DC"/><path d="M37.5 53.5V53H5a4.5 4.5 0 0 0-4.5 4.5v34A4.5 4.5 0 0 0 5 96h32.5V53.5Z" stroke="#5925DC"/><path fill-rule="evenodd" clip-rule="evenodd" d="M23.5 74.5c0 .102-.04.2-.11.272a.37.37 0 0 1-.265.113h-8.25a.37.37 0 0 1-.265-.113.391.391 0 0 1 0-.545.37.37 0 0 1 .265-.113h8.25c.1 0 .195.04.265.113.07.072.11.17.11.273Z" fill="#98A2B3"/></g><path fill="#fff" d="M37.5 53h68.638v43H37.5z"/><path stroke="#98A2B3" d="M37.5 53h68.638v43H37.5z"/><path d="M71.819 80.66c-.856 0-1.585-.234-2.188-.7-.602-.47-1.062-1.15-1.38-2.04-.318-.894-.478-1.973-.478-3.238 0-1.258.16-2.332.478-3.222.322-.894.784-1.575 1.386-2.045.606-.474 1.334-.71 2.182-.71.848 0 1.574.236 2.176.71.606.47 1.068 1.151 1.386 2.045.322.89.483 1.964.483 3.222 0 1.265-.159 2.344-.477 3.239-.318.89-.778 1.57-1.38 2.04-.603.465-1.332.698-2.188.698Zm0-1.25c.848 0 1.507-.41 1.977-1.228.47-.818.705-1.985.705-3.5 0-1.008-.108-1.866-.324-2.574-.212-.708-.519-1.248-.92-1.62a2.032 2.032 0 0 0-1.438-.556c-.841 0-1.498.415-1.972 1.244-.473.826-.71 1.995-.71 3.506 0 1.007.106 1.864.318 2.568.212.704.517 1.24.915 1.608a2.07 2.07 0 0 0 1.449.551Z" fill="#344054"/><path d="M106.638 53h-.5v43h32.5a4.5 4.5 0 0 0 4.5-4.5v-34a4.5 4.5 0 0 0-4.5-4.5h-32Z" fill="#5925DC"/><path d="M106.638 53h-.5v43h32.5a4.5 4.5 0 0 0 4.5-4.5v-34a4.5 4.5 0 0 0-4.5-4.5h-32Z" stroke="#5925DC"/><path d="M130.638 80.667h-8a4 4 0 0 1-4-4v-4.334a4 4 0 0 1 4-4h8v12.334Z" fill="#5925DC"/><path fill-rule="evenodd" clip-rule="evenodd" d="M124.638 79.126a.37.37 0 0 1-.265-.113.388.388 0 0 1-.11-.273v-3.855h-3.75c-.1 0-.195-.04-.265-.113a.388.388 0 0 1-.11-.272c0-.102.039-.2.11-.273a.368.368 0 0 1 .265-.112h3.75V70.26c0-.102.039-.2.11-.273a.368.368 0 0 1 .53 0c.07.073.11.17.11.273v3.855h3.75a.37.37 0 0 1 .265.112.393.393 0 0 1 0 .545.37.37 0 0 1-.265.113h-3.75v3.855c0 .102-.04.2-.11.273a.37.37 0 0 1-.265.112Z" fill="#fff"/><circle cx="177" cy="74" r="12" transform="rotate(-90 177 74)" fill="#344054"/><path d="M172.443 80v-1.773l4.142-3.835c.353-.34.648-.648.887-.92.242-.273.426-.54.551-.801.125-.266.187-.552.187-.859 0-.34-.077-.634-.233-.88a1.526 1.526 0 0 0-.636-.574 1.995 1.995 0 0 0-.915-.205c-.356 0-.667.072-.932.216-.265.144-.469.35-.613.62-.144.269-.216.589-.216.96h-2.335c0-.761.172-1.422.517-1.983.344-.56.827-.994 1.448-1.301.622-.307 1.338-.46 2.148-.46.834 0 1.559.147 2.176.443.622.291 1.104.697 1.449 1.216s.517 1.113.517 1.784c0 .44-.087.873-.261 1.3-.171.429-.476.904-.915 1.427-.439.519-1.059 1.142-1.858 1.87l-1.699 1.664v.08h4.887V80h-8.296Z" fill="#fff"/><path d="M167 74h-23" stroke="#344054" stroke-dasharray="2 2"/><circle cx="72" cy="16" r="12" transform="rotate(-90 72 16)" fill="#344054"/><path d="M74.006 10.364V22h-2.46v-9.301h-.069l-2.665 1.67v-2.181l2.881-1.824h2.313Z" fill="#fff"/><path d="M72 25v28" stroke="#344054" stroke-dasharray="2 2"/></svg>