<svg width="198" height="47" viewBox="0 0 198 47" fill="none" xmlns="http://www.w3.org/2000/svg"><g opacity=".5"><path d="M37.5 2.5V2H5A4.5 4.5 0 0 0 .5 6.5v34A4.5 4.5 0 0 0 5 45h32.5V2.5Z" fill="#5925DC"/><path d="M37.5 2.5V2H5A4.5 4.5 0 0 0 .5 6.5v34A4.5 4.5 0 0 0 5 45h32.5V2.5Z" stroke="#5925DC"/><path fill-rule="evenodd" clip-rule="evenodd" d="M23.5 23.5c0 .102-.04.2-.11.273a.37.37 0 0 1-.265.113h-8.25a.37.37 0 0 1-.265-.113.391.391 0 0 1 0-.546.37.37 0 0 1 .265-.112h8.25c.1 0 .195.04.265.113.07.072.11.17.11.272Z" fill="#98A2B3"/></g><path fill="#fff" d="M37.5 2h68.638v43H37.5z"/><path stroke="#98A2B3" d="M37.5 2h68.638v43H37.5z"/><path d="M71.819 29.66c-.856 0-1.585-.234-2.188-.7-.602-.47-1.062-1.15-1.38-2.04-.318-.894-.478-1.973-.478-3.238 0-1.258.16-2.332.478-3.222.322-.894.784-1.576 1.386-2.045.606-.474 1.334-.71 2.182-.71.848 0 1.574.236 2.176.71.606.47 1.068 1.151 1.386 2.045.322.89.483 1.964.483 3.222 0 1.265-.159 2.345-.477 3.239-.318.89-.778 1.57-1.38 2.04-.603.465-1.332.698-2.188.698Zm0-1.25c.848 0 1.507-.41 1.977-1.228.47-.818.705-1.985.705-3.5 0-1.008-.108-1.866-.324-2.574-.212-.708-.519-1.248-.92-1.62a2.032 2.032 0 0 0-1.438-.556c-.841 0-1.498.415-1.972 1.244-.473.826-.71 1.995-.71 3.506 0 1.007.106 1.864.318 2.568.212.704.517 1.24.915 1.608a2.07 2.07 0 0 0 1.449.551Z" fill="#344054"/><path d="M106.638 2h-.5v43h32.5a4.5 4.5 0 0 0 4.5-4.5v-34a4.5 4.5 0 0 0-4.5-4.5h-32Z" fill="#5925DC"/><path d="M106.638 2h-.5v43h32.5a4.5 4.5 0 0 0 4.5-4.5v-34a4.5 4.5 0 0 0-4.5-4.5h-32Z" stroke="#5925DC"/><path d="M130.638 29.667h-8a4 4 0 0 1-4-4v-4.334a4 4 0 0 1 4-4h8v12.334Z" fill="#5925DC"/><path fill-rule="evenodd" clip-rule="evenodd" d="M124.638 28.125c-.1 0-.195-.04-.265-.112a.388.388 0 0 1-.11-.273v-3.855h-3.75c-.1 0-.195-.04-.265-.113a.388.388 0 0 1-.11-.272c0-.102.039-.2.11-.273a.368.368 0 0 1 .265-.113h3.75V19.26c0-.102.039-.2.11-.273a.368.368 0 0 1 .53 0c.07.073.11.17.11.273v3.854h3.75a.37.37 0 0 1 .265.113.393.393 0 0 1 0 .546.37.37 0 0 1-.265.112h-3.75v3.855c0 .102-.04.2-.11.273a.37.37 0 0 1-.265.112Z" fill="#fff"/><path d="M151.5 17.5v-16" stroke="#E8178A"/><rect x="162" y=".5" width="36" height="18" rx="3" fill="#E8178A"/><path d="M171.754 6.227V13.5h-1.538V7.687h-.043l-1.665 1.044V7.367l1.8-1.14h1.446Zm4.519 7.372a3.285 3.285 0 0 1-1.083-.188 2.464 2.464 0 0 1-.93-.6c-.275-.277-.493-.644-.654-1.1-.158-.458-.238-1.019-.238-1.684.003-.61.073-1.156.21-1.637.14-.483.338-.893.597-1.229.26-.336.571-.592.933-.767a2.736 2.736 0 0 1 1.219-.266c.485 0 .913.095 1.285.284.372.187.67.441.895.763.227.322.365.683.412 1.084h-1.516a1.018 1.018 0 0 0-.373-.597 1.127 1.127 0 0 0-.703-.217c-.474 0-.834.206-1.08.618-.244.412-.368.972-.373 1.68h.05c.109-.216.256-.399.44-.55.187-.154.399-.272.636-.352.239-.083.491-.124.756-.124a2.162 2.162 0 0 1 1.946 1.136c.194.353.291.756.291 1.21 0 .493-.114.931-.344 1.315a2.389 2.389 0 0 1-.955.902c-.407.215-.881.322-1.421.32Zm-.007-1.207a1.2 1.2 0 0 0 1.076-.632 1.33 1.33 0 0 0 .16-.653 1.31 1.31 0 0 0-.16-.65 1.181 1.181 0 0 0-1.065-.629 1.22 1.22 0 0 0-.494.1 1.245 1.245 0 0 0-.657.688 1.272 1.272 0 0 0-.096.494 1.277 1.277 0 0 0 .601 1.108c.187.116.398.174.635.174Zm3.832 3.154v-7.5h1.491v.916h.068c.066-.147.162-.296.287-.448.128-.154.294-.282.498-.383.206-.104.461-.157.767-.157.397 0 .764.105 1.1.313.337.206.605.517.807.934.201.414.301.934.301 1.559 0 .608-.098 1.122-.294 1.541-.194.417-.46.733-.796.948-.334.213-.708.32-1.122.32a1.75 1.75 0 0 1-.749-.146 1.545 1.545 0 0 1-.501-.366c-.13-.149-.23-.3-.298-.45h-.046v2.918h-1.513Zm1.481-4.773c0 .324.045.607.135.848.09.242.22.43.39.565a.984.984 0 0 0 .622.199.977.977 0 0 0 .625-.203c.17-.137.299-.326.387-.568a2.42 2.42 0 0 0 .135-.841 2.4 2.4 0 0 0-.132-.831 1.23 1.23 0 0 0-.387-.561.98.98 0 0 0-.628-.203.997.997 0 0 0-.625.196 1.22 1.22 0 0 0-.387.554c-.09.239-.135.52-.135.845Zm5.916-2.728 1.001 1.907 1.027-1.907h1.551l-1.58 2.728 1.623 2.727h-1.545l-1.076-1.886-1.058 1.886h-1.562l1.619-2.727-1.563-2.728h1.563Z" fill="#fff"/><path stroke="#E8178A" d="M155 17h-7m7-15h-7m3.5 43.5v-16"/><rect x="162" y="28.5" width="36" height="18" rx="3" fill="#E8178A"/><path d="M171.754 34.227V41.5h-1.538v-5.813h-.043l-1.665 1.044v-1.364l1.8-1.14h1.446Zm4.519 7.372a3.285 3.285 0 0 1-1.083-.188 2.464 2.464 0 0 1-.93-.6c-.275-.277-.493-.644-.654-1.1-.158-.458-.238-1.019-.238-1.684.003-.61.073-1.157.21-1.637a3.66 3.66 0 0 1 .597-1.229c.26-.336.571-.592.933-.767a2.736 2.736 0 0 1 1.219-.266c.485 0 .913.094 1.285.284.372.187.67.441.895.763.227.322.365.683.412 1.084h-1.516a1.018 1.018 0 0 0-.373-.597 1.127 1.127 0 0 0-.703-.217c-.474 0-.834.206-1.08.618-.244.412-.368.972-.373 1.68h.05a1.7 1.7 0 0 1 .44-.55c.187-.154.399-.272.636-.352a2.29 2.29 0 0 1 .756-.124 2.162 2.162 0 0 1 1.946 1.136c.194.353.291.756.291 1.21 0 .493-.114.931-.344 1.315a2.389 2.389 0 0 1-.955.902c-.407.215-.881.322-1.421.32Zm-.007-1.207a1.2 1.2 0 0 0 1.076-.632 1.33 1.33 0 0 0 .16-.654 1.31 1.31 0 0 0-.16-.65 1.18 1.18 0 0 0-1.065-.629 1.22 1.22 0 0 0-.494.1 1.244 1.244 0 0 0-.657.69 1.272 1.272 0 0 0-.096.493 1.277 1.277 0 0 0 .601 1.108c.187.116.398.174.635.174Zm3.832 3.153v-7.5h1.491v.917h.068c.066-.147.162-.296.287-.448.128-.154.294-.282.498-.383.206-.105.461-.157.767-.157.397 0 .764.105 1.1.313.337.206.605.517.807.934.201.414.301.934.301 1.559 0 .608-.098 1.122-.294 1.541-.194.417-.46.733-.796.948-.334.213-.708.32-1.122.32a1.75 1.75 0 0 1-.749-.146 1.545 1.545 0 0 1-.501-.366c-.13-.149-.23-.3-.298-.45h-.046v2.918h-1.513Zm1.481-4.772c0 .324.045.607.135.848.09.242.22.43.39.565a.984.984 0 0 0 .622.199.977.977 0 0 0 .625-.203c.17-.137.299-.326.387-.568.09-.243.135-.524.135-.841a2.4 2.4 0 0 0-.132-.831 1.229 1.229 0 0 0-.387-.561.98.98 0 0 0-.628-.203.997.997 0 0 0-.625.196 1.22 1.22 0 0 0-.387.554c-.09.239-.135.52-.135.845Zm5.916-2.728 1.001 1.907 1.027-1.907h1.551l-1.58 2.728 1.623 2.727h-1.545l-1.076-1.886-1.058 1.886h-1.562l1.619-2.727-1.563-2.728h1.563Z" fill="#fff"/><path stroke="#E8178A" d="M155 45h-7m7-15h-7"/><path fill="#E8178A" fill-opacity=".24" d="M0 1.5h144v16H0zm0 28h144v16H0z"/></svg>