<svg width="450" height="409" viewBox="0 0 450 409" fill="none" xmlns="http://www.w3.org/2000/svg">
<rect x="0.5" y="41.5" width="383" height="367" rx="4.5" fill="white"/>
<rect x="0.5" y="41.5" width="383" height="367" rx="4.5" stroke="#98A2B3"/>
<path fill-rule="evenodd" clip-rule="evenodd" d="M43.3539 74.646C43.4005 74.6924 43.4374 74.7476 43.4626 74.8083C43.4878 74.8691 43.5008 74.9342 43.5008 75C43.5008 75.0657 43.4878 75.1309 43.4626 75.1916C43.4374 75.2524 43.4005 75.3075 43.3539 75.354L37.7069 81L43.3539 86.646C43.4478 86.7399 43.5006 86.8672 43.5006 87C43.5006 87.1328 43.4478 87.2601 43.3539 87.354C43.26 87.4479 43.1327 87.5006 42.9999 87.5006C42.8671 87.5006 42.7398 87.4479 42.6459 87.354L36.6459 81.354C36.5994 81.3075 36.5624 81.2524 36.5372 81.1916C36.512 81.1309 36.499 81.0657 36.499 81C36.499 80.9342 36.512 80.8691 36.5372 80.8083C36.5624 80.7476 36.5994 80.6924 36.6459 80.646L42.6459 74.646C42.6924 74.5994 42.7475 74.5625 42.8083 74.5373C42.869 74.5121 42.9342 74.4991 42.9999 74.4991C43.0657 74.4991 43.1308 74.5121 43.1916 74.5373C43.2523 74.5625 43.3075 74.5994 43.3539 74.646V74.646Z" fill="#4A1FB8"/>
<path d="M154.241 80.9091C154.241 82.0194 154.031 82.964 153.61 83.7429C153.192 84.5218 152.622 85.1167 151.9 85.5277C151.181 85.9354 150.372 86.1392 149.474 86.1392C148.569 86.1392 147.757 85.9337 147.038 85.5227C146.318 85.1117 145.75 84.5168 145.332 83.7379C144.915 82.959 144.706 82.0161 144.706 80.9091C144.706 79.7988 144.915 78.8542 145.332 78.0753C145.75 77.2964 146.318 76.7031 147.038 76.2955C147.757 75.8845 148.569 75.679 149.474 75.679C150.372 75.679 151.181 75.8845 151.9 76.2955C152.622 76.7031 153.192 77.2964 153.61 78.0753C154.031 78.8542 154.241 79.7988 154.241 80.9091ZM152.059 80.9091C152.059 80.1899 151.951 79.5833 151.736 79.0895C151.524 78.5956 151.224 78.2211 150.836 77.9659C150.448 77.7107 149.994 77.5831 149.474 77.5831C148.953 77.5831 148.499 77.7107 148.112 77.9659C147.724 78.2211 147.422 78.5956 147.207 79.0895C146.995 79.5833 146.888 80.1899 146.888 80.9091C146.888 81.6283 146.995 82.2348 147.207 82.7287C147.422 83.2225 147.724 83.5971 148.112 83.8523C148.499 84.1075 148.953 84.2351 149.474 84.2351C149.994 84.2351 150.448 84.1075 150.836 83.8523C151.224 83.5971 151.524 83.2225 151.736 82.7287C151.951 82.2348 152.059 81.6283 152.059 80.9091ZM159.247 86.1491C158.464 86.1491 157.792 85.9834 157.228 85.652C156.668 85.3172 156.237 84.8532 155.936 84.2599C155.637 83.6667 155.488 82.9839 155.488 82.2116C155.488 81.4295 155.639 80.7434 155.941 80.1534C156.245 79.5601 156.678 79.0978 157.238 78.7663C157.798 78.4316 158.464 78.2642 159.237 78.2642C159.903 78.2642 160.486 78.3852 160.987 78.6271C161.487 78.8691 161.883 79.2088 162.175 79.6463C162.467 80.0838 162.627 80.5975 162.657 81.1875H160.659C160.602 80.8063 160.453 80.4998 160.211 80.2678C159.972 80.0324 159.659 79.9148 159.271 79.9148C158.943 79.9148 158.657 80.0043 158.411 80.1832C158.169 80.3589 157.981 80.6158 157.845 80.9538C157.709 81.2919 157.641 81.7012 157.641 82.1818C157.641 82.669 157.707 83.0833 157.84 83.4247C157.976 83.7661 158.166 84.0263 158.411 84.2053C158.657 84.3842 158.943 84.4737 159.271 84.4737C159.513 84.4737 159.731 84.424 159.923 84.3246C160.118 84.2251 160.279 84.081 160.405 83.892C160.534 83.6998 160.619 83.4695 160.659 83.201H162.657C162.624 83.7843 162.465 84.2981 162.18 84.7422C161.898 85.183 161.509 85.5277 161.012 85.7763C160.514 86.0249 159.926 86.1491 159.247 86.1491ZM168.075 78.3636V79.9545H163.476V78.3636H168.075ZM164.52 76.5341H166.638V83.6534C166.638 83.849 166.668 84.0014 166.728 84.1108C166.787 84.2169 166.87 84.2914 166.976 84.3345C167.086 84.3776 167.212 84.3991 167.354 84.3991C167.453 84.3991 167.553 84.3909 167.652 84.3743C167.752 84.3544 167.828 84.3395 167.881 84.3295L168.214 85.9055C168.108 85.9387 167.959 85.9768 167.767 86.0199C167.574 86.0663 167.341 86.0945 167.066 86.1044C166.555 86.1243 166.108 86.0563 165.723 85.9006C165.342 85.7448 165.046 85.5028 164.833 85.1747C164.621 84.8466 164.517 84.4323 164.52 83.9318V76.5341ZM172.823 86.1491C172.051 86.1491 171.383 85.9851 170.819 85.657C170.259 85.3255 169.827 84.8648 169.522 84.2749C169.217 83.6816 169.064 82.9938 169.064 82.2116C169.064 81.4228 169.217 80.7334 169.522 80.1435C169.827 79.5502 170.259 79.0895 170.819 78.7614C171.383 78.4299 172.051 78.2642 172.823 78.2642C173.595 78.2642 174.261 78.4299 174.821 78.7614C175.385 79.0895 175.819 79.5502 176.124 80.1435C176.429 80.7334 176.581 81.4228 176.581 82.2116C176.581 82.9938 176.429 83.6816 176.124 84.2749C175.819 84.8648 175.385 85.3255 174.821 85.657C174.261 85.9851 173.595 86.1491 172.823 86.1491ZM172.833 84.5085C173.184 84.5085 173.477 84.4091 173.713 84.2102C173.948 84.008 174.125 83.733 174.245 83.3849C174.367 83.0369 174.429 82.6409 174.429 82.1967C174.429 81.7526 174.367 81.3565 174.245 81.0085C174.125 80.6605 173.948 80.3854 173.713 80.1832C173.477 79.9811 173.184 79.88 172.833 79.88C172.478 79.88 172.18 79.9811 171.938 80.1832C171.699 80.3854 171.519 80.6605 171.396 81.0085C171.277 81.3565 171.217 81.7526 171.217 82.1967C171.217 82.6409 171.277 83.0369 171.396 83.3849C171.519 83.733 171.699 84.008 171.938 84.2102C172.18 84.4091 172.478 84.5085 172.833 84.5085ZM177.998 86V75.8182H180.116V79.6463H180.181C180.274 79.4408 180.408 79.232 180.583 79.0199C180.762 78.8045 180.994 78.6255 181.279 78.483C181.568 78.3371 181.926 78.2642 182.353 78.2642C182.91 78.2642 183.424 78.41 183.895 78.7017C184.365 78.9901 184.741 79.4259 185.023 80.0092C185.305 80.5893 185.446 81.3168 185.446 82.1918C185.446 83.0436 185.308 83.7628 185.033 84.3494C184.761 84.9328 184.39 85.3752 183.919 85.6768C183.452 85.9751 182.928 86.1243 182.348 86.1243C181.937 86.1243 181.588 86.0563 181.299 85.9205C181.014 85.7846 180.781 85.6139 180.598 85.4084C180.416 85.1996 180.277 84.9891 180.181 84.777H180.086V86H177.998ZM180.071 82.1818C180.071 82.6359 180.134 83.032 180.26 83.37C180.386 83.7081 180.569 83.9716 180.807 84.1605C181.046 84.3461 181.336 84.4389 181.677 84.4389C182.022 84.4389 182.314 84.3445 182.552 84.1555C182.791 83.9633 182.971 83.6982 183.094 83.3601C183.22 83.0187 183.283 82.6259 183.283 82.1818C183.283 81.741 183.222 81.3532 183.099 81.0185C182.976 80.6837 182.796 80.4219 182.557 80.233C182.319 80.044 182.025 79.9496 181.677 79.9496C181.333 79.9496 181.041 80.0407 180.802 80.223C180.567 80.4053 180.386 80.6638 180.26 80.9986C180.134 81.3333 180.071 81.7277 180.071 82.1818ZM190.339 86.1491C189.553 86.1491 188.877 85.9901 188.311 85.6719C187.747 85.3504 187.313 84.8963 187.008 84.3097C186.703 83.7197 186.551 83.022 186.551 82.2166C186.551 81.4311 186.703 80.7417 187.008 80.1484C187.313 79.5552 187.742 79.0928 188.296 78.7614C188.852 78.4299 189.505 78.2642 190.254 78.2642C190.758 78.2642 191.227 78.3454 191.661 78.5078C192.099 78.6669 192.48 78.9072 192.805 79.2287C193.133 79.5502 193.388 79.9545 193.57 80.4418C193.753 80.9257 193.844 81.4924 193.844 82.142V82.7237H187.396V81.4112H191.85C191.85 81.1063 191.784 80.8362 191.651 80.6009C191.519 80.3655 191.335 80.1816 191.1 80.049C190.868 79.9131 190.597 79.8452 190.289 79.8452C189.968 79.8452 189.683 79.9197 189.434 80.0689C189.189 80.2147 188.997 80.4119 188.857 80.6605C188.718 80.9058 188.647 81.1792 188.644 81.4808V82.7287C188.644 83.1065 188.713 83.433 188.852 83.7081C188.995 83.9832 189.195 84.1953 189.454 84.3445C189.713 84.4936 190.019 84.5682 190.374 84.5682C190.609 84.5682 190.825 84.535 191.02 84.4688C191.216 84.4025 191.383 84.303 191.522 84.1705C191.661 84.0379 191.767 83.8755 191.84 83.6832L193.799 83.8125C193.7 84.2831 193.496 84.6941 193.188 85.0455C192.883 85.3935 192.488 85.6652 192.004 85.8608C191.524 86.053 190.969 86.1491 190.339 86.1491ZM195.226 86V78.3636H197.279V79.696H197.359C197.498 79.2221 197.732 78.8641 198.06 78.6222C198.388 78.3769 198.766 78.2543 199.193 78.2543C199.299 78.2543 199.414 78.2609 199.536 78.2741C199.659 78.2874 199.767 78.3056 199.86 78.3288V80.2081C199.76 80.1783 199.623 80.1518 199.447 80.1286C199.271 80.1054 199.11 80.0938 198.965 80.0938C198.653 80.0938 198.375 80.1617 198.129 80.2976C197.887 80.4302 197.695 80.6158 197.553 80.8544C197.414 81.093 197.344 81.3681 197.344 81.6797V86H195.226ZM204.175 86V84.4489L207.799 81.093C208.107 80.7947 208.366 80.5263 208.575 80.2876C208.787 80.049 208.948 79.8153 209.057 79.5866C209.166 79.3546 209.221 79.1044 209.221 78.8359C209.221 78.5376 209.153 78.2808 209.017 78.0653C208.881 77.8466 208.696 77.6792 208.46 77.5632C208.225 77.4439 207.958 77.3842 207.66 77.3842C207.348 77.3842 207.077 77.4472 206.845 77.5732C206.613 77.6991 206.434 77.8797 206.308 78.1151C206.182 78.3504 206.119 78.6304 206.119 78.9553H204.075C204.075 78.2891 204.226 77.7107 204.528 77.2202C204.829 76.7296 205.252 76.3501 205.796 76.0817C206.339 75.8132 206.966 75.679 207.675 75.679C208.404 75.679 209.039 75.8082 209.579 76.0668C210.123 76.322 210.545 76.6766 210.847 77.1307C211.148 77.5848 211.299 78.1051 211.299 78.6918C211.299 79.0762 211.223 79.4557 211.07 79.8303C210.921 80.2048 210.655 80.6207 210.27 81.0781C209.886 81.5322 209.344 82.0774 208.644 82.7138L207.158 84.1705V84.2401H211.433V86H204.175ZM216.985 86.2237C216.13 86.2204 215.395 86.0099 214.778 85.5923C214.165 85.1747 213.693 84.5698 213.361 83.7777C213.033 82.9856 212.871 82.0327 212.874 80.919C212.874 79.8087 213.038 78.8625 213.366 78.0803C213.698 77.2981 214.17 76.7031 214.783 76.2955C215.4 75.8845 216.134 75.679 216.985 75.679C217.837 75.679 218.57 75.8845 219.183 76.2955C219.799 76.7064 220.273 77.303 220.605 78.0852C220.936 78.8641 221.1 79.8087 221.097 80.919C221.097 82.036 220.931 82.9905 220.6 83.7827C220.272 84.5748 219.801 85.1797 219.188 85.5973C218.575 86.0149 217.841 86.2237 216.985 86.2237ZM216.985 84.4389C217.569 84.4389 218.034 84.1456 218.382 83.5589C218.73 82.9723 218.903 82.0923 218.9 80.919C218.9 80.1468 218.82 79.5038 218.661 78.9901C218.505 78.4763 218.283 78.0902 217.995 77.8317C217.71 77.5732 217.373 77.4439 216.985 77.4439C216.405 77.4439 215.941 77.7339 215.593 78.3139C215.245 78.8939 215.07 79.7623 215.066 80.919C215.066 81.7012 215.144 82.3542 215.3 82.8778C215.459 83.3982 215.683 83.7893 215.971 84.0511C216.26 84.3097 216.598 84.4389 216.985 84.4389ZM222.632 86V84.4489L226.256 81.093C226.564 80.7947 226.823 80.5263 227.032 80.2876C227.244 80.049 227.405 79.8153 227.514 79.5866C227.623 79.3546 227.678 79.1044 227.678 78.8359C227.678 78.5376 227.61 78.2808 227.474 78.0653C227.338 77.8466 227.153 77.6792 226.917 77.5632C226.682 77.4439 226.415 77.3842 226.117 77.3842C225.805 77.3842 225.534 77.4472 225.302 77.5732C225.07 77.6991 224.891 77.8797 224.765 78.1151C224.639 78.3504 224.576 78.6304 224.576 78.9553H222.532C222.532 78.2891 222.683 77.7107 222.985 77.2202C223.287 76.7296 223.709 76.3501 224.253 76.0817C224.796 75.8132 225.423 75.679 226.132 75.679C226.861 75.679 227.496 75.8082 228.036 76.0668C228.58 76.322 229.002 76.6766 229.304 77.1307C229.605 77.5848 229.756 78.1051 229.756 78.6918C229.756 79.0762 229.68 79.4557 229.528 79.8303C229.378 80.2048 229.112 80.6207 228.727 81.0781C228.343 81.5322 227.801 82.0774 227.101 82.7138L225.615 84.1705V84.2401H229.89V86H222.632ZM231.077 84.2102V82.5149L235.328 75.8182H236.79V78.1648H235.925L233.245 82.4055V82.4851H239.286V84.2102H231.077ZM235.964 86V83.6932L236.004 82.9425V75.8182H238.023V86H235.964Z" fill="#4A1FB8"/>
<path fill-rule="evenodd" clip-rule="evenodd" d="M340.646 74.646C340.692 74.5994 340.748 74.5625 340.808 74.5373C340.869 74.5121 340.934 74.4991 341 74.4991C341.066 74.4991 341.131 74.5121 341.192 74.5373C341.252 74.5625 341.307 74.5994 341.354 74.646L347.354 80.646C347.4 80.6924 347.437 80.7476 347.463 80.8083C347.488 80.8691 347.501 80.9342 347.501 81C347.501 81.0657 347.488 81.1309 347.463 81.1916C347.437 81.2524 347.4 81.3075 347.354 81.354L341.354 87.354C341.26 87.4479 341.133 87.5006 341 87.5006C340.867 87.5006 340.74 87.4479 340.646 87.354C340.552 87.2601 340.499 87.1328 340.499 87C340.499 86.8672 340.552 86.7399 340.646 86.646L346.293 81L340.646 75.354C340.599 75.3075 340.562 75.2524 340.537 75.1916C340.512 75.1309 340.499 75.0657 340.499 75C340.499 74.9342 340.512 74.8691 340.537 74.8083C340.562 74.7476 340.599 74.6924 340.646 74.646V74.646Z" fill="#4A1FB8"/>
<path d="M40.9084 126.746C40.8686 126.345 40.6979 126.034 40.3963 125.812C40.0947 125.59 39.6854 125.479 39.1683 125.479C38.817 125.479 38.5204 125.528 38.2784 125.628C38.0365 125.724 37.8509 125.858 37.7216 126.031C37.5956 126.203 37.5327 126.398 37.5327 126.617C37.526 126.799 37.5642 126.959 37.647 127.094C37.7332 127.23 37.8509 127.348 38 127.447C38.1491 127.544 38.3215 127.628 38.517 127.701C38.7126 127.771 38.9214 127.83 39.1435 127.88L40.0582 128.099C40.5024 128.198 40.91 128.331 41.2812 128.496C41.6525 128.662 41.974 128.866 42.2457 129.108C42.5175 129.35 42.728 129.635 42.8771 129.963C43.0296 130.291 43.1075 130.667 43.1108 131.092C43.1075 131.715 42.9484 132.255 42.6335 132.712C42.322 133.166 41.8712 133.519 41.2812 133.771C40.6946 134.02 39.987 134.144 39.1584 134.144C38.3364 134.144 37.6205 134.018 37.0107 133.766C36.4041 133.514 35.9302 133.142 35.5888 132.648C35.2507 132.151 35.0734 131.536 35.0568 130.803H37.1399C37.1631 131.145 37.2609 131.43 37.4332 131.658C37.6089 131.884 37.8426 132.054 38.1342 132.17C38.4292 132.283 38.7623 132.339 39.1335 132.339C39.4981 132.339 39.8146 132.286 40.0831 132.18C40.3549 132.074 40.5653 131.927 40.7145 131.738C40.8636 131.549 40.9382 131.332 40.9382 131.087C40.9382 130.858 40.8703 130.666 40.7344 130.51C40.6018 130.354 40.4063 130.222 40.1477 130.112C39.8925 130.003 39.5793 129.903 39.2081 129.814L38.0994 129.536C37.241 129.327 36.5632 129 36.0661 128.556C35.5689 128.112 35.322 127.514 35.3253 126.761C35.322 126.145 35.486 125.606 35.8175 125.146C36.1522 124.685 36.6113 124.325 37.1946 124.067C37.7779 123.808 38.4408 123.679 39.1832 123.679C39.9389 123.679 40.5985 123.808 41.1619 124.067C41.7287 124.325 42.1695 124.685 42.4844 125.146C42.7992 125.606 42.9616 126.14 42.9716 126.746H40.9084ZM49.416 130.749V126.364H51.5339V134H49.5005V132.613H49.421C49.2486 133.06 48.9619 133.42 48.5609 133.692C48.1632 133.964 47.6776 134.099 47.1042 134.099C46.5938 134.099 46.1447 133.983 45.7569 133.751C45.3691 133.519 45.0659 133.19 44.8471 132.762C44.6317 132.335 44.5223 131.822 44.519 131.226V126.364H46.6369V130.848C46.6402 131.299 46.7612 131.655 46.9998 131.917C47.2385 132.179 47.5583 132.31 47.9593 132.31C48.2145 132.31 48.4532 132.252 48.6752 132.136C48.8973 132.016 49.0763 131.841 49.2122 131.609C49.3514 131.377 49.4193 131.09 49.416 130.749ZM55.3459 129.585V134H53.228V126.364H55.2464V127.711H55.3359C55.505 127.267 55.7884 126.915 56.1861 126.657C56.5838 126.395 57.0661 126.264 57.6328 126.264C58.1631 126.264 58.6255 126.38 59.0199 126.612C59.4143 126.844 59.7209 127.176 59.9396 127.607C60.1584 128.034 60.2678 128.545 60.2678 129.138V134H58.1499V129.516C58.1532 129.048 58.0339 128.684 57.7919 128.422C57.55 128.157 57.2169 128.024 56.7926 128.024C56.5076 128.024 56.2557 128.085 56.0369 128.208C55.8215 128.331 55.6525 128.51 55.5298 128.745C55.4105 128.977 55.3492 129.257 55.3459 129.585Z" fill="#1D2939"/>
<path d="M81.3849 123.818H84.0398L86.8438 130.659H86.9631L89.767 123.818H92.4219V134H90.3338V127.373H90.2493L87.6143 133.95H86.1925L83.5575 127.348H83.473V134H81.3849V123.818ZM97.606 134.149C96.8337 134.149 96.1659 133.985 95.6025 133.657C95.0423 133.326 94.6098 132.865 94.3049 132.275C93.9999 131.682 93.8475 130.994 93.8475 130.212C93.8475 129.423 93.9999 128.733 94.3049 128.143C94.6098 127.55 95.0423 127.089 95.6025 126.761C96.1659 126.43 96.8337 126.264 97.606 126.264C98.3783 126.264 99.0444 126.43 99.6046 126.761C100.168 127.089 100.602 127.55 100.907 128.143C101.212 128.733 101.365 129.423 101.365 130.212C101.365 130.994 101.212 131.682 100.907 132.275C100.602 132.865 100.168 133.326 99.6046 133.657C99.0444 133.985 98.3783 134.149 97.606 134.149ZM97.6159 132.509C97.9673 132.509 98.2606 132.409 98.4959 132.21C98.7312 132.008 98.9086 131.733 99.0279 131.385C99.1505 131.037 99.2118 130.641 99.2118 130.197C99.2118 129.753 99.1505 129.357 99.0279 129.009C98.9086 128.661 98.7312 128.385 98.4959 128.183C98.2606 127.981 97.9673 127.88 97.6159 127.88C97.2613 127.88 96.963 127.981 96.7211 128.183C96.4824 128.385 96.3018 128.661 96.1792 129.009C96.0598 129.357 96.0002 129.753 96.0002 130.197C96.0002 130.641 96.0598 131.037 96.1792 131.385C96.3018 131.733 96.4824 132.008 96.7211 132.21C96.963 132.409 97.2613 132.509 97.6159 132.509ZM104.86 129.585V134H102.742V126.364H104.76V127.711H104.85C105.019 127.267 105.302 126.915 105.7 126.657C106.097 126.395 106.58 126.264 107.146 126.264C107.677 126.264 108.139 126.38 108.534 126.612C108.928 126.844 109.235 127.176 109.453 127.607C109.672 128.034 109.781 128.545 109.781 129.138V134H107.664V129.516C107.667 129.048 107.548 128.684 107.306 128.422C107.064 128.157 106.731 128.024 106.306 128.024C106.021 128.024 105.769 128.085 105.551 128.208C105.335 128.331 105.166 128.51 105.044 128.745C104.924 128.977 104.863 129.257 104.86 129.585Z" fill="#1D2939"/>
<path d="M131.497 125.593V123.818H139.859V125.593H136.742V134H134.614V125.593H131.497ZM145.055 130.749V126.364H147.173V134H145.139V132.613H145.06C144.887 133.06 144.601 133.42 144.2 133.692C143.802 133.964 143.316 134.099 142.743 134.099C142.232 134.099 141.783 133.983 141.396 133.751C141.008 133.519 140.705 133.19 140.486 132.762C140.27 132.335 140.161 131.822 140.158 131.226V126.364H142.276V130.848C142.279 131.299 142.4 131.655 142.638 131.917C142.877 132.179 143.197 132.31 143.598 132.31C143.853 132.31 144.092 132.252 144.314 132.136C144.536 132.016 144.715 131.841 144.851 131.609C144.99 131.377 145.058 131.09 145.055 130.749ZM152.347 134.149C151.561 134.149 150.885 133.99 150.318 133.672C149.755 133.35 149.321 132.896 149.016 132.31C148.711 131.72 148.558 131.022 148.558 130.217C148.558 129.431 148.711 128.742 149.016 128.148C149.321 127.555 149.75 127.093 150.303 126.761C150.86 126.43 151.513 126.264 152.262 126.264C152.766 126.264 153.235 126.345 153.669 126.508C154.107 126.667 154.488 126.907 154.813 127.229C155.141 127.55 155.396 127.955 155.578 128.442C155.761 128.926 155.852 129.492 155.852 130.142V130.724H149.404V129.411H153.858C153.858 129.106 153.792 128.836 153.659 128.601C153.527 128.366 153.343 128.182 153.107 128.049C152.875 127.913 152.605 127.845 152.297 127.845C151.976 127.845 151.691 127.92 151.442 128.069C151.197 128.215 151.004 128.412 150.865 128.661C150.726 128.906 150.655 129.179 150.651 129.481V130.729C150.651 131.107 150.721 131.433 150.86 131.708C151.003 131.983 151.203 132.195 151.462 132.344C151.72 132.494 152.027 132.568 152.382 132.568C152.617 132.568 152.832 132.535 153.028 132.469C153.223 132.402 153.391 132.303 153.53 132.17C153.669 132.038 153.775 131.875 153.848 131.683L155.807 131.812C155.708 132.283 155.504 132.694 155.195 133.045C154.891 133.393 154.496 133.665 154.012 133.861C153.532 134.053 152.977 134.149 152.347 134.149Z" fill="#1D2939"/>
<path d="M179.677 134L176.763 123.818H179.115L180.8 130.893H180.885L182.744 123.818H184.758L186.612 130.908H186.702L188.387 123.818H190.739L187.825 134H185.727L183.788 127.343H183.709L181.775 134H179.677ZM194.511 134.149C193.725 134.149 193.049 133.99 192.482 133.672C191.919 133.35 191.485 132.896 191.18 132.31C190.875 131.72 190.722 131.022 190.722 130.217C190.722 129.431 190.875 128.742 191.18 128.148C191.485 127.555 191.914 127.093 192.468 126.761C193.024 126.43 193.677 126.264 194.426 126.264C194.93 126.264 195.399 126.345 195.833 126.508C196.271 126.667 196.652 126.907 196.977 127.229C197.305 127.55 197.56 127.955 197.742 128.442C197.925 128.926 198.016 129.492 198.016 130.142V130.724H191.568V129.411H196.022C196.022 129.106 195.956 128.836 195.823 128.601C195.691 128.366 195.507 128.182 195.271 128.049C195.039 127.913 194.769 127.845 194.461 127.845C194.14 127.845 193.855 127.92 193.606 128.069C193.361 128.215 193.169 128.412 193.029 128.661C192.89 128.906 192.819 129.179 192.816 129.481V130.729C192.816 131.107 192.885 131.433 193.024 131.708C193.167 131.983 193.367 132.195 193.626 132.344C193.884 132.494 194.191 132.568 194.546 132.568C194.781 132.568 194.996 132.535 195.192 132.469C195.387 132.402 195.555 132.303 195.694 132.17C195.833 132.038 195.939 131.875 196.012 131.683L197.971 131.812C197.872 132.283 197.668 132.694 197.36 133.045C197.055 133.393 196.66 133.665 196.176 133.861C195.696 134.053 195.141 134.149 194.511 134.149ZM202.212 134.124C201.632 134.124 201.106 133.975 200.636 133.677C200.169 133.375 199.797 132.933 199.522 132.349C199.25 131.763 199.115 131.044 199.115 130.192C199.115 129.317 199.255 128.589 199.537 128.009C199.819 127.426 200.193 126.99 200.661 126.702C201.131 126.41 201.647 126.264 202.207 126.264C202.634 126.264 202.991 126.337 203.276 126.483C203.564 126.625 203.796 126.804 203.972 127.02C204.151 127.232 204.287 127.441 204.379 127.646H204.444V123.818H206.557V134H204.469V132.777H204.379C204.28 132.989 204.139 133.2 203.957 133.408C203.778 133.614 203.544 133.785 203.256 133.92C202.971 134.056 202.623 134.124 202.212 134.124ZM202.883 132.439C203.224 132.439 203.513 132.346 203.748 132.161C203.987 131.972 204.169 131.708 204.295 131.37C204.424 131.032 204.489 130.636 204.489 130.182C204.489 129.728 204.426 129.333 204.3 128.999C204.174 128.664 203.992 128.405 203.753 128.223C203.514 128.041 203.224 127.95 202.883 127.95C202.535 127.95 202.242 128.044 202.003 128.233C201.764 128.422 201.584 128.684 201.461 129.018C201.338 129.353 201.277 129.741 201.277 130.182C201.277 130.626 201.338 131.019 201.461 131.36C201.587 131.698 201.768 131.963 202.003 132.156C202.242 132.344 202.535 132.439 202.883 132.439Z" fill="#1D2939"/>
<path d="M226.997 125.593V123.818H235.359V125.593H232.242V134H230.114V125.593H226.997ZM238.815 129.585V134H236.697V123.818H238.755V127.711H238.844C239.017 127.26 239.295 126.907 239.68 126.652C240.064 126.393 240.546 126.264 241.126 126.264C241.657 126.264 242.119 126.38 242.513 126.612C242.911 126.841 243.219 127.171 243.438 127.602C243.66 128.029 243.77 128.541 243.766 129.138V134H241.648V129.516C241.652 129.045 241.532 128.679 241.29 128.417C241.052 128.155 240.717 128.024 240.286 128.024C239.998 128.024 239.743 128.085 239.521 128.208C239.302 128.331 239.129 128.51 239.004 128.745C238.881 128.977 238.818 129.257 238.815 129.585ZM250.33 130.749V126.364H252.448V134H250.415V132.613H250.335C250.163 133.06 249.876 133.42 249.475 133.692C249.077 133.964 248.592 134.099 248.018 134.099C247.508 134.099 247.059 133.983 246.671 133.751C246.283 133.519 245.98 133.19 245.761 132.762C245.546 132.335 245.436 131.822 245.433 131.226V126.364H247.551V130.848C247.554 131.299 247.675 131.655 247.914 131.917C248.153 132.179 248.472 132.31 248.873 132.31C249.129 132.31 249.367 132.252 249.589 132.136C249.811 132.016 249.99 131.841 250.126 131.609C250.265 131.377 250.333 131.09 250.33 130.749Z" fill="#1D2939"/>
<path d="M279.885 134V123.818H286.626V125.593H282.038V128.019H286.179V129.794H282.038V134H279.885ZM287.912 134V126.364H289.965V127.696H290.044C290.184 127.222 290.417 126.864 290.745 126.622C291.074 126.377 291.451 126.254 291.879 126.254C291.985 126.254 292.099 126.261 292.222 126.274C292.345 126.287 292.452 126.306 292.545 126.329V128.208C292.446 128.178 292.308 128.152 292.132 128.129C291.957 128.105 291.796 128.094 291.65 128.094C291.339 128.094 291.06 128.162 290.815 128.298C290.573 128.43 290.381 128.616 290.238 128.854C290.099 129.093 290.029 129.368 290.029 129.68V134H287.912ZM293.64 134V126.364H295.758V134H293.64ZM294.704 125.379C294.389 125.379 294.119 125.275 293.894 125.066C293.672 124.854 293.561 124.6 293.561 124.305C293.561 124.014 293.672 123.763 293.894 123.555C294.119 123.343 294.389 123.237 294.704 123.237C295.019 123.237 295.287 123.343 295.509 123.555C295.735 123.763 295.847 124.014 295.847 124.305C295.847 124.6 295.735 124.854 295.509 125.066C295.287 125.275 295.019 125.379 294.704 125.379Z" fill="#1D2939"/>
<path d="M330.908 126.746C330.869 126.345 330.698 126.034 330.396 125.812C330.095 125.59 329.685 125.479 329.168 125.479C328.817 125.479 328.52 125.528 328.278 125.628C328.036 125.724 327.851 125.858 327.722 126.031C327.596 126.203 327.533 126.398 327.533 126.617C327.526 126.799 327.564 126.959 327.647 127.094C327.733 127.23 327.851 127.348 328 127.447C328.149 127.544 328.321 127.628 328.517 127.701C328.713 127.771 328.921 127.83 329.143 127.88L330.058 128.099C330.502 128.198 330.91 128.331 331.281 128.496C331.652 128.662 331.974 128.866 332.246 129.108C332.518 129.35 332.728 129.635 332.877 129.963C333.03 130.291 333.107 130.667 333.111 131.092C333.107 131.715 332.948 132.255 332.634 132.712C332.322 133.166 331.871 133.519 331.281 133.771C330.695 134.02 329.987 134.144 329.158 134.144C328.336 134.144 327.621 134.018 327.011 133.766C326.404 133.514 325.93 133.142 325.589 132.648C325.251 132.151 325.073 131.536 325.057 130.803H327.14C327.163 131.145 327.261 131.43 327.433 131.658C327.609 131.884 327.843 132.054 328.134 132.17C328.429 132.283 328.762 132.339 329.134 132.339C329.498 132.339 329.815 132.286 330.083 132.18C330.355 132.074 330.565 131.927 330.714 131.738C330.864 131.549 330.938 131.332 330.938 131.087C330.938 130.858 330.87 130.666 330.734 130.51C330.602 130.354 330.406 130.222 330.148 130.112C329.893 130.003 329.579 129.903 329.208 129.814L328.099 129.536C327.241 129.327 326.563 129 326.066 128.556C325.569 128.112 325.322 127.514 325.325 126.761C325.322 126.145 325.486 125.606 325.817 125.146C326.152 124.685 326.611 124.325 327.195 124.067C327.778 123.808 328.441 123.679 329.183 123.679C329.939 123.679 330.598 123.808 331.162 124.067C331.729 124.325 332.17 124.685 332.484 125.146C332.799 125.606 332.962 126.14 332.972 126.746H330.908ZM336.697 134.144C336.209 134.144 335.775 134.06 335.394 133.891C335.013 133.718 334.711 133.465 334.489 133.13C334.27 132.792 334.161 132.371 334.161 131.867C334.161 131.443 334.239 131.087 334.395 130.798C334.55 130.51 334.763 130.278 335.031 130.102C335.3 129.927 335.604 129.794 335.946 129.705C336.291 129.615 336.652 129.552 337.03 129.516C337.474 129.469 337.832 129.426 338.104 129.386C338.375 129.343 338.573 129.28 338.695 129.197C338.818 129.115 338.879 128.992 338.879 128.83V128.8C338.879 128.485 338.78 128.241 338.581 128.069C338.385 127.897 338.107 127.81 337.746 127.81C337.364 127.81 337.061 127.895 336.836 128.064C336.61 128.23 336.461 128.438 336.388 128.69L334.43 128.531C334.529 128.067 334.724 127.666 335.016 127.328C335.308 126.987 335.684 126.725 336.145 126.543C336.609 126.357 337.146 126.264 337.756 126.264C338.18 126.264 338.586 126.314 338.974 126.413C339.365 126.513 339.711 126.667 340.013 126.876C340.318 127.085 340.558 127.353 340.733 127.681C340.909 128.006 340.997 128.395 340.997 128.849V134H338.988V132.941H338.929C338.806 133.18 338.642 133.39 338.437 133.572C338.231 133.751 337.984 133.892 337.696 133.995C337.407 134.094 337.074 134.144 336.697 134.144ZM337.303 132.683C337.615 132.683 337.89 132.621 338.128 132.499C338.367 132.373 338.554 132.204 338.69 131.991C338.826 131.779 338.894 131.539 338.894 131.271V130.46C338.828 130.503 338.737 130.543 338.621 130.58C338.508 130.613 338.38 130.644 338.238 130.674C338.095 130.701 337.953 130.725 337.81 130.749C337.668 130.768 337.538 130.787 337.422 130.803C337.174 130.84 336.957 130.898 336.771 130.977C336.586 131.057 336.441 131.165 336.339 131.3C336.236 131.433 336.184 131.599 336.184 131.798C336.184 132.086 336.289 132.306 336.498 132.459C336.71 132.608 336.978 132.683 337.303 132.683ZM346.702 126.364V127.955H342.103V126.364H346.702ZM343.147 124.534H345.265V131.653C345.265 131.849 345.295 132.001 345.355 132.111C345.414 132.217 345.497 132.291 345.603 132.335C345.713 132.378 345.838 132.399 345.981 132.399C346.08 132.399 346.18 132.391 346.279 132.374C346.379 132.354 346.455 132.339 346.508 132.33L346.841 133.906C346.735 133.939 346.586 133.977 346.394 134.02C346.201 134.066 345.968 134.094 345.693 134.104C345.182 134.124 344.735 134.056 344.35 133.901C343.969 133.745 343.673 133.503 343.46 133.175C343.248 132.847 343.144 132.432 343.147 131.932V124.534Z" fill="#1D2939"/>
<path d="M145.295 163.364V175H143.886V164.841H143.818L140.977 166.727V165.295L143.886 163.364H145.295Z" fill="#1D2939"/>
<path d="M188.205 175V173.977L192.045 169.773C192.496 169.28 192.867 168.852 193.159 168.489C193.451 168.121 193.667 167.777 193.807 167.455C193.951 167.129 194.023 166.788 194.023 166.432C194.023 166.023 193.924 165.669 193.727 165.369C193.534 165.07 193.269 164.839 192.932 164.676C192.595 164.513 192.216 164.432 191.795 164.432C191.348 164.432 190.958 164.525 190.625 164.71C190.295 164.892 190.04 165.148 189.858 165.477C189.68 165.807 189.591 166.193 189.591 166.636H188.25C188.25 165.955 188.407 165.356 188.722 164.841C189.036 164.326 189.464 163.924 190.006 163.636C190.551 163.348 191.163 163.205 191.841 163.205C192.523 163.205 193.127 163.348 193.653 163.636C194.18 163.924 194.593 164.312 194.892 164.801C195.191 165.29 195.341 165.833 195.341 166.432C195.341 166.86 195.263 167.278 195.108 167.688C194.956 168.093 194.691 168.545 194.312 169.045C193.938 169.542 193.417 170.148 192.75 170.864L190.136 173.659V173.75H195.545V175H188.205Z" fill="#1D2939"/>
<path d="M239.636 175.159C238.886 175.159 238.218 175.03 237.631 174.773C237.047 174.515 236.583 174.157 236.239 173.699C235.898 173.237 235.712 172.701 235.682 172.091H237.114C237.144 172.466 237.273 172.79 237.5 173.062C237.727 173.331 238.025 173.54 238.392 173.688C238.759 173.835 239.167 173.909 239.614 173.909C240.114 173.909 240.557 173.822 240.943 173.648C241.33 173.473 241.633 173.231 241.852 172.92C242.072 172.61 242.182 172.25 242.182 171.841C242.182 171.413 242.076 171.036 241.864 170.71C241.652 170.381 241.341 170.123 240.932 169.938C240.523 169.752 240.023 169.659 239.432 169.659H238.5V168.409H239.432C239.894 168.409 240.299 168.326 240.648 168.159C241 167.992 241.275 167.758 241.472 167.455C241.672 167.152 241.773 166.795 241.773 166.386C241.773 165.992 241.686 165.65 241.511 165.358C241.337 165.066 241.091 164.839 240.773 164.676C240.458 164.513 240.087 164.432 239.659 164.432C239.258 164.432 238.879 164.506 238.523 164.653C238.17 164.797 237.883 165.008 237.659 165.284C237.436 165.557 237.314 165.886 237.295 166.273H235.932C235.955 165.663 236.138 165.129 236.483 164.67C236.828 164.208 237.278 163.848 237.835 163.591C238.396 163.333 239.011 163.205 239.682 163.205C240.402 163.205 241.019 163.35 241.534 163.642C242.049 163.93 242.445 164.311 242.722 164.784C242.998 165.258 243.136 165.769 243.136 166.318C243.136 166.973 242.964 167.532 242.619 167.994C242.278 168.456 241.814 168.777 241.227 168.955V169.045C241.962 169.167 242.536 169.479 242.949 169.983C243.362 170.483 243.568 171.102 243.568 171.841C243.568 172.473 243.396 173.042 243.051 173.545C242.71 174.045 242.244 174.439 241.653 174.727C241.063 175.015 240.39 175.159 239.636 175.159Z" fill="#1D2939"/>
<path d="M283.432 172.614V171.455L288.545 163.364H289.386V165.159H288.818L284.955 171.273V171.364H291.841V172.614H283.432ZM288.909 175V172.261V171.722V163.364H290.25V175H288.909Z" fill="#1D2939"/>
<path d="M335.841 175.159C335.174 175.159 334.574 175.027 334.04 174.761C333.506 174.496 333.078 174.133 332.756 173.67C332.434 173.208 332.258 172.682 332.227 172.091H333.591C333.644 172.617 333.883 173.053 334.307 173.398C334.735 173.739 335.246 173.909 335.841 173.909C336.318 173.909 336.742 173.797 337.114 173.574C337.489 173.35 337.782 173.044 337.994 172.653C338.21 172.259 338.318 171.814 338.318 171.318C338.318 170.811 338.206 170.358 337.983 169.96C337.763 169.559 337.46 169.242 337.074 169.011C336.688 168.78 336.246 168.663 335.75 168.659C335.394 168.655 335.028 168.71 334.653 168.824C334.278 168.934 333.97 169.076 333.727 169.25L332.409 169.091L333.114 163.364H339.159V164.614H334.295L333.886 168.045H333.955C334.193 167.856 334.492 167.699 334.852 167.574C335.212 167.449 335.587 167.386 335.977 167.386C336.689 167.386 337.324 167.557 337.881 167.898C338.441 168.235 338.881 168.697 339.199 169.284C339.521 169.871 339.682 170.542 339.682 171.295C339.682 172.038 339.515 172.701 339.182 173.284C338.852 173.864 338.398 174.322 337.818 174.659C337.239 174.992 336.58 175.159 335.841 175.159Z" fill="#1D2939"/>
<path d="M48.0682 223.159C47.5909 223.152 47.1136 223.061 46.6364 222.886C46.1591 222.712 45.7235 222.419 45.3295 222.006C44.9356 221.589 44.6193 221.027 44.3807 220.318C44.142 219.606 44.0227 218.712 44.0227 217.636C44.0227 216.606 44.1193 215.693 44.3125 214.898C44.5057 214.098 44.786 213.426 45.1534 212.881C45.5208 212.331 45.964 211.915 46.483 211.631C47.0057 211.347 47.5947 211.205 48.25 211.205C48.9015 211.205 49.4811 211.335 49.9886 211.597C50.5 211.854 50.9167 212.214 51.2386 212.676C51.5606 213.138 51.7689 213.67 51.8636 214.273H50.4773C50.3485 213.75 50.0985 213.316 49.7273 212.972C49.3561 212.627 48.8636 212.455 48.25 212.455C47.3485 212.455 46.6383 212.847 46.1193 213.631C45.6042 214.415 45.3447 215.515 45.3409 216.932H45.4318C45.6439 216.61 45.8958 216.335 46.1875 216.108C46.483 215.877 46.8087 215.699 47.1648 215.574C47.5208 215.449 47.8977 215.386 48.2955 215.386C48.9621 215.386 49.572 215.553 50.125 215.886C50.678 216.216 51.1212 216.672 51.4545 217.256C51.7879 217.835 51.9545 218.5 51.9545 219.25C51.9545 219.97 51.7936 220.629 51.4716 221.227C51.1496 221.822 50.697 222.295 50.1136 222.648C49.5341 222.996 48.8523 223.167 48.0682 223.159ZM48.0682 221.909C48.5455 221.909 48.9735 221.79 49.3523 221.551C49.7348 221.312 50.036 220.992 50.2557 220.591C50.4792 220.189 50.5909 219.742 50.5909 219.25C50.5909 218.769 50.483 218.331 50.267 217.938C50.0549 217.54 49.7614 217.223 49.3864 216.989C49.0152 216.754 48.5909 216.636 48.1136 216.636C47.7538 216.636 47.4186 216.708 47.108 216.852C46.7973 216.992 46.5246 217.186 46.2898 217.432C46.0587 217.678 45.8769 217.96 45.7443 218.278C45.6117 218.593 45.5455 218.924 45.5455 219.273C45.5455 219.735 45.6534 220.167 45.8693 220.568C46.089 220.97 46.3883 221.294 46.767 221.54C47.1496 221.786 47.5833 221.909 48.0682 221.909Z" fill="#1D2939"/>
<path d="M92.5682 223L97.7727 212.705V212.614H91.7727V211.364H99.2273V212.682L94.0455 223H92.5682Z" fill="#1D2939"/>
<path d="M143.932 223.159C143.152 223.159 142.462 223.021 141.864 222.744C141.269 222.464 140.805 222.08 140.472 221.591C140.138 221.098 139.973 220.538 139.977 219.909C139.973 219.417 140.07 218.962 140.267 218.545C140.464 218.125 140.733 217.775 141.074 217.494C141.419 217.21 141.803 217.03 142.227 216.955V216.886C141.67 216.742 141.227 216.43 140.898 215.949C140.568 215.464 140.405 214.913 140.409 214.295C140.405 213.705 140.555 213.176 140.858 212.71C141.161 212.244 141.578 211.877 142.108 211.608C142.642 211.339 143.25 211.205 143.932 211.205C144.606 211.205 145.208 211.339 145.739 211.608C146.269 211.877 146.686 212.244 146.989 212.71C147.295 213.176 147.451 213.705 147.455 214.295C147.451 214.913 147.282 215.464 146.949 215.949C146.619 216.43 146.182 216.742 145.636 216.886V216.955C146.057 217.03 146.436 217.21 146.773 217.494C147.11 217.775 147.379 218.125 147.58 218.545C147.78 218.962 147.883 219.417 147.886 219.909C147.883 220.538 147.712 221.098 147.375 221.591C147.042 222.08 146.578 222.464 145.983 222.744C145.392 223.021 144.708 223.159 143.932 223.159ZM143.932 221.909C144.458 221.909 144.913 221.824 145.295 221.653C145.678 221.483 145.973 221.242 146.182 220.932C146.39 220.621 146.496 220.258 146.5 219.841C146.496 219.402 146.383 219.013 146.159 218.676C145.936 218.339 145.631 218.074 145.244 217.881C144.862 217.687 144.424 217.591 143.932 217.591C143.436 217.591 142.992 217.687 142.602 217.881C142.216 218.074 141.911 218.339 141.688 218.676C141.468 219.013 141.36 219.402 141.364 219.841C141.36 220.258 141.46 220.621 141.665 220.932C141.873 221.242 142.17 221.483 142.557 221.653C142.943 221.824 143.402 221.909 143.932 221.909ZM143.932 216.386C144.348 216.386 144.718 216.303 145.04 216.136C145.366 215.97 145.621 215.737 145.807 215.438C145.992 215.138 146.087 214.788 146.091 214.386C146.087 213.992 145.994 213.65 145.812 213.358C145.631 213.062 145.379 212.835 145.057 212.676C144.735 212.513 144.36 212.432 143.932 212.432C143.496 212.432 143.116 212.513 142.79 212.676C142.464 212.835 142.212 213.062 142.034 213.358C141.856 213.65 141.769 213.992 141.773 214.386C141.769 214.788 141.858 215.138 142.04 215.438C142.225 215.737 142.481 215.97 142.807 216.136C143.133 216.303 143.508 216.386 143.932 216.386Z" fill="#1D2939"/>
<rect x="169" y="194" width="46" height="46" rx="3" fill="#491DB6"/>
<rect x="169" y="194" width="46" height="46" rx="3" stroke="#491DB6" stroke-width="2"/>
<path d="M191.909 211.205C192.386 211.208 192.864 211.299 193.341 211.477C193.818 211.655 194.254 211.951 194.648 212.364C195.042 212.773 195.358 213.331 195.597 214.04C195.835 214.748 195.955 215.636 195.955 216.705C195.955 217.739 195.856 218.657 195.659 219.46C195.466 220.259 195.186 220.934 194.818 221.483C194.455 222.032 194.011 222.449 193.489 222.733C192.97 223.017 192.383 223.159 191.727 223.159C191.076 223.159 190.494 223.03 189.983 222.773C189.475 222.511 189.059 222.15 188.733 221.688C188.411 221.222 188.205 220.682 188.114 220.068H189.5C189.625 220.602 189.873 221.044 190.244 221.392C190.619 221.737 191.114 221.909 191.727 221.909C192.625 221.909 193.333 221.517 193.852 220.733C194.375 219.949 194.636 218.841 194.636 217.409H194.545C194.333 217.727 194.081 218.002 193.79 218.233C193.498 218.464 193.174 218.642 192.818 218.767C192.462 218.892 192.083 218.955 191.682 218.955C191.015 218.955 190.403 218.79 189.847 218.46C189.294 218.127 188.85 217.67 188.517 217.091C188.188 216.508 188.023 215.841 188.023 215.091C188.023 214.379 188.182 213.727 188.5 213.136C188.822 212.542 189.273 212.068 189.852 211.716C190.436 211.364 191.121 211.193 191.909 211.205ZM191.909 212.455C191.432 212.455 191.002 212.574 190.619 212.812C190.241 213.047 189.939 213.366 189.716 213.767C189.496 214.165 189.386 214.606 189.386 215.091C189.386 215.576 189.492 216.017 189.705 216.415C189.92 216.809 190.214 217.123 190.585 217.358C190.96 217.589 191.386 217.705 191.864 217.705C192.223 217.705 192.559 217.634 192.869 217.494C193.18 217.35 193.451 217.155 193.682 216.909C193.917 216.659 194.1 216.377 194.233 216.062C194.366 215.744 194.432 215.413 194.432 215.068C194.432 214.614 194.322 214.187 194.102 213.79C193.886 213.392 193.587 213.07 193.205 212.824C192.826 212.578 192.394 212.455 191.909 212.455Z" fill="white"/>
<rect width="48" height="48" transform="translate(216 193)" fill="#ECE6FB"/>
<path d="M236.295 211.364V223H234.886V212.841H234.818L231.977 214.727V213.295L234.886 211.364H236.295ZM243.438 223.159C242.581 223.159 241.852 222.926 241.25 222.46C240.648 221.991 240.188 221.311 239.869 220.42C239.551 219.527 239.392 218.447 239.392 217.182C239.392 215.924 239.551 214.85 239.869 213.96C240.191 213.066 240.653 212.384 241.256 211.915C241.862 211.441 242.589 211.205 243.438 211.205C244.286 211.205 245.011 211.441 245.614 211.915C246.22 212.384 246.682 213.066 247 213.96C247.322 214.85 247.483 215.924 247.483 217.182C247.483 218.447 247.324 219.527 247.006 220.42C246.688 221.311 246.227 221.991 245.625 222.46C245.023 222.926 244.294 223.159 243.438 223.159ZM243.438 221.909C244.286 221.909 244.945 221.5 245.415 220.682C245.884 219.864 246.119 218.697 246.119 217.182C246.119 216.174 246.011 215.316 245.795 214.608C245.583 213.9 245.277 213.36 244.875 212.989C244.477 212.617 243.998 212.432 243.438 212.432C242.597 212.432 241.939 212.847 241.466 213.676C240.992 214.502 240.756 215.67 240.756 217.182C240.756 218.189 240.862 219.045 241.074 219.75C241.286 220.455 241.591 220.991 241.989 221.358C242.39 221.725 242.873 221.909 243.438 221.909Z" fill="#1D2939"/>
<rect width="48" height="48" transform="translate(264 193)" fill="#ECE6FB"/>
<path d="M285.795 211.364V223H284.386V212.841H284.318L281.477 214.727V213.295L284.386 211.364H285.795ZM293.233 211.364V223H291.824V212.841H291.756L288.915 214.727V213.295L291.824 211.364H293.233Z" fill="#1D2939"/>
<rect width="48" height="48" transform="translate(312 193)" fill="#ECE6FB"/>
<path d="M332.295 211.364V223H330.886V212.841H330.818L327.977 214.727V213.295L330.886 211.364H332.295ZM335.642 223V221.977L339.483 217.773C339.934 217.28 340.305 216.852 340.597 216.489C340.888 216.121 341.104 215.777 341.244 215.455C341.388 215.129 341.46 214.788 341.46 214.432C341.46 214.023 341.362 213.669 341.165 213.369C340.972 213.07 340.706 212.839 340.369 212.676C340.032 212.513 339.653 212.432 339.233 212.432C338.786 212.432 338.396 212.525 338.062 212.71C337.733 212.892 337.477 213.148 337.295 213.477C337.117 213.807 337.028 214.193 337.028 214.636H335.688C335.688 213.955 335.845 213.356 336.159 212.841C336.473 212.326 336.902 211.924 337.443 211.636C337.989 211.348 338.6 211.205 339.278 211.205C339.96 211.205 340.564 211.348 341.091 211.636C341.617 211.924 342.03 212.312 342.33 212.801C342.629 213.29 342.778 213.833 342.778 214.432C342.778 214.86 342.701 215.278 342.545 215.688C342.394 216.093 342.129 216.545 341.75 217.045C341.375 217.542 340.854 218.148 340.188 218.864L337.574 221.659V221.75H342.983V223H335.642Z" fill="#1D2939"/>
<rect width="48" height="48" transform="translate(24 241)" fill="#ECE6FB"/>
<path d="M44.2955 259.364V271H42.8864V260.841H42.8182L39.9773 262.727V261.295L42.8864 259.364H44.2955ZM51.5739 271.159C50.8239 271.159 50.1553 271.03 49.5682 270.773C48.9848 270.515 48.5208 270.157 48.1761 269.699C47.8352 269.237 47.6496 268.701 47.6193 268.091H49.0511C49.0814 268.466 49.2102 268.79 49.4375 269.062C49.6648 269.331 49.9621 269.54 50.3295 269.688C50.697 269.835 51.1042 269.909 51.5511 269.909C52.0511 269.909 52.4943 269.822 52.8807 269.648C53.267 269.473 53.5701 269.231 53.7898 268.92C54.0095 268.61 54.1193 268.25 54.1193 267.841C54.1193 267.413 54.0133 267.036 53.8011 266.71C53.589 266.381 53.2784 266.123 52.8693 265.938C52.4602 265.752 51.9602 265.659 51.3693 265.659H50.4375V264.409H51.3693C51.8314 264.409 52.2367 264.326 52.5852 264.159C52.9375 263.992 53.2121 263.758 53.4091 263.455C53.6098 263.152 53.7102 262.795 53.7102 262.386C53.7102 261.992 53.6231 261.65 53.4489 261.358C53.2746 261.066 53.0284 260.839 52.7102 260.676C52.3958 260.513 52.0246 260.432 51.5966 260.432C51.1951 260.432 50.8163 260.506 50.4602 260.653C50.108 260.797 49.8201 261.008 49.5966 261.284C49.3731 261.557 49.2519 261.886 49.233 262.273H47.8693C47.892 261.663 48.0758 261.129 48.4205 260.67C48.7652 260.208 49.2159 259.848 49.7727 259.591C50.3333 259.333 50.9489 259.205 51.6193 259.205C52.339 259.205 52.9564 259.35 53.4716 259.642C53.9867 259.93 54.3826 260.311 54.6591 260.784C54.9356 261.258 55.0739 261.769 55.0739 262.318C55.0739 262.973 54.9015 263.532 54.5568 263.994C54.2159 264.456 53.7519 264.777 53.1648 264.955V265.045C53.8996 265.167 54.4735 265.479 54.8864 265.983C55.2992 266.483 55.5057 267.102 55.5057 267.841C55.5057 268.473 55.3333 269.042 54.9886 269.545C54.6477 270.045 54.1818 270.439 53.5909 270.727C53 271.015 52.3277 271.159 51.5739 271.159Z" fill="#1D2939"/>
<rect width="48" height="48" transform="translate(72 241)" fill="#ECE6FB"/>
<path d="M92.2955 259.364V271H90.8864V260.841H90.8182L87.9773 262.727V261.295L90.8864 259.364H92.2955ZM95.3693 268.614V267.455L100.483 259.364H101.324V261.159H100.756L96.892 267.273V267.364H103.778V268.614H95.3693ZM100.847 271V268.261V267.722V259.364H102.188V271H100.847Z" fill="#1D2939"/>
<rect x="121" y="242" width="46" height="46" rx="3" fill="#491DB6"/>
<rect x="121" y="242" width="46" height="46" rx="3" stroke="#491DB6" stroke-width="2"/>
<path d="M140.295 259.364V271H138.886V260.841H138.818L135.977 262.727V261.295L138.886 259.364H140.295ZM147.278 271.159C146.612 271.159 146.011 271.027 145.477 270.761C144.943 270.496 144.515 270.133 144.193 269.67C143.871 269.208 143.695 268.682 143.665 268.091H145.028C145.081 268.617 145.32 269.053 145.744 269.398C146.172 269.739 146.684 269.909 147.278 269.909C147.756 269.909 148.18 269.797 148.551 269.574C148.926 269.35 149.22 269.044 149.432 268.653C149.648 268.259 149.756 267.814 149.756 267.318C149.756 266.811 149.644 266.358 149.42 265.96C149.201 265.559 148.898 265.242 148.511 265.011C148.125 264.78 147.684 264.663 147.188 264.659C146.831 264.655 146.466 264.71 146.091 264.824C145.716 264.934 145.407 265.076 145.165 265.25L143.847 265.091L144.551 259.364H150.597V260.614H145.733L145.324 264.045H145.392C145.631 263.856 145.93 263.699 146.29 263.574C146.65 263.449 147.025 263.386 147.415 263.386C148.127 263.386 148.761 263.557 149.318 263.898C149.879 264.235 150.318 264.697 150.636 265.284C150.958 265.871 151.119 266.542 151.119 267.295C151.119 268.038 150.953 268.701 150.619 269.284C150.29 269.864 149.835 270.322 149.256 270.659C148.676 270.992 148.017 271.159 147.278 271.159Z" fill="white"/>
<path d="M188.295 259.364V271H186.886V260.841H186.818L183.977 262.727V261.295L186.886 259.364H188.295ZM195.506 271.159C195.028 271.152 194.551 271.061 194.074 270.886C193.597 270.712 193.161 270.419 192.767 270.006C192.373 269.589 192.057 269.027 191.818 268.318C191.58 267.606 191.46 266.712 191.46 265.636C191.46 264.606 191.557 263.693 191.75 262.898C191.943 262.098 192.223 261.426 192.591 260.881C192.958 260.331 193.402 259.915 193.92 259.631C194.443 259.347 195.032 259.205 195.688 259.205C196.339 259.205 196.919 259.335 197.426 259.597C197.938 259.854 198.354 260.214 198.676 260.676C198.998 261.138 199.206 261.67 199.301 262.273H197.915C197.786 261.75 197.536 261.316 197.165 260.972C196.794 260.627 196.301 260.455 195.688 260.455C194.786 260.455 194.076 260.847 193.557 261.631C193.042 262.415 192.782 263.515 192.778 264.932H192.869C193.081 264.61 193.333 264.335 193.625 264.108C193.92 263.877 194.246 263.699 194.602 263.574C194.958 263.449 195.335 263.386 195.733 263.386C196.4 263.386 197.009 263.553 197.562 263.886C198.116 264.216 198.559 264.672 198.892 265.256C199.225 265.835 199.392 266.5 199.392 267.25C199.392 267.97 199.231 268.629 198.909 269.227C198.587 269.822 198.134 270.295 197.551 270.648C196.972 270.996 196.29 271.167 195.506 271.159ZM195.506 269.909C195.983 269.909 196.411 269.79 196.79 269.551C197.172 269.312 197.473 268.992 197.693 268.591C197.917 268.189 198.028 267.742 198.028 267.25C198.028 266.769 197.92 266.331 197.705 265.938C197.492 265.54 197.199 265.223 196.824 264.989C196.453 264.754 196.028 264.636 195.551 264.636C195.191 264.636 194.856 264.708 194.545 264.852C194.235 264.992 193.962 265.186 193.727 265.432C193.496 265.678 193.314 265.96 193.182 266.278C193.049 266.593 192.983 266.924 192.983 267.273C192.983 267.735 193.091 268.167 193.307 268.568C193.527 268.97 193.826 269.294 194.205 269.54C194.587 269.786 195.021 269.909 195.506 269.909Z" fill="#1D2939"/>
<path d="M236.795 259.364V271H235.386V260.841H235.318L232.477 262.727V261.295L235.386 259.364H236.795ZM240.506 271L245.71 260.705V260.614H239.71V259.364H247.165V260.682L241.983 271H240.506Z" fill="#1D2939"/>
<path d="M284.295 259.364V271H282.886V260.841H282.818L279.977 262.727V261.295L282.886 259.364H284.295ZM291.369 271.159C290.589 271.159 289.9 271.021 289.301 270.744C288.706 270.464 288.242 270.08 287.909 269.591C287.576 269.098 287.411 268.538 287.415 267.909C287.411 267.417 287.508 266.962 287.705 266.545C287.902 266.125 288.17 265.775 288.511 265.494C288.856 265.21 289.241 265.03 289.665 264.955V264.886C289.108 264.742 288.665 264.43 288.335 263.949C288.006 263.464 287.843 262.913 287.847 262.295C287.843 261.705 287.992 261.176 288.295 260.71C288.598 260.244 289.015 259.877 289.545 259.608C290.08 259.339 290.688 259.205 291.369 259.205C292.044 259.205 292.646 259.339 293.176 259.608C293.706 259.877 294.123 260.244 294.426 260.71C294.733 261.176 294.888 261.705 294.892 262.295C294.888 262.913 294.72 263.464 294.386 263.949C294.057 264.43 293.619 264.742 293.074 264.886V264.955C293.494 265.03 293.873 265.21 294.21 265.494C294.547 265.775 294.816 266.125 295.017 266.545C295.218 266.962 295.32 267.417 295.324 267.909C295.32 268.538 295.15 269.098 294.812 269.591C294.479 270.08 294.015 270.464 293.42 270.744C292.83 271.021 292.146 271.159 291.369 271.159ZM291.369 269.909C291.896 269.909 292.35 269.824 292.733 269.653C293.116 269.483 293.411 269.242 293.619 268.932C293.828 268.621 293.934 268.258 293.938 267.841C293.934 267.402 293.82 267.013 293.597 266.676C293.373 266.339 293.068 266.074 292.682 265.881C292.299 265.687 291.862 265.591 291.369 265.591C290.873 265.591 290.43 265.687 290.04 265.881C289.653 266.074 289.348 266.339 289.125 266.676C288.905 267.013 288.797 267.402 288.801 267.841C288.797 268.258 288.898 268.621 289.102 268.932C289.311 269.242 289.608 269.483 289.994 269.653C290.381 269.824 290.839 269.909 291.369 269.909ZM291.369 264.386C291.786 264.386 292.155 264.303 292.477 264.136C292.803 263.97 293.059 263.737 293.244 263.438C293.43 263.138 293.525 262.788 293.528 262.386C293.525 261.992 293.432 261.65 293.25 261.358C293.068 261.062 292.816 260.835 292.494 260.676C292.172 260.513 291.797 260.432 291.369 260.432C290.934 260.432 290.553 260.513 290.227 260.676C289.902 260.835 289.65 261.062 289.472 261.358C289.294 261.65 289.206 261.992 289.21 262.386C289.206 262.788 289.295 263.138 289.477 263.438C289.663 263.737 289.919 263.97 290.244 264.136C290.57 264.303 290.945 264.386 291.369 264.386Z" fill="#1D2939"/>
<path d="M332.295 259.364V271H330.886V260.841H330.818L327.977 262.727V261.295L330.886 259.364H332.295ZM339.347 259.205C339.824 259.208 340.301 259.299 340.778 259.477C341.256 259.655 341.691 259.951 342.085 260.364C342.479 260.773 342.795 261.331 343.034 262.04C343.273 262.748 343.392 263.636 343.392 264.705C343.392 265.739 343.294 266.657 343.097 267.46C342.903 268.259 342.623 268.934 342.256 269.483C341.892 270.032 341.449 270.449 340.926 270.733C340.407 271.017 339.82 271.159 339.165 271.159C338.513 271.159 337.932 271.03 337.42 270.773C336.913 270.511 336.496 270.15 336.17 269.688C335.848 269.222 335.642 268.682 335.551 268.068H336.938C337.062 268.602 337.311 269.044 337.682 269.392C338.057 269.737 338.551 269.909 339.165 269.909C340.063 269.909 340.771 269.517 341.29 268.733C341.813 267.949 342.074 266.841 342.074 265.409H341.983C341.771 265.727 341.519 266.002 341.227 266.233C340.936 266.464 340.612 266.642 340.256 266.767C339.9 266.892 339.521 266.955 339.119 266.955C338.453 266.955 337.841 266.79 337.284 266.46C336.731 266.127 336.288 265.67 335.955 265.091C335.625 264.508 335.46 263.841 335.46 263.091C335.46 262.379 335.619 261.727 335.938 261.136C336.259 260.542 336.71 260.068 337.29 259.716C337.873 259.364 338.559 259.193 339.347 259.205ZM339.347 260.455C338.869 260.455 338.439 260.574 338.057 260.812C337.678 261.047 337.377 261.366 337.153 261.767C336.934 262.165 336.824 262.606 336.824 263.091C336.824 263.576 336.93 264.017 337.142 264.415C337.358 264.809 337.652 265.123 338.023 265.358C338.398 265.589 338.824 265.705 339.301 265.705C339.661 265.705 339.996 265.634 340.307 265.494C340.617 265.35 340.888 265.155 341.119 264.909C341.354 264.659 341.538 264.377 341.67 264.062C341.803 263.744 341.869 263.413 341.869 263.068C341.869 262.614 341.759 262.187 341.54 261.79C341.324 261.392 341.025 261.07 340.642 260.824C340.263 260.578 339.831 260.455 339.347 260.455Z" fill="#1D2939"/>
<path d="M39.2045 319V317.977L43.0455 313.773C43.4962 313.28 43.8674 312.852 44.1591 312.489C44.4508 312.121 44.6667 311.777 44.8068 311.455C44.9508 311.129 45.0227 310.788 45.0227 310.432C45.0227 310.023 44.9242 309.669 44.7273 309.369C44.5341 309.07 44.2689 308.839 43.9318 308.676C43.5947 308.513 43.2159 308.432 42.7955 308.432C42.3485 308.432 41.9583 308.525 41.625 308.71C41.2955 308.892 41.0398 309.148 40.858 309.477C40.6799 309.807 40.5909 310.193 40.5909 310.636H39.25C39.25 309.955 39.4072 309.356 39.7216 308.841C40.036 308.326 40.464 307.924 41.0057 307.636C41.5511 307.348 42.1629 307.205 42.8409 307.205C43.5227 307.205 44.1269 307.348 44.6534 307.636C45.1799 307.924 45.5928 308.312 45.892 308.801C46.1913 309.29 46.3409 309.833 46.3409 310.432C46.3409 310.86 46.2633 311.278 46.108 311.688C45.9564 312.093 45.6913 312.545 45.3125 313.045C44.9375 313.542 44.4167 314.148 43.75 314.864L41.1364 317.659V317.75H46.5455V319H39.2045ZM52.6875 319.159C51.8314 319.159 51.1023 318.926 50.5 318.46C49.8977 317.991 49.4375 317.311 49.1193 316.42C48.8011 315.527 48.642 314.447 48.642 313.182C48.642 311.924 48.8011 310.85 49.1193 309.96C49.4413 309.066 49.9034 308.384 50.5057 307.915C51.1117 307.441 51.839 307.205 52.6875 307.205C53.536 307.205 54.2614 307.441 54.8636 307.915C55.4697 308.384 55.9318 309.066 56.25 309.96C56.572 310.85 56.733 311.924 56.733 313.182C56.733 314.447 56.5739 315.527 56.2557 316.42C55.9375 317.311 55.4773 317.991 54.875 318.46C54.2727 318.926 53.5436 319.159 52.6875 319.159ZM52.6875 317.909C53.536 317.909 54.1951 317.5 54.6648 316.682C55.1345 315.864 55.3693 314.697 55.3693 313.182C55.3693 312.174 55.2614 311.316 55.0455 310.608C54.8333 309.9 54.5265 309.36 54.125 308.989C53.7273 308.617 53.2481 308.432 52.6875 308.432C51.8466 308.432 51.1894 308.847 50.7159 309.676C50.2424 310.502 50.0057 311.67 50.0057 313.182C50.0057 314.189 50.1117 315.045 50.3239 315.75C50.536 316.455 50.8409 316.991 51.2386 317.358C51.6402 317.725 52.1231 317.909 52.6875 317.909Z" fill="#1D2939"/>
<path d="M88.2045 319V317.977L92.0455 313.773C92.4962 313.28 92.8674 312.852 93.1591 312.489C93.4508 312.121 93.6667 311.777 93.8068 311.455C93.9508 311.129 94.0227 310.788 94.0227 310.432C94.0227 310.023 93.9242 309.669 93.7273 309.369C93.5341 309.07 93.2689 308.839 92.9318 308.676C92.5947 308.513 92.2159 308.432 91.7955 308.432C91.3485 308.432 90.9583 308.525 90.625 308.71C90.2955 308.892 90.0398 309.148 89.858 309.477C89.6799 309.807 89.5909 310.193 89.5909 310.636H88.25C88.25 309.955 88.4072 309.356 88.7216 308.841C89.036 308.326 89.464 307.924 90.0057 307.636C90.5511 307.348 91.1629 307.205 91.8409 307.205C92.5227 307.205 93.1269 307.348 93.6534 307.636C94.1799 307.924 94.5928 308.312 94.892 308.801C95.1913 309.29 95.3409 309.833 95.3409 310.432C95.3409 310.86 95.2633 311.278 95.108 311.688C94.9564 312.093 94.6913 312.545 94.3125 313.045C93.9375 313.542 93.4167 314.148 92.75 314.864L90.1364 317.659V317.75H95.5455V319H88.2045ZM101.983 307.364V319H100.574V308.841H100.506L97.6648 310.727V309.295L100.574 307.364H101.983Z" fill="#1D2939"/>
<path d="M135.205 319V317.977L139.045 313.773C139.496 313.28 139.867 312.852 140.159 312.489C140.451 312.121 140.667 311.777 140.807 311.455C140.951 311.129 141.023 310.788 141.023 310.432C141.023 310.023 140.924 309.669 140.727 309.369C140.534 309.07 140.269 308.839 139.932 308.676C139.595 308.513 139.216 308.432 138.795 308.432C138.348 308.432 137.958 308.525 137.625 308.71C137.295 308.892 137.04 309.148 136.858 309.477C136.68 309.807 136.591 310.193 136.591 310.636H135.25C135.25 309.955 135.407 309.356 135.722 308.841C136.036 308.326 136.464 307.924 137.006 307.636C137.551 307.348 138.163 307.205 138.841 307.205C139.523 307.205 140.127 307.348 140.653 307.636C141.18 307.924 141.593 308.312 141.892 308.801C142.191 309.29 142.341 309.833 142.341 310.432C142.341 310.86 142.263 311.278 142.108 311.688C141.956 312.093 141.691 312.545 141.312 313.045C140.938 313.542 140.417 314.148 139.75 314.864L137.136 317.659V317.75H142.545V319H135.205ZM144.892 319V317.977L148.733 313.773C149.184 313.28 149.555 312.852 149.847 312.489C150.138 312.121 150.354 311.777 150.494 311.455C150.638 311.129 150.71 310.788 150.71 310.432C150.71 310.023 150.612 309.669 150.415 309.369C150.222 309.07 149.956 308.839 149.619 308.676C149.282 308.513 148.903 308.432 148.483 308.432C148.036 308.432 147.646 308.525 147.312 308.71C146.983 308.892 146.727 309.148 146.545 309.477C146.367 309.807 146.278 310.193 146.278 310.636H144.938C144.938 309.955 145.095 309.356 145.409 308.841C145.723 308.326 146.152 307.924 146.693 307.636C147.239 307.348 147.85 307.205 148.528 307.205C149.21 307.205 149.814 307.348 150.341 307.636C150.867 307.924 151.28 308.312 151.58 308.801C151.879 309.29 152.028 309.833 152.028 310.432C152.028 310.86 151.951 311.278 151.795 311.688C151.644 312.093 151.379 312.545 151 313.045C150.625 313.542 150.104 314.148 149.438 314.864L146.824 317.659V317.75H152.233V319H144.892Z" fill="#1D2939"/>
<path d="M183.205 319V317.977L187.045 313.773C187.496 313.28 187.867 312.852 188.159 312.489C188.451 312.121 188.667 311.777 188.807 311.455C188.951 311.129 189.023 310.788 189.023 310.432C189.023 310.023 188.924 309.669 188.727 309.369C188.534 309.07 188.269 308.839 187.932 308.676C187.595 308.513 187.216 308.432 186.795 308.432C186.348 308.432 185.958 308.525 185.625 308.71C185.295 308.892 185.04 309.148 184.858 309.477C184.68 309.807 184.591 310.193 184.591 310.636H183.25C183.25 309.955 183.407 309.356 183.722 308.841C184.036 308.326 184.464 307.924 185.006 307.636C185.551 307.348 186.163 307.205 186.841 307.205C187.523 307.205 188.127 307.348 188.653 307.636C189.18 307.924 189.593 308.312 189.892 308.801C190.191 309.29 190.341 309.833 190.341 310.432C190.341 310.86 190.263 311.278 190.108 311.688C189.956 312.093 189.691 312.545 189.312 313.045C188.938 313.542 188.417 314.148 187.75 314.864L185.136 317.659V317.75H190.545V319H183.205ZM196.824 319.159C196.074 319.159 195.405 319.03 194.818 318.773C194.235 318.515 193.771 318.157 193.426 317.699C193.085 317.237 192.9 316.701 192.869 316.091H194.301C194.331 316.466 194.46 316.79 194.688 317.062C194.915 317.331 195.212 317.54 195.58 317.688C195.947 317.835 196.354 317.909 196.801 317.909C197.301 317.909 197.744 317.822 198.131 317.648C198.517 317.473 198.82 317.231 199.04 316.92C199.259 316.61 199.369 316.25 199.369 315.841C199.369 315.413 199.263 315.036 199.051 314.71C198.839 314.381 198.528 314.123 198.119 313.938C197.71 313.752 197.21 313.659 196.619 313.659H195.688V312.409H196.619C197.081 312.409 197.487 312.326 197.835 312.159C198.188 311.992 198.462 311.758 198.659 311.455C198.86 311.152 198.96 310.795 198.96 310.386C198.96 309.992 198.873 309.65 198.699 309.358C198.525 309.066 198.278 308.839 197.96 308.676C197.646 308.513 197.275 308.432 196.847 308.432C196.445 308.432 196.066 308.506 195.71 308.653C195.358 308.797 195.07 309.008 194.847 309.284C194.623 309.557 194.502 309.886 194.483 310.273H193.119C193.142 309.663 193.326 309.129 193.67 308.67C194.015 308.208 194.466 307.848 195.023 307.591C195.583 307.333 196.199 307.205 196.869 307.205C197.589 307.205 198.206 307.35 198.722 307.642C199.237 307.93 199.633 308.311 199.909 308.784C200.186 309.258 200.324 309.769 200.324 310.318C200.324 310.973 200.152 311.532 199.807 311.994C199.466 312.456 199.002 312.777 198.415 312.955V313.045C199.15 313.167 199.723 313.479 200.136 313.983C200.549 314.483 200.756 315.102 200.756 315.841C200.756 316.473 200.583 317.042 200.239 317.545C199.898 318.045 199.432 318.439 198.841 318.727C198.25 319.015 197.578 319.159 196.824 319.159Z" fill="#1D2939"/>
<path d="M231.205 319V317.977L235.045 313.773C235.496 313.28 235.867 312.852 236.159 312.489C236.451 312.121 236.667 311.777 236.807 311.455C236.951 311.129 237.023 310.788 237.023 310.432C237.023 310.023 236.924 309.669 236.727 309.369C236.534 309.07 236.269 308.839 235.932 308.676C235.595 308.513 235.216 308.432 234.795 308.432C234.348 308.432 233.958 308.525 233.625 308.71C233.295 308.892 233.04 309.148 232.858 309.477C232.68 309.807 232.591 310.193 232.591 310.636H231.25C231.25 309.955 231.407 309.356 231.722 308.841C232.036 308.326 232.464 307.924 233.006 307.636C233.551 307.348 234.163 307.205 234.841 307.205C235.523 307.205 236.127 307.348 236.653 307.636C237.18 307.924 237.593 308.312 237.892 308.801C238.191 309.29 238.341 309.833 238.341 310.432C238.341 310.86 238.263 311.278 238.108 311.688C237.956 312.093 237.691 312.545 237.312 313.045C236.938 313.542 236.417 314.148 235.75 314.864L233.136 317.659V317.75H238.545V319H231.205ZM240.369 316.614V315.455L245.483 307.364H246.324V309.159H245.756L241.892 315.273V315.364H248.778V316.614H240.369ZM245.847 319V316.261V315.722V307.364H247.188V319H245.847Z" fill="#1D2939"/>
<path d="M279.205 319V317.977L283.045 313.773C283.496 313.28 283.867 312.852 284.159 312.489C284.451 312.121 284.667 311.777 284.807 311.455C284.951 311.129 285.023 310.788 285.023 310.432C285.023 310.023 284.924 309.669 284.727 309.369C284.534 309.07 284.269 308.839 283.932 308.676C283.595 308.513 283.216 308.432 282.795 308.432C282.348 308.432 281.958 308.525 281.625 308.71C281.295 308.892 281.04 309.148 280.858 309.477C280.68 309.807 280.591 310.193 280.591 310.636H279.25C279.25 309.955 279.407 309.356 279.722 308.841C280.036 308.326 280.464 307.924 281.006 307.636C281.551 307.348 282.163 307.205 282.841 307.205C283.523 307.205 284.127 307.348 284.653 307.636C285.18 307.924 285.593 308.312 285.892 308.801C286.191 309.29 286.341 309.833 286.341 310.432C286.341 310.86 286.263 311.278 286.108 311.688C285.956 312.093 285.691 312.545 285.312 313.045C284.938 313.542 284.417 314.148 283.75 314.864L281.136 317.659V317.75H286.545V319H279.205ZM292.528 319.159C291.862 319.159 291.261 319.027 290.727 318.761C290.193 318.496 289.765 318.133 289.443 317.67C289.121 317.208 288.945 316.682 288.915 316.091H290.278C290.331 316.617 290.57 317.053 290.994 317.398C291.422 317.739 291.934 317.909 292.528 317.909C293.006 317.909 293.43 317.797 293.801 317.574C294.176 317.35 294.47 317.044 294.682 316.653C294.898 316.259 295.006 315.814 295.006 315.318C295.006 314.811 294.894 314.358 294.67 313.96C294.451 313.559 294.148 313.242 293.761 313.011C293.375 312.78 292.934 312.663 292.438 312.659C292.081 312.655 291.716 312.71 291.341 312.824C290.966 312.934 290.657 313.076 290.415 313.25L289.097 313.091L289.801 307.364H295.847V308.614H290.983L290.574 312.045H290.642C290.881 311.856 291.18 311.699 291.54 311.574C291.9 311.449 292.275 311.386 292.665 311.386C293.377 311.386 294.011 311.557 294.568 311.898C295.129 312.235 295.568 312.697 295.886 313.284C296.208 313.871 296.369 314.542 296.369 315.295C296.369 316.038 296.203 316.701 295.869 317.284C295.54 317.864 295.085 318.322 294.506 318.659C293.926 318.992 293.267 319.159 292.528 319.159Z" fill="#1D2939"/>
<path d="M327.205 319V317.977L331.045 313.773C331.496 313.28 331.867 312.852 332.159 312.489C332.451 312.121 332.667 311.777 332.807 311.455C332.951 311.129 333.023 310.788 333.023 310.432C333.023 310.023 332.924 309.669 332.727 309.369C332.534 309.07 332.269 308.839 331.932 308.676C331.595 308.513 331.216 308.432 330.795 308.432C330.348 308.432 329.958 308.525 329.625 308.71C329.295 308.892 329.04 309.148 328.858 309.477C328.68 309.807 328.591 310.193 328.591 310.636H327.25C327.25 309.955 327.407 309.356 327.722 308.841C328.036 308.326 328.464 307.924 329.006 307.636C329.551 307.348 330.163 307.205 330.841 307.205C331.523 307.205 332.127 307.348 332.653 307.636C333.18 307.924 333.593 308.312 333.892 308.801C334.191 309.29 334.341 309.833 334.341 310.432C334.341 310.86 334.263 311.278 334.108 311.688C333.956 312.093 333.691 312.545 333.312 313.045C332.938 313.542 332.417 314.148 331.75 314.864L329.136 317.659V317.75H334.545V319H327.205ZM340.756 319.159C340.278 319.152 339.801 319.061 339.324 318.886C338.847 318.712 338.411 318.419 338.017 318.006C337.623 317.589 337.307 317.027 337.068 316.318C336.83 315.606 336.71 314.712 336.71 313.636C336.71 312.606 336.807 311.693 337 310.898C337.193 310.098 337.473 309.426 337.841 308.881C338.208 308.331 338.652 307.915 339.17 307.631C339.693 307.347 340.282 307.205 340.938 307.205C341.589 307.205 342.169 307.335 342.676 307.597C343.188 307.854 343.604 308.214 343.926 308.676C344.248 309.138 344.456 309.67 344.551 310.273H343.165C343.036 309.75 342.786 309.316 342.415 308.972C342.044 308.627 341.551 308.455 340.938 308.455C340.036 308.455 339.326 308.847 338.807 309.631C338.292 310.415 338.032 311.515 338.028 312.932H338.119C338.331 312.61 338.583 312.335 338.875 312.108C339.17 311.877 339.496 311.699 339.852 311.574C340.208 311.449 340.585 311.386 340.983 311.386C341.65 311.386 342.259 311.553 342.812 311.886C343.366 312.216 343.809 312.672 344.142 313.256C344.475 313.835 344.642 314.5 344.642 315.25C344.642 315.97 344.481 316.629 344.159 317.227C343.837 317.822 343.384 318.295 342.801 318.648C342.222 318.996 341.54 319.167 340.756 319.159ZM340.756 317.909C341.233 317.909 341.661 317.79 342.04 317.551C342.422 317.312 342.723 316.992 342.943 316.591C343.167 316.189 343.278 315.742 343.278 315.25C343.278 314.769 343.17 314.331 342.955 313.938C342.742 313.54 342.449 313.223 342.074 312.989C341.703 312.754 341.278 312.636 340.801 312.636C340.441 312.636 340.106 312.708 339.795 312.852C339.485 312.992 339.212 313.186 338.977 313.432C338.746 313.678 338.564 313.96 338.432 314.278C338.299 314.593 338.233 314.924 338.233 315.273C338.233 315.735 338.341 316.167 338.557 316.568C338.777 316.97 339.076 317.294 339.455 317.54C339.837 317.786 340.271 317.909 340.756 317.909Z" fill="#1D2939"/>
<path d="M39.7045 367V365.977L43.5455 361.773C43.9962 361.28 44.3674 360.852 44.6591 360.489C44.9508 360.121 45.1667 359.777 45.3068 359.455C45.4508 359.129 45.5227 358.788 45.5227 358.432C45.5227 358.023 45.4242 357.669 45.2273 357.369C45.0341 357.07 44.7689 356.839 44.4318 356.676C44.0947 356.513 43.7159 356.432 43.2955 356.432C42.8485 356.432 42.4583 356.525 42.125 356.71C41.7955 356.892 41.5398 357.148 41.358 357.477C41.1799 357.807 41.0909 358.193 41.0909 358.636H39.75C39.75 357.955 39.9072 357.356 40.2216 356.841C40.536 356.326 40.964 355.924 41.5057 355.636C42.0511 355.348 42.6629 355.205 43.3409 355.205C44.0227 355.205 44.6269 355.348 45.1534 355.636C45.6799 355.924 46.0928 356.312 46.392 356.801C46.6913 357.29 46.8409 357.833 46.8409 358.432C46.8409 358.86 46.7633 359.278 46.608 359.688C46.4564 360.093 46.1913 360.545 45.8125 361.045C45.4375 361.542 44.9167 362.148 44.25 362.864L41.6364 365.659V365.75H47.0455V367H39.7045ZM49.7557 367L54.9602 356.705V356.614H48.9602V355.364H56.4148V356.682L51.233 367H49.7557Z" fill="#1D2939"/>
<path d="M87.2045 367V365.977L91.0455 361.773C91.4962 361.28 91.8674 360.852 92.1591 360.489C92.4508 360.121 92.6667 359.777 92.8068 359.455C92.9508 359.129 93.0227 358.788 93.0227 358.432C93.0227 358.023 92.9242 357.669 92.7273 357.369C92.5341 357.07 92.2689 356.839 91.9318 356.676C91.5947 356.513 91.2159 356.432 90.7955 356.432C90.3485 356.432 89.9583 356.525 89.625 356.71C89.2955 356.892 89.0398 357.148 88.858 357.477C88.6799 357.807 88.5909 358.193 88.5909 358.636H87.25C87.25 357.955 87.4072 357.356 87.7216 356.841C88.036 356.326 88.464 355.924 89.0057 355.636C89.5511 355.348 90.1629 355.205 90.8409 355.205C91.5227 355.205 92.1269 355.348 92.6534 355.636C93.1799 355.924 93.5928 356.312 93.892 356.801C94.1913 357.29 94.3409 357.833 94.3409 358.432C94.3409 358.86 94.2633 359.278 94.108 359.688C93.9564 360.093 93.6913 360.545 93.3125 361.045C92.9375 361.542 92.4167 362.148 91.75 362.864L89.1364 365.659V365.75H94.5455V367H87.2045ZM100.619 367.159C99.839 367.159 99.1496 367.021 98.5511 366.744C97.9564 366.464 97.4924 366.08 97.1591 365.591C96.8258 365.098 96.661 364.538 96.6648 363.909C96.661 363.417 96.7576 362.962 96.9545 362.545C97.1515 362.125 97.4205 361.775 97.7614 361.494C98.1061 361.21 98.4905 361.03 98.9148 360.955V360.886C98.358 360.742 97.9148 360.43 97.5852 359.949C97.2557 359.464 97.0928 358.913 97.0966 358.295C97.0928 357.705 97.2424 357.176 97.5455 356.71C97.8485 356.244 98.2652 355.877 98.7955 355.608C99.3295 355.339 99.9375 355.205 100.619 355.205C101.294 355.205 101.896 355.339 102.426 355.608C102.956 355.877 103.373 356.244 103.676 356.71C103.983 357.176 104.138 357.705 104.142 358.295C104.138 358.913 103.97 359.464 103.636 359.949C103.307 360.43 102.869 360.742 102.324 360.886V360.955C102.744 361.03 103.123 361.21 103.46 361.494C103.797 361.775 104.066 362.125 104.267 362.545C104.468 362.962 104.57 363.417 104.574 363.909C104.57 364.538 104.4 365.098 104.062 365.591C103.729 366.08 103.265 366.464 102.67 366.744C102.08 367.021 101.396 367.159 100.619 367.159ZM100.619 365.909C101.146 365.909 101.6 365.824 101.983 365.653C102.366 365.483 102.661 365.242 102.869 364.932C103.078 364.621 103.184 364.258 103.188 363.841C103.184 363.402 103.07 363.013 102.847 362.676C102.623 362.339 102.318 362.074 101.932 361.881C101.549 361.687 101.112 361.591 100.619 361.591C100.123 361.591 99.6799 361.687 99.2898 361.881C98.9034 362.074 98.5985 362.339 98.375 362.676C98.1553 363.013 98.0473 363.402 98.0511 363.841C98.0473 364.258 98.1477 364.621 98.3523 364.932C98.5606 365.242 98.858 365.483 99.2443 365.653C99.6307 365.824 100.089 365.909 100.619 365.909ZM100.619 360.386C101.036 360.386 101.405 360.303 101.727 360.136C102.053 359.97 102.309 359.737 102.494 359.438C102.68 359.138 102.775 358.788 102.778 358.386C102.775 357.992 102.682 357.65 102.5 357.358C102.318 357.062 102.066 356.835 101.744 356.676C101.422 356.513 101.047 356.432 100.619 356.432C100.184 356.432 99.803 356.513 99.4773 356.676C99.1515 356.835 98.8996 357.062 98.7216 357.358C98.5436 357.65 98.4564 357.992 98.4602 358.386C98.4564 358.788 98.5455 359.138 98.7273 359.438C98.9129 359.737 99.1686 359.97 99.4943 360.136C99.8201 360.303 100.195 360.386 100.619 360.386Z" fill="#1D2939"/>
<path d="M135.205 367V365.977L139.045 361.773C139.496 361.28 139.867 360.852 140.159 360.489C140.451 360.121 140.667 359.777 140.807 359.455C140.951 359.129 141.023 358.788 141.023 358.432C141.023 358.023 140.924 357.669 140.727 357.369C140.534 357.07 140.269 356.839 139.932 356.676C139.595 356.513 139.216 356.432 138.795 356.432C138.348 356.432 137.958 356.525 137.625 356.71C137.295 356.892 137.04 357.148 136.858 357.477C136.68 357.807 136.591 358.193 136.591 358.636H135.25C135.25 357.955 135.407 357.356 135.722 356.841C136.036 356.326 136.464 355.924 137.006 355.636C137.551 355.348 138.163 355.205 138.841 355.205C139.523 355.205 140.127 355.348 140.653 355.636C141.18 355.924 141.593 356.312 141.892 356.801C142.191 357.29 142.341 357.833 142.341 358.432C142.341 358.86 142.263 359.278 142.108 359.688C141.956 360.093 141.691 360.545 141.312 361.045C140.938 361.542 140.417 362.148 139.75 362.864L137.136 365.659V365.75H142.545V367H135.205ZM148.597 355.205C149.074 355.208 149.551 355.299 150.028 355.477C150.506 355.655 150.941 355.951 151.335 356.364C151.729 356.773 152.045 357.331 152.284 358.04C152.523 358.748 152.642 359.636 152.642 360.705C152.642 361.739 152.544 362.657 152.347 363.46C152.153 364.259 151.873 364.934 151.506 365.483C151.142 366.032 150.699 366.449 150.176 366.733C149.657 367.017 149.07 367.159 148.415 367.159C147.763 367.159 147.182 367.03 146.67 366.773C146.163 366.511 145.746 366.15 145.42 365.688C145.098 365.222 144.892 364.682 144.801 364.068H146.188C146.312 364.602 146.561 365.044 146.932 365.392C147.307 365.737 147.801 365.909 148.415 365.909C149.313 365.909 150.021 365.517 150.54 364.733C151.063 363.949 151.324 362.841 151.324 361.409H151.233C151.021 361.727 150.769 362.002 150.477 362.233C150.186 362.464 149.862 362.642 149.506 362.767C149.15 362.892 148.771 362.955 148.369 362.955C147.703 362.955 147.091 362.79 146.534 362.46C145.981 362.127 145.538 361.67 145.205 361.091C144.875 360.508 144.71 359.841 144.71 359.091C144.71 358.379 144.869 357.727 145.188 357.136C145.509 356.542 145.96 356.068 146.54 355.716C147.123 355.364 147.809 355.193 148.597 355.205ZM148.597 356.455C148.119 356.455 147.689 356.574 147.307 356.812C146.928 357.047 146.627 357.366 146.403 357.767C146.184 358.165 146.074 358.606 146.074 359.091C146.074 359.576 146.18 360.017 146.392 360.415C146.608 360.809 146.902 361.123 147.273 361.358C147.648 361.589 148.074 361.705 148.551 361.705C148.911 361.705 149.246 361.634 149.557 361.494C149.867 361.35 150.138 361.155 150.369 360.909C150.604 360.659 150.788 360.377 150.92 360.062C151.053 359.744 151.119 359.413 151.119 359.068C151.119 358.614 151.009 358.187 150.79 357.79C150.574 357.392 150.275 357.07 149.892 356.824C149.513 356.578 149.081 356.455 148.597 356.455Z" fill="#1D2939"/>
<path d="M186.636 367.159C185.886 367.159 185.218 367.03 184.631 366.773C184.047 366.515 183.583 366.157 183.239 365.699C182.898 365.237 182.712 364.701 182.682 364.091H184.114C184.144 364.466 184.273 364.79 184.5 365.062C184.727 365.331 185.025 365.54 185.392 365.688C185.759 365.835 186.167 365.909 186.614 365.909C187.114 365.909 187.557 365.822 187.943 365.648C188.33 365.473 188.633 365.231 188.852 364.92C189.072 364.61 189.182 364.25 189.182 363.841C189.182 363.413 189.076 363.036 188.864 362.71C188.652 362.381 188.341 362.123 187.932 361.938C187.523 361.752 187.023 361.659 186.432 361.659H185.5V360.409H186.432C186.894 360.409 187.299 360.326 187.648 360.159C188 359.992 188.275 359.758 188.472 359.455C188.672 359.152 188.773 358.795 188.773 358.386C188.773 357.992 188.686 357.65 188.511 357.358C188.337 357.066 188.091 356.839 187.773 356.676C187.458 356.513 187.087 356.432 186.659 356.432C186.258 356.432 185.879 356.506 185.523 356.653C185.17 356.797 184.883 357.008 184.659 357.284C184.436 357.557 184.314 357.886 184.295 358.273H182.932C182.955 357.663 183.138 357.129 183.483 356.67C183.828 356.208 184.278 355.848 184.835 355.591C185.396 355.333 186.011 355.205 186.682 355.205C187.402 355.205 188.019 355.35 188.534 355.642C189.049 355.93 189.445 356.311 189.722 356.784C189.998 357.258 190.136 357.769 190.136 358.318C190.136 358.973 189.964 359.532 189.619 359.994C189.278 360.456 188.814 360.777 188.227 360.955V361.045C188.962 361.167 189.536 361.479 189.949 361.983C190.362 362.483 190.568 363.102 190.568 363.841C190.568 364.473 190.396 365.042 190.051 365.545C189.71 366.045 189.244 366.439 188.653 366.727C188.063 367.015 187.39 367.159 186.636 367.159ZM196.688 367.159C195.831 367.159 195.102 366.926 194.5 366.46C193.898 365.991 193.438 365.311 193.119 364.42C192.801 363.527 192.642 362.447 192.642 361.182C192.642 359.924 192.801 358.85 193.119 357.96C193.441 357.066 193.903 356.384 194.506 355.915C195.112 355.441 195.839 355.205 196.688 355.205C197.536 355.205 198.261 355.441 198.864 355.915C199.47 356.384 199.932 357.066 200.25 357.96C200.572 358.85 200.733 359.924 200.733 361.182C200.733 362.447 200.574 363.527 200.256 364.42C199.938 365.311 199.477 365.991 198.875 366.46C198.273 366.926 197.544 367.159 196.688 367.159ZM196.688 365.909C197.536 365.909 198.195 365.5 198.665 364.682C199.134 363.864 199.369 362.697 199.369 361.182C199.369 360.174 199.261 359.316 199.045 358.608C198.833 357.9 198.527 357.36 198.125 356.989C197.727 356.617 197.248 356.432 196.688 356.432C195.847 356.432 195.189 356.847 194.716 357.676C194.242 358.502 194.006 359.67 194.006 361.182C194.006 362.189 194.112 363.045 194.324 363.75C194.536 364.455 194.841 364.991 195.239 365.358C195.64 365.725 196.123 365.909 196.688 365.909Z" fill="#1D2939"/>
<path d="M236.136 367.159C235.386 367.159 234.718 367.03 234.131 366.773C233.547 366.515 233.083 366.157 232.739 365.699C232.398 365.237 232.212 364.701 232.182 364.091H233.614C233.644 364.466 233.773 364.79 234 365.062C234.227 365.331 234.525 365.54 234.892 365.688C235.259 365.835 235.667 365.909 236.114 365.909C236.614 365.909 237.057 365.822 237.443 365.648C237.83 365.473 238.133 365.231 238.352 364.92C238.572 364.61 238.682 364.25 238.682 363.841C238.682 363.413 238.576 363.036 238.364 362.71C238.152 362.381 237.841 362.123 237.432 361.938C237.023 361.752 236.523 361.659 235.932 361.659H235V360.409H235.932C236.394 360.409 236.799 360.326 237.148 360.159C237.5 359.992 237.775 359.758 237.972 359.455C238.172 359.152 238.273 358.795 238.273 358.386C238.273 357.992 238.186 357.65 238.011 357.358C237.837 357.066 237.591 356.839 237.273 356.676C236.958 356.513 236.587 356.432 236.159 356.432C235.758 356.432 235.379 356.506 235.023 356.653C234.67 356.797 234.383 357.008 234.159 357.284C233.936 357.557 233.814 357.886 233.795 358.273H232.432C232.455 357.663 232.638 357.129 232.983 356.67C233.328 356.208 233.778 355.848 234.335 355.591C234.896 355.333 235.511 355.205 236.182 355.205C236.902 355.205 237.519 355.35 238.034 355.642C238.549 355.93 238.945 356.311 239.222 356.784C239.498 357.258 239.636 357.769 239.636 358.318C239.636 358.973 239.464 359.532 239.119 359.994C238.778 360.456 238.314 360.777 237.727 360.955V361.045C238.462 361.167 239.036 361.479 239.449 361.983C239.862 362.483 240.068 363.102 240.068 363.841C240.068 364.473 239.896 365.042 239.551 365.545C239.21 366.045 238.744 366.439 238.153 366.727C237.563 367.015 236.89 367.159 236.136 367.159ZM246.483 355.364V367H245.074V356.841H245.006L242.165 358.727V357.295L245.074 355.364H246.483Z" fill="#1D2939"/>
<circle cx="300" cy="16" r="12" fill="#1D2939"/>
<path d="M295.943 22V20.2273L300.085 16.392C300.438 16.0511 300.733 15.7443 300.972 15.4716C301.214 15.1989 301.398 14.9318 301.523 14.6705C301.648 14.4053 301.71 14.1193 301.71 13.8125C301.71 13.4716 301.633 13.178 301.477 12.9318C301.322 12.6818 301.11 12.4905 300.841 12.358C300.572 12.2216 300.267 12.1534 299.926 12.1534C299.57 12.1534 299.259 12.2254 298.994 12.3693C298.729 12.5133 298.525 12.7197 298.381 12.9886C298.237 13.2576 298.165 13.5777 298.165 13.9489H295.83C295.83 13.1875 296.002 12.5265 296.347 11.9659C296.691 11.4053 297.174 10.9716 297.795 10.6648C298.417 10.358 299.133 10.2045 299.943 10.2045C300.777 10.2045 301.502 10.3523 302.119 10.6477C302.741 10.9394 303.223 11.3447 303.568 11.8636C303.913 12.3826 304.085 12.9773 304.085 13.6477C304.085 14.0871 303.998 14.5208 303.824 14.9489C303.653 15.3769 303.348 15.8523 302.909 16.375C302.47 16.8939 301.85 17.517 301.051 18.2443L299.352 19.9091V19.9886H304.239V22H295.943Z" fill="white"/>
<path d="M289 16H216V68" stroke="#1D2939" stroke-dasharray="2 2"/>
<circle cx="438" cy="81" r="12" fill="#1D2939"/>
<path d="M438.244 87.1591C437.396 87.1591 436.64 87.0133 435.977 86.7216C435.318 86.4261 434.797 86.0208 434.415 85.5057C434.036 84.9867 433.841 84.3883 433.83 83.7102H436.307C436.322 83.9943 436.415 84.2443 436.585 84.4602C436.759 84.6723 436.991 84.8371 437.278 84.9545C437.566 85.072 437.89 85.1307 438.25 85.1307C438.625 85.1307 438.956 85.0644 439.244 84.9318C439.532 84.7992 439.758 84.6155 439.92 84.3807C440.083 84.1458 440.165 83.875 440.165 83.5682C440.165 83.2576 440.078 82.983 439.903 82.7443C439.733 82.5019 439.487 82.3125 439.165 82.1761C438.847 82.0398 438.468 81.9716 438.028 81.9716H436.943V80.1648H438.028C438.4 80.1648 438.727 80.1004 439.011 79.9716C439.299 79.8428 439.523 79.6648 439.682 79.4375C439.841 79.2064 439.92 78.9375 439.92 78.6307C439.92 78.339 439.85 78.0833 439.71 77.8636C439.574 77.6402 439.381 77.4659 439.131 77.3409C438.884 77.2159 438.597 77.1534 438.267 77.1534C437.934 77.1534 437.629 77.214 437.352 77.3352C437.076 77.4527 436.854 77.6212 436.688 77.8409C436.521 78.0606 436.432 78.3182 436.42 78.6136H434.062C434.074 77.9432 434.265 77.3523 434.636 76.8409C435.008 76.3295 435.508 75.9299 436.136 75.642C436.769 75.3504 437.483 75.2045 438.278 75.2045C439.081 75.2045 439.784 75.3504 440.386 75.642C440.989 75.9337 441.456 76.3277 441.79 76.8239C442.127 77.3163 442.294 77.8693 442.29 78.483C442.294 79.1345 442.091 79.678 441.682 80.1136C441.277 80.5492 440.748 80.8258 440.097 80.9432V81.0341C440.953 81.1439 441.604 81.4413 442.051 81.9261C442.502 82.4072 442.725 83.0095 442.722 83.733C442.725 84.3958 442.534 84.9848 442.148 85.5C441.765 86.0152 441.237 86.4205 440.562 86.7159C439.888 87.0114 439.116 87.1591 438.244 87.1591Z" fill="white"/>
<path d="M356 81H426" stroke="#1D2939" stroke-dasharray="2 2"/>
<circle cx="94" cy="16" r="12" fill="#1D2939"/>
<path d="M96.0057 10.3636V22H93.5455V12.6989H93.4773L90.8125 14.3693V12.1875L93.6932 10.3636H96.0057Z" fill="white"/>
<path d="M106 16H179V68" stroke="#1D2939" stroke-dasharray="2 2"/>
</svg>
