<svg width="434" height="406" viewBox="0 0 434 406" fill="none" xmlns="http://www.w3.org/2000/svg">
<rect x="0.5" y="0.5" width="383" height="367" rx="4.5" fill="white"/>
<rect x="0.5" y="0.5" width="383" height="367" rx="4.5" stroke="#98A2B3"/>
<path fill-rule="evenodd" clip-rule="evenodd" d="M43.3539 33.646C43.4005 33.6924 43.4374 33.7476 43.4626 33.8083C43.4878 33.8691 43.5008 33.9342 43.5008 34C43.5008 34.0657 43.4878 34.1309 43.4626 34.1916C43.4374 34.2524 43.4005 34.3075 43.3539 34.354L37.7069 40L43.3539 45.646C43.4478 45.7399 43.5006 45.8672 43.5006 46C43.5006 46.1328 43.4478 46.2601 43.3539 46.354C43.26 46.4479 43.1327 46.5006 42.9999 46.5006C42.8671 46.5006 42.7398 46.4479 42.6459 46.354L36.6459 40.354C36.5994 40.3075 36.5624 40.2524 36.5372 40.1916C36.512 40.1309 36.499 40.0657 36.499 40C36.499 39.9342 36.512 39.8691 36.5372 39.8083C36.5624 39.7476 36.5994 39.6924 36.6459 39.646L42.6459 33.646C42.6924 33.5994 42.7475 33.5625 42.8083 33.5373C42.869 33.5121 42.9342 33.4991 42.9999 33.4991C43.0657 33.4991 43.1308 33.5121 43.1916 33.5373C43.2523 33.5625 43.3075 33.5994 43.3539 33.646V33.646Z" fill="#4A1FB8"/>
<path d="M154.241 39.9091C154.241 41.0194 154.031 41.964 153.61 42.7429C153.192 43.5218 152.622 44.1167 151.9 44.5277C151.181 44.9354 150.372 45.1392 149.474 45.1392C148.569 45.1392 147.757 44.9337 147.038 44.5227C146.318 44.1117 145.75 43.5168 145.332 42.7379C144.915 41.959 144.706 41.0161 144.706 39.9091C144.706 38.7988 144.915 37.8542 145.332 37.0753C145.75 36.2964 146.318 35.7031 147.038 35.2955C147.757 34.8845 148.569 34.679 149.474 34.679C150.372 34.679 151.181 34.8845 151.9 35.2955C152.622 35.7031 153.192 36.2964 153.61 37.0753C154.031 37.8542 154.241 38.7988 154.241 39.9091ZM152.059 39.9091C152.059 39.1899 151.951 38.5833 151.736 38.0895C151.524 37.5956 151.224 37.2211 150.836 36.9659C150.448 36.7107 149.994 36.5831 149.474 36.5831C148.953 36.5831 148.499 36.7107 148.112 36.9659C147.724 37.2211 147.422 37.5956 147.207 38.0895C146.995 38.5833 146.888 39.1899 146.888 39.9091C146.888 40.6283 146.995 41.2348 147.207 41.7287C147.422 42.2225 147.724 42.5971 148.112 42.8523C148.499 43.1075 148.953 43.2351 149.474 43.2351C149.994 43.2351 150.448 43.1075 150.836 42.8523C151.224 42.5971 151.524 42.2225 151.736 41.7287C151.951 41.2348 152.059 40.6283 152.059 39.9091ZM159.247 45.1491C158.464 45.1491 157.792 44.9834 157.228 44.652C156.668 44.3172 156.237 43.8532 155.936 43.2599C155.637 42.6667 155.488 41.9839 155.488 41.2116C155.488 40.4295 155.639 39.7434 155.941 39.1534C156.245 38.5601 156.678 38.0978 157.238 37.7663C157.798 37.4316 158.464 37.2642 159.237 37.2642C159.903 37.2642 160.486 37.3852 160.987 37.6271C161.487 37.8691 161.883 38.2088 162.175 38.6463C162.467 39.0838 162.627 39.5975 162.657 40.1875H160.659C160.602 39.8063 160.453 39.4998 160.211 39.2678C159.972 39.0324 159.659 38.9148 159.271 38.9148C158.943 38.9148 158.657 39.0043 158.411 39.1832C158.169 39.3589 157.981 39.6158 157.845 39.9538C157.709 40.2919 157.641 40.7012 157.641 41.1818C157.641 41.669 157.707 42.0833 157.84 42.4247C157.976 42.7661 158.166 43.0263 158.411 43.2053C158.657 43.3842 158.943 43.4737 159.271 43.4737C159.513 43.4737 159.731 43.424 159.923 43.3246C160.118 43.2251 160.279 43.081 160.405 42.892C160.534 42.6998 160.619 42.4695 160.659 42.201H162.657C162.624 42.7843 162.465 43.2981 162.18 43.7422C161.898 44.183 161.509 44.5277 161.012 44.7763C160.514 45.0249 159.926 45.1491 159.247 45.1491ZM168.075 37.3636V38.9545H163.476V37.3636H168.075ZM164.52 35.5341H166.638V42.6534C166.638 42.849 166.668 43.0014 166.728 43.1108C166.787 43.2169 166.87 43.2914 166.976 43.3345C167.086 43.3776 167.212 43.3991 167.354 43.3991C167.453 43.3991 167.553 43.3909 167.652 43.3743C167.752 43.3544 167.828 43.3395 167.881 43.3295L168.214 44.9055C168.108 44.9387 167.959 44.9768 167.767 45.0199C167.574 45.0663 167.341 45.0945 167.066 45.1044C166.555 45.1243 166.108 45.0563 165.723 44.9006C165.342 44.7448 165.046 44.5028 164.833 44.1747C164.621 43.8466 164.517 43.4323 164.52 42.9318V35.5341ZM172.823 45.1491C172.051 45.1491 171.383 44.9851 170.819 44.657C170.259 44.3255 169.827 43.8648 169.522 43.2749C169.217 42.6816 169.064 41.9938 169.064 41.2116C169.064 40.4228 169.217 39.7334 169.522 39.1435C169.827 38.5502 170.259 38.0895 170.819 37.7614C171.383 37.4299 172.051 37.2642 172.823 37.2642C173.595 37.2642 174.261 37.4299 174.821 37.7614C175.385 38.0895 175.819 38.5502 176.124 39.1435C176.429 39.7334 176.581 40.4228 176.581 41.2116C176.581 41.9938 176.429 42.6816 176.124 43.2749C175.819 43.8648 175.385 44.3255 174.821 44.657C174.261 44.9851 173.595 45.1491 172.823 45.1491ZM172.833 43.5085C173.184 43.5085 173.477 43.4091 173.713 43.2102C173.948 43.008 174.125 42.733 174.245 42.3849C174.367 42.0369 174.429 41.6409 174.429 41.1967C174.429 40.7526 174.367 40.3565 174.245 40.0085C174.125 39.6605 173.948 39.3854 173.713 39.1832C173.477 38.9811 173.184 38.88 172.833 38.88C172.478 38.88 172.18 38.9811 171.938 39.1832C171.699 39.3854 171.519 39.6605 171.396 40.0085C171.277 40.3565 171.217 40.7526 171.217 41.1967C171.217 41.6409 171.277 42.0369 171.396 42.3849C171.519 42.733 171.699 43.008 171.938 43.2102C172.18 43.4091 172.478 43.5085 172.833 43.5085ZM177.998 45V34.8182H180.116V38.6463H180.181C180.274 38.4408 180.408 38.232 180.583 38.0199C180.762 37.8045 180.994 37.6255 181.279 37.483C181.568 37.3371 181.926 37.2642 182.353 37.2642C182.91 37.2642 183.424 37.41 183.895 37.7017C184.365 37.9901 184.741 38.4259 185.023 39.0092C185.305 39.5893 185.446 40.3168 185.446 41.1918C185.446 42.0436 185.308 42.7628 185.033 43.3494C184.761 43.9328 184.39 44.3752 183.919 44.6768C183.452 44.9751 182.928 45.1243 182.348 45.1243C181.937 45.1243 181.588 45.0563 181.299 44.9205C181.014 44.7846 180.781 44.6139 180.598 44.4084C180.416 44.1996 180.277 43.9891 180.181 43.777H180.086V45H177.998ZM180.071 41.1818C180.071 41.6359 180.134 42.032 180.26 42.37C180.386 42.7081 180.569 42.9716 180.807 43.1605C181.046 43.3461 181.336 43.4389 181.677 43.4389C182.022 43.4389 182.314 43.3445 182.552 43.1555C182.791 42.9633 182.971 42.6982 183.094 42.3601C183.22 42.0187 183.283 41.6259 183.283 41.1818C183.283 40.741 183.222 40.3532 183.099 40.0185C182.976 39.6837 182.796 39.4219 182.557 39.233C182.319 39.044 182.025 38.9496 181.677 38.9496C181.333 38.9496 181.041 39.0407 180.802 39.223C180.567 39.4053 180.386 39.6638 180.26 39.9986C180.134 40.3333 180.071 40.7277 180.071 41.1818ZM190.339 45.1491C189.553 45.1491 188.877 44.9901 188.311 44.6719C187.747 44.3504 187.313 43.8963 187.008 43.3097C186.703 42.7197 186.551 42.022 186.551 41.2166C186.551 40.4311 186.703 39.7417 187.008 39.1484C187.313 38.5552 187.742 38.0928 188.296 37.7614C188.852 37.4299 189.505 37.2642 190.254 37.2642C190.758 37.2642 191.227 37.3454 191.661 37.5078C192.099 37.6669 192.48 37.9072 192.805 38.2287C193.133 38.5502 193.388 38.9545 193.57 39.4418C193.753 39.9257 193.844 40.4924 193.844 41.142V41.7237H187.396V40.4112H191.85C191.85 40.1063 191.784 39.8362 191.651 39.6009C191.519 39.3655 191.335 39.1816 191.1 39.049C190.868 38.9131 190.597 38.8452 190.289 38.8452C189.968 38.8452 189.683 38.9197 189.434 39.0689C189.189 39.2147 188.997 39.4119 188.857 39.6605C188.718 39.9058 188.647 40.1792 188.644 40.4808V41.7287C188.644 42.1065 188.713 42.433 188.852 42.7081C188.995 42.9832 189.195 43.1953 189.454 43.3445C189.713 43.4936 190.019 43.5682 190.374 43.5682C190.609 43.5682 190.825 43.535 191.02 43.4688C191.216 43.4025 191.383 43.303 191.522 43.1705C191.661 43.0379 191.767 42.8755 191.84 42.6832L193.799 42.8125C193.7 43.2831 193.496 43.6941 193.188 44.0455C192.883 44.3935 192.488 44.6652 192.004 44.8608C191.524 45.053 190.969 45.1491 190.339 45.1491ZM195.226 45V37.3636H197.279V38.696H197.359C197.498 38.2221 197.732 37.8641 198.06 37.6222C198.388 37.3769 198.766 37.2543 199.193 37.2543C199.299 37.2543 199.414 37.2609 199.536 37.2741C199.659 37.2874 199.767 37.3056 199.86 37.3288V39.2081C199.76 39.1783 199.623 39.1518 199.447 39.1286C199.271 39.1054 199.11 39.0938 198.965 39.0938C198.653 39.0938 198.375 39.1617 198.129 39.2976C197.887 39.4302 197.695 39.6158 197.553 39.8544C197.414 40.093 197.344 40.3681 197.344 40.6797V45H195.226ZM204.175 45V43.4489L207.799 40.093C208.107 39.7947 208.366 39.5263 208.575 39.2876C208.787 39.049 208.948 38.8153 209.057 38.5866C209.166 38.3546 209.221 38.1044 209.221 37.8359C209.221 37.5376 209.153 37.2808 209.017 37.0653C208.881 36.8466 208.696 36.6792 208.46 36.5632C208.225 36.4439 207.958 36.3842 207.66 36.3842C207.348 36.3842 207.077 36.4472 206.845 36.5732C206.613 36.6991 206.434 36.8797 206.308 37.1151C206.182 37.3504 206.119 37.6304 206.119 37.9553H204.075C204.075 37.2891 204.226 36.7107 204.528 36.2202C204.829 35.7296 205.252 35.3501 205.796 35.0817C206.339 34.8132 206.966 34.679 207.675 34.679C208.404 34.679 209.039 34.8082 209.579 35.0668C210.123 35.322 210.545 35.6766 210.847 36.1307C211.148 36.5848 211.299 37.1051 211.299 37.6918C211.299 38.0762 211.223 38.4557 211.07 38.8303C210.921 39.2048 210.655 39.6207 210.27 40.0781C209.886 40.5322 209.344 41.0774 208.644 41.7138L207.158 43.1705V43.2401H211.433V45H204.175ZM216.985 45.2237C216.13 45.2204 215.395 45.0099 214.778 44.5923C214.165 44.1747 213.693 43.5698 213.361 42.7777C213.033 41.9856 212.871 41.0327 212.874 39.919C212.874 38.8087 213.038 37.8625 213.366 37.0803C213.698 36.2981 214.17 35.7031 214.783 35.2955C215.4 34.8845 216.134 34.679 216.985 34.679C217.837 34.679 218.57 34.8845 219.183 35.2955C219.799 35.7064 220.273 36.303 220.605 37.0852C220.936 37.8641 221.1 38.8087 221.097 39.919C221.097 41.036 220.931 41.9905 220.6 42.7827C220.272 43.5748 219.801 44.1797 219.188 44.5973C218.575 45.0149 217.841 45.2237 216.985 45.2237ZM216.985 43.4389C217.569 43.4389 218.034 43.1456 218.382 42.5589C218.73 41.9723 218.903 41.0923 218.9 39.919C218.9 39.1468 218.82 38.5038 218.661 37.9901C218.505 37.4763 218.283 37.0902 217.995 36.8317C217.71 36.5732 217.373 36.4439 216.985 36.4439C216.405 36.4439 215.941 36.7339 215.593 37.3139C215.245 37.8939 215.07 38.7623 215.066 39.919C215.066 40.7012 215.144 41.3542 215.3 41.8778C215.459 42.3982 215.683 42.7893 215.971 43.0511C216.26 43.3097 216.598 43.4389 216.985 43.4389ZM222.632 45V43.4489L226.256 40.093C226.564 39.7947 226.823 39.5263 227.032 39.2876C227.244 39.049 227.405 38.8153 227.514 38.5866C227.623 38.3546 227.678 38.1044 227.678 37.8359C227.678 37.5376 227.61 37.2808 227.474 37.0653C227.338 36.8466 227.153 36.6792 226.917 36.5632C226.682 36.4439 226.415 36.3842 226.117 36.3842C225.805 36.3842 225.534 36.4472 225.302 36.5732C225.07 36.6991 224.891 36.8797 224.765 37.1151C224.639 37.3504 224.576 37.6304 224.576 37.9553H222.532C222.532 37.2891 222.683 36.7107 222.985 36.2202C223.287 35.7296 223.709 35.3501 224.253 35.0817C224.796 34.8132 225.423 34.679 226.132 34.679C226.861 34.679 227.496 34.8082 228.036 35.0668C228.58 35.322 229.002 35.6766 229.304 36.1307C229.605 36.5848 229.756 37.1051 229.756 37.6918C229.756 38.0762 229.68 38.4557 229.528 38.8303C229.378 39.2048 229.112 39.6207 228.727 40.0781C228.343 40.5322 227.801 41.0774 227.101 41.7138L225.615 43.1705V43.2401H229.89V45H222.632ZM231.077 43.2102V41.5149L235.328 34.8182H236.79V37.1648H235.925L233.245 41.4055V41.4851H239.286V43.2102H231.077ZM235.964 45V42.6932L236.004 41.9425V34.8182H238.023V45H235.964Z" fill="#4A1FB8"/>
<path fill-rule="evenodd" clip-rule="evenodd" d="M340.646 33.646C340.692 33.5994 340.748 33.5625 340.808 33.5373C340.869 33.5121 340.934 33.4991 341 33.4991C341.066 33.4991 341.131 33.5121 341.192 33.5373C341.252 33.5625 341.307 33.5994 341.354 33.646L347.354 39.646C347.4 39.6924 347.437 39.7476 347.463 39.8083C347.488 39.8691 347.501 39.9342 347.501 40C347.501 40.0657 347.488 40.1309 347.463 40.1916C347.437 40.2524 347.4 40.3075 347.354 40.354L341.354 46.354C341.26 46.4479 341.133 46.5006 341 46.5006C340.867 46.5006 340.74 46.4479 340.646 46.354C340.552 46.2601 340.499 46.1328 340.499 46C340.499 45.8672 340.552 45.7399 340.646 45.646L346.293 40L340.646 34.354C340.599 34.3075 340.562 34.2524 340.537 34.1916C340.512 34.1309 340.499 34.0657 340.499 34C340.499 33.9342 340.512 33.8691 340.537 33.8083C340.562 33.7476 340.599 33.6924 340.646 33.646V33.646Z" fill="#4A1FB8"/>
<path d="M40.9084 85.7464C40.8686 85.3454 40.6979 85.0339 40.3963 84.8118C40.0947 84.5897 39.6854 84.4787 39.1683 84.4787C38.817 84.4787 38.5204 84.5284 38.2784 84.6278C38.0365 84.724 37.8509 84.8582 37.7216 85.0305C37.5956 85.2029 37.5327 85.3984 37.5327 85.6172C37.526 85.7995 37.5642 85.9586 37.647 86.0945C37.7332 86.2304 37.8509 86.348 38 86.4474C38.1491 86.5436 38.3215 86.6281 38.517 86.701C38.7126 86.7706 38.9214 86.8303 39.1435 86.88L40.0582 87.0987C40.5024 87.1982 40.91 87.3307 41.2812 87.4964C41.6525 87.6622 41.974 87.866 42.2457 88.108C42.5175 88.3499 42.728 88.6349 42.8771 88.9631C43.0296 89.2912 43.1075 89.6674 43.1108 90.0916C43.1075 90.7147 42.9484 91.255 42.6335 91.7124C42.322 92.1664 41.8712 92.5194 41.2812 92.7713C40.6946 93.0199 39.987 93.1442 39.1584 93.1442C38.3364 93.1442 37.6205 93.0182 37.0107 92.7663C36.4041 92.5144 35.9302 92.1416 35.5888 91.6477C35.2507 91.1506 35.0734 90.5357 35.0568 89.8033H37.1399C37.1631 90.1446 37.2609 90.4297 37.4332 90.6584C37.6089 90.8838 37.8426 91.0545 38.1342 91.1705C38.4292 91.2831 38.7623 91.3395 39.1335 91.3395C39.4981 91.3395 39.8146 91.2865 40.0831 91.1804C40.3549 91.0743 40.5653 90.9268 40.7145 90.7379C40.8636 90.549 40.9382 90.3319 40.9382 90.0866C40.9382 89.858 40.8703 89.6657 40.7344 89.5099C40.6018 89.3542 40.4063 89.2216 40.1477 89.1122C39.8925 89.0028 39.5793 88.9034 39.2081 88.8139L38.0994 88.5355C37.241 88.3267 36.5632 88.0002 36.0661 87.5561C35.5689 87.112 35.322 86.5137 35.3253 85.7614C35.322 85.1449 35.486 84.6063 35.8175 84.1456C36.1522 83.6849 36.6113 83.3253 37.1946 83.0668C37.7779 82.8082 38.4408 82.679 39.1832 82.679C39.9389 82.679 40.5985 82.8082 41.1619 83.0668C41.7287 83.3253 42.1695 83.6849 42.4844 84.1456C42.7992 84.6063 42.9616 85.1399 42.9716 85.7464H40.9084ZM49.416 89.7486V85.3636H51.5339V93H49.5005V91.6129H49.421C49.2486 92.0604 48.9619 92.42 48.5609 92.6918C48.1632 92.9635 47.6776 93.0994 47.1042 93.0994C46.5938 93.0994 46.1447 92.9834 45.7569 92.7514C45.3691 92.5194 45.0659 92.1896 44.8471 91.7621C44.6317 91.3345 44.5223 90.8224 44.519 90.2259V85.3636H46.6369V89.848C46.6402 90.2988 46.7612 90.6551 46.9998 90.9169C47.2385 91.1787 47.5583 91.3097 47.9593 91.3097C48.2145 91.3097 48.4532 91.2517 48.6752 91.1357C48.8973 91.0163 49.0763 90.8407 49.2122 90.6087C49.3514 90.3767 49.4193 90.09 49.416 89.7486ZM55.3459 88.5852V93H53.228V85.3636H55.2464V86.7109H55.3359C55.505 86.2668 55.7884 85.9155 56.1861 85.657C56.5838 85.3951 57.0661 85.2642 57.6328 85.2642C58.1631 85.2642 58.6255 85.3802 59.0199 85.6122C59.4143 85.8442 59.7209 86.1757 59.9396 86.6065C60.1584 87.0341 60.2678 87.5445 60.2678 88.1378V93H58.1499V88.5156C58.1532 88.0483 58.0339 87.6837 57.7919 87.4219C57.55 87.1567 57.2169 87.0241 56.7926 87.0241C56.5076 87.0241 56.2557 87.0855 56.0369 87.2081C55.8215 87.3307 55.6525 87.5097 55.5298 87.745C55.4105 87.977 55.3492 88.2571 55.3459 88.5852Z" fill="#1D2939"/>
<path d="M81.3849 82.8182H84.0398L86.8438 89.6591H86.9631L89.767 82.8182H92.4219V93H90.3338V86.3729H90.2493L87.6143 92.9503H86.1925L83.5575 86.348H83.473V93H81.3849V82.8182ZM97.606 93.1491C96.8337 93.1491 96.1659 92.9851 95.6025 92.657C95.0423 92.3255 94.6098 91.8648 94.3049 91.2749C93.9999 90.6816 93.8475 89.9938 93.8475 89.2116C93.8475 88.4228 93.9999 87.7334 94.3049 87.1435C94.6098 86.5502 95.0423 86.0895 95.6025 85.7614C96.1659 85.4299 96.8337 85.2642 97.606 85.2642C98.3783 85.2642 99.0444 85.4299 99.6046 85.7614C100.168 86.0895 100.602 86.5502 100.907 87.1435C101.212 87.7334 101.365 88.4228 101.365 89.2116C101.365 89.9938 101.212 90.6816 100.907 91.2749C100.602 91.8648 100.168 92.3255 99.6046 92.657C99.0444 92.9851 98.3783 93.1491 97.606 93.1491ZM97.6159 91.5085C97.9673 91.5085 98.2606 91.4091 98.4959 91.2102C98.7312 91.008 98.9086 90.733 99.0279 90.3849C99.1505 90.0369 99.2118 89.6409 99.2118 89.1967C99.2118 88.7526 99.1505 88.3565 99.0279 88.0085C98.9086 87.6605 98.7312 87.3854 98.4959 87.1832C98.2606 86.9811 97.9673 86.88 97.6159 86.88C97.2613 86.88 96.963 86.9811 96.7211 87.1832C96.4824 87.3854 96.3018 87.6605 96.1792 88.0085C96.0598 88.3565 96.0002 88.7526 96.0002 89.1967C96.0002 89.6409 96.0598 90.0369 96.1792 90.3849C96.3018 90.733 96.4824 91.008 96.7211 91.2102C96.963 91.4091 97.2613 91.5085 97.6159 91.5085ZM104.86 88.5852V93H102.742V85.3636H104.76V86.7109H104.85C105.019 86.2668 105.302 85.9155 105.7 85.657C106.097 85.3951 106.58 85.2642 107.146 85.2642C107.677 85.2642 108.139 85.3802 108.534 85.6122C108.928 85.8442 109.235 86.1757 109.453 86.6065C109.672 87.0341 109.781 87.5445 109.781 88.1378V93H107.664V88.5156C107.667 88.0483 107.548 87.6837 107.306 87.4219C107.064 87.1567 106.731 87.0241 106.306 87.0241C106.021 87.0241 105.769 87.0855 105.551 87.2081C105.335 87.3307 105.166 87.5097 105.044 87.745C104.924 87.977 104.863 88.2571 104.86 88.5852Z" fill="#1D2939"/>
<path d="M131.497 84.593V82.8182H139.859V84.593H136.742V93H134.614V84.593H131.497ZM145.055 89.7486V85.3636H147.173V93H145.139V91.6129H145.06C144.887 92.0604 144.601 92.42 144.2 92.6918C143.802 92.9635 143.316 93.0994 142.743 93.0994C142.232 93.0994 141.783 92.9834 141.396 92.7514C141.008 92.5194 140.705 92.1896 140.486 91.7621C140.27 91.3345 140.161 90.8224 140.158 90.2259V85.3636H142.276V89.848C142.279 90.2988 142.4 90.6551 142.638 90.9169C142.877 91.1787 143.197 91.3097 143.598 91.3097C143.853 91.3097 144.092 91.2517 144.314 91.1357C144.536 91.0163 144.715 90.8407 144.851 90.6087C144.99 90.3767 145.058 90.09 145.055 89.7486ZM152.347 93.1491C151.561 93.1491 150.885 92.9901 150.318 92.6719C149.755 92.3504 149.321 91.8963 149.016 91.3097C148.711 90.7197 148.558 90.022 148.558 89.2166C148.558 88.4311 148.711 87.7417 149.016 87.1484C149.321 86.5552 149.75 86.0928 150.303 85.7614C150.86 85.4299 151.513 85.2642 152.262 85.2642C152.766 85.2642 153.235 85.3454 153.669 85.5078C154.107 85.6669 154.488 85.9072 154.813 86.2287C155.141 86.5502 155.396 86.9545 155.578 87.4418C155.761 87.9257 155.852 88.4924 155.852 89.142V89.7237H149.404V88.4112H153.858C153.858 88.1063 153.792 87.8362 153.659 87.6009C153.527 87.3655 153.343 87.1816 153.107 87.049C152.875 86.9131 152.605 86.8452 152.297 86.8452C151.976 86.8452 151.691 86.9197 151.442 87.0689C151.197 87.2147 151.004 87.4119 150.865 87.6605C150.726 87.9058 150.655 88.1792 150.651 88.4808V89.7287C150.651 90.1065 150.721 90.433 150.86 90.7081C151.003 90.9832 151.203 91.1953 151.462 91.3445C151.72 91.4936 152.027 91.5682 152.382 91.5682C152.617 91.5682 152.832 91.535 153.028 91.4688C153.223 91.4025 153.391 91.303 153.53 91.1705C153.669 91.0379 153.775 90.8755 153.848 90.6832L155.807 90.8125C155.708 91.2831 155.504 91.6941 155.195 92.0455C154.891 92.3935 154.496 92.6652 154.012 92.8608C153.532 93.053 152.977 93.1491 152.347 93.1491Z" fill="#1D2939"/>
<path d="M179.677 93L176.763 82.8182H179.115L180.8 89.8928H180.885L182.744 82.8182H184.758L186.612 89.9077H186.702L188.387 82.8182H190.739L187.825 93H185.727L183.788 86.343H183.709L181.775 93H179.677ZM194.511 93.1491C193.725 93.1491 193.049 92.9901 192.482 92.6719C191.919 92.3504 191.485 91.8963 191.18 91.3097C190.875 90.7197 190.722 90.022 190.722 89.2166C190.722 88.4311 190.875 87.7417 191.18 87.1484C191.485 86.5552 191.914 86.0928 192.468 85.7614C193.024 85.4299 193.677 85.2642 194.426 85.2642C194.93 85.2642 195.399 85.3454 195.833 85.5078C196.271 85.6669 196.652 85.9072 196.977 86.2287C197.305 86.5502 197.56 86.9545 197.742 87.4418C197.925 87.9257 198.016 88.4924 198.016 89.142V89.7237H191.568V88.4112H196.022C196.022 88.1063 195.956 87.8362 195.823 87.6009C195.691 87.3655 195.507 87.1816 195.271 87.049C195.039 86.9131 194.769 86.8452 194.461 86.8452C194.14 86.8452 193.855 86.9197 193.606 87.0689C193.361 87.2147 193.169 87.4119 193.029 87.6605C192.89 87.9058 192.819 88.1792 192.816 88.4808V89.7287C192.816 90.1065 192.885 90.433 193.024 90.7081C193.167 90.9832 193.367 91.1953 193.626 91.3445C193.884 91.4936 194.191 91.5682 194.546 91.5682C194.781 91.5682 194.996 91.535 195.192 91.4688C195.387 91.4025 195.555 91.303 195.694 91.1705C195.833 91.0379 195.939 90.8755 196.012 90.6832L197.971 90.8125C197.872 91.2831 197.668 91.6941 197.36 92.0455C197.055 92.3935 196.66 92.6652 196.176 92.8608C195.696 93.053 195.141 93.1491 194.511 93.1491ZM202.212 93.1243C201.632 93.1243 201.106 92.9751 200.636 92.6768C200.169 92.3752 199.797 91.9328 199.522 91.3494C199.25 90.7628 199.115 90.0436 199.115 89.1918C199.115 88.3168 199.255 87.5893 199.537 87.0092C199.819 86.4259 200.193 85.9901 200.661 85.7017C201.131 85.41 201.647 85.2642 202.207 85.2642C202.634 85.2642 202.991 85.3371 203.276 85.483C203.564 85.6255 203.796 85.8045 203.972 86.0199C204.151 86.232 204.287 86.4408 204.379 86.6463H204.444V82.8182H206.557V93H204.469V91.777H204.379C204.28 91.9891 204.139 92.1996 203.957 92.4084C203.778 92.6139 203.544 92.7846 203.256 92.9205C202.971 93.0563 202.623 93.1243 202.212 93.1243ZM202.883 91.4389C203.224 91.4389 203.513 91.3461 203.748 91.1605C203.987 90.9716 204.169 90.7081 204.295 90.37C204.424 90.032 204.489 89.6359 204.489 89.1818C204.489 88.7277 204.426 88.3333 204.3 87.9986C204.174 87.6638 203.992 87.4053 203.753 87.223C203.514 87.0407 203.224 86.9496 202.883 86.9496C202.535 86.9496 202.242 87.044 202.003 87.233C201.764 87.4219 201.584 87.6837 201.461 88.0185C201.338 88.3532 201.277 88.741 201.277 89.1818C201.277 89.6259 201.338 90.0187 201.461 90.3601C201.587 90.6982 201.768 90.9633 202.003 91.1555C202.242 91.3445 202.535 91.4389 202.883 91.4389Z" fill="#1D2939"/>
<path d="M226.997 84.593V82.8182H235.359V84.593H232.242V93H230.114V84.593H226.997ZM238.815 88.5852V93H236.697V82.8182H238.755V86.7109H238.844C239.017 86.2602 239.295 85.9072 239.68 85.652C240.064 85.3935 240.546 85.2642 241.126 85.2642C241.657 85.2642 242.119 85.3802 242.513 85.6122C242.911 85.8409 243.219 86.1707 243.438 86.6016C243.66 87.0291 243.77 87.5412 243.766 88.1378V93H241.648V88.5156C241.652 88.045 241.532 87.6787 241.29 87.4169C241.052 87.1551 240.717 87.0241 240.286 87.0241C239.998 87.0241 239.743 87.0855 239.521 87.2081C239.302 87.3307 239.129 87.5097 239.004 87.745C238.881 87.977 238.818 88.2571 238.815 88.5852ZM250.33 89.7486V85.3636H252.448V93H250.415V91.6129H250.335C250.163 92.0604 249.876 92.42 249.475 92.6918C249.077 92.9635 248.592 93.0994 248.018 93.0994C247.508 93.0994 247.059 92.9834 246.671 92.7514C246.283 92.5194 245.98 92.1896 245.761 91.7621C245.546 91.3345 245.436 90.8224 245.433 90.2259V85.3636H247.551V89.848C247.554 90.2988 247.675 90.6551 247.914 90.9169C248.153 91.1787 248.472 91.3097 248.873 91.3097C249.129 91.3097 249.367 91.2517 249.589 91.1357C249.811 91.0163 249.99 90.8407 250.126 90.6087C250.265 90.3767 250.333 90.09 250.33 89.7486Z" fill="#1D2939"/>
<path d="M279.885 93V82.8182H286.626V84.593H282.038V87.0192H286.179V88.794H282.038V93H279.885ZM287.912 93V85.3636H289.965V86.696H290.044C290.184 86.2221 290.417 85.8641 290.745 85.6222C291.074 85.3769 291.451 85.2543 291.879 85.2543C291.985 85.2543 292.099 85.2609 292.222 85.2741C292.345 85.2874 292.452 85.3056 292.545 85.3288V87.2081C292.446 87.1783 292.308 87.1518 292.132 87.1286C291.957 87.1054 291.796 87.0938 291.65 87.0938C291.339 87.0938 291.06 87.1617 290.815 87.2976C290.573 87.4302 290.381 87.6158 290.238 87.8544C290.099 88.093 290.029 88.3681 290.029 88.6797V93H287.912ZM293.64 93V85.3636H295.758V93H293.64ZM294.704 84.3793C294.389 84.3793 294.119 84.2749 293.894 84.0661C293.672 83.8539 293.561 83.6004 293.561 83.3054C293.561 83.0137 293.672 82.7635 293.894 82.5547C294.119 82.3426 294.389 82.2365 294.704 82.2365C295.019 82.2365 295.287 82.3426 295.509 82.5547C295.735 82.7635 295.847 83.0137 295.847 83.3054C295.847 83.6004 295.735 83.8539 295.509 84.0661C295.287 84.2749 295.019 84.3793 294.704 84.3793Z" fill="#1D2939"/>
<path d="M330.908 85.7464C330.869 85.3454 330.698 85.0339 330.396 84.8118C330.095 84.5897 329.685 84.4787 329.168 84.4787C328.817 84.4787 328.52 84.5284 328.278 84.6278C328.036 84.724 327.851 84.8582 327.722 85.0305C327.596 85.2029 327.533 85.3984 327.533 85.6172C327.526 85.7995 327.564 85.9586 327.647 86.0945C327.733 86.2304 327.851 86.348 328 86.4474C328.149 86.5436 328.321 86.6281 328.517 86.701C328.713 86.7706 328.921 86.8303 329.143 86.88L330.058 87.0987C330.502 87.1982 330.91 87.3307 331.281 87.4964C331.652 87.6622 331.974 87.866 332.246 88.108C332.518 88.3499 332.728 88.6349 332.877 88.9631C333.03 89.2912 333.107 89.6674 333.111 90.0916C333.107 90.7147 332.948 91.255 332.634 91.7124C332.322 92.1664 331.871 92.5194 331.281 92.7713C330.695 93.0199 329.987 93.1442 329.158 93.1442C328.336 93.1442 327.621 93.0182 327.011 92.7663C326.404 92.5144 325.93 92.1416 325.589 91.6477C325.251 91.1506 325.073 90.5357 325.057 89.8033H327.14C327.163 90.1446 327.261 90.4297 327.433 90.6584C327.609 90.8838 327.843 91.0545 328.134 91.1705C328.429 91.2831 328.762 91.3395 329.134 91.3395C329.498 91.3395 329.815 91.2865 330.083 91.1804C330.355 91.0743 330.565 90.9268 330.714 90.7379C330.864 90.549 330.938 90.3319 330.938 90.0866C330.938 89.858 330.87 89.6657 330.734 89.5099C330.602 89.3542 330.406 89.2216 330.148 89.1122C329.893 89.0028 329.579 88.9034 329.208 88.8139L328.099 88.5355C327.241 88.3267 326.563 88.0002 326.066 87.5561C325.569 87.112 325.322 86.5137 325.325 85.7614C325.322 85.1449 325.486 84.6063 325.817 84.1456C326.152 83.6849 326.611 83.3253 327.195 83.0668C327.778 82.8082 328.441 82.679 329.183 82.679C329.939 82.679 330.598 82.8082 331.162 83.0668C331.729 83.3253 332.17 83.6849 332.484 84.1456C332.799 84.6063 332.962 85.1399 332.972 85.7464H330.908ZM336.697 93.1442C336.209 93.1442 335.775 93.0597 335.394 92.8906C335.013 92.7183 334.711 92.4647 334.489 92.13C334.27 91.7919 334.161 91.371 334.161 90.8672C334.161 90.4429 334.239 90.0866 334.395 89.7983C334.55 89.5099 334.763 89.2779 335.031 89.1023C335.3 88.9266 335.604 88.794 335.946 88.7045C336.291 88.6151 336.652 88.5521 337.03 88.5156C337.474 88.4692 337.832 88.4261 338.104 88.3864C338.375 88.3433 338.573 88.2803 338.695 88.1974C338.818 88.1146 338.879 87.992 338.879 87.8295V87.7997C338.879 87.4848 338.78 87.2412 338.581 87.0689C338.385 86.8965 338.107 86.8104 337.746 86.8104C337.364 86.8104 337.061 86.8949 336.836 87.0639C336.61 87.2296 336.461 87.4384 336.388 87.6903L334.43 87.5312C334.529 87.0672 334.724 86.6662 335.016 86.3281C335.308 85.9867 335.684 85.7249 336.145 85.5426C336.609 85.357 337.146 85.2642 337.756 85.2642C338.18 85.2642 338.586 85.3139 338.974 85.4134C339.365 85.5128 339.711 85.6669 340.013 85.8757C340.318 86.0845 340.558 86.353 340.733 86.6811C340.909 87.0059 340.997 87.3954 340.997 87.8494V93H338.988V91.9411H338.929C338.806 92.1797 338.642 92.3902 338.437 92.5724C338.231 92.7514 337.984 92.8923 337.696 92.995C337.407 93.0945 337.074 93.1442 336.697 93.1442ZM337.303 91.6825C337.615 91.6825 337.89 91.6212 338.128 91.4986C338.367 91.3726 338.554 91.2036 338.69 90.9915C338.826 90.7794 338.894 90.5391 338.894 90.2706V89.4602C338.828 89.5033 338.737 89.5431 338.621 89.5795C338.508 89.6127 338.38 89.6442 338.238 89.674C338.095 89.7005 337.953 89.7254 337.81 89.7486C337.668 89.7685 337.538 89.7867 337.422 89.8033C337.174 89.8397 336.957 89.8977 336.771 89.9773C336.586 90.0568 336.441 90.1645 336.339 90.3004C336.236 90.433 336.184 90.5987 336.184 90.7976C336.184 91.0859 336.289 91.3063 336.498 91.4588C336.71 91.608 336.978 91.6825 337.303 91.6825ZM346.702 85.3636V86.9545H342.103V85.3636H346.702ZM343.147 83.5341H345.265V90.6534C345.265 90.849 345.295 91.0014 345.355 91.1108C345.414 91.2169 345.497 91.2914 345.603 91.3345C345.713 91.3776 345.838 91.3991 345.981 91.3991C346.08 91.3991 346.18 91.3909 346.279 91.3743C346.379 91.3544 346.455 91.3395 346.508 91.3295L346.841 92.9055C346.735 92.9387 346.586 92.9768 346.394 93.0199C346.201 93.0663 345.968 93.0945 345.693 93.1044C345.182 93.1243 344.735 93.0563 344.35 92.9006C343.969 92.7448 343.673 92.5028 343.46 92.1747C343.248 91.8466 343.144 91.4323 343.147 90.9318V83.5341Z" fill="#1D2939"/>
<path d="M145.295 122.364V134H143.886V123.841H143.818L140.977 125.727V124.295L143.886 122.364H145.295Z" fill="#1D2939"/>
<path d="M188.205 134V132.977L192.045 128.773C192.496 128.28 192.867 127.852 193.159 127.489C193.451 127.121 193.667 126.777 193.807 126.455C193.951 126.129 194.023 125.788 194.023 125.432C194.023 125.023 193.924 124.669 193.727 124.369C193.534 124.07 193.269 123.839 192.932 123.676C192.595 123.513 192.216 123.432 191.795 123.432C191.348 123.432 190.958 123.525 190.625 123.71C190.295 123.892 190.04 124.148 189.858 124.477C189.68 124.807 189.591 125.193 189.591 125.636H188.25C188.25 124.955 188.407 124.356 188.722 123.841C189.036 123.326 189.464 122.924 190.006 122.636C190.551 122.348 191.163 122.205 191.841 122.205C192.523 122.205 193.127 122.348 193.653 122.636C194.18 122.924 194.593 123.312 194.892 123.801C195.191 124.29 195.341 124.833 195.341 125.432C195.341 125.86 195.263 126.278 195.108 126.688C194.956 127.093 194.691 127.545 194.312 128.045C193.938 128.542 193.417 129.148 192.75 129.864L190.136 132.659V132.75H195.545V134H188.205Z" fill="#1D2939"/>
<path d="M239.636 134.159C238.886 134.159 238.218 134.03 237.631 133.773C237.047 133.515 236.583 133.157 236.239 132.699C235.898 132.237 235.712 131.701 235.682 131.091H237.114C237.144 131.466 237.273 131.79 237.5 132.062C237.727 132.331 238.025 132.54 238.392 132.688C238.759 132.835 239.167 132.909 239.614 132.909C240.114 132.909 240.557 132.822 240.943 132.648C241.33 132.473 241.633 132.231 241.852 131.92C242.072 131.61 242.182 131.25 242.182 130.841C242.182 130.413 242.076 130.036 241.864 129.71C241.652 129.381 241.341 129.123 240.932 128.938C240.523 128.752 240.023 128.659 239.432 128.659H238.5V127.409H239.432C239.894 127.409 240.299 127.326 240.648 127.159C241 126.992 241.275 126.758 241.472 126.455C241.672 126.152 241.773 125.795 241.773 125.386C241.773 124.992 241.686 124.65 241.511 124.358C241.337 124.066 241.091 123.839 240.773 123.676C240.458 123.513 240.087 123.432 239.659 123.432C239.258 123.432 238.879 123.506 238.523 123.653C238.17 123.797 237.883 124.008 237.659 124.284C237.436 124.557 237.314 124.886 237.295 125.273H235.932C235.955 124.663 236.138 124.129 236.483 123.67C236.828 123.208 237.278 122.848 237.835 122.591C238.396 122.333 239.011 122.205 239.682 122.205C240.402 122.205 241.019 122.35 241.534 122.642C242.049 122.93 242.445 123.311 242.722 123.784C242.998 124.258 243.136 124.769 243.136 125.318C243.136 125.973 242.964 126.532 242.619 126.994C242.278 127.456 241.814 127.777 241.227 127.955V128.045C241.962 128.167 242.536 128.479 242.949 128.983C243.362 129.483 243.568 130.102 243.568 130.841C243.568 131.473 243.396 132.042 243.051 132.545C242.71 133.045 242.244 133.439 241.653 133.727C241.063 134.015 240.39 134.159 239.636 134.159Z" fill="#1D2939"/>
<path d="M283.432 131.614V130.455L288.545 122.364H289.386V124.159H288.818L284.955 130.273V130.364H291.841V131.614H283.432ZM288.909 134V131.261V130.722V122.364H290.25V134H288.909Z" fill="#1D2939"/>
<path d="M335.841 134.159C335.174 134.159 334.574 134.027 334.04 133.761C333.506 133.496 333.078 133.133 332.756 132.67C332.434 132.208 332.258 131.682 332.227 131.091H333.591C333.644 131.617 333.883 132.053 334.307 132.398C334.735 132.739 335.246 132.909 335.841 132.909C336.318 132.909 336.742 132.797 337.114 132.574C337.489 132.35 337.782 132.044 337.994 131.653C338.21 131.259 338.318 130.814 338.318 130.318C338.318 129.811 338.206 129.358 337.983 128.96C337.763 128.559 337.46 128.242 337.074 128.011C336.688 127.78 336.246 127.663 335.75 127.659C335.394 127.655 335.028 127.71 334.653 127.824C334.278 127.934 333.97 128.076 333.727 128.25L332.409 128.091L333.114 122.364H339.159V123.614H334.295L333.886 127.045H333.955C334.193 126.856 334.492 126.699 334.852 126.574C335.212 126.449 335.587 126.386 335.977 126.386C336.689 126.386 337.324 126.557 337.881 126.898C338.441 127.235 338.881 127.697 339.199 128.284C339.521 128.871 339.682 129.542 339.682 130.295C339.682 131.038 339.515 131.701 339.182 132.284C338.852 132.864 338.398 133.322 337.818 133.659C337.239 133.992 336.58 134.159 335.841 134.159Z" fill="#1D2939"/>
<path d="M48.0682 182.159C47.5909 182.152 47.1136 182.061 46.6364 181.886C46.1591 181.712 45.7235 181.419 45.3295 181.006C44.9356 180.589 44.6193 180.027 44.3807 179.318C44.142 178.606 44.0227 177.712 44.0227 176.636C44.0227 175.606 44.1193 174.693 44.3125 173.898C44.5057 173.098 44.786 172.426 45.1534 171.881C45.5208 171.331 45.964 170.915 46.483 170.631C47.0057 170.347 47.5947 170.205 48.25 170.205C48.9015 170.205 49.4811 170.335 49.9886 170.597C50.5 170.854 50.9167 171.214 51.2386 171.676C51.5606 172.138 51.7689 172.67 51.8636 173.273H50.4773C50.3485 172.75 50.0985 172.316 49.7273 171.972C49.3561 171.627 48.8636 171.455 48.25 171.455C47.3485 171.455 46.6383 171.847 46.1193 172.631C45.6042 173.415 45.3447 174.515 45.3409 175.932H45.4318C45.6439 175.61 45.8958 175.335 46.1875 175.108C46.483 174.877 46.8087 174.699 47.1648 174.574C47.5208 174.449 47.8977 174.386 48.2955 174.386C48.9621 174.386 49.572 174.553 50.125 174.886C50.678 175.216 51.1212 175.672 51.4545 176.256C51.7879 176.835 51.9545 177.5 51.9545 178.25C51.9545 178.97 51.7936 179.629 51.4716 180.227C51.1496 180.822 50.697 181.295 50.1136 181.648C49.5341 181.996 48.8523 182.167 48.0682 182.159ZM48.0682 180.909C48.5455 180.909 48.9735 180.79 49.3523 180.551C49.7348 180.312 50.036 179.992 50.2557 179.591C50.4792 179.189 50.5909 178.742 50.5909 178.25C50.5909 177.769 50.483 177.331 50.267 176.938C50.0549 176.54 49.7614 176.223 49.3864 175.989C49.0152 175.754 48.5909 175.636 48.1136 175.636C47.7538 175.636 47.4186 175.708 47.108 175.852C46.7973 175.992 46.5246 176.186 46.2898 176.432C46.0587 176.678 45.8769 176.96 45.7443 177.278C45.6117 177.593 45.5455 177.924 45.5455 178.273C45.5455 178.735 45.6534 179.167 45.8693 179.568C46.089 179.97 46.3883 180.294 46.767 180.54C47.1496 180.786 47.5833 180.909 48.0682 180.909Z" fill="#1D2939"/>
<path d="M92.5682 182L97.7727 171.705V171.614H91.7727V170.364H99.2273V171.682L94.0455 182H92.5682Z" fill="#1D2939"/>
<path d="M143.932 182.159C143.152 182.159 142.462 182.021 141.864 181.744C141.269 181.464 140.805 181.08 140.472 180.591C140.138 180.098 139.973 179.538 139.977 178.909C139.973 178.417 140.07 177.962 140.267 177.545C140.464 177.125 140.733 176.775 141.074 176.494C141.419 176.21 141.803 176.03 142.227 175.955V175.886C141.67 175.742 141.227 175.43 140.898 174.949C140.568 174.464 140.405 173.913 140.409 173.295C140.405 172.705 140.555 172.176 140.858 171.71C141.161 171.244 141.578 170.877 142.108 170.608C142.642 170.339 143.25 170.205 143.932 170.205C144.606 170.205 145.208 170.339 145.739 170.608C146.269 170.877 146.686 171.244 146.989 171.71C147.295 172.176 147.451 172.705 147.455 173.295C147.451 173.913 147.282 174.464 146.949 174.949C146.619 175.43 146.182 175.742 145.636 175.886V175.955C146.057 176.03 146.436 176.21 146.773 176.494C147.11 176.775 147.379 177.125 147.58 177.545C147.78 177.962 147.883 178.417 147.886 178.909C147.883 179.538 147.712 180.098 147.375 180.591C147.042 181.08 146.578 181.464 145.983 181.744C145.392 182.021 144.708 182.159 143.932 182.159ZM143.932 180.909C144.458 180.909 144.913 180.824 145.295 180.653C145.678 180.483 145.973 180.242 146.182 179.932C146.39 179.621 146.496 179.258 146.5 178.841C146.496 178.402 146.383 178.013 146.159 177.676C145.936 177.339 145.631 177.074 145.244 176.881C144.862 176.687 144.424 176.591 143.932 176.591C143.436 176.591 142.992 176.687 142.602 176.881C142.216 177.074 141.911 177.339 141.688 177.676C141.468 178.013 141.36 178.402 141.364 178.841C141.36 179.258 141.46 179.621 141.665 179.932C141.873 180.242 142.17 180.483 142.557 180.653C142.943 180.824 143.402 180.909 143.932 180.909ZM143.932 175.386C144.348 175.386 144.718 175.303 145.04 175.136C145.366 174.97 145.621 174.737 145.807 174.438C145.992 174.138 146.087 173.788 146.091 173.386C146.087 172.992 145.994 172.65 145.812 172.358C145.631 172.062 145.379 171.835 145.057 171.676C144.735 171.513 144.36 171.432 143.932 171.432C143.496 171.432 143.116 171.513 142.79 171.676C142.464 171.835 142.212 172.062 142.034 172.358C141.856 172.65 141.769 172.992 141.773 173.386C141.769 173.788 141.858 174.138 142.04 174.438C142.225 174.737 142.481 174.97 142.807 175.136C143.133 175.303 143.508 175.386 143.932 175.386Z" fill="#1D2939"/>
<rect x="169" y="153" width="46" height="46" rx="3" fill="#491DB6"/>
<rect x="169" y="153" width="46" height="46" rx="3" stroke="#491DB6" stroke-width="2"/>
<path d="M191.909 170.205C192.386 170.208 192.864 170.299 193.341 170.477C193.818 170.655 194.254 170.951 194.648 171.364C195.042 171.773 195.358 172.331 195.597 173.04C195.835 173.748 195.955 174.636 195.955 175.705C195.955 176.739 195.856 177.657 195.659 178.46C195.466 179.259 195.186 179.934 194.818 180.483C194.455 181.032 194.011 181.449 193.489 181.733C192.97 182.017 192.383 182.159 191.727 182.159C191.076 182.159 190.494 182.03 189.983 181.773C189.475 181.511 189.059 181.15 188.733 180.688C188.411 180.222 188.205 179.682 188.114 179.068H189.5C189.625 179.602 189.873 180.044 190.244 180.392C190.619 180.737 191.114 180.909 191.727 180.909C192.625 180.909 193.333 180.517 193.852 179.733C194.375 178.949 194.636 177.841 194.636 176.409H194.545C194.333 176.727 194.081 177.002 193.79 177.233C193.498 177.464 193.174 177.642 192.818 177.767C192.462 177.892 192.083 177.955 191.682 177.955C191.015 177.955 190.403 177.79 189.847 177.46C189.294 177.127 188.85 176.67 188.517 176.091C188.188 175.508 188.023 174.841 188.023 174.091C188.023 173.379 188.182 172.727 188.5 172.136C188.822 171.542 189.273 171.068 189.852 170.716C190.436 170.364 191.121 170.193 191.909 170.205ZM191.909 171.455C191.432 171.455 191.002 171.574 190.619 171.812C190.241 172.047 189.939 172.366 189.716 172.767C189.496 173.165 189.386 173.606 189.386 174.091C189.386 174.576 189.492 175.017 189.705 175.415C189.92 175.809 190.214 176.123 190.585 176.358C190.96 176.589 191.386 176.705 191.864 176.705C192.223 176.705 192.559 176.634 192.869 176.494C193.18 176.35 193.451 176.155 193.682 175.909C193.917 175.659 194.1 175.377 194.233 175.062C194.366 174.744 194.432 174.413 194.432 174.068C194.432 173.614 194.322 173.187 194.102 172.79C193.886 172.392 193.587 172.07 193.205 171.824C192.826 171.578 192.394 171.455 191.909 171.455Z" fill="white"/>
<rect width="48" height="48" transform="translate(216 152)" fill="#ECE6FB"/>
<path d="M236.295 170.364V182H234.886V171.841H234.818L231.977 173.727V172.295L234.886 170.364H236.295ZM243.438 182.159C242.581 182.159 241.852 181.926 241.25 181.46C240.648 180.991 240.188 180.311 239.869 179.42C239.551 178.527 239.392 177.447 239.392 176.182C239.392 174.924 239.551 173.85 239.869 172.96C240.191 172.066 240.653 171.384 241.256 170.915C241.862 170.441 242.589 170.205 243.438 170.205C244.286 170.205 245.011 170.441 245.614 170.915C246.22 171.384 246.682 172.066 247 172.96C247.322 173.85 247.483 174.924 247.483 176.182C247.483 177.447 247.324 178.527 247.006 179.42C246.688 180.311 246.227 180.991 245.625 181.46C245.023 181.926 244.294 182.159 243.438 182.159ZM243.438 180.909C244.286 180.909 244.945 180.5 245.415 179.682C245.884 178.864 246.119 177.697 246.119 176.182C246.119 175.174 246.011 174.316 245.795 173.608C245.583 172.9 245.277 172.36 244.875 171.989C244.477 171.617 243.998 171.432 243.438 171.432C242.597 171.432 241.939 171.847 241.466 172.676C240.992 173.502 240.756 174.67 240.756 176.182C240.756 177.189 240.862 178.045 241.074 178.75C241.286 179.455 241.591 179.991 241.989 180.358C242.39 180.725 242.873 180.909 243.438 180.909Z" fill="#1D2939"/>
<rect width="48" height="48" transform="translate(264 152)" fill="#ECE6FB"/>
<path d="M285.795 170.364V182H284.386V171.841H284.318L281.477 173.727V172.295L284.386 170.364H285.795ZM293.233 170.364V182H291.824V171.841H291.756L288.915 173.727V172.295L291.824 170.364H293.233Z" fill="#1D2939"/>
<rect width="48" height="48" transform="translate(312 152)" fill="#ECE6FB"/>
<path d="M332.295 170.364V182H330.886V171.841H330.818L327.977 173.727V172.295L330.886 170.364H332.295ZM335.642 182V180.977L339.483 176.773C339.934 176.28 340.305 175.852 340.597 175.489C340.888 175.121 341.104 174.777 341.244 174.455C341.388 174.129 341.46 173.788 341.46 173.432C341.46 173.023 341.362 172.669 341.165 172.369C340.972 172.07 340.706 171.839 340.369 171.676C340.032 171.513 339.653 171.432 339.233 171.432C338.786 171.432 338.396 171.525 338.062 171.71C337.733 171.892 337.477 172.148 337.295 172.477C337.117 172.807 337.028 173.193 337.028 173.636H335.688C335.688 172.955 335.845 172.356 336.159 171.841C336.473 171.326 336.902 170.924 337.443 170.636C337.989 170.348 338.6 170.205 339.278 170.205C339.96 170.205 340.564 170.348 341.091 170.636C341.617 170.924 342.03 171.312 342.33 171.801C342.629 172.29 342.778 172.833 342.778 173.432C342.778 173.86 342.701 174.278 342.545 174.688C342.394 175.093 342.129 175.545 341.75 176.045C341.375 176.542 340.854 177.148 340.188 177.864L337.574 180.659V180.75H342.983V182H335.642Z" fill="#1D2939"/>
<rect width="48" height="48" transform="translate(24 200)" fill="#ECE6FB"/>
<path d="M44.2955 218.364V230H42.8864V219.841H42.8182L39.9773 221.727V220.295L42.8864 218.364H44.2955ZM51.5739 230.159C50.8239 230.159 50.1553 230.03 49.5682 229.773C48.9848 229.515 48.5208 229.157 48.1761 228.699C47.8352 228.237 47.6496 227.701 47.6193 227.091H49.0511C49.0814 227.466 49.2102 227.79 49.4375 228.062C49.6648 228.331 49.9621 228.54 50.3295 228.688C50.697 228.835 51.1042 228.909 51.5511 228.909C52.0511 228.909 52.4943 228.822 52.8807 228.648C53.267 228.473 53.5701 228.231 53.7898 227.92C54.0095 227.61 54.1193 227.25 54.1193 226.841C54.1193 226.413 54.0133 226.036 53.8011 225.71C53.589 225.381 53.2784 225.123 52.8693 224.938C52.4602 224.752 51.9602 224.659 51.3693 224.659H50.4375V223.409H51.3693C51.8314 223.409 52.2367 223.326 52.5852 223.159C52.9375 222.992 53.2121 222.758 53.4091 222.455C53.6098 222.152 53.7102 221.795 53.7102 221.386C53.7102 220.992 53.6231 220.65 53.4489 220.358C53.2746 220.066 53.0284 219.839 52.7102 219.676C52.3958 219.513 52.0246 219.432 51.5966 219.432C51.1951 219.432 50.8163 219.506 50.4602 219.653C50.108 219.797 49.8201 220.008 49.5966 220.284C49.3731 220.557 49.2519 220.886 49.233 221.273H47.8693C47.892 220.663 48.0758 220.129 48.4205 219.67C48.7652 219.208 49.2159 218.848 49.7727 218.591C50.3333 218.333 50.9489 218.205 51.6193 218.205C52.339 218.205 52.9564 218.35 53.4716 218.642C53.9867 218.93 54.3826 219.311 54.6591 219.784C54.9356 220.258 55.0739 220.769 55.0739 221.318C55.0739 221.973 54.9015 222.532 54.5568 222.994C54.2159 223.456 53.7519 223.777 53.1648 223.955V224.045C53.8996 224.167 54.4735 224.479 54.8864 224.983C55.2992 225.483 55.5057 226.102 55.5057 226.841C55.5057 227.473 55.3333 228.042 54.9886 228.545C54.6477 229.045 54.1818 229.439 53.5909 229.727C53 230.015 52.3277 230.159 51.5739 230.159Z" fill="#1D2939"/>
<rect width="48" height="48" transform="translate(72 200)" fill="#ECE6FB"/>
<path d="M92.2955 218.364V230H90.8864V219.841H90.8182L87.9773 221.727V220.295L90.8864 218.364H92.2955ZM95.3693 227.614V226.455L100.483 218.364H101.324V220.159H100.756L96.892 226.273V226.364H103.778V227.614H95.3693ZM100.847 230V227.261V226.722V218.364H102.188V230H100.847Z" fill="#1D2939"/>
<rect x="121" y="201" width="46" height="46" rx="3" fill="#491DB6"/>
<rect x="121" y="201" width="46" height="46" rx="3" stroke="#491DB6" stroke-width="2"/>
<path d="M140.295 218.364V230H138.886V219.841H138.818L135.977 221.727V220.295L138.886 218.364H140.295ZM147.278 230.159C146.612 230.159 146.011 230.027 145.477 229.761C144.943 229.496 144.515 229.133 144.193 228.67C143.871 228.208 143.695 227.682 143.665 227.091H145.028C145.081 227.617 145.32 228.053 145.744 228.398C146.172 228.739 146.684 228.909 147.278 228.909C147.756 228.909 148.18 228.797 148.551 228.574C148.926 228.35 149.22 228.044 149.432 227.653C149.648 227.259 149.756 226.814 149.756 226.318C149.756 225.811 149.644 225.358 149.42 224.96C149.201 224.559 148.898 224.242 148.511 224.011C148.125 223.78 147.684 223.663 147.188 223.659C146.831 223.655 146.466 223.71 146.091 223.824C145.716 223.934 145.407 224.076 145.165 224.25L143.847 224.091L144.551 218.364H150.597V219.614H145.733L145.324 223.045H145.392C145.631 222.856 145.93 222.699 146.29 222.574C146.65 222.449 147.025 222.386 147.415 222.386C148.127 222.386 148.761 222.557 149.318 222.898C149.879 223.235 150.318 223.697 150.636 224.284C150.958 224.871 151.119 225.542 151.119 226.295C151.119 227.038 150.953 227.701 150.619 228.284C150.29 228.864 149.835 229.322 149.256 229.659C148.676 229.992 148.017 230.159 147.278 230.159Z" fill="white"/>
<path d="M188.295 218.364V230H186.886V219.841H186.818L183.977 221.727V220.295L186.886 218.364H188.295ZM195.506 230.159C195.028 230.152 194.551 230.061 194.074 229.886C193.597 229.712 193.161 229.419 192.767 229.006C192.373 228.589 192.057 228.027 191.818 227.318C191.58 226.606 191.46 225.712 191.46 224.636C191.46 223.606 191.557 222.693 191.75 221.898C191.943 221.098 192.223 220.426 192.591 219.881C192.958 219.331 193.402 218.915 193.92 218.631C194.443 218.347 195.032 218.205 195.688 218.205C196.339 218.205 196.919 218.335 197.426 218.597C197.938 218.854 198.354 219.214 198.676 219.676C198.998 220.138 199.206 220.67 199.301 221.273H197.915C197.786 220.75 197.536 220.316 197.165 219.972C196.794 219.627 196.301 219.455 195.688 219.455C194.786 219.455 194.076 219.847 193.557 220.631C193.042 221.415 192.782 222.515 192.778 223.932H192.869C193.081 223.61 193.333 223.335 193.625 223.108C193.92 222.877 194.246 222.699 194.602 222.574C194.958 222.449 195.335 222.386 195.733 222.386C196.4 222.386 197.009 222.553 197.562 222.886C198.116 223.216 198.559 223.672 198.892 224.256C199.225 224.835 199.392 225.5 199.392 226.25C199.392 226.97 199.231 227.629 198.909 228.227C198.587 228.822 198.134 229.295 197.551 229.648C196.972 229.996 196.29 230.167 195.506 230.159ZM195.506 228.909C195.983 228.909 196.411 228.79 196.79 228.551C197.172 228.312 197.473 227.992 197.693 227.591C197.917 227.189 198.028 226.742 198.028 226.25C198.028 225.769 197.92 225.331 197.705 224.938C197.492 224.54 197.199 224.223 196.824 223.989C196.453 223.754 196.028 223.636 195.551 223.636C195.191 223.636 194.856 223.708 194.545 223.852C194.235 223.992 193.962 224.186 193.727 224.432C193.496 224.678 193.314 224.96 193.182 225.278C193.049 225.593 192.983 225.924 192.983 226.273C192.983 226.735 193.091 227.167 193.307 227.568C193.527 227.97 193.826 228.294 194.205 228.54C194.587 228.786 195.021 228.909 195.506 228.909Z" fill="#1D2939"/>
<path d="M236.795 218.364V230H235.386V219.841H235.318L232.477 221.727V220.295L235.386 218.364H236.795ZM240.506 230L245.71 219.705V219.614H239.71V218.364H247.165V219.682L241.983 230H240.506Z" fill="#1D2939"/>
<path d="M284.295 218.364V230H282.886V219.841H282.818L279.977 221.727V220.295L282.886 218.364H284.295ZM291.369 230.159C290.589 230.159 289.9 230.021 289.301 229.744C288.706 229.464 288.242 229.08 287.909 228.591C287.576 228.098 287.411 227.538 287.415 226.909C287.411 226.417 287.508 225.962 287.705 225.545C287.902 225.125 288.17 224.775 288.511 224.494C288.856 224.21 289.241 224.03 289.665 223.955V223.886C289.108 223.742 288.665 223.43 288.335 222.949C288.006 222.464 287.843 221.913 287.847 221.295C287.843 220.705 287.992 220.176 288.295 219.71C288.598 219.244 289.015 218.877 289.545 218.608C290.08 218.339 290.688 218.205 291.369 218.205C292.044 218.205 292.646 218.339 293.176 218.608C293.706 218.877 294.123 219.244 294.426 219.71C294.733 220.176 294.888 220.705 294.892 221.295C294.888 221.913 294.72 222.464 294.386 222.949C294.057 223.43 293.619 223.742 293.074 223.886V223.955C293.494 224.03 293.873 224.21 294.21 224.494C294.547 224.775 294.816 225.125 295.017 225.545C295.218 225.962 295.32 226.417 295.324 226.909C295.32 227.538 295.15 228.098 294.812 228.591C294.479 229.08 294.015 229.464 293.42 229.744C292.83 230.021 292.146 230.159 291.369 230.159ZM291.369 228.909C291.896 228.909 292.35 228.824 292.733 228.653C293.116 228.483 293.411 228.242 293.619 227.932C293.828 227.621 293.934 227.258 293.938 226.841C293.934 226.402 293.82 226.013 293.597 225.676C293.373 225.339 293.068 225.074 292.682 224.881C292.299 224.687 291.862 224.591 291.369 224.591C290.873 224.591 290.43 224.687 290.04 224.881C289.653 225.074 289.348 225.339 289.125 225.676C288.905 226.013 288.797 226.402 288.801 226.841C288.797 227.258 288.898 227.621 289.102 227.932C289.311 228.242 289.608 228.483 289.994 228.653C290.381 228.824 290.839 228.909 291.369 228.909ZM291.369 223.386C291.786 223.386 292.155 223.303 292.477 223.136C292.803 222.97 293.059 222.737 293.244 222.438C293.43 222.138 293.525 221.788 293.528 221.386C293.525 220.992 293.432 220.65 293.25 220.358C293.068 220.062 292.816 219.835 292.494 219.676C292.172 219.513 291.797 219.432 291.369 219.432C290.934 219.432 290.553 219.513 290.227 219.676C289.902 219.835 289.65 220.062 289.472 220.358C289.294 220.65 289.206 220.992 289.21 221.386C289.206 221.788 289.295 222.138 289.477 222.438C289.663 222.737 289.919 222.97 290.244 223.136C290.57 223.303 290.945 223.386 291.369 223.386Z" fill="#1D2939"/>
<path d="M332.295 218.364V230H330.886V219.841H330.818L327.977 221.727V220.295L330.886 218.364H332.295ZM339.347 218.205C339.824 218.208 340.301 218.299 340.778 218.477C341.256 218.655 341.691 218.951 342.085 219.364C342.479 219.773 342.795 220.331 343.034 221.04C343.273 221.748 343.392 222.636 343.392 223.705C343.392 224.739 343.294 225.657 343.097 226.46C342.903 227.259 342.623 227.934 342.256 228.483C341.892 229.032 341.449 229.449 340.926 229.733C340.407 230.017 339.82 230.159 339.165 230.159C338.513 230.159 337.932 230.03 337.42 229.773C336.913 229.511 336.496 229.15 336.17 228.688C335.848 228.222 335.642 227.682 335.551 227.068H336.938C337.062 227.602 337.311 228.044 337.682 228.392C338.057 228.737 338.551 228.909 339.165 228.909C340.063 228.909 340.771 228.517 341.29 227.733C341.813 226.949 342.074 225.841 342.074 224.409H341.983C341.771 224.727 341.519 225.002 341.227 225.233C340.936 225.464 340.612 225.642 340.256 225.767C339.9 225.892 339.521 225.955 339.119 225.955C338.453 225.955 337.841 225.79 337.284 225.46C336.731 225.127 336.288 224.67 335.955 224.091C335.625 223.508 335.46 222.841 335.46 222.091C335.46 221.379 335.619 220.727 335.938 220.136C336.259 219.542 336.71 219.068 337.29 218.716C337.873 218.364 338.559 218.193 339.347 218.205ZM339.347 219.455C338.869 219.455 338.439 219.574 338.057 219.812C337.678 220.047 337.377 220.366 337.153 220.767C336.934 221.165 336.824 221.606 336.824 222.091C336.824 222.576 336.93 223.017 337.142 223.415C337.358 223.809 337.652 224.123 338.023 224.358C338.398 224.589 338.824 224.705 339.301 224.705C339.661 224.705 339.996 224.634 340.307 224.494C340.617 224.35 340.888 224.155 341.119 223.909C341.354 223.659 341.538 223.377 341.67 223.062C341.803 222.744 341.869 222.413 341.869 222.068C341.869 221.614 341.759 221.187 341.54 220.79C341.324 220.392 341.025 220.07 340.642 219.824C340.263 219.578 339.831 219.455 339.347 219.455Z" fill="#1D2939"/>
<path d="M39.2045 278V276.977L43.0455 272.773C43.4962 272.28 43.8674 271.852 44.1591 271.489C44.4508 271.121 44.6667 270.777 44.8068 270.455C44.9508 270.129 45.0227 269.788 45.0227 269.432C45.0227 269.023 44.9242 268.669 44.7273 268.369C44.5341 268.07 44.2689 267.839 43.9318 267.676C43.5947 267.513 43.2159 267.432 42.7955 267.432C42.3485 267.432 41.9583 267.525 41.625 267.71C41.2955 267.892 41.0398 268.148 40.858 268.477C40.6799 268.807 40.5909 269.193 40.5909 269.636H39.25C39.25 268.955 39.4072 268.356 39.7216 267.841C40.036 267.326 40.464 266.924 41.0057 266.636C41.5511 266.348 42.1629 266.205 42.8409 266.205C43.5227 266.205 44.1269 266.348 44.6534 266.636C45.1799 266.924 45.5928 267.312 45.892 267.801C46.1913 268.29 46.3409 268.833 46.3409 269.432C46.3409 269.86 46.2633 270.278 46.108 270.688C45.9564 271.093 45.6913 271.545 45.3125 272.045C44.9375 272.542 44.4167 273.148 43.75 273.864L41.1364 276.659V276.75H46.5455V278H39.2045ZM52.6875 278.159C51.8314 278.159 51.1023 277.926 50.5 277.46C49.8977 276.991 49.4375 276.311 49.1193 275.42C48.8011 274.527 48.642 273.447 48.642 272.182C48.642 270.924 48.8011 269.85 49.1193 268.96C49.4413 268.066 49.9034 267.384 50.5057 266.915C51.1117 266.441 51.839 266.205 52.6875 266.205C53.536 266.205 54.2614 266.441 54.8636 266.915C55.4697 267.384 55.9318 268.066 56.25 268.96C56.572 269.85 56.733 270.924 56.733 272.182C56.733 273.447 56.5739 274.527 56.2557 275.42C55.9375 276.311 55.4773 276.991 54.875 277.46C54.2727 277.926 53.5436 278.159 52.6875 278.159ZM52.6875 276.909C53.536 276.909 54.1951 276.5 54.6648 275.682C55.1345 274.864 55.3693 273.697 55.3693 272.182C55.3693 271.174 55.2614 270.316 55.0455 269.608C54.8333 268.9 54.5265 268.36 54.125 267.989C53.7273 267.617 53.2481 267.432 52.6875 267.432C51.8466 267.432 51.1894 267.847 50.7159 268.676C50.2424 269.502 50.0057 270.67 50.0057 272.182C50.0057 273.189 50.1117 274.045 50.3239 274.75C50.536 275.455 50.8409 275.991 51.2386 276.358C51.6402 276.725 52.1231 276.909 52.6875 276.909Z" fill="#1D2939"/>
<path d="M88.2045 278V276.977L92.0455 272.773C92.4962 272.28 92.8674 271.852 93.1591 271.489C93.4508 271.121 93.6667 270.777 93.8068 270.455C93.9508 270.129 94.0227 269.788 94.0227 269.432C94.0227 269.023 93.9242 268.669 93.7273 268.369C93.5341 268.07 93.2689 267.839 92.9318 267.676C92.5947 267.513 92.2159 267.432 91.7955 267.432C91.3485 267.432 90.9583 267.525 90.625 267.71C90.2955 267.892 90.0398 268.148 89.858 268.477C89.6799 268.807 89.5909 269.193 89.5909 269.636H88.25C88.25 268.955 88.4072 268.356 88.7216 267.841C89.036 267.326 89.464 266.924 90.0057 266.636C90.5511 266.348 91.1629 266.205 91.8409 266.205C92.5227 266.205 93.1269 266.348 93.6534 266.636C94.1799 266.924 94.5928 267.312 94.892 267.801C95.1913 268.29 95.3409 268.833 95.3409 269.432C95.3409 269.86 95.2633 270.278 95.108 270.688C94.9564 271.093 94.6913 271.545 94.3125 272.045C93.9375 272.542 93.4167 273.148 92.75 273.864L90.1364 276.659V276.75H95.5455V278H88.2045ZM101.983 266.364V278H100.574V267.841H100.506L97.6648 269.727V268.295L100.574 266.364H101.983Z" fill="#1D2939"/>
<path d="M135.205 278V276.977L139.045 272.773C139.496 272.28 139.867 271.852 140.159 271.489C140.451 271.121 140.667 270.777 140.807 270.455C140.951 270.129 141.023 269.788 141.023 269.432C141.023 269.023 140.924 268.669 140.727 268.369C140.534 268.07 140.269 267.839 139.932 267.676C139.595 267.513 139.216 267.432 138.795 267.432C138.348 267.432 137.958 267.525 137.625 267.71C137.295 267.892 137.04 268.148 136.858 268.477C136.68 268.807 136.591 269.193 136.591 269.636H135.25C135.25 268.955 135.407 268.356 135.722 267.841C136.036 267.326 136.464 266.924 137.006 266.636C137.551 266.348 138.163 266.205 138.841 266.205C139.523 266.205 140.127 266.348 140.653 266.636C141.18 266.924 141.593 267.312 141.892 267.801C142.191 268.29 142.341 268.833 142.341 269.432C142.341 269.86 142.263 270.278 142.108 270.688C141.956 271.093 141.691 271.545 141.312 272.045C140.938 272.542 140.417 273.148 139.75 273.864L137.136 276.659V276.75H142.545V278H135.205ZM144.892 278V276.977L148.733 272.773C149.184 272.28 149.555 271.852 149.847 271.489C150.138 271.121 150.354 270.777 150.494 270.455C150.638 270.129 150.71 269.788 150.71 269.432C150.71 269.023 150.612 268.669 150.415 268.369C150.222 268.07 149.956 267.839 149.619 267.676C149.282 267.513 148.903 267.432 148.483 267.432C148.036 267.432 147.646 267.525 147.312 267.71C146.983 267.892 146.727 268.148 146.545 268.477C146.367 268.807 146.278 269.193 146.278 269.636H144.938C144.938 268.955 145.095 268.356 145.409 267.841C145.723 267.326 146.152 266.924 146.693 266.636C147.239 266.348 147.85 266.205 148.528 266.205C149.21 266.205 149.814 266.348 150.341 266.636C150.867 266.924 151.28 267.312 151.58 267.801C151.879 268.29 152.028 268.833 152.028 269.432C152.028 269.86 151.951 270.278 151.795 270.688C151.644 271.093 151.379 271.545 151 272.045C150.625 272.542 150.104 273.148 149.438 273.864L146.824 276.659V276.75H152.233V278H144.892Z" fill="#1D2939"/>
<path d="M183.205 278V276.977L187.045 272.773C187.496 272.28 187.867 271.852 188.159 271.489C188.451 271.121 188.667 270.777 188.807 270.455C188.951 270.129 189.023 269.788 189.023 269.432C189.023 269.023 188.924 268.669 188.727 268.369C188.534 268.07 188.269 267.839 187.932 267.676C187.595 267.513 187.216 267.432 186.795 267.432C186.348 267.432 185.958 267.525 185.625 267.71C185.295 267.892 185.04 268.148 184.858 268.477C184.68 268.807 184.591 269.193 184.591 269.636H183.25C183.25 268.955 183.407 268.356 183.722 267.841C184.036 267.326 184.464 266.924 185.006 266.636C185.551 266.348 186.163 266.205 186.841 266.205C187.523 266.205 188.127 266.348 188.653 266.636C189.18 266.924 189.593 267.312 189.892 267.801C190.191 268.29 190.341 268.833 190.341 269.432C190.341 269.86 190.263 270.278 190.108 270.688C189.956 271.093 189.691 271.545 189.312 272.045C188.938 272.542 188.417 273.148 187.75 273.864L185.136 276.659V276.75H190.545V278H183.205ZM196.824 278.159C196.074 278.159 195.405 278.03 194.818 277.773C194.235 277.515 193.771 277.157 193.426 276.699C193.085 276.237 192.9 275.701 192.869 275.091H194.301C194.331 275.466 194.46 275.79 194.688 276.062C194.915 276.331 195.212 276.54 195.58 276.688C195.947 276.835 196.354 276.909 196.801 276.909C197.301 276.909 197.744 276.822 198.131 276.648C198.517 276.473 198.82 276.231 199.04 275.92C199.259 275.61 199.369 275.25 199.369 274.841C199.369 274.413 199.263 274.036 199.051 273.71C198.839 273.381 198.528 273.123 198.119 272.938C197.71 272.752 197.21 272.659 196.619 272.659H195.688V271.409H196.619C197.081 271.409 197.487 271.326 197.835 271.159C198.188 270.992 198.462 270.758 198.659 270.455C198.86 270.152 198.96 269.795 198.96 269.386C198.96 268.992 198.873 268.65 198.699 268.358C198.525 268.066 198.278 267.839 197.96 267.676C197.646 267.513 197.275 267.432 196.847 267.432C196.445 267.432 196.066 267.506 195.71 267.653C195.358 267.797 195.07 268.008 194.847 268.284C194.623 268.557 194.502 268.886 194.483 269.273H193.119C193.142 268.663 193.326 268.129 193.67 267.67C194.015 267.208 194.466 266.848 195.023 266.591C195.583 266.333 196.199 266.205 196.869 266.205C197.589 266.205 198.206 266.35 198.722 266.642C199.237 266.93 199.633 267.311 199.909 267.784C200.186 268.258 200.324 268.769 200.324 269.318C200.324 269.973 200.152 270.532 199.807 270.994C199.466 271.456 199.002 271.777 198.415 271.955V272.045C199.15 272.167 199.723 272.479 200.136 272.983C200.549 273.483 200.756 274.102 200.756 274.841C200.756 275.473 200.583 276.042 200.239 276.545C199.898 277.045 199.432 277.439 198.841 277.727C198.25 278.015 197.578 278.159 196.824 278.159Z" fill="#1D2939"/>
<path d="M231.205 278V276.977L235.045 272.773C235.496 272.28 235.867 271.852 236.159 271.489C236.451 271.121 236.667 270.777 236.807 270.455C236.951 270.129 237.023 269.788 237.023 269.432C237.023 269.023 236.924 268.669 236.727 268.369C236.534 268.07 236.269 267.839 235.932 267.676C235.595 267.513 235.216 267.432 234.795 267.432C234.348 267.432 233.958 267.525 233.625 267.71C233.295 267.892 233.04 268.148 232.858 268.477C232.68 268.807 232.591 269.193 232.591 269.636H231.25C231.25 268.955 231.407 268.356 231.722 267.841C232.036 267.326 232.464 266.924 233.006 266.636C233.551 266.348 234.163 266.205 234.841 266.205C235.523 266.205 236.127 266.348 236.653 266.636C237.18 266.924 237.593 267.312 237.892 267.801C238.191 268.29 238.341 268.833 238.341 269.432C238.341 269.86 238.263 270.278 238.108 270.688C237.956 271.093 237.691 271.545 237.312 272.045C236.938 272.542 236.417 273.148 235.75 273.864L233.136 276.659V276.75H238.545V278H231.205ZM240.369 275.614V274.455L245.483 266.364H246.324V268.159H245.756L241.892 274.273V274.364H248.778V275.614H240.369ZM245.847 278V275.261V274.722V266.364H247.188V278H245.847Z" fill="#1D2939"/>
<path d="M279.205 278V276.977L283.045 272.773C283.496 272.28 283.867 271.852 284.159 271.489C284.451 271.121 284.667 270.777 284.807 270.455C284.951 270.129 285.023 269.788 285.023 269.432C285.023 269.023 284.924 268.669 284.727 268.369C284.534 268.07 284.269 267.839 283.932 267.676C283.595 267.513 283.216 267.432 282.795 267.432C282.348 267.432 281.958 267.525 281.625 267.71C281.295 267.892 281.04 268.148 280.858 268.477C280.68 268.807 280.591 269.193 280.591 269.636H279.25C279.25 268.955 279.407 268.356 279.722 267.841C280.036 267.326 280.464 266.924 281.006 266.636C281.551 266.348 282.163 266.205 282.841 266.205C283.523 266.205 284.127 266.348 284.653 266.636C285.18 266.924 285.593 267.312 285.892 267.801C286.191 268.29 286.341 268.833 286.341 269.432C286.341 269.86 286.263 270.278 286.108 270.688C285.956 271.093 285.691 271.545 285.312 272.045C284.938 272.542 284.417 273.148 283.75 273.864L281.136 276.659V276.75H286.545V278H279.205ZM292.528 278.159C291.862 278.159 291.261 278.027 290.727 277.761C290.193 277.496 289.765 277.133 289.443 276.67C289.121 276.208 288.945 275.682 288.915 275.091H290.278C290.331 275.617 290.57 276.053 290.994 276.398C291.422 276.739 291.934 276.909 292.528 276.909C293.006 276.909 293.43 276.797 293.801 276.574C294.176 276.35 294.47 276.044 294.682 275.653C294.898 275.259 295.006 274.814 295.006 274.318C295.006 273.811 294.894 273.358 294.67 272.96C294.451 272.559 294.148 272.242 293.761 272.011C293.375 271.78 292.934 271.663 292.438 271.659C292.081 271.655 291.716 271.71 291.341 271.824C290.966 271.934 290.657 272.076 290.415 272.25L289.097 272.091L289.801 266.364H295.847V267.614H290.983L290.574 271.045H290.642C290.881 270.856 291.18 270.699 291.54 270.574C291.9 270.449 292.275 270.386 292.665 270.386C293.377 270.386 294.011 270.557 294.568 270.898C295.129 271.235 295.568 271.697 295.886 272.284C296.208 272.871 296.369 273.542 296.369 274.295C296.369 275.038 296.203 275.701 295.869 276.284C295.54 276.864 295.085 277.322 294.506 277.659C293.926 277.992 293.267 278.159 292.528 278.159Z" fill="#1D2939"/>
<path d="M327.205 278V276.977L331.045 272.773C331.496 272.28 331.867 271.852 332.159 271.489C332.451 271.121 332.667 270.777 332.807 270.455C332.951 270.129 333.023 269.788 333.023 269.432C333.023 269.023 332.924 268.669 332.727 268.369C332.534 268.07 332.269 267.839 331.932 267.676C331.595 267.513 331.216 267.432 330.795 267.432C330.348 267.432 329.958 267.525 329.625 267.71C329.295 267.892 329.04 268.148 328.858 268.477C328.68 268.807 328.591 269.193 328.591 269.636H327.25C327.25 268.955 327.407 268.356 327.722 267.841C328.036 267.326 328.464 266.924 329.006 266.636C329.551 266.348 330.163 266.205 330.841 266.205C331.523 266.205 332.127 266.348 332.653 266.636C333.18 266.924 333.593 267.312 333.892 267.801C334.191 268.29 334.341 268.833 334.341 269.432C334.341 269.86 334.263 270.278 334.108 270.688C333.956 271.093 333.691 271.545 333.312 272.045C332.938 272.542 332.417 273.148 331.75 273.864L329.136 276.659V276.75H334.545V278H327.205ZM340.756 278.159C340.278 278.152 339.801 278.061 339.324 277.886C338.847 277.712 338.411 277.419 338.017 277.006C337.623 276.589 337.307 276.027 337.068 275.318C336.83 274.606 336.71 273.712 336.71 272.636C336.71 271.606 336.807 270.693 337 269.898C337.193 269.098 337.473 268.426 337.841 267.881C338.208 267.331 338.652 266.915 339.17 266.631C339.693 266.347 340.282 266.205 340.938 266.205C341.589 266.205 342.169 266.335 342.676 266.597C343.188 266.854 343.604 267.214 343.926 267.676C344.248 268.138 344.456 268.67 344.551 269.273H343.165C343.036 268.75 342.786 268.316 342.415 267.972C342.044 267.627 341.551 267.455 340.938 267.455C340.036 267.455 339.326 267.847 338.807 268.631C338.292 269.415 338.032 270.515 338.028 271.932H338.119C338.331 271.61 338.583 271.335 338.875 271.108C339.17 270.877 339.496 270.699 339.852 270.574C340.208 270.449 340.585 270.386 340.983 270.386C341.65 270.386 342.259 270.553 342.812 270.886C343.366 271.216 343.809 271.672 344.142 272.256C344.475 272.835 344.642 273.5 344.642 274.25C344.642 274.97 344.481 275.629 344.159 276.227C343.837 276.822 343.384 277.295 342.801 277.648C342.222 277.996 341.54 278.167 340.756 278.159ZM340.756 276.909C341.233 276.909 341.661 276.79 342.04 276.551C342.422 276.312 342.723 275.992 342.943 275.591C343.167 275.189 343.278 274.742 343.278 274.25C343.278 273.769 343.17 273.331 342.955 272.938C342.742 272.54 342.449 272.223 342.074 271.989C341.703 271.754 341.278 271.636 340.801 271.636C340.441 271.636 340.106 271.708 339.795 271.852C339.485 271.992 339.212 272.186 338.977 272.432C338.746 272.678 338.564 272.96 338.432 273.278C338.299 273.593 338.233 273.924 338.233 274.273C338.233 274.735 338.341 275.167 338.557 275.568C338.777 275.97 339.076 276.294 339.455 276.54C339.837 276.786 340.271 276.909 340.756 276.909Z" fill="#1D2939"/>
<path d="M39.7045 326V324.977L43.5455 320.773C43.9962 320.28 44.3674 319.852 44.6591 319.489C44.9508 319.121 45.1667 318.777 45.3068 318.455C45.4508 318.129 45.5227 317.788 45.5227 317.432C45.5227 317.023 45.4242 316.669 45.2273 316.369C45.0341 316.07 44.7689 315.839 44.4318 315.676C44.0947 315.513 43.7159 315.432 43.2955 315.432C42.8485 315.432 42.4583 315.525 42.125 315.71C41.7955 315.892 41.5398 316.148 41.358 316.477C41.1799 316.807 41.0909 317.193 41.0909 317.636H39.75C39.75 316.955 39.9072 316.356 40.2216 315.841C40.536 315.326 40.964 314.924 41.5057 314.636C42.0511 314.348 42.6629 314.205 43.3409 314.205C44.0227 314.205 44.6269 314.348 45.1534 314.636C45.6799 314.924 46.0928 315.312 46.392 315.801C46.6913 316.29 46.8409 316.833 46.8409 317.432C46.8409 317.86 46.7633 318.278 46.608 318.688C46.4564 319.093 46.1913 319.545 45.8125 320.045C45.4375 320.542 44.9167 321.148 44.25 321.864L41.6364 324.659V324.75H47.0455V326H39.7045ZM49.7557 326L54.9602 315.705V315.614H48.9602V314.364H56.4148V315.682L51.233 326H49.7557Z" fill="#1D2939"/>
<path d="M87.2045 326V324.977L91.0455 320.773C91.4962 320.28 91.8674 319.852 92.1591 319.489C92.4508 319.121 92.6667 318.777 92.8068 318.455C92.9508 318.129 93.0227 317.788 93.0227 317.432C93.0227 317.023 92.9242 316.669 92.7273 316.369C92.5341 316.07 92.2689 315.839 91.9318 315.676C91.5947 315.513 91.2159 315.432 90.7955 315.432C90.3485 315.432 89.9583 315.525 89.625 315.71C89.2955 315.892 89.0398 316.148 88.858 316.477C88.6799 316.807 88.5909 317.193 88.5909 317.636H87.25C87.25 316.955 87.4072 316.356 87.7216 315.841C88.036 315.326 88.464 314.924 89.0057 314.636C89.5511 314.348 90.1629 314.205 90.8409 314.205C91.5227 314.205 92.1269 314.348 92.6534 314.636C93.1799 314.924 93.5928 315.312 93.892 315.801C94.1913 316.29 94.3409 316.833 94.3409 317.432C94.3409 317.86 94.2633 318.278 94.108 318.688C93.9564 319.093 93.6913 319.545 93.3125 320.045C92.9375 320.542 92.4167 321.148 91.75 321.864L89.1364 324.659V324.75H94.5455V326H87.2045ZM100.619 326.159C99.839 326.159 99.1496 326.021 98.5511 325.744C97.9564 325.464 97.4924 325.08 97.1591 324.591C96.8258 324.098 96.661 323.538 96.6648 322.909C96.661 322.417 96.7576 321.962 96.9545 321.545C97.1515 321.125 97.4205 320.775 97.7614 320.494C98.1061 320.21 98.4905 320.03 98.9148 319.955V319.886C98.358 319.742 97.9148 319.43 97.5852 318.949C97.2557 318.464 97.0928 317.913 97.0966 317.295C97.0928 316.705 97.2424 316.176 97.5455 315.71C97.8485 315.244 98.2652 314.877 98.7955 314.608C99.3295 314.339 99.9375 314.205 100.619 314.205C101.294 314.205 101.896 314.339 102.426 314.608C102.956 314.877 103.373 315.244 103.676 315.71C103.983 316.176 104.138 316.705 104.142 317.295C104.138 317.913 103.97 318.464 103.636 318.949C103.307 319.43 102.869 319.742 102.324 319.886V319.955C102.744 320.03 103.123 320.21 103.46 320.494C103.797 320.775 104.066 321.125 104.267 321.545C104.468 321.962 104.57 322.417 104.574 322.909C104.57 323.538 104.4 324.098 104.062 324.591C103.729 325.08 103.265 325.464 102.67 325.744C102.08 326.021 101.396 326.159 100.619 326.159ZM100.619 324.909C101.146 324.909 101.6 324.824 101.983 324.653C102.366 324.483 102.661 324.242 102.869 323.932C103.078 323.621 103.184 323.258 103.188 322.841C103.184 322.402 103.07 322.013 102.847 321.676C102.623 321.339 102.318 321.074 101.932 320.881C101.549 320.687 101.112 320.591 100.619 320.591C100.123 320.591 99.6799 320.687 99.2898 320.881C98.9034 321.074 98.5985 321.339 98.375 321.676C98.1553 322.013 98.0473 322.402 98.0511 322.841C98.0473 323.258 98.1477 323.621 98.3523 323.932C98.5606 324.242 98.858 324.483 99.2443 324.653C99.6307 324.824 100.089 324.909 100.619 324.909ZM100.619 319.386C101.036 319.386 101.405 319.303 101.727 319.136C102.053 318.97 102.309 318.737 102.494 318.438C102.68 318.138 102.775 317.788 102.778 317.386C102.775 316.992 102.682 316.65 102.5 316.358C102.318 316.062 102.066 315.835 101.744 315.676C101.422 315.513 101.047 315.432 100.619 315.432C100.184 315.432 99.803 315.513 99.4773 315.676C99.1515 315.835 98.8996 316.062 98.7216 316.358C98.5436 316.65 98.4564 316.992 98.4602 317.386C98.4564 317.788 98.5455 318.138 98.7273 318.438C98.9129 318.737 99.1686 318.97 99.4943 319.136C99.8201 319.303 100.195 319.386 100.619 319.386Z" fill="#1D2939"/>
<path d="M135.205 326V324.977L139.045 320.773C139.496 320.28 139.867 319.852 140.159 319.489C140.451 319.121 140.667 318.777 140.807 318.455C140.951 318.129 141.023 317.788 141.023 317.432C141.023 317.023 140.924 316.669 140.727 316.369C140.534 316.07 140.269 315.839 139.932 315.676C139.595 315.513 139.216 315.432 138.795 315.432C138.348 315.432 137.958 315.525 137.625 315.71C137.295 315.892 137.04 316.148 136.858 316.477C136.68 316.807 136.591 317.193 136.591 317.636H135.25C135.25 316.955 135.407 316.356 135.722 315.841C136.036 315.326 136.464 314.924 137.006 314.636C137.551 314.348 138.163 314.205 138.841 314.205C139.523 314.205 140.127 314.348 140.653 314.636C141.18 314.924 141.593 315.312 141.892 315.801C142.191 316.29 142.341 316.833 142.341 317.432C142.341 317.86 142.263 318.278 142.108 318.688C141.956 319.093 141.691 319.545 141.312 320.045C140.938 320.542 140.417 321.148 139.75 321.864L137.136 324.659V324.75H142.545V326H135.205ZM148.597 314.205C149.074 314.208 149.551 314.299 150.028 314.477C150.506 314.655 150.941 314.951 151.335 315.364C151.729 315.773 152.045 316.331 152.284 317.04C152.523 317.748 152.642 318.636 152.642 319.705C152.642 320.739 152.544 321.657 152.347 322.46C152.153 323.259 151.873 323.934 151.506 324.483C151.142 325.032 150.699 325.449 150.176 325.733C149.657 326.017 149.07 326.159 148.415 326.159C147.763 326.159 147.182 326.03 146.67 325.773C146.163 325.511 145.746 325.15 145.42 324.688C145.098 324.222 144.892 323.682 144.801 323.068H146.188C146.312 323.602 146.561 324.044 146.932 324.392C147.307 324.737 147.801 324.909 148.415 324.909C149.313 324.909 150.021 324.517 150.54 323.733C151.063 322.949 151.324 321.841 151.324 320.409H151.233C151.021 320.727 150.769 321.002 150.477 321.233C150.186 321.464 149.862 321.642 149.506 321.767C149.15 321.892 148.771 321.955 148.369 321.955C147.703 321.955 147.091 321.79 146.534 321.46C145.981 321.127 145.538 320.67 145.205 320.091C144.875 319.508 144.71 318.841 144.71 318.091C144.71 317.379 144.869 316.727 145.188 316.136C145.509 315.542 145.96 315.068 146.54 314.716C147.123 314.364 147.809 314.193 148.597 314.205ZM148.597 315.455C148.119 315.455 147.689 315.574 147.307 315.812C146.928 316.047 146.627 316.366 146.403 316.767C146.184 317.165 146.074 317.606 146.074 318.091C146.074 318.576 146.18 319.017 146.392 319.415C146.608 319.809 146.902 320.123 147.273 320.358C147.648 320.589 148.074 320.705 148.551 320.705C148.911 320.705 149.246 320.634 149.557 320.494C149.867 320.35 150.138 320.155 150.369 319.909C150.604 319.659 150.788 319.377 150.92 319.062C151.053 318.744 151.119 318.413 151.119 318.068C151.119 317.614 151.009 317.187 150.79 316.79C150.574 316.392 150.275 316.07 149.892 315.824C149.513 315.578 149.081 315.455 148.597 315.455Z" fill="#1D2939"/>
<path d="M186.636 326.159C185.886 326.159 185.218 326.03 184.631 325.773C184.047 325.515 183.583 325.157 183.239 324.699C182.898 324.237 182.712 323.701 182.682 323.091H184.114C184.144 323.466 184.273 323.79 184.5 324.062C184.727 324.331 185.025 324.54 185.392 324.688C185.759 324.835 186.167 324.909 186.614 324.909C187.114 324.909 187.557 324.822 187.943 324.648C188.33 324.473 188.633 324.231 188.852 323.92C189.072 323.61 189.182 323.25 189.182 322.841C189.182 322.413 189.076 322.036 188.864 321.71C188.652 321.381 188.341 321.123 187.932 320.938C187.523 320.752 187.023 320.659 186.432 320.659H185.5V319.409H186.432C186.894 319.409 187.299 319.326 187.648 319.159C188 318.992 188.275 318.758 188.472 318.455C188.672 318.152 188.773 317.795 188.773 317.386C188.773 316.992 188.686 316.65 188.511 316.358C188.337 316.066 188.091 315.839 187.773 315.676C187.458 315.513 187.087 315.432 186.659 315.432C186.258 315.432 185.879 315.506 185.523 315.653C185.17 315.797 184.883 316.008 184.659 316.284C184.436 316.557 184.314 316.886 184.295 317.273H182.932C182.955 316.663 183.138 316.129 183.483 315.67C183.828 315.208 184.278 314.848 184.835 314.591C185.396 314.333 186.011 314.205 186.682 314.205C187.402 314.205 188.019 314.35 188.534 314.642C189.049 314.93 189.445 315.311 189.722 315.784C189.998 316.258 190.136 316.769 190.136 317.318C190.136 317.973 189.964 318.532 189.619 318.994C189.278 319.456 188.814 319.777 188.227 319.955V320.045C188.962 320.167 189.536 320.479 189.949 320.983C190.362 321.483 190.568 322.102 190.568 322.841C190.568 323.473 190.396 324.042 190.051 324.545C189.71 325.045 189.244 325.439 188.653 325.727C188.063 326.015 187.39 326.159 186.636 326.159ZM196.688 326.159C195.831 326.159 195.102 325.926 194.5 325.46C193.898 324.991 193.438 324.311 193.119 323.42C192.801 322.527 192.642 321.447 192.642 320.182C192.642 318.924 192.801 317.85 193.119 316.96C193.441 316.066 193.903 315.384 194.506 314.915C195.112 314.441 195.839 314.205 196.688 314.205C197.536 314.205 198.261 314.441 198.864 314.915C199.47 315.384 199.932 316.066 200.25 316.96C200.572 317.85 200.733 318.924 200.733 320.182C200.733 321.447 200.574 322.527 200.256 323.42C199.938 324.311 199.477 324.991 198.875 325.46C198.273 325.926 197.544 326.159 196.688 326.159ZM196.688 324.909C197.536 324.909 198.195 324.5 198.665 323.682C199.134 322.864 199.369 321.697 199.369 320.182C199.369 319.174 199.261 318.316 199.045 317.608C198.833 316.9 198.527 316.36 198.125 315.989C197.727 315.617 197.248 315.432 196.688 315.432C195.847 315.432 195.189 315.847 194.716 316.676C194.242 317.502 194.006 318.67 194.006 320.182C194.006 321.189 194.112 322.045 194.324 322.75C194.536 323.455 194.841 323.991 195.239 324.358C195.64 324.725 196.123 324.909 196.688 324.909Z" fill="#1D2939"/>
<path d="M236.136 326.159C235.386 326.159 234.718 326.03 234.131 325.773C233.547 325.515 233.083 325.157 232.739 324.699C232.398 324.237 232.212 323.701 232.182 323.091H233.614C233.644 323.466 233.773 323.79 234 324.062C234.227 324.331 234.525 324.54 234.892 324.688C235.259 324.835 235.667 324.909 236.114 324.909C236.614 324.909 237.057 324.822 237.443 324.648C237.83 324.473 238.133 324.231 238.352 323.92C238.572 323.61 238.682 323.25 238.682 322.841C238.682 322.413 238.576 322.036 238.364 321.71C238.152 321.381 237.841 321.123 237.432 320.938C237.023 320.752 236.523 320.659 235.932 320.659H235V319.409H235.932C236.394 319.409 236.799 319.326 237.148 319.159C237.5 318.992 237.775 318.758 237.972 318.455C238.172 318.152 238.273 317.795 238.273 317.386C238.273 316.992 238.186 316.65 238.011 316.358C237.837 316.066 237.591 315.839 237.273 315.676C236.958 315.513 236.587 315.432 236.159 315.432C235.758 315.432 235.379 315.506 235.023 315.653C234.67 315.797 234.383 316.008 234.159 316.284C233.936 316.557 233.814 316.886 233.795 317.273H232.432C232.455 316.663 232.638 316.129 232.983 315.67C233.328 315.208 233.778 314.848 234.335 314.591C234.896 314.333 235.511 314.205 236.182 314.205C236.902 314.205 237.519 314.35 238.034 314.642C238.549 314.93 238.945 315.311 239.222 315.784C239.498 316.258 239.636 316.769 239.636 317.318C239.636 317.973 239.464 318.532 239.119 318.994C238.778 319.456 238.314 319.777 237.727 319.955V320.045C238.462 320.167 239.036 320.479 239.449 320.983C239.862 321.483 240.068 322.102 240.068 322.841C240.068 323.473 239.896 324.042 239.551 324.545C239.21 325.045 238.744 325.439 238.153 325.727C237.563 326.015 236.89 326.159 236.136 326.159ZM246.483 314.364V326H245.074V315.841H245.006L242.165 317.727V316.295L245.074 314.364H246.483Z" fill="#1D2939"/>
<rect x="384" y="56" width="24" height="384" transform="rotate(90 384 56)" fill="#E8178A" fill-opacity="0.24"/>
<rect x="384" y="344" width="24" height="384" transform="rotate(90 384 344)" fill="#E8178A" fill-opacity="0.24"/>
<rect x="384" y="1" width="24" height="384" transform="rotate(90 384 1)" fill="#E8178A" fill-opacity="0.24"/>
<rect x="25" y="368" width="24" height="368" transform="rotate(-180 25 368)" fill="#E8178A" fill-opacity="0.24"/>
<rect x="383" y="368" width="24" height="368" transform="rotate(-180 383 368)" fill="#E8178A" fill-opacity="0.24"/>
<path d="M359 380.25H383" stroke="#E8178A"/>
<line x1="359.504" y1="384" x2="359.504" y2="377" stroke="#E8178A"/>
<line x1="382.5" y1="384" x2="382.5" y2="377" stroke="#E8178A"/>
<rect x="356" y="390" width="29" height="16" rx="3" fill="#E8178A"/>
<path d="M358.692 402V400.892L361.281 398.495C361.501 398.282 361.686 398.09 361.835 397.92C361.986 397.749 362.101 397.582 362.179 397.419C362.257 397.253 362.296 397.075 362.296 396.883C362.296 396.67 362.248 396.486 362.151 396.332C362.054 396.176 361.921 396.057 361.753 395.974C361.585 395.888 361.394 395.846 361.181 395.846C360.959 395.846 360.765 395.891 360.599 395.981C360.433 396.071 360.305 396.2 360.215 396.368C360.126 396.536 360.081 396.736 360.081 396.968H358.621C358.621 396.492 358.729 396.079 358.944 395.729C359.16 395.378 359.461 395.107 359.85 394.915C360.238 394.724 360.685 394.628 361.192 394.628C361.713 394.628 362.166 394.72 362.552 394.905C362.94 395.087 363.242 395.34 363.458 395.665C363.673 395.989 363.781 396.361 363.781 396.78C363.781 397.054 363.726 397.326 363.617 397.593C363.511 397.861 363.32 398.158 363.046 398.484C362.771 398.809 362.384 399.198 361.884 399.653L360.823 400.693V400.743H363.877V402H358.692ZM364.725 400.722V399.511L367.761 394.727H368.805V396.403H368.187L366.273 399.433V399.489H370.587V400.722H364.725ZM368.215 402V400.352L368.244 399.816V394.727H369.685V402H368.215ZM371.626 404.045V396.545H373.118V397.462H373.185C373.251 397.315 373.347 397.166 373.473 397.014C373.601 396.86 373.766 396.732 373.97 396.631C374.176 396.527 374.432 396.474 374.737 396.474C375.135 396.474 375.502 396.579 375.838 396.787C376.174 396.993 376.443 397.304 376.644 397.721C376.845 398.135 376.946 398.655 376.946 399.28C376.946 399.888 376.848 400.402 376.651 400.821C376.457 401.238 376.192 401.554 375.856 401.769C375.522 401.982 375.148 402.089 374.733 402.089C374.44 402.089 374.19 402.04 373.984 401.943C373.781 401.846 373.614 401.724 373.483 401.577C373.353 401.428 373.254 401.278 373.185 401.126H373.139V404.045H371.626ZM373.107 399.273C373.107 399.597 373.152 399.88 373.242 400.121C373.332 400.363 373.462 400.551 373.633 400.686C373.803 400.819 374.01 400.885 374.254 400.885C374.5 400.885 374.709 400.817 374.879 400.683C375.049 400.545 375.178 400.356 375.266 400.114C375.356 399.871 375.401 399.59 375.401 399.273C375.401 398.958 375.357 398.681 375.27 398.442C375.182 398.203 375.053 398.016 374.883 397.881C374.712 397.746 374.503 397.678 374.254 397.678C374.008 397.678 373.799 397.743 373.629 397.874C373.461 398.004 373.332 398.188 373.242 398.428C373.152 398.667 373.107 398.948 373.107 399.273ZM379.023 396.545L380.025 398.452L381.051 396.545H382.603L381.022 399.273L382.645 402H381.101L380.025 400.114L378.966 402H377.404L379.023 399.273L377.461 396.545H379.023Z" fill="white"/>
<g clip-path="url(#clip0_17073_3979)">
<rect x="403" y="5" width="31" height="16" rx="3" fill="#E8178A"/>
<path d="M406.692 17V15.892L409.281 13.495C409.501 13.282 409.686 13.0902 409.835 12.9197C409.986 12.7493 410.101 12.5824 410.179 12.419C410.257 12.2533 410.296 12.0746 410.296 11.8828C410.296 11.6697 410.248 11.4863 410.151 11.3324C410.054 11.1761 409.921 11.0566 409.753 10.9737C409.585 10.8885 409.394 10.8459 409.181 10.8459C408.959 10.8459 408.765 10.8909 408.599 10.9808C408.433 11.0708 408.305 11.1998 408.215 11.3679C408.126 11.536 408.081 11.736 408.081 11.968H406.621C406.621 11.4922 406.729 11.0791 406.944 10.7287C407.16 10.3783 407.461 10.1072 407.85 9.91548C408.238 9.72372 408.685 9.62784 409.192 9.62784C409.713 9.62784 410.166 9.72017 410.552 9.90483C410.94 10.0871 411.242 10.3404 411.458 10.6648C411.673 10.9891 411.781 11.3608 411.781 11.7798C411.781 12.0545 411.726 12.3255 411.617 12.593C411.511 12.8606 411.32 13.1577 411.046 13.4844C410.771 13.8087 410.384 14.1982 409.884 14.6527L408.823 15.6932V15.7429H411.877V17H406.692ZM412.725 15.7216V14.5107L415.761 9.72727H416.805V11.4034H416.187L414.273 14.4325V14.4893H418.587V15.7216H412.725ZM416.215 17V15.3523L416.244 14.8161V9.72727H417.685V17H416.215ZM419.626 19.0455V11.5455H421.118V12.4616H421.185C421.251 12.3149 421.347 12.1657 421.473 12.0142C421.601 11.8603 421.766 11.7325 421.97 11.6307C422.176 11.5265 422.432 11.4744 422.737 11.4744C423.135 11.4744 423.502 11.5786 423.838 11.7869C424.174 11.9929 424.443 12.3042 424.644 12.7209C424.845 13.1352 424.946 13.6548 424.946 14.2798C424.946 14.8883 424.848 15.402 424.651 15.821C424.457 16.2377 424.192 16.5537 423.856 16.7692C423.522 16.9822 423.148 17.0888 422.733 17.0888C422.44 17.0888 422.19 17.0402 421.984 16.9432C421.781 16.8461 421.614 16.7242 421.483 16.5774C421.353 16.4283 421.254 16.2779 421.185 16.1264H421.139V19.0455H419.626ZM421.107 14.2727C421.107 14.5971 421.152 14.88 421.242 15.1214C421.332 15.3629 421.462 15.5511 421.633 15.6861C421.803 15.8187 422.01 15.8849 422.254 15.8849C422.5 15.8849 422.709 15.8175 422.879 15.6825C423.049 15.5452 423.178 15.3558 423.266 15.1143C423.356 14.8705 423.401 14.59 423.401 14.2727C423.401 13.9579 423.357 13.6809 423.27 13.4418C423.182 13.2027 423.053 13.0156 422.883 12.8807C422.712 12.7457 422.503 12.6783 422.254 12.6783C422.008 12.6783 421.799 12.7434 421.629 12.8736C421.461 13.0038 421.332 13.1884 421.242 13.4276C421.152 13.6667 421.107 13.9484 421.107 14.2727ZM427.023 11.5455L428.025 13.4524L429.051 11.5455H430.603L429.022 14.2727L430.645 17H429.101L428.025 15.1143L426.966 17H425.404L427.023 14.2727L425.461 11.5455H427.023Z" fill="white"/>
</g>
<path d="M393.75 5V20.0083" stroke="#E8178A"/>
<line x1="390" y1="5.50415" x2="397" y2="5.50415" stroke="#E8178A"/>
<line x1="390" y1="19.5042" x2="397" y2="19.5042" stroke="#E8178A"/>
<g clip-path="url(#clip1_17073_3979)">
<rect x="403" y="60" width="31" height="16" rx="3" fill="#E8178A"/>
<path d="M406.692 72V70.892L409.281 68.495C409.501 68.282 409.686 68.0902 409.835 67.9197C409.986 67.7493 410.101 67.5824 410.179 67.419C410.257 67.2533 410.296 67.0746 410.296 66.8828C410.296 66.6697 410.248 66.4863 410.151 66.3324C410.054 66.1761 409.921 66.0566 409.753 65.9737C409.585 65.8885 409.394 65.8459 409.181 65.8459C408.959 65.8459 408.765 65.8909 408.599 65.9808C408.433 66.0708 408.305 66.1998 408.215 66.3679C408.126 66.536 408.081 66.736 408.081 66.968H406.621C406.621 66.4922 406.729 66.0791 406.944 65.7287C407.16 65.3783 407.461 65.1072 407.85 64.9155C408.238 64.7237 408.685 64.6278 409.192 64.6278C409.713 64.6278 410.166 64.7202 410.552 64.9048C410.94 65.0871 411.242 65.3404 411.458 65.6648C411.673 65.9891 411.781 66.3608 411.781 66.7798C411.781 67.0545 411.726 67.3255 411.617 67.593C411.511 67.8606 411.32 68.1577 411.046 68.4844C410.771 68.8087 410.384 69.1982 409.884 69.6527L408.823 70.6932V70.7429H411.877V72H406.692ZM412.725 70.7216V69.5107L415.761 64.7273H416.805V66.4034H416.187L414.273 69.4325V69.4893H418.587V70.7216H412.725ZM416.215 72V70.3523L416.244 69.8161V64.7273H417.685V72H416.215ZM419.626 74.0455V66.5455H421.118V67.4616H421.185C421.251 67.3149 421.347 67.1657 421.473 67.0142C421.601 66.8603 421.766 66.7325 421.97 66.6307C422.176 66.5265 422.432 66.4744 422.737 66.4744C423.135 66.4744 423.502 66.5786 423.838 66.7869C424.174 66.9929 424.443 67.3042 424.644 67.7209C424.845 68.1352 424.946 68.6548 424.946 69.2798C424.946 69.8883 424.848 70.402 424.651 70.821C424.457 71.2377 424.192 71.5537 423.856 71.7692C423.522 71.9822 423.148 72.0888 422.733 72.0888C422.44 72.0888 422.19 72.0402 421.984 71.9432C421.781 71.8461 421.614 71.7242 421.483 71.5774C421.353 71.4283 421.254 71.2779 421.185 71.1264H421.139V74.0455H419.626ZM421.107 69.2727C421.107 69.5971 421.152 69.88 421.242 70.1214C421.332 70.3629 421.462 70.5511 421.633 70.6861C421.803 70.8187 422.01 70.8849 422.254 70.8849C422.5 70.8849 422.709 70.8175 422.879 70.6825C423.049 70.5452 423.178 70.3558 423.266 70.1143C423.356 69.8705 423.401 69.59 423.401 69.2727C423.401 68.9579 423.357 68.6809 423.27 68.4418C423.182 68.2027 423.053 68.0156 422.883 67.8807C422.712 67.7457 422.503 67.6783 422.254 67.6783C422.008 67.6783 421.799 67.7434 421.629 67.8736C421.461 68.0038 421.332 68.1884 421.242 68.4276C421.152 68.6667 421.107 68.9484 421.107 69.2727ZM427.023 66.5455L428.025 68.4524L429.051 66.5455H430.603L429.022 69.2727L430.645 72H429.101L428.025 70.1143L426.966 72H425.404L427.023 69.2727L425.461 66.5455H427.023Z" fill="white"/>
</g>
<path d="M393.75 60V75.0083" stroke="#E8178A"/>
<line x1="390" y1="60.5042" x2="397" y2="60.5042" stroke="#E8178A"/>
<line x1="390" y1="74.5042" x2="397" y2="74.5042" stroke="#E8178A"/>
<defs>
<clipPath id="clip0_17073_3979">
<rect x="403" y="5" width="31" height="16" rx="3" fill="white"/>
</clipPath>
<clipPath id="clip1_17073_3979">
<rect x="403" y="60" width="31" height="16" rx="3" fill="white"/>
</clipPath>
</defs>
</svg>
