<svg width="206" height="165" viewBox="0 0 206 165" fill="none" xmlns="http://www.w3.org/2000/svg">
<circle cx="97" cy="150" r="12" fill="#344054"/>
<path d="M92.9432 155V153.227L97.0852 149.392C97.4375 149.051 97.733 148.744 97.9716 148.472C98.214 148.199 98.3977 147.932 98.5227 147.67C98.6477 147.405 98.7102 147.119 98.7102 146.812C98.7102 146.472 98.6326 146.178 98.4773 145.932C98.322 145.682 98.1098 145.491 97.8409 145.358C97.572 145.222 97.267 145.153 96.9261 145.153C96.5701 145.153 96.2595 145.225 95.9943 145.369C95.7292 145.513 95.5246 145.72 95.3807 145.989C95.2367 146.258 95.1648 146.578 95.1648 146.949H92.8295C92.8295 146.187 93.0019 145.527 93.3466 144.966C93.6913 144.405 94.1742 143.972 94.7955 143.665C95.4167 143.358 96.1326 143.205 96.9432 143.205C97.7765 143.205 98.5019 143.352 99.1193 143.648C99.7405 143.939 100.223 144.345 100.568 144.864C100.913 145.383 101.085 145.977 101.085 146.648C101.085 147.087 100.998 147.521 100.824 147.949C100.653 148.377 100.348 148.852 99.9091 149.375C99.4697 149.894 98.8504 150.517 98.0511 151.244L96.3523 152.909V152.989H101.239V155H92.9432Z" fill="white"/>
<path d="M97 86L97 139" stroke="#344054" stroke-dasharray="2 2"/>
<circle cx="194" cy="48" r="12" fill="#344054"/>
<path d="M194.244 54.1591C193.396 54.1591 192.64 54.0133 191.977 53.7216C191.318 53.4261 190.797 53.0208 190.415 52.5057C190.036 51.9867 189.841 51.3883 189.83 50.7102H192.307C192.322 50.9943 192.415 51.2443 192.585 51.4602C192.759 51.6723 192.991 51.8371 193.278 51.9545C193.566 52.072 193.89 52.1307 194.25 52.1307C194.625 52.1307 194.956 52.0644 195.244 51.9318C195.532 51.7992 195.758 51.6155 195.92 51.3807C196.083 51.1458 196.165 50.875 196.165 50.5682C196.165 50.2576 196.078 49.983 195.903 49.7443C195.733 49.5019 195.487 49.3125 195.165 49.1761C194.847 49.0398 194.468 48.9716 194.028 48.9716H192.943V47.1648H194.028C194.4 47.1648 194.727 47.1004 195.011 46.9716C195.299 46.8428 195.523 46.6648 195.682 46.4375C195.841 46.2064 195.92 45.9375 195.92 45.6307C195.92 45.339 195.85 45.0833 195.71 44.8636C195.574 44.6402 195.381 44.4659 195.131 44.3409C194.884 44.2159 194.597 44.1534 194.267 44.1534C193.934 44.1534 193.629 44.214 193.352 44.3352C193.076 44.4527 192.854 44.6212 192.688 44.8409C192.521 45.0606 192.432 45.3182 192.42 45.6136H190.062C190.074 44.9432 190.265 44.3523 190.636 43.8409C191.008 43.3295 191.508 42.9299 192.136 42.642C192.769 42.3504 193.483 42.2045 194.278 42.2045C195.081 42.2045 195.784 42.3504 196.386 42.642C196.989 42.9337 197.456 43.3277 197.79 43.8239C198.127 44.3163 198.294 44.8693 198.29 45.483C198.294 46.1345 198.091 46.678 197.682 47.1136C197.277 47.5492 196.748 47.8258 196.097 47.9432V48.0341C196.953 48.1439 197.604 48.4413 198.051 48.9261C198.502 49.4072 198.725 50.0095 198.722 50.733C198.725 51.3958 198.534 51.9848 198.148 52.5C197.765 53.0152 197.237 53.4205 196.562 53.7159C195.888 54.0114 195.116 54.1591 194.244 54.1591Z" fill="white"/>
<path d="M134 48H187" stroke="#344054" stroke-dasharray="2 2"/>
<circle cx="12" cy="16" r="12" fill="#344054"/>
<path d="M14.0057 10.3636V22H11.5455V12.6989H11.4773L8.8125 14.3693V12.1875L11.6932 10.3636H14.0057Z" fill="white"/>
<path d="M24.5 16H97.5V39" stroke="#344054" stroke-dasharray="2 2"/>
<mask id="path-10-inside-1_5269_2483" fill="white">
<path d="M45 8H134V88H45V8Z"/>
</mask>
<path d="M134 86H45V90H134V86Z" fill="#5925DC" mask="url(#path-10-inside-1_5269_2483)"/>
<path d="M52.7727 45.2727C52.7045 44.697 52.428 44.25 51.9432 43.9318C51.4583 43.6136 50.8636 43.4545 50.1591 43.4545C49.6439 43.4545 49.1932 43.5379 48.8068 43.7045C48.4242 43.8712 48.125 44.1004 47.9091 44.392C47.697 44.6837 47.5909 45.0152 47.5909 45.3864C47.5909 45.697 47.6648 45.964 47.8125 46.1875C47.964 46.4072 48.1572 46.5909 48.392 46.7386C48.6269 46.8826 48.8731 47.0019 49.1307 47.0966C49.3883 47.1875 49.625 47.2614 49.8409 47.3182L51.0227 47.6364C51.3258 47.7159 51.6629 47.8258 52.0341 47.9659C52.4091 48.1061 52.767 48.2973 53.108 48.5398C53.4527 48.7784 53.7367 49.0852 53.9602 49.4602C54.1837 49.8352 54.2955 50.2955 54.2955 50.8409C54.2955 51.4697 54.1307 52.0379 53.8011 52.5455C53.4754 53.053 52.9981 53.4564 52.3693 53.7557C51.7443 54.0549 50.9848 54.2045 50.0909 54.2045C49.2576 54.2045 48.536 54.0701 47.9261 53.8011C47.3201 53.5322 46.8428 53.1572 46.4943 52.6761C46.1496 52.1951 45.9545 51.6364 45.9091 51H47.3636C47.4015 51.4394 47.5492 51.803 47.8068 52.0909C48.0682 52.375 48.3977 52.5871 48.7955 52.7273C49.197 52.8636 49.6288 52.9318 50.0909 52.9318C50.6288 52.9318 51.1117 52.8447 51.5398 52.6705C51.9678 52.4924 52.3068 52.2462 52.5568 51.9318C52.8068 51.6136 52.9318 51.2424 52.9318 50.8182C52.9318 50.4318 52.8239 50.1174 52.608 49.875C52.392 49.6326 52.108 49.4356 51.7557 49.2841C51.4034 49.1326 51.0227 49 50.6136 48.8864L49.1818 48.4773C48.2727 48.2159 47.553 47.8428 47.0227 47.358C46.4924 46.8731 46.2273 46.2386 46.2273 45.4545C46.2273 44.803 46.4034 44.2348 46.7557 43.75C47.1117 43.2614 47.589 42.8826 48.1875 42.6136C48.7898 42.3409 49.4621 42.2045 50.2045 42.2045C50.9545 42.2045 51.6212 42.339 52.2045 42.608C52.7879 42.8731 53.25 43.2367 53.5909 43.6989C53.9356 44.161 54.1174 44.6856 54.1364 45.2727H52.7727ZM60.0895 54.1818C59.2486 54.1818 58.5232 53.9962 57.9134 53.625C57.3073 53.25 56.8395 52.7273 56.5099 52.0568C56.1842 51.3826 56.0213 50.5985 56.0213 49.7045C56.0213 48.8106 56.1842 48.0227 56.5099 47.3409C56.8395 46.6553 57.2978 46.1212 57.8849 45.7386C58.4759 45.3523 59.1652 45.1591 59.9531 45.1591C60.4077 45.1591 60.8565 45.2348 61.2997 45.3864C61.7429 45.5379 62.1463 45.7841 62.5099 46.125C62.8736 46.4621 63.1634 46.9091 63.3793 47.4659C63.5952 48.0227 63.7031 48.7083 63.7031 49.5227V50.0909H56.9759V48.9318H62.3395C62.3395 48.4394 62.241 48 62.044 47.6136C61.8509 47.2273 61.5743 46.9223 61.2145 46.6989C60.8584 46.4754 60.438 46.3636 59.9531 46.3636C59.419 46.3636 58.9569 46.4962 58.5668 46.7614C58.1804 47.0227 57.883 47.3636 57.6747 47.7841C57.4664 48.2045 57.3622 48.6553 57.3622 49.1364V49.9091C57.3622 50.5682 57.4759 51.1269 57.7031 51.5852C57.9342 52.0398 58.2543 52.3864 58.6634 52.625C59.0724 52.8598 59.5478 52.9773 60.0895 52.9773C60.4418 52.9773 60.7599 52.928 61.044 52.8295C61.3319 52.7273 61.58 52.5758 61.7884 52.375C61.9967 52.1705 62.1577 51.9167 62.2713 51.6136L63.5668 51.9773C63.4304 52.4167 63.2012 52.803 62.8793 53.1364C62.5573 53.4659 62.1596 53.7235 61.6861 53.9091C61.2126 54.0909 60.6804 54.1818 60.0895 54.1818ZM69.2884 54.1818C68.4702 54.1818 67.7656 53.9886 67.1747 53.6023C66.5838 53.2159 66.1293 52.6837 65.8111 52.0057C65.4929 51.3277 65.3338 50.553 65.3338 49.6818C65.3338 48.7955 65.4967 48.0133 65.8224 47.3352C66.152 46.6534 66.6103 46.1212 67.1974 45.7386C67.7884 45.3523 68.4777 45.1591 69.2656 45.1591C69.8793 45.1591 70.4323 45.2727 70.9247 45.5C71.4171 45.7273 71.8205 46.0455 72.1349 46.4545C72.4493 46.8636 72.6444 47.3409 72.7202 47.8864H71.3793C71.277 47.4886 71.0497 47.1364 70.6974 46.8295C70.349 46.5189 69.8793 46.3636 69.2884 46.3636C68.7656 46.3636 68.3073 46.5 67.9134 46.7727C67.5232 47.0417 67.2183 47.4223 66.9986 47.9148C66.7827 48.4034 66.6747 48.9773 66.6747 49.6364C66.6747 50.3106 66.7808 50.8977 66.9929 51.3977C67.2088 51.8977 67.5118 52.286 67.902 52.5625C68.2959 52.839 68.758 52.9773 69.2884 52.9773C69.6368 52.9773 69.9531 52.9167 70.2372 52.7955C70.5213 52.6742 70.7618 52.5 70.9588 52.2727C71.1558 52.0455 71.2959 51.7727 71.3793 51.4545H72.7202C72.6444 51.9697 72.4569 52.4337 72.1577 52.8466C71.8622 53.2557 71.4702 53.5814 70.9815 53.8239C70.4967 54.0625 69.9323 54.1818 69.2884 54.1818ZM78.4759 45.2727V46.4091H73.9531V45.2727H78.4759ZM75.2713 43.1818H76.6122V51.5C76.6122 51.8788 76.6671 52.1629 76.777 52.3523C76.8906 52.5379 77.0346 52.6629 77.2088 52.7273C77.3868 52.7879 77.5743 52.8182 77.7713 52.8182C77.919 52.8182 78.0402 52.8106 78.1349 52.7955C78.2296 52.7765 78.3054 52.7614 78.3622 52.75L78.6349 53.9545C78.544 53.9886 78.4171 54.0227 78.2543 54.0568C78.0914 54.0947 77.8849 54.1136 77.6349 54.1136C77.2562 54.1136 76.8849 54.0322 76.5213 53.8693C76.1615 53.7064 75.8622 53.4583 75.6236 53.125C75.3887 52.7917 75.2713 52.3712 75.2713 51.8636V43.1818ZM80.4929 54V45.2727H81.8338V54H80.4929ZM81.1747 43.8182C80.9134 43.8182 80.688 43.7292 80.4986 43.5511C80.313 43.3731 80.2202 43.1591 80.2202 42.9091C80.2202 42.6591 80.313 42.4451 80.4986 42.267C80.688 42.089 80.9134 42 81.1747 42C81.4361 42 81.6596 42.089 81.8452 42.267C82.0346 42.4451 82.1293 42.6591 82.1293 42.9091C82.1293 43.1591 82.0346 43.3731 81.8452 43.5511C81.6596 43.7292 81.4361 43.8182 81.1747 43.8182ZM87.8352 54.1818C87.0473 54.1818 86.3561 53.9943 85.7614 53.6193C85.1705 53.2443 84.7083 52.7197 84.375 52.0455C84.0455 51.3712 83.8807 50.5833 83.8807 49.6818C83.8807 48.7727 84.0455 47.9792 84.375 47.3011C84.7083 46.6231 85.1705 46.0966 85.7614 45.7216C86.3561 45.3466 87.0473 45.1591 87.8352 45.1591C88.6231 45.1591 89.3125 45.3466 89.9034 45.7216C90.4981 46.0966 90.9602 46.6231 91.2898 47.3011C91.6231 47.9792 91.7898 48.7727 91.7898 49.6818C91.7898 50.5833 91.6231 51.3712 91.2898 52.0455C90.9602 52.7197 90.4981 53.2443 89.9034 53.6193C89.3125 53.9943 88.6231 54.1818 87.8352 54.1818ZM87.8352 52.9773C88.4337 52.9773 88.9261 52.8239 89.3125 52.517C89.6989 52.2102 89.9848 51.8068 90.1705 51.3068C90.3561 50.8068 90.4489 50.2652 90.4489 49.6818C90.4489 49.0985 90.3561 48.5549 90.1705 48.0511C89.9848 47.5473 89.6989 47.1402 89.3125 46.8295C88.9261 46.5189 88.4337 46.3636 87.8352 46.3636C87.2367 46.3636 86.7443 46.5189 86.358 46.8295C85.9716 47.1402 85.6856 47.5473 85.5 48.0511C85.3144 48.5549 85.2216 49.0985 85.2216 49.6818C85.2216 50.2652 85.3144 50.8068 85.5 51.3068C85.6856 51.8068 85.9716 52.2102 86.358 52.517C86.7443 52.8239 87.2367 52.9773 87.8352 52.9773ZM95.1776 48.75V54H93.8366V45.2727H95.1321V46.6364H95.2457C95.4503 46.1932 95.7609 45.8371 96.1776 45.5682C96.5942 45.2955 97.1321 45.1591 97.7912 45.1591C98.3821 45.1591 98.8991 45.2803 99.3423 45.5227C99.7855 45.7614 100.13 46.125 100.376 46.6136C100.623 47.0985 100.746 47.7121 100.746 48.4545V54H99.4048V48.5455C99.4048 47.8598 99.2268 47.3258 98.8707 46.9432C98.5147 46.5568 98.026 46.3636 97.4048 46.3636C96.9768 46.3636 96.5942 46.4564 96.2571 46.642C95.9238 46.8277 95.6605 47.0985 95.4673 47.4545C95.2741 47.8106 95.1776 48.2424 95.1776 48.75Z" fill="#5925DC"/>
<path fill-rule="evenodd" clip-rule="evenodd" d="M120.136 44.9044C120.178 44.8614 120.229 44.8273 120.285 44.804C120.342 44.7808 120.402 44.7688 120.462 44.7688C120.523 44.7688 120.583 44.7808 120.639 44.804C120.695 44.8273 120.746 44.8614 120.789 44.9044L126 50.1164L131.211 44.9044C131.254 44.8615 131.305 44.8274 131.361 44.8042C131.417 44.781 131.477 44.769 131.538 44.769C131.599 44.769 131.659 44.781 131.715 44.8042C131.771 44.8274 131.822 44.8615 131.865 44.9044C131.908 44.9473 131.942 44.9982 131.965 45.0543C131.988 45.1103 132 45.1704 132 45.2311C132 45.2918 131.988 45.3519 131.965 45.4079C131.942 45.464 131.908 45.5149 131.865 45.5578L126.327 51.0957C126.284 51.1386 126.233 51.1727 126.177 51.196C126.121 51.2193 126.061 51.2312 126 51.2312C125.939 51.2312 125.879 51.2193 125.823 51.196C125.767 51.1727 125.716 51.1386 125.673 51.0957L120.136 45.5578C120.093 45.515 120.059 45.464 120.035 45.408C120.012 45.3519 120 45.2918 120 45.2311C120 45.1704 120.012 45.1103 120.035 45.0542C120.059 44.9982 120.093 44.9472 120.136 44.9044Z" fill="#344054"/>
</svg>
