<svg width="441" height="149" viewBox="0 0 441 149" fill="none" xmlns="http://www.w3.org/2000/svg">
<path d="M31.7727 71.2727C31.7045 70.697 31.428 70.25 30.9432 69.9318C30.4583 69.6136 29.8636 69.4545 29.1591 69.4545C28.6439 69.4545 28.1932 69.5379 27.8068 69.7045C27.4242 69.8712 27.125 70.1004 26.9091 70.392C26.697 70.6837 26.5909 71.0152 26.5909 71.3864C26.5909 71.697 26.6648 71.964 26.8125 72.1875C26.964 72.4072 27.1572 72.5909 27.392 72.7386C27.6269 72.8826 27.8731 73.0019 28.1307 73.0966C28.3883 73.1875 28.625 73.2614 28.8409 73.3182L30.0227 73.6364C30.3258 73.7159 30.6629 73.8258 31.0341 73.9659C31.4091 74.1061 31.767 74.2973 32.108 74.5398C32.4527 74.7784 32.7367 75.0852 32.9602 75.4602C33.1837 75.8352 33.2955 76.2955 33.2955 76.8409C33.2955 77.4697 33.1307 78.0379 32.8011 78.5455C32.4754 79.053 31.9981 79.4564 31.3693 79.7557C30.7443 80.0549 29.9848 80.2045 29.0909 80.2045C28.2576 80.2045 27.536 80.0701 26.9261 79.8011C26.3201 79.5322 25.8428 79.1572 25.4943 78.6761C25.1496 78.1951 24.9545 77.6364 24.9091 77H26.3636C26.4015 77.4394 26.5492 77.803 26.8068 78.0909C27.0682 78.375 27.3977 78.5871 27.7955 78.7273C28.197 78.8636 28.6288 78.9318 29.0909 78.9318C29.6288 78.9318 30.1117 78.8447 30.5398 78.6705C30.9678 78.4924 31.3068 78.2462 31.5568 77.9318C31.8068 77.6136 31.9318 77.2424 31.9318 76.8182C31.9318 76.4318 31.8239 76.1174 31.608 75.875C31.392 75.6326 31.108 75.4356 30.7557 75.2841C30.4034 75.1326 30.0227 75 29.6136 74.8864L28.1818 74.4773C27.2727 74.2159 26.553 73.8428 26.0227 73.358C25.4924 72.8731 25.2273 72.2386 25.2273 71.4545C25.2273 70.803 25.4034 70.2348 25.7557 69.75C26.1117 69.2614 26.589 68.8826 27.1875 68.6136C27.7898 68.3409 28.4621 68.2045 29.2045 68.2045C29.9545 68.2045 30.6212 68.339 31.2045 68.608C31.7879 68.8731 32.25 69.2367 32.5909 69.6989C32.9356 70.161 33.1174 70.6856 33.1364 71.2727H31.7727ZM39.0895 80.1818C38.2486 80.1818 37.5232 79.9962 36.9134 79.625C36.3073 79.25 35.8395 78.7273 35.5099 78.0568C35.1842 77.3826 35.0213 76.5985 35.0213 75.7045C35.0213 74.8106 35.1842 74.0227 35.5099 73.3409C35.8395 72.6553 36.2978 72.1212 36.8849 71.7386C37.4759 71.3523 38.1652 71.1591 38.9531 71.1591C39.4077 71.1591 39.8565 71.2348 40.2997 71.3864C40.7429 71.5379 41.1463 71.7841 41.5099 72.125C41.8736 72.4621 42.1634 72.9091 42.3793 73.4659C42.5952 74.0227 42.7031 74.7083 42.7031 75.5227V76.0909H35.9759V74.9318H41.3395C41.3395 74.4394 41.241 74 41.044 73.6136C40.8509 73.2273 40.5743 72.9223 40.2145 72.6989C39.8584 72.4754 39.438 72.3636 38.9531 72.3636C38.419 72.3636 37.9569 72.4962 37.5668 72.7614C37.1804 73.0227 36.883 73.3636 36.6747 73.7841C36.4664 74.2045 36.3622 74.6553 36.3622 75.1364V75.9091C36.3622 76.5682 36.4759 77.1269 36.7031 77.5852C36.9342 78.0398 37.2543 78.3864 37.6634 78.625C38.0724 78.8598 38.5478 78.9773 39.0895 78.9773C39.4418 78.9773 39.7599 78.928 40.044 78.8295C40.3319 78.7273 40.58 78.5758 40.7884 78.375C40.9967 78.1705 41.1577 77.9167 41.2713 77.6136L42.5668 77.9773C42.4304 78.4167 42.2012 78.803 41.8793 79.1364C41.5573 79.4659 41.1596 79.7235 40.6861 79.9091C40.2126 80.0909 39.6804 80.1818 39.0895 80.1818ZM48.2884 80.1818C47.4702 80.1818 46.7656 79.9886 46.1747 79.6023C45.5838 79.2159 45.1293 78.6837 44.8111 78.0057C44.4929 77.3277 44.3338 76.553 44.3338 75.6818C44.3338 74.7955 44.4967 74.0133 44.8224 73.3352C45.152 72.6534 45.6103 72.1212 46.1974 71.7386C46.7884 71.3523 47.4777 71.1591 48.2656 71.1591C48.8793 71.1591 49.4323 71.2727 49.9247 71.5C50.4171 71.7273 50.8205 72.0455 51.1349 72.4545C51.4493 72.8636 51.6444 73.3409 51.7202 73.8864H50.3793C50.277 73.4886 50.0497 73.1364 49.6974 72.8295C49.349 72.5189 48.8793 72.3636 48.2884 72.3636C47.7656 72.3636 47.3073 72.5 46.9134 72.7727C46.5232 73.0417 46.2183 73.4223 45.9986 73.9148C45.7827 74.4034 45.6747 74.9773 45.6747 75.6364C45.6747 76.3106 45.7808 76.8977 45.9929 77.3977C46.2088 77.8977 46.5118 78.286 46.902 78.5625C47.2959 78.839 47.758 78.9773 48.2884 78.9773C48.6368 78.9773 48.9531 78.9167 49.2372 78.7955C49.5213 78.6742 49.7618 78.5 49.9588 78.2727C50.1558 78.0455 50.2959 77.7727 50.3793 77.4545H51.7202C51.6444 77.9697 51.4569 78.4337 51.1577 78.8466C50.8622 79.2557 50.4702 79.5814 49.9815 79.8239C49.4967 80.0625 48.9323 80.1818 48.2884 80.1818ZM57.4759 71.2727V72.4091H52.9531V71.2727H57.4759ZM54.2713 69.1818H55.6122V77.5C55.6122 77.8788 55.6671 78.1629 55.777 78.3523C55.8906 78.5379 56.0346 78.6629 56.2088 78.7273C56.3868 78.7879 56.5743 78.8182 56.7713 78.8182C56.919 78.8182 57.0402 78.8106 57.1349 78.7955C57.2296 78.7765 57.3054 78.7614 57.3622 78.75L57.6349 79.9545C57.544 79.9886 57.4171 80.0227 57.2543 80.0568C57.0914 80.0947 56.8849 80.1136 56.6349 80.1136C56.2562 80.1136 55.8849 80.0322 55.5213 79.8693C55.1615 79.7064 54.8622 79.4583 54.6236 79.125C54.3887 78.7917 54.2713 78.3712 54.2713 77.8636V69.1818ZM59.4929 80V71.2727H60.8338V80H59.4929ZM60.1747 69.8182C59.9134 69.8182 59.688 69.7292 59.4986 69.5511C59.313 69.3731 59.2202 69.1591 59.2202 68.9091C59.2202 68.6591 59.313 68.4451 59.4986 68.267C59.688 68.089 59.9134 68 60.1747 68C60.4361 68 60.6596 68.089 60.8452 68.267C61.0346 68.4451 61.1293 68.6591 61.1293 68.9091C61.1293 69.1591 61.0346 69.3731 60.8452 69.5511C60.6596 69.7292 60.4361 69.8182 60.1747 69.8182ZM66.8352 80.1818C66.0473 80.1818 65.3561 79.9943 64.7614 79.6193C64.1705 79.2443 63.7083 78.7197 63.375 78.0455C63.0455 77.3712 62.8807 76.5833 62.8807 75.6818C62.8807 74.7727 63.0455 73.9792 63.375 73.3011C63.7083 72.6231 64.1705 72.0966 64.7614 71.7216C65.3561 71.3466 66.0473 71.1591 66.8352 71.1591C67.6231 71.1591 68.3125 71.3466 68.9034 71.7216C69.4981 72.0966 69.9602 72.6231 70.2898 73.3011C70.6231 73.9792 70.7898 74.7727 70.7898 75.6818C70.7898 76.5833 70.6231 77.3712 70.2898 78.0455C69.9602 78.7197 69.4981 79.2443 68.9034 79.6193C68.3125 79.9943 67.6231 80.1818 66.8352 80.1818ZM66.8352 78.9773C67.4337 78.9773 67.9261 78.8239 68.3125 78.517C68.6989 78.2102 68.9848 77.8068 69.1705 77.3068C69.3561 76.8068 69.4489 76.2652 69.4489 75.6818C69.4489 75.0985 69.3561 74.5549 69.1705 74.0511C68.9848 73.5473 68.6989 73.1402 68.3125 72.8295C67.9261 72.5189 67.4337 72.3636 66.8352 72.3636C66.2367 72.3636 65.7443 72.5189 65.358 72.8295C64.9716 73.1402 64.6856 73.5473 64.5 74.0511C64.3144 74.5549 64.2216 75.0985 64.2216 75.6818C64.2216 76.2652 64.3144 76.8068 64.5 77.3068C64.6856 77.8068 64.9716 78.2102 65.358 78.517C65.7443 78.8239 66.2367 78.9773 66.8352 78.9773ZM74.1776 74.75V80H72.8366V71.2727H74.1321V72.6364H74.2457C74.4503 72.1932 74.7609 71.8371 75.1776 71.5682C75.5942 71.2955 76.1321 71.1591 76.7912 71.1591C77.3821 71.1591 77.8991 71.2803 78.3423 71.5227C78.7855 71.7614 79.1302 72.125 79.3764 72.6136C79.6226 73.0985 79.7457 73.7121 79.7457 74.4545V80H78.4048V74.5455C78.4048 73.8598 78.2268 73.3258 77.8707 72.9432C77.5147 72.5568 77.026 72.3636 76.4048 72.3636C75.9768 72.3636 75.5942 72.4564 75.2571 72.642C74.9238 72.8277 74.6605 73.0985 74.4673 73.4545C74.2741 73.8106 74.1776 74.2424 74.1776 74.75ZM90.7642 68.3636V80H89.3551V69.8409H89.2869L86.446 71.7273V70.2955L89.3551 68.3636H90.7642Z" fill="#344054"/>
<mask id="path-2-inside-1_5269_2599" fill="white">
<path d="M117 34H221V114H117V34Z"/>
</mask>
<path d="M221 112H117V116H221V112Z" fill="#5925DC" mask="url(#path-2-inside-1_5269_2599)"/>
<path d="M124.773 71.2727C124.705 70.697 124.428 70.25 123.943 69.9318C123.458 69.6136 122.864 69.4545 122.159 69.4545C121.644 69.4545 121.193 69.5379 120.807 69.7045C120.424 69.8712 120.125 70.1004 119.909 70.392C119.697 70.6837 119.591 71.0152 119.591 71.3864C119.591 71.697 119.665 71.964 119.812 72.1875C119.964 72.4072 120.157 72.5909 120.392 72.7386C120.627 72.8826 120.873 73.0019 121.131 73.0966C121.388 73.1875 121.625 73.2614 121.841 73.3182L123.023 73.6364C123.326 73.7159 123.663 73.8258 124.034 73.9659C124.409 74.1061 124.767 74.2973 125.108 74.5398C125.453 74.7784 125.737 75.0852 125.96 75.4602C126.184 75.8352 126.295 76.2955 126.295 76.8409C126.295 77.4697 126.131 78.0379 125.801 78.5455C125.475 79.053 124.998 79.4564 124.369 79.7557C123.744 80.0549 122.985 80.2045 122.091 80.2045C121.258 80.2045 120.536 80.0701 119.926 79.8011C119.32 79.5322 118.843 79.1572 118.494 78.6761C118.15 78.1951 117.955 77.6364 117.909 77H119.364C119.402 77.4394 119.549 77.803 119.807 78.0909C120.068 78.375 120.398 78.5871 120.795 78.7273C121.197 78.8636 121.629 78.9318 122.091 78.9318C122.629 78.9318 123.112 78.8447 123.54 78.6705C123.968 78.4924 124.307 78.2462 124.557 77.9318C124.807 77.6136 124.932 77.2424 124.932 76.8182C124.932 76.4318 124.824 76.1174 124.608 75.875C124.392 75.6326 124.108 75.4356 123.756 75.2841C123.403 75.1326 123.023 75 122.614 74.8864L121.182 74.4773C120.273 74.2159 119.553 73.8428 119.023 73.358C118.492 72.8731 118.227 72.2386 118.227 71.4545C118.227 70.803 118.403 70.2348 118.756 69.75C119.112 69.2614 119.589 68.8826 120.188 68.6136C120.79 68.3409 121.462 68.2045 122.205 68.2045C122.955 68.2045 123.621 68.339 124.205 68.608C124.788 68.8731 125.25 69.2367 125.591 69.6989C125.936 70.161 126.117 70.6856 126.136 71.2727H124.773ZM132.089 80.1818C131.249 80.1818 130.523 79.9962 129.913 79.625C129.307 79.25 128.839 78.7273 128.51 78.0568C128.184 77.3826 128.021 76.5985 128.021 75.7045C128.021 74.8106 128.184 74.0227 128.51 73.3409C128.839 72.6553 129.298 72.1212 129.885 71.7386C130.476 71.3523 131.165 71.1591 131.953 71.1591C132.408 71.1591 132.857 71.2348 133.3 71.3864C133.743 71.5379 134.146 71.7841 134.51 72.125C134.874 72.4621 135.163 72.9091 135.379 73.4659C135.595 74.0227 135.703 74.7083 135.703 75.5227V76.0909H128.976V74.9318H134.339C134.339 74.4394 134.241 74 134.044 73.6136C133.851 73.2273 133.574 72.9223 133.214 72.6989C132.858 72.4754 132.438 72.3636 131.953 72.3636C131.419 72.3636 130.957 72.4962 130.567 72.7614C130.18 73.0227 129.883 73.3636 129.675 73.7841C129.466 74.2045 129.362 74.6553 129.362 75.1364V75.9091C129.362 76.5682 129.476 77.1269 129.703 77.5852C129.934 78.0398 130.254 78.3864 130.663 78.625C131.072 78.8598 131.548 78.9773 132.089 78.9773C132.442 78.9773 132.76 78.928 133.044 78.8295C133.332 78.7273 133.58 78.5758 133.788 78.375C133.997 78.1705 134.158 77.9167 134.271 77.6136L135.567 77.9773C135.43 78.4167 135.201 78.803 134.879 79.1364C134.557 79.4659 134.16 79.7235 133.686 79.9091C133.213 80.0909 132.68 80.1818 132.089 80.1818ZM141.288 80.1818C140.47 80.1818 139.766 79.9886 139.175 79.6023C138.584 79.2159 138.129 78.6837 137.811 78.0057C137.493 77.3277 137.334 76.553 137.334 75.6818C137.334 74.7955 137.497 74.0133 137.822 73.3352C138.152 72.6534 138.61 72.1212 139.197 71.7386C139.788 71.3523 140.478 71.1591 141.266 71.1591C141.879 71.1591 142.432 71.2727 142.925 71.5C143.417 71.7273 143.821 72.0455 144.135 72.4545C144.449 72.8636 144.644 73.3409 144.72 73.8864H143.379C143.277 73.4886 143.05 73.1364 142.697 72.8295C142.349 72.5189 141.879 72.3636 141.288 72.3636C140.766 72.3636 140.307 72.5 139.913 72.7727C139.523 73.0417 139.218 73.4223 138.999 73.9148C138.783 74.4034 138.675 74.9773 138.675 75.6364C138.675 76.3106 138.781 76.8977 138.993 77.3977C139.209 77.8977 139.512 78.286 139.902 78.5625C140.296 78.839 140.758 78.9773 141.288 78.9773C141.637 78.9773 141.953 78.9167 142.237 78.7955C142.521 78.6742 142.762 78.5 142.959 78.2727C143.156 78.0455 143.296 77.7727 143.379 77.4545H144.72C144.644 77.9697 144.457 78.4337 144.158 78.8466C143.862 79.2557 143.47 79.5814 142.982 79.8239C142.497 80.0625 141.932 80.1818 141.288 80.1818ZM150.476 71.2727V72.4091H145.953V71.2727H150.476ZM147.271 69.1818H148.612V77.5C148.612 77.8788 148.667 78.1629 148.777 78.3523C148.891 78.5379 149.035 78.6629 149.209 78.7273C149.387 78.7879 149.574 78.8182 149.771 78.8182C149.919 78.8182 150.04 78.8106 150.135 78.7955C150.23 78.7765 150.305 78.7614 150.362 78.75L150.635 79.9545C150.544 79.9886 150.417 80.0227 150.254 80.0568C150.091 80.0947 149.885 80.1136 149.635 80.1136C149.256 80.1136 148.885 80.0322 148.521 79.8693C148.161 79.7064 147.862 79.4583 147.624 79.125C147.389 78.7917 147.271 78.3712 147.271 77.8636V69.1818ZM152.493 80V71.2727H153.834V80H152.493ZM153.175 69.8182C152.913 69.8182 152.688 69.7292 152.499 69.5511C152.313 69.3731 152.22 69.1591 152.22 68.9091C152.22 68.6591 152.313 68.4451 152.499 68.267C152.688 68.089 152.913 68 153.175 68C153.436 68 153.66 68.089 153.845 68.267C154.035 68.4451 154.129 68.6591 154.129 68.9091C154.129 69.1591 154.035 69.3731 153.845 69.5511C153.66 69.7292 153.436 69.8182 153.175 69.8182ZM159.835 80.1818C159.047 80.1818 158.356 79.9943 157.761 79.6193C157.17 79.2443 156.708 78.7197 156.375 78.0455C156.045 77.3712 155.881 76.5833 155.881 75.6818C155.881 74.7727 156.045 73.9792 156.375 73.3011C156.708 72.6231 157.17 72.0966 157.761 71.7216C158.356 71.3466 159.047 71.1591 159.835 71.1591C160.623 71.1591 161.313 71.3466 161.903 71.7216C162.498 72.0966 162.96 72.6231 163.29 73.3011C163.623 73.9792 163.79 74.7727 163.79 75.6818C163.79 76.5833 163.623 77.3712 163.29 78.0455C162.96 78.7197 162.498 79.2443 161.903 79.6193C161.313 79.9943 160.623 80.1818 159.835 80.1818ZM159.835 78.9773C160.434 78.9773 160.926 78.8239 161.312 78.517C161.699 78.2102 161.985 77.8068 162.17 77.3068C162.356 76.8068 162.449 76.2652 162.449 75.6818C162.449 75.0985 162.356 74.5549 162.17 74.0511C161.985 73.5473 161.699 73.1402 161.312 72.8295C160.926 72.5189 160.434 72.3636 159.835 72.3636C159.237 72.3636 158.744 72.5189 158.358 72.8295C157.972 73.1402 157.686 73.5473 157.5 74.0511C157.314 74.5549 157.222 75.0985 157.222 75.6818C157.222 76.2652 157.314 76.8068 157.5 77.3068C157.686 77.8068 157.972 78.2102 158.358 78.517C158.744 78.8239 159.237 78.9773 159.835 78.9773ZM167.178 74.75V80H165.837V71.2727H167.132V72.6364H167.246C167.45 72.1932 167.761 71.8371 168.178 71.5682C168.594 71.2955 169.132 71.1591 169.791 71.1591C170.382 71.1591 170.899 71.2803 171.342 71.5227C171.786 71.7614 172.13 72.125 172.376 72.6136C172.623 73.0985 172.746 73.7121 172.746 74.4545V80H171.405V74.5455C171.405 73.8598 171.227 73.3258 170.871 72.9432C170.515 72.5568 170.026 72.3636 169.405 72.3636C168.977 72.3636 168.594 72.4564 168.257 72.642C167.924 72.8277 167.661 73.0985 167.467 73.4545C167.274 73.8106 167.178 74.2424 167.178 74.75ZM179.673 80V78.9773L183.514 74.7727C183.965 74.2803 184.336 73.8523 184.628 73.4886C184.92 73.1212 185.135 72.7765 185.276 72.4545C185.42 72.1288 185.491 71.7879 185.491 71.4318C185.491 71.0227 185.393 70.6686 185.196 70.3693C185.003 70.0701 184.738 69.839 184.401 69.6761C184.063 69.5133 183.685 69.4318 183.264 69.4318C182.817 69.4318 182.427 69.5246 182.094 69.7102C181.764 69.892 181.509 70.1477 181.327 70.4773C181.149 70.8068 181.06 71.1932 181.06 71.6364H179.719C179.719 70.9545 179.876 70.3561 180.19 69.8409C180.505 69.3258 180.933 68.9242 181.474 68.6364C182.02 68.3485 182.632 68.2045 183.31 68.2045C183.991 68.2045 184.596 68.3485 185.122 68.6364C185.649 68.9242 186.062 69.3125 186.361 69.8011C186.66 70.2898 186.81 70.8333 186.81 71.4318C186.81 71.8598 186.732 72.2784 186.577 72.6875C186.425 73.0928 186.16 73.5455 185.781 74.0455C185.406 74.5417 184.885 75.1477 184.219 75.8636L181.605 78.6591V78.75H187.014V80H179.673Z" fill="#5925DC"/>
<path fill-rule="evenodd" clip-rule="evenodd" d="M207.136 70.9044C207.178 70.8614 207.229 70.8273 207.285 70.804C207.342 70.7808 207.402 70.7688 207.462 70.7688C207.523 70.7688 207.583 70.7808 207.639 70.804C207.695 70.8273 207.746 70.8614 207.789 70.9044L213 76.1164L218.211 70.9044C218.254 70.8615 218.305 70.8274 218.361 70.8042C218.417 70.781 218.477 70.769 218.538 70.769C218.599 70.769 218.659 70.781 218.715 70.8042C218.771 70.8274 218.822 70.8615 218.865 70.9044C218.908 70.9473 218.942 70.9982 218.965 71.0543C218.988 71.1103 219 71.1704 219 71.2311C219 71.2918 218.988 71.3519 218.965 71.4079C218.942 71.464 218.908 71.5149 218.865 71.5578L213.327 77.0957C213.284 77.1386 213.233 77.1727 213.177 77.196C213.121 77.2193 213.061 77.2312 213 77.2312C212.939 77.2312 212.879 77.2193 212.823 77.196C212.767 77.1727 212.716 77.1386 212.673 77.0957L207.136 71.5578C207.093 71.515 207.059 71.464 207.035 71.408C207.012 71.3519 207 71.2918 207 71.2311C207 71.1704 207.012 71.1103 207.035 71.0542C207.059 70.9982 207.093 70.9472 207.136 70.9044Z" fill="#344054"/>
<path d="M252.773 71.2727C252.705 70.697 252.428 70.25 251.943 69.9318C251.458 69.6136 250.864 69.4545 250.159 69.4545C249.644 69.4545 249.193 69.5379 248.807 69.7045C248.424 69.8712 248.125 70.1004 247.909 70.392C247.697 70.6837 247.591 71.0152 247.591 71.3864C247.591 71.697 247.665 71.964 247.812 72.1875C247.964 72.4072 248.157 72.5909 248.392 72.7386C248.627 72.8826 248.873 73.0019 249.131 73.0966C249.388 73.1875 249.625 73.2614 249.841 73.3182L251.023 73.6364C251.326 73.7159 251.663 73.8258 252.034 73.9659C252.409 74.1061 252.767 74.2973 253.108 74.5398C253.453 74.7784 253.737 75.0852 253.96 75.4602C254.184 75.8352 254.295 76.2955 254.295 76.8409C254.295 77.4697 254.131 78.0379 253.801 78.5455C253.475 79.053 252.998 79.4564 252.369 79.7557C251.744 80.0549 250.985 80.2045 250.091 80.2045C249.258 80.2045 248.536 80.0701 247.926 79.8011C247.32 79.5322 246.843 79.1572 246.494 78.6761C246.15 78.1951 245.955 77.6364 245.909 77H247.364C247.402 77.4394 247.549 77.803 247.807 78.0909C248.068 78.375 248.398 78.5871 248.795 78.7273C249.197 78.8636 249.629 78.9318 250.091 78.9318C250.629 78.9318 251.112 78.8447 251.54 78.6705C251.968 78.4924 252.307 78.2462 252.557 77.9318C252.807 77.6136 252.932 77.2424 252.932 76.8182C252.932 76.4318 252.824 76.1174 252.608 75.875C252.392 75.6326 252.108 75.4356 251.756 75.2841C251.403 75.1326 251.023 75 250.614 74.8864L249.182 74.4773C248.273 74.2159 247.553 73.8428 247.023 73.358C246.492 72.8731 246.227 72.2386 246.227 71.4545C246.227 70.803 246.403 70.2348 246.756 69.75C247.112 69.2614 247.589 68.8826 248.188 68.6136C248.79 68.3409 249.462 68.2045 250.205 68.2045C250.955 68.2045 251.621 68.339 252.205 68.608C252.788 68.8731 253.25 69.2367 253.591 69.6989C253.936 70.161 254.117 70.6856 254.136 71.2727H252.773ZM260.089 80.1818C259.249 80.1818 258.523 79.9962 257.913 79.625C257.307 79.25 256.839 78.7273 256.51 78.0568C256.184 77.3826 256.021 76.5985 256.021 75.7045C256.021 74.8106 256.184 74.0227 256.51 73.3409C256.839 72.6553 257.298 72.1212 257.885 71.7386C258.476 71.3523 259.165 71.1591 259.953 71.1591C260.408 71.1591 260.857 71.2348 261.3 71.3864C261.743 71.5379 262.146 71.7841 262.51 72.125C262.874 72.4621 263.163 72.9091 263.379 73.4659C263.595 74.0227 263.703 74.7083 263.703 75.5227V76.0909H256.976V74.9318H262.339C262.339 74.4394 262.241 74 262.044 73.6136C261.851 73.2273 261.574 72.9223 261.214 72.6989C260.858 72.4754 260.438 72.3636 259.953 72.3636C259.419 72.3636 258.957 72.4962 258.567 72.7614C258.18 73.0227 257.883 73.3636 257.675 73.7841C257.466 74.2045 257.362 74.6553 257.362 75.1364V75.9091C257.362 76.5682 257.476 77.1269 257.703 77.5852C257.934 78.0398 258.254 78.3864 258.663 78.625C259.072 78.8598 259.548 78.9773 260.089 78.9773C260.442 78.9773 260.76 78.928 261.044 78.8295C261.332 78.7273 261.58 78.5758 261.788 78.375C261.997 78.1705 262.158 77.9167 262.271 77.6136L263.567 77.9773C263.43 78.4167 263.201 78.803 262.879 79.1364C262.557 79.4659 262.16 79.7235 261.686 79.9091C261.213 80.0909 260.68 80.1818 260.089 80.1818ZM269.288 80.1818C268.47 80.1818 267.766 79.9886 267.175 79.6023C266.584 79.2159 266.129 78.6837 265.811 78.0057C265.493 77.3277 265.334 76.553 265.334 75.6818C265.334 74.7955 265.497 74.0133 265.822 73.3352C266.152 72.6534 266.61 72.1212 267.197 71.7386C267.788 71.3523 268.478 71.1591 269.266 71.1591C269.879 71.1591 270.432 71.2727 270.925 71.5C271.417 71.7273 271.821 72.0455 272.135 72.4545C272.449 72.8636 272.644 73.3409 272.72 73.8864H271.379C271.277 73.4886 271.05 73.1364 270.697 72.8295C270.349 72.5189 269.879 72.3636 269.288 72.3636C268.766 72.3636 268.307 72.5 267.913 72.7727C267.523 73.0417 267.218 73.4223 266.999 73.9148C266.783 74.4034 266.675 74.9773 266.675 75.6364C266.675 76.3106 266.781 76.8977 266.993 77.3977C267.209 77.8977 267.512 78.286 267.902 78.5625C268.296 78.839 268.758 78.9773 269.288 78.9773C269.637 78.9773 269.953 78.9167 270.237 78.7955C270.521 78.6742 270.762 78.5 270.959 78.2727C271.156 78.0455 271.296 77.7727 271.379 77.4545H272.72C272.644 77.9697 272.457 78.4337 272.158 78.8466C271.862 79.2557 271.47 79.5814 270.982 79.8239C270.497 80.0625 269.932 80.1818 269.288 80.1818ZM278.476 71.2727V72.4091H273.953V71.2727H278.476ZM275.271 69.1818H276.612V77.5C276.612 77.8788 276.667 78.1629 276.777 78.3523C276.891 78.5379 277.035 78.6629 277.209 78.7273C277.387 78.7879 277.574 78.8182 277.771 78.8182C277.919 78.8182 278.04 78.8106 278.135 78.7955C278.23 78.7765 278.305 78.7614 278.362 78.75L278.635 79.9545C278.544 79.9886 278.417 80.0227 278.254 80.0568C278.091 80.0947 277.885 80.1136 277.635 80.1136C277.256 80.1136 276.885 80.0322 276.521 79.8693C276.161 79.7064 275.862 79.4583 275.624 79.125C275.389 78.7917 275.271 78.3712 275.271 77.8636V69.1818ZM280.493 80V71.2727H281.834V80H280.493ZM281.175 69.8182C280.913 69.8182 280.688 69.7292 280.499 69.5511C280.313 69.3731 280.22 69.1591 280.22 68.9091C280.22 68.6591 280.313 68.4451 280.499 68.267C280.688 68.089 280.913 68 281.175 68C281.436 68 281.66 68.089 281.845 68.267C282.035 68.4451 282.129 68.6591 282.129 68.9091C282.129 69.1591 282.035 69.3731 281.845 69.5511C281.66 69.7292 281.436 69.8182 281.175 69.8182ZM287.835 80.1818C287.047 80.1818 286.356 79.9943 285.761 79.6193C285.17 79.2443 284.708 78.7197 284.375 78.0455C284.045 77.3712 283.881 76.5833 283.881 75.6818C283.881 74.7727 284.045 73.9792 284.375 73.3011C284.708 72.6231 285.17 72.0966 285.761 71.7216C286.356 71.3466 287.047 71.1591 287.835 71.1591C288.623 71.1591 289.313 71.3466 289.903 71.7216C290.498 72.0966 290.96 72.6231 291.29 73.3011C291.623 73.9792 291.79 74.7727 291.79 75.6818C291.79 76.5833 291.623 77.3712 291.29 78.0455C290.96 78.7197 290.498 79.2443 289.903 79.6193C289.313 79.9943 288.623 80.1818 287.835 80.1818ZM287.835 78.9773C288.434 78.9773 288.926 78.8239 289.312 78.517C289.699 78.2102 289.985 77.8068 290.17 77.3068C290.356 76.8068 290.449 76.2652 290.449 75.6818C290.449 75.0985 290.356 74.5549 290.17 74.0511C289.985 73.5473 289.699 73.1402 289.312 72.8295C288.926 72.5189 288.434 72.3636 287.835 72.3636C287.237 72.3636 286.744 72.5189 286.358 72.8295C285.972 73.1402 285.686 73.5473 285.5 74.0511C285.314 74.5549 285.222 75.0985 285.222 75.6818C285.222 76.2652 285.314 76.8068 285.5 77.3068C285.686 77.8068 285.972 78.2102 286.358 78.517C286.744 78.8239 287.237 78.9773 287.835 78.9773ZM295.178 74.75V80H293.837V71.2727H295.132V72.6364H295.246C295.45 72.1932 295.761 71.8371 296.178 71.5682C296.594 71.2955 297.132 71.1591 297.791 71.1591C298.382 71.1591 298.899 71.2803 299.342 71.5227C299.786 71.7614 300.13 72.125 300.376 72.6136C300.623 73.0985 300.746 73.7121 300.746 74.4545V80H299.405V74.5455C299.405 73.8598 299.227 73.3258 298.871 72.9432C298.515 72.5568 298.026 72.3636 297.405 72.3636C296.977 72.3636 296.594 72.4564 296.257 72.642C295.924 72.8277 295.661 73.0985 295.467 73.4545C295.274 73.8106 295.178 74.2424 295.178 74.75ZM311.605 80.1591C310.855 80.1591 310.187 80.0303 309.599 79.7727C309.016 79.5152 308.552 79.1572 308.207 78.6989C307.866 78.2367 307.681 77.7008 307.651 77.0909H309.082C309.113 77.4659 309.241 77.7898 309.469 78.0625C309.696 78.3314 309.993 78.5398 310.361 78.6875C310.728 78.8352 311.135 78.9091 311.582 78.9091C312.082 78.9091 312.526 78.822 312.912 78.6477C313.298 78.4735 313.601 78.2311 313.821 77.9205C314.041 77.6098 314.151 77.25 314.151 76.8409C314.151 76.4129 314.045 76.036 313.832 75.7102C313.62 75.3807 313.31 75.1231 312.901 74.9375C312.491 74.7519 311.991 74.6591 311.401 74.6591H310.469V73.4091H311.401C311.863 73.4091 312.268 73.3258 312.616 73.1591C312.969 72.9924 313.243 72.7576 313.44 72.4545C313.641 72.1515 313.741 71.7955 313.741 71.3864C313.741 70.9924 313.654 70.6496 313.48 70.358C313.306 70.0663 313.06 69.839 312.741 69.6761C312.427 69.5133 312.056 69.4318 311.628 69.4318C311.226 69.4318 310.848 69.5057 310.491 69.6534C310.139 69.7973 309.851 70.0076 309.628 70.2841C309.404 70.5568 309.283 70.8864 309.264 71.2727H307.901C307.923 70.6629 308.107 70.1288 308.452 69.6705C308.796 69.2083 309.247 68.8485 309.804 68.5909C310.365 68.3333 310.98 68.2045 311.651 68.2045C312.37 68.2045 312.988 68.3504 313.503 68.642C314.018 68.9299 314.414 69.3106 314.69 69.7841C314.967 70.2576 315.105 70.7689 315.105 71.3182C315.105 71.9735 314.933 72.5322 314.588 72.9943C314.247 73.4564 313.783 73.7765 313.196 73.9545V74.0455C313.931 74.1667 314.505 74.4792 314.918 74.983C315.33 75.483 315.537 76.1023 315.537 76.8409C315.537 77.4735 315.365 78.0417 315.02 78.5455C314.679 79.0455 314.213 79.4394 313.622 79.7273C313.031 80.0152 312.359 80.1591 311.605 80.1591Z" fill="#344054"/>
<rect x="93" y="34" width="24" height="78" fill="#E8178A" fill-opacity="0.24"/>
<rect x="221" y="34" width="24" height="78" fill="#E8178A" fill-opacity="0.24"/>
<rect y="88" width="385" height="24" fill="#E8178A" fill-opacity="0.24"/>
<rect y="34" width="385" height="24" fill="#E8178A" fill-opacity="0.24"/>
<rect x="189" y="34" width="16" height="78" fill="#E8178A" fill-opacity="0.24"/>
<path d="M93 123H117" stroke="#E8178A"/>
<rect x="86" y="131" width="37" height="18" rx="3" fill="#E8178A"/>
<path d="M92.5895 144V142.892L95.1783 140.495C95.3984 140.282 95.5831 140.09 95.7322 139.92C95.8838 139.749 95.9986 139.582 96.0767 139.419C96.1548 139.253 96.1939 139.075 96.1939 138.883C96.1939 138.67 96.1454 138.486 96.0483 138.332C95.9512 138.176 95.8187 138.057 95.6506 137.974C95.4825 137.888 95.2919 137.846 95.0788 137.846C94.8563 137.846 94.6622 137.891 94.4964 137.981C94.3307 138.071 94.2029 138.2 94.1129 138.368C94.023 138.536 93.978 138.736 93.978 138.968H92.5185C92.5185 138.492 92.6262 138.079 92.8416 137.729C93.0571 137.378 93.3589 137.107 93.7472 136.915C94.1354 136.724 94.5829 136.628 95.0895 136.628C95.6103 136.628 96.0637 136.72 96.4496 136.905C96.8378 137.087 97.1397 137.34 97.3551 137.665C97.5705 137.989 97.6783 138.361 97.6783 138.78C97.6783 139.054 97.6238 139.326 97.5149 139.593C97.4084 139.861 97.2178 140.158 96.9432 140.484C96.6686 140.809 96.2815 141.198 95.782 141.653L94.7202 142.693V142.743H97.7741V144H92.5895ZM98.622 142.722V141.511L101.658 136.727H102.702V138.403H102.084L100.17 141.433V141.489H104.485V142.722H98.622ZM102.113 144V142.352L102.141 141.816V136.727H103.583V144H102.113ZM105.524 146.045V138.545H107.015V139.462H107.083C107.149 139.315 107.245 139.166 107.37 139.014C107.498 138.86 107.664 138.732 107.867 138.631C108.073 138.527 108.329 138.474 108.634 138.474C109.032 138.474 109.399 138.579 109.735 138.787C110.071 138.993 110.34 139.304 110.541 139.721C110.743 140.135 110.843 140.655 110.843 141.28C110.843 141.888 110.745 142.402 110.548 142.821C110.354 143.238 110.089 143.554 109.753 143.769C109.419 143.982 109.045 144.089 108.631 144.089C108.337 144.089 108.088 144.04 107.882 143.943C107.678 143.846 107.511 143.724 107.381 143.577C107.251 143.428 107.151 143.278 107.083 143.126H107.036V146.045H105.524ZM107.004 141.273C107.004 141.597 107.049 141.88 107.139 142.121C107.229 142.363 107.36 142.551 107.53 142.686C107.7 142.819 107.908 142.885 108.151 142.885C108.398 142.885 108.606 142.817 108.776 142.683C108.947 142.545 109.076 142.356 109.164 142.114C109.253 141.871 109.298 141.59 109.298 141.273C109.298 140.958 109.255 140.681 109.167 140.442C109.079 140.203 108.95 140.016 108.78 139.881C108.61 139.746 108.4 139.678 108.151 139.678C107.905 139.678 107.697 139.743 107.526 139.874C107.358 140.004 107.229 140.188 107.139 140.428C107.049 140.667 107.004 140.948 107.004 141.273ZM112.921 138.545L113.922 140.452L114.948 138.545H116.5L114.92 141.273L116.543 144H114.998L113.922 142.114L112.864 144H111.301L112.921 141.273L111.358 138.545H112.921Z" fill="white"/>
<line x1="93.5" y1="127" x2="93.5" y2="120" stroke="#E8178A"/>
<line x1="116.5" y1="127" x2="116.5" y2="120" stroke="#E8178A"/>
<path d="M395 112L395 88" stroke="#E8178A"/>
<rect x="404" y="91" width="37" height="18" rx="3" fill="#E8178A"/>
<path d="M410.589 104V102.892L413.178 100.495C413.398 100.282 413.583 100.09 413.732 99.9197C413.884 99.7493 413.999 99.5824 414.077 99.419C414.155 99.2533 414.194 99.0746 414.194 98.8828C414.194 98.6697 414.145 98.4863 414.048 98.3324C413.951 98.1761 413.819 98.0566 413.651 97.9737C413.482 97.8885 413.292 97.8459 413.079 97.8459C412.856 97.8459 412.662 97.8909 412.496 97.9808C412.331 98.0708 412.203 98.1998 412.113 98.3679C412.023 98.536 411.978 98.736 411.978 98.968H410.518C410.518 98.4922 410.626 98.0791 410.842 97.7287C411.057 97.3783 411.359 97.1072 411.747 96.9155C412.135 96.7237 412.583 96.6278 413.089 96.6278C413.61 96.6278 414.064 96.7202 414.45 96.9048C414.838 97.0871 415.14 97.3404 415.355 97.6648C415.571 97.9891 415.678 98.3608 415.678 98.7798C415.678 99.0545 415.624 99.3255 415.515 99.593C415.408 99.8606 415.218 100.158 414.943 100.484C414.669 100.809 414.281 101.198 413.782 101.653L412.72 102.693V102.743H415.774V104H410.589ZM416.622 102.722V101.511L419.658 96.7273H420.702V98.4034H420.084L418.17 101.433V101.489H422.485V102.722H416.622ZM420.113 104V102.352L420.141 101.816V96.7273H421.583V104H420.113ZM423.524 106.045V98.5455H425.015V99.4616H425.083C425.149 99.3149 425.245 99.1657 425.37 99.0142C425.498 98.8603 425.664 98.7325 425.867 98.6307C426.073 98.5265 426.329 98.4744 426.634 98.4744C427.032 98.4744 427.399 98.5786 427.735 98.7869C428.071 98.9929 428.34 99.3042 428.541 99.7209C428.743 100.135 428.843 100.655 428.843 101.28C428.843 101.888 428.745 102.402 428.548 102.821C428.354 103.238 428.089 103.554 427.753 103.769C427.419 103.982 427.045 104.089 426.631 104.089C426.337 104.089 426.088 104.04 425.882 103.943C425.678 103.846 425.511 103.724 425.381 103.577C425.251 103.428 425.151 103.278 425.083 103.126H425.036V106.045H423.524ZM425.004 101.273C425.004 101.597 425.049 101.88 425.139 102.121C425.229 102.363 425.36 102.551 425.53 102.686C425.7 102.819 425.908 102.885 426.151 102.885C426.398 102.885 426.606 102.817 426.776 102.683C426.947 102.545 427.076 102.356 427.164 102.114C427.253 101.871 427.298 101.59 427.298 101.273C427.298 100.958 427.255 100.681 427.167 100.442C427.079 100.203 426.95 100.016 426.78 99.8807C426.61 99.7457 426.4 99.6783 426.151 99.6783C425.905 99.6783 425.697 99.7434 425.526 99.8736C425.358 100.004 425.229 100.188 425.139 100.428C425.049 100.667 425.004 100.948 425.004 101.273ZM430.921 98.5455L431.922 100.452L432.948 98.5455H434.5L432.92 101.273L434.543 104H432.998L431.922 102.114L430.864 104H429.301L430.921 101.273L429.358 98.5455H430.921Z" fill="white"/>
<line x1="398" y1="111.5" x2="391" y2="111.5" stroke="#E8178A"/>
<line x1="398" y1="88.5" x2="391" y2="88.5" stroke="#E8178A"/>
<path d="M221 123H245" stroke="#E8178A"/>
<rect x="214" y="131" width="37" height="18" rx="3" fill="#E8178A"/>
<path d="M220.589 144V142.892L223.178 140.495C223.398 140.282 223.583 140.09 223.732 139.92C223.884 139.749 223.999 139.582 224.077 139.419C224.155 139.253 224.194 139.075 224.194 138.883C224.194 138.67 224.145 138.486 224.048 138.332C223.951 138.176 223.819 138.057 223.651 137.974C223.482 137.888 223.292 137.846 223.079 137.846C222.856 137.846 222.662 137.891 222.496 137.981C222.331 138.071 222.203 138.2 222.113 138.368C222.023 138.536 221.978 138.736 221.978 138.968H220.518C220.518 138.492 220.626 138.079 220.842 137.729C221.057 137.378 221.359 137.107 221.747 136.915C222.135 136.724 222.583 136.628 223.089 136.628C223.61 136.628 224.064 136.72 224.45 136.905C224.838 137.087 225.14 137.34 225.355 137.665C225.571 137.989 225.678 138.361 225.678 138.78C225.678 139.054 225.624 139.326 225.515 139.593C225.408 139.861 225.218 140.158 224.943 140.484C224.669 140.809 224.281 141.198 223.782 141.653L222.72 142.693V142.743H225.774V144H220.589ZM226.622 142.722V141.511L229.658 136.727H230.702V138.403H230.084L228.17 141.433V141.489H232.485V142.722H226.622ZM230.113 144V142.352L230.141 141.816V136.727H231.583V144H230.113ZM233.524 146.045V138.545H235.015V139.462H235.083C235.149 139.315 235.245 139.166 235.37 139.014C235.498 138.86 235.664 138.732 235.867 138.631C236.073 138.527 236.329 138.474 236.634 138.474C237.032 138.474 237.399 138.579 237.735 138.787C238.071 138.993 238.34 139.304 238.541 139.721C238.743 140.135 238.843 140.655 238.843 141.28C238.843 141.888 238.745 142.402 238.548 142.821C238.354 143.238 238.089 143.554 237.753 143.769C237.419 143.982 237.045 144.089 236.631 144.089C236.337 144.089 236.088 144.04 235.882 143.943C235.678 143.846 235.511 143.724 235.381 143.577C235.251 143.428 235.151 143.278 235.083 143.126H235.036V146.045H233.524ZM235.004 141.273C235.004 141.597 235.049 141.88 235.139 142.121C235.229 142.363 235.36 142.551 235.53 142.686C235.7 142.819 235.908 142.885 236.151 142.885C236.398 142.885 236.606 142.817 236.776 142.683C236.947 142.545 237.076 142.356 237.164 142.114C237.253 141.871 237.298 141.59 237.298 141.273C237.298 140.958 237.255 140.681 237.167 140.442C237.079 140.203 236.95 140.016 236.78 139.881C236.61 139.746 236.4 139.678 236.151 139.678C235.905 139.678 235.697 139.743 235.526 139.874C235.358 140.004 235.229 140.188 235.139 140.428C235.049 140.667 235.004 140.948 235.004 141.273ZM240.921 138.545L241.922 140.452L242.948 138.545H244.5L242.92 141.273L244.543 144H242.998L241.922 142.114L240.864 144H239.301L240.921 141.273L239.358 138.545H240.921Z" fill="white"/>
<line x1="221.5" y1="127" x2="221.5" y2="120" stroke="#E8178A"/>
<line x1="244.5" y1="127" x2="244.5" y2="120" stroke="#E8178A"/>
<path d="M189 26H205" stroke="#E8178A"/>
<rect x="179" width="36" height="18" rx="3" fill="#E8178A"/>
<path d="M188.754 5.72727V13H187.216V7.18679H187.173L185.508 8.23082V6.86719L187.308 5.72727H188.754ZM193.273 13.0994C192.899 13.0971 192.538 13.0343 192.19 12.9112C191.845 12.7881 191.534 12.5881 191.26 12.3111C190.985 12.0341 190.767 11.6671 190.606 11.2102C190.448 10.7533 190.368 10.1922 190.368 9.52699C190.371 8.91619 190.441 8.3705 190.578 7.88991C190.718 7.40696 190.916 6.9974 191.175 6.66122C191.435 6.32505 191.746 6.06937 192.108 5.89418C192.471 5.71662 192.877 5.62784 193.327 5.62784C193.812 5.62784 194.24 5.72254 194.612 5.91193C194.984 6.09896 195.282 6.35346 195.507 6.67543C195.734 6.9974 195.872 7.35843 195.919 7.75852H194.403C194.343 7.50521 194.219 7.30634 194.03 7.16193C193.84 7.01752 193.606 6.94531 193.327 6.94531C192.853 6.94531 192.493 7.15128 192.247 7.56321C192.003 7.97514 191.879 8.53504 191.874 9.2429H191.924C192.033 9.02746 192.18 8.84399 192.364 8.69247C192.551 8.53859 192.763 8.4214 193 8.34091C193.239 8.25805 193.491 8.21662 193.756 8.21662C194.187 8.21662 194.571 8.31842 194.907 8.52202C195.243 8.72325 195.508 9.00024 195.702 9.35298C195.896 9.70573 195.993 10.1094 195.993 10.5639C195.993 11.0563 195.879 11.4943 195.649 11.8778C195.422 12.2614 195.103 12.562 194.694 12.7798C194.287 12.9953 193.813 13.1018 193.273 13.0994ZM193.266 11.892C193.503 11.892 193.715 11.8352 193.902 11.7216C194.089 11.608 194.236 11.4541 194.342 11.2599C194.449 11.0658 194.502 10.848 194.502 10.6065C194.502 10.3651 194.449 10.1484 194.342 9.95668C194.238 9.76491 194.094 9.61222 193.909 9.49858C193.724 9.38494 193.514 9.32812 193.277 9.32812C193.099 9.32812 192.935 9.36127 192.783 9.42756C192.634 9.49384 192.503 9.58617 192.389 9.70455C192.278 9.82292 192.19 9.96023 192.126 10.1165C192.062 10.2704 192.03 10.4349 192.03 10.6101C192.03 10.8445 192.084 11.0587 192.19 11.2528C192.299 11.447 192.446 11.602 192.631 11.718C192.818 11.834 193.029 11.892 193.266 11.892ZM197.098 15.0455V7.54545H198.589V8.46165H198.657C198.723 8.31487 198.819 8.16572 198.944 8.0142C199.072 7.86032 199.238 7.73248 199.442 7.63068C199.648 7.52652 199.903 7.47443 200.209 7.47443C200.606 7.47443 200.973 7.5786 201.309 7.78693C201.646 7.9929 201.914 8.30421 202.116 8.72088C202.317 9.13518 202.417 9.65483 202.417 10.2798C202.417 10.8883 202.319 11.402 202.123 11.821C201.929 12.2377 201.663 12.5537 201.327 12.7692C200.993 12.9822 200.619 13.0888 200.205 13.0888C199.912 13.0888 199.662 13.0402 199.456 12.9432C199.252 12.8461 199.085 12.7242 198.955 12.5774C198.825 12.4283 198.725 12.2779 198.657 12.1264H198.611V15.0455H197.098ZM198.579 10.2727C198.579 10.5971 198.624 10.88 198.714 11.1214C198.804 11.3629 198.934 11.5511 199.104 11.6861C199.275 11.8187 199.482 11.8849 199.726 11.8849C199.972 11.8849 200.18 11.8175 200.351 11.6825C200.521 11.5452 200.65 11.3558 200.738 11.1143C200.828 10.8705 200.873 10.59 200.873 10.2727C200.873 9.95786 200.829 9.68087 200.741 9.44176C200.654 9.20265 200.525 9.01562 200.354 8.88068C200.184 8.74574 199.974 8.67827 199.726 8.67827C199.479 8.67827 199.271 8.74337 199.101 8.87358C198.933 9.00379 198.804 9.18845 198.714 9.42756C198.624 9.66667 198.579 9.94839 198.579 10.2727ZM204.495 7.54545L205.496 9.45241L206.523 7.54545H208.074L206.494 10.2727L208.117 13H206.572L205.496 11.1143L204.438 13H202.876L204.495 10.2727L202.932 7.54545H204.495Z" fill="white"/>
<line x1="189.5" y1="30" x2="189.5" y2="23" stroke="#E8178A"/>
<line x1="204.5" y1="30" x2="204.5" y2="23" stroke="#E8178A"/>
</svg>
