<svg width="89" height="59" viewBox="0 0 89 59" fill="none" xmlns="http://www.w3.org/2000/svg"><path fill="#E8178A" fill-opacity=".24" d="M18 4h8v24h-8z"/><circle cx="9" cy="16" r="8.5" fill="#fff" stroke="#667085"/><circle cx="9" cy="16" r="3" fill="#fff"/><path d="M37.227 16.182c0 1.227-.221 2.288-.664 3.182-.444.894-1.052 1.583-1.824 2.068-.773.485-1.656.727-2.648.727-.992 0-1.875-.242-2.648-.727-.773-.485-1.38-1.174-1.824-2.068-.443-.894-.665-1.955-.665-3.182 0-1.227.222-2.288.665-3.182.444-.894 1.052-1.583 1.824-2.068.773-.485 1.655-.728 2.648-.728.992 0 1.875.243 2.648.728.772.485 1.38 1.174 1.824 2.068.443.894.664 1.954.664 3.182Zm-1.363 0c0-1.008-.169-1.858-.506-2.551-.333-.694-.786-1.218-1.358-1.574a3.522 3.522 0 0 0-1.91-.534 3.55 3.55 0 0 0-1.914.534c-.568.356-1.02.88-1.358 1.574-.333.693-.5 1.543-.5 2.55 0 1.008.167 1.859.5 2.552.337.693.79 1.218 1.358 1.574a3.55 3.55 0 0 0 1.915.534A3.52 3.52 0 0 0 34 20.307c.572-.356 1.025-.88 1.358-1.574.337-.693.506-1.544.506-2.551Zm3.55 9.09v-12h1.296v1.387h.16c.098-.151.234-.345.408-.58.178-.238.432-.45.762-.636.333-.19.784-.284 1.352-.284.735 0 1.383.184 1.943.551.56.368.998.888 1.313 1.563.314.674.471 1.47.471 2.386 0 .924-.157 1.726-.471 2.404-.315.674-.75 1.197-1.307 1.568-.557.367-1.199.55-1.926.55-.56 0-1.01-.092-1.347-.278-.337-.189-.596-.403-.778-.642a8.63 8.63 0 0 1-.42-.602h-.114v4.614h-1.341Zm1.319-7.636c0 .66.097 1.24.29 1.745.193.5.475.892.846 1.176.371.28.826.42 1.364.42.56 0 1.028-.148 1.403-.443.38-.3.663-.7.853-1.204.193-.508.29-1.072.29-1.694 0-.613-.095-1.166-.285-1.659-.185-.496-.468-.888-.846-1.176-.375-.292-.847-.437-1.415-.437-.545 0-1.004.138-1.375.414-.371.273-.652.656-.841 1.148-.19.489-.284 1.059-.284 1.71Zm12.227-4.363v1.136h-4.523v-1.136h4.523Zm-3.204-2.091h1.34V19.5c0 .379.056.663.165.852.114.186.258.31.432.375.178.06.366.091.563.091.147 0 .269-.007.363-.023l.228-.045.272 1.204c-.09.035-.218.069-.38.103a2.8 2.8 0 0 1-.62.057c-.379 0-.75-.082-1.113-.245a2.212 2.212 0 0 1-.898-.744c-.235-.333-.352-.754-.352-1.261v-8.682ZM54.977 22v-8.727h1.341V22h-1.34Zm.682-10.182a.953.953 0 0 1-.676-.267.858.858 0 0 1-.278-.642c0-.25.092-.464.278-.642a.953.953 0 0 1 .676-.267c.261 0 .485.089.67.267a.85.85 0 0 1 .285.642.85.85 0 0 1-.284.642.933.933 0 0 1-.67.267Zm6.66 10.364c-.787 0-1.479-.188-2.073-.563-.591-.375-1.053-.9-1.387-1.573-.33-.675-.494-1.463-.494-2.364 0-.91.165-1.703.494-2.38.334-.679.796-1.205 1.387-1.58.594-.375 1.286-.563 2.074-.563.788 0 1.477.188 2.068.563.594.375 1.057.901 1.386 1.58.334.677.5 1.47.5 2.38 0 .901-.166 1.69-.5 2.364a3.769 3.769 0 0 1-1.386 1.573c-.591.375-1.28.563-2.068.563Zm0-1.205c.6 0 1.091-.153 1.478-.46a2.72 2.72 0 0 0 .858-1.21c.185-.5.278-1.042.278-1.625s-.093-1.127-.278-1.63a2.75 2.75 0 0 0-.858-1.223c-.386-.31-.879-.465-1.477-.465-.599 0-1.091.155-1.478.465a2.75 2.75 0 0 0-.858 1.222 4.681 4.681 0 0 0-.278 1.63c0 .584.093 1.126.278 1.626.186.5.472.903.858 1.21.387.307.88.46 1.478.46Zm7.343-4.227V22H68.32v-8.727h1.296v1.363h.113c.205-.443.515-.799.932-1.068.417-.272.954-.409 1.614-.409.59 0 1.108.121 1.55.364.444.238.789.602 1.035 1.09.246.486.37 1.1.37 1.841V22h-1.342v-5.454c0-.686-.178-1.22-.534-1.603-.356-.386-.845-.58-1.466-.58-.428 0-.81.093-1.147.279a1.993 1.993 0 0 0-.79.813c-.194.356-.29.787-.29 1.295Zm16.587-6.386V22h-1.41V11.84h-.068l-2.84 1.887v-1.431l2.909-1.932h1.409Z" fill="#1D2939"/><path d="M18 36.5h8" stroke="#E8178A"/><rect x="7" y="41" width="31" height="18" rx="3" fill="#E8178A"/><path d="M16.303 54.1c-.547 0-1.034-.09-1.46-.267-.424-.18-.756-.425-.998-.735a1.671 1.671 0 0 1-.362-1.055c0-.303.069-.58.206-.834.14-.256.329-.468.568-.636.24-.17.507-.28.803-.327v-.05a1.576 1.576 0 0 1-.945-.564c-.241-.3-.362-.65-.362-1.047 0-.377.11-.712.33-1.005a2.2 2.2 0 0 1 .906-.697c.385-.17.823-.255 1.314-.255.49 0 .926.085 1.31.255.386.171.689.404.909.7.22.294.332.628.334 1.002-.003.4-.126.749-.37 1.047a1.587 1.587 0 0 1-.937.565v.05c.291.047.555.156.792.326.239.168.428.38.568.636a1.706 1.706 0 0 1-.15 1.889c-.24.31-.574.555-1 .735-.424.178-.91.266-1.456.266Zm0-1.13c.243 0 .456-.044.639-.131a1.05 1.05 0 0 0 .426-.37.973.973 0 0 0 .156-.546.986.986 0 0 0-.16-.558 1.098 1.098 0 0 0-.433-.384 1.344 1.344 0 0 0-.628-.142c-.235 0-.444.048-.629.142-.185.093-.33.22-.437.384a1.006 1.006 0 0 0-.156.558.976.976 0 0 0 .583.916c.184.087.397.131.639.131Zm0-3.25c.203 0 .384-.04.543-.123a.936.936 0 0 0 .373-.345.952.952 0 0 0 .135-.508.91.91 0 0 0-.505-.834 1.15 1.15 0 0 0-.546-.124c-.206 0-.389.04-.547.124a.92.92 0 0 0-.373.337.927.927 0 0 0-.132.497c0 .192.045.361.135.508.09.147.215.262.373.345.159.082.34.124.544.124Zm3.912 6.325v-7.5h1.491v.917h.068c.066-.147.162-.296.288-.448a1.49 1.49 0 0 1 .497-.383c.206-.105.461-.157.767-.157.398 0 .764.105 1.1.313.337.206.606.517.807.934.201.414.302.934.302 1.559 0 .608-.099 1.122-.295 1.541-.194.417-.46.733-.796.948-.333.213-.707.32-1.122.32-.293 0-.543-.049-.749-.146a1.55 1.55 0 0 1-.5-.366 1.9 1.9 0 0 1-.299-.45h-.046v2.918h-1.513Zm1.48-4.772c0 .324.046.607.136.848.09.242.22.43.39.565a.98.98 0 0 0 .622.199.975.975 0 0 0 .625-.203c.17-.137.3-.326.387-.568.09-.243.135-.524.135-.841a2.41 2.41 0 0 0-.131-.831 1.237 1.237 0 0 0-.388-.561.98.98 0 0 0-.628-.203 1 1 0 0 0-.625.196 1.22 1.22 0 0 0-.387.554c-.09.239-.135.52-.135.845Zm5.917-2.728 1.002 1.907 1.026-1.907h1.552l-1.58 2.728L31.233 54H29.69l-1.076-1.886L27.555 54h-1.562l1.619-2.727-1.563-2.728h1.563Z" fill="#fff"/><path stroke="#E8178A" d="M18.5 40v-7m7 7v-7"/></svg>